<svg xmlns="http://www.w3.org/2000/svg" viewBox="0 0 128 128"><defs><style>.cls-1{fill:#a0aec0;}</style></defs><title>affection</title><g id="affection"><path class="cls-1" d="M127,1V32.09l-16.46-1.83c-8.56,8.56-17.87,7.32-26.73,7.32a14.55,14.55,0,0,1-13.51-9.14H55.62c-4.26,0-8.15-3.22-8.15-9.15a2.66,2.66,0,0,1,2.66-2.66H81.22a1,1,0,0,0,0-2H50.13c-1.44,0-5.58,2.65-6.44,3.38L22.36,36.29a5.35,5.35,0,0,1-8.81-4,8.78,8.78,0,0,1,2.77-6.41L37.54,6A18.28,18.28,0,0,1,50.05,1Z"/><path class="cls-1" d="M64,50.6c-7.42-12.34-26.42-7.07-26.42,7.3C37.53,74.16,64,88.39,64,88.39S90.37,74.16,90.37,57.9C90.37,43.5,71.33,38.28,64,50.6Zm20.32,8.3a1,1,0,0,1-1-1,7.14,7.14,0,0,0-7.13-7.13,1,1,0,0,1,0-2C84.31,48.77,87.06,58.9,84.27,58.9Z"/><path class="cls-1" d="M59,16.63V28.44H55.62c-4.26,0-8.15-3.22-8.15-9.15a2.66,2.66,0,0,1,2.66-2.66Z"/><path class="cls-1" d="M1.15,127V95.91l16.46,1.83c8.56-8.56,17.87-7.32,26.73-7.32a14.55,14.55,0,0,1,13.51,9.14H72.48c4.26,0,8.15,3.22,8.15,9.15A2.66,2.66,0,0,1,78,111.37H46.88a1,1,0,0,0,0,2H78c1.44,0,5.58-2.65,6.44-3.38l21.33-18.28a5.35,5.35,0,0,1,8.81,4.05,8.78,8.78,0,0,1-2.77,6.41L90.56,122.05a18.28,18.28,0,0,1-12.51,5Z"/></g></svg>