<svg xmlns="http://www.w3.org/2000/svg" viewBox="0 0 128 128"><defs><style>.cls-1{fill:#a0aec0;}</style></defs><title>Alzeimer</title><g id="Alzeimer"><rect class="cls-1" x="35.55" y="29.45" width="8.13" height="8.13"/><rect class="cls-1" x="45.71" y="11.16" width="8.13" height="8.13"/><rect class="cls-1" x="53.84" y="19.29" width="12.19" height="12.19"/><path class="cls-1" d="M122.71,77.05l-5.87,1.18v6.09a4,4,0,0,1,1,2.57,2.68,2.68,0,0,1-2.73,2.53h-8.41a1,1,0,0,0,0,2h6.45c2.6,0,3.72,3.06,1.68,5.1,0,5.92.65,10.34-3.66,14.63a12.46,12.46,0,0,1-12.25,3.18l-12.54-3.59V127H37.78s.75-15.81,1.41-28c1.26-23.76-8.72-27.82-9.66-49.2H45.71V62H57.9V49.77H74.16V57.9h8.13V49.77H74.16V33.52H90.42V45.71h12.19V33.52H90.42V17.26H74.16V1c26.66,0,44.72,20.73,44.72,43.7,0,6.18.21,6.59-.63,8.35a5.43,5.43,0,0,0,.49,5.48c7.93,11.09,7.71,10.63,8,11.66A5.35,5.35,0,0,1,122.71,77.05Z"/><rect class="cls-1" x="13.19" y="33.52" width="8.13" height="8.13"/><rect class="cls-1" x="1" y="11.16" width="8.13" height="8.13"/><rect class="cls-1" x="19.29" y="1" width="12.19" height="12.19"/><rect class="cls-1" x="1" y="41.65" width="12.19" height="12.19"/></g></svg>