<svg xmlns="http://www.w3.org/2000/svg" viewBox="0 0 128 128"><defs><style>.cls-1{fill:#a0aec0;}</style></defs><title>Amnesia</title><g id="Amnesia"><path class="cls-1" d="M63.78,12.54A19.33,19.33,0,0,0,40.64,30.48h6.14a13.13,13.13,0,0,1,4.77-9.18C59.19,15,71,19.09,72.87,28.81a13.15,13.15,0,0,1-6.36,14.11,19.35,19.35,0,0,0-9.64,16.71V63H63V59.63a13.19,13.19,0,0,1,6.58-11.4C84.91,39.39,81.22,15.92,63.78,12.54Z"/><path class="cls-1" d="M59.94,73.13A3.07,3.07,0,1,0,63,76.19,3.07,3.07,0,0,0,59.94,73.13Z"/><path class="cls-1" d="M112.53,70.19c-.32-1.08-.33-.9-8-11.66a5.43,5.43,0,0,1-.49-5.48c.84-1.76.63-2.14.63-8.35A43.71,43.71,0,0,0,61,1C23.16,1,5.78,37,20.18,71.35,27.11,88,24.89,98.73,23.55,127H72.13V110.74c13.54,3.88,13.66,4.07,16,4.07a12.49,12.49,0,0,0,12.48-12.48V96.52c2-2,.92-5.1-1.68-5.1H92.45a1,1,0,0,1,0-2h8.41c2.3,0,3.54-2.43,2.12-4.55-.51-.76-.37.37-.37-6.64l5.87-1.18A5.35,5.35,0,0,0,112.53,70.19ZM59.94,81.26A5.07,5.07,0,1,1,65,76.19,5.07,5.07,0,0,1,59.94,81.26ZM70.57,50A11.18,11.18,0,0,0,65,59.63V64a1,1,0,0,1-1,1H55.87a1,1,0,0,1-1-1V59.63A21.35,21.35,0,0,1,65.51,41.19a11.19,11.19,0,1,0-16.77-9.71,1,1,0,0,1-1,1H39.61a1,1,0,0,1-1-1A21.34,21.34,0,0,1,64.16,10.57C83.4,14.31,87.52,40.19,70.57,50Z"/></g></svg>