<svg xmlns="http://www.w3.org/2000/svg" viewBox="0 0 128 128"><defs><style>.cls-1{fill:#a0aec0;}</style></defs><title>Anorexia</title><g id="Anorexia"><path class="cls-1" d="M46.45,49C35,37.6,15.23,45.65,15.23,62V74.16a18.29,18.29,0,1,0,36.58,0V62A18.23,18.23,0,0,0,46.45,49ZM38.29,83.62a1,1,0,0,1-.71,1.7c-.57,0-.44,0-4.06-3.65-3.65,3.65-3.51,3.65-4.07,3.65a1,1,0,0,1-.71-1.7l3.36-3.36L28.74,76.9a1,1,0,0,1,1.42-1.41l3.36,3.35,3.35-3.35a1,1,0,0,1,1.42,1.41l-3.36,3.36Z"/><path class="cls-1" d="M66,112.77V127H54.84V110.74a1,1,0,0,0-2,0V127H14.19V110.74a1,1,0,0,0-2,0V127H1V112.77A20.32,20.32,0,0,1,21.32,92.45H45.71A20.32,20.32,0,0,1,66,112.77Z"/><path class="cls-1" d="M108.71,10.13c-2.62,0-5.1,4.85-5.1,10,0,3.49,2.29,6.32,5.1,6.32s5.1-2.83,5.1-6.32C113.81,15,111.33,10.13,108.71,10.13Zm0,0c-2.62,0-5.1,4.85-5.1,10,0,3.49,2.29,6.32,5.1,6.32s5.1-2.83,5.1-6.32C113.81,15,111.33,10.13,108.71,10.13Zm0,0c-2.62,0-5.1,4.85-5.1,10,0,3.49,2.29,6.32,5.1,6.32s5.1-2.83,5.1-6.32C113.81,15,111.33,10.13,108.71,10.13Zm0,0c-2.62,0-5.1,4.85-5.1,10,0,3.49,2.29,6.32,5.1,6.32s5.1-2.83,5.1-6.32C113.81,15,111.33,10.13,108.71,10.13ZM114.81,1H82.29A12.19,12.19,0,0,0,70.1,13.19V47.74L59.94,57.9h54.87A12.19,12.19,0,0,0,127,45.71V13.19A12.19,12.19,0,0,0,114.81,1ZM95.48,21.32a5.07,5.07,0,0,1-5.06,5.07h-1V49.77a1,1,0,0,1-2,0V26.39h-1a5.07,5.07,0,0,1-5.06-5.07V9.13a1,1,0,0,1,2,0V21.32a3.07,3.07,0,0,0,3.06,3.07h1V9.13a1,1,0,0,1,2,0V24.39h1a3.07,3.07,0,0,0,3.06-3.07V9.13a1,1,0,0,1,2,0Zm14.23,7V49.77a1,1,0,0,1-2,0V28.33c-3.44-.58-6.1-4-6.1-8.23,0-5.78,2.85-12,7.1-12s7.1,6.19,7.1,12C115.81,24.29,113.15,27.75,109.71,28.33Zm-1-18.2c-2.62,0-5.1,4.85-5.1,10,0,3.49,2.29,6.32,5.1,6.32s5.1-2.83,5.1-6.32C113.81,15,111.33,10.13,108.71,10.13Zm0,0c-2.62,0-5.1,4.85-5.1,10,0,3.49,2.29,6.32,5.1,6.32s5.1-2.83,5.1-6.32C113.81,15,111.33,10.13,108.71,10.13Zm0,0c-2.62,0-5.1,4.85-5.1,10,0,3.49,2.29,6.32,5.1,6.32s5.1-2.83,5.1-6.32C113.81,15,111.33,10.13,108.71,10.13Z"/></g></svg>