<svg xmlns="http://www.w3.org/2000/svg" viewBox="0 0 128 128"><defs><style>.cls-1{fill:#a0aec0;}</style></defs><title>Autism</title><g id="Autism"><path class="cls-1" d="M58.94,48.87V42.65H51.81a1,1,0,0,1-1-1,3.07,3.07,0,1,0-6.13,0,1,1,0,0,1-1,1H36.55V62A3.06,3.06,0,0,0,39.61,65h4.07a1,1,0,0,1,1,1,3.07,3.07,0,1,0,6.13,0,1,1,0,0,1,1-1h7.13V58.8A5.07,5.07,0,0,1,58.94,48.87Z"/><path class="cls-1" d="M69.06,41.65a3.07,3.07,0,0,0,6.13,0,1,1,0,0,1,1-1h7.13V21.32a3.06,3.06,0,0,0-3.06-3.06H76.19a1,1,0,0,1-1-1,3.07,3.07,0,1,0-6.13,0,1,1,0,0,1-1,1H60.94v6.23a5.07,5.07,0,0,1,0,9.93v6.23h7.12A1,1,0,0,1,69.06,41.65Z"/><path class="cls-1" d="M84.32,50.77a1,1,0,0,1-1-1V42.65H77.09a5.07,5.07,0,0,1-9.93,0H60.94v7.12a1,1,0,0,1-1,1,3.07,3.07,0,1,0,0,6.13,1,1,0,0,1,1,1V65H80.26A3.06,3.06,0,0,0,83.32,62V57.9a1,1,0,0,1,1-1,3.07,3.07,0,1,0,0-6.13Z"/><path class="cls-1" d="M112.53,70.19c-.31-1.06-.22-.75-8-11.66a5.43,5.43,0,0,1-.49-5.48c.84-1.77.63-2.1.63-8.35A43.71,43.71,0,0,0,61,1,45.45,45.45,0,0,0,46.68,2.79c0,.18,0-.12,0,7.47a5.07,5.07,0,0,1,0,9.93v7.23a1,1,0,0,1-1,1H37.58a1,1,0,0,1-1-1,3.07,3.07,0,1,0-6.13,0,1,1,0,0,1-1,1H21.32a1,1,0,0,1-1-1V24.37c-7.48,14.1-6.14,32.66-.14,47C27.11,88,24.89,98.73,23.55,127H72.13V110.74c13.54,3.88,13.66,4.07,16,4.07a12.49,12.49,0,0,0,12.48-12.48V96.52c2-2,.93-5.1-1.68-5.1H92.45a1,1,0,0,1,0-2h8.41c2.26,0,3.57-2.39,2.12-4.55-.51-.76-.37.37-.37-6.64l5.87-1.18A5.35,5.35,0,0,0,112.53,70.19ZM85.32,58.8V62A5.07,5.07,0,0,1,80.26,67H52.71a5.07,5.07,0,0,1-9.93,0H39.61A5.07,5.07,0,0,1,34.55,62V41.65a1,1,0,0,1,1-1h7.23a5.07,5.07,0,0,1,9.93,0h6.23V33.52a1,1,0,0,1,1-1,3.07,3.07,0,0,0,0-6.13,1,1,0,0,1-1-1V17.26a1,1,0,0,1,1-1h7.22a5.07,5.07,0,0,1,9.93,0h3.17a5.07,5.07,0,0,1,5.06,5.06V48.87A5.07,5.07,0,0,1,85.32,58.8Z"/><path class="cls-1" d="M21.32,18.29a1,1,0,0,1,1,1v7.13h6.23a5.07,5.07,0,0,1,9.93,0h6.23V19.29a1,1,0,0,1,1-1,3.07,3.07,0,0,0,0-6.13,1,1,0,0,1-1-1V4H25.39A3.08,3.08,0,0,0,22.32,7.1v4.06a1,1,0,0,1-1,1,3.07,3.07,0,0,0,0,6.13Z"/></g></svg>