<svg xmlns="http://www.w3.org/2000/svg" viewBox="0 0 128 128"><defs><style>.cls-1{fill:#a0aec0;}</style></defs><title>Axiety</title><g id="Axiety"><path class="cls-1" d="M57.22,0a1,1,0,1,0,0,2A1,1,0,0,0,57.22,0Zm6,0a1,1,0,1,0,0,2A1,1,0,0,0,63.23.05Zm-11,1.39a1,1,0,1,0-1,1.15A1,1,0,0,0,52.27,1.44Zm17-.79a1,1,0,0,0-1.15.84A1,1,0,1,0,69.27.65ZM46.42,2.56a1,1,0,1,0-.7,1.23A1,1,0,0,0,46.42,2.56ZM75.21,2a1,1,0,1,0-.27,2A1,1,0,0,0,75.21,2ZM40.73,4.36a1,1,0,1,0-.93,1.37A1,1,0,0,0,40.73,4.36ZM81,3.93a1,1,0,0,0-.76,1.85c0,.12,1,.24,1.3-.54A1,1,0,0,0,81,3.93ZM35.29,6.79a1,1,0,1,0-.88,1.48A1,1,0,0,0,35.29,6.79Zm51.15-.22A1,1,0,0,0,85.08,7a1,1,0,1,0,1.36-.39ZM30.16,9.83a1,1,0,1,0-.82,1.58A1,1,0,0,0,30.16,9.83Zm61.42,0A1,1,0,1,0,91,11.62,1,1,0,0,0,91.58,9.81ZM25.41,13.44a1,1,0,1,0-.74,1.66A1,1,0,0,0,25.41,13.44Zm70.91.18a1.12,1.12,0,0,0-.68-.26,1,1,0,1,0,.68.26ZM21.1,17.56a1,1,0,1,0-.67,1.74A1,1,0,0,0,21.1,17.56Zm79.48.38a1,1,0,0,0-1.41-.09c-.58.51-.25,1.41-.08,1.41A1,1,0,0,0,100.58,17.94Zm-83.3,4.2a1,1,0,0,0-1.39.24,1,1,0,1,0,1.39-.24Zm87.05.58c.1,0-.33-.43-.81-.43a1,1,0,1,0,.81.43ZM14,27.13A1,1,0,1,0,13.53,29,1,1,0,0,0,14,27.13Zm93.5.77a1,1,0,1,0-.88,1.47A1,1,0,0,0,107.51,27.9ZM11.33,32.46A1,1,0,1,0,11,34.38,1,1,0,0,0,11.33,32.46Zm98.75.94a1,1,0,0,0-1.3-.56,1,1,0,1,0,1.3.56ZM9.28,38.06A1,1,0,1,0,9,40,1,1,0,0,0,9.28,38.06ZM112,39.17a1,1,0,0,0-1.23-.71,1,1,0,1,0,1.23.71ZM7.9,43.86a1,1,0,1,0-.16,2A1,1,0,0,0,7.9,43.86Zm105.31,1.26a1,1,0,1,0-1,1.15A1,1,0,0,0,113.21,45.12Zm-106,4.66a1,1,0,1,0-.05,2A1,1,0,0,0,7.19,49.78Zm105.55.42a1,1,0,1,0,0,2A1,1,0,0,0,112.74,50.2ZM7.11,55.74a1,1,0,1,0,0,2A1,1,0,0,0,7.11,55.74Zm105.66.43a1,1,0,0,0,0,2A1,1,0,0,0,112.77,56.17ZM7.4,61.7a1,1,0,0,0,.1,2A1,1,0,1,0,7.4,61.7Zm.8,5.91a1,1,0,0,0,.19,2A1,1,0,1,0,8.2,67.61Zm2.54,6.51a1,1,0,0,0-1.23-.69,1,1,0,1,0,1.23.69Zm1.85,5.58a1,1,0,1,0-.94,1.35A1,1,0,0,0,12.59,79.7Zm2.18,5.58a1,1,0,1,0-.94,1.33A1,1,0,0,0,14.77,85.28Zm1.7,5.83a1,1,0,1,0-1,1.22A1,1,0,0,0,16.47,91.11Zm1.05,6a1,1,0,0,0-1.11-.87,1,1,0,1,0,1.11.87Zm-.62,5.07a1,1,0,0,0,0,2A1,1,0,0,0,16.9,102.16Zm-.15,6a1,1,0,1,0-.05,2A1,1,0,0,0,16.75,108.12Zm-.31,6a1,1,0,1,0-.05,2A1,1,0,0,0,16.44,114.08Zm-.3,6a1,1,0,1,0-.05,2A1,1,0,0,0,16.14,120Z"/><path class="cls-1" d="M112,64.17a1,1,0,1,1,1-1A1,1,0,0,1,112,64.17Z"/><path class="cls-1" d="M116.33,67.52a1,1,0,1,0-.81,1.58A1,1,0,0,0,116.33,67.52Zm3.53,5a1,1,0,1,0-.86,1.51A1,1,0,0,0,119.86,72.54Zm1,5.23a1,1,0,1,0,.08,2A1,1,0,0,0,120.86,77.77Zm-.48,6a1,1,0,1,0-.36,1.93A1,1,0,0,0,120.38,83.78Zm-3,5.24a1,1,0,1,0-.72,1.69A1,1,0,0,0,117.41,89Z"/><path class="cls-1" d="M111.49,93.78a1,1,0,0,1-.7-1.71,1,1,0,1,1,.7,1.71Z"/><path class="cls-1" d="M111.36,98a1,1,0,1,0-.34,1.94A1,1,0,0,0,111.36,98Zm-1.69,5.87a1,1,0,1,0-.23,2A1,1,0,0,0,109.67,103.86Zm-2,7.06h0a1,1,0,1,0,2,0A1,1,0,0,0,107.7,110.92Zm.23,5.2a1,1,0,1,0-.32,1.95A1,1,0,0,0,107.94,116.12Zm-2.6,5.65a1,1,0,1,0-.59,1.81A1,1,0,0,0,105.34,121.77Z"/><path class="cls-1" d="M65,51.81V38.4L51.33,55.53c7.55,3.78,7.57,3.57,7.57,4.41v13.4L72.61,56.21C65.06,52.44,65,52.65,65,51.81Z"/><path class="cls-1" d="M83.7,40.76A1,1,0,0,1,83,39.42a5.08,5.08,0,0,0-4.73-6.94c-1.81,0-2.12.8-2.9.4a1,1,0,0,1-.52-.67,15.25,15.25,0,0,0-30.13,3.34,1,1,0,0,1-1,1,9.16,9.16,0,0,0,0,18.32h5.61l16-19.95a1,1,0,0,1,1.78.63V51.19l7.37,3.68h7.89A7.12,7.12,0,0,0,83.7,40.76Z"/><path class="cls-1" d="M112.53,78.19c-.31-1.06-.22-.75-8-11.66a5.43,5.43,0,0,1-.49-5.48c.84-1.77.63-2.1.63-8.35A43.71,43.71,0,0,0,61,9C23.16,9,5.78,45,20.18,79.35c6.71,16.11,4.76,26.73,3.76,47.65H72.13v-8.26c13,3.72,13.61,4.07,16,4.07a12.49,12.49,0,0,0,12.48-12.48v-5.81c2-2,.93-5.1-1.68-5.1H92.45a1,1,0,0,1,0-2h8.41c2.26,0,3.57-2.39,2.12-4.55-.51-.76-.37.37-.37-6.64l5.87-1.18A5.35,5.35,0,0,0,112.53,78.19ZM34.41,64.45c-2.13,4.26-2.1,4.61-2.93,4.61a1,1,0,0,1-.89-1.44l2-4.07A1,1,0,0,1,34.41,64.45Zm4.07,10.16c-2.16,4.29-2.12,4.62-2.93,4.62a1,1,0,0,1-.9-1.45l2-4.07A1,1,0,0,1,38.48,74.61ZM46.6,64.45c-2.14,4.28-2.1,4.61-2.92,4.61a1,1,0,0,1-.9-1.44l2-4.07A1,1,0,0,1,46.6,64.45Zm4.07,10.16c-2.14,4.28-2.1,4.62-2.93,4.62a1,1,0,0,1-.89-1.45l2-4.07A1,1,0,0,1,50.67,74.61Zm20.32,0c-2.14,4.28-2.1,4.62-2.93,4.62a1,1,0,0,1-.89-1.45l2-4.07A1,1,0,0,1,71,74.61Zm8.13-10.16C77,68.71,77,69.06,76.19,69.06a1,1,0,0,1-.89-1.44l2-4.07A1,1,0,0,1,79.12,64.45Zm4.06,10.16c-2.14,4.27-2.1,4.62-2.92,4.62a1,1,0,0,1-.9-1.45l2-4.07A1,1,0,0,1,83.18,74.61Zm8.13-10.16c-2.14,4.28-2.1,4.61-2.92,4.61a1,1,0,0,1-.9-1.44l2-4.07A1,1,0,0,1,91.31,64.45Zm-9-7.58H74.64l-16,19.95a1,1,0,0,1-1.78-.63V60.55l-7.36-3.68H43.68a11.16,11.16,0,0,1-1-22.28A17.26,17.26,0,0,1,76.49,30.7a7.09,7.09,0,0,1,8.66,8.38,9.12,9.12,0,0,1-2.86,17.79Z"/></g></svg>