<svg xmlns="http://www.w3.org/2000/svg" viewBox="0 0 128 128"><defs><style>.cls-1{fill:#a0aec0;}</style></defs><title>Bipolar</title><g id="Bipolar"><path class="cls-1" d="M19.29,1A18.29,18.29,0,1,0,37.58,19.29,18.29,18.29,0,0,0,19.29,1ZM9.13,18.26a1,1,0,0,1-.45-1.9l4.07-2a1,1,0,0,1,.89,1.79C9.32,18.28,9.45,18.26,9.13,18.26Zm15.2,10.21a7.14,7.14,0,0,0-10.08,0,1,1,0,0,1-1.42,0c-2-2,7.1-7.23,12.92-1.41A1,1,0,0,1,24.33,28.47ZM29,18.15l-4.06-2a1,1,0,0,1,.89-1.79l4.07,2A1,1,0,0,1,29,18.15Z"/><path class="cls-1" d="M108.71,1A18.29,18.29,0,1,0,127,19.29,18.29,18.29,0,0,0,108.71,1Zm-7.13,16.26a1,1,0,0,1-2,0v-2a1,1,0,0,1,2,0Zm13.59,10.87a9.14,9.14,0,0,1-12.92,0,1,1,0,0,1,1.42-1.42,7.12,7.12,0,0,0,10.08,0A1,1,0,0,1,115.17,28.13Zm2.67-10.87a1,1,0,0,1-2,0v-2a1,1,0,0,1,2,0Z"/><path class="cls-1" d="M76.93,49C65.49,37.6,45.71,45.65,45.71,62V74.16a18.29,18.29,0,0,0,36.58,0V62A18.23,18.23,0,0,0,76.93,49ZM68.06,83.29H59.94a1,1,0,0,1,0-2h8.12A1,1,0,0,1,68.06,83.29Z"/><path class="cls-1" d="M96.52,112.77V127H85.32V110.74a1,1,0,0,0-2,0V127H44.68V110.74a1,1,0,0,0-2,0V127H31.48V112.77A20.33,20.33,0,0,1,51.81,92.45H76.19A20.33,20.33,0,0,1,96.52,112.77Z"/><path class="cls-1" d="M80.26,10.16H50.16l4.39-4.39a1,1,0,0,0-1.42-1.41c-6.67,6.67-6.2,6.15-6.31,6.42A1,1,0,0,0,47,11.87c6.52,6.53,6.21,6.39,6.8,6.39a1,1,0,0,0,.71-1.71l-4.39-4.39h30.1A1,1,0,0,0,80.26,10.16Z"/><path class="cls-1" d="M81.18,27c-.11-.27.33.22-6.31-6.42A1,1,0,0,0,73.45,22l4.39,4.39H47.74a1,1,0,0,0,0,2h30.1l-4.39,4.39a1,1,0,0,0,.71,1.71c.58,0,.24.17,6.8-6.39A1,1,0,0,0,81.18,27Z"/></g></svg>