<svg xmlns="http://www.w3.org/2000/svg" viewBox="0 0 128 128"><defs><style>.cls-1{fill:#a0aec0;}</style></defs><title>Book</title><g id="Book"><path class="cls-1" d="M23.35,119.87h89.42V127H23.35a8.13,8.13,0,0,1,0-16.26h89.42v7.13H23.35A1,1,0,0,0,23.35,119.87Z"/><path class="cls-1" d="M26.42,1H23.35a8.12,8.12,0,0,0-8.12,8.13V112.82c3.37-4.49,7.74-4.08,11.19-4.08Z"/><path class="cls-1" d="M40.61,56.9h59V18.26h-59ZM59.94,26.42c5.77,0-1.26,12.19,8.12,12.19h1V28.42h-1a1,1,0,0,1,0-2h4.07a1,1,0,0,1,0,2h-1V38.61c4.83,0,6.3-.84,6.47-7.15.07-2.36.14-5,2.69-5a1,1,0,0,1,0,2c-.52,0-.63,1-.69,3.1-.19,7.25-2.48,9.09-8.47,9.09v6.13h1a1,1,0,0,1,0,2H68.06a1,1,0,0,1,0-2h1V40.61h-1c-10.5,0-6.08-12.19-8.12-12.19A1,1,0,0,1,59.94,26.42Z"/><path class="cls-1" d="M28.42,1V108.74h84.35V1Zm68.1,96.52H43.68a1,1,0,0,1,0-2H96.52A1,1,0,0,1,96.52,97.52Zm0-12.2H43.68a1,1,0,0,1,0-2H96.52A1,1,0,0,1,96.52,85.32Zm5.06-27.42a1,1,0,0,1-1,1h-61a1,1,0,0,1-1-1V17.26a1,1,0,0,1,1-1h61a1,1,0,0,1,1,1Z"/></g></svg>