<svg xmlns="http://www.w3.org/2000/svg" viewBox="0 0 128 128"><defs><style>.cls-1{fill:#a0aec0;}</style></defs><title>Brain Head</title><g id="Brain_Head" data-name="Brain Head"><path class="cls-1" d="M112.53,70.19c-.32-1.07-.3-.86-8-11.66a5.43,5.43,0,0,1-.49-5.48c.84-1.76.63-2.14.63-8.35A43.71,43.71,0,0,0,61,1C23.16,1,5.78,37,20.18,71.35,27.11,88,24.89,98.73,23.55,127H72.13V110.74c13.54,3.88,13.66,4.07,16,4.07a12.49,12.49,0,0,0,12.48-12.48V96.52c2-2,.92-5.1-1.68-5.1H92.45a1,1,0,0,1,0-2h8.41c2.3,0,3.54-2.43,2.12-4.55-.51-.76-.37.37-.37-6.64l5.87-1.18A5.35,5.35,0,0,0,112.53,70.19ZM76.78,46.38a9.13,9.13,0,0,1-8.72,6.43c-13.21,0-17.26,23.31-17.3,23.55a1,1,0,0,1-1,.83c-6.41,0-6.42.14-6.83-.33s-.39.55,1.27-15.94A13.2,13.2,0,0,1,30.53,46.64a7.09,7.09,0,0,1-4.59-11.43,8.09,8.09,0,0,1,4.55-12.59,8.11,8.11,0,0,1,9.2-8.31,8,8,0,0,1,9.43-3.78,8.06,8.06,0,0,1,10.82-.6,8.05,8.05,0,0,1,12.19,2.5,9.05,9.05,0,0,1,9.6,3.85,9.12,9.12,0,0,1,9.64,9.94C101.58,34.88,91.44,49.16,76.78,46.38Z"/><path class="cls-1" d="M82.29,34.52a1,1,0,0,1,0-2,7.13,7.13,0,1,0-.93-14.2,1,1,0,0,1-1-.46A7.07,7.07,0,0,0,72,14.56,1,1,0,0,1,70.67,14a6.08,6.08,0,0,0-10-2l0,0a1,1,0,0,1-1.39,0,6.06,6.06,0,0,0-8.17-.56,8,8,0,0,1,3.76,6.82,1,1,0,0,1-2,0c0-6.56-9.05-8.52-11.7-2.44a1,1,0,0,1-1.18.56,6.08,6.08,0,0,0-7.38,6.9,1,1,0,0,1-.84,1.11,6.12,6.12,0,0,0-5.35,6.07c0,3.26,2.08,3.9,1.82,5-.07.3,0,.13-.13.31a.67.67,0,0,1-.14.19,5.07,5.07,0,0,0,2.94,8.68,13.17,13.17,0,0,1,5.76-8.06,1,1,0,0,1,1.07,1.69,11.18,11.18,0,0,0,7.47,20.54h.12s.08,0,.12,0a1.12,1.12,0,0,1,.57.27,1.16,1.16,0,0,1,.32.58.48.48,0,0,1,0,.12c0,.3.19-1.69-1.53,15.4h4.16c.88-4.44,5.59-24.38,19.12-24.38a7.13,7.13,0,1,0,0-14.26,1,1,0,0,1,0-2,9.13,9.13,0,0,1,9.1,9.87c12.06,2.28,21-8.47,13.71-15.94A9.18,9.18,0,0,1,82.29,34.52ZM45.71,52.81a7.11,7.11,0,0,1-7.1-7.1,1,1,0,0,1,2,0,5.11,5.11,0,0,0,5.1,5.1A1,1,0,0,1,45.71,52.81Zm7.52-16.4a6.1,6.1,0,0,0,5.69,8.3,1,1,0,0,1,0,2,8.1,8.1,0,0,1-7.83-10.17c-5.07.07-12.48-2.08-12.48-7.09a1,1,0,0,1,2,0c0,2.76,4.66,5.1,10.18,5.1S61,32.21,61,29.45a1,1,0,0,1,2,0C63,32.94,58.85,35.77,53.23,36.41ZM62,22.32a5.11,5.11,0,0,0-5.1,5.1,1,1,0,0,1-1,1c-2.57,0-.33-8.1,6.1-8.1A1,1,0,0,1,62,22.32Zm8.31,7.15a1,1,0,0,1-.25-2,4.85,4.85,0,0,0,4.21-4.25,1,1,0,0,1,2,.25A6.87,6.87,0,0,1,70.28,29.47Z"/></g></svg>