<svg xmlns="http://www.w3.org/2000/svg" viewBox="0 0 128 128"><defs><style>.cls-1{fill:#a0aec0;}</style></defs><title>Brain</title><g id="Brain"><path class="cls-1" d="M117.28,73.49a16.25,16.25,0,0,1-6,23.15A16.24,16.24,0,0,1,100,116.21,18.28,18.28,0,0,1,65,108.71,17.18,17.18,0,0,1,81.81,91.44a1,1,0,0,0,0-2A19.13,19.13,0,0,0,65,100.13V85.29a23.21,23.21,0,0,0,16.51-7.9,14.26,14.26,0,0,1,12,14,1,1,0,0,0,.07.35,15.73,15.73,0,0,0-10.72,14.89,1,1,0,0,0,2,0A13.73,13.73,0,0,1,98.55,93a1,1,0,0,0,0-2,16.31,16.31,0,0,0-3.07.3A16.24,16.24,0,0,0,82.93,75.63,23.29,23.29,0,0,0,87.16,59a.65.65,0,0,0,.2,0,10,10,0,0,0,10-9.07A13.52,13.52,0,0,0,106,46a1,1,0,0,0-1.41-1.41A11.63,11.63,0,1,1,88.16,28.13a1,1,0,0,0-1.41-1.42,13.63,13.63,0,0,0,8.57,23.22,8,8,0,0,1-8,7.07,1,1,0,0,0-.5.16A23.41,23.41,0,0,0,65,38.63V13.19A12.19,12.19,0,0,1,88.79,9.44,13.14,13.14,0,0,0,78.23,22.35a1,1,0,0,0,2,0,11.15,11.15,0,0,1,9.19-11,12.18,12.18,0,0,1,13.46,16.13,16.26,16.26,0,0,1,14,21.64,14.22,14.22,0,0,1-1.05,22.46l.25.29A13.21,13.21,0,0,1,97.76,68.4a1,1,0,0,0-1.66,1.13A15.23,15.23,0,0,0,117.28,73.49Z"/><path class="cls-1" d="M39.84,28.13a11.52,11.52,0,0,1,3.41,8.22,11.65,11.65,0,0,1-19.86,8.23A1,1,0,0,0,22,46a13.52,13.52,0,0,0,8.68,3.94,10,10,0,0,0,10,9.07c.46,0,0-.61,0,3a23.24,23.24,0,0,0,4.42,13.66A16.24,16.24,0,0,0,32.52,91.26a16.31,16.31,0,0,0-3.07-.3,1,1,0,0,0,0,2,13.73,13.73,0,0,1,13.72,13.72,1,1,0,0,0,2,0A15.73,15.73,0,0,0,34.45,91.79a1,1,0,0,0,.07-.35,14.26,14.26,0,0,1,12-14A23.21,23.21,0,0,0,63,85.29v14.84A19.13,19.13,0,0,0,46.24,89.44a1,1,0,0,0-.05,2A17.18,17.18,0,0,1,63,108.71a18.28,18.28,0,0,1-34.95,7.5,16.24,16.24,0,0,1-11.3-19.57,16.25,16.25,0,0,1-6-23.15,15.23,15.23,0,0,0,21.18-4,1,1,0,0,0-1.66-1.13A13.22,13.22,0,0,1,11.9,71.87l.25-.29A14.22,14.22,0,0,1,11.1,49.12a16.26,16.26,0,0,1,14-21.64A12.19,12.19,0,0,1,36.58,11.16,11.18,11.18,0,0,1,47.77,22.35a1,1,0,0,0,2,0A13.14,13.14,0,0,0,39.21,9.44,12.19,12.19,0,0,1,63,13.19V38.63A23.41,23.41,0,0,0,41.14,57.16a1,1,0,0,0-.5-.16,8,8,0,0,1-8-7.07,13.63,13.63,0,0,0,8.57-23.22A1,1,0,0,0,39.84,28.13Z"/><path class="cls-1" d="M65,40.64A21.35,21.35,0,1,0,85.35,62,21.36,21.36,0,0,0,65,40.64ZM77.19,66a1,1,0,0,1-1,1H69.06v7.13a1,1,0,0,1-1,1H59.94a1,1,0,0,1-1-1V67H51.81a1,1,0,0,1-1-1V57.9a1,1,0,0,1,1-1h7.13V49.77a1,1,0,0,1,1-1h8.12a1,1,0,0,1,1,1V56.9h7.13a1,1,0,0,1,1,1Z"/><path class="cls-1" d="M75.19,58.9V65H68.06a1,1,0,0,0-1,1v7.13H60.94V66a1,1,0,0,0-1-1H52.81V58.9h7.13a1,1,0,0,0,1-1V50.77h6.12V57.9a1,1,0,0,0,1,1Z"/></g></svg>