<svg xmlns="http://www.w3.org/2000/svg" viewBox="0 0 128 128"><defs><style>.cls-1{fill:#a0aec0;}</style></defs><title>Cannabis</title><g id="Cannabis"><path class="cls-1" d="M68.29,56.84A1,1,0,0,1,67.57,55c13-7.42,17.42-12.82,19.59-24.35C77.05,32.54,69.61,41,64.91,50.18a1,1,0,0,1-1.21.48C61.69,50,65,48,65,31.48c0-9-3.45-17-5.09-20.23-1.65,3.28-5.1,11.24-5.1,20.23,0,16.44,3.33,18.5,1.33,19.18a1,1,0,0,1-1.2-.48C50.26,41,42.82,32.54,32.71,30.65,34.88,42.18,39.32,47.58,52.3,55a1,1,0,0,1-.72,1.84c-7.93-1.87-13.4-1.92-20.34,3C38.88,64.14,48,63.51,51.67,63a1,1,0,0,1,.84,1.7,14.67,14.67,0,0,0-3.72,8.42C57.16,72.61,59,65.86,59,65.79a1.09,1.09,0,0,1,.09-.21,1,1,0,0,1,1.54-.28c.54.48,1.74,7.29,10.48,7.83a14.67,14.67,0,0,0-3.72-8.42A1,1,0,0,1,68.2,63c3.69.5,12.79,1.13,20.43-3.16C81.69,54.92,76.23,55,68.29,56.84Z"/><path class="cls-1" d="M112.53,70.19c-.32-1.08-.33-.9-8-11.66a5.43,5.43,0,0,1-.49-5.48c.84-1.76.63-2.14.63-8.35A43.71,43.71,0,0,0,61,1C23.16,1,5.78,37,20.18,71.35,27.11,88,24.89,98.73,23.55,127H72.13V110.74c13.54,3.88,13.66,4.07,16,4.07a12.49,12.49,0,0,0,12.48-12.48V96.52c2-2,.92-5.1-1.68-5.1H92.45a1,1,0,0,1,0-2h8.41c2.3,0,3.54-2.43,2.12-4.55-.51-.76-.37.37-.37-6.64l5.87-1.18A5.35,5.35,0,0,0,112.53,70.19ZM91,60.77c-7.09,4.61-15.64,4.84-20.63,4.47a16.7,16.7,0,0,1,2.8,8.92,1,1,0,0,1-1,1c-6,0-9.36-2.68-11.19-5.1V82.29a1,1,0,0,1-2,0V70.06c-1.84,2.42-5.22,5.1-11.2,5.1a1,1,0,0,1-1-1,16.7,16.7,0,0,1,2.8-8.92c-5,.37-13.54.14-20.63-4.47a1,1,0,0,1-.07-1.63c6.34-4.9,11.57-6,17.76-5.26-10.36-6.71-14.19-12.8-16.1-24.26a1,1,0,0,1,1.11-1.16c10.72,1.34,18,9.29,22.06,15.48a85.65,85.65,0,0,1-.83-12.46A49,49,0,0,1,59.08,8.61a1,1,0,0,1,1.71,0A49,49,0,0,1,67,31.48a85.65,85.65,0,0,1-.83,12.46c4.1-6.19,11.34-14.14,22.06-15.48a1,1,0,0,1,1.11,1.16c-1.91,11.46-5.74,17.55-16.1,24.26,6.19-.74,11.42.36,17.76,5.26A1,1,0,0,1,91,60.77Z"/></g></svg>