<svg xmlns="http://www.w3.org/2000/svg" viewBox="0 0 128 128"><defs><style>.cls-1{fill:#a0aec0;}</style></defs><title>Chronic fatigue</title><g id="Chronic_fatigue" data-name="Chronic fatigue"><path class="cls-1" d="M65,23.35V16.23H50.77v7.12a1,1,0,0,1-1,1H40.61v59H75.19v-59H66A1,1,0,0,1,65,23.35Zm7,47.71v8.13a1,1,0,0,1-1,1H44.81a1,1,0,0,1-1-1V71.06a1,1,0,0,1,1-1H71A1,1,0,0,1,72,71.06Z"/><rect class="cls-1" x="45.81" y="72.06" width="24.19" height="6.13"/><path class="cls-1" d="M112.53,70.19c-.32-1.08-.33-.9-8-11.66a5.43,5.43,0,0,1-.49-5.48c.84-1.76.63-2.14.63-8.35A43.71,43.71,0,0,0,61,1C23.16,1,5.78,37,20.18,71.35,27.11,88,24.89,98.73,23.55,127H72.13V110.74c13.54,3.88,13.66,4.07,16,4.07a12.49,12.49,0,0,0,12.48-12.48V96.52c2-2,.92-5.1-1.68-5.1H92.45a1,1,0,0,1,0-2h8.41c2.3,0,3.54-2.43,2.12-4.55-.51-.76-.37.37-.37-6.64l5.87-1.18A5.35,5.35,0,0,0,112.53,70.19ZM77.19,84.32a1,1,0,0,1-1,1H39.61a1,1,0,0,1-1-1v-61a1,1,0,0,1,1-1h9.16V15.23a1,1,0,0,1,1-1H66a1,1,0,0,1,1,1v7.12h9.16a1,1,0,0,1,1,1Z"/></g></svg>