<svg xmlns="http://www.w3.org/2000/svg" viewBox="0 0 128 128"><defs><style>.cls-1{fill:#a0aec0;}</style></defs><title>Clinic</title><g id="Clinic"><rect class="cls-1" x="21.32" y="17.26" width="22.39" height="11.19"/><rect class="cls-1" x="84.29" y="17.26" width="22.39" height="11.19"/><path class="cls-1" d="M45.71,1V37.58H82.29V1Zm28.45,9.13c-2,0,2.38,12.19-8.13,12.19H65v6.13h1a1,1,0,0,1,0,2H62a1,1,0,0,1,0-2h1V22.32c-6,0-8.28-1.85-8.48-9.09-.05-2.15-.17-3.1-.68-3.1a1,1,0,0,1,0-2c2.55,0,2.62,2.68,2.68,5,.17,6.33,1.66,7.15,6.48,7.15V10.13H62a1,1,0,0,1,0-2H66a1,1,0,0,1,0,2H65V20.32h1c9.35,0,2.39-12.19,8.13-12.19A1,1,0,0,1,74.16,10.13Z"/><rect class="cls-1" x="36.55" y="46.71" width="10.19" height="10.19"/><rect class="cls-1" x="58.9" y="69.06" width="10.19" height="10.19"/><path class="cls-1" d="M89.42,91.42H38.58v6.13H89.42Z"/><rect class="cls-1" x="65" y="99.55" width="20.35" height="27.45"/><rect class="cls-1" x="36.55" y="69.06" width="10.19" height="10.19"/><rect class="cls-1" x="58.9" y="46.71" width="10.19" height="10.19"/><rect class="cls-1" x="42.65" y="99.55" width="20.35" height="27.45"/><path class="cls-1" d="M84.29,30.45v9.13H43.71V30.45H25.39V127H40.65V99.55H37.58a1,1,0,0,1-1-1V90.42a1,1,0,0,1,1-1H90.42a1,1,0,0,1,1,1v8.13a1,1,0,0,1-1,1H87.35V127h15.26V30.45ZM48.74,80.26a1,1,0,0,1-1,1H35.55a1,1,0,0,1-1-1V68.06a1,1,0,0,1,1-1H47.74a1,1,0,0,1,1,1Zm0-22.36a1,1,0,0,1-1,1H35.55a1,1,0,0,1-1-1V45.71a1,1,0,0,1,1-1H47.74a1,1,0,0,1,1,1ZM71.1,80.26a1,1,0,0,1-1,1H57.9a1,1,0,0,1-1-1V68.06a1,1,0,0,1,1-1H70.1a1,1,0,0,1,1,1Zm0-22.36a1,1,0,0,1-1,1H57.9a1,1,0,0,1-1-1V45.71a1,1,0,0,1,1-1H70.1a1,1,0,0,1,1,1ZM93.45,80.26a1,1,0,0,1-1,1H80.26a1,1,0,0,1-1-1V68.06a1,1,0,0,1,1-1H92.45a1,1,0,0,1,1,1Zm0-22.36a1,1,0,0,1-1,1H80.26a1,1,0,0,1-1-1V45.71a1,1,0,0,1,1-1H92.45a1,1,0,0,1,1,1Z"/><rect class="cls-1" x="81.26" y="46.71" width="10.19" height="10.19"/><rect class="cls-1" x="81.26" y="69.06" width="10.19" height="10.19"/><rect class="cls-1" x="104.61" y="75.16" width="11.23" height="8.16"/><rect class="cls-1" x="104.61" y="95.48" width="11.23" height="8.16"/><path class="cls-1" d="M104.61,43.68v9.16h12.23a1,1,0,0,1,1,1V64a1,1,0,0,1-1,1H104.61v8.16h12.23a1,1,0,0,1,1,1V84.32a1,1,0,0,1-1,1H104.61v8.16h12.23a1,1,0,0,1,1,1v10.17a1,1,0,0,1-1,1H104.61V127H127V43.68Z"/><rect class="cls-1" x="104.61" y="54.84" width="11.23" height="8.16"/><path class="cls-1" d="M11.16,105.65a1,1,0,0,1-1-1V94.48a1,1,0,0,1,1-1H23.39V85.32H11.16a1,1,0,0,1-1-1V74.16a1,1,0,0,1,1-1H23.39V65H11.16a1,1,0,0,1-1-1V53.84a1,1,0,0,1,1-1H23.39V43.68H1V127H23.39V105.65Z"/><rect class="cls-1" x="12.16" y="54.84" width="11.23" height="8.16"/><rect class="cls-1" x="12.16" y="95.48" width="11.23" height="8.16"/><rect class="cls-1" x="12.16" y="75.16" width="11.23" height="8.16"/></g></svg>