<svg xmlns="http://www.w3.org/2000/svg" viewBox="0 0 128 128"><defs><style>.cls-1{fill:#a0aec0;}</style></defs><title>Consultation Session</title><g id="Consultation_Session" data-name="Consultation Session"><path class="cls-1" d="M122.94,94.45v12.23H19.29L9.86,76.13a9.83,9.83,0,0,0,5-1.76C30.66,92.36,26.06,87.68,34,94.45Z"/><path class="cls-1" d="M122.94,84.32H37.72S15.23,59.94,12.54,58.68A8,8,0,0,0,2.77,61,8.12,8.12,0,0,0,9.13,74.16a8,8,0,0,0,5.95-2.6C31.83,90.65,27.7,86.44,34.72,92.45h88.22a4,4,0,0,0,2.86-1.2A4.06,4.06,0,0,0,122.94,84.32ZM9.13,67.53a1.5,1.5,0,0,1,0-3A1.5,1.5,0,0,1,9.13,67.53Z"/><rect class="cls-1" x="19.29" y="108.68" width="8.13" height="6.13"/><rect class="cls-1" x="114.81" y="108.68" width="8.13" height="6.13"/><path class="cls-1" d="M26.39,55.9a8.62,8.62,0,0,1-12.2,0l-2-2A8.62,8.62,0,0,1,24.35,41.68l2,2A8.63,8.63,0,0,1,26.39,55.9Z"/><path class="cls-1" d="M111.17,67c0,.9.15.24-5.52,15.36L60.06,82.1a5.07,5.07,0,0,0-4.19-7.91H42.11L32.25,62.36a1,1,0,0,0-1.53,1.28L40.88,75.83c.42.51-.41.36,15,.36A3.07,3.07,0,0,1,57,82.09L39,82,23.46,66.13a8.83,8.83,0,0,1,2.11-9.54c2.79-2.68,10.39-3.11,14.92,2.1l8.25,9.41,48.78,4.06,7.68-7.68A3.49,3.49,0,0,1,111.17,67Z"/><path class="cls-1" d="M57.9,13.19C43.42,13.19,36.24,30.82,46.41,41l-4.76,4.76H57.9a16.26,16.26,0,0,0,0-32.52ZM49.77,31a1.5,1.5,0,0,1,0-3A1.5,1.5,0,0,1,49.77,31Zm8.13,0a1.5,1.5,0,0,1,0-3A1.5,1.5,0,0,1,57.9,31ZM66,31a1.5,1.5,0,0,1,0-3A1.5,1.5,0,0,1,66,31Z"/></g></svg>