<svg xmlns="http://www.w3.org/2000/svg" viewBox="0 0 128 128"><defs><style>.cls-1{fill:#a0aec0;}</style></defs><title>Counseling</title><g id="Counseling"><path class="cls-1" d="M9.13,66A4.07,4.07,0,0,0,1,66v61H9.13V106.68H31.48V127h8.13V98.55H9.13Z"/><path class="cls-1" d="M23.34,72.8a7.17,7.17,0,0,0,10.09,0l8.45-8.48a3.18,3.18,0,0,0,.35-4.27,3.12,3.12,0,0,0-4.52-.21l-8.62,8.62a1,1,0,0,1-1.41,0l-5.76-5.75a1,1,0,0,1,1.42-1.42l5,5.05,1-1V61a8.64,8.64,0,0,0-1.81-5.39,10.15,10.15,0,0,0,9.59-5l2-3.52a10.17,10.17,0,0,0-3.72-13.88h0a10.16,10.16,0,0,0-13.88,3.72l-2,3.52a10.15,10.15,0,0,0,.9,11.45,9.14,9.14,0,0,0-9.14,7.09C12.15,62.33,13.62,63.08,23.34,72.8Z"/><path class="cls-1" d="M54,117.42l-2.22-.55V93.8a8.12,8.12,0,0,0-7.39-8.08l-15-1.37V76.81a9,9,0,0,1-7.5-2.6c-10.52-10.53-10.11-10-10.79-11v23.2A10.16,10.16,0,0,0,21.29,96.55H41.61V125H59.9A7.83,7.83,0,0,0,54,117.42Z"/><path class="cls-1" d="M122.94,62A4.07,4.07,0,0,0,118.87,66V98.55H88.39V127h8.13V106.68h22.35V127H127V66A4.06,4.06,0,0,0,122.94,62Z"/><path class="cls-1" d="M116.87,86.39V81.93a9.15,9.15,0,0,1-7.13,3.42c-16.94,0-15.95.15-17.28-.44l-8.84.81a8.12,8.12,0,0,0-7.39,8.08v25.07l-2.22.55A7.83,7.83,0,0,0,68.1,127H86.39V96.55h20.32A10.16,10.16,0,0,0,116.87,86.39Z"/><path class="cls-1" d="M62,33.52A16.26,16.26,0,1,0,62,1C47.45,1,40.32,18.6,50.47,28.75l-4.76,4.77ZM70.1,15.76a1.5,1.5,0,0,1,0,3A1.5,1.5,0,0,1,70.1,15.76Zm-8.13,0a1.5,1.5,0,0,1,0,3A1.5,1.5,0,0,1,62,15.76Zm-8.13,0a1.5,1.5,0,0,1,0,3A1.5,1.5,0,0,1,53.84,15.76Z"/><path class="cls-1" d="M90.42,41.65l-4.76-4.76a16.27,16.27,0,0,0-7-27.14c5.3,11.68-2.8,25.77-17.14,25.77a16.16,16.16,0,0,0,12.69,6.13Z"/><path class="cls-1" d="M106.71,51.84a10.16,10.16,0,0,0,10.16-10.16V37.61a10.16,10.16,0,0,0-20.32,0v4.07A10.16,10.16,0,0,0,106.71,51.84Z"/><path class="cls-1" d="M94.52,83.35h15.22a7.13,7.13,0,0,0,7.13-7.12V61a9.15,9.15,0,0,0-18.29,0V75.23h10.16V60a1,1,0,0,1,2,0V76.23a1,1,0,0,1-1,1H94.52a3.06,3.06,0,1,0,0,6.12Z"/></g></svg>