<svg xmlns="http://www.w3.org/2000/svg" viewBox="0 0 128 128"><defs><style>.cls-1{fill:#a0aec0;}</style></defs><title>Creativity</title><g id="Creativity"><path class="cls-1" d="M50.77,82.29a5.11,5.11,0,0,0,5.1,5.1H64a5.11,5.11,0,0,0,5.1-5.1V73.13H50.77Z"/><path class="cls-1" d="M74.17,29.79C61.35,18.32,41.34,26.13,38.84,42.31a21.28,21.28,0,0,0,7.52,19.86,12.44,12.44,0,0,1,4.39,9H69.11A12.79,12.79,0,0,1,73.76,62,21.33,21.33,0,0,0,74.17,29.79Zm-9.28,18.4c-6.51,13-6.12,12.75-7,12.75A1,1,0,0,1,57,59.49l5.37-10.75H53.84a1,1,0,0,1-.9-1.45L59,35.1a1,1,0,0,1,1.79.9L55.46,46.74c9,0,9-.18,9.39.48A1,1,0,0,1,64.89,48.19Z"/><path class="cls-1" d="M112.53,70.19c-.32-1.08-.33-.9-8-11.66a5.43,5.43,0,0,1-.49-5.48c.84-1.76.63-2.14.63-8.35A43.71,43.71,0,0,0,61,1C23.16,1,5.78,37,20.18,71.35,27.11,88,24.89,98.73,23.55,127H72.13V110.74c13.54,3.88,13.66,4.07,16,4.07a12.49,12.49,0,0,0,12.48-12.48V96.52c2-2,.92-5.1-1.68-5.1H92.45a1,1,0,0,1,0-2h8.41c2.3,0,3.54-2.43,2.12-4.55-.51-.76-.37.37-.37-6.64l5.87-1.18A5.35,5.35,0,0,0,112.53,70.19ZM58.94,9.13a1,1,0,0,1,2,0v6.1a1,1,0,0,1-2,0Zm-24.16,10,4.31,4.31a1,1,0,0,1-.71,1.7c-.58,0-.45,0-5-4.6A1,1,0,0,1,34.78,19.14ZM29.45,46.71h-6.1a1,1,0,0,1,0-2h6.1A1,1,0,0,1,29.45,46.71ZM39.09,68c-4.64,4.64-4.45,4.61-5,4.61a1,1,0,0,1-.71-1.71l4.31-4.31A1,1,0,0,1,39.09,68Zm36-4.48a10.75,10.75,0,0,0-4,8.64V82.29a7.11,7.11,0,0,1-7.1,7.1H55.87a7.11,7.11,0,0,1-7.1-7.1V71.94a10.53,10.53,0,0,0-3.68-8.22A23.28,23.28,0,0,1,36.87,42C39.59,24.34,61.45,15.72,75.5,28.3A23.34,23.34,0,0,1,75.05,63.49Zm10,8.79L80.78,68a1,1,0,0,1,1.42-1.41l4.31,4.31A1,1,0,0,1,85.09,72.28Zm1.42-51.73c-4.63,4.63-4.45,4.6-5,4.6a1,1,0,0,1-.71-1.7l4.31-4.31A1,1,0,0,1,86.51,20.55Zm10,26.16h-6.1a1,1,0,0,1,0-2h6.1A1,1,0,0,1,96.52,46.71Z"/></g></svg>