<svg xmlns="http://www.w3.org/2000/svg" viewBox="0 0 128 128"><defs><style>.cls-1{fill:#a0aec0;}</style></defs><title>Crying</title><g id="Crying"><circle class="cls-1" cx="74.16" cy="55.87" r="7.13" transform="translate(-5.84 103) rotate(-67.5)"/><path class="cls-1" d="M74.16,77.23A21.36,21.36,0,1,0,52.81,55.87,21.38,21.38,0,0,0,74.16,77.23Zm0-30.49A9.13,9.13,0,1,1,65,55.87,9.14,9.14,0,0,1,74.16,46.74Z"/><path class="cls-1" d="M82.26,34a23.35,23.35,0,1,1-16.2,0c-19.52,2.18-36,12.14-44.74,26,22.16,35.15,83.48,35.21,105.68,0C118.28,46.11,101.79,36.15,82.26,34Z"/><path class="cls-1" d="M127.52,47.75A55.83,55.83,0,0,0,113,31.5l6-6a1,1,0,0,0-1.42-1.41l-6.23,6.24a63.54,63.54,0,0,0-18-8.76l5.33-9.2a1,1,0,0,0-1.73-1L91.33,21a69.11,69.11,0,0,0-16.94-2.36V7.1a1,1,0,0,0-2,0V18.62A69.11,69.11,0,0,0,55.45,21l-5.58-9.63a1,1,0,0,0-1.73,1l5.33,9.2a63.65,63.65,0,0,0-18,8.75l-6.24-6.23a1,1,0,0,0-1.41,1.41l6,6A56,56,0,0,0,19.25,47.75a1,1,0,0,0,1.73,1c10.6-18.09,31.23-28.16,52.41-28.16,21.38,0,41.91,10.25,52.41,28.16A1,1,0,0,0,127.52,47.75Z"/><path class="cls-1" d="M1,104.65a16.26,16.26,0,0,0,32.52,0c0-16.26-16.26-32.52-16.26-32.52S1,88.39,1,104.65Z"/></g></svg>