<svg xmlns="http://www.w3.org/2000/svg" viewBox="0 0 128 128"><defs><style>.cls-1{fill:#a0aec0;}</style></defs><title>Depression</title><g id="Depression"><path class="cls-1" d="M83.7,30.59A1,1,0,0,1,83,29.26a5.08,5.08,0,0,0-4.73-6.94c-1.81,0-2.11.8-2.9.4a1,1,0,0,1-.52-.67,15.25,15.25,0,0,0-30.13,3.34,1,1,0,0,1-1,1,9.16,9.16,0,1,0,0,18.32H82.29A7.13,7.13,0,0,0,83.7,30.59Z"/><path class="cls-1" d="M112.53,70.19c-.32-1.08-.33-.9-8-11.66a5.43,5.43,0,0,1-.49-5.48c.84-1.76.63-2.14.63-8.35A43.71,43.71,0,0,0,61,1C23.16,1,5.78,37,20.18,71.35,27.11,88,24.89,98.73,23.55,127H72.13V110.74c13.54,3.88,13.66,4.07,16,4.07a12.49,12.49,0,0,0,12.48-12.48V96.52c2-2,.92-5.1-1.68-5.1H92.45a1,1,0,0,1,0-2h8.41c2.3,0,3.54-2.43,2.12-4.55-.51-.76-.37.37-.37-6.64l5.87-1.18A5.35,5.35,0,0,0,112.53,70.19ZM38.48,54.29c-2.13,4.25-2.11,4.61-2.93,4.61a1,1,0,0,1-.9-1.44l2-4.07A1,1,0,0,1,38.48,54.29Zm4.06,10.16c-2.13,4.25-2.1,4.61-2.93,4.61a1,1,0,0,1-.89-1.44l2-4.07A1,1,0,0,1,42.54,64.45Zm8.13-10.16c-2.13,4.25-2.1,4.61-2.93,4.61a1,1,0,0,1-.89-1.44l2-4.07A1,1,0,0,1,50.67,54.29Zm4.06,10.16c-2.12,4.25-2.1,4.61-2.92,4.61a1,1,0,0,1-.9-1.44l2-4.07A1,1,0,0,1,54.73,64.45Zm8.13-10.16c-2.12,4.25-2.1,4.61-2.93,4.61A1,1,0,0,1,59,57.46l2-4.07A1,1,0,0,1,62.86,54.29Zm4.07,10.16C64.8,68.7,64.82,69.06,64,69.06a1,1,0,0,1-.89-1.44l2-4.07A1,1,0,0,1,66.93,64.45Zm8.13-10.16C72.93,58.54,73,58.9,72.13,58.9a1,1,0,0,1-.9-1.44l2-4.07A1,1,0,0,1,75.06,54.29Zm4.06,10.16C77,68.7,77,69.06,76.19,69.06a1,1,0,0,1-.89-1.44l2-4.07A1,1,0,0,1,79.12,64.45Zm8.13-10.16c-2.13,4.25-2.1,4.61-2.93,4.61a1,1,0,0,1-.89-1.44l2-4.07A1,1,0,0,1,87.25,54.29Zm-5-7.58H43.68a11.16,11.16,0,0,1-1-22.28,17.26,17.26,0,0,1,33.79-3.89,7.09,7.09,0,0,1,8.66,8.38,9.12,9.12,0,0,1-2.86,17.79Z"/></g></svg>