<svg xmlns="http://www.w3.org/2000/svg" viewBox="0 0 128 128"><defs><style>.cls-1{fill:#a0aec0;}</style></defs><title>Drugs Addict</title><g id="Drugs_Addict" data-name="Drugs Addict"><rect class="cls-1" x="13.19" y="45.71" width="16.26" height="6.13"/><polygon class="cls-1" points="24.98 37.58 17.66 37.58 15.23 43.71 27.42 43.71 24.98 37.58"/><path class="cls-1" d="M22.32,2a1,1,0,0,0-2,0V35.58h2Z"/><path class="cls-1" d="M40.65,112.81H33.52v-9.2h-6.1a1,1,0,0,1,0-2h6.1V95.48H29.45a1,1,0,0,1,0-2h4.07V87.35h-6.1a1,1,0,0,1,0-2h6.1V79.23H29.45a1,1,0,0,1,0-2h4.07V71.1h-6.1a1,1,0,0,1,0-2h6.1V63H29.45a1,1,0,0,1,0-2h4.07V53.84H9.13v59H2a1,1,0,0,0,0,2H40.65A1,1,0,0,0,40.65,112.81Z"/><path class="cls-1" d="M31.48,125H27.42v-8.19H15.23V125H11.16a1,1,0,0,0,0,2H31.48A1,1,0,0,0,31.48,125Z"/><path class="cls-1" d="M110.4,94.76,121.61,106a1,1,0,0,1-.71,1.71c-.57,0,.29.69-11.91-11.51a10.16,10.16,0,1,0,1.41-1.41Z"/><path class="cls-1" d="M69,103.56a10.18,10.18,0,0,0,6.18,17.3V105a1,1,0,0,1,2,0v15.87A10.16,10.16,0,1,0,69,103.56Z"/><path class="cls-1" d="M108,18.58A1,1,0,0,1,109.42,20L98.2,31.22a10.17,10.17,0,1,0-1.42-1.42Z"/><path class="cls-1" d="M51.81,57.9A8.13,8.13,0,0,0,43.68,66v7.13H59.94V66A8.12,8.12,0,0,0,51.81,57.9Z"/><path class="cls-1" d="M43.68,82.29a8.13,8.13,0,1,0,16.26,0V75.16H43.68Z"/><path class="cls-1" d="M85,64a8.13,8.13,0,0,0,11.5,11.5l5-5L90.06,59Z"/><path class="cls-1" d="M110.4,58.25A8.15,8.15,0,0,0,96.52,52.5l-5,5L103,69C107.86,64.15,110.4,62.48,110.4,58.25Z"/><path class="cls-1" d="M51.45,30.43l11.49-11.5-5-5a8.13,8.13,0,0,0-11.49,11.5Z"/><path class="cls-1" d="M71.78,31.14a8.14,8.14,0,0,0-2.38-5.75l-5-5L52.86,31.84l5,5A8.14,8.14,0,0,0,71.78,31.14Z"/></g></svg>