<svg xmlns="http://www.w3.org/2000/svg" viewBox="0 0 128 128"><defs><style>.cls-1{fill:#a0aec0;}</style></defs><title>Emotional meter</title><g id="Emotional_meter" data-name="Emotional meter"><path class="cls-1" d="M12.2,117.87H1A63,63,0,0,1,31.64,64.81l5.58,9.69A51.73,51.73,0,0,0,12.2,117.87Z"/><path class="cls-1" d="M39,73.5l-5.59-9.69a63,63,0,0,1,61.26,0L89,73.5A51.86,51.86,0,0,0,39,73.5Z"/><path class="cls-1" d="M90.78,74.5l5.58-9.69A63,63,0,0,1,127,117.87H115.8A51.75,51.75,0,0,0,90.78,74.5Z"/><path class="cls-1" d="M69.1,120.9a5.1,5.1,0,1,1-10.2,0c0-4.44,3.38-24.73,5.1-34.78C65.72,96.17,69.1,116.46,69.1,120.9Z"/><path class="cls-1" d="M127,119.87V127H67.61a7.07,7.07,0,0,0,3.49-6.1c0-6.11-5.87-39.4-6.12-40.82a1,1,0,0,0-2,0c-.25,1.42-6.12,34.71-6.12,40.82a7.07,7.07,0,0,0,3.49,6.1H1v-7.13H13.19a1,1,0,0,0,1-1A49.72,49.72,0,0,1,39,75.79l.12-.05s0,0,0,0a49.86,49.86,0,0,1,49.7,0s0,0,.05,0l.12.05a49.69,49.69,0,0,1,24.79,43.08,1,1,0,0,0,1,1Z"/><path class="cls-1" d="M19.29,17.26A18.29,18.29,0,1,0,37.58,35.55,18.29,18.29,0,0,0,19.29,17.26ZM9.13,34.52a1,1,0,0,1-.45-1.9l4.07-2a1,1,0,0,1,.89,1.79C9.33,34.54,9.45,34.52,9.13,34.52Zm15.2,10.21a7.13,7.13,0,0,0-10.08,0,1,1,0,0,1-1.42,0c-2-2,7.1-7.23,12.92-1.41A1,1,0,0,1,24.33,44.73ZM29,34.41l-4.06-2a1,1,0,0,1,.89-1.79l4.07,2A1,1,0,0,1,29,34.41Z"/><path class="cls-1" d="M64,1A18.29,18.29,0,1,0,82.29,19.29,18.29,18.29,0,0,0,64,1ZM56.87,17.26a1,1,0,0,1-2,0v-2a1,1,0,0,1,2,0ZM70.46,28.13a9.14,9.14,0,0,1-12.92,0A1,1,0,0,1,59,26.71a7.12,7.12,0,0,0,10.08,0A1,1,0,0,1,70.46,28.13Zm2.67-10.87a1,1,0,0,1-2,0v-2a1,1,0,0,1,2,0Z"/><path class="cls-1" d="M108.71,17.26A18.29,18.29,0,1,0,127,35.55,18.29,18.29,0,0,0,108.71,17.26ZM99,30.59l4.06,2a1,1,0,0,1-.45,1.9c-.32,0-.16,0-4.51-2.14A1,1,0,0,1,99,30.59Zm16.17,14.14a1,1,0,0,1-1.42,0,7.14,7.14,0,0,0-10.08,0,1,1,0,0,1-1.42-1.41C108.07,37.5,117.13,42.77,115.17,44.73Zm4.15-12.35c-4.39,2.19-4.2,2.14-4.51,2.14a1,1,0,0,1-.45-1.9l4.06-2A1,1,0,0,1,119.32,32.38Z"/></g></svg>