<svg xmlns="http://www.w3.org/2000/svg" viewBox="0 0 128 128"><defs><style>.cls-1{fill:#a0aec0;}</style></defs><title>Emotion</title><g id="Emotion"><path class="cls-1" d="M60.79,26a1,1,0,0,1-1.71,0c-8.28-13.8-29.37-7.79-29.37,8.11,0,17.12,26.34,32.68,30.23,34.88,3.88-2.2,30.22-17.76,30.22-34.88C90.16,18.17,69.07,12.16,60.79,26ZM83,35.07a1,1,0,0,1-1-1,7.69,7.69,0,0,0-7.68-7.68,1,1,0,0,1,0-2C83.06,24.39,85.86,35.07,83,35.07Z"/><path class="cls-1" d="M112.53,70.19c-.32-1.08-.33-.9-8-11.66a5.43,5.43,0,0,1-.49-5.48c.84-1.76.63-2.14.63-8.35A43.71,43.71,0,0,0,61,1C23.16,1,5.78,37,20.18,71.35,27.11,88,24.89,98.73,23.55,127H72.13V110.74c13.54,3.88,13.66,4.07,16,4.07a12.49,12.49,0,0,0,12.48-12.48V96.52c2-2,.92-5.1-1.68-5.1H92.45a1,1,0,0,1,0-2h8.41c2.3,0,3.54-2.43,2.12-4.55-.51-.76-.37.37-.37-6.64l5.87-1.18A5.35,5.35,0,0,0,112.53,70.19ZM60.41,71a1,1,0,0,1-.95,0c-1.29-.7-31.75-17.32-31.75-36.91,0-17.21,22.16-24.4,32.23-10.44C70,9.67,92.16,16.87,92.16,34.07,92.16,53.66,61.71,70.28,60.41,71Z"/></g></svg>