<svg id="Female_Psycolog" data-name="Female Psycolog" xmlns="http://www.w3.org/2000/svg" viewBox="0 0 128 128"><defs><style>.cls-1{fill:#47566a;}.cls-2{fill:#a0aec0;}</style></defs><title>Female Psycolog</title><path class="cls-1" d="M46.71,72.12h0C48,72.47,47.68,72.42,46.71,72.12Z"/><path class="cls-1" d="M55.65,73.06a24.3,24.3,0,0,1-3.62,0A27.33,27.33,0,0,0,55.65,73.06Z"/><path class="cls-2" d="M22.32,43.68a5.11,5.11,0,0,1,5.1-5.1h1V48.77h-1A5.1,5.1,0,0,1,22.32,43.68Z"/><circle class="cls-2" cx="42.66" cy="40.63" r="6.11"/><path class="cls-2" d="M58.9,40.63A6.12,6.12,0,1,1,65,46.74,6.12,6.12,0,0,1,58.9,40.63Z"/><path class="cls-2" d="M31.22,36.58c3-5,5.25-9.47,5.33-16.53a14.65,14.65,0,0,0,10.39,4.31H64A13.24,13.24,0,0,1,77.18,36.58c-4.37,0-5,0-5.14,0a8.11,8.11,0,0,0-14.51.91,7.86,7.86,0,0,0-7.39,0,8.1,8.1,0,0,0-14.5-.91C35.54,36.56,34.84,36.58,31.22,36.58Z"/><path class="cls-2" d="M80.26,48.77h-1V38.58h1a5.1,5.1,0,0,1,0,10.19Z"/><path class="cls-2" d="M86.35,25.39V40.05a7.08,7.08,0,0,0-6.09-3.47H79.18A15.23,15.23,0,0,0,64,22.36H46.94A12.68,12.68,0,0,1,36.38,16.7a1,1,0,0,0-1.83.56c0,9.87-1.53,12.45-5.67,19.32H27.42a7.09,7.09,0,0,0-6.1,3.48V21.47A16.55,16.55,0,0,1,35.55,5.07,13.86,13.86,0,0,1,45.36,1H62A24.38,24.38,0,0,1,86.35,25.39Z"/><path class="cls-2" d="M72.86,38.58a8.11,8.11,0,1,1-15.92,1.29.84.84,0,0,1,0-.26c0-.25-1.08-1-3.06-1-.35,0-3.11.15-3.11,1.29a8.11,8.11,0,1,1-15.91-1.29H30.45v9.16A23.3,23.3,0,0,0,49.87,70.79c14,2.58,27.35-8.44,27.35-23.05V38.58Zm-14,22.31a7.12,7.12,0,0,1-10,0,1,1,0,0,1,1.41-1.42,5.1,5.1,0,0,0,7.21,0A1,1,0,0,1,58.86,60.89Zm21.4-10.12H79A25.41,25.41,0,0,1,63,71.43v4.79H86.35V47.3A7.07,7.07,0,0,1,80.26,50.77ZM52,73.06a24.3,24.3,0,0,0,3.62,0A27.33,27.33,0,0,1,52,73.06Zm-5.32-1h0C47.63,72.41,48.06,72.48,46.71,72.11ZM28.63,50.77H27.42a7.09,7.09,0,0,1-6.1-3.48V76.22H44.71V71.44A25.33,25.33,0,0,1,28.63,50.77Z"/><path class="cls-2" d="M61,72.11c0,6.58,0,5.84-.08,6.11l-7,17.63L46.79,78.22c-.11-.27-.08.46-.08-6.1A25.49,25.49,0,0,0,61,72.11Z"/><path class="cls-2" d="M52.84,98.75v15.91l-12-10.27c4-7.91,4-7.64,3.76-8.22S45.23,96.1,31,90c8.37-12.22,7.84-11.3,7.84-11.76,7,0,5.74-.16,6,.38Z"/><path class="cls-2" d="M66.82,104.39l-12,10.27V98.75C63.42,77.29,63,78.53,63,78.22h5.89c0,.44-.52-.46,7.85,11.76L63.61,95.6A1,1,0,0,0,63.1,97Z"/><path class="cls-2" d="M39,105.4l13.88,11.9V127H5.07l4.16-25A28.44,28.44,0,0,1,36.59,78.24l-8,11.61a1,1,0,0,0,.43,1.49L42.31,97l-3.59,7.18A1,1,0,0,0,39,105.4Z"/><path class="cls-2" d="M54.84,127v-9.7l13.87-11.9a1,1,0,0,0,.25-1.2L65.37,97C79.66,90.89,79,91.35,79.18,90.7s.48,0-8.1-12.47a28.35,28.35,0,0,1,20.23,9.2C75.73,96.57,77,119.54,93.4,127Z"/><path class="cls-2" d="M120.31,96.68a20.33,20.33,0,1,0-7.71,27.69A20.33,20.33,0,0,0,120.31,96.68Zm-7.54,2.87c-2,0,2.38,12.19-8.13,12.19h-1v6.13h1a1,1,0,0,1,0,2h-4.06a1,1,0,0,1,0-2h1v-6.13c-6,0-8.28-1.87-8.47-9.09-.06-2.15-.18-3.1-.69-3.1a1,1,0,0,1,0-2c2.55,0,2.62,2.68,2.68,5,.18,6.3,1.63,7.15,6.48,7.15V99.55h-1a1,1,0,0,1,0-2h4.06a1,1,0,0,1,0,2h-1v10.19h1c9.34,0,2.39-12.19,8.13-12.19A1,1,0,0,1,112.77,99.55Z"/><path class="cls-1" d="M46.05,69.79a12.06,12.06,0,0,0,2.85.81A23.18,23.18,0,0,1,46.05,69.79Zm3.82,1a18.46,18.46,0,0,0,2,.25C51.19,71,50.53,70.9,49.87,70.79Zm3.72.33h0Z"/></svg>