<svg xmlns="http://www.w3.org/2000/svg" viewBox="0 0 128 128"><defs><style>.cls-1{fill:#a0aec0;}</style></defs><title>Healthy</title><g id="Healthy"><path class="cls-1" d="M112.53,70.19c-.32-1.08-.33-.9-8-11.66a5.43,5.43,0,0,1-.49-5.48c.84-1.76.63-2.14.63-8.35A43.71,43.71,0,0,0,61,1C23.16,1,5.78,37,20.18,71.35,27.11,88,24.89,98.73,23.55,127H72.13V110.74c13.54,3.88,13.66,4.07,16,4.07a12.49,12.49,0,0,0,12.48-12.48V96.52c2-2,.92-5.1-1.68-5.1H92.45a1,1,0,0,1,0-2h8.41c2.3,0,3.54-2.43,2.12-4.55-.51-.76-.37.37-.37-6.64l5.87-1.18A5.35,5.35,0,0,0,112.53,70.19ZM80.76,62.47a29.45,29.45,0,1,1,0-41.65A29.49,29.49,0,0,1,80.76,62.47Z"/><path class="cls-1" d="M59.94,14.19A27.46,27.46,0,1,0,87.39,41.65,27.44,27.44,0,0,0,59.94,14.19Zm14.93,18C53.11,54,54.45,52.81,53.84,52.81S54,53.35,43,42.35a1,1,0,0,1,1.41-1.41l9.46,9.45L73.45,30.78A1,1,0,0,1,74.87,32.19Z"/></g></svg>