<svg xmlns="http://www.w3.org/2000/svg" viewBox="0 0 128 128"><defs><style>.cls-1{fill:#a0aec0;}</style></defs><title>Hug</title><g id="Hug"><path class="cls-1" d="M64.74,6.36C53.3-5.08,33.52,3,33.52,19.29V31.48a18.29,18.29,0,1,0,36.58,0V19.29A18.23,18.23,0,0,0,64.74,6.36ZM56.82,40.57a7.11,7.11,0,0,1-10,0,1,1,0,0,1,1.41-1.42,5.1,5.1,0,0,0,7.21,0A1,1,0,0,1,56.82,40.57Z"/><path class="cls-1" d="M94.48,19.29V31.48c0,15-17,23.43-28.9,14.88A20.19,20.19,0,0,0,72.1,31.48V19.29A20.19,20.19,0,0,0,65.58,4.41C77.66-4.28,94.48,4.53,94.48,19.29Z"/><path class="cls-1" d="M79.75,63.32a6.1,6.1,0,0,1,4.08-7.6l21.09-6.36A6.1,6.1,0,0,1,108.44,61L87.35,67.4A6.1,6.1,0,0,1,79.75,63.32Z"/><rect class="cls-1" x="29.45" y="103.61" width="22.39" height="23.39"/><path class="cls-1" d="M61,96.52a5.1,5.1,0,0,1-5.1,5.09H24.39a7.13,7.13,0,0,1-7.13-7.13c0-26.67-.28-26.53.9-30.37,1.58.74-.51.26,33.68,5.66V89.42H29.45a1,1,0,0,0,0,2H55.87A5.11,5.11,0,0,1,61,96.52Z"/><path class="cls-1" d="M110.74,96.26a6.12,6.12,0,0,1-10.41,4.55c-1.09-1.09-.78.1-.78-28.68a1,1,0,0,0-2,0V127H53.84V103.61h2a7.1,7.1,0,1,0,0-14.19h-2V68.06L20.78,62.84a6.55,6.55,0,0,1-5.54-6.76,6.76,6.76,0,0,1,6.85-6.31c74.39,0,69.71-.21,72.85.52L83.25,53.81a8.1,8.1,0,0,0,2.34,15.85c1.69,0,.92.08,23.42-6.71l.37-.13C111.19,67.42,110.74,68.16,110.74,96.26Z"/></g></svg>