<svg xmlns="http://www.w3.org/2000/svg" viewBox="0 0 128 128"><defs><style>.cls-1{fill:#a0aec0;}</style></defs><title>Hypersex</title><g id="Hypersex"><path class="cls-1" d="M52.1,32.11a13.22,13.22,0,1,0,0,23.14A15.17,15.17,0,0,1,52.1,32.11Z"/><path class="cls-1" d="M55.58,32.11a15.18,15.18,0,0,1,0,23.14,13.22,13.22,0,1,0,0-23.14Z"/><path class="cls-1" d="M53.84,54.09a13.18,13.18,0,0,0,0-20.82A13.18,13.18,0,0,0,53.84,54.09Z"/><path class="cls-1" d="M112.53,70.19c-.32-1.07-.3-.86-8-11.66a5.43,5.43,0,0,1-.49-5.48c.84-1.76.63-2.14.63-8.35A43.71,43.71,0,0,0,61,1C23.16,1,5.78,37,20.18,71.35,27.11,88,24.89,98.73,23.55,127H72.13V110.74c13.54,3.88,13.66,4.07,16,4.07a12.49,12.49,0,0,0,12.48-12.48V96.52c2-2,.92-5.1-1.68-5.1H92.45a1,1,0,0,1,0-2h8.41c2.3,0,3.54-2.43,2.12-4.55-.51-.76-.37.37-.37-6.64l5.87-1.18A5.35,5.35,0,0,0,112.53,70.19ZM85.32,31.48a1,1,0,0,1-2,0V23.74L73.4,33.66C82,43.5,75,58.9,62,58.9a15.15,15.15,0,0,1-8.13-2.37,15.06,15.06,0,0,1-7.13,2.32v8.21h5.1a1,1,0,0,1,0,2h-5.1v5.1a1,1,0,0,1-2,0v-5.1h-5.1a1,1,0,0,1,0-2h5.1V58.85a15.21,15.21,0,1,1,9.13-28A15.12,15.12,0,0,1,72,32.24l9.92-9.92H74.16a1,1,0,0,1,0-2c10.58,0,10.72-.26,11.09.62C85.35,21.2,85.32,20.37,85.32,31.48Z"/></g></svg>