<svg xmlns="http://www.w3.org/2000/svg" viewBox="0 0 128 128"><defs><style>.cls-1{fill:#a0aec0;}</style></defs><title>Insecure</title><g id="Insecure"><path class="cls-1" d="M59.94,22.32a9.17,9.17,0,0,0-9.17,9.16v5.1H69.1v-5.1A9.17,9.17,0,0,0,59.94,22.32Z"/><path class="cls-1" d="M48.77,31.48a11.17,11.17,0,0,1,22.33,0v5.1h6.13v-5.1a17.29,17.29,0,0,0-34.58,0v5.1h6.12Z"/><path class="cls-1" d="M80.26,38.58H39.61a3.07,3.07,0,0,0-3.06,3.07V70.1a3.06,3.06,0,0,0,3.06,3.06H80.26a3.06,3.06,0,0,0,3.06-3.06V41.65A3.07,3.07,0,0,0,80.26,38.58ZM66.74,61.26A1,1,0,0,1,66,63c-.57,0-.31.1-6.09-5.68C54.05,63.17,54.41,63,53.84,63a1,1,0,0,1-.71-1.71l5.39-5.39-5.39-5.39a1,1,0,0,1,1.42-1.41l5.39,5.39,5.39-5.39a1,1,0,0,1,1.41,1.41l-5.39,5.39Z"/><path class="cls-1" d="M112.53,70.19c-.32-1.07-.3-.86-8-11.66a5.43,5.43,0,0,1-.49-5.48c.84-1.76.63-2.14.63-8.35A43.71,43.71,0,0,0,61,1C23.16,1,5.78,37,20.18,71.35,27.11,88,24.89,98.73,23.55,127H72.13V110.74c13.54,3.88,13.66,4.07,16,4.07a12.49,12.49,0,0,0,12.48-12.48V96.52c2-2,.92-5.1-1.68-5.1H92.45a1,1,0,0,1,0-2h8.41c2.3,0,3.54-2.43,2.12-4.55-.51-.76-.37.37-.37-6.64l5.87-1.18A5.35,5.35,0,0,0,112.53,70.19ZM85.32,70.1a5.07,5.07,0,0,1-5.06,5.06H39.61a5.07,5.07,0,0,1-5.06-5.06V41.65a5.07,5.07,0,0,1,5.06-5.07h1v-5.1a19.29,19.29,0,0,1,38.58,0v5.1h1a5.07,5.07,0,0,1,5.06,5.07Z"/></g></svg>