<svg xmlns="http://www.w3.org/2000/svg" viewBox="0 0 128 128"><defs><style>.cls-1{fill:#a0aec0;}</style></defs><title>Insomnia</title><g id="Insomnia"><path class="cls-1" d="M112.53,70.19c-.32-1.07-.3-.86-8-11.66a5.43,5.43,0,0,1-.49-5.48c.84-1.76.63-2.14.63-8.35A43.71,43.71,0,0,0,61,1C23.16,1,5.78,37,20.18,71.35,27.11,88,24.89,98.73,23.55,127H72.13V110.74c13.54,3.88,13.66,4.07,16,4.07a12.49,12.49,0,0,0,12.48-12.48V96.52c2-2,.92-5.1-1.68-5.1H92.45a1,1,0,0,1,0-2h8.41c2.3,0,3.54-2.43,2.12-4.55-.51-.76-.37.37-.37-6.64l5.87-1.18A5.35,5.35,0,0,0,112.53,70.19ZM76.19,18.29c8.51,0,8.62-.2,9,.53s.43.31-7.14,11.66h6.26a1,1,0,0,1,0,2H76.19a1,1,0,0,1-.83-1.55l7.09-10.64H76.19A1,1,0,0,1,76.19,18.29Zm2.1,46.46a1.5,1.5,0,0,1-2.6-1.5A1.5,1.5,0,0,1,78.29,64.75ZM62,34.55c8.5,0,8.62-.21,9,.53s.43.3-7.14,11.66H70.1a1,1,0,0,1,0,2H62a1,1,0,0,1-.83-1.55l7.09-10.64H62A1,1,0,0,1,62,34.55Zm6.84,39.68a1.5,1.5,0,0,1-1.5-2.6A1.5,1.5,0,0,1,68.81,74.23ZM91.74,54.55l-4.39-4.39c0,21-15.57,33.13-31.48,33.13a31.49,31.49,0,0,1,0-63,1,1,0,0,1,0,2,29.49,29.49,0,0,0,0,59c14.79,0,29.48-11.19,29.48-31.13L81,54.55a1,1,0,0,1-1.41-1.42c6.53-6.53,6.21-6.39,6.8-6.39s.22-.2,6.81,6.39A1,1,0,0,1,91.74,54.55ZM55.87,65c-8.5,0-8.62.21-9-.53s-.43-.3,7.14-11.66H47.74a1,1,0,0,1,0-2h8.13a1,1,0,0,1,.83,1.55L49.61,63h6.26A1,1,0,0,1,55.87,65Zm1,7.13v4.06a1,1,0,0,1-2,0V72.13A1,1,0,0,1,56.87,72.13Zm-2-40.65V27.42a1,1,0,0,1,2,0v4.06A1,1,0,0,1,54.87,31.48ZM44.43,32a1.5,1.5,0,0,1-1.5-2.6A1.5,1.5,0,0,1,44.43,32ZM45,73.68a1.5,1.5,0,0,1-2.6-1.5A1.5,1.5,0,0,1,45,73.68ZM35.55,52.81H31.48a1,1,0,0,1,0-2h4.07A1,1,0,0,1,35.55,52.81Zm0,12.49A1.5,1.5,0,0,1,34,62.7,1.5,1.5,0,0,1,35.5,65.3Zm-2-26.44a1.5,1.5,0,0,1,2.6,1.5A1.5,1.5,0,0,1,33.45,38.86Z"/></g></svg>