<svg xmlns="http://www.w3.org/2000/svg" viewBox="0 0 128 128"><defs><style>.cls-1{fill:#a0aec0;}</style></defs><title>Intrusive thought</title><g id="Intrusive_thought" data-name="Intrusive thought"><path class="cls-1" d="M34.79,49.12C35.41,48.4,36,47.7,36.48,47c-4.76,1.08-11.31,3.82-10.12,8.59.79,3.17,2.56,4.55,5.85,3.55C31,57.15,30.69,53.91,34.79,49.12Z"/><path class="cls-1" d="M43,26.71c2.75-2.75,6.29-1.54,10.1,1.23,1.42-1.74,2.67-3.48,4-5.21,4.23-5.29,12-8.28,19.55-7.69-5-7.27-21.5-9.8-36.41,3C25.83,30.39,24,44.71,41,37.24,41.23,33.27,39.08,30.6,43,26.71Z"/><path class="cls-1" d="M51.77,29.46c-2.32-1.67-5.37-3.35-7.39-1.33C41.56,31,42.93,32.61,43,36.27A29.87,29.87,0,0,0,51.77,29.46Z"/><path class="cls-1" d="M58.68,24c-1.37,1.72-2.57,3.39-4,5.18,1.28,1,2.57,2.2,3.87,3.41,5.73-4.41,12.21-5.06,20.82-2.43.53-4.26.32-9-1.46-12.95C70.59,16.13,62.77,18.87,58.68,24Z"/><path class="cls-1" d="M48.59,44.49c2.73-3.69,4.56-7.13,8.39-10.62-1.23-1.14-2.44-2.23-3.62-3.19a31.47,31.47,0,0,1-10.52,7.91,17.33,17.33,0,0,1-2.16,5.78A34.9,34.9,0,0,1,48.59,44.49Z"/><path class="cls-1" d="M81.27,30.84a54.45,54.45,0,0,1,8.5,5.47c1.94-8.62-.71-16.22-9.53-18.64A27.8,27.8,0,0,1,81.27,30.84Z"/><path class="cls-1" d="M60,34c7.29,6.93,9.16,8.81,14.79,10.41A42.64,42.64,0,0,0,79,32.14C71.08,29.65,65.21,30.09,60,34Z"/><path class="cls-1" d="M58.44,35.25c-3.51,3.14-5.57,6.72-7.67,9.65,8.07,1.85,10.94,6.14,18.32,7.51a35.74,35.74,0,0,0,4.69-6.24C67.78,44.37,65.65,42.11,58.44,35.25Z"/><path class="cls-1" d="M90.82,39.83a27.59,27.59,0,0,1-3,6c1.52-.1,5.62-.63,5.62-2.14C93.48,42.69,92.39,41.3,90.82,39.83Z"/><path class="cls-1" d="M47.19,46.33a34,34,0,0,0-7.86.19c-2.68,3.91-7.84,8.32-5.23,11.89C37.9,56.49,42.62,52.16,47.19,46.33Z"/><path class="cls-1" d="M80.93,32.88a45,45,0,0,1-4.17,12,42.22,42.22,0,0,0,8.62,1,26.32,26.32,0,0,0,3.82-7.47A55.34,55.34,0,0,0,80.93,32.88Z"/><path class="cls-1" d="M71.49,52.73c4.34.37,8-.19,12.29-4.88C71.3,47.22,79.13,43.93,71.49,52.73Z"/><path class="cls-1" d="M49.58,46.69c-.41-.08-6.29,8.92-13.91,13.12,5.79,3.63,22.36,2.75,31.71-5.73C60.22,52.34,57.45,48.26,49.58,46.69Z"/><path class="cls-1" d="M112.53,70.19c-.32-1.07-.3-.86-8-11.66a5.43,5.43,0,0,1-.49-5.48c.84-1.76.63-2.14.63-8.35A43.71,43.71,0,0,0,61,1C23.16,1,5.78,37,20.18,71.35,27.11,88,24.89,98.73,23.55,127H72.13V110.74c13.54,3.88,13.66,4.07,16,4.07a12.49,12.49,0,0,0,12.48-12.48V96.52c2-2,.92-5.1-1.68-5.1H92.45a1,1,0,0,1,0-2h8.41c2.3,0,3.54-2.43,2.12-4.55-.51-.76-.37.37-.37-6.64l5.87-1.18A5.35,5.35,0,0,0,112.53,70.19ZM86.37,47.89c-5.2,6.52-10.31,7.55-16.58,6.66a29.94,29.94,0,0,1-5.26,4.2c-8.62,5.39-24.84,7-30.91,2-4.85,1.88-8.06-.09-9.2-4.67-1.68-6.69,6.79-10.3,13.73-11.42a18.79,18.79,0,0,0,2.43-5.11c-.85.34-1.74.67-2.68,1C25.15,44.81,21,31.92,39,16.5,53.41,4.12,68.26,6,74.72,10.33a13.81,13.81,0,0,1,4.5,5.06C90.44,17.55,94.32,27,91.47,37.73,98.74,44.21,95.48,47.72,86.37,47.89Z"/></g></svg>