<svg xmlns="http://www.w3.org/2000/svg" viewBox="0 0 128 128"><defs><style>.cls-1{fill:#a0aec0;}</style></defs><title>Male Psycolog</title><g id="Male_Psycolog" data-name="Male Psycolog"><path class="cls-1" d="M28.62,115.36l7.55,11.32L5.07,127l4.16-25a28.45,28.45,0,0,1,21-22.88l-5.8,23.25a1,1,0,0,0,.52,1.14l7.23,3.61C28.21,115.07,28.19,114.71,28.62,115.36Z"/><path class="cls-1" d="M46.65,126.57c-9.18.1-8,.18-8.24-.13l-7.8-11.71,3.8-7.61a1,1,0,0,0-.45-1.34l-7.41-3.7C32.72,77.39,32.36,79,32.31,78.66a31.51,31.51,0,0,1,6.31-.44C38.62,78.39,38.25,76.09,46.65,126.57Z"/><path class="cls-1" d="M48.27,102.45l-1.54,12.37L43.19,93.6l3.26-1.86c1,3.08,1.4,5.37,4.08,6.91A5.58,5.58,0,0,0,48.27,102.45Z"/><path class="cls-1" d="M42.84,91.5,40.63,78.22h4.08c0,.61-.21.21,7.5,7.91l-5.72,3.28Z"/><path class="cls-1" d="M53.84,87.51l5.62,3.21-1.22,3.65a4.64,4.64,0,0,1-8.8,0l-1.22-3.65Z"/><path class="cls-1" d="M57.42,102.69l2.38,19L59,126.45l-10.33.1-.8-4.82,2.38-19C50.77,98.53,56.91,98.53,57.42,102.69Z"/><polygon class="cls-1" points="60.56 78.22 53.84 84.94 47.12 78.22 60.56 78.22"/><path class="cls-1" d="M64.49,93.6,61,114.82,59.4,102.45a5.51,5.51,0,0,0-2.26-3.8c2.68-1.53,3-3.79,4.09-6.91Z"/><path class="cls-1" d="M55.47,86.13c7.77-7.77,7.5-7.33,7.5-7.91h4.08L64.83,91.5C51.74,84,56.5,86.81,55.47,86.13Z"/><path class="cls-1" d="M73.21,106.36c-.18.57-.16.31,3.86,8.37l-7.74,11.61-8.29.08c8.4-50.39,8-48,8-48.2a32,32,0,0,1,6.32.44c-.08.32-.43-1.24,5.56,22.7-.08.3-.14.6-.2.91C73.2,106,73.39,105.81,73.21,106.36Z"/><path class="cls-1" d="M91.31,87.43a22.19,22.19,0,0,0-9.19,10.4L77.44,79.11A28.36,28.36,0,0,1,91.31,87.43Z"/><path class="cls-1" d="M91.65,126.11l-19.9.2,7.31-11c.43-.65.41-.31-3.56-8.24l4.88-2.43A22.26,22.26,0,0,0,91.65,126.11Z"/><path class="cls-1" d="M61,73.15c0,5.36.16,4.5-.41,5.07l-6.72,6.72-7.13-7.13V73.16A26.56,26.56,0,0,0,61,73.15Z"/><path class="cls-1" d="M120.31,96.68a20.33,20.33,0,1,0-7.71,27.69A20.33,20.33,0,0,0,120.31,96.68Zm-7.54,2.87c-2,0,2.38,12.19-8.13,12.19h-1v6.13h1a1,1,0,0,1,0,2h-4.06a1,1,0,0,1,0-2h1v-6.13c-6,0-8.28-1.85-8.47-9.09-.06-2.15-.18-3.1-.69-3.1a1,1,0,0,1,0-2c2.55,0,2.62,2.68,2.68,5,.17,6.32,1.66,7.15,6.48,7.15V99.55h-1a1,1,0,0,1,0-2h4.06a1,1,0,0,1,0,2h-1v10.19h1c9.35,0,2.39-12.19,8.13-12.19A1,1,0,0,1,112.77,99.55Z"/><path class="cls-1" d="M35.64,36.58a6.17,6.17,0,0,1,.58-.86C35.55,36.58,35.74,36.58,35.64,36.58Z"/><path class="cls-1" d="M42.66,46.74a6.11,6.11,0,1,1,4.4-10.34A6.11,6.11,0,0,1,42.66,46.74Z"/><path class="cls-1" d="M42.66,46.74c-6.25,0-8.44-8.35-3-11.39a6.1,6.1,0,1,1,3,11.39Z"/><path class="cls-1" d="M71,39.4c1.35,6.3-6.85,9.91-10.6,5.23-2.13-2.56-1.27-4.66-1.5-5.23,1-2.27,1.78-3.76,4.32-4.61a6.19,6.19,0,0,1,5.51,1A6,6,0,0,1,71,39.4Z"/><path class="cls-1" d="M72,36.58h0C71.82,36.25,71.89,36.32,72,36.58Z"/><path class="cls-1" d="M59.38,43c-1.79-4.48,1.83-8.46,5.1-8.46a6.06,6.06,0,0,1,3.59.8,6.2,6.2,0,0,1,2.75,3.38C73.22,45.93,62.61,50.28,59.38,43Z"/><path class="cls-1" d="M77.18,36.58H72a8.11,8.11,0,0,0-14.5.92,7.86,7.86,0,0,0-7.39,0,8.1,8.1,0,0,0-14.49-.92h0c-.45,0,1.64,0-4.42,0,3-5,5.25-9.47,5.33-16.53a14.65,14.65,0,0,0,10.39,4.31H64A13.24,13.24,0,0,1,77.18,36.58Z"/><path class="cls-1" d="M80.22,12c0,27,.43,23.87-1,25.61A15.23,15.23,0,0,0,64,22.36H46.94A12.68,12.68,0,0,1,36.38,16.7a1,1,0,0,0-1.83.56c0,10.24-1.69,12.68-6,19.81-.31.31.3,1.41-1.14-1.3V12Z"/><path class="cls-1" d="M77.18,36.58H72a8.11,8.11,0,0,0-14.5.92,7.89,7.89,0,0,0-7.39,0,8.1,8.1,0,0,0-14.49-.92h0c-.45,0,1.64,0-4.42,0,3-5,5.25-9.47,5.33-16.53a14.65,14.65,0,0,0,10.39,4.31H64A13.24,13.24,0,0,1,77.18,36.58Z"/><path class="cls-1" d="M78.22,14v18.2A15.23,15.23,0,0,0,64,22.36H46.94A12.68,12.68,0,0,1,36.38,16.7a1,1,0,0,0-1.83.56c0,9.14-1.23,11.94-5.1,18.38V14Z"/><path class="cls-1" d="M35.64,36.58h0Z"/><path class="cls-1" d="M48.73,39.94c0,.1,0,.25,0,0Z"/><path class="cls-1" d="M72,36.58h0Z"/><path class="cls-1" d="M80,36.58c-.46.61-.78,1-.78,1,0-.34,0-.67,0-1Z"/><path class="cls-1" d="M72.86,38.58a8.11,8.11,0,1,1-15.92,1.29c0-1.19-4.3-1.92-6-.53-.34.29-.2.43-.2,1.29a8.11,8.11,0,1,1-16-2.05H29.45v9.16A24.29,24.29,0,0,0,36.58,65c15.2,15.2,41.64,4.58,41.64-17.25V38.58Zm-14,22.31a7.12,7.12,0,0,1-10,0,1,1,0,0,1,1.41-1.42,5.1,5.1,0,0,0,7.21,0A1,1,0,0,1,58.86,60.89Z"/><path class="cls-1" d="M86.35,43.68a6.1,6.1,0,0,1-6.09,6.09c-.25,0,0,.23,0-2,0-10.19-.44-7.41,1.41-10A6.09,6.09,0,0,1,86.35,43.68Z"/><path class="cls-1" d="M27.53,49.77A6.09,6.09,0,0,1,26.22,37.7c.48.86.49.88,1.23,2.13C27.45,48.08,27.42,48.27,27.53,49.77Z"/><path class="cls-1" d="M84.32,21.32c0,7.69-.19,10.27-5.1,16.26A15.23,15.23,0,0,0,64,22.36H46.94A12.68,12.68,0,0,1,36.38,16.7a1,1,0,0,0-1.83.56c0,9.79-1.51,12.46-5.67,19.32a3.37,3.37,0,0,0-.39.74c-.09.25.2.79-1-1.55C22.81,27,23.36,25,23.36,19.46A14.6,14.6,0,0,1,35.55,5.07,13.84,13.84,0,0,1,45.36,1H64A20.32,20.32,0,0,1,84.32,21.32Z"/></g></svg>