<svg xmlns="http://www.w3.org/2000/svg" viewBox="0 0 128 128"><defs><style>.cls-1{fill:#a0aec0;}</style></defs><title>Meditation activity</title><g id="Meditation_activity" data-name="Meditation activity"><path class="cls-1" d="M50,16.06v7c0,8.32,6.27,15.06,14,15.06S78,31.41,78,23.1v-7C78,7.74,71.73,1,64,1S50,7.75,50,16.06Z"/><path class="cls-1" d="M125,64.72,100.36,80.58a6.31,6.31,0,0,1-8.77-2L83.11,66.06a1,1,0,0,0-1.82.56V87a1,1,0,0,0,1.41.9l16.83,1.26a7.44,7.44,0,0,1,1.1,14.65l-13.42,3.15L66.76,99l7.92-3.08A1,1,0,0,0,74,94L64,97.9,54,94a1,1,0,0,0-.72,1.87c40,15.55,37.25,14.52,37.52,14.52h11.91l9,10.77c1.66,1.94.9,5.81-3.31,5.81-1.19,0-.45.2-17.24-8.2l-63.81-15a7.44,7.44,0,0,1,1.09-14.65C51.92,87.37,43.26,88,45.71,88a1,1,0,0,0,1-1V66.62a1,1,0,0,0-1-1c-.75,0-.16-.53-9.31,13a6.31,6.31,0,0,1-8.76,2L3,64.72a4.34,4.34,0,0,1,2.35-8c3.58,0,3.55.55,23.05,12.24a1,1,0,0,0,1.39-.38l13-24.41a11.36,11.36,0,0,1,10-6H75.14a11.36,11.36,0,0,1,10,6c14.22,26.63,13,24.74,13.64,24.9s-.91.9,18.93-11C125.69,53.33,129.69,61.78,125,64.72Z"/><path class="cls-1" d="M59.63,113.43,36.82,118.8l-15.64,7.83c-2.54,1.2-5.73-.29-5.73-3.17,0-1.89.46-1.84,9.79-13H37.35l3.57-1.4Z"/></g></svg>