<svg xmlns="http://www.w3.org/2000/svg" viewBox="0 0 128 128"><defs><style>.cls-1{fill:#a0aec0;}</style></defs><title>Medicine</title><g id="Medicine"><rect class="cls-1" x="74.16" y="13.19" width="40.65" height="19.32"/><path class="cls-1" d="M75.16,109.74H127V67H75.16ZM90.42,77.23c5.77,0-1.25,12.19,8.13,12.19h1V79.23h-1a1,1,0,0,1,0-2h4.06a1,1,0,0,1,0,2h-1V89.42c4.84,0,6.31-.85,6.48-7.15.06-2.36.13-5,2.68-5a1,1,0,0,1,0,2c-.51,0-.62,1-.68,3.1-.2,7.24-2.48,9.09-8.48,9.09v6.13h1a1,1,0,0,1,0,2H98.55a1,1,0,0,1,0-2h1V91.42h-1c-10.51,0-6.09-12.19-8.13-12.19A1,1,0,0,1,90.42,77.23Z"/><path class="cls-1" d="M74.16,111.74a1,1,0,0,1-1-1V66a1,1,0,0,1,1-1H127V57.31a12.2,12.2,0,0,0-6.74-10.91l-9.52-4.75V34.52H78.23v7.13L68.71,46.4A12.2,12.2,0,0,0,62,57.31V120.9a6.1,6.1,0,0,0,6.09,6.1H120.9a6.1,6.1,0,0,0,6.1-6.1v-9.16Z"/><path class="cls-1" d="M46.71,100.58a9.12,9.12,0,0,0,2,5.73l10.5-10.5c.91-.91.74,1.17.74-3.43A9.18,9.18,0,0,0,46.71,100.58Z"/><path class="cls-1" d="M60,108.78V97.9l-9.83,9.82A9.15,9.15,0,0,0,60,108.78Z"/><path class="cls-1" d="M78.23,11.19V5.06A4.08,4.08,0,0,0,74.16,1H5.06A4.08,4.08,0,0,0,1,5.06V122.94A4.08,4.08,0,0,0,5.06,127H62.74A8.09,8.09,0,0,1,60,120.9V111A11.16,11.16,0,1,1,60,90.2V74.38a11.16,11.16,0,1,1,.44-20.58,14.08,14.08,0,0,1,7.4-9.18l8.42-4.21V34.52H72.16V11.19ZM23.35,111.74a11.16,11.16,0,1,1,11.17-11.16A11.17,11.17,0,0,1,23.35,111.74Zm0-36.58A11.16,11.16,0,1,1,34.52,64,11.18,11.18,0,0,1,23.35,75.16Zm0-36.58A11.16,11.16,0,1,1,34.52,27.42,11.18,11.18,0,0,1,23.35,38.58Zm32.52,0A11.16,11.16,0,1,1,67,27.42,11.18,11.18,0,0,1,55.87,38.58Z"/><path class="cls-1" d="M23.35,91.42a9.17,9.17,0,0,0-7.14,14.89l10.5-10.5a1,1,0,0,1,1.42,1.41l-10.5,10.5a9.16,9.16,0,1,0,5.72-16.3Z"/><path class="cls-1" d="M60,72.2V61.32l-9.82,9.82A9.13,9.13,0,0,0,60,72.2Z"/><path class="cls-1" d="M48.73,69.73C60.14,58.32,59.34,58.92,60,58.94a27.34,27.34,0,0,1,.08-3.09C51.28,51.36,42.61,62.11,48.73,69.73Z"/><path class="cls-1" d="M23.35,54.84a9.17,9.17,0,0,0-7.14,14.89l10.5-10.5a1,1,0,0,1,1.42,1.41l-10.5,10.5a9.16,9.16,0,1,0,5.72-16.3Z"/><path class="cls-1" d="M55.87,18.26a9.17,9.17,0,0,0-7.14,14.89l10.5-10.5a1,1,0,0,1,1.41,1.41l-10.5,10.5a9.16,9.16,0,1,0,5.73-16.3Z"/><path class="cls-1" d="M23.35,18.26a9.17,9.17,0,0,0-7.14,14.89l10.5-10.5a1,1,0,0,1,1.42,1.41l-10.5,10.5a9.16,9.16,0,1,0,5.72-16.3Z"/></g></svg>