<svg xmlns="http://www.w3.org/2000/svg" viewBox="0 0 128 128"><defs><style>.cls-1{fill:#a0aec0;}</style></defs><title>Mental breakdown</title><g id="Mental_breakdown" data-name="Mental breakdown"><path class="cls-1" d="M56.93,62.21c-.14-.59-.12-.41,3.58-6-3.24-1.62-3.42-1.58-3.57-2.16s-.18-.35,3.74-6.23L57.2,44.38a1,1,0,0,1-.13-1.26L60.51,38l-7.12-3.56A1,1,0,0,1,53,32.92l5.66-7.55c-14-21.28-57.37,8.56-.31,42.68Z"/><path class="cls-1" d="M74.35,18.26c-9.61,0-13.4,7.64-13.76,7.93l-5.23,7,7.06,3.53a1,1,0,0,1,.38,1.45l-3.61,5.41L62.67,47a1,1,0,0,1,.13,1.27l-3.44,5.15c3.24,1.62,3.42,1.58,3.57,2.16s.19.34-4,6.54l1.61,6.43c5.5-3.21,29.57-18.14,29.57-34.51A15.83,15.83,0,0,0,74.35,18.26ZM83,35.07a1,1,0,0,1-1-1,7.69,7.69,0,0,0-7.68-7.68,1,1,0,0,1,0-2C83.06,24.39,85.86,35.07,83,35.07Z"/><path class="cls-1" d="M112.53,70.19c-.32-1.08-.33-.9-8-11.66a5.43,5.43,0,0,1-.49-5.48c.84-1.76.63-2.14.63-8.35A43.71,43.71,0,0,0,61,1C23.16,1,5.78,37,20.18,71.35,27.11,88,24.89,98.73,23.55,127H72.13V110.74c13.54,3.88,13.66,4.07,16,4.07a12.49,12.49,0,0,0,12.48-12.48V96.52c2-2,.92-5.1-1.68-5.1H92.45a1,1,0,0,1,0-2h8.41c2.3,0,3.54-2.43,2.12-4.55-.51-.76-.37.37-.37-6.64l5.87-1.18A5.35,5.35,0,0,0,112.53,70.19ZM60.41,71c-1.76.94-32.7-18.34-32.7-36.91,0-17.21,22.16-24.4,32.23-10.44C70,9.67,92.16,16.87,92.16,34.07,92.16,53.66,61.71,70.28,60.41,71Z"/></g></svg>