<svg xmlns="http://www.w3.org/2000/svg" viewBox="0 0 128 128"><defs><style>.cls-1{fill:#a0aec0;}</style></defs><title>Mental Health</title><g id="Mental_Health" data-name="Mental Health"><path class="cls-1" d="M66,38.58H79.26V48.77H66a1,1,0,0,0-1,1V63H54.84V49.77a1,1,0,0,0-1-1H40.61V38.58H53.84a1,1,0,0,0,1-1V24.35H65V37.58A1,1,0,0,0,66,38.58Z"/><path class="cls-1" d="M112.53,70.19c-.31-1.06-.22-.75-8-11.66a5.43,5.43,0,0,1-.49-5.48c.84-1.77.63-2.1.63-8.35A43.71,43.71,0,0,0,61,1C23.16,1,5.78,37,20.18,71.35,27.11,88,24.89,98.73,23.55,127H72.13V110.74c13.54,3.88,13.66,4.07,16,4.07a12.49,12.49,0,0,0,12.48-12.48V96.52c2-2,.93-5.1-1.68-5.1H92.45a1,1,0,0,1,0-2h8.41c2.25,0,3.58-2.38,2.12-4.55-.51-.76-.37.37-.37-6.64l5.87-1.18A5.35,5.35,0,0,0,112.53,70.19Zm-52.59,5A31.49,31.49,0,1,1,91.42,43.68,31.52,31.52,0,0,1,59.94,75.16Zm0-61A29.49,29.49,0,1,0,89.42,43.68,29.52,29.52,0,0,0,59.94,14.19ZM81.26,37.58V49.77a1,1,0,0,1-1,1H67V64a1,1,0,0,1-1,1H53.84a1,1,0,0,1-1-1V50.77H39.61a1,1,0,0,1-1-1V37.58a1,1,0,0,1,1-1H52.84V23.35a1,1,0,0,1,1-1H66a1,1,0,0,1,1,1V36.58H80.26A1,1,0,0,1,81.26,37.58Z"/></g></svg>