<svg xmlns="http://www.w3.org/2000/svg" viewBox="0 0 128 128"><defs><style>.cls-1{fill:#a0aec0;}</style></defs><title>Mental health care</title><g id="Mental_health_care" data-name="Mental health care"><path class="cls-1" d="M40.65,127s2-12.19-6.1-18.29S20.32,96.52,14.23,90.42C7.14,83.34-1.13,59.94,0,59.94a4.06,4.06,0,0,1,7.66-1.87C10.16,64,14,74,20.32,80.26c3.11,3.11,17.36,11.64,18.25,12.17-.3-.34-2.46-2.8-8.09-12.17-6.09-10.16-.24-11.61,4.07-10.16,6.1,2,10.16,14.22,16.26,18.29S63,104.65,63,112.77V127"/><path class="cls-1" d="M87.35,127s-2-12.19,6.1-18.29,14.23-12.19,20.32-18.29S128,64,128,59.94h0a4.06,4.06,0,0,0-7.66-1.87C117.84,64,114,74,107.68,80.26c-3.11,3.11-17.36,11.64-18.25,12.17.3-.34,2.46-2.8,8.09-12.17,6.09-10.16.24-11.61-4.07-10.16-6.1,2-10.16,14.22-16.26,18.29S65,104.65,65,112.77V127"/><path class="cls-1" d="M85.62,1A25.18,25.18,0,0,0,64,13.28,25.2,25.2,0,0,0,17.17,26.22c0,28.82,46.83,54,46.83,54s46.83-25.22,46.83-54A25.22,25.22,0,0,0,85.62,1ZM82.29,24.35c-6.61,0-.1,13.08-6.11,19.14-3,3-7.28,2.81-11.18,2.81V58.94h2.66a1,1,0,0,1,0,2H60.34a1,1,0,0,1,0-2H63V46.3c-4,0-8.19.21-11.18-2.81-6-6,.45-19.14-6.11-19.14a1,1,0,0,1-1-1c0-1.72,3.28-1,4.57.31,3.67,3.69-.47,14,4,18.42C55.7,44.56,59.67,44.3,63,44.3V24.35H60.34a1,1,0,0,1,0-2h7.32a1,1,0,0,1,0,2H65V44.3c9,0,12.12-.76,12-12.35,0-4.94.09-9.6,5.27-9.6A1,1,0,0,1,82.29,24.35Zm19.42,1.87A16.11,16.11,0,0,0,85.62,10.13a1,1,0,0,1,0-2,18.11,18.11,0,0,1,18.09,18.09A1,1,0,0,1,101.71,26.22Z"/></g></svg>