<svg xmlns="http://www.w3.org/2000/svg" viewBox="0 0 128 128"><defs><style>.cls-1{fill:#a0aec0;}</style></defs><title>Mood</title><g id="Mood"><path class="cls-1" d="M20.29,57.92A18.29,18.29,0,1,0,37.58,76.19,18.29,18.29,0,0,0,20.29,57.92ZM9.13,75.16a1,1,0,0,1-.45-1.89l4.07-2A1,1,0,0,1,13.64,73C9.37,75.16,9.49,75.16,9.13,75.16Zm15.2,10.22a7.13,7.13,0,0,0-10.08,0,1,1,0,0,1-1.42,0c-2-2,7.1-7.22,12.92-1.42A1,1,0,0,1,24.33,85.38ZM29,75.06l-4.06-2a1,1,0,0,1,.89-1.79l4.07,2A1,1,0,0,1,29,75.06Z"/><path class="cls-1" d="M109.71,57.92A18.29,18.29,0,1,0,127,76.19,18.29,18.29,0,0,0,109.71,57.92Zm-8.13,16.24a1,1,0,0,1-2,0v-2a1,1,0,0,1,2,0ZM115.17,85a9.15,9.15,0,0,1-12.92,0,1,1,0,0,1,1.42-1.41,7.14,7.14,0,0,0,10.08,0A1,1,0,0,1,115.17,85Zm2.67-10.87a1,1,0,0,1-2,0v-2a1,1,0,0,1,2,0Z"/><path class="cls-1" d="M109.71,45.68V55.92c-1,0-1.13,0-2,0V45.68Z"/><path class="cls-1" d="M20.29,45.68V55.92c-1,0-1.13,0-2,0V45.68Z"/><path class="cls-1" d="M72.62,4.57a12.21,12.21,0,0,0-20.81,8.62v8.13a12.19,12.19,0,1,0,24.38,0V13.19A12.18,12.18,0,0,0,72.62,4.57ZM66,26.39H62a1,1,0,0,1,0-2H66A1,1,0,0,1,66,26.39Z"/><path class="cls-1" d="M113.79,33.52H14.5a5.27,5.27,0,0,0-5.34,4.55,5.08,5.08,0,0,0,5.05,5.61H47.74v73.16l-5.05,1.26A4.06,4.06,0,0,0,39.61,122v5H57.9L64,78.23,72.13,127H88.39v-5a4.06,4.06,0,0,0-3.08-3.94l-5-1.26V43.68H113.5a5.27,5.27,0,0,0,5.34-4.56A5.07,5.07,0,0,0,113.79,33.52Z"/></g></svg>