<svg xmlns="http://www.w3.org/2000/svg" viewBox="0 0 128 128"><defs><style>.cls-1{fill:#a0aec0;}</style></defs><title>Music Healing</title><g id="Music_Healing" data-name="Music Healing"><path class="cls-1" d="M82.29,74.16V62A18.23,18.23,0,0,0,76.93,49C65.49,37.6,45.71,45.65,45.71,62V74.16a18.29,18.29,0,0,0,36.58,0ZM69,83.24a7.09,7.09,0,0,1-10,0,1,1,0,0,1,1.42-1.41,5.09,5.09,0,0,0,7.2,0A1,1,0,0,1,69,83.24Z"/><path class="cls-1" d="M64.86,110.34a1,1,0,0,1-1.72,0c-4.74-7.92-20.73,3,.86,15.51C85.6,113.21,69.56,102.48,64.86,110.34Z"/><path class="cls-1" d="M76.19,92.45H51.81a20.33,20.33,0,0,0-20.33,20.32V127h11.2V110.74a1,1,0,0,1,2,0V127H62c-22.17-13.74-5.27-27,2-18.85,7.27-8.16,24.1,5.13,2,18.85H83.32V110.74a1,1,0,0,1,2,0V127h11.2V112.77A20.33,20.33,0,0,0,76.19,92.45Z"/><path class="cls-1" d="M39.61,76.19h4.2c-.19-1.82-.14-14.87,0-16.25h-3.2a23.39,23.39,0,0,1,46.78,0h-3.2c.14,1.35.19,14.43,0,16.25h4.2a4.06,4.06,0,0,0,4.06-4.06V64a4.06,4.06,0,0,0-3.09-3.93.79.79,0,0,0,0-.13,25.39,25.39,0,0,0-50.78,0,.79.79,0,0,0,0,.13A4.06,4.06,0,0,0,35.55,64v8.13A4.06,4.06,0,0,0,39.61,76.19Z"/><path class="cls-1" d="M16.71,83.43c-9-4.5-8.27-4.21-8.72-4.14-1.22.18-.86.25-.86,17.81a4.05,4.05,0,1,0,2,3.48V81.88c7.1,3.55,6.78,3.44,7.13,3.44A1,1,0,0,0,16.71,83.43Z"/><path class="cls-1" d="M118.9,28a4.05,4.05,0,1,0,2,3.48V11.16a1,1,0,0,0-1.31-.95l-18.29,6.1a1,1,0,0,0-.69,1V34.1a4.05,4.05,0,1,0,2,3.48V18l16.29-5.43Z"/><path class="cls-1" d="M126.45,67.17c-8.34-4.17-8.72-4.69-9.39-3.73-.26.39-.19-1.07-.19,17.4a4.06,4.06,0,1,0,2,3.55c0-.3,0-3.77,0-18.77L125.55,69A1,1,0,0,0,126.45,67.17Z"/><path class="cls-1" d="M63.56,23.13c.63-.44.44.76.44-19.51L70.68,7a1,1,0,0,0,.9-1.79C62.53.65,63.5,1.11,63.21,1a1,1,0,0,0-1.1.51C62,1.85,62,1.08,62,17.84a4.06,4.06,0,1,0,1.56,5.29Z"/><path class="cls-1" d="M33.52,43.68V23.35a1,1,0,0,0-1.32-.94L13.91,28.5a1,1,0,0,0-.68.95V46.29a4.05,4.05,0,1,0,2,3.48V30.17l16.29-5.43V40.19a4.05,4.05,0,1,0,2,3.49Z"/></g></svg>