<svg xmlns="http://www.w3.org/2000/svg" viewBox="0 0 128 128"><defs><style>.cls-1{fill:#a0aec0;}</style></defs><title>Observation</title><g id="Observation"><path class="cls-1" d="M59.9,22.33a19.32,19.32,0,1,0,16.86,9.82A19.34,19.34,0,0,0,59.9,22.33ZM70.1,34.52c-2,0,2.38,12.19-8.13,12.19h-1v6.13h1a1,1,0,0,1,0,2H57.9a1,1,0,0,1,0-2h1V46.71c-6,0-8.28-1.85-8.48-9.09-.06-2.15-.17-3.1-.69-3.1a1,1,0,0,1,0-2c2.55,0,2.62,2.68,2.69,5,.17,6.32,1.65,7.15,6.48,7.15V34.52h-1a1,1,0,0,1,0-2H62a1,1,0,0,1,0,2h-1V44.71h1c9.35,0,2.37-12.19,8.13-12.19A1,1,0,0,1,70.1,34.52Z"/><path class="cls-1" d="M46.91,77l-7.36,26.44a3.06,3.06,0,1,0,5.9,1.65l7.36-26.45Z"/><path class="cls-1" d="M67.3,15.2C44,8.7,24,33.78,36,55.14a27.44,27.44,0,0,0,37.4,10.41C94.59,53.6,90.79,21.74,67.3,15.2Zm3.12,45a21.32,21.32,0,1,1,8.08-29A21.34,21.34,0,0,1,70.42,60.21Z"/><path class="cls-1" d="M112.53,70.19c-.32-1.07-.3-.86-8-11.66a5.43,5.43,0,0,1-.49-5.48c.84-1.76.63-2.14.63-8.35A43.71,43.71,0,0,0,61,1C23.16,1,5.78,37,20.18,71.35,27.11,88,24.89,98.73,23.55,127H72.13V110.74c13.54,3.88,13.66,4.07,16,4.07a12.49,12.49,0,0,0,12.48-12.48V96.52c2-2,.92-5.1-1.68-5.1H92.45a1,1,0,0,1,0-2h8.41c2.3,0,3.54-2.43,2.12-4.55-.51-.76-.37.37-.37-6.64l5.87-1.18A5.35,5.35,0,0,0,112.53,70.19ZM53,70.25l-1.65,5.94,3,.82a1,1,0,0,1,.7,1.23l-7.63,27.41a5.06,5.06,0,1,1-9.76-2.71l7.63-27.41a1,1,0,0,1,1.23-.7l3,.83,1.65-5.93C26.74,62.07,23,28.69,45.46,16A29.43,29.43,0,0,1,85.58,27.17C98.22,49.56,77.9,76.29,53,70.25Z"/></g></svg>