<svg xmlns="http://www.w3.org/2000/svg" viewBox="0 0 128 128"><defs><style>.cls-1{fill:#a0aec0;}</style></defs><title>Phobia</title><g id="Phobia"><path class="cls-1" d="M65,14.77a5.4,5.4,0,0,0-4.6-2.61h-.92a5.41,5.41,0,0,0-4.61,2.61l-21.62,36a5.37,5.37,0,0,0,4.6,8.13H82a5.38,5.38,0,0,0,5.37-5.37C87.39,51.45,88.42,53.8,65,14.77Zm-6.06,6.55a1,1,0,0,1,2,0V41.65a1,1,0,0,1-2,0Zm1,30a1.5,1.5,0,0,1,0-3A1.5,1.5,0,0,1,59.94,51.27Z"/><path class="cls-1" d="M112.53,70.19c-.32-1.08-.33-.9-8-11.66a5.43,5.43,0,0,1-.49-5.48c.84-1.76.63-2.14.63-8.35A43.71,43.71,0,0,0,61,1C23.16,1,5.78,37,20.18,71.35,27.11,88,24.89,98.73,23.55,127H72.13V110.74c13.54,3.88,13.66,4.07,16,4.07a12.49,12.49,0,0,0,12.48-12.48V96.52c2-2,.92-5.1-1.68-5.1H92.45a1,1,0,0,1,0-2h8.41c2.3,0,3.54-2.43,2.12-4.55-.51-.76-.37.37-.37-6.64l5.87-1.18A5.35,5.35,0,0,0,112.53,70.19ZM82,60.94H37.85a7.38,7.38,0,0,1-7.37-7.37c0-2.9-.54-1.14,22.68-39.83a7.39,7.39,0,0,1,6.32-3.58h.92a7.39,7.39,0,0,1,6.31,3.58l21.63,36A7.38,7.38,0,0,1,82,60.94Z"/></g></svg>