<svg xmlns="http://www.w3.org/2000/svg" viewBox="0 0 128 128"><defs><style>.cls-1{fill:#a0aec0;}</style></defs><title>Problem Solving</title><g id="Problem_Solving" data-name="Problem Solving"><path class="cls-1" d="M108.71,90.42A18.29,18.29,0,1,0,127,108.71,18.29,18.29,0,0,0,108.71,90.42Zm-7.13,16.26a1,1,0,0,1-2,0v-2a1,1,0,0,1,2,0Zm13.59,10.87a9.15,9.15,0,0,1-12.92,0,1,1,0,0,1,1.42-1.42,7.13,7.13,0,0,0,10.08,0A1,1,0,0,1,115.17,117.55Zm2.67-10.87a1,1,0,0,1-2,0v-2a1,1,0,0,1,2,0Z"/><path class="cls-1" d="M37.58,19.29A18.29,18.29,0,1,0,19.29,37.58,18.29,18.29,0,0,0,37.58,19.29Zm-11.75-5,4.07,2a1,1,0,0,1-.45,1.9c-.33,0-.23,0-4.51-2.14A1,1,0,0,1,25.83,14.33ZM9.13,18.26a1,1,0,0,1-.45-1.9l4.07-2a1,1,0,0,1,.89,1.79C9.33,18.28,9.45,18.26,9.13,18.26Zm3.7,10.21c-2-2,7.1-7.23,12.92-1.41a1,1,0,0,1-1.42,1.41,7.14,7.14,0,0,0-10.08,0A1,1,0,0,1,12.83,28.47Z"/><path class="cls-1" d="M85,110.07l-6.1-6.1a1,1,0,0,0-1.41,1.41l4.39,4.39H72.13V80.26H120.9V73.13H64a1,1,0,0,1,0-2h56.9V7.1H56v5.13H47.74a1,1,0,0,0,0,2h65a1,1,0,0,1,1,1V55.87a1,1,0,0,1-1,1h-64V87.39H64a1,1,0,0,1,1,1v23.38h7v2H64a1,1,0,0,1-1-1V89.39H47.74a1,1,0,0,1-1-1V55.87a1,1,0,0,1,1-1h64V16.23H56v6.12H80.26a1,1,0,0,1,0,2H56V45.74H71.13V38.61a1,1,0,0,1,2,0v8.13a1,1,0,0,1-1,1H56c0,.4,3.76.26-49,.26,0,16.19,0,15,.1,15H38.61V56.87H17.26a1,1,0,0,1,0-2H39.61a1,1,0,0,1,1,1V64a1,1,0,0,1-1,1H7.1c-.16,0-.1-3-.1,56,51.29,0,47.87,0,47.87-.1V105.65H23.35a1,1,0,0,1,0-2h7.13V88.39a1,1,0,0,1,1-1h8.13a1,1,0,0,1,0,2H32.48v14.26H54.87V97.52H39.61a1,1,0,0,1,0-2H55.87a1,1,0,0,1,1,1V120.9c0,.15-1.19.1,15.26.1v-9.23h9.78l-4.39,4.39a1,1,0,0,0,1.41,1.42c6.68-6.68,6.2-6.15,6.31-6.42A1,1,0,0,0,85,110.07ZM56.87,80.26a1,1,0,0,1-2,0V64a1,1,0,0,1,1-1h56.9a1,1,0,0,1,0,2H56.87ZM87.39,23.35a1,1,0,0,1,1-1h16.26a1,1,0,0,1,1,1V47.74a1,1,0,0,1-2,0V24.35H89.39V39.61a1,1,0,0,1-2,0ZM65,32.48v7.13a1,1,0,0,1-2,0V31.48a1,1,0,0,1,1-1H80.26a1,1,0,0,1,1,1V46.74H95.52V31.48a1,1,0,0,1,2,0V47.74a1,1,0,0,1-1,1H80.26a1,1,0,0,1-1-1V32.48ZM40.61,80.26a1,1,0,0,1-1,1H24.35V96.52a1,1,0,0,1-2,0V80.26a1,1,0,0,1,1-1H38.61V73.13H16.23v38.64H47.74a1,1,0,0,1,0,2H15.23a1,1,0,0,1-1-1V72.13a1,1,0,0,1,1-1H39.61a1,1,0,0,1,1,1Z"/></g></svg>