<svg xmlns="http://www.w3.org/2000/svg" viewBox="0 0 128 128"><defs><style>.cls-1{fill:#a0aec0;}</style></defs><title>Psycology</title><g id="Psycology"><path class="cls-1" d="M86.35,3V1H41.65V3A14.23,14.23,0,0,1,55.87,17.26v93.48A14.23,14.23,0,0,1,41.65,125v2h44.7v-2a14.23,14.23,0,0,1-14.22-14.23V17.26A14.23,14.23,0,0,1,86.35,3Z"/><path class="cls-1" d="M118.87,1H127V5.06a8.13,8.13,0,0,0-8.13,8.13V43.68c0,22.92-17.55,44.71-46.74,44.71V84.32a28.45,28.45,0,0,0,28.45-28.45V19.29A18.29,18.29,0,0,1,118.87,1Z"/><path class="cls-1" d="M9.13,1H1V5.06a8.13,8.13,0,0,1,8.13,8.13V43.68c0,22.92,17.55,44.71,46.74,44.71V84.32A28.45,28.45,0,0,1,27.42,55.87V19.29A18.29,18.29,0,0,0,9.13,1Z"/></g></svg>