<svg xmlns="http://www.w3.org/2000/svg" viewBox="0 0 128 128"><defs><style>.cls-1{fill:#a0aec0;}</style></defs><title>Psycologist</title><g id="Psycologist"><path class="cls-1" d="M75.16,29.45V47.74a11.14,11.14,0,0,1-4.79,9.16A11.21,11.21,0,0,0,81.29,45.71V27.42a7.08,7.08,0,0,1,2.16-5.1H82.29A7.14,7.14,0,0,0,75.16,29.45Z"/><path class="cls-1" d="M44.71,47.74V29.45a7.14,7.14,0,0,0-7.13-7.13c-1.36,0-1.19,0-1.08.08a7.08,7.08,0,0,1,2.08,5V45.71A11.21,11.21,0,0,0,49.5,56.9,11.17,11.17,0,0,1,44.71,47.74Z"/><path class="cls-1" d="M63,27.42a7.09,7.09,0,0,1,2.16-5.1H54.71a7.09,7.09,0,0,1,2.16,5.1V72.13a7.11,7.11,0,0,1-2.16,5.1H65.16A7.11,7.11,0,0,1,63,72.13Z"/><path class="cls-1" d="M112.53,70.19c-.32-1.08-.33-.9-8-11.66a5.43,5.43,0,0,1-.49-5.48c.84-1.76.63-2.14.63-8.35A43.71,43.71,0,0,0,61,1C23.16,1,5.78,37,20.18,71.35,27.11,88,24.89,98.73,23.55,127H72.13V110.74c13.54,3.88,13.66,4.07,16,4.07a12.49,12.49,0,0,0,12.48-12.48V96.52c2-2,.92-5.1-1.68-5.1H92.45a1,1,0,0,1,0-2h8.41c2.3,0,3.54-2.43,2.12-4.55-.51-.76-.37.37-.37-6.64l5.87-1.18A5.35,5.35,0,0,0,112.53,70.19ZM88.39,22.32a5.11,5.11,0,0,0-5.1,5.1V45.71A13.21,13.21,0,0,1,70.1,58.9H65V72.13a5.11,5.11,0,0,0,5.1,5.1,1,1,0,0,1,0,2H49.77a1,1,0,0,1,0-2,5.11,5.11,0,0,0,5.1-5.1V58.9h-5.1A13.21,13.21,0,0,1,36.58,45.71V27.42a5.11,5.11,0,0,0-5.1-5.1,1,1,0,0,1,0-2h6.1a9.14,9.14,0,0,1,9.13,9.13V47.74a9.17,9.17,0,0,0,8.16,9.11V27.42a5.11,5.11,0,0,0-5.1-5.1,1,1,0,0,1,0-2H70.1a1,1,0,0,1,0,2,5.11,5.11,0,0,0-5.1,5.1V56.85a9.17,9.17,0,0,0,8.16-9.11V29.45a9.15,9.15,0,0,1,9.13-9.13h6.1A1,1,0,0,1,88.39,22.32Z"/></g></svg>