<svg xmlns="http://www.w3.org/2000/svg" viewBox="0 0 128 128"><defs><style>.cls-1{fill:#a0aec0;}</style></defs><title>Relax</title><g id="Relax"><path class="cls-1" d="M59.94,20.74a22,22,0,0,0,0,29.62A22,22,0,0,0,59.94,20.74Z"/><path class="cls-1" d="M57.57,50.67A23.89,23.89,0,0,1,52.24,36,21.78,21.78,0,0,0,38,29.85,22,22,0,0,0,57.57,50.67Z"/><path class="cls-1" d="M62.3,50.67A22,22,0,0,0,81.9,29.85,21.76,21.76,0,0,0,67.66,36,23.78,23.78,0,0,1,62.3,50.67Z"/><path class="cls-1" d="M43.3,46.08a21.78,21.78,0,0,0-14.43,5.73,21.94,21.94,0,0,0,28.59.87A23.78,23.78,0,0,1,43.3,46.08Z"/><path class="cls-1" d="M112.53,70.19c-.32-1.08-.33-.9-8-11.66a5.43,5.43,0,0,1-.49-5.48c.84-1.76.63-2.14.63-8.35A43.71,43.71,0,0,0,61,1C23.16,1,5.78,37,20.18,71.35,27.11,88,24.89,98.73,23.55,127H72.13V110.74c13.54,3.88,13.66,4.07,16,4.07a12.49,12.49,0,0,0,12.48-12.48V96.52c2-2,.92-5.1-1.68-5.1H92.45a1,1,0,0,1,0-2h8.41c2.3,0,3.54-2.43,2.12-4.55-.51-.76-.37.37-.37-6.64l5.87-1.18A5.35,5.35,0,0,0,112.53,70.19ZM93.16,52.51a23.93,23.93,0,0,1-33.22.68,24,24,0,0,1-33.23-.68,1,1,0,0,1,0-1.41,23.84,23.84,0,0,1,14.8-6.94A23.76,23.76,0,0,1,36,28.82a1,1,0,0,1,1-1A23.81,23.81,0,0,1,52.32,33.4a23.87,23.87,0,0,1,6.91-14.82,1,1,0,0,1,1.41,0,23.82,23.82,0,0,1,6.93,14.81,23.78,23.78,0,0,1,15.35-5.57,1,1,0,0,1,1,1,23.76,23.76,0,0,1-5.56,15.34,23.84,23.84,0,0,1,14.8,6.94A1,1,0,0,1,93.16,52.51Z"/><path class="cls-1" d="M62.41,52.68A21.94,21.94,0,0,0,91,51.81a21.78,21.78,0,0,0-14.43-5.73A23.78,23.78,0,0,1,62.41,52.68Z"/></g></svg>