<svg xmlns="http://www.w3.org/2000/svg" viewBox="0 0 128 128"><defs><style>.cls-1{fill:#a0aec0;}</style></defs><title>Selfcare</title><g id="Selfcare"><path class="cls-1" d="M82.29,51.81V39.61a18.23,18.23,0,0,0-5.36-12.93C65.49,15.24,45.71,23.29,45.71,39.61v12.2a18.29,18.29,0,0,0,36.58,0ZM68.06,60.94H59.94a1,1,0,0,1,0-2h8.12A1,1,0,0,1,68.06,60.94Z"/><path class="cls-1" d="M57.17,117.38c3.14,2.25,5.79,3.81,6.83,4.41,1-.6,3.69-2.16,6.83-4.41-6.14-2.53-4.32-11.7,2.32-11.7H83.1C96.21,87.48,73,75.55,64.86,89.1a1,1,0,0,1-1.72,0c-8.06-13.48-31.39-1.68-18.24,16.58h10C61.48,105.68,63.31,114.85,57.17,117.38Zm17.91-30c7.13,0,9.47,8.83,6.84,8.83a1,1,0,0,1-1-1,5.84,5.84,0,0,0-5.84-5.83A1,1,0,0,1,75.08,87.39Z"/><path class="cls-1" d="M64.48,123.82a1,1,0,0,1-1,0,79.5,79.5,0,0,1-9.09-6H41.65V127h44.7v-9.16H73.57A79.5,79.5,0,0,1,64.48,123.82Z"/><path class="cls-1" d="M76.19,70.1H51.81A20.33,20.33,0,0,0,31.48,90.42v18.29a7.14,7.14,0,0,0,7.13,7.13H54.85a4.08,4.08,0,1,0,0-8.16H39.61a1,1,0,0,1,0-2h2.86c-8.48-13,.14-24.39,10.45-24.39A14,14,0,0,1,64,86.81c10.34-13.63,33.91-.12,21.53,18.87h2.86a1,1,0,0,1,0,2H73.15a4.08,4.08,0,1,0,0,8.16H89.39a7.14,7.14,0,0,0,7.13-7.13V90.42A20.33,20.33,0,0,0,76.19,70.1Z"/><path class="cls-1" d="M9.13,63H1a1,1,0,0,0,0,2H9.13A1,1,0,0,0,9.13,63Z"/><path class="cls-1" d="M127,63h-8.13a1,1,0,0,0,0,2H127A1,1,0,0,0,127,63Z"/><path class="cls-1" d="M16,90.57l-7,4.06a1,1,0,0,0,1,1.74l7-4.07A1,1,0,0,0,16,90.57Z"/><path class="cls-1" d="M111.52,37.56c.38,0-.1.22,7.54-4.19a1,1,0,0,0-1-1.74l-7,4.07A1,1,0,0,0,111.52,37.56Z"/><path class="cls-1" d="M119.06,94.63l-7-4.06a1,1,0,0,0-1,1.73l7,4.07A1,1,0,0,0,119.06,94.63Z"/><path class="cls-1" d="M17,35.7l-7-4.07a1,1,0,0,0-1,1.74l7,4.06A1,1,0,0,0,17,35.7Z"/><path class="cls-1" d="M35.7,17a1,1,0,0,0,1.73-1l-4.06-7a1,1,0,0,0-1.74,1Z"/><path class="cls-1" d="M92.3,17l4.07-7a1,1,0,0,0-1.74-1l-4.06,7A1,1,0,0,0,92.3,17Z"/><path class="cls-1" d="M65,9.13V1a1,1,0,0,0-2,0V9.13A1,1,0,0,0,65,9.13Z"/></g></svg>