<svg xmlns="http://www.w3.org/2000/svg" viewBox="0 0 128 128"><defs><style>.cls-1{fill:#a0aec0;}</style></defs><title>Sleep</title><g id="Sleep"><path class="cls-1" d="M64,26.39A17.31,17.31,0,0,0,46.71,43.68V55.87a17.29,17.29,0,0,0,34.58,0V43.68A17.31,17.31,0,0,0,64,26.39ZM68.06,65H59.94a1,1,0,0,1,0-2h8.12A1,1,0,0,1,68.06,65Z"/><path class="cls-1" d="M104.65,34.48a3,3,0,0,1-2.5-4.66l5-7.53h-2.52a3,3,0,0,1,0-6H107a8.12,8.12,0,0,0-6.39-3.1H27.42a8.13,8.13,0,0,0-8.13,8.13V66a8.13,8.13,0,0,0,8.13,8.13H57.88A19.31,19.31,0,0,1,44.71,55.87V43.68a19.29,19.29,0,0,1,38.58,0V55.87A19.31,19.31,0,0,1,70.12,74.16h30.46A8.13,8.13,0,0,0,108.71,66V34.48Zm-6.1,16.29c-8.5,0-8.63.2-9-.52s-.44-.3,7.14-11.67H90.42a1,1,0,0,1,0-2h8.13a1,1,0,0,1,.83,1.56L92.29,48.77h6.26A1,1,0,0,1,98.55,50.77Z"/><path class="cls-1" d="M100.58,96.48v4.13H87.35V92.45a1,1,0,0,0-2,0v8.16H42.65V92.45a1,1,0,0,0-2,0v8.16H27.42V96.48A20.32,20.32,0,0,1,47.74,76.16H80.26A20.32,20.32,0,0,1,100.58,96.48Z"/><path class="cls-1" d="M127,106.68v7.13H1v-7.13a4.07,4.07,0,0,1,4.06-4.07H122.94A4.07,4.07,0,0,1,127,106.68Z"/><rect class="cls-1" x="1" y="115.81" width="126" height="11.19"/><path class="cls-1" d="M112.77,32.48c-8.5,0-8.61.21-9-.52s-.43-.31,7.15-11.67h-6.26a1,1,0,0,1,0-2h8.12a1,1,0,0,1,.84,1.55l-7.1,10.64h6.26A1,1,0,0,1,112.77,32.48Z"/><path class="cls-1" d="M127,14.19c-8.5,0-8.62.21-9-.52s-.43-.31,7.14-11.67h-6.26a1,1,0,0,1,0-2H127a1,1,0,0,1,.83,1.55l-7.09,10.64H127A1,1,0,0,1,127,14.19Z"/></g></svg>