<svg xmlns="http://www.w3.org/2000/svg" viewBox="0 0 128 128"><defs><style>.cls-1{fill:#a0aec0;}</style></defs><title>Stress</title><g id="Stress"><polygon class="cls-1" points="127 57.9 108.71 47.74 104.64 57.9 90.42 57.9 108.71 68.06 112.77 57.9 127 57.9"/><polygon class="cls-1" points="37.58 57.9 19.29 47.74 15.23 57.9 1 57.9 19.29 68.06 23.36 57.9 37.58 57.9"/><polygon class="cls-1" points="45.32 43.29 39.57 23.17 29.51 27.48 19.45 17.42 25.2 37.54 35.26 33.23 45.32 43.29"/><polygon class="cls-1" points="108.55 17.42 88.43 23.17 92.74 33.23 82.68 43.29 102.8 37.54 98.49 27.48 108.55 17.42"/><polygon class="cls-1" points="64 37.58 74.16 19.29 64 15.23 64 1 53.84 19.29 64 23.36 64 37.58"/><path class="cls-1" d="M70.29,60.19a7.69,7.69,0,0,1,3.77-4.9,16.28,16.28,0,0,0-20.12,0A8,8,0,0,1,58,61.62c.24,2.29-1.23,4.83-9.6,19.17a16.27,16.27,0,0,0,31.2,0h0C69.45,63.34,69.46,63.28,70.29,60.19ZM59,83.62a7.1,7.1,0,0,1,10,0A1,1,0,0,1,67.6,85a5.09,5.09,0,0,0-7.2,0A1,1,0,0,1,59,83.62Z"/><path class="cls-1" d="M56.9,90.82a16.27,16.27,0,0,0,14.2,0A71.68,71.68,0,0,0,56.9,90.82Z"/><path class="cls-1" d="M95.24,112.52l-8.89-1.78V127H41.65V110.74l-8.89,1.78A9.57,9.57,0,0,1,22.61,98.35c24.31-42.15,22.94-41,26.09-41.83a5.75,5.75,0,0,1,7,4.07c.91,3,.6,2.49-21.16,40a1,1,0,0,0,1,1c.75,0,.67-.12,3.59-5.21,9.38-2.2,15.27-3.92,24.82-3.92s15.43,1.72,24.82,3.92c2.92,5,2.8,5.21,3.59,5.21a1,1,0,0,0,1-1c-22-38.19-22-36.83-21.16-40a5.75,5.75,0,0,1,7-4.07c3.16.83,1.79-.31,26.09,41.83A9.57,9.57,0,0,1,95.24,112.52Z"/></g></svg>