<svg xmlns="http://www.w3.org/2000/svg" viewBox="0 0 128 128"><defs><style>.cls-1{fill:#a0aec0;}</style></defs><title>Support System</title><g id="Support_System" data-name="Support System"><path class="cls-1" d="M36,57.41A12.21,12.21,0,0,0,15.23,66v6.1a12.19,12.19,0,0,0,24.38,0C39.61,66.06,40.3,61.69,36,57.41ZM31,76.06a5.07,5.07,0,0,1-7.16,0,1,1,0,0,1,1.41-1.42,3.14,3.14,0,0,0,4.34,0A1,1,0,0,1,31,76.06Z"/><path class="cls-1" d="M109.2,57.41A12.21,12.21,0,0,0,88.39,66v6.1a12.19,12.19,0,0,0,24.38,0C112.77,66.06,113.46,61.69,109.2,57.41Zm-5,18.65a5.07,5.07,0,0,1-7.16,0,1,1,0,0,1,1.41-1.42,3.14,3.14,0,0,0,4.34,0A1,1,0,0,1,104.16,76.06Z"/><path class="cls-1" d="M72.62,57.41A12.21,12.21,0,0,0,51.81,66v6.1a12.19,12.19,0,0,0,24.38,0C76.19,66.06,76.88,61.69,72.62,57.41Zm-5,18.65a5.07,5.07,0,0,1-7.16,0,1,1,0,0,1,1.41-1.42,3.14,3.14,0,0,0,4.34,0A1,1,0,0,1,67.58,76.06Z"/><path class="cls-1" d="M47.57,84.32a18.28,18.28,0,0,0-10,16.26V127H12.16V98.55a1,1,0,0,0-2,0V127H1V100.58A16.26,16.26,0,0,1,17.26,84.32Z"/><path class="cls-1" d="M127,100.58V127h-9.16V98.55a1,1,0,0,0-2,0V127H90.39V100.58a18.28,18.28,0,0,0-10-16.26h30.31A16.26,16.26,0,0,1,127,100.58Z"/><path class="cls-1" d="M64,7.93C56.57-4.45,37.58.87,37.58,15.23,37.58,31.48,64,45.71,64,45.71S90.42,31.48,90.42,15.23C90.42.86,71.42-4.44,64,7.93Zm20.32,8.3a1,1,0,0,1-1-1A7.13,7.13,0,0,0,76.19,8.1a1,1,0,0,1,0-2C84.43,6.1,87.09,16.23,84.32,16.23Z"/><path class="cls-1" d="M88.39,100.58V127H79.23V98.55a1,1,0,0,0-2,0V127H50.77V98.55a1,1,0,0,0-2,0V127H39.61V100.58A16.26,16.26,0,0,1,55.87,84.32H72.13A16.26,16.26,0,0,1,88.39,100.58Z"/></g></svg>