<svg xmlns="http://www.w3.org/2000/svg" viewBox="0 0 128 128"><defs><style>.cls-1{fill:#a0aec0;}</style></defs><title>Theraphy</title><g id="Theraphy"><path class="cls-1" d="M81.63,40.36a1,1,0,0,1,1.66-1.12A7,7,0,0,0,93.13,41a1,1,0,0,1,.58-.18h0a8,8,0,0,0,.6-12.67A9.18,9.18,0,0,0,86.38,16a6.87,6.87,0,0,0-6.47-9.21A5.87,5.87,0,0,0,74,12.62a1,1,0,0,1-2,0A7.86,7.86,0,0,1,78.11,5C75-1.7,65,.59,65,7.88V37.77a7.39,7.39,0,0,1,4.61-2.38,1,1,0,0,1,.25,2A5.56,5.56,0,0,0,65,42.87V55.38a11.21,11.21,0,0,1,9-4.89,1,1,0,0,1,0,2A9.27,9.27,0,0,0,65,61.8,10.32,10.32,0,0,0,84.73,66,9.16,9.16,0,0,0,91.11,55a9.17,9.17,0,0,0,3.54-12.86C94.21,43.88,85.91,46.65,81.63,40.36Zm-4.1-25.15A1,1,0,0,1,79,16.62a6.13,6.13,0,1,0,8.67,8.67A1,1,0,0,1,89,26.71,8.08,8.08,0,0,1,84.2,29a6.09,6.09,0,0,1-6,5.15,1,1,0,0,1,0-2,4.09,4.09,0,0,0,4-3.18A8.13,8.13,0,0,1,77.53,15.21Zm7.79,38.12a6.85,6.85,0,0,0-6.84,6.84,1,1,0,0,1-2,0,8.85,8.85,0,0,1,5.67-8.24A7.13,7.13,0,0,0,75.92,45a1,1,0,0,1,.25-2,9.12,9.12,0,0,1,8,8.41,9.39,9.39,0,0,1,1.19-.09A1,1,0,0,1,85.32,53.33Z"/><path class="cls-1" d="M58.39,26.21A7.4,7.4,0,0,1,63,28.6V7.88C63,.58,53-1.69,49.89,5A7.86,7.86,0,0,1,56,12.62a1,1,0,0,1-2,0,5.87,5.87,0,0,0-5.88-5.88A6.88,6.88,0,0,0,41.62,16,9.18,9.18,0,0,0,33.7,28.17a8,8,0,0,0,.6,12.67h0a1,1,0,0,1,.58.18,7,7,0,0,0,9.84-1.79,1,1,0,0,1,1.66,1.12,9,9,0,0,1-12.65,2.3,1,1,0,0,1-.37-.53A9.17,9.17,0,0,0,36.89,55,9.17,9.17,0,0,0,43.27,66,10.32,10.32,0,0,0,63,61.8a9.27,9.27,0,0,0-9.06-9.31,1,1,0,0,1,0-2,11.21,11.21,0,0,1,9,4.89V33.7a5.56,5.56,0,0,0-4.86-5.51A1,1,0,0,1,58.39,26.21ZM43.8,29A8.08,8.08,0,0,1,39,26.71a1,1,0,0,1,1.41-1.42,6.13,6.13,0,0,0,8.67-8.67,1,1,0,0,1,0-1.41c1.9-1.9,6.6,6.32,1.42,11.5A8.06,8.06,0,0,1,45.83,29a4.09,4.09,0,0,0,4,3.18,1,1,0,0,1,0,2A6.09,6.09,0,0,1,43.8,29Zm8.28,16a7.13,7.13,0,0,0-6.23,6.94,8.85,8.85,0,0,1,5.67,8.24,1,1,0,0,1-2,0,6.85,6.85,0,0,0-6.84-6.84,1,1,0,0,1,0-2,9.39,9.39,0,0,1,1.19.09,9.12,9.12,0,0,1,8-8.41A1,1,0,0,1,52.08,45Z"/><path class="cls-1" d="M40.65,127s2-12.19-6.1-18.29S20.32,96.52,14.23,90.42C7.14,83.34-1.13,59.94,0,59.94a4.06,4.06,0,0,1,7.66-1.87C10.16,64,14,74,20.32,80.26c3.11,3.11,17.36,11.64,18.25,12.17-.3-.34-2.46-2.8-8.09-12.17-6.09-10.16-.24-11.61,4.07-10.16,6.1,2,10.16,14.22,16.26,18.29S63,104.65,63,112.77V127"/><path class="cls-1" d="M87.35,127s-2-12.19,6.1-18.29,14.23-12.19,20.32-18.29S128,64,128,59.94h0a4.06,4.06,0,0,0-7.66-1.87C117.84,64,114,74,107.68,80.26c-3.11,3.11-17.36,11.64-18.25,12.17.3-.34,2.46-2.8,8.09-12.17,6.09-10.16.24-11.61-4.07-10.16-6.1,2-10.16,14.22-16.26,18.29S65,104.65,65,112.77V127"/></g></svg>