<svg xmlns="http://www.w3.org/2000/svg" xmlns:xlink="http://www.w3.org/1999/xlink" viewBox="0 0 64 64"><defs><style>.cls-1{fill:url(#linear-gradient);}.cls-2{fill:#cba07a;}</style><linearGradient id="linear-gradient" x1="32" y1="43" x2="32" y2="21.01" gradientUnits="userSpaceOnUse"><stop offset="0" stop-color="#d1a788"/><stop offset="1" stop-color="#f2d3b8"/></linearGradient></defs><title>baguette</title><g id="baguette"><path class="cls-1" d="M63,37c0,5-13.88,6-31,6S1,42,1,37c0-8,23.29-22.09,47-13.08C57,27.31,63,33,63,37Z"/><path class="cls-2" d="M63,37c0,5-13.88,6-31,6S1,42,1,37a4.43,4.43,0,0,1,.09-.87C4.75,39.3,17.2,40,32,40s27.25-.7,30.91-3.87A4.43,4.43,0,0,1,63,37Z"/><path class="cls-2" d="M34,21.05c0,11.91-4,11.92-4,0A38.12,38.12,0,0,1,34,21.05Z"/><path class="cls-2" d="M48,23.92c-.47,10-3.78,9.17-3.94-1.3C45.37,23,46.69,23.44,48,23.92Z"/><path class="cls-2" d="M20,22.62c-.16,10.47-3.47,11.35-3.94,1.3C17.31,23.44,18.63,23,20,22.62Z"/></g></svg>