<svg xmlns="http://www.w3.org/2000/svg" xmlns:xlink="http://www.w3.org/1999/xlink" viewBox="0 0 64 64"><defs><style>.cls-1{fill:url(#linear-gradient);}.cls-2{fill:#dd8b37;}.cls-3{fill:#fff2e3;}.cls-4{fill:#ffd39f;}.cls-5{fill:url(#linear-gradient-3);}.cls-6{fill:url(#linear-gradient-4);}</style><linearGradient id="linear-gradient" x1="33.9" y1="62.32" x2="33.9" y2="1.68" gradientUnits="userSpaceOnUse"><stop offset="0" stop-color="#e9a254"/><stop offset="1" stop-color="#f4bb79"/></linearGradient><linearGradient id="linear-gradient-3" x1="1" y1="48.15" x2="20.27" y2="48.15" gradientUnits="userSpaceOnUse"><stop offset="0" stop-color="#fbcc88"/><stop offset="1" stop-color="#ffe5c3"/></linearGradient><linearGradient id="linear-gradient-4" x1="19.88" y1="27.91" x2="46.16" y2="27.91" xlink:href="#linear-gradient-3"/></defs><title>Banana</title><g id="Banana"><path class="cls-1" d="M24.56,58.47C41.09,68.39,55.15,56,55.15,56c1.65-1.65,5,0,6.61-1.65s1.65-3.31,0-5-3.22.82-7.44.82c-3.31,0-3.31-1.65-6.61-3.3S36.13,43.59,29.52,37C23.6,31.06,20.78,18.8,19.6,10.52c-.83-5.78-5-11.57-9.09-7.44S3.07,15.48,5.8,29.17C8.06,40.36,14.61,52.49,24.56,58.47Z"/><path class="cls-1" d="M24.56,58.47C41.09,68.39,55.15,56,55.15,56c1.65-1.65,5,0,6.61-1.65s1.65-3.31,0-5-3.22.82-7.44.82c-3.31,0-3.31-1.65-6.61-3.3S36.13,43.59,29.52,37C23.6,31.06,20.78,18.8,19.6,10.52c-.83-5.78-5-11.57-9.09-7.44S3.07,15.48,5.8,29.17C8.06,40.36,14.61,52.49,24.56,58.47Z"/><path class="cls-2" d="M61.76,54.34c-1.65,1.65-5,0-6.61,1.65,0,0-14.06,12.4-30.59,2.48A37.45,37.45,0,0,1,12.05,45.36L8.13,37.22A49.82,49.82,0,0,1,4.82,19,51.17,51.17,0,0,0,8.13,35.22l3.92,8.14A37.45,37.45,0,0,0,24.56,56.47C41.09,66.39,55.15,54,55.15,54c2-2,6.12.8,7.64-3.13C63.26,52,62.92,53.18,61.76,54.34Z"/><path class="cls-3" d="M23.91,27.73a.84.84,0,0,0-.18.15,12.4,12.4,0,0,0-3.3,9.92h0c-2.51-2.51-7.72.06-8.38,7.56-4.3-8.94-3.83-7.8-4.61-10.07C4,25.09,2.9,10.69,10.51,3.08,14.64-1,18.77,4.74,19.6,10.52,21.34,22.84,23.91,27,23.91,27.73Z"/><path class="cls-4" d="M20.31,37.68l0,0c-2.53-2.28-7.58.33-8.23,7.7-4.3-8.94-3.83-7.8-4.61-10.07,4.28-3,8.85-3.32,13-.13C20.21,37.43,20.56,37.41,20.31,37.68Z"/><path class="cls-4" d="M23.73,27.88a12.4,12.4,0,0,0-3.3,9.92,3.1,3.1,0,0,0-2.27-.95,15.22,15.22,0,0,1,4.15-13.68C23.87,28.34,24.15,27.46,23.73,27.88Z"/><path class="cls-5" d="M12,45.35a18.17,18.17,0,0,0,5.05,13.87,1.28,1.28,0,0,1-1.68,1.92C10.9,57.9,6.06,54.85,3.89,52.68c-5.78-5.78-1.65-9.92,1.66-13.22,4.75-4.75,9.91-6.46,14.72-1.81C17.69,35.38,12.69,38,12,45.35Z"/><path class="cls-6" d="M46.05,33.67c-.81,2.45-17.71-9.59-22.14-6h0a.84.84,0,0,0-.18.15c-4.13,4.14-3.3,9.92-3.3,9.92s-2.7-7.22,3.3-13.22c5.79-5.79,9.1-9.1,14.06-4.14S46.88,31.19,46.05,33.67Z"/><path class="cls-2" d="M50.19,55.34a36.86,36.86,0,0,1-19-4.83,1,1,0,0,1,1-1.71,34.87,34.87,0,0,0,18,4.54A1,1,0,0,1,50.19,55.34Z"/><path class="cls-2" d="M24.73,45.1a34.07,34.07,0,0,1-5.2-6.85,1,1,0,0,1,1.79-.9,32.82,32.82,0,0,0,4.86,6.38A1,1,0,0,1,24.73,45.1Z"/></g></svg>