<svg xmlns="http://www.w3.org/2000/svg" xmlns:xlink="http://www.w3.org/1999/xlink" viewBox="0 0 64 64"><defs><style>.cls-1{fill:#77cacb;}.cls-2{fill:#d7f1ff;}.cls-3{fill:url(#linear-gradient);}.cls-4{fill:url(#linear-gradient-2);}.cls-5{fill:url(#linear-gradient-3);}.cls-6{fill:url(#linear-gradient-4);}.cls-7{fill:url(#linear-gradient-5);}.cls-8{fill:#cf4055;}.cls-9{fill:url(#linear-gradient-6);}.cls-10{fill:url(#linear-gradient-7);}.cls-11{fill:url(#linear-gradient-8);}.cls-12{fill:url(#linear-gradient-9);}.cls-13{fill:#f6b756;}.cls-14{fill:#d861b0;}.cls-15{fill:#7ece67;}.cls-16{fill:#8a6762;}</style><linearGradient id="linear-gradient" x1="32" y1="50" x2="32" y2="40" gradientUnits="userSpaceOnUse"><stop offset="0" stop-color="#9dd5df"/><stop offset="1" stop-color="#c3e1f5"/></linearGradient><linearGradient id="linear-gradient-2" x1="20" y1="58.02" x2="44.01" y2="58.02" xlink:href="#linear-gradient"/><linearGradient id="linear-gradient-3" x1="32" y1="36" x2="32" y2="26" gradientUnits="userSpaceOnUse"><stop offset="0" stop-color="#fbcc88"/><stop offset="1" stop-color="#ffe5c3"/></linearGradient><linearGradient id="linear-gradient-4" x1="32" y1="32" x2="32" y2="19.41" gradientUnits="userSpaceOnUse"><stop offset="0" stop-color="#9b756d"/><stop offset="1" stop-color="#bc9388"/></linearGradient><linearGradient id="linear-gradient-5" x1="32" y1="21" x2="32" y2="13" gradientUnits="userSpaceOnUse"><stop offset="0" stop-color="#da5466"/><stop offset="1" stop-color="#f4929c"/></linearGradient><linearGradient id="linear-gradient-6" x1="48.76" y1="30.83" x2="48.76" y2="20.39" gradientUnits="userSpaceOnUse"><stop offset="0" stop-color="#8cdd79"/><stop offset="1" stop-color="#d4e6b6"/></linearGradient><linearGradient id="linear-gradient-7" x1="47" y1="22" x2="47" y2="14" xlink:href="#linear-gradient-5"/><linearGradient id="linear-gradient-8" x1="15.25" y1="30.83" x2="15.25" y2="20.39" gradientUnits="userSpaceOnUse"><stop offset="0" stop-color="#d96bb0"/><stop offset="1" stop-color="#e49fc6"/></linearGradient><linearGradient id="linear-gradient-9" x1="17" y1="22" x2="17" y2="14" xlink:href="#linear-gradient-5"/></defs><title>Banana Split</title><g id="Banana_Split" data-name="Banana Split"><path class="cls-1" d="M38,56c-4.07-2.71-3.61-6.32-1-7H27c2.58.68,3.08,4.28-1,7Z"/><path class="cls-2" d="M59,40H5a2,2,0,0,1,0-4H59A2,2,0,0,1,59,40Z"/><path class="cls-3" d="M59,40c0,5.52-12.09,10-27,10S5,45.52,5,40"/><path class="cls-1" d="M58.91,40.76C57.87,45.93,46.22,50,32,50S6.13,45.93,5.09,40.76C12.79,50.37,51.19,50.39,58.91,40.76Z"/><path class="cls-4" d="M24,56H40a4,4,0,0,1,4,4c0,.1,1.09,0-24,0A4,4,0,0,1,24,56Z"/><path class="cls-1" d="M44,60H20a4,4,0,0,1,.54-2H43.46A4,4,0,0,1,44,60Z"/><path class="cls-5" d="M63,29c0,2.88-5.85,5.82-8.75,7H9.75C6.93,34.85,1,31.88,1,29s1-3,4-3c2.8,0,8.46,3.12,16.34,4.83C41.43,35.22,54,26,59,26,62,26,63,26,63,29Z"/><path class="cls-6" d="M42.66,30.83a49.15,49.15,0,0,1-21.32,0c-1.51-5.14,2.11-10,7.47-11.42a4,4,0,0,0,6.38,0C40.6,20.81,44.16,25.73,42.66,30.83Z"/><circle class="cls-7" cx="32" cy="17" r="4"/><path class="cls-8" d="M31,15.08c0-6.65-3.43-9.16-3.57-9.26a1,1,0,0,1,1.14-1.64C28.75,4.3,33,7.31,33,15.08A1,1,0,0,1,31,15.08Z"/><path class="cls-9" d="M40.05,22a11.78,11.78,0,0,1,3.75-1.64,4,4,0,0,0,6.4,0,10.31,10.31,0,0,1,7.26,5.83c-3.1.71-8,3.14-14.8,4.61A8.59,8.59,0,0,0,40.05,22Z"/><circle class="cls-10" cx="47" cy="18" r="4"/><path class="cls-8" d="M46,16c0-6.66-3.43-9.16-3.57-9.26a1,1,0,0,1,1.14-1.65C43.75,5.22,48,8.23,48,16A1,1,0,0,1,46,16Z"/><path class="cls-11" d="M21.34,30.83c-6.76-1.47-11.7-3.9-14.8-4.61a10.28,10.28,0,0,1,7.26-5.83,4,4,0,0,0,6.4,0A11.78,11.78,0,0,1,24,22,8.62,8.62,0,0,0,21.34,30.83Z"/><circle class="cls-12" cx="17" cy="18" r="4"/><circle class="cls-12" cx="17" cy="18" r="4"/><path class="cls-8" d="M32,21a4,4,0,0,1-3.87-5,4,4,0,0,0,7.74,0A4,4,0,0,1,32,21Z"/><path class="cls-8" d="M47,22a4,4,0,0,1-3.87-5,4,4,0,0,0,7.74,0A4,4,0,0,1,47,22Z"/><path class="cls-8" d="M17,22a4,4,0,0,1-3.87-5,4,4,0,0,0,7.74,0A4,4,0,0,1,17,22Z"/><path class="cls-8" d="M16,16c0-6.66-3.43-9.16-3.57-9.26a1,1,0,0,1,1.14-1.65C13.75,5.22,18,8.23,18,16A1,1,0,0,1,16,16Z"/><path class="cls-13" d="M58.35,34a31.41,31.41,0,0,1-4.1,2H9.75a31.41,31.41,0,0,1-4.1-2Z"/><path class="cls-14" d="M21.34,30.83c-6.76-1.47-11.7-3.9-14.8-4.61a8,8,0,0,1,1-1.81c3.16.84,7.56,2.93,13.47,4.29A8,8,0,0,0,21.34,30.83Z"/><path class="cls-15" d="M57.46,26.22c-3.1.71-8,3.14-14.8,4.61A8,8,0,0,0,43,28.7c6.21-1.45,10.33-3.47,13.47-4.29A8,8,0,0,1,57.46,26.22Z"/><path class="cls-16" d="M43,28.7a8,8,0,0,1-.33,2.13,49.15,49.15,0,0,1-21.32,0A8,8,0,0,1,21,28.7,48,48,0,0,0,43,28.7Z"/></g></svg>