<svg xmlns="http://www.w3.org/2000/svg" xmlns:xlink="http://www.w3.org/1999/xlink" viewBox="0 0 64 64"><defs><style>.cls-1{fill:url(#linear-gradient);}.cls-2{fill:url(#linear-gradient-2);}.cls-3{fill:url(#linear-gradient-3);}.cls-4{fill:#8a6762;}.cls-5{fill:url(#linear-gradient-4);}.cls-6{fill:url(#linear-gradient-5);}.cls-7{fill:#7ece67;}.cls-8{fill:url(#linear-gradient-6);}.cls-9{fill:url(#linear-gradient-7);}.cls-10{fill:#cf4055;}</style><linearGradient id="linear-gradient" y1="32" x2="64.04" y2="32" gradientUnits="userSpaceOnUse"><stop offset="0" stop-color="#a0a6ba"/><stop offset="1" stop-color="#c6ccda"/></linearGradient><linearGradient id="linear-gradient-2" x1="56.26" y1="13.17" x2="56.26" y2="2.35" gradientTransform="translate(10.99 42.06) rotate(-45)" gradientUnits="userSpaceOnUse"><stop offset="0" stop-color="#9b756d"/><stop offset="1" stop-color="#bc9388"/></linearGradient><linearGradient id="linear-gradient-3" x1="35.76" y1="33.67" x2="35.76" y2="22.85" gradientTransform="translate(-9.51 33.57) rotate(-45)" xlink:href="#linear-gradient-2"/><linearGradient id="linear-gradient-4" x1="42.59" y1="25.65" x2="42.59" y2="15.53" gradientUnits="userSpaceOnUse"><stop offset="0" stop-color="#8cdd79"/><stop offset="1" stop-color="#d4e6b6"/></linearGradient><linearGradient id="linear-gradient-5" x1="22.44" y1="47.5" x2="22.44" y2="37.38" xlink:href="#linear-gradient-4"/><linearGradient id="linear-gradient-6" x1="50.08" y1="19.37" x2="50.08" y2="8.52" gradientUnits="userSpaceOnUse"><stop offset="0" stop-color="#da5466"/><stop offset="1" stop-color="#f4929c"/></linearGradient><linearGradient id="linear-gradient-7" x1="29.58" y1="39.87" x2="29.58" y2="29.02" xlink:href="#linear-gradient-6"/></defs><title>BBQ</title><g id="BBQ"><path class="cls-1" d="M64,1A1,1,0,0,0,62.29.29L7.75,54.83a5,5,0,1,0,1.42,1.42C67.55-2.13,64,1.64,64,1ZM5,62a3,3,0,1,1,3-3A3,3,0,0,1,5,62Z"/><rect class="cls-2" x="51.33" y="3.87" width="9.86" height="7.78" rx="2" transform="translate(21.97 -37.51) rotate(45)"/><rect class="cls-3" x="30.83" y="24.37" width="9.86" height="7.78" rx="2" transform="translate(30.46 -17.01) rotate(45)"/><path class="cls-4" d="M60.41,10.59l-2,2a2,2,0,0,1-2.82,0L51.44,8.44a2,2,0,0,1,0-2.83l2-2a2,2,0,0,0,0,2.83l4.15,4.15A2,2,0,0,0,60.41,10.59Z"/><path class="cls-4" d="M39.91,31.09l-2,2a2,2,0,0,1-2.82,0l-4.15-4.15a2,2,0,0,1,0-2.83l2-2a2,2,0,0,0,0,2.83l4.15,4.15A2,2,0,0,0,39.91,31.09Z"/><path class="cls-5" d="M44,25l-6.47-6.47,3-3L47,22A2.12,2.12,0,0,1,44,25Z"/><path class="cls-6" d="M24.5,47.5,18,41a2.12,2.12,0,0,1,3-3L27.5,44.5Z"/><path class="cls-7" d="M47.41,24.41a2.09,2.09,0,0,1-1.91,1.21c-1.24,0-1-.17-8-7.09l1-1L45,24A2.11,2.11,0,0,0,47.41,24.41Z"/><path class="cls-7" d="M25.5,46.5l-1,1L18,41a2.11,2.11,0,0,1,.59-3.41A2.11,2.11,0,0,0,19,40Z"/><path class="cls-8" d="M46.51,17.51a6.34,6.34,0,0,1,0-9c.1-.1-.11-.14,9,9A6.34,6.34,0,0,1,46.51,17.51Z"/><path class="cls-9" d="M26,38a6.34,6.34,0,0,1,0-9c.1-.1-.11-.14,9,9A6.34,6.34,0,0,1,26,38Z"/><path class="cls-10" d="M55.5,17.5a6.35,6.35,0,1,1-9-9h0l.11.11C43,14.32,49.7,21,55.38,17.38Z"/><path class="cls-10" d="M35,38a6.35,6.35,0,1,1-9-9h0l.11.11c-3.62,5.68,3.06,12.36,8.74,8.74Z"/></g></svg>