<svg xmlns="http://www.w3.org/2000/svg" xmlns:xlink="http://www.w3.org/1999/xlink" viewBox="0 0 64 64"><defs><style>.cls-1{fill:url(#linear-gradient);}.cls-2{fill:url(#linear-gradient-2);}.cls-3{fill:#dd8b37;}.cls-4{fill:#77cacb;}.cls-5{fill:url(#linear-gradient-3);}.cls-6{fill:#c7cdd8;}</style><linearGradient id="linear-gradient" x1="32" y1="63" x2="32" y2="15" gradientUnits="userSpaceOnUse"><stop offset="0" stop-color="#9dd5df"/><stop offset="1" stop-color="#c3e1f5"/></linearGradient><linearGradient id="linear-gradient-2" x1="24" y1="58" x2="24" y2="15" gradientUnits="userSpaceOnUse"><stop offset="0" stop-color="#e9a254"/><stop offset="1" stop-color="#f4bb79"/></linearGradient><linearGradient id="linear-gradient-3" x1="24" y1="29" x2="24" y2="1.01" gradientUnits="userSpaceOnUse"><stop offset="0" stop-color="#d4d8e1"/><stop offset="1" stop-color="#f3f4f5"/></linearGradient></defs><title>Beer</title><g id="Beer"><path class="cls-1" d="M41,24V15H7V59a4,4,0,0,0,4,4H37a4,4,0,0,0,4-4V50c6.7,5,16,.08,16-8.29V32.3C57,23.92,47.7,19,41,24ZM53,42a6,6,0,0,1-10.24,4.24A5.94,5.94,0,0,1,41,42V32a6,6,0,0,1,12,0Z"/><path class="cls-2" d="M31.54,15H38V56a2,2,0,0,1-2,2H12a2,2,0,0,1-2-2V15h4.31"/><path class="cls-3" d="M38,53v3a2,2,0,0,1-2,2H12a2,2,0,0,1-2-2V53a2,2,0,0,0,2,2H36A2,2,0,0,0,38,53Z"/><path class="cls-4" d="M37,60H11a4,4,0,0,1-4-4v3a4,4,0,0,0,4,4H37a4,4,0,0,0,4-4V56A4,4,0,0,1,37,60Z"/><path class="cls-5" d="M31,15a2,2,0,0,0-2,2v6a2,2,0,0,1-4,0V22a2,2,0,0,0-4,0v5a2,2,0,0,1-4,0V17a2,2,0,0,0-2-2H10a5,5,0,0,1,4-8,3,3,0,0,1,4.57-2.54A6,6,0,0,1,30,7.14,4,4,0,0,1,35,11a4,4,0,0,1,4,4Z"/><path class="cls-6" d="M26,16H20a1,1,0,0,1,0-2h6A1,1,0,0,1,26,16Z"/></g></svg>