<svg xmlns="http://www.w3.org/2000/svg" xmlns:xlink="http://www.w3.org/1999/xlink" viewBox="0 0 64 64"><defs><style>.cls-1{fill:url(#linear-gradient);}.cls-2{fill:#aae0e5;}.cls-3{fill:url(#linear-gradient-2);}.cls-4{fill:#cba07a;}.cls-5{fill:url(#linear-gradient-3);}.cls-6{fill:url(#linear-gradient-4);}.cls-7{fill:#8a6762;}.cls-8{fill:url(#linear-gradient-5);}</style><linearGradient id="linear-gradient" x1="32" y1="63" x2="32" y2="25" gradientUnits="userSpaceOnUse"><stop offset="0" stop-color="#9dd5df"/><stop offset="1" stop-color="#c3e1f5"/></linearGradient><linearGradient id="linear-gradient-2" x1="32" y1="61" x2="32" y2="29" gradientUnits="userSpaceOnUse"><stop offset="0" stop-color="#d1a788"/><stop offset="1" stop-color="#f2d3b8"/></linearGradient><linearGradient id="linear-gradient-3" x1="32" y1="21" x2="32" y2="9" gradientUnits="userSpaceOnUse"><stop offset="0" stop-color="#d4d8e1"/><stop offset="1" stop-color="#f3f4f5"/></linearGradient><linearGradient id="linear-gradient-4" y1="29" y2="1" xlink:href="#linear-gradient"/><linearGradient id="linear-gradient-5" x1="32" y1="25" x2="32" y2="21" xlink:href="#linear-gradient-3"/></defs><title>Boba</title><g id="Boba"><path class="cls-1" d="M47,25c-.23,2.85.22-2.77-3,38H20L17,25Z"/><polygon class="cls-2" points="47 25 46.84 27 17.16 27 17 25 47 25"/><path class="cls-3" d="M44.68,29c-2.61,33.1-2.24,28.37-2.42,30.62A1.49,1.49,0,0,1,40.77,61H23.23a1.49,1.49,0,0,1-1.49-1.38c-.18-2.3.15,2-2.42-30.62Z"/><path class="cls-4" d="M42.39,58l-.13,1.62A1.49,1.49,0,0,1,40.77,61H23.23a1.49,1.49,0,0,1-1.49-1.38L21.61,58Z"/><path class="cls-5" d="M47,21c-31.16,0-30-.1-30,0A12,12,0,0,1,29,9h6A12,12,0,0,1,47,21Z"/><path class="cls-6" d="M30,1V29h4V1Z"/><path class="cls-7" d="M29,54.5a1.5,1.5,0,0,1-3,0A1.5,1.5,0,0,1,29,54.5Z"/><path class="cls-7" d="M39,55.5a1.5,1.5,0,0,1-3,0A1.5,1.5,0,0,1,39,55.5Z"/><path class="cls-7" d="M34,55.5a1.5,1.5,0,0,1-3,0A1.5,1.5,0,0,1,34,55.5Z"/><path class="cls-7" d="M37,51.5a1.5,1.5,0,0,1-3,0A1.5,1.5,0,0,1,37,51.5Z"/><path class="cls-7" d="M32,51.5a1.5,1.5,0,0,1-3,0A1.5,1.5,0,0,1,32,51.5Z"/><path class="cls-7" d="M28,49.5a1.5,1.5,0,0,1-3,0A1.5,1.5,0,0,1,28,49.5Z"/><path class="cls-7" d="M34,47.5a1.5,1.5,0,0,1-3,0A1.5,1.5,0,0,1,34,47.5Z"/><path class="cls-7" d="M30,45.5a1.5,1.5,0,0,1-3,0A1.5,1.5,0,0,1,30,45.5Z"/><path class="cls-7" d="M39,47.5a1.5,1.5,0,0,1-3,0A1.5,1.5,0,0,1,39,47.5Z"/><rect class="cls-8" x="15" y="21" width="34" height="4"/></g></svg>