<svg xmlns="http://www.w3.org/2000/svg" xmlns:xlink="http://www.w3.org/1999/xlink" viewBox="0 0 64 64"><defs><style>.cls-1{fill:url(#linear-gradient);}.cls-2{fill:url(#linear-gradient-2);}.cls-3{fill:url(#linear-gradient-3);}.cls-4{fill:#c7cdd8;}.cls-5{fill:url(#linear-gradient-5);}.cls-6{fill:#dd8b37;}.cls-7{fill:url(#linear-gradient-6);}.cls-8{fill:url(#linear-gradient-7);}.cls-9{fill:#cf4055;}</style><linearGradient id="linear-gradient" x1="32" y1="63" x2="32" y2="1" gradientUnits="userSpaceOnUse"><stop offset="0" stop-color="#d4d8e1"/><stop offset="1" stop-color="#f3f4f5"/></linearGradient><linearGradient id="linear-gradient-2" x1="32" y1="51" x2="32" y2="13" gradientUnits="userSpaceOnUse"><stop offset="0" stop-color="#a0a6ba"/><stop offset="1" stop-color="#c6ccda"/></linearGradient><linearGradient id="linear-gradient-3" x1="22.78" y1="52" x2="22.78" y2="19" xlink:href="#linear-gradient"/><linearGradient id="linear-gradient-5" x1="21" y1="39" x2="21" y2="27" gradientUnits="userSpaceOnUse"><stop offset="0" stop-color="#e9a254"/><stop offset="1" stop-color="#f4bb79"/></linearGradient><linearGradient id="linear-gradient-6" x1="41.14" y1="40.82" x2="41.14" y2="20" gradientUnits="userSpaceOnUse"><stop offset="0" stop-color="#da5466"/><stop offset="1" stop-color="#f4929c"/></linearGradient><linearGradient id="linear-gradient-7" x1="43.14" y1="30.82" x2="43.14" y2="10" xlink:href="#linear-gradient-6"/></defs><title>Breackfast</title><g id="Breackfast"><circle class="cls-1" cx="32" cy="32" r="31"/><circle class="cls-2" cx="32" cy="32" r="19"/><path class="cls-3" d="M21,19c7,0,8,4,9,7,2.3,6.91,0,8.81,4,12,5,4,3,14-9,14C17,52,9,47.18,9,36,9,25,14,19,21,19Z"/><path class="cls-3" d="M21,19c7,0,8,4,9,7,2.3,6.91,0,8.81,4,12,5,4,3,14-9,14C17,52,9,47.18,9,36,9,25,14,19,21,19Z"/><path class="cls-4" d="M35.15,47.75C29.85,55.3,9,53.83,9,36c0-7.22,2.15-12.28,5.61-14.91C12.34,24,11,28.31,11,34,11,50.47,28.45,52.6,35.15,47.75Z"/><circle class="cls-5" cx="21" cy="33" r="6"/><path class="cls-6" d="M21,39a6,6,0,0,1-5.91-7c1.1,6.64,10.72,6.63,11.82,0A6,6,0,0,1,21,39Z"/><path class="cls-7" d="M49.63,40.8c-10.46-1.23-18.58-8.16-20.3-17.21a3,3,0,1,1,5.91-1.09C36.49,29,42.57,34,50.41,34.85a3,3,0,0,1,2.59,3A3,3,0,0,1,49.63,40.8Z"/><path class="cls-8" d="M51.63,30.8c-10.46-1.23-18.58-8.16-20.3-17.21a3,3,0,1,1,5.91-1.09C38.49,19,44.57,24,52.41,24.85a3,3,0,0,1,2.59,3A3,3,0,0,1,51.63,30.8Z"/><path class="cls-9" d="M51.63,30.8c-8.87-1-16.06-6.19-19.08-13.24,3.43,6,10.07,10.3,18.08,11.24A3,3,0,0,0,54,25.57,3,3,0,0,1,51.63,30.8Z"/><path class="cls-9" d="M49.63,40.8c-8.87-1-16.06-6.19-19.08-13.24,3.43,6,10.07,10.3,18.08,11.24A3,3,0,0,0,52,35.57,3,3,0,0,1,49.63,40.8Z"/></g></svg>