<svg xmlns="http://www.w3.org/2000/svg" xmlns:xlink="http://www.w3.org/1999/xlink" viewBox="0 0 64 64"><defs><style>.cls-1{fill:url(#linear-gradient);}.cls-2{fill:#cba07a;}.cls-3{fill:url(#linear-gradient-2);}.cls-4{fill:#fce2d0;}</style><linearGradient id="linear-gradient" x1="17" y1="35" x2="63" y2="35" gradientUnits="userSpaceOnUse"><stop offset="0" stop-color="#d1a788"/><stop offset="1" stop-color="#f2d3b8"/></linearGradient><linearGradient id="linear-gradient-2" x1="18" y1="53" x2="18" y2="17" xlink:href="#linear-gradient"/></defs><title>Bread</title><g id="Bread"><path class="cls-1" d="M17,17H46c6,0,17,0,17,7,0,5-3,4-3,10V48a4.72,4.72,0,0,1-5,5H17Z"/><path class="cls-2" d="M60,46v2a4.72,4.72,0,0,1-5,5H17V51H55A4.72,4.72,0,0,0,60,46Z"/><path class="cls-3" d="M35,24c0,5-3,4-3,10V48a4.72,4.72,0,0,1-5,5H9a4.72,4.72,0,0,1-5-5V34c0-6-3-5-3-10,0-7,11-7,17-7S35,17,35,24Z"/><path class="cls-4" d="M9,51a2.73,2.73,0,0,1-3-3V34c0-6.51-3-6-3-10,0-4.39,7.21-5,15-5s15,.61,15,5c0,3.87-3,3.61-3,10V48a2.73,2.73,0,0,1-3,3Z"/><path class="cls-2" d="M48,32H38a1,1,0,0,1,0-2H48A1,1,0,0,1,48,32Z"/><path class="cls-2" d="M56,32H52a1,1,0,0,1,0-2h4A1,1,0,0,1,56,32Z"/></g></svg>