<svg xmlns="http://www.w3.org/2000/svg" xmlns:xlink="http://www.w3.org/1999/xlink" viewBox="0 0 64 64"><defs><style>.cls-1{fill:url(#linear-gradient);}.cls-2{fill:url(#linear-gradient-2);}.cls-3{fill:#7ece67;}.cls-4{fill:url(#linear-gradient-3);}.cls-5{fill:#cba07a;}.cls-6{fill:url(#linear-gradient-4);}.cls-7{fill:url(#linear-gradient-5);}.cls-8{fill:#e8677d;}.cls-9{fill:url(#linear-gradient-6);}.cls-10{fill:#fce2d0;}.cls-11{fill:#cf4055;}</style><linearGradient id="linear-gradient" x1="32" y1="19" x2="32" y2="0.99" gradientUnits="userSpaceOnUse"><stop offset="0" stop-color="#8cdd79"/><stop offset="1" stop-color="#d4e6b6"/></linearGradient><linearGradient id="linear-gradient-2" x1="31.82" x2="31.82" y2="6.99" xlink:href="#linear-gradient"/><linearGradient id="linear-gradient-3" x1="24" y1="60" x2="24" y2="14" gradientUnits="userSpaceOnUse"><stop offset="0" stop-color="#d1a788"/><stop offset="1" stop-color="#f2d3b8"/></linearGradient><linearGradient id="linear-gradient-4" x1="35" x2="35" xlink:href="#linear-gradient-3"/><linearGradient id="linear-gradient-5" x1="34.42" y1="16.29" x2="34.42" y2="5" gradientUnits="userSpaceOnUse"><stop offset="0" stop-color="#da5466"/><stop offset="1" stop-color="#f4929c"/></linearGradient><linearGradient id="linear-gradient-6" x1="28.46" y1="18.88" x2="28.46" y2="10" xlink:href="#linear-gradient-5"/></defs><title>Burrito</title><g id="Burrito"><path class="cls-1" d="M51,10a3.53,3.53,0,0,1-1.93,3.53c-.56.32.72,0-17.07,5.47L16,14a2.71,2.71,0,0,1-2-.86c-1.12-1.1-1.49-2.79-.11-3.62a2,2,0,0,0,.9-2.42,2.44,2.44,0,0,1,2.54-3.36,2,2,0,0,0,2.18-1.06,2.86,2.86,0,0,1,4.89-.56A1,1,0,0,0,26,2.18,2.63,2.63,0,0,1,28,1a3.69,3.69,0,0,1,2.11.52,2.13,2.13,0,0,0,2.3-.05,2.94,2.94,0,0,1,3.46.2,2,2,0,0,0,2.29.12A5,5,0,0,1,41,1c2.94,0,2.15,2.57,4.66,2.15a2.93,2.93,0,0,1,3.2,3.15A2.06,2.06,0,0,0,50,8.45,1.69,1.69,0,0,1,51,10Z"/><path class="cls-2" d="M49.07,13.53c-.56.32.72,0-17.07,5.47-22.2-6.95-16-4.73-17.09-5.22a2,2,0,0,0-.12-.68,2.44,2.44,0,0,1,2.54-3.36,2,2,0,0,0,2.18-1.06,2.86,2.86,0,0,1,4.89-.56A1,1,0,0,0,26,8.18,2.63,2.63,0,0,1,28,7a3.69,3.69,0,0,1,2.11.52,2.13,2.13,0,0,0,2.3,0,2.94,2.94,0,0,1,3.46.2,2,2,0,0,0,2.29.12A5,5,0,0,1,41,7c2.94,0,2.15,2.57,4.66,2.15A3,3,0,0,1,48.88,12,2.46,2.46,0,0,0,49.07,13.53Z"/><path class="cls-3" d="M49.07,13.53c-.56.32.72,0-17.07,5.47l-2.49-.78C35.41,13.66,41.74,12,48.88,12A2.46,2.46,0,0,0,49.07,13.53Z"/><path class="cls-3" d="M34,17.83v.55L32,19,16,14c-.24,0-1.09-.12-1.09-.23,0-.67-.36-1-.34-1.77C21.86,12,27,13,34,17.83Z"/><path class="cls-4" d="M32,18.88V55.12A28.09,28.09,0,0,1,16,60V14A28.06,28.06,0,0,1,32,18.88Z"/><path class="cls-5" d="M32,18.88V55.12c-.59.41-1.19.79-1.82,1.16-13.59-10.07-13.56-28.52,0-38.56C30.81,18.09,31.41,18.47,32,18.88Z"/><path class="cls-6" d="M48,14V60a28,28,0,0,1-16-4.88C12.62,41.72,23.29,14,48,14Z"/><path class="cls-5" d="M48,60c0,1.66-7.16,3-16,3s-16-1.34-16-3a28.09,28.09,0,0,0,16-4.88A28,28,0,0,0,48,60Z"/><path class="cls-7" d="M43,14c0,.93.25-.06-4.55,1.6-2.74.94-1.29,1.21-2.67-1.1a9,9,0,0,0-10-4.24A9,9,0,0,1,43,14Z"/><path class="cls-8" d="M38.45,15.6c-2.74.94-1.29,1.21-2.67-1.1a9,9,0,0,0-10-4.24A9,9,0,0,1,27.28,8,11,11,0,0,1,38.45,15.6Z"/><path class="cls-9" d="M36.59,16.33A27.1,27.1,0,0,0,32,18.88a27.49,27.49,0,0,0-11.68-4.56,8.88,8.88,0,0,1,5.5-4.06h0A9,9,0,0,1,36.59,16.33Z"/><path class="cls-10" d="M33,30a1,1,0,0,1-2,0A1,1,0,0,1,33,30Z"/><path class="cls-10" d="M31,42a1,1,0,0,1-2,0A1,1,0,0,1,31,42Z"/><path class="cls-10" d="M44,41a1,1,0,0,1-2,0A1,1,0,0,1,44,41Z"/><path class="cls-10" d="M44,25a1,1,0,0,1-2,0A1,1,0,0,1,44,25Z"/><path class="cls-10" d="M24,21a1,1,0,0,1-2,0A1,1,0,0,1,24,21Z"/><path class="cls-10" d="M21,52a1,1,0,0,1-2,0A1,1,0,0,1,21,52Z"/><path class="cls-10" d="M40,52a1,1,0,0,1-2,0A1,1,0,0,1,40,52Z"/><path class="cls-8" d="M33.84,17.72c-.64.36-1.25.75-1.84,1.16a27.49,27.49,0,0,0-11.68-4.56,8.86,8.86,0,0,1,1.43-1.79A29.53,29.53,0,0,1,33.84,17.72Z"/><path class="cls-11" d="M43,14.44a27.22,27.22,0,0,0-11,4.44c-.59-.41-1.19-.79-1.82-1.16a29.2,29.2,0,0,1,12.68-5.28A7.81,7.81,0,0,1,43,14.44Z"/></g></svg>