<svg xmlns="http://www.w3.org/2000/svg" xmlns:xlink="http://www.w3.org/1999/xlink" viewBox="0 0 64 64"><defs><style>.cls-1{fill:url(#linear-gradient);}.cls-2{fill:url(#linear-gradient-2);}.cls-3{fill:#8a6762;}.cls-4{fill:url(#linear-gradient-3);}.cls-5{fill:#e8677d;}.cls-6{fill:#ffd39f;}.cls-7{fill:url(#linear-gradient-4);}.cls-8{fill:#cf4055;}.cls-9{fill:#f6b756;}</style><linearGradient id="linear-gradient" x1="32" y1="30" x2="32" y2="1" gradientUnits="userSpaceOnUse"><stop offset="0" stop-color="#9b756d"/><stop offset="1" stop-color="#bc9388"/></linearGradient><linearGradient id="linear-gradient-2" x1="32" y1="63" x2="32" y2="19" gradientUnits="userSpaceOnUse"><stop offset="0" stop-color="#da5466"/><stop offset="1" stop-color="#f4929c"/></linearGradient><linearGradient id="linear-gradient-3" x1="32" y1="55" x2="32" y2="21.53" gradientUnits="userSpaceOnUse"><stop offset="0" stop-color="#fbcc88"/><stop offset="1" stop-color="#ffe5c3"/></linearGradient><linearGradient id="linear-gradient-4" x1="33" y1="42" x2="33" y2="17" gradientUnits="userSpaceOnUse"><stop offset="0" stop-color="#d4d8e1"/><stop offset="1" stop-color="#f3f4f5"/></linearGradient></defs><title>Chocolate</title><g id="Chocolate"><polyline class="cls-1" points="15 29.77 15 1 49 1 49 30"/><path class="cls-2" d="M50,19V63H14V32Z"/><rect class="cls-3" x="29" y="5" width="6" height="8"/><rect class="cls-3" x="39" y="5" width="6" height="8"/><path class="cls-3" d="M35,22.68V17H29c0,8.61,0,8,.06,8"/><rect class="cls-3" x="19" y="5" width="6" height="8"/><rect class="cls-3" x="19" y="17" width="6" height="8"/><polyline class="cls-3" points="39 20.69 39 17 45 17 45 18.38"/><path class="cls-4" d="M43,21.53V55H21V29.6C21.86,29.1,19.35,30.06,43,21.53Z"/><path class="cls-5" d="M21,29.6v7.93a6.76,6.76,0,0,1-2.07-1c-1.63,1.43-3.14,3.4-4.93,5V32C22.32,29,22.2,28.9,21,29.6Z"/><path class="cls-5" d="M50,19V29.46a13.81,13.81,0,0,1-5.83-2.13c-.33.17-.73.4-1.17.67V21.53Z"/><path class="cls-6" d="M43,21.53V28c-2.41,1.47-6,4.28-6,8v2c-2.57,0-5.27.44-8.81-4C26.44,36.53,24,38.32,21,37.53V29.6C21.86,29.1,19.35,30.06,43,21.53Z"/><path class="cls-7" d="M57,26a11.09,11.09,0,0,1-12.63-1S35,29,35,36c-4,0-7-6-7-6s-3.5,9.5-9,4c-3.37,2-6.66,8-10,8l1.51-9A3.53,3.53,0,0,1,14,30c9-1.87,28.46-10.73,36-13a4.6,4.6,0,0,1,4.22,2.74Z"/><rect class="cls-8" x="14" y="60" width="36" height="3"/><rect class="cls-9" x="21" y="52" width="22" height="3"/></g></svg>