<svg xmlns="http://www.w3.org/2000/svg" xmlns:xlink="http://www.w3.org/1999/xlink" viewBox="0 0 64 64"><defs><style>.cls-1{fill:url(#linear-gradient);}.cls-2{fill:#8a6762;}.cls-3{fill:url(#linear-gradient-2);}.cls-4{fill:url(#linear-gradient-3);}</style><linearGradient id="linear-gradient" x1="15.44" y1="29.17" x2="15.44" y2="3.72" gradientUnits="userSpaceOnUse"><stop offset="0" stop-color="#9b756d"/><stop offset="1" stop-color="#bc9388"/></linearGradient><linearGradient id="linear-gradient-2" x1="26.81" y1="63" x2="26.81" y2="5.43" gradientUnits="userSpaceOnUse"><stop offset="0" stop-color="#d1a788"/><stop offset="1" stop-color="#f2d3b8"/></linearGradient><linearGradient id="linear-gradient-3" x1="33.76" y1="51.54" x2="33.76" y2="1" xlink:href="#linear-gradient-2"/></defs><title>CHopstick</title><g id="CHopstick"><path class="cls-1" d="M28.17,12.2,19.69,3.72a74.6,74.6,0,0,1-17,17l8.48,8.48A75.33,75.33,0,0,1,28.17,12.2Z"/><path class="cls-2" d="M5,19l7.89,7.89c-1.1,1.4-1.71,2.29-1.71,2.29L2.72,20.69S3.61,20.08,5,19Z"/><polygon class="cls-3" points="52.61 59.23 48.35 63 1 7.69 3.56 5.43 52.61 59.23"/><polygon class="cls-4" points="63 47.2 59.32 51.54 4.52 3.6 6.73 1 63 47.2"/></g></svg>