<svg xmlns="http://www.w3.org/2000/svg" xmlns:xlink="http://www.w3.org/1999/xlink" viewBox="0 0 64 64"><defs><style>.cls-1{fill:url(#linear-gradient);}.cls-2{fill:url(#linear-gradient-2);}.cls-3{fill:url(#linear-gradient-3);}.cls-4{fill:url(#linear-gradient-4);}.cls-5{fill:url(#linear-gradient-5);}.cls-6{fill:url(#linear-gradient-6);}.cls-7{fill:#c7cdd8;}.cls-8{fill:url(#linear-gradient-7);}.cls-9{fill:url(#linear-gradient-8);}.cls-10{fill:url(#linear-gradient-9);}</style><linearGradient id="linear-gradient" x1="53" y1="63" x2="53" y2="34.01" gradientUnits="userSpaceOnUse"><stop offset="0" stop-color="#a0a6ba"/><stop offset="1" stop-color="#c6ccda"/></linearGradient><linearGradient id="linear-gradient-2" x1="38" x2="38" y2="22.87" xlink:href="#linear-gradient"/><linearGradient id="linear-gradient-3" y1="36.04" y2="22" xlink:href="#linear-gradient"/><linearGradient id="linear-gradient-4" x1="38" y1="25.05" x2="38" y2="5" xlink:href="#linear-gradient"/><linearGradient id="linear-gradient-5" x1="53" y1="36.04" x2="53" y2="22" gradientUnits="userSpaceOnUse"><stop offset="0" stop-color="#d4d8e1"/><stop offset="1" stop-color="#f3f4f5"/></linearGradient><linearGradient id="linear-gradient-6" x1="38" y1="25.05" x2="38" y2="5" xlink:href="#linear-gradient-5"/><linearGradient id="linear-gradient-7" x1="23" x2="23" y2="1" xlink:href="#linear-gradient"/><linearGradient id="linear-gradient-8" x1="11" x2="11" y2="5.01" xlink:href="#linear-gradient"/><linearGradient id="linear-gradient-9" x1="22.99" y1="31.21" x2="22.99" y2="1" xlink:href="#linear-gradient-5"/></defs><title>Clutery</title><g id="Clutery"><path class="cls-1" d="M56,58c0,4.64-2.3,5-3,5s-3-.36-3-5c0-3.06,2-11.19,2-17V35a1,1,0,0,1,2,0v6C54,46.81,56,55,56,58Z"/><path class="cls-2" d="M38,63c-6.18,0-1-14.06-1-27,0-8,.33-10.64-.86-11.26s-.26-2.66,1.28-1.54a.93.93,0,0,1,1.16,0c1.52-1.11,2.45.92,1.28,1.54S39,27.4,39,36C39,49,44.19,63,38,63Z"/><path class="cls-3" d="M58,30.08c0,7.94-10,7.94-10,0C48,26.21,50.24,22,53,22S58,26.21,58,30.08Z"/><path class="cls-4" d="M45,16.54c0,11.35-14,11.35-14,0C31,11,34.13,5,38,5S45,11,45,16.54Z"/><path class="cls-5" d="M58,30.08c0,7.94-10,7.94-10,0C48,26.21,50.24,22,53,22S58,26.21,58,30.08Z"/><path class="cls-6" d="M45,16.54c0,11.35-14,11.35-14,0C31,11,34.13,5,38,5S45,11,45,16.54Z"/><path class="cls-7" d="M48.06,29.05c.7,6.63,9.18,6.64,9.88,0C59,38.36,47,38.33,48.06,29.05Z"/><path class="cls-7" d="M31,15.54c.72,10,13.2,10,13.92,0C46.11,28.21,29.89,28.17,31,15.54Z"/><path class="cls-8" d="M27,1c-1.22,33.05-1,30.57-1,59,0,4.5-5,4-5-2,0-3.83,1.84-4.91,2-21.73A3.66,3.66,0,0,0,21,33c-1.59-.78-2.07-2.23-2-4C19.16,22.8,20.24,1,27,1Z"/><path class="cls-9" d="M14,6V19a1,1,0,0,1-1.87.49c-.19-.33-.13.7-.13-13.49a1,1,0,0,0-2,0c0,14.12.06,13.15-.13,13.5A1,1,0,0,1,8,19V6A1,1,0,0,0,6,6V21a4.94,4.94,0,0,0,2.83,4.48A2.59,2.59,0,0,1,10,28c0,10.41.2,11.23-1.25,21.75C7.81,56.7,6.93,63,11,63c3,0,3-2.91,3-6a64.44,64.44,0,0,0-.75-7.25C11.81,39.25,12,38.44,12,28a2.6,2.6,0,0,1,1.17-2.52A5,5,0,0,0,16,21V6A1,1,0,0,0,14,6Z"/><path class="cls-10" d="M27,1s-2-1-5,28c-.89,1.79-1.59,2-2.7,2.21A3.61,3.61,0,0,1,19,29.73C19,23.09,20.29,1,27,1Z"/></g></svg>