<svg id="Cocktail" xmlns="http://www.w3.org/2000/svg" xmlns:xlink="http://www.w3.org/1999/xlink" viewBox="0 0 64 64"><defs><style>.cls-1{fill:url(#linear-gradient);}.cls-2{fill:url(#linear-gradient-2);}.cls-3{fill:url(#linear-gradient-3);}.cls-4{fill:url(#linear-gradient-4);}.cls-5{fill:url(#linear-gradient-5);}.cls-6{fill:url(#linear-gradient-6);}</style><linearGradient id="linear-gradient" x1="19.01" y1="47.5" x2="44.99" y2="47.5" gradientUnits="userSpaceOnUse"><stop offset="0" stop-color="#9dd5df"/><stop offset="1" stop-color="#c3e1f5"/></linearGradient><linearGradient id="linear-gradient-2" x1="32" y1="34" x2="32" y2="8" xlink:href="#linear-gradient"/><linearGradient id="linear-gradient-3" x1="32" y1="30.82" x2="32" y2="14" gradientUnits="userSpaceOnUse"><stop offset="0" stop-color="#fbcc88"/><stop offset="1" stop-color="#ffe5c3"/></linearGradient><linearGradient id="linear-gradient-4" x1="30.45" y1="26" x2="30.45" y2="21.11" gradientUnits="userSpaceOnUse"><stop offset="0" stop-color="#d4d8e1"/><stop offset="1" stop-color="#f3f4f5"/></linearGradient><linearGradient id="linear-gradient-5" x1="44.57" y1="18.9" x2="44.57" y2="-0.01" xlink:href="#linear-gradient-4"/><linearGradient id="linear-gradient-6" x1="31" y1="20" x2="37" y2="20" gradientUnits="userSpaceOnUse"><stop offset="0" stop-color="#8cdd79"/><stop offset="1" stop-color="#d4e6b6"/></linearGradient></defs><title>Cocktail</title><path class="cls-1" d="M44,61H35a2,2,0,0,1-2-2V33a1,1,0,0,0-2,0V59a2,2,0,0,1-2,2H20a1,1,0,0,0,0,2H44A1,1,0,0,0,44,61Z"/><polygon class="cls-2" points="32 34 11 8 53 8 32 34"/><polygon class="cls-3" points="45.58 14 32 30.82 18.42 14 45.58 14"/><path class="cls-4" d="M29,26a1,1,0,0,1-.71-1.71l2.88-2.88a1,1,0,0,1,1.42,1.42C29.47,26,29.55,26,29,26Z"/><path class="cls-5" d="M36.12,18.88a1,1,0,0,1-.71-1.71L52.29.29a1,1,0,0,1,1.42,1.42C35.29,20.12,36.71,18.88,36.12,18.88Z"/><circle class="cls-6" cx="34" cy="20" r="3"/></svg>