<svg xmlns="http://www.w3.org/2000/svg" xmlns:xlink="http://www.w3.org/1999/xlink" viewBox="0 0 64 64"><defs><style>.cls-1{fill:url(#linear-gradient);}.cls-2{fill:#cba07a;}.cls-3{fill:url(#linear-gradient-2);}.cls-4{fill:url(#linear-gradient-3);}.cls-5{fill:url(#linear-gradient-5);}</style><linearGradient id="linear-gradient" x1="32" y1="49.99" x2="32" y2="31" gradientUnits="userSpaceOnUse"><stop offset="0" stop-color="#d1a788"/><stop offset="1" stop-color="#f2d3b8"/></linearGradient><linearGradient id="linear-gradient-2" x1="17.5" y1="45" x2="17.5" y2="23" xlink:href="#linear-gradient"/><linearGradient id="linear-gradient-3" y1="44" y2="16" xlink:href="#linear-gradient"/><linearGradient id="linear-gradient-5" x1="46.5" y1="45" x2="46.5" y2="23" xlink:href="#linear-gradient"/></defs><title>Croissant</title><g id="Croissant"><path class="cls-1" d="M63,44c0,1.65-.17,4-1.25,5.24A2.2,2.2,0,0,1,60.3,50c-3.19.32-6.12-6-13.28-6h-8.4C37,43.13,37,42,37,42a7.25,7.25,0,0,1-10,0s0,1.13-1.62,2H17C9.82,44,6.9,50.3,3.7,50a2.21,2.21,0,0,1-1.45-.74C1.17,48,1,45.65,1,44c0-8,7-13,7-13H56S63,36,63,44Z"/><path class="cls-2" d="M62.89,46c-.2,1.68-.73,3.63-2.39,3.93-2.79.93-6.2-6-13.48-6h-8.4C37,43.13,37,42,37,42a7.25,7.25,0,0,1-10,0s0,1.13-1.62,2H17C9.67,44,6.33,50.89,3.5,50,1.84,49.64,1.31,47.69,1.11,46a2.36,2.36,0,0,0,2,1c2.81,0,5.62-5,11.53-5.86,1.31-.2-.87-.14,32.87-.14,7.18,0,10.32,6,13.4,6A2.36,2.36,0,0,0,62.89,46Z"/><path class="cls-3" d="M27,42s0,1.13-1.62,2A11.36,11.36,0,0,1,20,45c-7,0-7-13-12-14,0-6,9-8,9-8C20.51,24.74,25.71,38.32,27,42Z"/><path class="cls-4" d="M47,23c-3.84,1.75-10,18.9-10,19a7.25,7.25,0,0,1-10,0c-1.27-3.6-6.49-17.26-10-19,1-5,6-7,15-7S46,18,47,23Z"/><path class="cls-4" d="M47,23c-3.84,1.75-10,18.9-10,19a7.25,7.25,0,0,1-10,0c-1.27-3.6-6.49-17.26-10-19,1-5,6-7,15-7S46,18,47,23Z"/><path class="cls-2" d="M44.56,22.54c-2.67,3.91-6,12-7.54,16.41a7.33,7.33,0,0,1-5,2,7.55,7.55,0,0,1-5-2C25.55,34.84,22,26.21,19.44,22.54A1.34,1.34,0,0,0,17,23c-.27.27.47-.52,2.86,3.23C22.17,29.69,27,41.65,27,41.9A7.3,7.3,0,0,0,32.47,44,7.88,7.88,0,0,0,37,42c1.17-3.51,6.67-17.34,10-19C47,22,45.31,21.44,44.56,22.54Z"/><path class="cls-5" d="M56,31c-5,1-5,14-12,14a11.36,11.36,0,0,1-5.38-1C37,43.13,37,42,37,42c.3-.6,6-17,10-19C47,23,56,25,56,31Z"/><path class="cls-2" d="M27,42s0,1.13-1.62,2A11.36,11.36,0,0,1,20,45c-7,0-7-13-12-14a1.54,1.54,0,0,1,2.85-.78c2.53,4,3.81,11.64,9.15,11.64,2,0,4.89-.26,6.33-1.69C26.5,40.6,26.85,41.57,27,42Z"/><path class="cls-2" d="M56,31c-5,1-5,14-12,14a11.36,11.36,0,0,1-5.38-1C37,43.13,37,42,37,42s.1-.33.58-1.58c.18-.49-.13-.19,1,.44a11.36,11.36,0,0,0,5.38,1c5.35,0,6.63-7.64,9.15-11.64A1.54,1.54,0,0,1,56,31Z"/></g></svg>