<svg xmlns="http://www.w3.org/2000/svg" xmlns:xlink="http://www.w3.org/1999/xlink" viewBox="0 0 64 64"><defs><style>.cls-1{fill:url(#linear-gradient);}.cls-2{fill:#cba07a;}.cls-3{fill:url(#linear-gradient-2);}.cls-4{fill:#f2b1d9;}.cls-5{fill:#d861b0;}.cls-6{fill:url(#linear-gradient-4);}.cls-7{fill:url(#linear-gradient-5);}.cls-8{fill:url(#linear-gradient-6);}.cls-9{fill:url(#linear-gradient-7);}.cls-10{fill:url(#linear-gradient-8);}.cls-11{fill:url(#linear-gradient-9);}.cls-12{fill:url(#linear-gradient-10);}.cls-13{fill:url(#linear-gradient-11);}.cls-14{fill:url(#linear-gradient-12);}.cls-15{fill:url(#linear-gradient-13);}.cls-16{fill:url(#linear-gradient-14);}.cls-17{fill:url(#linear-gradient-15);}.cls-18{fill:url(#linear-gradient-16);}.cls-19{fill:url(#linear-gradient-17);}.cls-20{fill:url(#linear-gradient-18);}.cls-21{fill:url(#linear-gradient-19);}.cls-22{fill:url(#linear-gradient-20);}.cls-23{fill:url(#linear-gradient-21);}.cls-24{fill:url(#linear-gradient-22);}</style><linearGradient id="linear-gradient" x1="32" y1="63" x2="32" y2="1" gradientUnits="userSpaceOnUse"><stop offset="0" stop-color="#d1a788"/><stop offset="1" stop-color="#f2d3b8"/></linearGradient><linearGradient id="linear-gradient-2" x1="32" y1="57" x2="32" y2="1" gradientUnits="userSpaceOnUse"><stop offset="0" stop-color="#d96bb0"/><stop offset="1" stop-color="#e49fc6"/></linearGradient><linearGradient id="linear-gradient-4" x1="33.01" y1="13" x2="36.99" y2="13" gradientUnits="userSpaceOnUse"><stop offset="0" stop-color="#e9a254"/><stop offset="1" stop-color="#f4bb79"/></linearGradient><linearGradient id="linear-gradient-5" x1="40" y1="18.5" x2="44" y2="18.5" xlink:href="#linear-gradient-4"/><linearGradient id="linear-gradient-6" x1="46" y1="24.49" x2="50" y2="24.49" xlink:href="#linear-gradient-4"/><linearGradient id="linear-gradient-7" x1="48.01" y1="32" x2="51.99" y2="32" xlink:href="#linear-gradient-4"/><linearGradient id="linear-gradient-8" x1="54" y1="27" x2="56" y2="27" xlink:href="#linear-gradient-4"/><linearGradient id="linear-gradient-9" x1="48" y1="17" x2="50" y2="17" xlink:href="#linear-gradient-4"/><linearGradient id="linear-gradient-10" x1="41.01" y1="10" x2="44.99" y2="10" xlink:href="#linear-gradient-4"/><linearGradient id="linear-gradient-11" x1="17" y1="23" x2="19" y2="23" xlink:href="#linear-gradient-4"/><linearGradient id="linear-gradient-12" x1="11" y1="20.5" x2="13" y2="20.5" xlink:href="#linear-gradient-4"/><linearGradient id="linear-gradient-13" x1="15.3" y1="40.31" x2="20.3" y2="40.31" xlink:href="#linear-gradient-4"/><linearGradient id="linear-gradient-14" x1="22.01" y1="46" x2="26.99" y2="46" xlink:href="#linear-gradient-4"/><linearGradient id="linear-gradient-15" x1="29.99" y1="48" x2="33" y2="48" xlink:href="#linear-gradient-4"/><linearGradient id="linear-gradient-16" x1="38" y1="46.5" x2="43" y2="46.5" xlink:href="#linear-gradient-4"/><linearGradient id="linear-gradient-17" x1="46.99" y1="38.99" x2="51" y2="38.99" xlink:href="#linear-gradient-4"/><linearGradient id="linear-gradient-18" x1="24.39" y1="16.58" x2="28.4" y2="16.58" xlink:href="#linear-gradient-4"/><linearGradient id="linear-gradient-19" x1="12.68" y1="32.1" x2="15.7" y2="32.1" xlink:href="#linear-gradient-4"/><linearGradient id="linear-gradient-20" x1="30" y1="6" x2="32" y2="6" xlink:href="#linear-gradient-4"/><linearGradient id="linear-gradient-21" x1="21.18" y1="9.05" x2="25.18" y2="9.05" xlink:href="#linear-gradient-4"/><linearGradient id="linear-gradient-22" x1="17.01" y1="15" x2="20.99" y2="15" xlink:href="#linear-gradient-4"/></defs><title>Donut</title><g id="Donut"><path class="cls-1" d="M32,1A31,31,0,1,0,63,32,31,31,0,0,0,32,1Zm0,20A11,11,0,1,1,21,32,11,11,0,0,1,32,21Z"/><path class="cls-2" d="M32,63C13.68,63,0,47.24,1,30.6A31,31,0,0,0,63,30.6C64.05,47.28,50.28,63,32,63Z"/><path class="cls-3" d="M57.06,20.28c-.6-2.26-.53-4.8-1.67-6.78s-3.42-3.21-5-4.84c-1-1-2.33-2.86-3.17-3.7A31.06,31.06,0,0,0,16.83,5c-.55.54.25.28-3.17,3.7C12,10.29,9.78,11.49,8.61,13.5S7.54,18,6.94,20.28,5,24.63,5,27s1.35,4.53,1.94,6.72.53,4.8,1.67,6.78,3.42,3.21,5.05,4.84c4,4,1.25,8.43,2.93,10.07A2,2,0,0,0,20,53.89v-1a1.6,1.6,0,0,1,2.31-1.43C24.22,52.45,24,52.69,24,55a2,2,0,0,0,.59,1.41A2,2,0,0,0,28,55a1.4,1.4,0,0,1,1.8-1.34c2.28.66,3.8.36,8.11-1.14A1.57,1.57,0,0,1,40,54a2,2,0,0,0,4,0V49a2,2,0,0,1,4,0v1a2,2,0,0,0,4,0c0-5.44,2.72-8.28,3.39-9.5,1.14-2,1.07-4.52,1.67-6.78S59,29.37,59,27,57.65,22.47,57.06,20.28ZM32,43A11,11,0,1,1,43,32,11,11,0,0,1,32,43Z"/><path class="cls-3" d="M57.06,20.28c-.6-2.26-.53-4.8-1.67-6.78s-3.42-3.21-5-4.84c-1-1-2.33-2.86-3.17-3.7A31.06,31.06,0,0,0,16.83,5c-.55.54.25.28-3.17,3.7C12,10.29,9.78,11.49,8.61,13.5S7.54,18,6.94,20.28,5,24.63,5,27s1.35,4.53,1.94,6.72.53,4.8,1.67,6.78,3.42,3.21,5.05,4.84c4,4,1.25,8.43,2.93,10.07A2,2,0,0,0,20,53.89v-1a1.6,1.6,0,0,1,2.31-1.43C24.22,52.45,24,52.69,24,55a2,2,0,0,0,.59,1.41A2,2,0,0,0,28,55a1.4,1.4,0,0,1,1.8-1.34c2.28.66,3.8.36,8.11-1.14A1.57,1.57,0,0,1,40,54a2,2,0,0,0,4,0V49a2,2,0,0,1,4,0v1a2,2,0,0,0,4,0c0-5.44,2.72-8.28,3.39-9.5,1.14-2,1.07-4.52,1.67-6.78S59,29.37,59,27,57.65,22.47,57.06,20.28ZM32,43A11,11,0,1,1,43,32,11,11,0,0,1,32,43Z"/><path class="cls-4" d="M57.06,20.28c-.6-2.26-.53-4.8-1.67-6.78s-3.42-3.21-5-4.84c-1-1-2.33-2.86-3.17-3.7A31.06,31.06,0,0,0,16.83,5c-.55.54.25.28-3.17,3.7C12,10.29,9.78,11.49,8.61,13.5S7.54,18,6.94,20.28C6.22,22.94,4.64,25.1,5.08,28c.29-2,1.35-3.84,1.86-5.72.6-2.26.53-4.8,1.67-6.78s3.42-3.21,5.05-4.84C17,7.33,16.32,7.49,16.82,7a31.14,31.14,0,0,1,5.84-2.54C26,3.9,26.7,3,32,3s6.25.94,9.34,1.43A27.25,27.25,0,0,1,47.18,7c1.12,1.16,2,2.57,3.16,3.69,1.63,1.63,3.88,2.83,5,4.84s1.07,4.52,1.67,6.78c.51,1.88,1.57,3.73,1.86,5.72C59.36,25.1,57.76,22.86,57.06,20.28Z"/><path class="cls-5" d="M43,33a11,11,0,0,1-21.9,0A11,11,0,1,0,43,33Z"/><path class="cls-6" d="M36,12H34a1,1,0,0,0,0,2h2A1,1,0,0,0,36,12Z"/><path class="cls-7" d="M43.45,18.11l-2-1a1,1,0,0,0-.9,1.78l2,1A1,1,0,0,0,43.45,18.11Z"/><path class="cls-8" d="M49,26a1,1,0,0,0,.45-1.89l-2-1a1,1,0,0,0-.9,1.78C48.75,26,48.68,26,49,26Z"/><path class="cls-9" d="M51,31H49a1,1,0,0,0,0,2h2A1,1,0,0,0,51,31Z"/><path class="cls-10" d="M54,26v2a1,1,0,0,0,2,0V26A1,1,0,0,0,54,26Z"/><path class="cls-11" d="M50,18V16a1,1,0,0,0-2,0v2A1,1,0,0,0,50,18Z"/><path class="cls-12" d="M44,9H42a1,1,0,0,0,0,2h2A1,1,0,0,0,44,9Z"/><path class="cls-13" d="M19,24V22a1,1,0,0,0-2,0v2A1,1,0,0,0,19,24Z"/><path class="cls-14" d="M13,22V19a1,1,0,0,0-2,0v3A1,1,0,0,0,13,22Z"/><path class="cls-15" d="M19.62,39.86l-3-1a1,1,0,0,0-.63,1.9l3,1A1,1,0,0,0,19.62,39.86Z"/><path class="cls-16" d="M26,45H23a1,1,0,0,0,0,2h3A1,1,0,0,0,26,45Z"/><path class="cls-17" d="M31.89,46.55a1,1,0,0,0-1.78.9c1,2,1.1,2.55,1.89,2.55a1,1,0,0,0,.89-1.45Z"/><path class="cls-18" d="M41.68,45.05l-3,1a1,1,0,0,0,.64,1.9l3-1A1,1,0,0,0,41.68,45.05Z"/><path class="cls-19" d="M48.71,37.29a1,1,0,0,0-1.42,1.42C49.47,40.89,49.46,41,50,41a1,1,0,0,0,.71-1.71Z"/><path class="cls-20" d="M27.84,16.19l-2-1A1,1,0,0,0,25,17l2,1A1,1,0,0,0,27.84,16.19Z"/><path class="cls-21" d="M15.59,32.66l-1-2a1,1,0,0,0-1.79.89l1,2A1,1,0,0,0,15.59,32.66Z"/><path class="cls-22" d="M32,7V5a1,1,0,0,0-2,0V7A1,1,0,0,0,32,7Z"/><path class="cls-23" d="M24.18,10.55a1,1,0,0,0,.45-1.89l-2-1a1,1,0,0,0-.9,1.79C23.93,10.54,23.86,10.55,24.18,10.55Z"/><path class="cls-24" d="M20,14H18a1,1,0,0,0,0,2h2A1,1,0,0,0,20,14Z"/></g></svg>