<svg xmlns="http://www.w3.org/2000/svg" xmlns:xlink="http://www.w3.org/1999/xlink" viewBox="0 0 64 64"><defs><style>.cls-1{fill:url(#linear-gradient);}.cls-2{fill:#ffabb7;}.cls-3{fill:#cf4055;}.cls-4{fill:url(#linear-gradient-3);}.cls-5{fill:url(#linear-gradient-4);}.cls-6{fill:url(#linear-gradient-5);}.cls-7{fill:url(#linear-gradient-6);}.cls-8{fill:url(#linear-gradient-7);}.cls-9{fill:url(#linear-gradient-8);}.cls-10{fill:url(#linear-gradient-9);}.cls-11{fill:url(#linear-gradient-10);}.cls-12{fill:url(#linear-gradient-11);}.cls-13{fill:url(#linear-gradient-12);}.cls-14{fill:url(#linear-gradient-13);}.cls-15{fill:#f6b756;}</style><linearGradient id="linear-gradient" x1="32" y1="63" x2="32" y2="23" gradientUnits="userSpaceOnUse"><stop offset="0" stop-color="#da5466"/><stop offset="1" stop-color="#f4929c"/></linearGradient><linearGradient id="linear-gradient-3" x1="28" y1="21" x2="34" y2="21" gradientUnits="userSpaceOnUse"><stop offset="0" stop-color="#e9a254"/><stop offset="1" stop-color="#f4bb79"/></linearGradient><linearGradient id="linear-gradient-4" x1="8.8" y1="16.98" x2="16.31" y2="16.98" xlink:href="#linear-gradient-3"/><linearGradient id="linear-gradient-5" x1="23" y1="19.38" x2="29" y2="19.38" xlink:href="#linear-gradient-3"/><linearGradient id="linear-gradient-6" x1="19" y1="16.35" x2="25" y2="16.35" xlink:href="#linear-gradient-3"/><linearGradient id="linear-gradient-7" x1="13" y1="13.5" x2="19" y2="13.5" xlink:href="#linear-gradient-3"/><linearGradient id="linear-gradient-8" x1="25" y1="7" x2="31" y2="7" xlink:href="#linear-gradient-3"/><linearGradient id="linear-gradient-9" x1="44" y1="14.5" x2="50" y2="14.5" xlink:href="#linear-gradient-3"/><linearGradient id="linear-gradient-10" x1="39" y1="19.11" x2="45" y2="19.11" xlink:href="#linear-gradient-3"/><linearGradient id="linear-gradient-11" x1="34" y1="16.47" x2="40" y2="16.47" xlink:href="#linear-gradient-3"/><linearGradient id="linear-gradient-12" x1="47.54" y1="16.54" x2="55.28" y2="16.54" xlink:href="#linear-gradient-3"/><linearGradient id="linear-gradient-13" x1="24" y1="45" x2="40" y2="45" gradientUnits="userSpaceOnUse"><stop offset="0" stop-color="#fbcc88"/><stop offset="1" stop-color="#ffe5c3"/></linearGradient></defs><title>Fried Fries</title><g id="Fried_Fries" data-name="Fried Fries"><path class="cls-1" d="M56,23,50,60l-3,3c-7.93-2.64-22.06-2.65-30,0l-3-3L8,23h7c3.45,4.11,13.64,7.68,24,5.23,5-1.14,8.63-3.6,10-5.23Z"/><path class="cls-1" d="M56,23,50,60l-3,3c-7.93-2.64-22.06-2.65-30,0l-3-3L8,23h7c3.45,4.11,13.64,7.68,24,5.23,5-1.14,8.63-3.6,10-5.23Z"/><path class="cls-2" d="M56,23l-.49,3H49c-5.13,6.11-20.35,8.31-30,3a15.84,15.84,0,0,1-4-3H8.49L8,23h7c3.45,4.11,13.64,7.68,24,5.23,5-1.14,8.63-3.6,10-5.23Z"/><path class="cls-3" d="M50.44,57.3,50,60l-3,3c-7.93-2.64-22.06-2.65-30,0l-3-3-.44-2.7L16.38,60c8.2-2.63,22.93-2.66,31.24,0Z"/><path class="cls-4" d="M34,13V28.94a33,33,0,0,1-6-.18V13Z"/><path class="cls-5" d="M16.31,24.22A10.36,10.36,0,0,1,15,23H10.14L8.8,10.38l6-.63Z"/><path class="cls-6" d="M29,10v3H28V28.76a27.47,27.47,0,0,1-5-1.07V10Z"/><path class="cls-7" d="M25,5v5H23V27.69A22.16,22.16,0,0,1,19,26V5Z"/><path class="cls-8" d="M19,1V26a17.57,17.57,0,0,1-2.69-1.78L14.77,9.75,13,9.94V1Z"/><polygon class="cls-9" points="31 1 31 13 29 13 29 10 25 10 25 1 31 1"/><path class="cls-10" d="M50,3V8.82l-.69-.08L47.54,24.33A17.46,17.46,0,0,1,45,26V10H44V3Z"/><path class="cls-11" d="M45,10V26a23.38,23.38,0,0,1-6,2.23V10Z"/><path class="cls-12" d="M40,4v6H39V28.23a28.37,28.37,0,0,1-5,.71V4Z"/><path class="cls-13" d="M55.28,9.41,53.74,23H49a10.36,10.36,0,0,1-1.46,1.33L49.31,8.74Z"/><circle class="cls-14" cx="32" cy="45" r="8"/><path class="cls-15" d="M32,53a8,8,0,0,1-7.94-9,8,8,0,0,0,15.88,0A8,8,0,0,1,32,53Z"/></g></svg>