<svg xmlns="http://www.w3.org/2000/svg" xmlns:xlink="http://www.w3.org/1999/xlink" viewBox="0 0 64 64"><defs><style>.cls-1{fill:url(#linear-gradient);}.cls-2{fill:url(#linear-gradient-2);}.cls-3{fill:url(#linear-gradient-3);}.cls-4{fill:#cba07a;}.cls-5{fill:url(#linear-gradient-4);}</style><linearGradient id="linear-gradient" x1="38.42" y1="50.15" x2="38.42" y2="1.01" gradientUnits="userSpaceOnUse"><stop offset="0" stop-color="#d1a788"/><stop offset="1" stop-color="#f2d3b8"/></linearGradient><linearGradient id="linear-gradient-2" x1="33.59" y1="57.24" x2="33.59" y2="3.58" gradientUnits="userSpaceOnUse"><stop offset="0" stop-color="#da5466"/><stop offset="1" stop-color="#f4929c"/></linearGradient><linearGradient id="linear-gradient-3" x1="26.74" y1="63.05" x2="26.74" y2="11.47" xlink:href="#linear-gradient"/><linearGradient id="linear-gradient-4" x1="35.65" y1="48.52" x2="35.65" y2="8.15" gradientUnits="userSpaceOnUse"><stop offset="0" stop-color="#e9a254"/><stop offset="1" stop-color="#f4bb79"/></linearGradient></defs><title>Hotdog</title><g id="Hotdog"><path class="cls-1" d="M60.38,50.15,31,32,13.85,3.62c2.33-3.06,6.84-3.94,11,.19s9.64,16.08,14.47,20.9,16.88,10.45,20.9,14.47S63.43,47.83,60.38,50.15Z"/><path class="cls-2" d="M52.33,57A6.5,6.5,0,0,0,57,45c-5.77-3.16-14.69-7.62-22.58-15.5S22.12,12.73,19,7A6.5,6.5,0,0,0,7,11.67L26,38Z"/><path class="cls-3" d="M15.17,48.83c-25.38-25.38-11-44.81-.8-34.57,4,4,9.64,16.08,14.47,20.9s16.88,10.45,20.9,14.47C60,59.86,40.58,74.24,15.17,48.83Z"/><path class="cls-4" d="M50.54,60.08c-2.41,2.42-15.27,8.85-35.37-11.25C3,36.68.56,27.17,1.06,21c.46,6.07,3.78,14.48,14.11,24.81,20.1,20.1,33,13.67,35.37,11.25a6.74,6.74,0,0,0,1.82-3.14A6.38,6.38,0,0,1,50.54,60.08Z"/><path class="cls-5" d="M54.82,48.52c-.58,0-.71-.49-2-.5a5.27,5.27,0,0,1-3.06-.93A6.93,6.93,0,0,1,48,45.32c-1.35-1.73-1.66-1.84-3.35-2.25-2.62-.64-3.23-1.16-4.55-3.14A4.34,4.34,0,0,0,37,37.54c-2.39-.81-3-1.32-4.22-3.66a4.35,4.35,0,0,0-2.65-2.65C27.78,30,27.27,29.4,26.46,27a4.34,4.34,0,0,0-2.39-3.09c-2-1.31-2.51-1.93-3.14-4.55-.41-1.72-.53-2-2.24-3.35a6.74,6.74,0,0,1-1.77-1.76c-1.55-2.59-.46-3-1.33-4.62A1,1,0,0,1,16,8.29c1.31-.69,2,1.41,2,2.89s.73,2.32,1.94,3.27c2.12,1.66,2.45,2.35,3,4.45s.69,2.29,2.3,3.36a6.17,6.17,0,0,1,3.17,4.1c.66,1.92.84,2.15,2.68,3.09A6.13,6.13,0,0,1,34.55,33c.94,1.84,1.16,2,3.08,2.67a6.2,6.2,0,0,1,4.11,3.18c1.08,1.62,1.31,1.81,3.36,2.31s2.79.83,4.46,3C50.51,45.3,51.25,46,52.83,46,56.72,46,56.15,48.52,54.82,48.52Z"/></g></svg>