<svg xmlns="http://www.w3.org/2000/svg" xmlns:xlink="http://www.w3.org/1999/xlink" viewBox="0 0 64 64"><defs><style>.cls-1{fill:#fce2d0;}.cls-2{fill:url(#linear-gradient);}.cls-3{fill:url(#linear-gradient-2);}.cls-4{fill:#cba07a;}.cls-5{fill:url(#linear-gradient-3);}.cls-6{fill:#c7cdd8;}.cls-7{fill:#e8c4a6;}</style><linearGradient id="linear-gradient" x1="32" y1="46" x2="32" y2="33" gradientUnits="userSpaceOnUse"><stop offset="0" stop-color="#d1a788"/><stop offset="1" stop-color="#f2d3b8"/></linearGradient><linearGradient id="linear-gradient-2" y1="63" y2="46" xlink:href="#linear-gradient"/><linearGradient id="linear-gradient-3" x1="31.85" y1="29" x2="31.85" y2="1" gradientUnits="userSpaceOnUse"><stop offset="0" stop-color="#d4d8e1"/><stop offset="1" stop-color="#f3f4f5"/></linearGradient></defs><title>Ice Cream</title><g id="Ice_Cream" data-name="Ice Cream"><path class="cls-1" d="M46,33H18a2,2,0,0,1,0-4H46A2,2,0,0,1,46,33Z"/><path class="cls-2" d="M46,33,44,46H20c-.48-3.14-1.46-9.5-2-13Z"/><path class="cls-3" d="M42.5,46c-.58,4-1.34,9.09-2.5,17H24c-1.23-8.36-1.93-13.06-2.5-17Z"/><polygon class="cls-4" points="40.44 60 40 63 24 63 23.56 60 40.44 60"/><path class="cls-5" d="M46,29H20c-5,0-5-10,2-10-4,0-4-7,3-7,2,0,6-1,6-6s-2-5-2-5,8.75,0,9.88,9A15.7,15.7,0,0,1,39,12c5.06,1,6,4.06,4,7C46.55,20.19,48.72,24.45,46,29Z"/><path class="cls-6" d="M34,19H22a2.58,2.58,0,0,1-2.61-2H34A1,1,0,0,1,34,19Z"/><path class="cls-6" d="M39,12H34a1,1,0,0,1,0-2h4.88A15.7,15.7,0,0,1,39,12Z"/><path class="cls-6" d="M43.88,17A5.63,5.63,0,0,1,43,19H38a1,1,0,0,1,0-2Z"/><polygon class="cls-7" points="46 33 45.69 35 18.31 35 18 33 46 33"/><polygon class="cls-7" points="42.5 46 42.21 48 21.79 48 21.5 46 42.5 46"/><path class="cls-6" d="M46.85,27.19A9.46,9.46,0,0,1,46,29H20a3.21,3.21,0,0,1-2.9-1.78A2,2,0,0,1,18,27C48.58,27,46.26,26.92,46.85,27.19Z"/></g></svg>