<svg xmlns="http://www.w3.org/2000/svg" xmlns:xlink="http://www.w3.org/1999/xlink" viewBox="0 0 64 64"><defs><style>.cls-1{fill:url(#linear-gradient);}.cls-2{fill:#8a6762;}.cls-3{fill:url(#linear-gradient-2);}.cls-4{fill:#f2b1d9;}.cls-5{fill:url(#linear-gradient-3);}.cls-6{fill:url(#linear-gradient-4);}.cls-7{fill:url(#linear-gradient-5);}.cls-8{fill:url(#linear-gradient-6);}.cls-9{fill:url(#linear-gradient-7);}.cls-10{fill:url(#linear-gradient-8);}.cls-11{fill:url(#linear-gradient-9);}.cls-12{fill:#e8c4a6;}</style><linearGradient id="linear-gradient" x1="32" y1="44" x2="32" y2="1" gradientUnits="userSpaceOnUse"><stop offset="0" stop-color="#9b756d"/><stop offset="1" stop-color="#bc9388"/></linearGradient><linearGradient id="linear-gradient-2" x1="32" y1="37" x2="32" y2="1" gradientUnits="userSpaceOnUse"><stop offset="0" stop-color="#d96bb0"/><stop offset="1" stop-color="#e49fc6"/></linearGradient><linearGradient id="linear-gradient-3" x1="32" y1="63" x2="32" y2="44" gradientUnits="userSpaceOnUse"><stop offset="0" stop-color="#d1a788"/><stop offset="1" stop-color="#f2d3b8"/></linearGradient><linearGradient id="linear-gradient-4" x1="23.99" y1="18" x2="27" y2="18" gradientUnits="userSpaceOnUse"><stop offset="0" stop-color="#fbcc88"/><stop offset="1" stop-color="#ffe5c3"/></linearGradient><linearGradient id="linear-gradient-5" x1="31.01" y1="15" x2="34.99" y2="15" xlink:href="#linear-gradient-4"/><linearGradient id="linear-gradient-6" x1="38" y1="9.49" x2="42" y2="9.49" xlink:href="#linear-gradient-4"/><linearGradient id="linear-gradient-7" x1="31" y1="7" x2="33" y2="7" xlink:href="#linear-gradient-4"/><linearGradient id="linear-gradient-8" x1="37" y1="20.49" x2="41" y2="20.49" xlink:href="#linear-gradient-4"/><linearGradient id="linear-gradient-9" x1="22" y1="10" x2="25.01" y2="10" xlink:href="#linear-gradient-4"/></defs><title>Stick Ice</title><g id="Stick_Ice" data-name="Stick Ice"><path class="cls-1" d="M42,44H22a4,4,0,0,1-4-4V15a14,14,0,0,1,28,0V40A4,4,0,0,1,42,44Z"/><path class="cls-2" d="M46,37v3a4,4,0,0,1-4,4H22a4,4,0,0,1-4-4V37a4,4,0,0,0,4,4H42A4,4,0,0,0,46,37Z"/><path class="cls-3" d="M18,15v7a5,5,0,0,1,5,5v4a3,3,0,0,0,6,0V27a3,3,0,0,1,6,0v7a3,3,0,0,0,6,0V32a5,5,0,0,1,5-5V15a14,14,0,0,0-28,0Z"/><path class="cls-4" d="M46,15v2a14,14,0,0,0-28,0V15a14,14,0,0,1,4.1-9.9C30.92-3.69,46,2.59,46,15Z"/><path class="cls-2" d="M23,29a5,5,0,0,0-5-5V22a5,5,0,0,1,3.54,1.46C23.28,25.22,23,27.09,23,29Z"/><path class="cls-2" d="M28.12,33.12A3,3,0,0,0,29,31v2a3,3,0,0,1-6,0V31A3,3,0,0,0,28.12,33.12Z"/><path class="cls-2" d="M40.12,36.12A3,3,0,0,0,41,34v2a3,3,0,0,1-6,0V34A3,3,0,0,0,40.12,36.12Z"/><path class="cls-2" d="M46,27v2a5,5,0,0,0-5,5V32A5,5,0,0,1,46,27Z"/><path class="cls-5" d="M32,63a3,3,0,0,1-3-3V44h6V60A3,3,0,0,1,32,63Z"/><path class="cls-6" d="M26,20c-.82,0-.94-.64-1.89-2.55a1,1,0,0,1,1.78-.9l1,2A1,1,0,0,1,26,20Z"/><path class="cls-7" d="M34,16H32a1,1,0,0,1,0-2h2A1,1,0,0,1,34,16Z"/><path class="cls-8" d="M41,11c-.31,0-.25,0-2.45-1.11a1,1,0,0,1,.9-1.78l2,1A1,1,0,0,1,41,11Z"/><path class="cls-9" d="M31,8V6a1,1,0,0,1,2,0V8A1,1,0,0,1,31,8Z"/><path class="cls-10" d="M40,22c-.31,0-.25,0-2.45-1.11a1,1,0,0,1,.9-1.78l2,1A1,1,0,0,1,40,22Z"/><path class="cls-11" d="M23,12a1,1,0,0,1-.89-1.45l1-2a1,1,0,0,1,1.78.9C23.9,11.43,23.79,12,23,12Z"/><rect class="cls-12" x="29" y="44" width="6" height="3"/></g></svg>