<svg xmlns="http://www.w3.org/2000/svg" xmlns:xlink="http://www.w3.org/1999/xlink" viewBox="0 0 64 64"><defs><style>.cls-1{fill:url(#linear-gradient);}.cls-2{fill:#42455e;}.cls-3{fill:url(#linear-gradient-2);}.cls-4{fill:url(#linear-gradient-3);}.cls-5{fill:url(#linear-gradient-6);}.cls-6{fill:url(#linear-gradient-7);}.cls-7{fill:url(#linear-gradient-8);}.cls-8{fill:#c7cdd8;}.cls-9{fill:url(#linear-gradient-10);}.cls-10{fill:url(#linear-gradient-11);}.cls-11{fill:url(#linear-gradient-12);}</style><linearGradient id="linear-gradient" x1="20.5" y1="39.5" x2="43.5" y2="16.5" gradientUnits="userSpaceOnUse"><stop offset="0" stop-color="#474f72"/><stop offset="1" stop-color="#878c9f"/></linearGradient><linearGradient id="linear-gradient-2" x1="4.05" y1="55.84" x2="28.95" y2="30.95" xlink:href="#linear-gradient"/><linearGradient id="linear-gradient-3" x1="35.05" y1="55.84" x2="59.95" y2="30.95" xlink:href="#linear-gradient"/><linearGradient id="linear-gradient-6" x1="16.5" y1="39" x2="16.5" y2="29" gradientUnits="userSpaceOnUse"><stop offset="0" stop-color="#d4d8e1"/><stop offset="1" stop-color="#f3f4f5"/></linearGradient><linearGradient id="linear-gradient-7" x1="16.5" y1="34.98" x2="16.5" y2="31.02" gradientUnits="userSpaceOnUse"><stop offset="0" stop-color="#da5466"/><stop offset="1" stop-color="#f4929c"/></linearGradient><linearGradient id="linear-gradient-8" x1="47.5" x2="47.5" xlink:href="#linear-gradient-6"/><linearGradient id="linear-gradient-10" x1="47.5" y1="34.98" x2="47.5" y2="31.02" xlink:href="#linear-gradient-7"/><linearGradient id="linear-gradient-11" x1="32" y1="25" x2="32" y2="15" xlink:href="#linear-gradient-6"/><linearGradient id="linear-gradient-12" x1="32" y1="20.98" x2="32" y2="17.02" xlink:href="#linear-gradient-7"/></defs><title>Kimbab</title><g id="Kimbab"><rect class="cls-1" x="17" y="20" width="30" height="16"/><path class="cls-2" d="M34,34c0,3.47-4.5,5.2-7.87,6H17V27C22.65,27.06,34,28.38,34,34Z"/><path class="cls-2" d="M47,27V40H37.87C34.51,39.2,30,37.47,30,34,30,28.39,41.32,27.06,47,27Z"/><path class="cls-3" d="M32,34V52c0,2.76-6.94,5-15.5,5S1,54.76,1,52V34"/><path class="cls-4" d="M63,34V52c0,2.76-6.94,5-15.5,5S32,54.76,32,52V34"/><path class="cls-3" d="M32,34V52c0,2.76-6.94,5-15.5,5S1,54.76,1,52V34"/><path class="cls-4" d="M63,34V52c0,2.76-6.94,5-15.5,5S32,54.76,32,52V34"/><path class="cls-2" d="M32,50v2c0,2.76-6.94,5-15.5,5S1,54.76,1,52V50c0,2.76,6.94,5,15.5,5S32,52.76,32,50Z"/><path class="cls-2" d="M63,50v2c0,2.76-6.94,5-15.5,5S32,54.76,32,52V50c0,2.76,6.94,5,15.5,5S63,52.76,63,50Z"/><path class="cls-2" d="M10,52a1,1,0,0,1-2,0A1,1,0,0,1,10,52Z"/><path class="cls-2" d="M6,49a1,1,0,0,1-2,0A1,1,0,0,1,6,49Z"/><path class="cls-2" d="M11,47a1,1,0,0,1-2,0A1,1,0,0,1,11,47Z"/><path class="cls-2" d="M41,51a1,1,0,0,1-2,0A1,1,0,0,1,41,51Z"/><path class="cls-2" d="M37,48a1,1,0,0,1-2,0A1,1,0,0,1,37,48Z"/><path class="cls-2" d="M42,46a1,1,0,0,1-2,0A1,1,0,0,1,42,46Z"/><ellipse class="cls-5" cx="16.5" cy="34" rx="15.5" ry="5"/><path class="cls-6" d="M25,33c0,2.64-17,2.64-17,0S25,30.36,25,33Z"/><ellipse class="cls-7" cx="47.5" cy="34" rx="15.5" ry="5"/><ellipse class="cls-7" cx="47.5" cy="34" rx="15.5" ry="5"/><path class="cls-8" d="M32,34c0,2.76-6.94,5-15.5,5S1,36.76,1,34a1.89,1.89,0,0,1,.31-1c3.33,5.31,27.05,5.31,30.38,0A1.89,1.89,0,0,1,32,34Z"/><path class="cls-8" d="M63,34c0,2.76-6.94,5-15.5,5S32,36.76,32,34a1.89,1.89,0,0,1,.31-1c3.33,5.31,27.05,5.31,30.38,0A1.89,1.89,0,0,1,63,34Z"/><path class="cls-9" d="M56,33c0,2.64-17,2.64-17,0S56,30.36,56,33Z"/><ellipse class="cls-10" cx="32" cy="20" rx="15" ry="5"/><path class="cls-8" d="M47,20c0,2.76-6.72,5-15,5s-15-2.24-15-5a2,2,0,0,1,.3-1c3.22,5.31,26.18,5.31,29.4,0A2,2,0,0,1,47,20Z"/><path class="cls-11" d="M40.23,19c0,2.64-16.46,2.64-16.46,0S40.23,16.36,40.23,19Z"/></g></svg>