<svg xmlns="http://www.w3.org/2000/svg" xmlns:xlink="http://www.w3.org/1999/xlink" viewBox="0 0 64 64"><defs><style>.cls-1{fill:url(#linear-gradient);}.cls-2{fill:#dfe3ea;}.cls-3{fill:#c7cdd8;}.cls-4{fill:url(#linear-gradient-2);}.cls-5{fill:#d861b0;}</style><linearGradient id="linear-gradient" x1="32" y1="63" x2="32" y2="38" gradientUnits="userSpaceOnUse"><stop offset="0" stop-color="#d4d8e1"/><stop offset="1" stop-color="#f3f4f5"/></linearGradient><linearGradient id="linear-gradient-2" x1="32" y1="39" x2="32" y2="1" gradientUnits="userSpaceOnUse"><stop offset="0" stop-color="#d96bb0"/><stop offset="1" stop-color="#e49fc6"/></linearGradient></defs><title>lollipop</title><g id="lollipop"><rect class="cls-1" x="30" y="38" width="4" height="25"/><rect class="cls-2" x="30" y="38" width="4" height="4"/><rect class="cls-3" x="30" y="59" width="4" height="4"/><circle class="cls-4" cx="32" cy="20" r="19"/><path class="cls-5" d="M32,39A19,19,0,0,1,13.06,18.5a19,19,0,0,0,37.88,0A19,19,0,0,1,32,39Z"/><path class="cls-5" d="M50.78,22.89A17.93,17.93,0,0,1,34.11,34.15,14.45,14.45,0,0,1,19.6,19.79,11.76,11.76,0,0,1,31.41,8.1a9.61,9.61,0,0,1,9.65,9.55,7.9,7.9,0,0,1-7.92,7.84A6.52,6.52,0,0,1,26.6,19,5.41,5.41,0,0,1,32,13.64a4.52,4.52,0,0,1,4.54,4.5,1,1,0,0,1-2,0A2.52,2.52,0,0,0,32,15.64,3.41,3.41,0,0,0,28.6,19a4.52,4.52,0,0,0,4.54,4.47,5.89,5.89,0,0,0,5.92-5.84,7.61,7.61,0,0,0-7.65-7.55,9.76,9.76,0,0,0-9.81,9.69A12.45,12.45,0,0,0,34.11,32.15,15.82,15.82,0,0,0,50,16.45a1,1,0,0,1,.48-.85A19.33,19.33,0,0,1,50.78,22.89Z"/></g></svg>