<svg xmlns="http://www.w3.org/2000/svg" xmlns:xlink="http://www.w3.org/1999/xlink" viewBox="0 0 64 64"><defs><style>.cls-1{fill:url(#linear-gradient);}.cls-2{fill:url(#linear-gradient-2);}.cls-3{fill:url(#linear-gradient-3);}.cls-4{fill:#5b8dc9;}.cls-5{fill:url(#linear-gradient-4);}.cls-6{fill:url(#linear-gradient-5);}.cls-7{fill:url(#linear-gradient-6);}.cls-8{fill:url(#linear-gradient-7);}.cls-9{fill:url(#linear-gradient-8);}.cls-10{fill:url(#linear-gradient-9);}.cls-11{fill:#77cacb;}.cls-12{fill:url(#linear-gradient-10);}.cls-13{fill:#c7cdd8;}</style><linearGradient id="linear-gradient" x1="-2.75" y1="58.25" x2="31.75" y2="23.75" gradientUnits="userSpaceOnUse"><stop offset="0" stop-color="#7aa8d7"/><stop offset="1" stop-color="#c3d2e7"/></linearGradient><linearGradient id="linear-gradient-2" x1="6.75" y1="23.75" x2="29.75" y2="0.75" xlink:href="#linear-gradient"/><linearGradient id="linear-gradient-3" x1="34" y1="63" x2="34" y2="19" xlink:href="#linear-gradient"/><linearGradient id="linear-gradient-4" x1="34" y1="19" x2="34" y2="5" xlink:href="#linear-gradient"/><linearGradient id="linear-gradient-5" x1="10" y1="3" x2="34" y2="3" xlink:href="#linear-gradient"/><linearGradient id="linear-gradient-6" x1="18" y1="15" x2="18" y2="9" gradientUnits="userSpaceOnUse"><stop offset="0" stop-color="#d4d8e1"/><stop offset="1" stop-color="#f3f4f5"/></linearGradient><linearGradient id="linear-gradient-7" x1="14.5" y1="53" x2="14.5" y2="28.08" xlink:href="#linear-gradient-6"/><linearGradient id="linear-gradient-8" x1="33.72" y1="53" x2="33.72" y2="46" xlink:href="#linear-gradient-6"/><linearGradient id="linear-gradient-9" x1="50.5" y1="63" x2="50.5" y2="27" gradientUnits="userSpaceOnUse"><stop offset="0" stop-color="#9dd5df"/><stop offset="1" stop-color="#c3e1f5"/></linearGradient><linearGradient id="linear-gradient-10" x1="50.5" y1="59" x2="50.5" y2="38" xlink:href="#linear-gradient-6"/></defs><title>Milk</title><g id="Milk"><rect class="cls-1" x="2" y="19" width="25" height="44"/><polygon class="cls-2" points="34 5 10 5 2 19 27 19 34 5"/><path class="cls-3" d="M41,63H27V19H41Z"/><rect class="cls-4" x="2" y="60" width="25" height="3"/><path class="cls-4" d="M41,62.86c0,.2,1.5.14-14,.14V60H41Z"/><polygon class="cls-5" points="34 5 27 19 41 19 34 5"/><path class="cls-6" d="M12,1H32a2,2,0,0,1,2,2V5a0,0,0,0,1,0,0H10a0,0,0,0,1,0,0V3A2,2,0,0,1,12,1Z"/><circle class="cls-7" cx="18" cy="12" r="3"/><path class="cls-8" d="M2,44c11,0,12,9,25,9V46C14,46,13,28.08,2,28.08Z"/><polyline class="cls-9" points="40.44 53 27 53 27 46 40.05 46"/><path class="cls-10" d="M57.16,63H43.84a3,3,0,0,1-3-2.83L39,27H62L60.16,60.17A3,3,0,0,1,57.16,63Z"/><path class="cls-11" d="M60.17,60a3,3,0,0,1-3,3H43.84a3,3,0,0,1-3-3,3.37,3.37,0,0,0,2.43,1C59,61,58.88,61.34,60.17,60Z"/><path class="cls-12" d="M59.39,38,58.33,57.11a2,2,0,0,1-2,1.89H44.67a2,2,0,0,1-2-1.89L41.61,38Z"/><path class="cls-12" d="M59.39,38,58.33,57.11a2,2,0,0,1-2,1.89H44.67a2,2,0,0,1-2-1.89L41.61,38Z"/><path class="cls-13" d="M58.38,56.27l-.05.84a2,2,0,0,1-2,1.89H44.67a2,2,0,0,1-2-1.89c-.11-1.83-.24-.11,1.6-.11C57.84,57,57.51,57.25,58.38,56.27Z"/></g></svg>