<svg xmlns="http://www.w3.org/2000/svg" xmlns:xlink="http://www.w3.org/1999/xlink" viewBox="0 0 64 64"><defs><style>.cls-1{fill:url(#linear-gradient);}.cls-2{fill:#77cacb;}.cls-3{fill:#d7f1ff;}.cls-4{fill:url(#linear-gradient-3);}.cls-5{fill:url(#linear-gradient-5);}.cls-6{fill:#c7cdd8;}.cls-7{fill:#aae0e5;}.cls-8{fill:url(#linear-gradient-6);}</style><linearGradient id="linear-gradient" x1="46.5" y1="63" x2="46.5" y2="27" gradientUnits="userSpaceOnUse"><stop offset="0" stop-color="#9dd5df"/><stop offset="1" stop-color="#c3e1f5"/></linearGradient><linearGradient id="linear-gradient-3" x1="18" x2="18" y2="7" xlink:href="#linear-gradient"/><linearGradient id="linear-gradient-5" x1="18" y1="7" x2="18" y2="1" gradientUnits="userSpaceOnUse"><stop offset="0" stop-color="#d4d8e1"/><stop offset="1" stop-color="#f3f4f5"/></linearGradient><linearGradient id="linear-gradient-6" y1="52" y2="36" xlink:href="#linear-gradient-5"/></defs><title>Mineral Water</title><g id="Mineral_Water" data-name="Mineral Water"><path class="cls-1" d="M53.16,63H39.84a3,3,0,0,1-3-2.83L35,27H58L56.16,60.17A3,3,0,0,1,53.16,63Z"/><path class="cls-1" d="M53.16,63H39.84a3,3,0,0,1-3-2.83L35,27H58L56.16,60.17A3,3,0,0,1,53.16,63Z"/><path class="cls-2" d="M56.15,60.24a3,3,0,0,1-3,2.76H39.84a3,3,0,0,1-3-2.76,2.93,2.93,0,0,0,2,.76C55.42,61,55,61.28,56.15,60.24Z"/><path class="cls-3" d="M55.39,38c-.15,2.65,0-.14-1.06,19a1.9,1.9,0,0,1-1.91,2H40.58a1.91,1.91,0,0,1-1.9-1.8c-.13-2.4-.82-14.71-1.07-19.2Z"/><path class="cls-4" d="M22,7V9s8,4,8,10c0,7-2,6-2,10,0,2,2,3,2,6V59a4,4,0,0,1-4,4H10a4,4,0,0,1-4-4V35c0-3,2-4,2-6,0-4-2-3-2-10,0-6,8-10,8-10V7Z"/><path class="cls-4" d="M22,7V9s8,4,8,10c0,7-2,6-2,10,0,2,2,3,2,6V59a4,4,0,0,1-4,4H10a4,4,0,0,1-4-4V35c0-3,2-4,2-6,0-4-2-3-2-10,0-6,8-10,8-10V7Z"/><path class="cls-2" d="M30,56v3a4,4,0,0,1-4,4H10a4,4,0,0,1-4-4V56a4,4,0,0,0,4,4H26A4,4,0,0,0,30,56Z"/><rect class="cls-5" x="13" y="1" width="10" height="6"/><rect class="cls-6" x="13" y="5" width="10" height="2"/><rect class="cls-7" x="14" y="7" width="8" height="2"/><rect class="cls-8" x="6" y="36" width="24" height="16"/><rect class="cls-6" x="6" y="49" width="24" height="3"/></g></svg>