<svg xmlns="http://www.w3.org/2000/svg" xmlns:xlink="http://www.w3.org/1999/xlink" viewBox="0 0 64 64"><defs><style>.cls-1{fill:url(#linear-gradient);}.cls-2{fill:url(#linear-gradient-2);}.cls-3{fill:#f6b756;}.cls-4{fill:url(#linear-gradient-3);}.cls-5{fill:#dd8b37;}.cls-6{fill:url(#linear-gradient-5);}.cls-7{fill:#cf4055;}.cls-8{fill:#c7cdd8;}.cls-9{fill:url(#linear-gradient-7);}</style><linearGradient id="linear-gradient" x1="29.08" y1="30" x2="29.08" y2="8.87" gradientUnits="userSpaceOnUse"><stop offset="0" stop-color="#d4d8e1"/><stop offset="1" stop-color="#f3f4f5"/></linearGradient><linearGradient id="linear-gradient-2" x1="32" y1="63" x2="32" y2="41" gradientUnits="userSpaceOnUse"><stop offset="0" stop-color="#fbcc88"/><stop offset="1" stop-color="#ffe5c3"/></linearGradient><linearGradient id="linear-gradient-3" x1="32" y1="63" x2="32" y2="41" gradientUnits="userSpaceOnUse"><stop offset="0" stop-color="#e9a254"/><stop offset="1" stop-color="#f4bb79"/></linearGradient><linearGradient id="linear-gradient-5" x1="32" y1="22" x2="32" y2="10" gradientUnits="userSpaceOnUse"><stop offset="0" stop-color="#da5466"/><stop offset="1" stop-color="#f4929c"/></linearGradient><linearGradient id="linear-gradient-7" x1="32" y1="41" x2="32" y2="26" xlink:href="#linear-gradient"/></defs><title>muffin</title><g id="muffin"><path class="cls-1" d="M45,26l-1,4L19,29c-8.58,0-6.94-7.52,0-11,4-2,5-9,1-9,4.44-.44,7.14.3,9.36,1.62L37.91,17C42,18.78,45,21.56,45,26Z"/><path class="cls-2" d="M54,41c-6.82,25-5,18.14-6,22H16c-1.12-4.09,0-.06-6-22Z"/><polygon class="cls-3" points="48.82 60 48 63 16 63 15.18 60 48.82 60"/><path class="cls-4" d="M46,41c-3.78,21.75-3.11,17.9-3.82,22H21.82c-.73-4.19-.08-.49-3.82-22Z"/><polygon class="cls-5" points="28.36 63 21.82 63 21.3 60 28.17 60 28.36 63"/><polygon class="cls-5" points="42.7 60 42.18 63 35.64 63 35.83 60 42.7 60"/><path class="cls-2" d="M37,41c-1.54,25-1.12,18.15-1.36,22H28.36c-.26-4.09,0-.07-1.36-22Z"/><circle class="cls-6" cx="32" cy="16" r="6"/><circle class="cls-6" cx="32" cy="16" r="6"/><path class="cls-7" d="M32,22a6,6,0,0,1-5.91-7c1.1,6.64,10.72,6.63,11.82,0A6,6,0,0,1,32,22Z"/><path class="cls-7" d="M31,12c0-.1.14-8.86,11.82-11a1,1,0,0,1,.36,2C33.17,4.8,33,11.67,33,12A1,1,0,0,1,31,12Z"/><path class="cls-8" d="M44,30c-27.38-1.1-28.29-.65-30-2.64A12.13,12.13,0,0,1,17,27c6.29,0,24.56,1.37,26-1.07L44.78,24C45.21,25.9,45,25.89,44,30Z"/><path class="cls-9" d="M54,35c0,3.68-2,6-6,6H15.13C11.82,41,10,38.18,10,35s1.92-6,7-6c10,0,28,2,28-3C49.43,26,54,30.35,54,35Z"/><path class="cls-8" d="M53.42,38c-.74,1.63-2.3,3-5.42,3H15.13a4.75,4.75,0,0,1-4.53-3Z"/><polygon class="cls-3" points="35.83 60 35.64 63 28.36 63 28.17 60 35.83 60"/></g></svg>