<svg xmlns="http://www.w3.org/2000/svg" xmlns:xlink="http://www.w3.org/1999/xlink" viewBox="0 0 64 64"><defs><style>.cls-1{fill:url(#linear-gradient);}.cls-2{fill:#c7cdd8;}.cls-3{fill:none;stroke:#231f20;stroke-linecap:round;stroke-linejoin:round;stroke-width:2px;}.cls-4{fill:url(#linear-gradient-3);}.cls-5{fill:#42455e;}.cls-6{fill:url(#linear-gradient-4);}.cls-7{fill:#cba07a;}.cls-8{fill:url(#linear-gradient-5);}.cls-9{fill:url(#linear-gradient-6);}</style><linearGradient id="linear-gradient" x1="32" y1="43.77" x2="32" y2="8" gradientUnits="userSpaceOnUse"><stop offset="0" stop-color="#d4d8e1"/><stop offset="1" stop-color="#f3f4f5"/></linearGradient><linearGradient id="linear-gradient-3" x1="32" y1="44" x2="32" y2="26" gradientUnits="userSpaceOnUse"><stop offset="0" stop-color="#474f72"/><stop offset="1" stop-color="#878c9f"/></linearGradient><linearGradient id="linear-gradient-4" x1="32" y1="50" x2="32" y2="44" gradientUnits="userSpaceOnUse"><stop offset="0" stop-color="#d1a788"/><stop offset="1" stop-color="#f2d3b8"/></linearGradient><linearGradient id="linear-gradient-5" x1="9" y1="56" x2="9" y2="50" xlink:href="#linear-gradient-4"/><linearGradient id="linear-gradient-6" x1="55" y1="56" x2="55" y2="50" xlink:href="#linear-gradient-4"/></defs><title>Onigiri</title><g id="Onigiri"><path class="cls-1" d="M24,43.77c-5.93-.57-11-2.58-11-9.64C13,24.19,24,8,32,8S51,24.19,51,34.13c0,7.06-5.07,9.07-11,9.64Z"/><path class="cls-1" d="M24,43.77c-5.93-.57-11-2.58-11-9.64C13,24.19,24,8,32,8S51,24.19,51,34.13c0,7.06-5.07,9.07-11,9.64Z"/><path class="cls-2" d="M40,43.77H24c-7.24-.7-11.72-3.64-10.93-11C13.7,38.69,18.48,40.47,24,41H40c5.52-.53,10.3-2.31,10.93-8.25C51.72,40.15,47.21,43.08,40,43.77Z"/><line class="cls-3" x1="32.41" y1="44" x2="31.59" y2="44"/><rect class="cls-4" x="24" y="26" width="16" height="18"/><rect class="cls-5" x="24" y="41" width="16" height="3"/><path class="cls-2" d="M18,36a1,1,0,0,1-2,0A1,1,0,0,1,18,36Z"/><path class="cls-2" d="M21,33a1,1,0,0,1-2,0A1,1,0,0,1,21,33Z"/><path class="cls-2" d="M21,39a1,1,0,0,1-2,0A1,1,0,0,1,21,39Z"/><rect class="cls-6" x="1" y="44" width="62" height="6"/><rect class="cls-7" x="1" y="48" width="62" height="2"/><rect class="cls-8" x="5" y="50" width="8" height="6"/><rect class="cls-9" x="51" y="50" width="8" height="6"/><rect class="cls-7" x="5" y="54" width="8" height="2"/><rect class="cls-7" x="51" y="54" width="8" height="2"/></g></svg>