<svg xmlns="http://www.w3.org/2000/svg" xmlns:xlink="http://www.w3.org/1999/xlink" viewBox="0 0 64 64"><defs><style>.cls-1{fill:url(#linear-gradient);}.cls-2{fill:#8288a1;}.cls-3{fill:url(#linear-gradient-3);}.cls-4{fill:#cba07a;}</style><linearGradient id="linear-gradient" x1="32" y1="47" x2="32" y2="33.08" gradientUnits="userSpaceOnUse"><stop offset="0" stop-color="#a0a6ba"/><stop offset="1" stop-color="#c6ccda"/></linearGradient><linearGradient id="linear-gradient-3" x1="32" y1="38" x2="32" y2="17" gradientUnits="userSpaceOnUse"><stop offset="0" stop-color="#d1a788"/><stop offset="1" stop-color="#f2d3b8"/></linearGradient></defs><title>Pie</title><g id="Pie"><path class="cls-1" d="M6.09,33.08l4,11.25A4,4,0,0,0,13.83,47H50.17a4,4,0,0,0,3.77-2.67l4-11.25Z"/><path class="cls-1" d="M6.09,33.08l4,11.25A4,4,0,0,0,13.83,47H50.17a4,4,0,0,0,3.77-2.67l4-11.25Z"/><path class="cls-2" d="M53.94,44.33A4,4,0,0,1,50.17,47H13.83a4,4,0,0,1-3.77-2.67c-4.51-12.78-5.55-15.89-1-3A4,4,0,0,0,12.83,44H51.17a4,4,0,0,0,3.77-2.67C59.45,28.54,58.49,31.43,53.94,44.33Z"/><path class="cls-3" d="M63,30c0,2-2,3-5,3-2,2-7,3-12,2-3,3-9,3-14,3s-11,0-14-3c-5,1-10,0-12-2-3,0-5-1-5-3s5-3,5-3S20,17,32,17,58,27,58,27,63,28,63,30Z"/><path class="cls-4" d="M58,33c-2,2-7,3-12,2-3,3-9,3-14,3s-11,0-14-3c-5,1-10,0-12-2-5,0-5.89-2.91-4.29-4.25A6.13,6.13,0,0,0,6,30c2,2,7,3,12,2,3,3,9,3,14,3s11,0,14-3c5,1,10,0,12-2a6.13,6.13,0,0,0,4.29-1.25C63.89,30.09,63,33,58,33Z"/><path class="cls-4" d="M34,27.67c.12,4.21-7.54,2.77-2-4.67C32,23,33.93,25.59,34,27.67Z"/><path class="cls-4" d="M42.32,24.51c2.2,3.59-5.15,6.17-4.07-3C38.25,21.47,41.22,22.75,42.32,24.51Z"/><path class="cls-4" d="M21.57,24.51c-2.2,3.59,5.15,6.17,4.07-3C25.64,21.47,22.67,22.75,21.57,24.51Z"/></g></svg>