<svg xmlns="http://www.w3.org/2000/svg" xmlns:xlink="http://www.w3.org/1999/xlink" viewBox="0 0 64 64"><defs><style>.cls-1{fill:url(#linear-gradient);}.cls-2{fill:url(#linear-gradient-2);}.cls-3{fill:url(#linear-gradient-3);}.cls-4{fill:url(#linear-gradient-4);}.cls-5{fill:url(#linear-gradient-5);}.cls-6{fill:url(#linear-gradient-6);}.cls-7{fill:url(#linear-gradient-7);}.cls-8{fill:url(#linear-gradient-8);}.cls-9{fill:url(#linear-gradient-9);}.cls-10{fill:url(#linear-gradient-10);}.cls-11{fill:url(#linear-gradient-11);}.cls-12{fill:url(#linear-gradient-12);}.cls-13{fill:url(#linear-gradient-13);}.cls-14{fill:#cf4055;}.cls-15{fill:url(#linear-gradient-15);}.cls-16{fill:#e8677d;}.cls-17{fill:url(#linear-gradient-16);}.cls-18{fill:#c7cdd8;}.cls-19{fill:url(#linear-gradient-17);}.cls-20{fill:#dd8b37;}</style><linearGradient id="linear-gradient" x1="28.32" y1="34" x2="28.32" y2="26" gradientUnits="userSpaceOnUse"><stop offset="0" stop-color="#e9a254"/><stop offset="1" stop-color="#f4bb79"/></linearGradient><linearGradient id="linear-gradient-2" x1="27.3" y1="35" x2="27.3" y2="28.97" gradientUnits="userSpaceOnUse"><stop offset="0" stop-color="#fbcc88"/><stop offset="1" stop-color="#ffe5c3"/></linearGradient><linearGradient id="linear-gradient-3" x1="28.15" y1="28.5" x2="52" y2="28.5" xlink:href="#linear-gradient"/><linearGradient id="linear-gradient-4" x1="41.14" x2="41.14" y2="25" xlink:href="#linear-gradient-2"/><linearGradient id="linear-gradient-5" x1="41.6" x2="41.6" y2="29" xlink:href="#linear-gradient-2"/><linearGradient id="linear-gradient-6" x1="39" y1="10" x2="39" y2="6" gradientUnits="userSpaceOnUse"><stop offset="0" stop-color="#d1a788"/><stop offset="1" stop-color="#f2d3b8"/></linearGradient><linearGradient id="linear-gradient-7" y1="6" y2="2" xlink:href="#linear-gradient-6"/><linearGradient id="linear-gradient-8" x1="16.5" y1="20" x2="16.5" y2="1.01" xlink:href="#linear-gradient-2"/><linearGradient id="linear-gradient-9" x1="23" y1="26.99" x2="23" y2="1.01" xlink:href="#linear-gradient-2"/><linearGradient id="linear-gradient-10" x1="27" y1="26.99" x2="27" y2="1.01" xlink:href="#linear-gradient-2"/><linearGradient id="linear-gradient-11" x1="31" y1="24.6" x2="31" y2="1.01" xlink:href="#linear-gradient-2"/><linearGradient id="linear-gradient-12" x1="28.33" x2="28.33" y2="25" xlink:href="#linear-gradient-2"/><linearGradient id="linear-gradient-13" x1="40.07" y1="34.99" x2="40.07" y2="22" xlink:href="#linear-gradient-2"/><linearGradient id="linear-gradient-15" x1="28" y1="58" x2="28" y2="34" gradientUnits="userSpaceOnUse"><stop offset="0" stop-color="#da5466"/><stop offset="1" stop-color="#f4929c"/></linearGradient><linearGradient id="linear-gradient-16" x1="14.27" y1="34" x2="14.27" y2="21.99" gradientUnits="userSpaceOnUse"><stop offset="0" stop-color="#d4d8e1"/><stop offset="1" stop-color="#f3f4f5"/></linearGradient><linearGradient id="linear-gradient-17" x1="14" x2="14" y2="28.93" xlink:href="#linear-gradient"/></defs><title>Ramen</title><g id="Ramen"><path class="cls-1" d="M36,34H23.81a12.11,12.11,0,0,0-3.18-6.74C27.14,23.9,36,27.62,36,34Z"/><path class="cls-2" d="M32,35a1,1,0,0,1-1-1c0-1-3.34-3.49-8.31-2.94a1,1,0,0,1-.22-2C31.8,28.05,34.84,35,32,35Z"/><path class="cls-3" d="M52,34H36c0-3.83-3.36-7-7.85-7.81C36.86,19.38,52,24.17,52,34Z"/><path class="cls-4" d="M50,35a1,1,0,0,1-1-1c0-2.79-4-7-10.1-7-5.4,0-6.52,2.91-7.5,1.28a1,1,0,0,1,.35-1.37A13.88,13.88,0,0,1,38.9,25C49.41,25,53,35,50,35Z"/><path class="cls-5" d="M48,35a1,1,0,0,1-1-1c0-1.93-6.46-4.27-11.4-2.19A1,1,0,0,1,34.82,30,13.32,13.32,0,0,1,40,29C48.57,29,50.47,35,48,35Z"/><polygon class="cls-6" points="63 10 15 9 15 6 63 6 63 10"/><polygon class="cls-7" points="63 2 15 3 15 6 63 6 63 2"/><path class="cls-8" d="M14,20a1,1,0,0,1,0-2,4,4,0,0,0,4-4V2a1,1,0,0,1,2,0V14A6,6,0,0,1,14,20Z"/><path class="cls-9" d="M22,26V2a1,1,0,0,1,2,0V26A1,1,0,0,1,22,26Z"/><path class="cls-10" d="M26,26V2a1,1,0,0,1,2,0V26A1,1,0,0,1,26,26Z"/><path class="cls-11" d="M30,23.61V2a1,1,0,0,1,2,0V23.61A1,1,0,0,1,30,23.61Z"/><path class="cls-12" d="M36,35a1,1,0,0,1-1-1c0-5.58-8-8.89-13.91-5.85a1,1,0,0,1-.92-1.78A12.74,12.74,0,0,1,26,25C36,25,38.82,35,36,35Z"/><path class="cls-13" d="M51,34c0-8.9-14.12-13.36-22.23-7a1,1,0,0,1-1.24-1.58C36.9,18.08,53,23.34,53,34A1,1,0,0,1,51,34Z"/><path class="cls-13" d="M51,34c0-8.9-14.12-13.36-22.23-7a1,1,0,0,1-1.24-1.58C36.9,18.08,53,23.34,53,34A1,1,0,0,1,51,34Z"/><polyline class="cls-14" points="39 56.59 39 63 17 63 17 56.59"/><path class="cls-15" d="M55,34c0,5.28-.63,7-1.9,10.15C49.41,52.29,40.7,58,30.55,58h-5.1C11.66,58,1,47.62,1,35.43V34Z"/><path class="cls-16" d="M54.49,40a19.57,19.57,0,0,1-1.33,4H2.84a19.57,19.57,0,0,1-1.33-4Z"/><path class="cls-17" d="M23.81,34H5.08C4.14,29.39,5,24.45,8.23,22.68,13.84,19.59,23.3,27.43,23.81,34Z"/><path class="cls-18" d="M23.81,34H5.08a19.66,19.66,0,0,1-.29-2H23.41A8.65,8.65,0,0,1,23.81,34Z"/><path class="cls-19" d="M19,34A5,5,0,1,0,9,34Z"/><path class="cls-20" d="M19,34H9a5,5,0,0,1,.38-2h9.23A5,5,0,0,1,19,34Z"/></g></svg>