<svg xmlns="http://www.w3.org/2000/svg" xmlns:xlink="http://www.w3.org/1999/xlink" viewBox="0 0 64 64"><defs><style>.cls-1{fill:url(#linear-gradient);}.cls-2{fill:#c7cdd8;}.cls-3{fill:url(#linear-gradient-2);}.cls-4{fill:url(#linear-gradient-3);}.cls-5{fill:url(#linear-gradient-4);}.cls-6{fill:#cba07a;}.cls-7{fill:url(#linear-gradient-5);}.cls-8{fill:url(#linear-gradient-6);}.cls-9{fill:#cf4055;}</style><linearGradient id="linear-gradient" x1="32" y1="63" x2="32" y2="1" gradientUnits="userSpaceOnUse"><stop offset="0" stop-color="#d4d8e1"/><stop offset="1" stop-color="#f3f4f5"/></linearGradient><linearGradient id="linear-gradient-2" x1="19.79" y1="37" x2="19.79" y2="23.01" gradientUnits="userSpaceOnUse"><stop offset="0" stop-color="#da5466"/><stop offset="1" stop-color="#f4929c"/></linearGradient><linearGradient id="linear-gradient-3" x1="39" y1="50" x2="39" y2="14" gradientUnits="userSpaceOnUse"><stop offset="0" stop-color="#d1a788"/><stop offset="1" stop-color="#f2d3b8"/></linearGradient><linearGradient id="linear-gradient-4" x1="22" y1="18.98" x2="33.24" y2="18.98" gradientUnits="userSpaceOnUse"><stop offset="0" stop-color="#fbcc88"/><stop offset="1" stop-color="#ffe5c3"/></linearGradient><linearGradient id="linear-gradient-5" y1="30" y2="11.01" xlink:href="#linear-gradient-3"/><linearGradient id="linear-gradient-6" x1="22.52" y1="35.87" x2="22.52" y2="45.18" gradientUnits="userSpaceOnUse"><stop offset="0" stop-color="#6ab891"/><stop offset="1" stop-color="#85cba9"/></linearGradient></defs><title>Salmon Steak</title><g id="Salmon_Steak" data-name="Salmon Steak"><circle class="cls-1" cx="32" cy="32" r="31"/><circle class="cls-2" cx="32" cy="32" r="19"/><path class="cls-3" d="M26.61,27.7a7,7,0,1,0-.6,5.89Z"/><path class="cls-4" d="M52,34c0,7.79-4,16-9,16-1.84,0-.73-3.32,0-5,3-7-1-15-4-15s-7,8-4,15c1.22,2.84,1.47,5,0,5-5,0-9-8.21-9-16,0-12.43,6.4-19.38,12.21-20A7.09,7.09,0,0,1,39,14C45,14,52,21,52,34Z"/><path class="cls-5" d="M33.24,16.08A6,6,0,0,0,28,13a5.87,5.87,0,0,0-4.46,2,6,6,0,0,0,3.78,10Z"/><path class="cls-6" d="M35.86,47.5C36.2,49,36,50,35,50c-5,0-9-8.21-9-16,0-.37,0-.74,0-1.1.29,7.51,4.17,15.1,9,15.1A.88.88,0,0,0,35.86,47.5Z"/><path class="cls-6" d="M44,38.68C43.69,33.93,41.1,30,39,30s-4.69,3.93-5,8.68C33.59,33.07,36.61,28,39,28S44.41,33.07,44,38.68Z"/><path class="cls-6" d="M52,34c0,7.79-4,16-9,16-1.17,0-1.11-1.36-.85-2.5A.85.85,0,0,0,43,48c4.81,0,8.69-7.6,9-15.11C52,33.25,52,33.62,52,34Z"/><path class="cls-7" d="M40,26.25c.08-.29,0,1,0-14.25a1,1,0,0,0-2,0c0,15.24,0,14,0,14.25a2,2,0,1,0,1.9,0Z"/><path class="cls-8" d="M26.08,35.87c-2.68.08-7.32,1.36-8.06,9A.77.77,0,0,0,18,45c3.79.63,7.4-.37,9-4C27,41,27.07,41.18,26.08,35.87Z"/><path class="cls-9" d="M24.83,31.63,22,30l2.83-1.63a1,1,0,0,0-1-1.74L21,28.27V25a1,1,0,0,0-2,0v3.27l-2.83-1.64a1,1,0,0,0-1,1.74L18,30l-2.83,1.63a1,1,0,0,0,.5,1.87c.39,0,.35,0,3.33-1.77V35a1,1,0,0,0,2,0V31.73c3.16,1.83,3,1.77,3.33,1.77A1,1,0,0,0,24.83,31.63Z"/></g></svg>