<svg xmlns="http://www.w3.org/2000/svg" xmlns:xlink="http://www.w3.org/1999/xlink" viewBox="0 0 64 64"><defs><style>.cls-1{fill:url(#linear-gradient);}.cls-2{fill:url(#linear-gradient-2);}.cls-3{fill:#42455e;}.cls-4{fill:url(#linear-gradient-3);}.cls-5{fill:url(#linear-gradient-4);}.cls-6{fill:url(#linear-gradient-5);}.cls-7{fill:#c7cdd8;}.cls-8{fill:#8a6762;}.cls-9{fill:url(#linear-gradient-6);}.cls-10{fill:#8288a1;}.cls-11{fill:#aae0e5;}</style><linearGradient id="linear-gradient" x1="49" y1="57" x2="49" y2="16" gradientUnits="userSpaceOnUse"><stop offset="0" stop-color="#9dd5df"/><stop offset="1" stop-color="#c3e1f5"/></linearGradient><linearGradient id="linear-gradient-2" x1="49" y1="16" x2="49" y2="7" gradientUnits="userSpaceOnUse"><stop offset="0" stop-color="#a0a6ba"/><stop offset="1" stop-color="#c6ccda"/></linearGradient><linearGradient id="linear-gradient-3" x1="15" x2="15" xlink:href="#linear-gradient"/><linearGradient id="linear-gradient-4" x1="15" y1="55" x2="15" y2="37" gradientUnits="userSpaceOnUse"><stop offset="0" stop-color="#d4d8e1"/><stop offset="1" stop-color="#f3f4f5"/></linearGradient><linearGradient id="linear-gradient-5" x1="49" y1="55" x2="49" y2="37" gradientUnits="userSpaceOnUse"><stop offset="0" stop-color="#9b756d"/><stop offset="1" stop-color="#bc9388"/></linearGradient><linearGradient id="linear-gradient-6" x1="15" x2="15" xlink:href="#linear-gradient-2"/></defs><title>Salt Paper</title><g id="Salt_Paper" data-name="Salt Paper"><path class="cls-1" d="M63,52.28A4.72,4.72,0,0,1,58.28,57H39.72A4.72,4.72,0,0,1,35,51.72l3.59-29.58A5,5,0,0,1,42,18V16H56v2a5,5,0,0,1,3.38,4.14C63.21,53.72,63,51.85,63,52.28Z"/><path class="cls-2" d="M58,11v2a3.41,3.41,0,0,0-1,2.41V16H41v-.59A3.41,3.41,0,0,0,40,13V11a4,4,0,0,1,4-4H54A4,4,0,0,1,58,11Z"/><path class="cls-3" d="M45,10a1,1,0,0,1-2,0A1,1,0,0,1,45,10Z"/><path class="cls-3" d="M50,10a1,1,0,0,1-2,0A1,1,0,0,1,50,10Z"/><path class="cls-3" d="M55,10a1,1,0,0,1-2,0A1,1,0,0,1,55,10Z"/><path class="cls-4" d="M29,52.28A4.72,4.72,0,0,1,24.28,57H5.72A4.72,4.72,0,0,1,1,51.72L4.62,22.14A5,5,0,0,1,8,18V16H22v2a5,5,0,0,1,3.38,4.14C29.21,53.72,29,51.85,29,52.28Z"/><path class="cls-5" d="M27,52.29A2.72,2.72,0,0,1,24.28,55H5.72A2.72,2.72,0,0,1,3,52L4.83,37H25.17C27.1,53,27,52.05,27,52.29Z"/><path class="cls-6" d="M61,52.29A2.72,2.72,0,0,1,58.28,55H39.72A2.72,2.72,0,0,1,37,52l1.81-15H59.17C61.1,53,61,52.05,61,52.29Z"/><path class="cls-7" d="M27,52.29A2.72,2.72,0,0,1,24.28,55H5.72A2.72,2.72,0,0,1,3,52L3.13,51a2.71,2.71,0,0,0,2.09,1H24.78a2.71,2.71,0,0,0,2.09-1C27,51.66,27,52,27,52.29Z"/><path class="cls-8" d="M61,52.29A2.72,2.72,0,0,1,58.28,55H39.72A2.72,2.72,0,0,1,37,52l.19-1.61A2.74,2.74,0,0,0,39.72,52c21.11,0,20.19.22,21.2-.55C61,51.73,61,52.06,61,52.29Z"/><path class="cls-9" d="M24,11v2a3.41,3.41,0,0,0-1,2.41V16H7v-.59A3.41,3.41,0,0,0,6,13V11a4,4,0,0,1,4-4H20A4,4,0,0,1,24,11Z"/><path class="cls-3" d="M11,10a1,1,0,0,1-2,0A1,1,0,0,1,11,10Z"/><path class="cls-3" d="M16,10a1,1,0,0,1-2,0A1,1,0,0,1,16,10Z"/><path class="cls-3" d="M21,10a1,1,0,0,1-2,0A1,1,0,0,1,21,10Z"/><path class="cls-10" d="M6,13H24a3.41,3.41,0,0,0-1,2.41V16H7v-.59A3.41,3.41,0,0,0,6,13Z"/><path class="cls-10" d="M58,13a3.41,3.41,0,0,0-1,2.41V16H41v-.59A3.41,3.41,0,0,0,40,13Z"/><rect class="cls-11" x="42" y="16" width="14" height="2"/><rect class="cls-11" x="8" y="16" width="14" height="2"/></g></svg>