<svg xmlns="http://www.w3.org/2000/svg" xmlns:xlink="http://www.w3.org/1999/xlink" viewBox="0 0 64 64"><defs><style>.cls-1{fill:url(#linear-gradient);}.cls-2{fill:#cba07a;}.cls-3{fill:url(#linear-gradient-3);}.cls-4{fill:url(#linear-gradient-4);}.cls-5{fill:url(#linear-gradient-5);}.cls-6{fill:url(#linear-gradient-6);}.cls-7{fill:#cf4055;}.cls-8{fill:#d861b0;}.cls-9{fill:url(#linear-gradient-7);}.cls-10{fill:#fce2d0;}.cls-11{fill:url(#linear-gradient-8);}</style><linearGradient id="linear-gradient" x1="32" y1="53" x2="32" y2="44.1" gradientUnits="userSpaceOnUse"><stop offset="0" stop-color="#d1a788"/><stop offset="1" stop-color="#f2d3b8"/></linearGradient><linearGradient id="linear-gradient-3" x1="32" y1="46" x2="32" y2="25.99" xlink:href="#linear-gradient"/><linearGradient id="linear-gradient-4" x1="5.04" y1="42.49" x2="24" y2="42.49" gradientUnits="userSpaceOnUse"><stop offset="0" stop-color="#da5466"/><stop offset="1" stop-color="#f4929c"/></linearGradient><linearGradient id="linear-gradient-5" x1="33.92" y1="48.16" x2="33.92" y2="35" gradientUnits="userSpaceOnUse"><stop offset="0" stop-color="#d96bb0"/><stop offset="1" stop-color="#e49fc6"/></linearGradient><linearGradient id="linear-gradient-6" x1="48.99" y1="47.99" x2="48.99" y2="39" xlink:href="#linear-gradient-4"/><linearGradient id="linear-gradient-7" x1="1" y1="40.5" x2="62.99" y2="40.5" gradientUnits="userSpaceOnUse"><stop offset="0" stop-color="#8cdd79"/><stop offset="1" stop-color="#d4e6b6"/></linearGradient><linearGradient id="linear-gradient-8" x1="32" y1="38" x2="32" y2="29.1" xlink:href="#linear-gradient"/></defs><title>Sandwitch</title><g id="Sandwitch"><path class="cls-1" d="M56.46,46H61.1A1.9,1.9,0,0,0,63,44.1V51a2,2,0,0,1-2,2H3a2,2,0,0,1-2-2V44.1A1.9,1.9,0,0,0,2.9,46H7.54"/><path class="cls-1" d="M56.46,46H61.1A1.9,1.9,0,0,0,63,44.1V51a2,2,0,0,1-2,2H3a2,2,0,0,1-2-2V44.1A1.9,1.9,0,0,0,2.9,46H7.54"/><path class="cls-2" d="M63,49v2a2,2,0,0,1-2,2H3a2,2,0,0,1-2-2V49a2,2,0,0,0,2,2H61A2,2,0,0,0,63,49Z"/><path class="cls-3" d="M61.1,46H2.9A1.89,1.89,0,0,1,2,42.46C32.56,25.11,30.56,26,32,26s-.44-.82,30,16.46A1.89,1.89,0,0,1,61.1,46Z"/><path class="cls-4" d="M22,46l.38.08C16.65,49.83,5.88,47.78,5,42.55L9.13,38,24,37C21.8,46.88,22.07,45.71,22,46Z"/><path class="cls-5" d="M49.3,38c-2.13,2.23-6,6.25-7.7,8-.17.17-9.65,2.83-14.6,2-3.25-.56-6-2.88-8.47-5.1,3.82-8.71,1.92-4.37,3.47-7.9Z"/><path class="cls-6" d="M59,40c0,2.23.23,3.33-1.3,5-5.49,5.85-20.3,2.56-18.58-3.87L41,39Z"/><path class="cls-7" d="M18.53,42.9s1.16,1.05,2.33,2c-4.46.7-5.16-1.9-7.47-1.9s-2.66,2.29-7.09,2A4.6,4.6,0,0,1,5,42.55L9.13,38,21,37.2Z"/><path class="cls-8" d="M49.3,38,48,39.39,41,39l-1.88,2.08A3.57,3.57,0,0,0,39,42c0,1.68.78,1-.81,1-2.08,0-2.62,2-6.2,2s-4.07-2-6.2-2c-1.89,0-2.39,1.51-4.93,1.9-1.17-.95-2.33-2-2.33-2,2.85-6.49,2.32-5.3,3-6.9C33.57,36,27.46,35.6,49.3,38Z"/><path class="cls-7" d="M41,39l-1.88,2.08a3.62,3.62,0,0,0,.06,2.06c.88.25,1.68,1.27,3.55,1.69,4.48.93,5.62-1.83,7.86-1.83s2.93,2.4,7.11,2c1.53-1.62,1.27-2.72,1.3-5Z"/><path class="cls-9" d="M61.73,41.14C59.82,41.59,59.4,43,56.79,43c-3.1,0-3.1-2-6.2-2s-3.1,2-6.21,2-3.09-2-6.19-2-3.1,2-6.2,2-3.1-2-6.2-2-3.1,2-6.2,2-3.1-2-6.2-2-3.1,2-6.2,2c-2.6,0-3-1.41-4.92-1.86A1.59,1.59,0,0,1,2.58,38H61.42A1.59,1.59,0,0,1,61.73,41.14Z"/><path class="cls-10" d="M61.1,31H2.9A1.89,1.89,0,0,1,2,27.46C32.56,10.11,30.56,11,32,11s-.44-.82,30,16.46A1.89,1.89,0,0,1,61.1,31Z"/><path class="cls-11" d="M63,29.1V36a2,2,0,0,1-2,2H3a2,2,0,0,1-2-2V29.1A1.9,1.9,0,0,0,2.9,31H61.1A1.9,1.9,0,0,0,63,29.1Z"/><path class="cls-2" d="M63,34v2a2,2,0,0,1-2,2H3a2,2,0,0,1-2-2V34a2,2,0,0,0,2,2H61A2,2,0,0,0,63,34Z"/></g></svg>