<svg xmlns="http://www.w3.org/2000/svg" xmlns:xlink="http://www.w3.org/1999/xlink" viewBox="0 0 64 64"><defs><style>.cls-1{fill:url(#linear-gradient);}.cls-2{fill:url(#linear-gradient-2);}.cls-3{fill:url(#linear-gradient-3);}.cls-4{fill:url(#linear-gradient-4);}.cls-5{fill:#8a6762;}.cls-6{fill:url(#linear-gradient-5);}.cls-7{fill:url(#linear-gradient-6);}.cls-8{fill:url(#linear-gradient-7);}</style><linearGradient id="linear-gradient" x1="25" y1="4.66" x2="25" y2="0.01" gradientUnits="userSpaceOnUse"><stop offset="0" stop-color="#a0a6ba"/><stop offset="1" stop-color="#c6ccda"/></linearGradient><linearGradient id="linear-gradient-2" x1="39" y1="4.66" x2="39" y2="0.01" xlink:href="#linear-gradient"/><linearGradient id="linear-gradient-3" x1="32" y1="41.99" x2="32" y2="12.98" xlink:href="#linear-gradient"/><linearGradient id="linear-gradient-4" x1="32" y1="19.78" x2="32" y2="3.01" gradientUnits="userSpaceOnUse"><stop offset="0" stop-color="#9b756d"/><stop offset="1" stop-color="#bc9388"/></linearGradient><linearGradient id="linear-gradient-5" x1="5.53" y1="22.35" x2="5.53" y2="16.65" xlink:href="#linear-gradient-4"/><linearGradient id="linear-gradient-6" x1="58.47" y1="22.35" x2="58.47" y2="16.71" xlink:href="#linear-gradient-4"/><linearGradient id="linear-gradient-7" x1="32" y1="62.98" x2="32" y2="41.02" gradientUnits="userSpaceOnUse"><stop offset="0" stop-color="#474f72"/><stop offset="1" stop-color="#878c9f"/></linearGradient></defs><title>Sausage</title><g id="Sausage"><path class="cls-1" d="M26,3.67V1a1,1,0,0,0-2,0V3.67A1,1,0,0,0,26,3.67Z"/><path class="cls-2" d="M38,1V3.67a1,1,0,0,0,2,0V1A1,1,0,0,0,38,1Z"/><path class="cls-3" d="M38,14a6,6,0,1,1-12-.06A1,1,0,0,0,24,14a8,8,0,0,0,7,7.93V41a1,1,0,0,0,2,0V21.93a8,8,0,0,0,7-8A1,1,0,0,0,38,14Z"/><path class="cls-4" d="M57.06,15.75a5,5,0,0,1-7.8,3.1c-10.83-7.79-23.67-7.8-34.52,0a5,5,0,0,1-5.86-8.11C23.08.45,40.83.41,55.12,10.74A4.94,4.94,0,0,1,57.06,15.75Z"/><path class="cls-5" d="M49.26,18.85c-10.83-7.79-23.67-7.8-34.52,0a5,5,0,0,1-7.8-5.08,5,5,0,0,0,7.8,3.08c10.83-7.79,23.67-7.8,34.52,0a5,5,0,0,0,7.8-3.08A5,5,0,0,1,49.26,18.85Z"/><path class="cls-6" d="M8.52,18.5a2,2,0,0,1-.72,1.72,29.57,29.57,0,0,0-2.32,2.13l-3-2.7a28,28,0,0,1,2.71-2.53,2,2,0,0,1,2-.33"/><path class="cls-7" d="M56.71,16.84a2,2,0,0,1,2,.35c1.21,1.07,2.67,2.35,2.77,2.46l-3,2.7c-2.13-2.13-3.18-2.4-3.06-3.83"/><path class="cls-5" d="M34.41,3.08C30.48,8,30.65,8,30,8a1,1,0,0,1-.78-1.62C32.22,2.62,31.89,3,32,3,32.82,3,33.62,3,34.41,3.08Z"/><path class="cls-5" d="M43.76,4.9C40.68,8.75,40.66,9,40,9a1,1,0,0,1-.78-1.62L41.7,4.29C42.4,4.48,43.09,4.68,43.76,4.9Z"/><path class="cls-5" d="M22.22,4.31C18.5,9,18.64,9,18,9a1,1,0,0,1-.78-1.62l1.57-2C19.88,5,21,4.63,22.22,4.31Z"/><path class="cls-8" d="M30,61V43a2,2,0,0,1,4,0V61A2,2,0,0,1,30,61Z"/></g></svg>