<svg xmlns="http://www.w3.org/2000/svg" xmlns:xlink="http://www.w3.org/1999/xlink" viewBox="0 0 64 64"><defs><style>.cls-1{fill:url(#linear-gradient);}.cls-2{fill:url(#linear-gradient-2);}.cls-3{fill:url(#linear-gradient-3);}.cls-4{fill:url(#linear-gradient-4);}.cls-5{fill:url(#linear-gradient-5);}.cls-6{fill:url(#linear-gradient-6);}.cls-7{fill:url(#linear-gradient-7);}.cls-8{fill:url(#linear-gradient-8);}.cls-9{fill:url(#linear-gradient-9);}.cls-10{fill:url(#linear-gradient-10);}.cls-11{fill:url(#linear-gradient-11);}.cls-12{fill:url(#linear-gradient-12);}.cls-13{fill:url(#linear-gradient-13);}.cls-14{fill:#c7cdd8;}.cls-15{fill:url(#linear-gradient-14);}.cls-16{fill:url(#linear-gradient-15);}.cls-17{fill:url(#linear-gradient-16);}.cls-18{fill:url(#linear-gradient-17);}.cls-19{fill:url(#linear-gradient-18);}.cls-20{fill:url(#linear-gradient-19);}.cls-21{fill:url(#linear-gradient-20);}.cls-22{fill:url(#linear-gradient-21);}.cls-23{fill:url(#linear-gradient-22);}.cls-24{fill:url(#linear-gradient-23);}</style><linearGradient id="linear-gradient" x1="16" y1="51" x2="35.75" y2="51" gradientUnits="userSpaceOnUse"><stop offset="0" stop-color="#e9a254"/><stop offset="1" stop-color="#f4bb79"/></linearGradient><linearGradient id="linear-gradient-2" x1="47" y1="55" x2="47" y2="42.99" xlink:href="#linear-gradient"/><linearGradient id="linear-gradient-3" x1="14.89" y1="55" x2="14.89" y2="42.01" xlink:href="#linear-gradient"/><linearGradient id="linear-gradient-4" x1="32.1" y1="50.81" x2="32.1" y2="36" xlink:href="#linear-gradient"/><linearGradient id="linear-gradient-5" x1="14.01" y1="6" x2="64.01" y2="6" gradientUnits="userSpaceOnUse"><stop offset="0" stop-color="#a0a6ba"/><stop offset="1" stop-color="#c6ccda"/></linearGradient><linearGradient id="linear-gradient-6" x1="16" y1="39.99" x2="16" y2="0.01" gradientUnits="userSpaceOnUse"><stop offset="0" stop-color="#fbcc88"/><stop offset="1" stop-color="#ffe5c3"/></linearGradient><linearGradient id="linear-gradient-7" x1="20" y1="39.99" x2="20" y2="0.01" xlink:href="#linear-gradient-6"/><linearGradient id="linear-gradient-8" x1="24" y1="38.99" x2="24" y2="0.01" xlink:href="#linear-gradient-6"/><linearGradient id="linear-gradient-9" x1="17.95" y1="42.76" x2="17.95" y2="37" gradientUnits="userSpaceOnUse"><stop offset="0" stop-color="#da5466"/><stop offset="1" stop-color="#f4929c"/></linearGradient><linearGradient id="linear-gradient-10" x1="29.64" y1="43.76" x2="29.64" y2="35" xlink:href="#linear-gradient-6"/><linearGradient id="linear-gradient-11" x1="40.08" y1="46.23" x2="40.08" y2="39.01" xlink:href="#linear-gradient-9"/><linearGradient id="linear-gradient-12" x1="31.23" y1="47.23" x2="31.23" y2="39.03" xlink:href="#linear-gradient-6"/><linearGradient id="linear-gradient-13" x1="31.08" y1="50.73" x2="31.08" y2="43" xlink:href="#linear-gradient-6"/><linearGradient id="linear-gradient-14" x1="14.58" y1="56.01" x2="14.58" y2="49" xlink:href="#linear-gradient-6"/><linearGradient id="linear-gradient-15" x1="14.81" y1="56" x2="14.81" y2="45" xlink:href="#linear-gradient-6"/><linearGradient id="linear-gradient-16" x1="14.91" y1="56" x2="14.91" y2="41" xlink:href="#linear-gradient-6"/><linearGradient id="linear-gradient-17" x1="28.86" y1="56" x2="28.86" y2="50" xlink:href="#linear-gradient-6"/><linearGradient id="linear-gradient-18" x1="28.06" y1="51.82" x2="28.06" y2="46" xlink:href="#linear-gradient-6"/><linearGradient id="linear-gradient-19" x1="20" y1="55" x2="20" y2="49" xlink:href="#linear-gradient-9"/><linearGradient id="linear-gradient-20" x1="47" y1="56" x2="47" y2="50" xlink:href="#linear-gradient-6"/><linearGradient id="linear-gradient-21" x1="47" y1="56" x2="47" y2="46" xlink:href="#linear-gradient-6"/><linearGradient id="linear-gradient-22" x1="47" y1="55.99" x2="47" y2="42" xlink:href="#linear-gradient-6"/><linearGradient id="linear-gradient-23" x1="32" y1="63" x2="32" y2="55" gradientUnits="userSpaceOnUse"><stop offset="0" stop-color="#d4d8e1"/><stop offset="1" stop-color="#f3f4f5"/></linearGradient></defs><title>Sapgetti</title><g id="Sapgetti"><path class="cls-1" d="M35.75,50.81A11.84,11.84,0,0,0,35,55H16.54a4,4,0,0,1,3.81-6A12,12,0,0,1,35.75,50.81Z"/><path class="cls-2" d="M59,55H35a12,12,0,0,1,9-11.61h0A12,12,0,0,1,59,55Z"/><path class="cls-3" d="M25.8,47.07a11.69,11.69,0,0,0-5.45,2,4,4,0,0,0-3.81,6H4C2.94,42.93,18.78,37.13,25.8,47.07Z"/><path class="cls-4" d="M44,43.38a12.1,12.1,0,0,0-8.23,7.43,11.87,11.87,0,0,0-9.95-3.74,12,12,0,0,0-5.59-4.31,12,12,0,0,1,18.86-3.65A4,4,0,0,1,44,43.38Z"/><path class="cls-5" d="M63.88,5.2C63.35,3.8,62,4,60.89,4,31.55,4,33,4.2,32.64,3.58,32.11,2.61,31.1,1,30,1H15a1,1,0,0,0,0,2H26a1,1,0,0,1,0,2H15a1,1,0,0,0,0,2H26a1,1,0,0,1,0,2H15a1,1,0,0,0,0,2H30c1.1,0,2.11-1.61,2.64-2.58C33,7.82,31.16,8,62.14,8A2,2,0,0,0,63.88,5.2Z"/><path class="cls-6" d="M15,39V1a1,1,0,0,1,2,0V39A1,1,0,0,1,15,39Z"/><path class="cls-7" d="M19,39V1a1,1,0,0,1,2,0V39A1,1,0,0,1,19,39Z"/><path class="cls-8" d="M23,38V1a1,1,0,0,1,2,0V38A1,1,0,0,1,23,38Z"/><path class="cls-9" d="M21.91,40.17a11.48,11.48,0,0,0-1.7,2.59,12,12,0,0,0-6-.62,4,4,0,1,1,7.74-2Z"/><path class="cls-10" d="M19.31,42.33a13,13,0,0,1,20.43-4,1,1,0,0,1-1.34,1.48,11,11,0,0,0-17.29,3.34A1,1,0,0,1,19.31,42.33Z"/><path class="cls-11" d="M44,43.38a12.57,12.57,0,0,0-5.18,2.85,7.88,7.88,0,0,0-2.64-4.34C37.45,37.34,44.39,38.45,44,43.38Z"/><path class="cls-12" d="M38.8,47.23c-1.56,0-.47-2.21-3.28-4.57a7,7,0,0,0-10.93,2.52,1,1,0,0,1-1.83-.8c3.54-8,15.2-6.66,17,1.64A1,1,0,0,1,38.8,47.23Z"/><path class="cls-13" d="M33.71,49.28a3,3,0,1,0-5.61-2,1,1,0,0,1-1.22.72c-1.95-.5.25-5,4.12-5a5,5,0,0,1,4.49,7.18A1,1,0,0,1,33.71,49.28Z"/><path class="cls-14" d="M62.69,56a10.54,10.54,0,0,1-9.94,7H11.25a10.55,10.55,0,0,1-9.94-7,10.93,10.93,0,0,0,9.27,5H53.42A11,11,0,0,0,62.69,56Z"/><path class="cls-15" d="M11,54a5,5,0,0,1,6.46-4.79,1,1,0,0,1-.58,1.92,3,3,0,0,0-3.79,3.6C13.46,56.05,11,57.07,11,54Z"/><path class="cls-16" d="M8.06,56C7,56,7,55,7,54a9,9,0,0,1,15.3-6.44A1,1,0,0,1,20.9,49,7,7,0,0,0,9.05,54.88,1,1,0,0,1,8.06,56Z"/><path class="cls-17" d="M4,56C3,56,3,54.92,3,54c0-12.64,16.32-17.82,23.62-7.51A1,1,0,0,1,25,47.65C18.53,38.51,4,43.86,5,54.91A1,1,0,0,1,4,56Z"/><path class="cls-18" d="M33.05,55.5a7,7,0,0,0-8.88-2.91,1,1,0,0,1-1.31-.51c-1-2.29,8.2-4.07,11.93,2.42A1,1,0,0,1,33.05,55.5Z"/><path class="cls-19" d="M35,51.49A11,11,0,0,0,27,48c-5.21,0-6.4,3.18-7.48,1.58a1,1,0,0,1,.27-1.39,13,13,0,0,1,16.69,1.94A1,1,0,0,1,35,51.49Z"/><path class="cls-20" d="M23.46,55H16.54a4,4,0,1,1,6.92,0Z"/><path class="cls-21" d="M51,56a1,1,0,0,1-1-1,3,3,0,0,0-6,0,1,1,0,0,1-1,1c-2.28,0-.65-6,4-6S53.28,56,51,56Z"/><path class="cls-22" d="M55,56a1,1,0,0,1-1-1,7,7,0,0,0-14,0,1,1,0,0,1-1,1c-2.76,0-.12-10,8-10S57.78,56,55,56Z"/><path class="cls-23" d="M58,55a11,11,0,0,0-22,0,1,1,0,0,1-2,0,13,13,0,0,1,26,0A1,1,0,0,1,58,55Z"/><path class="cls-24" d="M63,55a10.57,10.57,0,0,1-10.25,8H11.25A10.57,10.57,0,0,1,1,55Z"/></g></svg>