<svg xmlns="http://www.w3.org/2000/svg" xmlns:xlink="http://www.w3.org/1999/xlink" viewBox="0 0 64 64"><defs><style>.cls-1{fill:url(#linear-gradient);}.cls-2{fill:#c7cdd8;}.cls-3{fill:url(#linear-gradient-2);}.cls-4{fill:#8a6762;}.cls-5{fill:url(#linear-gradient-3);}.cls-6{fill:url(#linear-gradient-4);}.cls-7{fill:url(#linear-gradient-5);}.cls-8{fill:url(#linear-gradient-6);}.cls-9{fill:url(#linear-gradient-7);}.cls-10{fill:url(#linear-gradient-8);}.cls-11{fill:url(#linear-gradient-9);}</style><linearGradient id="linear-gradient" x1="32" y1="63" x2="32" y2="1" gradientUnits="userSpaceOnUse"><stop offset="0" stop-color="#d4d8e1"/><stop offset="1" stop-color="#f3f4f5"/></linearGradient><linearGradient id="linear-gradient-2" x1="40.53" y1="43.75" x2="40.53" y2="13" gradientUnits="userSpaceOnUse"><stop offset="0" stop-color="#9b756d"/><stop offset="1" stop-color="#bc9388"/></linearGradient><linearGradient id="linear-gradient-3" x1="18.51" y1="29.83" x2="18.51" y2="22.17" gradientUnits="userSpaceOnUse"><stop offset="0" stop-color="#e9a254"/><stop offset="1" stop-color="#f4bb79"/></linearGradient><linearGradient id="linear-gradient-4" x1="20.5" y1="24.02" x2="20.5" y2="20" xlink:href="#linear-gradient-3"/><linearGradient id="linear-gradient-5" x1="23.49" y1="32.89" x2="23.49" y2="26.84" xlink:href="#linear-gradient-3"/><linearGradient id="linear-gradient-6" x1="12" y1="37.5" x2="23" y2="37.5" gradientUnits="userSpaceOnUse"><stop offset="0" stop-color="#da5466"/><stop offset="1" stop-color="#f4929c"/></linearGradient><linearGradient id="linear-gradient-7" x1="20.62" y1="39.5" x2="31" y2="39.5" xlink:href="#linear-gradient-6"/><linearGradient id="linear-gradient-8" x1="27" y1="46.25" x2="37.13" y2="46.25" gradientUnits="userSpaceOnUse"><stop offset="0" stop-color="#6ab891"/><stop offset="1" stop-color="#85cba9"/></linearGradient><linearGradient id="linear-gradient-9" x1="35.21" y1="48.55" x2="42.89" y2="48.55" xlink:href="#linear-gradient-8"/></defs><title>Steak</title><g id="Steak"><circle class="cls-1" cx="32" cy="32" r="31"/><circle class="cls-2" cx="32" cy="32" r="19"/><path class="cls-3" d="M37.08,43.55c-6.22-1.13-3-7.25-3-11.38,0-4.63-6.87-7.16-4.63-13.88C30.17,16,32,13,40,13c7,0,11,5,12,13C52.94,33.55,47.59,45.43,37.08,43.55Z"/><path class="cls-4" d="M34,31.36c-.65-3.77-5.64-6.27-4.92-11.47C29.73,24.73,34.58,26.23,34,31.36Z"/><path class="cls-4" d="M37.08,43.55C33.91,43,33,41.1,33.29,38c.25,2.13,1.66,3.17,3.79,3.56,8.81,1.58,14.44-6.6,15-14.87C52.59,34.48,47.16,45.36,37.08,43.55Z"/><path class="cls-4" d="M33.29,38c-.26-2,.44-4.46.66-6.63C34.29,32.82,33.48,35.85,33.29,38Z"/><path class="cls-4" d="M47.29,23.29l-2,2.05-2.09-2.09,2.09-2.09c1.23,1.23,1.44,1.59,2,1.59A1,1,0,0,0,48,21c-1.39-1.39-1.35-1.23-1.25-1.33a1,1,0,0,0-1.42-1.42c-.1.1.06.15-1.33-1.25a1,1,0,0,0-1.42,1.42l1.3,1.29-2.09,2.09-2.09-2.09,1.55-1.54a1,1,0,0,0-1.42-1.42l-1.54,1.55L36,16a1,1,0,0,0-1.42,1.42l2.3,2.29-2.09,2.09-.29-.3A1,1,0,0,0,33,23l.3.29-.55.54a1,1,0,0,0,1.42,1.42l.54-.55,2.09,2.09-1.05,1a1,1,0,0,0,1.42,1.42l1-1.05,2.09,2.09-1.05,1a1,1,0,0,0,1.42,1.42l1-1.05,2.09,2.09-2.09,2.09-3.29-3.3A1,1,0,0,0,37,34l3.3,3.29-2.05,2A1,1,0,0,0,39,41c.52,0,.52-.1,2.75-2.34.62.63.77.84,1.25.84a1,1,0,0,0,.71-1.71l-.55-.54,2.09-2.09c.35.35.54.59,1,.59A1,1,0,0,0,47,34l-.3-.29,1.05-1a1,1,0,0,0-1.42-1.42l-1,1.05-2.09-2.09,2.09-2.09,1,1.05a1,1,0,0,0,1.42-1.42l-1.05-1,2.05-2A1,1,0,0,0,47.29,23.29Zm-11.13,0,2.09-2.09,2.09,2.09-2.09,2.09Zm5.59,5.59-2.09-2.09,2.09-2.09,2.09,2.09Z"/><path class="cls-5" d="M26.26,26c-9.19,2.39,13.37-3.46-14.51,3.79l-1-3.87,14.51-3.79Z"/><path class="cls-6" d="M28,20v4H25.73l-.48-1.83C16.84,24.37,19.6,24,13,24V20Z"/><path class="cls-7" d="M31.26,29l-1,3.86c-16.1-4.36-14.5-3.84-14.43-4.11h0c7.47-1.95,7.3-1.93,7.4-1.93Z"/><circle class="cls-8" cx="17.5" cy="37.5" r="5.5"/><path class="cls-9" d="M31,39.5A5.5,5.5,0,0,1,20.62,42,5.5,5.5,0,0,0,22.38,35,5.51,5.51,0,0,1,31,39.5Z"/><path class="cls-10" d="M27,52a21.31,21.31,0,0,1,1.17-7.7,5.44,5.44,0,0,0,2.64-3.39,3.87,3.87,0,0,1,2.56-.43c.34,1.49,1.35,2.64,3.71,3.07C37.7,47.29,31.79,52.8,27,52Z"/><path class="cls-11" d="M38.31,53.87a23.76,23.76,0,0,1-3.1-5.53,6.23,6.23,0,0,0,1.87-4.79,11.65,11.65,0,0,0,5.59-.32C43.54,46.71,41.78,52.16,38.31,53.87Z"/></g></svg>