<svg xmlns="http://www.w3.org/2000/svg" xmlns:xlink="http://www.w3.org/1999/xlink" viewBox="0 0 64 64"><defs><style>.cls-1{fill:url(#linear-gradient);}.cls-2{fill:#c7cdd8;}.cls-3{fill:url(#linear-gradient-3);}.cls-4{fill:#cf4055;}.cls-5{fill:#e8677d;}.cls-6{fill:url(#linear-gradient-4);}.cls-7{fill:#cba07a;}.cls-8{fill:url(#linear-gradient-5);}.cls-9{fill:url(#linear-gradient-6);}</style><linearGradient id="linear-gradient" x1="31.98" y1="37" x2="31.98" y2="23" gradientUnits="userSpaceOnUse"><stop offset="0" stop-color="#d4d8e1"/><stop offset="1" stop-color="#f3f4f5"/></linearGradient><linearGradient id="linear-gradient-3" x1="31.93" y1="29.94" x2="31.93" y2="14.99" gradientUnits="userSpaceOnUse"><stop offset="0" stop-color="#da5466"/><stop offset="1" stop-color="#f4929c"/></linearGradient><linearGradient id="linear-gradient-4" x1="32" y1="43" x2="32" y2="37" gradientUnits="userSpaceOnUse"><stop offset="0" stop-color="#d1a788"/><stop offset="1" stop-color="#f2d3b8"/></linearGradient><linearGradient id="linear-gradient-5" x1="9" y1="49" x2="9" y2="43" xlink:href="#linear-gradient-4"/><linearGradient id="linear-gradient-6" x1="55" y1="49" x2="55" y2="43" xlink:href="#linear-gradient-4"/></defs><title>Sushi</title><g id="Sushi"><path class="cls-1" d="M51.67,29.88a7.24,7.24,0,0,1,.24,1.79C51.91,36.31,43,37,32,37S12,36.31,12,31.67a7.77,7.77,0,0,1,.23-1.78L32,23Z"/><path class="cls-1" d="M51.67,29.88a7.24,7.24,0,0,1,.24,1.79C51.91,36.31,43,37,32,37S12,36.31,12,31.67a7.77,7.77,0,0,1,.23-1.78L32,23Z"/><path class="cls-2" d="M51.91,31.67C51.91,36.31,43,37,32,37S12,36.31,12,31.67a6.78,6.78,0,0,1,.11-1.16C13.19,34.4,21.67,35,32,35s18.79-.61,19.83-4.5A8.16,8.16,0,0,1,51.91,31.67Z"/><path class="cls-3" d="M49.71,29.8c-1.61-.31-10.45-3.73-16-4.36-4.73-.62-12.38,2.06-17.7,3.83-3.36,1.24-6,1-5.31-2.58,1.82-9.89,20.13-15.16,34-9.15a19.27,19.27,0,0,1,5.13,3.28,10.55,10.55,0,0,1,3.44,5.87C53.78,29.94,51.64,30.19,49.71,29.8Z"/><path class="cls-4" d="M53.28,27.48c.16,3.17-3,2.6-4.91,2C32.24,24.09,32,24,15.48,29.44c-1.92.64-5.07,1.21-4.91-2,1,.81,3,.4,4.36,0,17-5.49,17.43-5.34,34,0C50.28,27.88,52.24,28.29,53.28,27.48Z"/><path class="cls-5" d="M50.16,25.31a20.74,20.74,0,0,1-.45,4.49,12.27,12.27,0,0,1-1.92-.56A20.84,20.84,0,0,0,47.48,20a1,1,0,0,1,.14-.86,15.18,15.18,0,0,1,2.12,1.65A21,21,0,0,1,50.16,25.31Z"/><path class="cls-5" d="M44.77,28.24c-.59-.19-1.23-.4-1.9-.6a17.42,17.42,0,0,0,.48-4.39c0-5.1-1.23-5.68-.87-6.55,1.71.6,2.05.84,2.15.84C45.82,21.52,45.27,27.24,44.77,28.24Z"/><path class="cls-5" d="M39.8,26.7c0,.1,0,0-1.94-.46a20,20,0,0,0-1.38-10.38.88.88,0,0,1-.07-.57c.73.1,1.45.22,2.16.37A21.81,21.81,0,0,1,39.8,26.7Z"/><path class="cls-5" d="M35.67,25.62c0,.29.08.05-2-.18a19.6,19.6,0,0,0-2.84-9.86,1,1,0,0,1-.18-.56c.63,0,1.57,0,2.19,0A21.9,21.9,0,0,1,35.67,25.62Z"/><path class="cls-5" d="M30.65,25.39c-2,.16-2,.41-2,.19a20,20,0,0,0-3.59-9.41.92.92,0,0,1-.19-.43c.69-.15,1.38-.28,2.08-.38A22.18,22.18,0,0,1,30.65,25.39Z"/><path class="cls-5" d="M26.08,26.22c-2.23.56-1.92.56-2,.39a20.1,20.1,0,0,0-4.22-9,1,1,0,0,1-.19-.31c.63-.26,1.28-.5,1.94-.72A22.24,22.24,0,0,1,26.08,26.22Z"/><path class="cls-5" d="M22,27.33c-.67.19-1.31.39-1.92.58a20.86,20.86,0,0,0-5.74-7.34A13.22,13.22,0,0,1,16,19.33C19,21.75,21.73,26.13,22,27.33Z"/><path class="cls-5" d="M17.89,28.63,16,29.27a21.44,21.44,0,0,0-4.34-5.35,11.35,11.35,0,0,1,1.11-1.68C13.8,22.77,17.48,27.42,17.89,28.63Z"/><path class="cls-2" d="M21,31a1,1,0,0,1-2,0A1,1,0,0,1,21,31Z"/><path class="cls-2" d="M25,29a1,1,0,0,1-2,0A1,1,0,0,1,25,29Z"/><path class="cls-2" d="M25,33a1,1,0,0,1-2,0A1,1,0,0,1,25,33Z"/><rect class="cls-6" x="1" y="37" width="62" height="6"/><rect class="cls-7" x="1" y="41" width="62" height="2"/><rect class="cls-8" x="5" y="43" width="8" height="6"/><rect class="cls-9" x="51" y="43" width="8" height="6"/><rect class="cls-7" x="5" y="47" width="8" height="2"/><rect class="cls-7" x="51" y="47" width="8" height="2"/></g></svg>