<svg xmlns="http://www.w3.org/2000/svg" xmlns:xlink="http://www.w3.org/1999/xlink" viewBox="0 0 64 64"><defs><style>.cls-1{fill:#c7cdd8;}.cls-2{fill:url(#linear-gradient);}.cls-3{fill:url(#linear-gradient-2);}.cls-4{fill:url(#linear-gradient-3);}.cls-5{fill:url(#linear-gradient-4);}.cls-6{fill:url(#linear-gradient-5);}.cls-7{fill:url(#linear-gradient-6);}</style><linearGradient id="linear-gradient" x1="30.02" y1="58" x2="30.02" y2="26" gradientUnits="userSpaceOnUse"><stop offset="0" stop-color="#d4d8e1"/><stop offset="1" stop-color="#f3f4f5"/></linearGradient><linearGradient id="linear-gradient-2" x1="22" y1="47" x2="22" y2="36" gradientUnits="userSpaceOnUse"><stop offset="0" stop-color="#d1a788"/><stop offset="1" stop-color="#f2d3b8"/></linearGradient><linearGradient id="linear-gradient-3" x1="31" y1="63" x2="31" y2="58" xlink:href="#linear-gradient"/><linearGradient id="linear-gradient-4" x1="30" y1="21" x2="30" y2="0.99" xlink:href="#linear-gradient"/><linearGradient id="linear-gradient-5" x1="41" y1="24" x2="41" y2="3.99" xlink:href="#linear-gradient"/><linearGradient id="linear-gradient-6" x1="19" y1="24" x2="19" y2="3.99" xlink:href="#linear-gradient"/></defs><title>Tea</title><g id="Tea"><path class="cls-1" d="M45.18,52.74C51.1,49.94,61,45.26,61,36c0-1.5-.29-5-3-5a4.53,4.53,0,0,0-4.11,2.45,1,1,0,0,1-1.78-.9C54.42,27.92,63,26.54,63,36c0,10.53-11,15.74-17,18.54A1,1,0,0,1,45.18,52.74Z"/><path class="cls-2" d="M54,26c0,7.53,1.18,19.76-9.61,30A19.67,19.67,0,0,1,42,58H18a19.67,19.67,0,0,1-2.39-2A31.3,31.3,0,0,1,6,33V26Z"/><path class="cls-1" d="M44.39,56A19.67,19.67,0,0,1,42,58H18a19.67,19.67,0,0,1-2.39-2Z"/><polygon class="cls-3" points="26 47 18 47 18 38 21 36 23 36 26 38 26 47"/><path class="cls-1" d="M21,36V26a1,1,0,0,1,2,0V36A1,1,0,0,1,21,36Z"/><polygon class="cls-4" points="61 58 61 59 46 61 45 63 17 63 16 61 1 59 1 58 61 58"/><path class="cls-5" d="M28.79,20.56c-3.38-5-1.25-7.75.46-10s3-3.92-.39-7.93a1,1,0,0,1,1.52-1.3c4.45,5.24,2.24,8.13.46,10.45-1.66,2.16-3,3.86-.4,7.64A1,1,0,0,1,28.79,20.56Z"/><path class="cls-6" d="M39.79,23.56c-3.38-5-1.25-7.75.46-10s3-3.92-.39-7.93a1,1,0,0,1,1.52-1.3c4.45,5.24,2.24,8.13.46,10.45-1.66,2.16-3,3.86-.4,7.64A1,1,0,0,1,39.79,23.56Z"/><path class="cls-7" d="M17.79,23.56c-3.38-5-1.25-7.75.46-10s3-3.92-.39-7.93a1,1,0,0,1,1.52-1.3c4.45,5.24,2.24,8.13.46,10.45-1.66,2.16-3,3.86-.4,7.64A1,1,0,0,1,17.79,23.56Z"/><polygon class="cls-1" points="46 61 45 63 17 63 16 61 46 61"/></g></svg>