<svg xmlns="http://www.w3.org/2000/svg" xmlns:xlink="http://www.w3.org/1999/xlink" viewBox="0 0 64 64"><defs><style>.cls-1{fill:url(#linear-gradient);}.cls-2{fill:url(#linear-gradient-2);}.cls-3{fill:#c7cdd8;}.cls-4{fill:url(#linear-gradient-3);}.cls-5{fill:url(#linear-gradient-4);}.cls-6{fill:#4da67f;}.cls-7{fill:url(#linear-gradient-5);}.cls-8{fill:url(#linear-gradient-6);}</style><linearGradient id="linear-gradient" x1="20" y1="63" x2="20" y2="1" gradientUnits="userSpaceOnUse"><stop offset="0" stop-color="#6ab891"/><stop offset="1" stop-color="#85cba9"/></linearGradient><linearGradient id="linear-gradient-2" x1="20" y1="58" x2="20" y2="34" gradientUnits="userSpaceOnUse"><stop offset="0" stop-color="#d4d8e1"/><stop offset="1" stop-color="#f3f4f5"/></linearGradient><linearGradient id="linear-gradient-3" x1="46" y1="63" x2="46" y2="46.01" gradientUnits="userSpaceOnUse"><stop offset="0" stop-color="#9dd5df"/><stop offset="1" stop-color="#c3e1f5"/></linearGradient><linearGradient id="linear-gradient-4" y1="14" y2="1" xlink:href="#linear-gradient-2"/><linearGradient id="linear-gradient-5" x1="46" y1="47" x2="46" y2="27" xlink:href="#linear-gradient-3"/><linearGradient id="linear-gradient-6" x1="46" y1="45" x2="46" y2="35.05" gradientUnits="userSpaceOnUse"><stop offset="0" stop-color="#da5466"/><stop offset="1" stop-color="#f4929c"/></linearGradient></defs><title>Wine</title><g id="Wine"><path class="cls-1" d="M24,20V1H16c0,19.61-.1,19,0,19A11.55,11.55,0,0,0,9,30.62V63H31V30.62A11.55,11.55,0,0,0,24,20Z"/><rect class="cls-2" x="9" y="34" width="22" height="24"/><rect class="cls-3" x="9" y="55" width="22" height="3"/><path class="cls-4" d="M52,61H49a2,2,0,0,1-2-2V47a1,1,0,0,0-2,0V59a2,2,0,0,1-2,2H40a1,1,0,0,0,0,2H52A1,1,0,0,0,52,61Z"/><rect class="cls-5" x="16" y="1" width="8" height="13"/><rect class="cls-3" x="16" y="12" width="8" height="2"/><rect class="cls-6" x="9" y="61" width="22" height="2"/><path class="cls-3" d="M24,6H16a1,1,0,0,1,0-2h8A1,1,0,0,1,24,6Z"/><path class="cls-7" d="M55,35.89C55,43,48.57,47,46,47s-9-4-9-11.11A26.81,26.81,0,0,1,38.29,27H53.71A26.81,26.81,0,0,1,55,35.89Z"/><path class="cls-8" d="M46,45c-1.34,0-7-3-7-9.11,0,0,2,1.89,7,0s7,0,7,0C53,42,47.34,45,46,45Z"/></g></svg>