<svg xmlns="http://www.w3.org/2000/svg" viewBox="0 0 64 64"><title>baguette</title><g id="baguette"><path d="M17,23.58c.65-.24,1.31-.46,2-.66a20.25,20.25,0,0,1-1,6.68C17.09,27.48,17.14,24,17,23.58Z"/><path d="M32,28.61c-.77-1.83-1-5.46-1-7.6.46,0,1.54,0,2,0C33,23.13,32.77,26.78,32,28.61Z"/><path d="M46,29.6a20.25,20.25,0,0,1-1-6.68c.68.2,1.34.42,2,.66C46.87,24,46.89,27.52,46,29.6Z"/><path d="M63,37c0,5-13.88,6-31,6S1,42,1,37c0-3.86,5.6-9.28,14.07-12.69C15.26,27.9,16,32,18,32c2.86,0,3.13-8.95,3-9.63a44.43,44.43,0,0,1,8-1.26c0,2.41.25,9.89,3,9.89s3-7.48,3-9.89a44.43,44.43,0,0,1,8,1.26c-.13.52,0,9.63,3,9.63,2,0,2.74-4.1,2.93-7.69C57.4,27.72,63,33.14,63,37Z"/></g></svg>