<svg xmlns="http://www.w3.org/2000/svg" viewBox="0 0 64 64"><title>Banana Split</title><g id="Banana_Split" data-name="Banana Split"><path d="M32,49c14,0,25.51-4,26.86-9H5.14C6.49,45.05,18,49,32,49Z"/><path d="M26,56H38c-2.62-1.5-3-3.06-3-4,0-1.59,2-1-3-1s-3-.58-3,1C29,52.94,28.62,54.5,26,56Z"/><path d="M40,58H24a4,4,0,0,0-4,4H44A4,4,0,0,0,40,58Z"/><path d="M59,25c-4.91,0-17.71,9.19-37.66,4.83C13.48,28.12,7.8,25,5,25c-3,0-4,0-4,3,0,1.71,2.38,4,6.51,6h49C60.62,32,63,29.71,63,28,63,25,62,25,59,25Z"/><path d="M21,27.7a48,48,0,0,0,22,0c.36-2.51-1.6-6.67-5.86-8.61-1.91,3.63-7.77,4.1-10.27,0C22.68,21,20.65,25.16,21,27.7Z"/><path d="M32,14a1,1,0,0,1-2,0c0-.5,0-1-.05-1.43a4,4,0,1,0,4,0C33.5,5.21,29.77,2.33,29.6,2.2a1,1,0,0,0-1.21,1.6C31.06,5.85,32,10.62,32,14Z"/><path d="M43.18,21.62A10.36,10.36,0,0,1,45,27.19c4.85-1.3,8.94-3.12,11.47-3.78a10.22,10.22,0,0,0-4.3-3.35A6,6,0,0,1,43.18,21.62Z"/><path d="M47,15a1,1,0,0,1-2,0c0-.5,0-1,0-1.43a4,4,0,1,0,4,0C48.5,6.21,44.77,3.33,44.6,3.2a1,1,0,0,0-1.21,1.6C46.06,6.85,47,11.62,47,15Z"/><path d="M19,27.19a10.44,10.44,0,0,1,1.82-5.58,6,6,0,0,1-9-1.55,10.32,10.32,0,0,0-4.31,3.35C10.11,24.1,14.29,25.92,19,27.19Z"/><path d="M17,15a1,1,0,0,1-2,0c0-.5,0-1-.05-1.43a4,4,0,1,0,4,0C18.5,6.21,14.77,3.33,14.6,3.2a1,1,0,0,0-1.21,1.6C16.06,6.85,17,11.62,17,15Z"/><path d="M60,36H4a1,1,0,0,0,0,2H60A1,1,0,0,0,60,36Z"/></g></svg>