<svg xmlns="http://www.w3.org/2000/svg" viewBox="0 0 64 64"><title>Banana</title><g id="Banana"><path d="M7.43,35.28C4,25.09,2.9,10.69,10.51,3.08,14.64-1,18.77,4.74,19.6,10.52a86.89,86.89,0,0,0,2.71,12.65,14.85,14.85,0,0,0-4.41,10.5C14.32,32.12,10.64,33.07,7.43,35.28Z"/><path d="M61.76,49.38c-1.65-1.66-3.22.82-7.44.82-3.31,0-3.31-1.65-6.61-3.3-4.84-2.43-17.08-4.24-22.95-17.19-3,3.4-1.55,6.07-3.41,7.68a35.9,35.9,0,0,0,4.83,6.34,1,1,0,0,1-1.45,1.37,34.62,34.62,0,0,1-5.17-6.8,5,5,0,0,1-1.41.55A3.41,3.41,0,0,0,16.05,40c-1.21,1.21-2.47,4.42-2,8.38a35.45,35.45,0,0,0,10.52,10C41.09,68.39,55.15,56,55.15,56c1.65-1.65,5,0,6.61-1.65S63.41,51,61.76,49.38Zm-11.57,6a36.86,36.86,0,0,1-19-4.83,1,1,0,0,1,1-1.71,34.87,34.87,0,0,0,18,4.54A1,1,0,0,1,50.19,55.34Z"/><path d="M19.7,37.13a.28.28,0,0,0-.07.09c-1-.51-2.74-.84-5,1.41-2.84,2.84-5.08,12.25,2.45,20.59a1.28,1.28,0,0,1-1.68,1.92C10.9,57.9,6.06,54.85,3.89,52.68c-5.78-5.78-1.65-9.92,1.66-13.22C10,35,15,33.06,19.7,37.13Z"/><path d="M46.05,33.67c-.82,2.48-18.19-9.92-22.32-5.79a12.37,12.37,0,0,0-3.37,8.93.57.57,0,0,0-.18,0,13.31,13.31,0,0,1,3.55-12.26c5.79-5.79,9.1-9.1,14.06-4.14S46.88,31.19,46.05,33.67Z"/></g></svg>