<svg xmlns="http://www.w3.org/2000/svg" viewBox="0 0 64 64"><title>BBQ</title><g id="BBQ"><path d="M56.94,2.94a2,2,0,0,0-2.83,0L51.44,5.61a2,2,0,0,0,0,2.83l1.35,1.35-1.08,1.09,1.42,1.42,1.08-1.09,1.38,1.38a2,2,0,0,0,2.82,0l2.68-2.68a2,2,0,0,0,0-2.82Z"/><path d="M36.44,23.44a2,2,0,0,0-2.83,0l-2.67,2.67a2,2,0,0,0,0,2.83l1.35,1.35c-1.28,1.29-1,1-1.41,1.41l1.42,1.42c.44-.43.15-.13,1.41-1.41l1.38,1.38a2,2,0,0,0,2.82,0l2.68-2.68a2,2,0,0,0,0-2.82Z"/><path d="M40.53,15.53l-3,3,3.26,3.26L39.2,23.38c1.63,1.63,1.35,1.49,1.6,1.24l1.41-1.41L44,25a2.12,2.12,0,0,0,3-3Z"/><path d="M46.51,8.54a6.32,6.32,0,0,0-.65,8.19,8.48,8.48,0,0,0-.66.65l1.42,1.42.65-.65a6.33,6.33,0,0,0,8.23-.65C46.14,8.14,46.61,8.49,46.51,8.54Z"/><path d="M19.53,37.41A2.12,2.12,0,0,0,18,41l1.76,1.76-12,12a5,5,0,1,0,1.42,1.42c12.24-12.23,10.1-10.08,12-12L24.5,47.5l3-3C20.44,37.44,20.69,37.41,19.53,37.41ZM5,62a3,3,0,1,1,3-3A3,3,0,0,1,5,62Z"/><path d="M26,29a6.32,6.32,0,0,0-.65,8.19l-1.15,1.15,1.42,1.42c1.13-1.15,1.05-1.06,1.14-1.15A6.33,6.33,0,0,0,35,38C25.64,28.64,26.11,29,26,29Z"/><path d="M62.29.29,59.7,2.88,61.12,4.3l2.59-2.59A1,1,0,0,0,62.29.29Z"/></g></svg>