<svg xmlns="http://www.w3.org/2000/svg" viewBox="0 0 64 64"><title>Beer</title><g id="Beer"><path d="M15.71,16.31C15.32,15.9,15.27,16,12,16V56H36V16H31a1,1,0,0,0-1,1v6a3,3,0,0,1-6,0V22a1,1,0,0,0-2,0v5a3,3,0,0,1-6,0C16,16.19,16.12,16.7,15.71,16.31Z"/><path d="M41,24V16H38V57a1,1,0,0,1-1,1H11a1,1,0,0,1-1-1V16H7V59a4,4,0,0,0,4,4H37a4,4,0,0,0,4-4V50c6.7,5,16,.08,16-8.29V32.3C57,23.92,47.7,19,41,24ZM53,42a6,6,0,0,1-10.24,4.24A5.94,5.94,0,0,1,41,42V32a6,6,0,0,1,12,0Z"/><path d="M17.23,15c1.08,1.17.77,1.53.77,12a1,1,0,0,0,1.69.71c.42-.4.31-.19.31-5.71a3,3,0,0,1,5.13-2.11A3.76,3.76,0,0,1,26,23a1,1,0,0,0,1.69.71c.44-.42.31-.34.31-6.71a3,3,0,0,1,3-3h7.87A4,4,0,0,0,35,11a4,4,0,0,0-5-3.86A6,6,0,0,0,18.57,4.46,3,3,0,0,0,14,7a5,5,0,0,0-4.58,7C14.56,14,16.23,13.67,17.23,15ZM20,14h6a1,1,0,0,1,0,2H20A1,1,0,0,1,20,14Z"/></g></svg>