<svg xmlns="http://www.w3.org/2000/svg" viewBox="0 0 64 64"><title>Boba</title><g id="Boba"><path d="M40.47,58l2-27H21.58l2,27Zm-13-2a1.5,1.5,0,0,1,0-3A1.5,1.5,0,0,1,27.5,56Zm5,1a1.5,1.5,0,0,1,0-3A1.5,1.5,0,0,1,32.5,57Zm5,0a1.5,1.5,0,0,1,0-3A1.5,1.5,0,0,1,37.5,57Zm0-11a1.5,1.5,0,0,1,0,3A1.5,1.5,0,0,1,37.5,46Zm-2,4a1.5,1.5,0,0,1,0,3A1.5,1.5,0,0,1,35.5,50Zm-3-4a1.5,1.5,0,0,1,0,3A1.5,1.5,0,0,1,32.5,46ZM32,51.5a1.5,1.5,0,0,1-3,0A1.5,1.5,0,0,1,32,51.5ZM28.5,44a1.5,1.5,0,0,1,0,3A1.5,1.5,0,0,1,28.5,44Zm-2,4a1.5,1.5,0,0,1,0,3A1.5,1.5,0,0,1,26.5,48Z"/><path d="M20,63H44l2.84-36H17.16Zm.51-34c25.12,0,23.28-.14,23.71.32s.43-1.43-1.82,29.75a1,1,0,0,1-1,.93H22.6a1,1,0,0,1-1-.93l-2.09-29A1,1,0,0,1,20.51,29Z"/><rect x="15" y="21" width="34" height="4"/><path d="M34,1H30V7h4Z"/><path d="M46.83,19A12,12,0,0,0,35,9c-5.95,0-10.3-.68-14.49,3.51A12,12,0,0,0,17.17,19Z"/></g></svg>