<svg xmlns="http://www.w3.org/2000/svg" viewBox="0 0 64 64"><title>Breackfast</title><g id="Breackfast"><path d="M21,28a5,5,0,1,0,5,5A5,5,0,0,0,21,28Zm0,0a5,5,0,1,0,5,5A5,5,0,0,0,21,28Zm0,0a5,5,0,1,0,5,5A5,5,0,0,0,21,28Zm0,0a5,5,0,1,0,5,5A5,5,0,0,0,21,28Zm0,0a5,5,0,1,0,5,5A5,5,0,0,0,21,28Zm0,0a5,5,0,1,0,5,5A5,5,0,0,0,21,28Zm0,0a5,5,0,1,0,5,5A5,5,0,0,0,21,28Zm0,0a5,5,0,1,0,5,5A5,5,0,0,0,21,28Zm0,0a5,5,0,1,0,5,5A5,5,0,0,0,21,28Zm0,0a5,5,0,1,0,5,5A5,5,0,0,0,21,28Zm0,0a5,5,0,1,0,5,5A5,5,0,0,0,21,28Zm0,0a5,5,0,1,0,5,5A5,5,0,0,0,21,28Zm0,0a5,5,0,1,0,5,5A5,5,0,0,0,21,28Zm0,0a5,5,0,1,0,5,5A5,5,0,0,0,21,28ZM33.38,38.78c-4.33-3.45-2.1-5.56-4.33-12.46-1.31-4-2.53-6.32-8-6.32-7.9,0-11,7.88-11,16,0,11.07,8.08,15,15,15C35.56,51,37.94,42.43,33.38,38.78ZM21,40a7,7,0,1,1,7-7A7,7,0,0,1,21,40Zm0-12a5,5,0,1,0,5,5A5,5,0,0,0,21,28Zm0,0a5,5,0,1,0,5,5A5,5,0,0,0,21,28Zm0,0a5,5,0,1,0,5,5A5,5,0,0,0,21,28Zm0,0a5,5,0,1,0,5,5A5,5,0,0,0,21,28Zm0,0a5,5,0,1,0,5,5A5,5,0,0,0,21,28Zm0,0a5,5,0,1,0,5,5A5,5,0,0,0,21,28Zm0,0a5,5,0,1,0,5,5A5,5,0,0,0,21,28Zm0,0a5,5,0,1,0,5,5A5,5,0,0,0,21,28Zm0,0a5,5,0,1,0,5,5A5,5,0,0,0,21,28Zm0,0a5,5,0,1,0,5,5A5,5,0,0,0,21,28Zm0,0a5,5,0,1,0,5,5A5,5,0,0,0,21,28Zm0,0a5,5,0,1,0,5,5A5,5,0,0,0,21,28Zm0,0a5,5,0,1,0,5,5A5,5,0,0,0,21,28Zm0,0a5,5,0,1,0,5,5A5,5,0,0,0,21,28Zm9.42-13.92A17.93,17.93,0,0,0,20.7,18H21c4.13,0,6.41,1.36,7.79,3.07A4,4,0,0,1,32.12,19,20,20,0,0,1,30.42,14.08ZM21,28a5,5,0,1,0,5,5A5,5,0,0,0,21,28Zm0,0a5,5,0,1,0,5,5A5,5,0,0,0,21,28Zm0,0a5,5,0,1,0,5,5A5,5,0,0,0,21,28Zm0,0a5,5,0,1,0,5,5A5,5,0,0,0,21,28Zm0,0a5,5,0,1,0,5,5A5,5,0,0,0,21,28Zm0,0a5,5,0,1,0,5,5A5,5,0,0,0,21,28Zm0,0a5,5,0,1,0,5,5A5,5,0,0,0,21,28Zm0,0a5,5,0,1,0,5,5A5,5,0,0,0,21,28Zm0,0a5,5,0,1,0,5,5A5,5,0,0,0,21,28Zm0,0a5,5,0,1,0,5,5A5,5,0,0,0,21,28Zm0,0a5,5,0,1,0,5,5A5,5,0,0,0,21,28Zm0,0a5,5,0,1,0,5,5A5,5,0,0,0,21,28Zm0,0a5,5,0,1,0,5,5A5,5,0,0,0,21,28Zm0,0a5,5,0,1,0,5,5A5,5,0,0,0,21,28Zm0,0a5,5,0,1,0,5,5A5,5,0,0,0,21,28ZM33.38,38.78c-4.33-3.45-2.1-5.56-4.33-12.46-1.31-4-2.53-6.32-8-6.32-7.9,0-11,7.88-11,16,0,11.07,8.08,15,15,15C35.56,51,37.94,42.43,33.38,38.78ZM21,40a7,7,0,1,1,7-7A7,7,0,0,1,21,40Zm0-12a5,5,0,1,0,5,5A5,5,0,0,0,21,28Zm0,0a5,5,0,1,0,5,5A5,5,0,0,0,21,28Zm0,0a5,5,0,1,0,5,5A5,5,0,0,0,21,28Zm0,0a5,5,0,1,0,5,5A5,5,0,0,0,21,28Zm0,0a5,5,0,1,0,5,5A5,5,0,0,0,21,28Zm0,0a5,5,0,1,0,5,5A5,5,0,0,0,21,28Zm0,0a5,5,0,1,0,5,5A5,5,0,0,0,21,28Zm0,0a5,5,0,1,0,5,5A5,5,0,0,0,21,28Zm0,0a5,5,0,1,0,5,5A5,5,0,0,0,21,28Zm0,0a5,5,0,1,0,5,5A5,5,0,0,0,21,28Zm0,0a5,5,0,1,0,5,5A5,5,0,0,0,21,28Zm0,0a5,5,0,1,0,5,5A5,5,0,0,0,21,28Zm0,0a5,5,0,1,0,5,5A5,5,0,0,0,21,28Zm29.3,7.85c-8.26-1-14.71-6.24-16-13.16a2,2,0,0,0-3.51-1c-.73.87-.46,1.78-.12,3a18.78,18.78,0,0,0,.61,1.84c2.72,7,9.79,12.2,18.51,13.23C52.41,40.14,52.83,36.08,50.3,35.85Zm-18-3.41c.2,2.09.37,3.2,2.35,4.78a8.25,8.25,0,0,1,0,12.58A17.85,17.85,0,0,0,47.3,41.45,25,25,0,0,1,32.27,32.44ZM21,28a5,5,0,1,0,5,5A5,5,0,0,0,21,28Zm0,0a5,5,0,1,0,5,5A5,5,0,0,0,21,28Zm0,0a5,5,0,1,0,5,5A5,5,0,0,0,21,28Zm0,0a5,5,0,1,0,5,5A5,5,0,0,0,21,28Zm0,0a5,5,0,1,0,5,5A5,5,0,0,0,21,28Zm0,0a5,5,0,1,0,5,5A5,5,0,0,0,21,28Zm0,0a5,5,0,1,0,5,5A5,5,0,0,0,21,28Zm0,0a5,5,0,1,0,5,5A5,5,0,0,0,21,28Zm0,0a5,5,0,1,0,5,5A5,5,0,0,0,21,28Zm0,0a5,5,0,1,0,5,5A5,5,0,0,0,21,28Zm0,0a5,5,0,1,0,5,5A5,5,0,0,0,21,28Zm0,0a5,5,0,1,0,5,5A5,5,0,0,0,21,28ZM33.38,38.78c-4.33-3.45-2.1-5.56-4.33-12.46-1.31-4-2.53-6.32-8-6.32-7.9,0-11,7.88-11,16,0,11.07,8.08,15,15,15C35.56,51,37.94,42.43,33.38,38.78ZM21,40a7,7,0,1,1,7-7A7,7,0,0,1,21,40Zm0-12a5,5,0,1,0,5,5A5,5,0,0,0,21,28Zm0,0a5,5,0,1,0,5,5A5,5,0,0,0,21,28Zm0,0a5,5,0,1,0,5,5A5,5,0,0,0,21,28Zm0,0a5,5,0,1,0,5,5A5,5,0,0,0,21,28Zm0,0a5,5,0,1,0,5,5A5,5,0,0,0,21,28Zm0,0a5,5,0,1,0,5,5A5,5,0,0,0,21,28Zm0,0a5,5,0,1,0,5,5A5,5,0,0,0,21,28Zm0,0a5,5,0,1,0,5,5A5,5,0,0,0,21,28Zm0,0a5,5,0,1,0,5,5A5,5,0,0,0,21,28Zm0,0a5,5,0,1,0,5,5A5,5,0,0,0,21,28Zm0,0a5,5,0,1,0,5,5A5,5,0,0,0,21,28Zm0,0a5,5,0,1,0,5,5A5,5,0,0,0,21,28Zm9.42-13.92A17.93,17.93,0,0,0,20.7,18H21c4.13,0,6.41,1.36,7.79,3.07A4,4,0,0,1,32.12,19,20,20,0,0,1,30.42,14.08ZM21,28a5,5,0,1,0,5,5A5,5,0,0,0,21,28Zm0,0a5,5,0,1,0,5,5A5,5,0,0,0,21,28Zm0,0a5,5,0,1,0,5,5A5,5,0,0,0,21,28Zm0,0a5,5,0,1,0,5,5A5,5,0,0,0,21,28Zm0,0a5,5,0,1,0,5,5A5,5,0,0,0,21,28Zm0,0a5,5,0,1,0,5,5A5,5,0,0,0,21,28Zm0,0a5,5,0,1,0,5,5A5,5,0,0,0,21,28Zm0,0a5,5,0,1,0,5,5A5,5,0,0,0,21,28Zm0,0a5,5,0,1,0,5,5A5,5,0,0,0,21,28Zm0,0a5,5,0,1,0,5,5A5,5,0,0,0,21,28Zm0,0a5,5,0,1,0,5,5A5,5,0,0,0,21,28Zm0,0a5,5,0,1,0,5,5A5,5,0,0,0,21,28Zm0,0a5,5,0,1,0,5,5A5,5,0,0,0,21,28ZM33.38,38.78c-4.33-3.45-2.1-5.56-4.33-12.46-1.31-4-2.53-6.32-8-6.32-7.9,0-11,7.88-11,16,0,11.07,8.08,15,15,15C35.56,51,37.94,42.43,33.38,38.78ZM21,40a7,7,0,1,1,7-7A7,7,0,0,1,21,40Zm0-12a5,5,0,1,0,5,5A5,5,0,0,0,21,28Zm0,0a5,5,0,1,0,5,5A5,5,0,0,0,21,28Zm0,0a5,5,0,1,0,5,5A5,5,0,0,0,21,28Zm0,0a5,5,0,1,0,5,5A5,5,0,0,0,21,28Zm0,0a5,5,0,1,0,5,5A5,5,0,0,0,21,28Zm0,0a5,5,0,1,0,5,5A5,5,0,0,0,21,28Zm0,0a5,5,0,1,0,5,5A5,5,0,0,0,21,28Zm0,0a5,5,0,1,0,5,5A5,5,0,0,0,21,28Zm0,0a5,5,0,1,0,5,5A5,5,0,0,0,21,28Zm0,0a5,5,0,1,0,5,5A5,5,0,0,0,21,28Zm0,0a5,5,0,1,0,5,5A5,5,0,0,0,21,28Zm29.3,7.85c-8.26-1-14.71-6.24-16-13.16a2,2,0,0,0-3.51-1c-.73.87-.46,1.78-.12,3a18.78,18.78,0,0,0,.61,1.84c2.72,7,9.79,12.2,18.51,13.23C52.41,40.14,52.83,36.08,50.3,35.85Zm-18-3.41c.2,2.09.37,3.2,2.35,4.78a8.25,8.25,0,0,1,0,12.58A17.85,17.85,0,0,0,47.3,41.45,25,25,0,0,1,32.27,32.44ZM21,28a5,5,0,1,0,5,5A5,5,0,0,0,21,28Zm0,0a5,5,0,1,0,5,5A5,5,0,0,0,21,28Zm0,0a5,5,0,1,0,5,5A5,5,0,0,0,21,28Zm0,0a5,5,0,1,0,5,5A5,5,0,0,0,21,28Zm0,0a5,5,0,1,0,5,5A5,5,0,0,0,21,28Zm0,0a5,5,0,1,0,5,5A5,5,0,0,0,21,28Zm0,0a5,5,0,1,0,5,5A5,5,0,0,0,21,28Zm0,0a5,5,0,1,0,5,5A5,5,0,0,0,21,28Zm0,0a5,5,0,1,0,5,5A5,5,0,0,0,21,28Zm0,0a5,5,0,1,0,5,5A5,5,0,0,0,21,28ZM33.38,38.78c-4.33-3.45-2.1-5.56-4.33-12.46-1.31-4-2.53-6.32-8-6.32-7.9,0-11,7.88-11,16,0,11.07,8.08,15,15,15C35.56,51,37.94,42.43,33.38,38.78ZM21,40a7,7,0,1,1,7-7A7,7,0,0,1,21,40Zm0-12a5,5,0,1,0,5,5A5,5,0,0,0,21,28Zm0,0a5,5,0,1,0,5,5A5,5,0,0,0,21,28Zm0,0a5,5,0,1,0,5,5A5,5,0,0,0,21,28Zm0,0a5,5,0,1,0,5,5A5,5,0,0,0,21,28Zm0,0a5,5,0,1,0,5,5A5,5,0,0,0,21,28Zm0,0a5,5,0,1,0,5,5A5,5,0,0,0,21,28Zm0,0a5,5,0,1,0,5,5A5,5,0,0,0,21,28Zm0,0a5,5,0,1,0,5,5A5,5,0,0,0,21,28Zm0,0a5,5,0,1,0,5,5A5,5,0,0,0,21,28Zm0,0a5,5,0,1,0,5,5A5,5,0,0,0,21,28Zm9.42-13.92A17.93,17.93,0,0,0,20.7,18H21c4.13,0,6.41,1.36,7.79,3.07A4,4,0,0,1,32.12,19,20,20,0,0,1,30.42,14.08ZM21,28a5,5,0,1,0,5,5A5,5,0,0,0,21,28Zm0,0a5,5,0,1,0,5,5A5,5,0,0,0,21,28Zm9.42-13.92A17.93,17.93,0,0,0,20.7,18H21c4.13,0,6.41,1.36,7.79,3.07A4,4,0,0,1,32.12,19,20,20,0,0,1,30.42,14.08ZM21,28a5,5,0,1,0,5,5A5,5,0,0,0,21,28Zm0,0a5,5,0,1,0,5,5A5,5,0,0,0,21,28Zm0,0a5,5,0,1,0,5,5A5,5,0,0,0,21,28Zm0,0a5,5,0,1,0,5,5A5,5,0,0,0,21,28Zm0,0a5,5,0,1,0,5,5A5,5,0,0,0,21,28Zm0,0a5,5,0,1,0,5,5A5,5,0,0,0,21,28Zm0,0a5,5,0,1,0,5,5A5,5,0,0,0,21,28Zm0,0a5,5,0,1,0,5,5A5,5,0,0,0,21,28Zm0,0a5,5,0,1,0,5,5A5,5,0,0,0,21,28ZM33.38,38.78c-4.33-3.45-2.1-5.56-4.33-12.46-1.31-4-2.53-6.32-8-6.32-7.9,0-11,7.88-11,16,0,11.07,8.08,15,15,15C35.56,51,37.94,42.43,33.38,38.78ZM21,40a7,7,0,1,1,7-7A7,7,0,0,1,21,40Zm0-12a5,5,0,1,0,5,5A5,5,0,0,0,21,28Zm0,0a5,5,0,1,0,5,5A5,5,0,0,0,21,28Zm0,0a5,5,0,1,0,5,5A5,5,0,0,0,21,28Zm0,0a5,5,0,1,0,5,5A5,5,0,0,0,21,28Zm0,0a5,5,0,1,0,5,5A5,5,0,0,0,21,28Zm0,0a5,5,0,1,0,5,5A5,5,0,0,0,21,28Zm0,0a5,5,0,1,0,5,5A5,5,0,0,0,21,28Zm0,0a5,5,0,1,0,5,5A5,5,0,0,0,21,28Zm0,0a5,5,0,1,0,5,5A5,5,0,0,0,21,28Zm29.3,7.85c-8.26-1-14.71-6.24-16-13.16a2,2,0,0,0-3.51-1c-.73.87-.46,1.78-.12,3a18.78,18.78,0,0,0,.61,1.84c2.72,7,9.79,12.2,18.51,13.23C52.41,40.14,52.83,36.08,50.3,35.85Zm-18-3.41c.2,2.09.37,3.2,2.35,4.78a8.25,8.25,0,0,1,0,12.58A17.85,17.85,0,0,0,47.3,41.45,25,25,0,0,1,32.27,32.44ZM21,28a5,5,0,1,0,5,5A5,5,0,0,0,21,28Zm0,0a5,5,0,1,0,5,5A5,5,0,0,0,21,28Zm0,0a5,5,0,1,0,5,5A5,5,0,0,0,21,28Zm0,0a5,5,0,1,0,5,5A5,5,0,0,0,21,28Zm0,0a5,5,0,1,0,5,5A5,5,0,0,0,21,28Zm0,0a5,5,0,1,0,5,5A5,5,0,0,0,21,28Zm0,0a5,5,0,1,0,5,5A5,5,0,0,0,21,28Zm0,0a5,5,0,1,0,5,5A5,5,0,0,0,21,28ZM33.38,38.78c-4.33-3.45-2.1-5.56-4.33-12.46-1.31-4-2.53-6.32-8-6.32-7.9,0-11,7.88-11,16,0,11.07,8.08,15,15,15C35.56,51,37.94,42.43,33.38,38.78ZM21,40a7,7,0,1,1,7-7A7,7,0,0,1,21,40Zm0-12a5,5,0,1,0,5,5A5,5,0,0,0,21,28Zm0,0a5,5,0,1,0,5,5A5,5,0,0,0,21,28Zm0,0a5,5,0,1,0,5,5A5,5,0,0,0,21,28Zm0,0a5,5,0,1,0,5,5A5,5,0,0,0,21,28Zm0,0a5,5,0,1,0,5,5A5,5,0,0,0,21,28Zm0,0a5,5,0,1,0,5,5A5,5,0,0,0,21,28Zm0,0a5,5,0,1,0,5,5A5,5,0,0,0,21,28Zm0,0a5,5,0,1,0,5,5A5,5,0,0,0,21,28Zm9.42-13.92A17.93,17.93,0,0,0,20.7,18H21c4.13,0,6.41,1.36,7.79,3.07A4,4,0,0,1,32.12,19,20,20,0,0,1,30.42,14.08ZM21,28a5,5,0,1,0,5,5A5,5,0,0,0,21,28Zm0,0a5,5,0,1,0,5,5A5,5,0,0,0,21,28Zm9.42-13.92A17.93,17.93,0,0,0,20.7,18H21c4.13,0,6.41,1.36,7.79,3.07A4,4,0,0,1,32.12,19,20,20,0,0,1,30.42,14.08ZM21,28a5,5,0,1,0,5,5A5,5,0,0,0,21,28Zm0,0a5,5,0,1,0,5,5A5,5,0,0,0,21,28Zm0,0a5,5,0,1,0,5,5A5,5,0,0,0,21,28Zm0,0a5,5,0,1,0,5,5A5,5,0,0,0,21,28Zm0,0a5,5,0,1,0,5,5A5,5,0,0,0,21,28Zm0,0a5,5,0,1,0,5,5A5,5,0,0,0,21,28Zm0,0a5,5,0,1,0,5,5A5,5,0,0,0,21,28ZM33.38,38.78c-4.33-3.45-2.1-5.56-4.33-12.46-1.31-4-2.53-6.32-8-6.32-7.9,0-11,7.88-11,16,0,11.07,8.08,15,15,15C35.56,51,37.94,42.43,33.38,38.78ZM21,40a7,7,0,1,1,7-7A7,7,0,0,1,21,40Zm0-12a5,5,0,1,0,5,5A5,5,0,0,0,21,28Zm0,0a5,5,0,1,0,5,5A5,5,0,0,0,21,28Zm0,0a5,5,0,1,0,5,5A5,5,0,0,0,21,28Zm0,0a5,5,0,1,0,5,5A5,5,0,0,0,21,28Zm0,0a5,5,0,1,0,5,5A5,5,0,0,0,21,28Zm0,0a5,5,0,1,0,5,5A5,5,0,0,0,21,28Zm0,0a5,5,0,1,0,5,5A5,5,0,0,0,21,28ZM39.36,15.58a15.26,15.26,0,0,0,7.94,7A17.85,17.85,0,0,0,39.36,15.58ZM50.3,35.85c-8.26-1-14.71-6.24-16-13.16a2,2,0,0,0-3.51-1c-.73.87-.46,1.78-.12,3a18.78,18.78,0,0,0,.61,1.84c2.72,7,9.79,12.2,18.51,13.23C52.41,40.14,52.83,36.08,50.3,35.85ZM39.36,15.58a15.26,15.26,0,0,0,7.94,7A17.85,17.85,0,0,0,39.36,15.58ZM32.27,32.44c.2,2.09.37,3.2,2.35,4.78a8.25,8.25,0,0,1,0,12.58A17.85,17.85,0,0,0,47.3,41.45,25,25,0,0,1,32.27,32.44ZM21,28a5,5,0,1,0,5,5A5,5,0,0,0,21,28Zm0,0a5,5,0,1,0,5,5A5,5,0,0,0,21,28Zm0,0a5,5,0,1,0,5,5A5,5,0,0,0,21,28Zm0,0a5,5,0,1,0,5,5A5,5,0,0,0,21,28Zm0,0a5,5,0,1,0,5,5A5,5,0,0,0,21,28Zm0,0a5,5,0,1,0,5,5A5,5,0,0,0,21,28ZM33.38,38.78c-4.33-3.45-2.1-5.56-4.33-12.46-1.31-4-2.53-6.32-8-6.32-7.9,0-11,7.88-11,16,0,11.07,8.08,15,15,15C35.56,51,37.94,42.43,33.38,38.78ZM21,40a7,7,0,1,1,7-7A7,7,0,0,1,21,40Zm0-12a5,5,0,1,0,5,5A5,5,0,0,0,21,28Zm0,0a5,5,0,1,0,5,5A5,5,0,0,0,21,28Zm0,0a5,5,0,1,0,5,5A5,5,0,0,0,21,28Zm0,0a5,5,0,1,0,5,5A5,5,0,0,0,21,28Zm0,0a5,5,0,1,0,5,5A5,5,0,0,0,21,28Zm0,0a5,5,0,1,0,5,5A5,5,0,0,0,21,28Zm9.42-13.92A17.93,17.93,0,0,0,20.7,18H21c4.13,0,6.41,1.36,7.79,3.07A4,4,0,0,1,32.12,19,20,20,0,0,1,30.42,14.08ZM21,28a5,5,0,1,0,5,5A5,5,0,0,0,21,28Zm0,0a5,5,0,1,0,5,5A5,5,0,0,0,21,28Zm9.42-13.92A17.93,17.93,0,0,0,20.7,18H21c4.13,0,6.41,1.36,7.79,3.07A4,4,0,0,1,32.12,19,20,20,0,0,1,30.42,14.08ZM21,28a5,5,0,1,0,5,5A5,5,0,0,0,21,28Zm0,0a5,5,0,1,0,5,5A5,5,0,0,0,21,28Zm0,0a5,5,0,1,0,5,5A5,5,0,0,0,21,28Zm0,0a5,5,0,1,0,5,5A5,5,0,0,0,21,28Zm0,0a5,5,0,1,0,5,5A5,5,0,0,0,21,28ZM33.38,38.78c-4.33-3.45-2.1-5.56-4.33-12.46-1.31-4-2.53-6.32-8-6.32-7.9,0-11,7.88-11,16,0,11.07,8.08,15,15,15C35.56,51,37.94,42.43,33.38,38.78ZM21,40a7,7,0,1,1,7-7A7,7,0,0,1,21,40Zm0-12a5,5,0,1,0,5,5A5,5,0,0,0,21,28Zm0,0a5,5,0,1,0,5,5A5,5,0,0,0,21,28Zm0,0a5,5,0,1,0,5,5A5,5,0,0,0,21,28Zm0,0a5,5,0,1,0,5,5A5,5,0,0,0,21,28Zm0,0a5,5,0,1,0,5,5A5,5,0,0,0,21,28ZM39.36,15.58a15.26,15.26,0,0,0,7.94,7A17.85,17.85,0,0,0,39.36,15.58ZM50,31.57a25.62,25.62,0,0,1-12.51-5.75c2.24,4.14,6.83,7.15,12.43,8A17.77,17.77,0,0,0,50,31.57Zm2.31-5.72c-9.06-1.11-14.93-7-16-13.16a2,2,0,0,0-4,.33,17.06,17.06,0,0,0,2.9,7.25c2.72,4.36,8.6,8.42,16,9.46C54.87,30.29,54.63,26.11,52.3,25.85Zm-2,10c-8.26-1-14.71-6.24-16-13.16a2,2,0,0,0-3.51-1c-.73.87-.46,1.78-.12,3a18.78,18.78,0,0,0,.61,1.84c2.72,7,9.79,12.2,18.51,13.23C52.41,40.14,52.83,36.08,50.3,35.85ZM39.36,15.58a15.26,15.26,0,0,0,7.94,7A17.85,17.85,0,0,0,39.36,15.58ZM32.27,32.44c.2,2.09.37,3.2,2.35,4.78a8.25,8.25,0,0,1,0,12.58A17.85,17.85,0,0,0,47.3,41.45,25,25,0,0,1,32.27,32.44ZM21,28a5,5,0,1,0,5,5A5,5,0,0,0,21,28Zm0,0a5,5,0,1,0,5,5A5,5,0,0,0,21,28Zm0,0a5,5,0,1,0,5,5A5,5,0,0,0,21,28Zm0,0a5,5,0,1,0,5,5A5,5,0,0,0,21,28ZM33.38,38.78c-4.33-3.45-2.1-5.56-4.33-12.46-1.31-4-2.53-6.32-8-6.32-7.9,0-11,7.88-11,16,0,11.07,8.08,15,15,15C35.56,51,37.94,42.43,33.38,38.78ZM21,40a7,7,0,1,1,7-7A7,7,0,0,1,21,40Zm0-12a5,5,0,1,0,5,5A5,5,0,0,0,21,28Zm0,0a5,5,0,1,0,5,5A5,5,0,0,0,21,28Zm0,0a5,5,0,1,0,5,5A5,5,0,0,0,21,28Zm0,0a5,5,0,1,0,5,5A5,5,0,0,0,21,28Zm9.42-13.92A17.93,17.93,0,0,0,20.7,18H21c4.13,0,6.41,1.36,7.79,3.07A4,4,0,0,1,32.12,19,20,20,0,0,1,30.42,14.08ZM21,28a5,5,0,1,0,5,5A5,5,0,0,0,21,28Zm0,0a5,5,0,1,0,5,5A5,5,0,0,0,21,28Zm9.42-13.92A17.93,17.93,0,0,0,20.7,18H21c4.13,0,6.41,1.36,7.79,3.07A4,4,0,0,1,32.12,19,20,20,0,0,1,30.42,14.08ZM21,28a5,5,0,1,0,5,5A5,5,0,0,0,21,28Zm0,0a5,5,0,1,0,5,5A5,5,0,0,0,21,28Zm0,0a5,5,0,1,0,5,5A5,5,0,0,0,21,28ZM33.38,38.78c-4.33-3.45-2.1-5.56-4.33-12.46-1.31-4-2.53-6.32-8-6.32-7.9,0-11,7.88-11,16,0,11.07,8.08,15,15,15C35.56,51,37.94,42.43,33.38,38.78ZM21,40a7,7,0,1,1,7-7A7,7,0,0,1,21,40Zm0-12a5,5,0,1,0,5,5A5,5,0,0,0,21,28Zm0,0a5,5,0,1,0,5,5A5,5,0,0,0,21,28Zm0,0a5,5,0,1,0,5,5A5,5,0,0,0,21,28ZM39.36,15.58a15.26,15.26,0,0,0,7.94,7A17.85,17.85,0,0,0,39.36,15.58ZM50,31.57a25.62,25.62,0,0,1-12.51-5.75c2.24,4.14,6.83,7.15,12.43,8A17.77,17.77,0,0,0,50,31.57Zm2.31-5.72c-9.06-1.11-14.93-7-16-13.16a2,2,0,0,0-4,.33,17.06,17.06,0,0,0,2.9,7.25c2.72,4.36,8.6,8.42,16,9.46C54.87,30.29,54.63,26.11,52.3,25.85Zm0,0c-9.06-1.11-14.93-7-16-13.16a2,2,0,0,0-4,.33,17.06,17.06,0,0,0,2.9,7.25c2.72,4.36,8.6,8.42,16,9.46C54.87,30.29,54.63,26.11,52.3,25.85Zm-2,10c-8.26-1-14.71-6.24-16-13.16a2,2,0,0,0-3.51-1c-.73.87-.46,1.78-.12,3a18.78,18.78,0,0,0,.61,1.84c2.72,7,9.79,12.2,18.51,13.23C52.41,40.14,52.83,36.08,50.3,35.85ZM50,31.57a25.62,25.62,0,0,1-12.51-5.75c2.24,4.14,6.83,7.15,12.43,8A17.77,17.77,0,0,0,50,31.57Zm-10.63-16a15.26,15.26,0,0,0,7.94,7A17.85,17.85,0,0,0,39.36,15.58ZM32.27,32.44c.2,2.09.37,3.2,2.35,4.78a8.25,8.25,0,0,1,0,12.58A17.85,17.85,0,0,0,47.3,41.45,25,25,0,0,1,32.27,32.44ZM21,28a5,5,0,1,0,5,5A5,5,0,0,0,21,28Zm0,0a5,5,0,1,0,5,5A5,5,0,0,0,21,28ZM33.38,38.78c-4.33-3.45-2.1-5.56-4.33-12.46-1.31-4-2.53-6.32-8-6.32-7.9,0-11,7.88-11,16,0,11.07,8.08,15,15,15C35.56,51,37.94,42.43,33.38,38.78ZM21,40a7,7,0,1,1,7-7A7,7,0,0,1,21,40Zm0-12a5,5,0,1,0,5,5A5,5,0,0,0,21,28Zm0,0a5,5,0,1,0,5,5A5,5,0,0,0,21,28Zm9.42-13.92A17.93,17.93,0,0,0,20.7,18H21c4.13,0,6.41,1.36,7.79,3.07A4,4,0,0,1,32.12,19,20,20,0,0,1,30.42,14.08ZM21,28a5,5,0,1,0,5,5A5,5,0,0,0,21,28Zm0,0a5,5,0,1,0,5,5A5,5,0,0,0,21,28Zm9.42-13.92A17.93,17.93,0,0,0,20.7,18H21c4.13,0,6.41,1.36,7.79,3.07A4,4,0,0,1,32.12,19,20,20,0,0,1,30.42,14.08ZM21,28a5,5,0,1,0,5,5A5,5,0,0,0,21,28ZM33.38,38.78c-4.33-3.45-2.1-5.56-4.33-12.46-1.31-4-2.53-6.32-8-6.32-7.9,0-11,7.88-11,16,0,11.07,8.08,15,15,15C35.56,51,37.94,42.43,33.38,38.78ZM21,40a7,7,0,1,1,7-7A7,7,0,0,1,21,40Zm0-12a5,5,0,1,0,5,5A5,5,0,0,0,21,28Zm11.27,4.44c.2,2.09.37,3.2,2.35,4.78a8.25,8.25,0,0,1,0,12.58A17.85,17.85,0,0,0,47.3,41.45,25,25,0,0,1,32.27,32.44Zm7.09-16.86a15.26,15.26,0,0,0,7.94,7A17.85,17.85,0,0,0,39.36,15.58ZM50,31.57a25.62,25.62,0,0,1-12.51-5.75c2.24,4.14,6.83,7.15,12.43,8A17.77,17.77,0,0,0,50,31.57Zm.31,4.28c-8.26-1-14.71-6.24-16-13.16a2,2,0,0,0-3.51-1c-.73.87-.46,1.78-.12,3a18.78,18.78,0,0,0,.61,1.84c2.72,7,9.79,12.2,18.51,13.23C52.41,40.14,52.83,36.08,50.3,35.85Zm2-10c-9.06-1.11-14.93-7-16-13.16a2,2,0,0,0-4,.33,17.06,17.06,0,0,0,2.9,7.25c2.72,4.36,8.6,8.42,16,9.46C54.87,30.29,54.63,26.11,52.3,25.85Zm0,0c-9.06-1.11-14.93-7-16-13.16a2,2,0,0,0-4,.33,17.06,17.06,0,0,0,2.9,7.25c2.72,4.36,8.6,8.42,16,9.46C54.87,30.29,54.63,26.11,52.3,25.85Zm-2,10c-8.26-1-14.71-6.24-16-13.16a2,2,0,0,0-3.51-1c-.73.87-.46,1.78-.12,3a18.78,18.78,0,0,0,.61,1.84c2.72,7,9.79,12.2,18.51,13.23C52.41,40.14,52.83,36.08,50.3,35.85Zm-.39-2.07A17.77,17.77,0,0,0,50,31.57a25.62,25.62,0,0,1-12.51-5.75C39.72,30,44.31,33,49.91,33.78ZM47.3,22.53a17.85,17.85,0,0,0-7.94-7A15.26,15.26,0,0,0,47.3,22.53Zm-15,9.91c.2,2.09.37,3.2,2.35,4.78a8.25,8.25,0,0,1,0,12.58A17.85,17.85,0,0,0,47.3,41.45,25,25,0,0,1,32.27,32.44Zm1.11,6.34c-4.33-3.45-2.1-5.56-4.33-12.46-1.31-4-2.53-6.32-8-6.32-7.9,0-11,7.88-11,16,0,11.07,8.08,15,15,15C35.56,51,37.94,42.43,33.38,38.78ZM21,40a7,7,0,1,1,7-7A7,7,0,0,1,21,40Zm7.79-18.93A4,4,0,0,1,32.12,19a20,20,0,0,1-1.7-4.93A17.93,17.93,0,0,0,20.7,18H21C25.13,18,27.41,19.36,28.79,21.07ZM21,28a5,5,0,1,0,5,5A5,5,0,0,0,21,28ZM32,1A31,31,0,1,0,63,32,31,31,0,0,0,32,1ZM50,41.82a3.51,3.51,0,0,1-.56,0A19.88,19.88,0,0,1,31.09,52,16.68,16.68,0,0,1,25,53C16.54,53,8,47.74,8,36c0-9.21,3.43-15.53,9.18-17.41a20,20,0,0,1,13.21-6.52,4,4,0,0,1,7.83.24c.05.25.11.5.17.75A19.78,19.78,0,0,1,50.05,23.42a19.59,19.59,0,0,0,2.47.44,4,4,0,0,1,3.48,4,4,4,0,0,1-4,4,17.43,17.43,0,0,1-.14,2.45A4,4,0,0,1,50,41.82Zm2.32-16c-9.06-1.11-14.93-7-16-13.16a2,2,0,0,0-4,.33,17.06,17.06,0,0,0,2.9,7.25c2.72,4.36,8.6,8.42,16,9.46C54.87,30.29,54.63,26.11,52.3,25.85Zm-2,10c-8.26-1-14.71-6.24-16-13.16a2,2,0,0,0-3.51-1c-.73.87-.46,1.78-.12,3a18.78,18.78,0,0,0,.61,1.84c2.72,7,9.79,12.2,18.51,13.23C52.41,40.14,52.83,36.08,50.3,35.85Zm-.39-2.07A17.77,17.77,0,0,0,50,31.57a25.62,25.62,0,0,1-12.51-5.75C39.72,30,44.31,33,49.91,33.78ZM47.3,22.53a17.85,17.85,0,0,0-7.94-7A15.26,15.26,0,0,0,47.3,22.53Zm-15,9.91c.2,2.09.37,3.2,2.35,4.78a8.25,8.25,0,0,1,0,12.58A17.85,17.85,0,0,0,47.3,41.45,25,25,0,0,1,32.27,32.44Zm1.11,6.34c-4.33-3.45-2.1-5.56-4.33-12.46-1.31-4-2.53-6.32-8-6.32-7.9,0-11,7.88-11,16,0,11.07,8.08,15,15,15C35.56,51,37.94,42.43,33.38,38.78ZM21,40a7,7,0,1,1,7-7A7,7,0,0,1,21,40Zm7.79-18.93A4,4,0,0,1,32.12,19a20,20,0,0,1-1.7-4.93A17.93,17.93,0,0,0,20.7,18H21C25.13,18,27.41,19.36,28.79,21.07ZM21,28a5,5,0,1,0,5,5A5,5,0,0,0,21,28Zm0,0a5,5,0,1,0,5,5A5,5,0,0,0,21,28Zm9.42-13.92A17.93,17.93,0,0,0,20.7,18H21c4.13,0,6.41,1.36,7.79,3.07A4,4,0,0,1,32.12,19,20,20,0,0,1,30.42,14.08ZM21,28a5,5,0,1,0,5,5A5,5,0,0,0,21,28ZM33.38,38.78c-4.33-3.45-2.1-5.56-4.33-12.46-1.31-4-2.53-6.32-8-6.32-7.9,0-11,7.88-11,16,0,11.07,8.08,15,15,15C35.56,51,37.94,42.43,33.38,38.78ZM21,40a7,7,0,1,1,7-7A7,7,0,0,1,21,40Zm0-12a5,5,0,1,0,5,5A5,5,0,0,0,21,28Zm11.27,4.44c.2,2.09.37,3.2,2.35,4.78a8.25,8.25,0,0,1,0,12.58A17.85,17.85,0,0,0,47.3,41.45,25,25,0,0,1,32.27,32.44Zm7.09-16.86a15.26,15.26,0,0,0,7.94,7A17.85,17.85,0,0,0,39.36,15.58ZM50,31.57a25.62,25.62,0,0,1-12.51-5.75c2.24,4.14,6.83,7.15,12.43,8A17.77,17.77,0,0,0,50,31.57Zm.31,4.28c-8.26-1-14.71-6.24-16-13.16a2,2,0,0,0-3.51-1c-.73.87-.46,1.78-.12,3a18.78,18.78,0,0,0,.61,1.84c2.72,7,9.79,12.2,18.51,13.23C52.41,40.14,52.83,36.08,50.3,35.85Zm2-10c-9.06-1.11-14.93-7-16-13.16a2,2,0,0,0-4,.33,17.06,17.06,0,0,0,2.9,7.25c2.72,4.36,8.6,8.42,16,9.46C54.87,30.29,54.63,26.11,52.3,25.85Zm0,0c-9.06-1.11-14.93-7-16-13.16a2,2,0,0,0-4,.33,17.06,17.06,0,0,0,2.9,7.25c2.72,4.36,8.6,8.42,16,9.46C54.87,30.29,54.63,26.11,52.3,25.85Zm-2,10c-8.26-1-14.71-6.24-16-13.16a2,2,0,0,0-3.51-1c-.73.87-.46,1.78-.12,3a18.78,18.78,0,0,0,.61,1.84c2.72,7,9.79,12.2,18.51,13.23C52.41,40.14,52.83,36.08,50.3,35.85ZM50,31.57a25.62,25.62,0,0,1-12.51-5.75c2.24,4.14,6.83,7.15,12.43,8A17.77,17.77,0,0,0,50,31.57Zm-10.63-16a15.26,15.26,0,0,0,7.94,7A17.85,17.85,0,0,0,39.36,15.58ZM21,28a5,5,0,1,0,5,5A5,5,0,0,0,21,28Zm0,0a5,5,0,1,0,5,5A5,5,0,0,0,21,28ZM33.38,38.78c-4.33-3.45-2.1-5.56-4.33-12.46-1.31-4-2.53-6.32-8-6.32-7.9,0-11,7.88-11,16,0,11.07,8.08,15,15,15C35.56,51,37.94,42.43,33.38,38.78ZM21,40a7,7,0,1,1,7-7A7,7,0,0,1,21,40Zm0-12a5,5,0,1,0,5,5A5,5,0,0,0,21,28Zm0,0a5,5,0,1,0,5,5A5,5,0,0,0,21,28Zm9.42-13.92A17.93,17.93,0,0,0,20.7,18H21c4.13,0,6.41,1.36,7.79,3.07A4,4,0,0,1,32.12,19,20,20,0,0,1,30.42,14.08ZM21,28a5,5,0,1,0,5,5A5,5,0,0,0,21,28Zm0,0a5,5,0,1,0,5,5A5,5,0,0,0,21,28Zm9.42-13.92A17.93,17.93,0,0,0,20.7,18H21c4.13,0,6.41,1.36,7.79,3.07A4,4,0,0,1,32.12,19,20,20,0,0,1,30.42,14.08ZM21,28a5,5,0,1,0,5,5A5,5,0,0,0,21,28Zm0,0a5,5,0,1,0,5,5A5,5,0,0,0,21,28Zm0,0a5,5,0,1,0,5,5A5,5,0,0,0,21,28ZM33.38,38.78c-4.33-3.45-2.1-5.56-4.33-12.46-1.31-4-2.53-6.32-8-6.32-7.9,0-11,7.88-11,16,0,11.07,8.08,15,15,15C35.56,51,37.94,42.43,33.38,38.78ZM21,40a7,7,0,1,1,7-7A7,7,0,0,1,21,40Zm0-12a5,5,0,1,0,5,5A5,5,0,0,0,21,28Zm0,0a5,5,0,1,0,5,5A5,5,0,0,0,21,28Zm0,0a5,5,0,1,0,5,5A5,5,0,0,0,21,28Zm11.27,4.44c.2,2.09.37,3.2,2.35,4.78a8.25,8.25,0,0,1,0,12.58A17.85,17.85,0,0,0,47.3,41.45,25,25,0,0,1,32.27,32.44Zm7.09-16.86a15.26,15.26,0,0,0,7.94,7A17.85,17.85,0,0,0,39.36,15.58ZM50,31.57a25.62,25.62,0,0,1-12.51-5.75c2.24,4.14,6.83,7.15,12.43,8A17.77,17.77,0,0,0,50,31.57Zm.31,4.28c-8.26-1-14.71-6.24-16-13.16a2,2,0,0,0-3.51-1c-.73.87-.46,1.78-.12,3a18.78,18.78,0,0,0,.61,1.84c2.72,7,9.79,12.2,18.51,13.23C52.41,40.14,52.83,36.08,50.3,35.85Zm2-10c-9.06-1.11-14.93-7-16-13.16a2,2,0,0,0-4,.33,17.06,17.06,0,0,0,2.9,7.25c2.72,4.36,8.6,8.42,16,9.46C54.87,30.29,54.63,26.11,52.3,25.85ZM50,31.57a25.62,25.62,0,0,1-12.51-5.75c2.24,4.14,6.83,7.15,12.43,8A17.77,17.77,0,0,0,50,31.57Zm2.31-5.72c-9.06-1.11-14.93-7-16-13.16a2,2,0,0,0-4,.33,17.06,17.06,0,0,0,2.9,7.25c2.72,4.36,8.6,8.42,16,9.46C54.87,30.29,54.63,26.11,52.3,25.85ZM39.36,15.58a15.26,15.26,0,0,0,7.94,7A17.85,17.85,0,0,0,39.36,15.58ZM21,28a5,5,0,1,0,5,5A5,5,0,0,0,21,28Zm0,0a5,5,0,1,0,5,5A5,5,0,0,0,21,28Zm0,0a5,5,0,1,0,5,5A5,5,0,0,0,21,28Zm0,0a5,5,0,1,0,5,5A5,5,0,0,0,21,28ZM33.38,38.78c-4.33-3.45-2.1-5.56-4.33-12.46-1.31-4-2.53-6.32-8-6.32-7.9,0-11,7.88-11,16,0,11.07,8.08,15,15,15C35.56,51,37.94,42.43,33.38,38.78ZM21,40a7,7,0,1,1,7-7A7,7,0,0,1,21,40Zm0-12a5,5,0,1,0,5,5A5,5,0,0,0,21,28Zm0,0a5,5,0,1,0,5,5A5,5,0,0,0,21,28Zm0,0a5,5,0,1,0,5,5A5,5,0,0,0,21,28Zm0,0a5,5,0,1,0,5,5A5,5,0,0,0,21,28Zm9.42-13.92A17.93,17.93,0,0,0,20.7,18H21c4.13,0,6.41,1.36,7.79,3.07A4,4,0,0,1,32.12,19,20,20,0,0,1,30.42,14.08ZM21,28a5,5,0,1,0,5,5A5,5,0,0,0,21,28Zm0,0a5,5,0,1,0,5,5A5,5,0,0,0,21,28Zm9.42-13.92A17.93,17.93,0,0,0,20.7,18H21c4.13,0,6.41,1.36,7.79,3.07A4,4,0,0,1,32.12,19,20,20,0,0,1,30.42,14.08ZM21,28a5,5,0,1,0,5,5A5,5,0,0,0,21,28Zm0,0a5,5,0,1,0,5,5A5,5,0,0,0,21,28Zm0,0a5,5,0,1,0,5,5A5,5,0,0,0,21,28Zm0,0a5,5,0,1,0,5,5A5,5,0,0,0,21,28Zm0,0a5,5,0,1,0,5,5A5,5,0,0,0,21,28ZM33.38,38.78c-4.33-3.45-2.1-5.56-4.33-12.46-1.31-4-2.53-6.32-8-6.32-7.9,0-11,7.88-11,16,0,11.07,8.08,15,15,15C35.56,51,37.94,42.43,33.38,38.78ZM21,40a7,7,0,1,1,7-7A7,7,0,0,1,21,40Zm0-12a5,5,0,1,0,5,5A5,5,0,0,0,21,28Zm0,0a5,5,0,1,0,5,5A5,5,0,0,0,21,28Zm0,0a5,5,0,1,0,5,5A5,5,0,0,0,21,28Zm0,0a5,5,0,1,0,5,5A5,5,0,0,0,21,28Zm0,0a5,5,0,1,0,5,5A5,5,0,0,0,21,28Zm11.27,4.44c.2,2.09.37,3.2,2.35,4.78a8.25,8.25,0,0,1,0,12.58A17.85,17.85,0,0,0,47.3,41.45,25,25,0,0,1,32.27,32.44Zm7.09-16.86a15.26,15.26,0,0,0,7.94,7A17.85,17.85,0,0,0,39.36,15.58ZM50.3,35.85c-8.26-1-14.71-6.24-16-13.16a2,2,0,0,0-3.51-1c-.73.87-.46,1.78-.12,3a18.78,18.78,0,0,0,.61,1.84c2.72,7,9.79,12.2,18.51,13.23C52.41,40.14,52.83,36.08,50.3,35.85Zm2-10c-9.06-1.11-14.93-7-16-13.16a2,2,0,0,0-4,.33,17.06,17.06,0,0,0,2.9,7.25c2.72,4.36,8.6,8.42,16,9.46C54.87,30.29,54.63,26.11,52.3,25.85ZM39.36,15.58a15.26,15.26,0,0,0,7.94,7A17.85,17.85,0,0,0,39.36,15.58ZM21,28a5,5,0,1,0,5,5A5,5,0,0,0,21,28Zm0,0a5,5,0,1,0,5,5A5,5,0,0,0,21,28Zm0,0a5,5,0,1,0,5,5A5,5,0,0,0,21,28Zm0,0a5,5,0,1,0,5,5A5,5,0,0,0,21,28Zm0,0a5,5,0,1,0,5,5A5,5,0,0,0,21,28Zm0,0a5,5,0,1,0,5,5A5,5,0,0,0,21,28ZM33.38,38.78c-4.33-3.45-2.1-5.56-4.33-12.46-1.31-4-2.53-6.32-8-6.32-7.9,0-11,7.88-11,16,0,11.07,8.08,15,15,15C35.56,51,37.94,42.43,33.38,38.78ZM21,40a7,7,0,1,1,7-7A7,7,0,0,1,21,40Zm0-12a5,5,0,1,0,5,5A5,5,0,0,0,21,28Zm0,0a5,5,0,1,0,5,5A5,5,0,0,0,21,28Zm0,0a5,5,0,1,0,5,5A5,5,0,0,0,21,28Zm0,0a5,5,0,1,0,5,5A5,5,0,0,0,21,28Zm0,0a5,5,0,1,0,5,5A5,5,0,0,0,21,28Zm0,0a5,5,0,1,0,5,5A5,5,0,0,0,21,28Zm9.42-13.92A17.93,17.93,0,0,0,20.7,18H21c4.13,0,6.41,1.36,7.79,3.07A4,4,0,0,1,32.12,19,20,20,0,0,1,30.42,14.08ZM21,28a5,5,0,1,0,5,5A5,5,0,0,0,21,28Zm0,0a5,5,0,1,0,5,5A5,5,0,0,0,21,28Zm9.42-13.92A17.93,17.93,0,0,0,20.7,18H21c4.13,0,6.41,1.36,7.79,3.07A4,4,0,0,1,32.12,19,20,20,0,0,1,30.42,14.08ZM21,28a5,5,0,1,0,5,5A5,5,0,0,0,21,28Zm0,0a5,5,0,1,0,5,5A5,5,0,0,0,21,28Zm0,0a5,5,0,1,0,5,5A5,5,0,0,0,21,28Zm0,0a5,5,0,1,0,5,5A5,5,0,0,0,21,28Zm0,0a5,5,0,1,0,5,5A5,5,0,0,0,21,28Zm0,0a5,5,0,1,0,5,5A5,5,0,0,0,21,28Zm0,0a5,5,0,1,0,5,5A5,5,0,0,0,21,28ZM33.38,38.78c-4.33-3.45-2.1-5.56-4.33-12.46-1.31-4-2.53-6.32-8-6.32-7.9,0-11,7.88-11,16,0,11.07,8.08,15,15,15C35.56,51,37.94,42.43,33.38,38.78ZM21,40a7,7,0,1,1,7-7A7,7,0,0,1,21,40Zm0-12a5,5,0,1,0,5,5A5,5,0,0,0,21,28Zm0,0a5,5,0,1,0,5,5A5,5,0,0,0,21,28Zm0,0a5,5,0,1,0,5,5A5,5,0,0,0,21,28Zm0,0a5,5,0,1,0,5,5A5,5,0,0,0,21,28Zm0,0a5,5,0,1,0,5,5A5,5,0,0,0,21,28Zm0,0a5,5,0,1,0,5,5A5,5,0,0,0,21,28Zm0,0a5,5,0,1,0,5,5A5,5,0,0,0,21,28Zm11.27,4.44c.2,2.09.37,3.2,2.35,4.78a8.25,8.25,0,0,1,0,12.58A17.85,17.85,0,0,0,47.3,41.45,25,25,0,0,1,32.27,32.44Zm18,3.41c-8.26-1-14.71-6.24-16-13.16a2,2,0,0,0-3.51-1c-.73.87-.46,1.78-.12,3a18.78,18.78,0,0,0,.61,1.84c2.72,7,9.79,12.2,18.51,13.23C52.41,40.14,52.83,36.08,50.3,35.85ZM21,28a5,5,0,1,0,5,5A5,5,0,0,0,21,28Zm0,0a5,5,0,1,0,5,5A5,5,0,0,0,21,28Zm0,0a5,5,0,1,0,5,5A5,5,0,0,0,21,28Zm0,0a5,5,0,1,0,5,5A5,5,0,0,0,21,28Zm0,0a5,5,0,1,0,5,5A5,5,0,0,0,21,28Zm0,0a5,5,0,1,0,5,5A5,5,0,0,0,21,28Zm0,0a5,5,0,1,0,5,5A5,5,0,0,0,21,28Zm0,0a5,5,0,1,0,5,5A5,5,0,0,0,21,28ZM33.38,38.78c-4.33-3.45-2.1-5.56-4.33-12.46-1.31-4-2.53-6.32-8-6.32-7.9,0-11,7.88-11,16,0,11.07,8.08,15,15,15C35.56,51,37.94,42.43,33.38,38.78ZM21,40a7,7,0,1,1,7-7A7,7,0,0,1,21,40Zm0-12a5,5,0,1,0,5,5A5,5,0,0,0,21,28Zm0,0a5,5,0,1,0,5,5A5,5,0,0,0,21,28Zm0,0a5,5,0,1,0,5,5A5,5,0,0,0,21,28Zm0,0a5,5,0,1,0,5,5A5,5,0,0,0,21,28Zm0,0a5,5,0,1,0,5,5A5,5,0,0,0,21,28Zm0,0a5,5,0,1,0,5,5A5,5,0,0,0,21,28Zm0,0a5,5,0,1,0,5,5A5,5,0,0,0,21,28Zm0,0a5,5,0,1,0,5,5A5,5,0,0,0,21,28Zm9.42-13.92A17.93,17.93,0,0,0,20.7,18H21c4.13,0,6.41,1.36,7.79,3.07A4,4,0,0,1,32.12,19,20,20,0,0,1,30.42,14.08ZM21,28a5,5,0,1,0,5,5A5,5,0,0,0,21,28Zm0,0a5,5,0,1,0,5,5A5,5,0,0,0,21,28Zm9.42-13.92A17.93,17.93,0,0,0,20.7,18H21c4.13,0,6.41,1.36,7.79,3.07A4,4,0,0,1,32.12,19,20,20,0,0,1,30.42,14.08ZM21,28a5,5,0,1,0,5,5A5,5,0,0,0,21,28Zm0,0a5,5,0,1,0,5,5A5,5,0,0,0,21,28Zm0,0a5,5,0,1,0,5,5A5,5,0,0,0,21,28Zm0,0a5,5,0,1,0,5,5A5,5,0,0,0,21,28Zm0,0a5,5,0,1,0,5,5A5,5,0,0,0,21,28Zm0,0a5,5,0,1,0,5,5A5,5,0,0,0,21,28Zm0,0a5,5,0,1,0,5,5A5,5,0,0,0,21,28Zm0,0a5,5,0,1,0,5,5A5,5,0,0,0,21,28Zm0,0a5,5,0,1,0,5,5A5,5,0,0,0,21,28ZM33.38,38.78c-4.33-3.45-2.1-5.56-4.33-12.46-1.31-4-2.53-6.32-8-6.32-7.9,0-11,7.88-11,16,0,11.07,8.08,15,15,15C35.56,51,37.94,42.43,33.38,38.78ZM21,40a7,7,0,1,1,7-7A7,7,0,0,1,21,40Zm0-12a5,5,0,1,0,5,5A5,5,0,0,0,21,28Zm0,0a5,5,0,1,0,5,5A5,5,0,0,0,21,28Zm0,0a5,5,0,1,0,5,5A5,5,0,0,0,21,28Zm0,0a5,5,0,1,0,5,5A5,5,0,0,0,21,28Zm0,0a5,5,0,1,0,5,5A5,5,0,0,0,21,28Zm0,0a5,5,0,1,0,5,5A5,5,0,0,0,21,28Zm0,0a5,5,0,1,0,5,5A5,5,0,0,0,21,28Zm0,0a5,5,0,1,0,5,5A5,5,0,0,0,21,28Zm0,0a5,5,0,1,0,5,5A5,5,0,0,0,21,28Zm11.27,4.44c.2,2.09.37,3.2,2.35,4.78a8.25,8.25,0,0,1,0,12.58A17.85,17.85,0,0,0,47.3,41.45,25,25,0,0,1,32.27,32.44Zm18,3.41c-8.26-1-14.71-6.24-16-13.16a2,2,0,0,0-3.51-1c-.73.87-.46,1.78-.12,3a18.78,18.78,0,0,0,.61,1.84c2.72,7,9.79,12.2,18.51,13.23C52.41,40.14,52.83,36.08,50.3,35.85ZM21,28a5,5,0,1,0,5,5A5,5,0,0,0,21,28Zm0,0a5,5,0,1,0,5,5A5,5,0,0,0,21,28Zm0,0a5,5,0,1,0,5,5A5,5,0,0,0,21,28Zm0,0a5,5,0,1,0,5,5A5,5,0,0,0,21,28Zm0,0a5,5,0,1,0,5,5A5,5,0,0,0,21,28Zm0,0a5,5,0,1,0,5,5A5,5,0,0,0,21,28Zm0,0a5,5,0,1,0,5,5A5,5,0,0,0,21,28Zm0,0a5,5,0,1,0,5,5A5,5,0,0,0,21,28Zm0,0a5,5,0,1,0,5,5A5,5,0,0,0,21,28Zm0,0a5,5,0,1,0,5,5A5,5,0,0,0,21,28ZM33.38,38.78c-4.33-3.45-2.1-5.56-4.33-12.46-1.31-4-2.53-6.32-8-6.32-7.9,0-11,7.88-11,16,0,11.07,8.08,15,15,15C35.56,51,37.94,42.43,33.38,38.78ZM21,40a7,7,0,1,1,7-7A7,7,0,0,1,21,40Zm0-12a5,5,0,1,0,5,5A5,5,0,0,0,21,28Zm0,0a5,5,0,1,0,5,5A5,5,0,0,0,21,28Zm0,0a5,5,0,1,0,5,5A5,5,0,0,0,21,28Zm0,0a5,5,0,1,0,5,5A5,5,0,0,0,21,28Zm0,0a5,5,0,1,0,5,5A5,5,0,0,0,21,28Zm0,0a5,5,0,1,0,5,5A5,5,0,0,0,21,28Zm0,0a5,5,0,1,0,5,5A5,5,0,0,0,21,28Zm0,0a5,5,0,1,0,5,5A5,5,0,0,0,21,28Zm0,0a5,5,0,1,0,5,5A5,5,0,0,0,21,28Zm0,0a5,5,0,1,0,5,5A5,5,0,0,0,21,28Zm9.42-13.92A17.93,17.93,0,0,0,20.7,18H21c4.13,0,6.41,1.36,7.79,3.07A4,4,0,0,1,32.12,19,20,20,0,0,1,30.42,14.08ZM21,28a5,5,0,1,0,5,5A5,5,0,0,0,21,28Zm0,0a5,5,0,1,0,5,5A5,5,0,0,0,21,28Zm9.42-13.92A17.93,17.93,0,0,0,20.7,18H21c4.13,0,6.41,1.36,7.79,3.07A4,4,0,0,1,32.12,19,20,20,0,0,1,30.42,14.08ZM21,28a5,5,0,1,0,5,5A5,5,0,0,0,21,28Zm0,0a5,5,0,1,0,5,5A5,5,0,0,0,21,28Zm0,0a5,5,0,1,0,5,5A5,5,0,0,0,21,28Zm0,0a5,5,0,1,0,5,5A5,5,0,0,0,21,28Zm0,0a5,5,0,1,0,5,5A5,5,0,0,0,21,28Zm0,0a5,5,0,1,0,5,5A5,5,0,0,0,21,28Zm0,0a5,5,0,1,0,5,5A5,5,0,0,0,21,28Zm0,0a5,5,0,1,0,5,5A5,5,0,0,0,21,28Zm0,0a5,5,0,1,0,5,5A5,5,0,0,0,21,28Zm0,0a5,5,0,1,0,5,5A5,5,0,0,0,21,28Zm0,0a5,5,0,1,0,5,5A5,5,0,0,0,21,28ZM33.38,38.78c-4.33-3.45-2.1-5.56-4.33-12.46-1.31-4-2.53-6.32-8-6.32-7.9,0-11,7.88-11,16,0,11.07,8.08,15,15,15C35.56,51,37.94,42.43,33.38,38.78ZM21,40a7,7,0,1,1,7-7A7,7,0,0,1,21,40Zm0-12a5,5,0,1,0,5,5A5,5,0,0,0,21,28Zm0,0a5,5,0,1,0,5,5A5,5,0,0,0,21,28Zm0,0a5,5,0,1,0,5,5A5,5,0,0,0,21,28Zm0,0a5,5,0,1,0,5,5A5,5,0,0,0,21,28Zm0,0a5,5,0,1,0,5,5A5,5,0,0,0,21,28Zm0,0a5,5,0,1,0,5,5A5,5,0,0,0,21,28Zm0,0a5,5,0,1,0,5,5A5,5,0,0,0,21,28Zm0,0a5,5,0,1,0,5,5A5,5,0,0,0,21,28Zm0,0a5,5,0,1,0,5,5A5,5,0,0,0,21,28Zm0,0a5,5,0,1,0,5,5A5,5,0,0,0,21,28Zm0,0a5,5,0,1,0,5,5A5,5,0,0,0,21,28Zm11.27,4.44c.2,2.09.37,3.2,2.35,4.78a8.25,8.25,0,0,1,0,12.58A17.85,17.85,0,0,0,47.3,41.45,25,25,0,0,1,32.27,32.44Zm18,3.41c-8.26-1-14.71-6.24-16-13.16a2,2,0,0,0-3.51-1c-.73.87-.46,1.78-.12,3a18.78,18.78,0,0,0,.61,1.84c2.72,7,9.79,12.2,18.51,13.23C52.41,40.14,52.83,36.08,50.3,35.85ZM21,28a5,5,0,1,0,5,5A5,5,0,0,0,21,28Zm0,0a5,5,0,1,0,5,5A5,5,0,0,0,21,28Zm0,0a5,5,0,1,0,5,5A5,5,0,0,0,21,28Zm0,0a5,5,0,1,0,5,5A5,5,0,0,0,21,28Zm0,0a5,5,0,1,0,5,5A5,5,0,0,0,21,28Zm0,0a5,5,0,1,0,5,5A5,5,0,0,0,21,28Zm0,0a5,5,0,1,0,5,5A5,5,0,0,0,21,28Zm0,0a5,5,0,1,0,5,5A5,5,0,0,0,21,28Zm0,0a5,5,0,1,0,5,5A5,5,0,0,0,21,28Zm0,0a5,5,0,1,0,5,5A5,5,0,0,0,21,28Zm0,0a5,5,0,1,0,5,5A5,5,0,0,0,21,28Zm0,0a5,5,0,1,0,5,5A5,5,0,0,0,21,28ZM33.38,38.78c-4.33-3.45-2.1-5.56-4.33-12.46-1.31-4-2.53-6.32-8-6.32-7.9,0-11,7.88-11,16,0,11.07,8.08,15,15,15C35.56,51,37.94,42.43,33.38,38.78ZM21,40a7,7,0,1,1,7-7A7,7,0,0,1,21,40Zm0-12a5,5,0,1,0,5,5A5,5,0,0,0,21,28Zm0,0a5,5,0,1,0,5,5A5,5,0,0,0,21,28Zm0,0a5,5,0,1,0,5,5A5,5,0,0,0,21,28Zm0,0a5,5,0,1,0,5,5A5,5,0,0,0,21,28Zm0,0a5,5,0,1,0,5,5A5,5,0,0,0,21,28Zm0,0a5,5,0,1,0,5,5A5,5,0,0,0,21,28Zm0,0a5,5,0,1,0,5,5A5,5,0,0,0,21,28Zm0,0a5,5,0,1,0,5,5A5,5,0,0,0,21,28Zm0,0a5,5,0,1,0,5,5A5,5,0,0,0,21,28Zm0,0a5,5,0,1,0,5,5A5,5,0,0,0,21,28Zm0,0a5,5,0,1,0,5,5A5,5,0,0,0,21,28Zm0,0a5,5,0,1,0,5,5A5,5,0,0,0,21,28Zm0,0a5,5,0,1,0,5,5A5,5,0,0,0,21,28Zm0,0a5,5,0,1,0,5,5A5,5,0,0,0,21,28Zm9.42-13.92A17.93,17.93,0,0,0,20.7,18H21c4.13,0,6.41,1.36,7.79,3.07A4,4,0,0,1,32.12,19,20,20,0,0,1,30.42,14.08ZM21,28a5,5,0,1,0,5,5A5,5,0,0,0,21,28Zm0,0a5,5,0,1,0,5,5A5,5,0,0,0,21,28Zm0,0a5,5,0,1,0,5,5A5,5,0,0,0,21,28Zm0,0a5,5,0,1,0,5,5A5,5,0,0,0,21,28Zm0,0a5,5,0,1,0,5,5A5,5,0,0,0,21,28Zm0,0a5,5,0,1,0,5,5A5,5,0,0,0,21,28Zm0,0a5,5,0,1,0,5,5A5,5,0,0,0,21,28Zm0,0a5,5,0,1,0,5,5A5,5,0,0,0,21,28Zm0,0a5,5,0,1,0,5,5A5,5,0,0,0,21,28Zm0,0a5,5,0,1,0,5,5A5,5,0,0,0,21,28Zm0,0a5,5,0,1,0,5,5A5,5,0,0,0,21,28Zm0,0a5,5,0,1,0,5,5A5,5,0,0,0,21,28Zm0,0a5,5,0,1,0,5,5A5,5,0,0,0,21,28ZM33.38,38.78c-4.33-3.45-2.1-5.56-4.33-12.46-1.31-4-2.53-6.32-8-6.32-7.9,0-11,7.88-11,16,0,11.07,8.08,15,15,15C35.56,51,37.94,42.43,33.38,38.78ZM21,40a7,7,0,1,1,7-7A7,7,0,0,1,21,40Zm0-12a5,5,0,1,0,5,5A5,5,0,0,0,21,28Zm0,0a5,5,0,1,0,5,5A5,5,0,0,0,21,28Zm0,0a5,5,0,1,0,5,5A5,5,0,0,0,21,28Zm0,0a5,5,0,1,0,5,5A5,5,0,0,0,21,28Zm0,0a5,5,0,1,0,5,5A5,5,0,0,0,21,28Zm0,0a5,5,0,1,0,5,5A5,5,0,0,0,21,28Zm0,0a5,5,0,1,0,5,5A5,5,0,0,0,21,28Zm0,0a5,5,0,1,0,5,5A5,5,0,0,0,21,28Zm0,0a5,5,0,1,0,5,5A5,5,0,0,0,21,28Zm0,0a5,5,0,1,0,5,5A5,5,0,0,0,21,28Zm0,0a5,5,0,1,0,5,5A5,5,0,0,0,21,28Zm0,0a5,5,0,1,0,5,5A5,5,0,0,0,21,28Zm0,0a5,5,0,1,0,5,5A5,5,0,0,0,21,28Zm0,0a5,5,0,1,0,5,5A5,5,0,0,0,21,28Zm0,0a5,5,0,1,0,5,5A5,5,0,0,0,21,28Zm9.42-13.92A17.93,17.93,0,0,0,20.7,18H21c4.13,0,6.41,1.36,7.79,3.07A4,4,0,0,1,32.12,19,20,20,0,0,1,30.42,14.08ZM21,28a5,5,0,1,0,5,5A5,5,0,0,0,21,28Zm0,0a5,5,0,1,0,5,5A5,5,0,0,0,21,28Zm0,0a5,5,0,1,0,5,5A5,5,0,0,0,21,28Zm0,0a5,5,0,1,0,5,5A5,5,0,0,0,21,28Zm0,0a5,5,0,1,0,5,5A5,5,0,0,0,21,28Zm0,0a5,5,0,1,0,5,5A5,5,0,0,0,21,28Zm0,0a5,5,0,1,0,5,5A5,5,0,0,0,21,28Zm0,0a5,5,0,1,0,5,5A5,5,0,0,0,21,28Zm0,0a5,5,0,1,0,5,5A5,5,0,0,0,21,28Zm0,0a5,5,0,1,0,5,5A5,5,0,0,0,21,28Zm0,0a5,5,0,1,0,5,5A5,5,0,0,0,21,28Zm0,0a5,5,0,1,0,5,5A5,5,0,0,0,21,28Zm0,0a5,5,0,1,0,5,5A5,5,0,0,0,21,28Zm0,0a5,5,0,1,0,5,5A5,5,0,0,0,21,28ZM33.38,38.78c-4.33-3.45-2.1-5.56-4.33-12.46-1.31-4-2.53-6.32-8-6.32-7.9,0-11,7.88-11,16,0,11.07,8.08,15,15,15C35.56,51,37.94,42.43,33.38,38.78ZM21,40a7,7,0,1,1,7-7A7,7,0,0,1,21,40Zm0-12a5,5,0,1,0,5,5A5,5,0,0,0,21,28Zm0,0a5,5,0,1,0,5,5A5,5,0,0,0,21,28Zm0,0a5,5,0,1,0,5,5A5,5,0,0,0,21,28Zm0,0a5,5,0,1,0,5,5A5,5,0,0,0,21,28Zm0,0a5,5,0,1,0,5,5A5,5,0,0,0,21,28Zm0,0a5,5,0,1,0,5,5A5,5,0,0,0,21,28Zm0,0a5,5,0,1,0,5,5A5,5,0,0,0,21,28Zm0,0a5,5,0,1,0,5,5A5,5,0,0,0,21,28Zm0,0a5,5,0,1,0,5,5A5,5,0,0,0,21,28Zm0,0a5,5,0,1,0,5,5A5,5,0,0,0,21,28Zm0,0a5,5,0,1,0,5,5A5,5,0,0,0,21,28Zm0,0a5,5,0,1,0,5,5A5,5,0,0,0,21,28Zm0,0a5,5,0,1,0,5,5A5,5,0,0,0,21,28Zm0,0a5,5,0,1,0,5,5A5,5,0,0,0,21,28Zm0,0a5,5,0,1,0,5,5A5,5,0,0,0,21,28Z"/><path d="M31,25.68l-.31-.92C31,26.16,31.54,27.46,31,25.68Z"/><path d="M29.05,26.32l-.37-1.13C29,26.48,29.71,28.37,29.05,26.32Zm6.13-6.05c.2.32.43.63.66.93A4.12,4.12,0,0,0,35.18,20.27Z"/><path d="M33.61,21.52c.15.24.32.47.49.69A1.81,1.81,0,0,0,33.61,21.52Z"/></g></svg>