<svg xmlns="http://www.w3.org/2000/svg" viewBox="0 0 64 64"><title>Bread</title><g id="Bread"><path d="M18,21C9.37,21,5,22,5,24a3,3,0,0,0,.72,2.25C8.58,30.49,8,32,8,48c0,.79.21,1,1,1H27c.79,0,1-.21,1-1,0-15.8-.59-17.49,2.28-21.75A3,3,0,0,0,31,24C31,22,26.63,21,18,21Z"/><path d="M18,17c-6,0-17,0-17,7,0,5,3,4,3,10V48a4.72,4.72,0,0,0,5,5H27a4.72,4.72,0,0,0,5-5V34c0-6,3-5,3-10C35,17,24,17,18,17ZM31.94,27.36C29.5,31,30,31.67,30,48a2.73,2.73,0,0,1-3,3H9a2.73,2.73,0,0,1-3-3V34c0-6.4-3-6.11-3-10,0-5,10.13-5,15-5s15,0,15,5A4.9,4.9,0,0,1,31.94,27.36Z"/><path d="M46,17H32.2C35,18.3,37,20.45,37,24c0,5.69-3,4.82-3,10V48a7,7,0,0,1-1.92,5H55a4.72,4.72,0,0,0,5-5V34c0-6,3-5,3-10C63,17,52,17,46,17Zm2,15H38a1,1,0,0,1,0-2H48A1,1,0,0,1,48,32Zm8,0H52a1,1,0,0,1,0-2h4A1,1,0,0,1,56,32Z"/></g></svg>