<svg xmlns="http://www.w3.org/2000/svg" viewBox="0 0 64 64"><title>Burger</title><g id="Burger"><path d="M4,41c60.74,0,56.86.38,58.12-.88A3,3,0,0,0,60,35H44.83l-5.2,5.19L16.78,35H4a3,3,0,0,0,0,6Z"/><path d="M52.61,48.68a3.34,3.34,0,0,0-4,0,7.19,7.19,0,0,1-8.36,0,3.34,3.34,0,0,0-4,0,7.21,7.21,0,0,1-8.36,0,3.34,3.34,0,0,0-4,0,7.21,7.21,0,0,1-8.36,0,3.08,3.08,0,0,0-2-.68,3.08,3.08,0,0,0-2,.68,7.18,7.18,0,0,1-8.35,0A12,12,0,0,0,15,60H49A12,12,0,0,0,61,48.68,7.21,7.21,0,0,1,52.61,48.68Z"/><path d="M59.07,29H4.93c-2.6,0-2.53,4,0,4H17l22,5,5-5H59.07C61.64,33,61.65,29,59.07,29Z"/><path d="M61.42,43H2.58a1.59,1.59,0,0,0-.31,3.14C4.18,46.59,4.59,48,7.19,48c3.1,0,3.1-2,6.2-2s3.1,2,6.2,2,3.1-2,6.2-2,3.1,2,6.2,2,3.1-2,6.2-2,3.1,2,6.19,2,3.11-2,6.21-2,3.1,2,6.2,2c2.61,0,3-1.41,4.94-1.86A1.59,1.59,0,0,0,61.42,43Z"/><path d="M6.07,27H57.93A4.07,4.07,0,0,0,62,22.93,18.94,18.94,0,0,0,43.07,4H20.93A19,19,0,0,0,2,22.93,4.07,4.07,0,0,0,6.07,27ZM52,15a1,1,0,0,1,0,2A1,1,0,0,1,52,15ZM48,8a1,1,0,0,1,0,2A1,1,0,0,1,48,8Zm-4,7a1,1,0,0,1,0,2A1,1,0,0,1,44,15ZM40,8a1,1,0,0,1,0,2A1,1,0,0,1,40,8Zm-4,7a1,1,0,0,1,0,2A1,1,0,0,1,36,15ZM32,8a1,1,0,0,1,0,2A1,1,0,0,1,32,8Zm-4,7a1,1,0,0,1,0,2A1,1,0,0,1,28,15ZM24,8a1,1,0,0,1,0,2A1,1,0,0,1,24,8Zm-4,7a1,1,0,0,1,0,2A1,1,0,0,1,20,15ZM16,8a1,1,0,0,1,0,2A1,1,0,0,1,16,8Zm-4,7a1,1,0,0,1,0,2A1,1,0,0,1,12,15Z"/></g></svg>