<svg xmlns="http://www.w3.org/2000/svg" viewBox="0 0 64 64"><title>Burrito</title><g id="Burrito"><path d="M16,14V60a28.31,28.31,0,0,0,14.19-3.73c-13.54-9.91-13.64-28.5,0-38.54A28.35,28.35,0,0,0,16,14Zm5,38a1,1,0,0,1-2,0A1,1,0,0,1,21,52Zm2-32a1,1,0,0,1,0,2A1,1,0,0,1,23,20Z"/><path d="M22,37c0,12.83,11.82,23,26,23V14C33.85,14,22,24.14,22,37Zm8,6a1,1,0,0,1,0-2A1,1,0,0,1,30,43Zm2-12a1,1,0,0,1,0-2A1,1,0,0,1,32,31Zm7,22a1,1,0,0,1,0-2A1,1,0,0,1,39,53Zm4-11a1,1,0,0,1,0-2A1,1,0,0,1,43,42Zm1-17a1,1,0,0,1-2,0A1,1,0,0,1,44,25Z"/><path d="M19.32,61.83c6.43,1.56,18.92,1.56,25.36,0A29.6,29.6,0,0,1,32,57.52,30.19,30.19,0,0,1,19.32,61.83Z"/><path d="M50,8.45A2.06,2.06,0,0,1,48.86,6.3a2.93,2.93,0,0,0-3.2-3.15,2.13,2.13,0,0,1-2.17-.9C42.36.48,39.61.82,38.16,1.79a2,2,0,0,1-2.29-.12,2.94,2.94,0,0,0-3.46-.2,2.13,2.13,0,0,1-2.3.05A3.69,3.69,0,0,0,28,1a2.63,2.63,0,0,0-2,1.18,1,1,0,0,1-1.58-.06A2.74,2.74,0,0,0,22,1c-2.85,0-1.95,3.11-4.67,2.74A2.43,2.43,0,0,0,14.79,7.1a2,2,0,0,1-.9,2.42c-2,1.2,0,3.69.13,3.63A1,1,0,0,1,15,12a35,35,0,0,1,4.25.17,13,13,0,0,1,4.57-3.35c.2-.06-.13.26,2-2.11a11,11,0,0,1,19,5.39c0,.21-.3-.1,4.17-.1a1,1,0,0,1,1,.84h0A3.67,3.67,0,0,0,51,10,1.69,1.69,0,0,0,50,8.45Z"/><path d="M37.65,13.77a28.51,28.51,0,0,1,5.21-1.33A9,9,0,0,0,27.28,8,11,11,0,0,1,37.65,13.77Z"/><path d="M21.75,12.53a29.51,29.51,0,0,1,10.26,4c3.55-2.22,3.89-1.73,3.7-2.11C33.23,9.76,26.14,8.26,21.75,12.53Z"/></g></svg>