<svg xmlns="http://www.w3.org/2000/svg" viewBox="0 0 64 64"><title>Cheese cake</title><g id="Cheese_cake" data-name="Cheese cake"><polygon points="1 51 1 52 18 55 20 57 44 57 46 55 63 52 63 51 1 51"/><path d="M49,33.58a2.19,2.19,0,0,1,1.5-2.08c2.34-.78,1.82-4.5-.69-4.5H48a3,3,0,0,0-3,3V43a3,3,0,0,1-3,3H12v3H49Z"/><path d="M43,30H14a2,2,0,0,0-2,2v1H43Z"/><path d="M43,43V35H12v9H42A1,1,0,0,0,43,43ZM17,42a1,1,0,0,1,0-2A1,1,0,0,1,17,42Zm5-3a1,1,0,0,1,0-2A1,1,0,0,1,22,39Zm5,3a1,1,0,0,1,0-2A1,1,0,0,1,27,42Zm5-3a1,1,0,0,1,0-2A1,1,0,0,1,32,39Zm5,3a1,1,0,0,1,0-2A1,1,0,0,1,37,42Z"/><path d="M34.45,18.54c.83-2.56,3.16-6.36,9.73-7.55a1,1,0,0,0-.36-2C30.85,11.38,32,23.28,32,21a1,1,0,1,1-2,0,11.35,11.35,0,0,1,.5-2.81,6,6,0,1,0,4,.35Z"/></g></svg>