<svg xmlns="http://www.w3.org/2000/svg" viewBox="0 0 64 64"><title>Cheese</title><g id="Cheese"><circle cx="11" cy="43" r="3"/><circle cx="38" cy="46" r="3"/><circle cx="25" cy="36" r="2"/><path d="M48.81,30c-1.47,4-10.15,4-11.62,0H1V55H18a4,4,0,0,1,8,0H63V30ZM11,48a5,5,0,1,1,5-5A5,5,0,0,1,11,48Zm14-8a4,4,0,1,1,4-4A4,4,0,0,1,25,40ZM38,51a5,5,0,1,1,5-5A5,5,0,0,1,38,51Zm15-6a6,6,0,1,1,6-6A6,6,0,0,1,53,45Z"/><circle cx="53" cy="39" r="4"/><path d="M39.61,30c2.9,2.35,9.4.08,6.78-2C43.49,25.65,37,27.92,39.61,30Z"/><circle cx="47" cy="17" r="2"/><path d="M48.81,28H63c-.56-7.6-7.48-15.28-16-19L28.84,16.89a4,4,0,0,1-7.27,3.16L3.3,28H37.19C38.66,24,47.34,24,48.81,28ZM47,13a4,4,0,1,1-4,4A4,4,0,0,1,47,13Z"/></g></svg>