<svg xmlns="http://www.w3.org/2000/svg" viewBox="0 0 64 64"><title>Chocolate</title><g id="Chocolate"><path d="M54.22,19.74A4.6,4.6,0,0,0,50,17c-7.13,2.13-27.26,11.18-36,13a3.53,3.53,0,0,0-3.49,3L9,42c3.34,0,6.63-6,10-8a5.38,5.38,0,0,0,3,1.69c3.74.44,6-5.69,6-5.69s3,6,7,6c0-4.94,4.9-9,9.37-11A11.09,11.09,0,0,0,57,26Z"/><path d="M34,20.91V18H30v4.49C30.93,22.13,32.64,21.46,34,20.91Z"/><rect x="20" y="18" width="4" height="6"/><rect x="30" y="6" width="4" height="6"/><rect x="20" y="6" width="4" height="6"/><path d="M19,26a1,1,0,0,1-1-1V17a1,1,0,0,1,1-1h6a1,1,0,0,1,1,1v7l2-.76V17a1,1,0,0,1,1-1h6a1,1,0,0,1,1,1v3.13l2-.8V17a1,1,0,0,1,1-1c6.6,0,6.36-.12,6.75.34,1.24-.46,2.33-.84,3.25-1.13V1H15V27.71c1.6-.41,3.5-1,5.55-1.71ZM38,5a1,1,0,0,1,1-1h6a1,1,0,0,1,1,1v8a1,1,0,0,1-1,1H39a1,1,0,0,1-1-1ZM28,5a1,1,0,0,1,1-1h6a1,1,0,0,1,1,1v8a1,1,0,0,1-1,1H29a1,1,0,0,1-1-1ZM18,5a1,1,0,0,1,1-1h6a1,1,0,0,1,1,1v8a1,1,0,0,1-1,1H19a1,1,0,0,1-1-1Z"/><rect x="40" y="6" width="4" height="6"/><path d="M37,38c-2.57,0-5.27.44-8.81-4-1.25,1.84-3.18,3.76-5.8,3.76-.56,0-.39-1.84-.39,16.29H42V28.64C36.73,32.28,37,35.12,37,38Z"/><path d="M44,55a1,1,0,0,1-1,1H21a1,1,0,0,1-1-1V37.15a6.09,6.09,0,0,1-1.07-.61c-1.63,1.43-3.14,3.4-4.93,5V63H50V29.46a13.81,13.81,0,0,1-5.83-2.13C43.92,27.48,44,25.24,44,55Z"/></g></svg>