<svg id="Cocktail" xmlns="http://www.w3.org/2000/svg" viewBox="0 0 64 64"><title>Cocktail</title><path d="M35,63H29a1,1,0,0,1,0-2,2,2,0,0,0,2-2,1,1,0,0,1,2,0,2,2,0,0,0,2,2A1,1,0,0,1,35,63Z"/><path d="M44,63H20a1,1,0,0,1,0-2H44A1,1,0,0,1,44,63Z"/><path d="M31,20a2,2,0,1,0,3.41-1.41A2,2,0,0,0,31,20Z"/><path d="M53.29,1.29,36.44,18A4,4,0,0,1,31,23.44l-2.27,2.27a1,1,0,0,1-1.42-1.42L29.56,22A4,4,0,0,1,35,16.56L43.58,8H11L31,32.76V59a1,1,0,0,0,2,0V32.76L53,8H49.42l5.29-5.29A1,1,0,0,0,53.29,1.29Z"/></svg>