<svg xmlns="http://www.w3.org/2000/svg" viewBox="0 0 64 64"><title>Cola Can</title><g id="Cola_Can" data-name="Cola Can"><path d="M33.05,30.32c-2.39-7.19.13-14.23,1.57-17.32H14V56H32.85C32.85,54.17,39.56,49.81,33.05,30.32Z"/><path d="M43.18,13c-7.74,0-6.25-.19-6.56.44-1,2-4,9.21-1.67,16.24C38.85,41.37,38.88,49.3,35,56c6.91,0,6.19.09,6.23-.2C43.66,43.83,38,40.11,37,29.09A19.46,19.46,0,0,1,43.18,13Z"/><path d="M45.32,13.77A17.58,17.58,0,0,0,39,28.91c.93,10.45,6.68,14.68,4.24,27.09H50V13C43.82,13,46.43,12.85,45.32,13.77Z"/><polygon points="46.57 6 17.43 6 14.57 11 49.43 11 46.57 6"/><path d="M17.5,4h29a1.5,1.5,0,0,0,0-3h-29A1.5,1.5,0,0,0,17.5,4Z"/><polygon points="18 63 46 63 49.33 58 14.67 58 18 63"/></g></svg>