<svg xmlns="http://www.w3.org/2000/svg" viewBox="0 0 64 64"><title>Cookies</title><g id="Cookies"><path d="M8,36.5a1.5,1.5,0,0,1,0-3A1.5,1.5,0,0,1,8,36.5Z"/><path d="M19,25a1,1,0,0,0,0,2A1,1,0,0,0,19,25Zm0,0a1,1,0,0,0,0,2A1,1,0,0,0,19,25Zm0,0a1,1,0,0,0,0,2A1,1,0,0,0,19,25Zm2,13.5a1.5,1.5,0,0,0,0,3A1.5,1.5,0,0,0,21,38.5ZM34,39a3,3,0,1,0,3,3A3,3,0,0,0,34,39Zm0,0a3,3,0,1,0,3,3A3,3,0,0,0,34,39Zm-13-.5a1.5,1.5,0,0,0,0,3A1.5,1.5,0,0,0,21,38.5ZM19,25a1,1,0,0,0,0,2A1,1,0,0,0,19,25ZM11,47a2,2,0,1,0,2,2A2,2,0,0,0,11,47Zm8-22a1,1,0,0,0,0,2A1,1,0,0,0,19,25Zm2,13.5a1.5,1.5,0,0,0,0,3A1.5,1.5,0,0,0,21,38.5ZM24,54a1,1,0,0,0,0,2A1,1,0,0,0,24,54ZM34,39a3,3,0,1,0,3,3A3,3,0,0,0,34,39Zm0,0a3,3,0,1,0,3,3A3,3,0,0,0,34,39ZM24,54a1,1,0,0,0,0,2A1,1,0,0,0,24,54ZM21,38.5a1.5,1.5,0,0,0,0,3A1.5,1.5,0,0,0,21,38.5ZM19,25a1,1,0,0,0,0,2A1,1,0,0,0,19,25ZM11,47a2,2,0,1,0,2,2A2,2,0,0,0,11,47Zm0,0a2,2,0,1,0,2,2A2,2,0,0,0,11,47Zm8-22a1,1,0,0,0,0,2A1,1,0,0,0,19,25Zm2,13.5a1.5,1.5,0,0,0,0,3A1.5,1.5,0,0,0,21,38.5ZM24,54a1,1,0,0,0,0,2A1,1,0,0,0,24,54ZM34,39a3,3,0,1,0,3,3A3,3,0,0,0,34,39Zm0,0a3,3,0,1,0,3,3A3,3,0,0,0,34,39ZM24,54a1,1,0,0,0,0,2A1,1,0,0,0,24,54ZM21,38.5a1.5,1.5,0,0,0,0,3A1.5,1.5,0,0,0,21,38.5ZM19,25a1,1,0,0,0,0,2A1,1,0,0,0,19,25ZM11,47a2,2,0,1,0,2,2A2,2,0,0,0,11,47Zm0,0a2,2,0,1,0,2,2A2,2,0,0,0,11,47Zm8-22a1,1,0,0,0,0,2A1,1,0,0,0,19,25Zm2,13.5a1.5,1.5,0,0,0,0,3A1.5,1.5,0,0,0,21,38.5ZM24,54a1,1,0,0,0,0,2A1,1,0,0,0,24,54ZM34,39a3,3,0,1,0,3,3A3,3,0,0,0,34,39Zm0,0a3,3,0,1,0,3,3A3,3,0,0,0,34,39ZM24,54a1,1,0,0,0,0,2A1,1,0,0,0,24,54ZM21,38.5a1.5,1.5,0,0,0,0,3A1.5,1.5,0,0,0,21,38.5ZM19,25a1,1,0,0,0,0,2A1,1,0,0,0,19,25ZM11,47a2,2,0,1,0,2,2A2,2,0,0,0,11,47ZM7.15,27.15C-6,40.26,3.24,63,22,63A21,21,0,0,0,43,42C43,23.37,20.32,14,7.15,27.15ZM4.5,35A3.5,3.5,0,1,1,8,38.5,3.5,3.5,0,0,1,4.5,35ZM11,53a4,4,0,1,1,4-4A4,4,0,0,1,11,53Zm5-27a3,3,0,1,1,3,3A3,3,0,0,1,16,26Zm1.5,14A3.5,3.5,0,1,1,21,43.5,3.5,3.5,0,0,1,17.5,40ZM24,58a3,3,0,1,1,3-3A3,3,0,0,1,24,58ZM34,47a5,5,0,1,1,5-5A5,5,0,0,1,34,47Zm0-8a3,3,0,1,0,3,3A3,3,0,0,0,34,39ZM24,54a1,1,0,0,0,0,2A1,1,0,0,0,24,54ZM22.5,40a1.5,1.5,0,0,0-3,0A1.5,1.5,0,0,0,22.5,40ZM20,26a1,1,0,0,0-2,0A1,1,0,0,0,20,26ZM11,47a2,2,0,1,0,2,2A2,2,0,0,0,11,47Zm0,0a2,2,0,1,0,2,2A2,2,0,0,0,11,47Zm8-22a1,1,0,0,0,0,2A1,1,0,0,0,19,25Zm2,13.5a1.5,1.5,0,0,0,0,3A1.5,1.5,0,0,0,21,38.5ZM24,54a1,1,0,0,0,0,2A1,1,0,0,0,24,54ZM34,39a3,3,0,1,0,3,3A3,3,0,0,0,34,39Zm0,0a3,3,0,1,0,3,3A3,3,0,0,0,34,39ZM24,54a1,1,0,0,0,0,2A1,1,0,0,0,24,54ZM21,38.5a1.5,1.5,0,0,0,0,3A1.5,1.5,0,0,0,21,38.5ZM19,25a1,1,0,0,0,0,2A1,1,0,0,0,19,25ZM11,47a2,2,0,1,0,2,2A2,2,0,0,0,11,47Zm0,0a2,2,0,1,0,2,2A2,2,0,0,0,11,47Zm8-22a1,1,0,0,0,0,2A1,1,0,0,0,19,25Zm2,13.5a1.5,1.5,0,0,0,0,3A1.5,1.5,0,0,0,21,38.5ZM24,54a1,1,0,0,0,0,2A1,1,0,0,0,24,54ZM34,39a3,3,0,1,0,3,3A3,3,0,0,0,34,39Zm0,0a3,3,0,1,0,3,3A3,3,0,0,0,34,39ZM24,54a1,1,0,0,0,0,2A1,1,0,0,0,24,54ZM21,38.5a1.5,1.5,0,0,0,0,3A1.5,1.5,0,0,0,21,38.5ZM19,25a1,1,0,0,0,0,2A1,1,0,0,0,19,25ZM11,47a2,2,0,1,0,2,2A2,2,0,0,0,11,47Zm0,0a2,2,0,1,0,2,2A2,2,0,0,0,11,47Zm8-22a1,1,0,0,0,0,2A1,1,0,0,0,19,25Zm2,13.5a1.5,1.5,0,0,0,0,3A1.5,1.5,0,0,0,21,38.5ZM34,39a3,3,0,1,0,3,3A3,3,0,0,0,34,39Zm0,0a3,3,0,1,0,3,3A3,3,0,0,0,34,39Zm-13-.5a1.5,1.5,0,0,0,0,3A1.5,1.5,0,0,0,21,38.5ZM19,25a1,1,0,0,0,0,2A1,1,0,0,0,19,25ZM11,47a2,2,0,1,0,2,2A2,2,0,0,0,11,47Zm8-22a1,1,0,0,0,0,2A1,1,0,0,0,19,25Zm2,13.5a1.5,1.5,0,0,0,0,3A1.5,1.5,0,0,0,21,38.5Zm0,0a1.5,1.5,0,0,0,0,3A1.5,1.5,0,0,0,21,38.5ZM19,25a1,1,0,0,0,0,2A1,1,0,0,0,19,25Z"/><path d="M53,31.5a1.5,1.5,0,0,1-3,0A1.5,1.5,0,0,1,53,31.5Z"/><path d="M42,17a3,3,0,1,0,3,3A3,3,0,0,0,42,17Zm0,0a3,3,0,1,0,3,3A3,3,0,0,0,42,17Zm0,0a3,3,0,1,0,3,3A3,3,0,0,0,42,17ZM44,6a2,2,0,1,0,2,2A2,2,0,0,0,44,6ZM56,16a1,1,0,0,0,0,2A1,1,0,0,0,56,16Zm0,0a1,1,0,0,0,0,2A1,1,0,0,0,56,16ZM42,17a3,3,0,1,0,3,3A3,3,0,0,0,42,17ZM44,6a2,2,0,1,0,2,2A2,2,0,0,0,44,6ZM27.15,7.15A20.5,20.5,0,0,0,21.2,19a5.72,5.72,0,0,1,.59,0C34.94,19,45.93,30.42,45,42.79A21,21,0,0,0,63,22C63,3.37,40.32-6,27.15,7.15ZM44,4a4,4,0,1,1-4,4A4,4,0,0,1,44,4ZM31,15a3,3,0,1,1,3-3A3,3,0,0,1,31,15ZM42,25a5,5,0,1,1,5-5A5,5,0,0,1,42,25Zm9.5,10A3.5,3.5,0,1,1,55,31.5,3.5,3.5,0,0,1,51.5,35ZM56,20a3,3,0,1,1,3-3A3,3,0,0,1,56,20Zm0-4a1,1,0,0,0,0,2A1,1,0,0,0,56,16ZM44,10a2,2,0,1,0-2-2A2,2,0,0,0,44,10Zm-2,7a3,3,0,1,0,3,3A3,3,0,0,0,42,17ZM31,11a1,1,0,0,0,0,2A1,1,0,0,0,31,11Zm11,6a3,3,0,1,0,3,3A3,3,0,0,0,42,17Zm14-1a1,1,0,0,0,0,2A1,1,0,0,0,56,16Zm0,0a1,1,0,0,0,0,2A1,1,0,0,0,56,16ZM42,17a3,3,0,1,0,3,3A3,3,0,0,0,42,17Z"/></g></svg>