<svg xmlns="http://www.w3.org/2000/svg" viewBox="0 0 64 64"><title>Croissant</title><g id="Croissant"><path d="M25.89,43.68C25,44.37,23.22,45,20,45c-7,0-7-13-12-14,0-3.3,2.72-5.39,5.17-6.6a2.67,2.67,0,0,1,2.94.39c3.41,3,7.58,13.85,9,17.88C25.23,43,25.17,43.09,25.89,43.68Z"/><path d="M47,23c-4,2-10,19-10,19a7.25,7.25,0,0,1-10,0S21,25,17,23c1-5,6-7,15-7S46,18,47,23Z"/><path d="M56,31c-5,1-5,14-12,14-3.22,0-5-.63-5.89-1.32a8.3,8.3,0,0,0,.63-.59c1.15-3.23,6.36-16.91,9.15-18.3a2.67,2.67,0,0,1,2.94-.39C53.28,25.61,56,27.7,56,31Z"/><path d="M14.4,44.29C9.2,45.49,6.6,50,4,50q-3,0-3-6A15.85,15.85,0,0,1,5,33.87,2.7,2.7,0,0,1,7.61,33C9.79,33.39,11.27,40.69,14.4,44.29Z"/><path d="M63,44q0,6-3,6c-2.6,0-5.2-4.51-10.4-5.71C52.77,40.64,54.19,33.4,56.39,33a2.71,2.71,0,0,1,2.6.91A15.85,15.85,0,0,1,63,44Z"/></g></svg>