<svg xmlns="http://www.w3.org/2000/svg" viewBox="0 0 64 64"><title>Clutery</title><g id="Clutery"><path d="M53,22c-4.86,0-7.81,12.58-1,13.9V41c0,5.81-2,14-2,17,0,2.31.69,5,3,5s3-2.69,3-5c0-3.06-2-11.19-2-17V35.9C60.85,34.57,57.81,22,53,22Z"/><path d="M37,5c-6.61,0-10.86,17.31-1.85,19.75C36.3,25.4,36,27.53,36,36c0,13-5.19,27,1,27s1-14.06,1-27c0-7.92-.34-10.58.85-11.25C47.87,22.31,43.6,5,37,5Z"/><path d="M18,29.73A3.6,3.6,0,0,0,20,33a3.66,3.66,0,0,1,2,3.28c-.15,16.82-2,17.9-2,21.73,0,6,5,6.53,5,2,0-28.72-.21-26.46,1-59C19.26,1,18,23.05,18,29.73Z"/><path d="M13,6c0,14.26,0,13.17-.13,13.5A1,1,0,0,1,11,19V6A1,1,0,0,0,9,6V19a1,1,0,0,1-1.87.49C7,19.17,7,20.17,7,6A1,1,0,0,0,5,6c0,16.67-.39,16.66,1.47,18.54a4.64,4.64,0,0,0,1.38,1,1,1,0,0,0,.29.24C9.27,26.35,9,28.36,9,36c0,13-5.19,27,1,27s1-14.06,1-27c0-10.92-.12-9.1,1.12-10.47A5,5,0,0,0,15,21V6A1,1,0,0,0,13,6Z"/></g></svg>