<svg xmlns="http://www.w3.org/2000/svg" viewBox="0 0 64 64"><title>Dimsum</title><g id="Dimsum"><path d="M18.4,29H45.6c1.78-6.17-2.48-11.47-8-14.48C34.92,13,34.8,11,34.18,11S33,12,33,12c-.46-1.32-1.47-1.34-1.94,0,0,0-.59-1-1.21-1s-.74,2-3.42,3.52C20.82,17.56,16.64,22.89,18.4,29Z"/><path d="M47.66,29H57.6c1.78-6.18-2.39-11.28-8-14.48C46.92,13,46.8,11,46.18,11S45,12,45,12c-.46-1.32-1.47-1.34-1.94,0,0,0-.59-1-1.21-1s-.67,1.24-2,2.51C45.43,17.19,49.23,22.39,47.66,29Z"/><path d="M16.34,29c-1.57-6.61,2.24-11.82,7.87-15.49-1.36-1.27-1.54-2.51-2-2.51S21,12,21,12c-.46-1.32-1.47-1.34-1.94,0,0,0-.59-1-1.21-1s-.74,2-3.42,3.52c-5.61,3.2-9.78,8.3-8,14.48Z"/><path d="M6,40H7c0-2-.06-2.39.18-3H1V53H7.18C6.94,52.38,7,52,7,50H6a1,1,0,0,1,0-2H7V42H6A1,1,0,0,1,6,40Z"/><path d="M10,37a1,1,0,0,0-1,1v2h1a1,1,0,0,1,0,2H9v6h1a1,1,0,0,1,0,2H9v2a1,1,0,0,0,1,1H63V37Z"/><rect x="3" y="31" width="58" height="4"/></g></svg>