<svg xmlns="http://www.w3.org/2000/svg" viewBox="0 0 64 64"><title>Donut</title><g id="Donut"><path d="M50,6.76c3.55,4.37,6.46,3.45,7.59,10.89,1.08,7,4.05,6.9,1.22,14.14-1.86,4.71-.82,6.72-3,9.87A13.46,13.46,0,0,0,53,50a3,3,0,0,1-5.13,2.11A3.76,3.76,0,0,1,47,49a1,1,0,0,0-1.69-.71c-.42.4-.31.19-.31,5.71a3,3,0,0,1-5.13,2.11A3,3,0,0,1,39,54c0-1.88-4.43,2.11-9.48.62A.41.41,0,0,0,29,55a3,3,0,0,1-6,0c0-1.57.11-2-.45-2.26s-.9-.52-1.27-.31S21,53,21,53.89a3,3,0,0,1-5.13,2.22C14.71,55,15,53.61,15,51c0-3.11-1.67-4.71-3.86-6.46-6.05-4.84-3.42-6.31-5.94-12.7-2.84-7.28.13-7.13,1.22-14.14,1-6.75,2.6-5.65,7.9-11.1A31,31,0,1,0,50,6.76Z"/><path d="M17.45,5.8c-.85,1.55-3.43,4-5.07,5.28-3,2.41-3.41,3.07-4,6.88-1.11,7.25-3.85,6.59-1.34,13.1,2.66,6.62-.09,7.53,5.32,11.86a24.62,24.62,0,0,1,2,1.71c4.27,4.3,1.78,9,2.92,10.06a1,1,0,0,0,1.71-.8c0-1.13-.12-2.32,1.23-3.16s2.36-.19,3.21.22c1.81.92,1.56,2.64,1.56,4a1,1,0,0,0,2,0A2.37,2.37,0,0,1,28,53.09c1.4-1,2.2-.09,4.05-.09s5.52-1.57,6.43-1.57A2.57,2.57,0,0,1,41,54a1,1,0,0,0,2,0c0-5.08-.28-6,.89-7.13A3,3,0,0,1,49,49c0,1-.08,1.34.29,1.69A1,1,0,0,0,51,50a15.47,15.47,0,0,1,3.21-9.52c1.63-2.07.86-4.78,2.73-9.42,1.41-3.66,1.42-4.44,0-8.12-2.67-6.64.09-7.53-5.32-11.86-3.54-2.85-3.16-3.34-5.16-5.42a21.43,21.43,0,0,0-5.12-3.23,31.24,31.24,0,0,0-18.68,0A18.83,18.83,0,0,0,17.45,5.8ZM54,26a1,1,0,0,1,2,0v2a1,1,0,0,1-2,0ZM49.29,40.71l-2-2a1,1,0,0,1,1.42-1.42l2,2A1,1,0,0,1,49.29,40.71ZM51,33H49a1,1,0,0,1,0-2h2A1,1,0,0,1,51,33ZM48,16a1,1,0,0,1,2,0v2a1,1,0,0,1-2,0Zm-.55,7.11,2,1A1,1,0,0,1,49,26c-.33,0-.32-.05-2.45-1.11A1,1,0,0,1,47.45,23.11ZM17,22a1,1,0,0,1,2,0v2a1,1,0,0,1-2,0Zm-6,0V19a1,1,0,0,1,2,0v3A1,1,0,0,1,11,22Zm3.69,12.1c-.82,0-.92-.61-1.89-2.55a1,1,0,0,1,1.79-.89l1,2A1,1,0,0,1,14.69,34.1ZM19,41.76l-3-1a1,1,0,0,1,.63-1.9l3,1A1,1,0,0,1,19,41.76ZM32,43A11,11,0,1,1,43,32,11,11,0,0,1,32,43Zm-6,4H23a1,1,0,0,1,0-2h3A1,1,0,0,1,26,47Zm5.11,2.45-1-2a1,1,0,0,1,1.78-.9l1,2A1,1,0,0,1,31.11,49.45ZM42.32,47c-3,1-3.07,1-3.32,1a1,1,0,0,1-.32-2l3-1A1,1,0,0,1,42.32,47ZM42,9h2a1,1,0,0,1,0,2H42A1,1,0,0,1,42,9Zm-.55,8.11,2,1A1,1,0,0,1,43,20c-.33,0-.32-.05-2.45-1.11A1,1,0,0,1,41.45,17.11ZM34,12h2a1,1,0,0,1,0,2H34A1,1,0,0,1,34,12ZM30,5a1,1,0,0,1,2,0V7a1,1,0,0,1-2,0ZM25.84,15.19l2,1A1,1,0,0,1,27,18l-2-1A1,1,0,0,1,25.84,15.19ZM22.63,7.66l2,1a1,1,0,0,1-.45,1.89c-.34,0-.31,0-2.45-1.1A1,1,0,0,1,22.63,7.66ZM18,14h2a1,1,0,0,1,0,2H18A1,1,0,0,1,18,14Z"/></g></svg>