<svg xmlns="http://www.w3.org/2000/svg" viewBox="0 0 64 64"><title>Fried Fries</title><g id="Fried_Fries" data-name="Fried Fries"><circle cx="32" cy="45" r="7"/><path d="M49,23c-6.51,7.6-26,8.27-33.8.22C14.88,22.9,16,23,8,23l6,37,3,3c7.93-2.64,22.06-2.65,30,0l3-3,6-37ZM32,54a9,9,0,1,1,9-9A9,9,0,0,1,32,54Z"/><path d="M30,9V1H26V8h3A1,1,0,0,1,30,9Z"/><path d="M46,9V23a8.79,8.79,0,0,0,.74-.6C48.46,6.29,48.23,7.35,48.68,7s.32.67.32-4H45V8A1,1,0,0,1,46,9Z"/><polygon points="52.95 21 54.18 9.29 50.2 8.85 48.9 21 52.95 21"/><path d="M44,24.26V10H40V25.9A19.72,19.72,0,0,0,44,24.26Z"/><path d="M37.79,26.46C38.1,26.37,38,27.85,38,9a1,1,0,0,1,1-1V4H35V26.85A26.36,26.36,0,0,0,37.79,26.46Z"/><path d="M29,26.86a31.29,31.29,0,0,0,3.88.12c.17,0,.12,1.52.12-14H29Z"/><path d="M24,25.91c.17,0,1.43.42,3,.7V12a1,1,0,0,1,1-1V10H24Z"/><path d="M22,25.2V9a1,1,0,0,1,1-1h1V5H20V24.26A16.78,16.78,0,0,0,22,25.2Z"/><path d="M17.12,22.29c.24.21.53.45.88.72V1H14V7.83C16.18,7.6,15.57,6.78,17.12,22.29Z"/><polygon points="14.98 21 13.87 9.85 9.89 10.27 10.94 21 14.98 21"/></g></svg>