<svg xmlns="http://www.w3.org/2000/svg" viewBox="0 0 64 64"><title>Hotdog</title><g id="Hotdog"><path d="M15.17,48.83C-10.21,23.45,3.07,5.07,13.31,15.31c4,4,9.85,15.88,14.67,20.71S44.67,46.67,48.69,50.69C58.91,60.91,40.58,74.24,15.17,48.83Z"/><path d="M62.05,48.28c-1.06-3.57-3.55-4.72-5.73-5.91-18-9.74-24.93-16.65-34.69-34.68C20.41,5.44,19.3,3,15.72,2,18.14.46,21.48.47,24.82,3.81c4,4,9.64,16.08,14.47,20.9s16.88,10.45,20.9,14.47C63.53,42.52,63.54,45.86,62.05,48.28Z"/><path d="M57,45c-5.77-3.16-14.69-7.62-22.58-15.5S22.12,12.73,19,7C15.64.9,6.35,3.61,6.78,10.43,13.59,9.75,18.1,18,21.69,23.74c7,11.17,7.39,11.53,18.57,18.57,6,3.77,13.83,8,13.3,14.91C60.25,57.64,63.22,48.42,57,45Zm-2.68,3.37c-1.6-.85-2,.21-4.61-1.32-1.41-.83-2.08-2.6-3.36-3.42-1-.63-3-.62-4.51-1.66s-1.94-2.78-3.1-3.67-2.93-.84-4.35-2.07-1.76-3.08-2.68-4-2.84-1.3-4-2.68-1.25-3.31-2.06-4.35S23,23.58,22,22.12s-1-3.48-1.65-4.5c-.83-1.28-2.61-2-3.42-3.36-1.54-2.58-.48-3-1.33-4.62a1,1,0,0,1,1.77-.93c1.22,2.31,0,2.39,1.27,4.52.52.85,2.4,1.78,3.39,3.3s.83,3.34,1.61,4.44,2.53,1.62,3.62,3,1.17,3.33,2,4.27,2.72,1.37,3.92,2.57,1.61,3.1,2.57,3.92,2.85.92,4.27,2,2,2.94,3,3.62,3,.73,4.45,1.62,2.42,2.87,3.29,3.38c2.12,1.27,2.21.06,4.52,1.27A1,1,0,0,1,54.36,48.41Z"/></g></svg>