<svg xmlns="http://www.w3.org/2000/svg" viewBox="0 0 64 64"><title>Ice Cream</title><g id="Ice_Cream" data-name="Ice Cream"><path d="M46,33H18a2,2,0,0,1,0-4H46A2,2,0,0,1,46,33Z"/><polygon points="45.69 35 44 46 20 46 18.31 35 45.69 35"/><polygon points="42.21 48 40 63 24 63 21.79 48 42.21 48"/><path d="M46.88,27.1c-.66-.16-29.1-.17-29.84,0A5.87,5.87,0,0,1,18.68,20H34a1,1,0,0,0,0-2H19.86c-1.46-1.94-.19-6,5.14-6,2,0,6-1,6-6s-2-5-2-5,9.38,0,10,10H34a1,1,0,0,0,0,2h7.86a3.62,3.62,0,0,1,1.69,5H38a1,1,0,0,0,0,2h6.82A6.28,6.28,0,0,1,46.88,27.1Z"/></g></svg>