<svg xmlns="http://www.w3.org/2000/svg" viewBox="0 0 64 64"><title>Stick Ice</title><g id="Stick_Ice" data-name="Stick Ice"><path d="M41.9,5.1C33.08-3.69,18,2.59,18,15v6a6,6,0,0,1,6,6v4a2,2,0,0,0,4,0V27a4,4,0,0,1,8,0v7a2,2,0,0,0,4,0V32a6,6,0,0,1,6-6V15A14,14,0,0,0,41.9,5.1Zm-18,6.35a1,1,0,0,1-1.78-.9l1-2a1,1,0,0,1,1.78.9Zm1.22,8-1-2a1,1,0,0,1,1.78-.9l1,2A1,1,0,0,1,25.11,19.45ZM31,6a1,1,0,0,1,2,0V8a1,1,0,0,1-2,0Zm3,10H32a1,1,0,0,1,0-2h2A1,1,0,0,1,34,16Zm5.55,5.89-2-1a1,1,0,0,1,.9-1.78l2,1A1,1,0,0,1,39.55,21.89Zm1-11-2-1a1,1,0,0,1,.9-1.78l2,1A1,1,0,0,1,40.55,10.89Z"/><path d="M46,28V39a4,4,0,0,1-4,4H22a4,4,0,0,1-4-4V23a4,4,0,0,1,4,4v4a4,4,0,0,0,8,0V27a2,2,0,0,1,4,0v7a4,4,0,0,0,8,0V32A4,4,0,0,1,46,28Z"/><path d="M32,63a3,3,0,0,1-3-3V45h6V60A3,3,0,0,1,32,63Z"/></g></svg>