<svg xmlns="http://www.w3.org/2000/svg" viewBox="0 0 64 64"><title>Juice</title><g id="Juice"><path d="M19,3a10,10,0,0,0-2,19.79V11H28.79A10,10,0,0,0,19,3Z"/><path d="M55,0H44a1,1,0,0,0-1,.83C33.64,53.92,34,51.91,34,52a1,1,0,1,1-2-.21L36.4,27H23V57a1,1,0,0,0,1,1H42a1,1,0,0,0,1-1V27H40.43l.35-2H44a1,1,0,0,1,1,1V57a3,3,0,0,1-3,3H24a3,3,0,0,1-3-3V26a1,1,0,0,1,1-1H36.75l2.12-12H19V61a2,2,0,0,0,2,2H45a2,2,0,0,0,2-2V13H42.9L44.84,2H55A1,1,0,0,0,55,0ZM21.67,21.59a8.91,8.91,0,0,0,5.91-5.92,1,1,0,0,1,1.92.58,10.92,10.92,0,0,1-7.25,7.25,1,1,0,1,1-.58-1.91Z"/></g></svg>