<svg xmlns="http://www.w3.org/2000/svg" viewBox="0 0 64 64"><title>Kimbab</title><g id="Kimbab"><path d="M8.33,33c2.87,1.33,11.47,1.33,14.34,0C19.8,31.67,11.2,31.67,8.33,33Z"/><path d="M15.5,29C6.94,29,0,31.24,0,34s6.94,5,15.5,5S31,36.76,31,34,24.06,29,15.5,29Zm0,7C13.91,36,6,35.86,6,33s7.91-3,9.5-3,9.5.14,9.5,3S17.09,36,15.5,36Z"/><path d="M0,37.54V52c0,2.76,6.94,5,15.5,5S31,54.76,31,52V37.54C25,42.15,6,42.17,0,37.54ZM4,51a1,1,0,0,1,0-2A1,1,0,0,1,4,51Zm4,3a1,1,0,0,1,0-2A1,1,0,0,1,8,54Zm1-5a1,1,0,0,1,0-2A1,1,0,0,1,9,49Z"/><path d="M55.67,33c-2.87-1.33-11.47-1.33-14.34,0C44.2,34.33,52.8,34.33,55.67,33Z"/><path d="M33,34c0,2.76,6.94,5,15.5,5S64,36.76,64,34s-6.94-5-15.5-5S33,31.24,33,34Zm15.5-4c1.59,0,9.5.14,9.5,3s-7.91,3-9.5,3S39,35.86,39,33,46.91,30,48.5,30Z"/><path d="M33,37.54V52c0,2.76,6.94,5,15.5,5S64,54.76,64,52V37.54C58,42.15,39,42.17,33,37.54ZM37,50a1,1,0,0,1,0-2A1,1,0,0,1,37,50Zm4,3a1,1,0,0,1,0-2A1,1,0,0,1,41,53Zm1-5a1,1,0,0,1,0-2A1,1,0,0,1,42,48Z"/><path d="M38.93,17c-2.82-1.33-11-1.33-13.86,0C27.89,18.33,36.11,18.33,38.93,17Z"/><path d="M32,23c8.28,0,15-2.24,15-5s-6.72-5-15-5-15,2.24-15,5S23.72,23,32,23Zm0-9c1.54,0,9.23.14,9.23,3S33.54,20,32,20s-9.23-.14-9.23-3S30.46,14,32,14Z"/><path d="M47,21.54c-6,4.61-24,4.61-30,0V27c6.44.18,12.65,1.56,15,4.37,2.35-2.81,8.56-4.19,15-4.37Z"/></g></svg>