<svg xmlns="http://www.w3.org/2000/svg" viewBox="0 0 64 64"><title>lollipop</title><g id="lollipop"><path d="M50,26.12a19,19,0,1,1,.93-8C50,26,43,32.15,34.56,32.15c-7.15,0-13-5.55-13-12.36A9.94,9.94,0,0,1,31.76,10.1a7.76,7.76,0,0,1,7.94,7.55,6,6,0,0,1-6.15,5.84A4.61,4.61,0,0,1,28.83,19a3.49,3.49,0,0,1,3.58-3.38,2.59,2.59,0,0,1,2.66,2.5,1,1,0,0,0,2,0,4.59,4.59,0,0,0-4.66-4.5A5.48,5.48,0,0,0,26.83,19a6.61,6.61,0,0,0,6.72,6.47,8,8,0,0,0,8.15-7.84A9.76,9.76,0,0,0,31.76,8.1,12,12,0,0,0,19.6,19.79c0,7.92,6.71,14.36,15,14.36A18.6,18.6,0,0,0,50,26.12Z"/><path d="M34,40.9V63H30V40.9A20.56,20.56,0,0,0,34,40.9Z"/></g></svg>