<svg xmlns="http://www.w3.org/2000/svg" viewBox="0 0 64 64"><title>Milk</title><g id="Milk"><path d="M26,21V45C14.64,44.07,13.36,27.08,2,27.08V21Z"/><path d="M26,47v5c-11.59-.44-13-9-24-9V29.08C11.93,29.08,13.38,46.11,26,47Z"/><path d="M26,54v9H2V45C12.27,45,13.57,53.54,26,54Z"/><circle cx="18" cy="12" r="2"/><path d="M9.43,6,2,19H26c0-.39-.56.7,7.27-13ZM18,16a4,4,0,1,1,4-4A4,4,0,0,1,18,16Z"/><polygon points="41 25 36.89 25 38 45 28 45 28 21 41 21 41 25"/><polygon points="38.39 52 28 52 28 47 38.11 47 38.39 52"/><path d="M39.84,63H28V54H38.5C38.85,60.22,38.64,61.42,39.84,63Z"/><polygon points="41 19 28.16 19 35.01 7.01 41 19"/><path d="M34,3V4H10V3a2,2,0,0,1,2-2H32A2,2,0,0,1,34,3Z"/><path d="M41,46.3v-.59A.86.86,0,0,1,41,46.3Z"/><path d="M41,53.83V52.17A1,1,0,0,1,41,53.83Z"/><polygon points="43.73 40 57.27 40 56.33 57 44.67 57 43.73 40"/><path d="M39,27l1.84,33.17a3,3,0,0,0,3,2.83H57.16a3,3,0,0,0,3-2.83L62,27ZM58.28,58.05a1,1,0,0,1-1,1H43.72a1,1,0,0,1-1-1l-1-19a1,1,0,0,1,1-1c17,0,16-.13,16.39.31S59.42,37.36,58.28,58.05Z"/></g></svg>