<svg xmlns="http://www.w3.org/2000/svg" viewBox="0 0 64 64"><title>Mineral Water</title><g id="Mineral_Water" data-name="Mineral Water"><polygon points="39.73 40 53.27 40 52.33 57 40.67 57 39.73 40"/><path d="M35,27l1.84,33.17a3,3,0,0,0,3,2.83H53.16a3,3,0,0,0,3-2.83L58,27ZM54.28,58.05a1,1,0,0,1-1,1H39.72a1,1,0,0,1-1-1l-1-19a1,1,0,0,1,1-1c17,0,16-.13,16.39.31S55.42,37.36,54.28,58.05Z"/><path d="M28,29c0,2,2,3,2,6H6c0-3,2-4,2-6,0-4-2-3-2-10,0-6,8-10,8-10V8h8V9s8,4,8,10C30,26,28,25,28,29Z"/><rect x="6" y="37" width="24" height="14"/><path d="M6,53H30v6a4,4,0,0,1-4,4H10a4,4,0,0,1-4-4Z"/><rect x="13" y="1" width="10" height="5"/></g></svg>