<svg xmlns="http://www.w3.org/2000/svg" viewBox="0 0 64 64"><title>muffin</title><g id="muffin"><path d="M17,41H10l6,22h4.8C16.7,39.4,17,41.17,17,41Z"/><path d="M26,41H19L22.8,62.83c0,.25-.49.17,4.57.17C25.56,34,26,42.59,26,41Z"/><path d="M29.36,62.94c0,.1-.41.06,5.28.06,0-1.77-.39,6.28,1.36-22H28Z"/><path d="M38,41c0,1.77.4-6.28-1.37,22,5,0,4.53.07,4.57-.17L45,41Z"/><path d="M47,41.17,43.2,63H48l6-22C46.17,41,47,40.93,47,41.17Z"/><path d="M52.83,39A6.68,6.68,0,0,0,54,35c0-4.65-4.57-9-9-9,0,5-18,3-28,3-5.08,0-7,2.95-7,6a6.72,6.72,0,0,0,1.17,4Z"/><path d="M17,27c6.29,0,24.56,1.37,26-1.07a4,4,0,0,0,.16-5.2,12.78,12.78,0,0,0-4.33-3.3,7,7,0,1,1-10.54-7.37c-2-1-4.55-1.43-8.31-1.06,4,0,3,7-1,9-4.83,2.42-7.19,6.94-5,9.36A12.13,12.13,0,0,1,17,27Z"/><path d="M32,21a5,5,0,0,0,2.19-9.49c.53-2.45,2.52-7.17,10-8.52a1,1,0,0,0-.36-2C34.29,2.75,32.44,9.56,32.09,12.07A5.54,5.54,0,0,0,32,13a1,1,0,0,1-2,0,9.27,9.27,0,0,1,.22-1.67A5,5,0,0,0,32,21Z"/></g></svg>