<svg xmlns="http://www.w3.org/2000/svg" viewBox="0 0 64 64"><title>Onigiri</title><g id="Onigiri"><rect x="25" y="25" width="14" height="16.77"/><path d="M23,41.65V24a1,1,0,0,1,1-1H40a1,1,0,0,1,1,1V41.65c5.49-.69,10-2.86,10-9.52C51,22.19,40,6,32,6S13,22.19,13,32.13C13,38.79,17.51,41,23,41.65ZM20,30a1,1,0,0,1,0,2A1,1,0,0,1,20,30Zm0,6a1,1,0,0,1,0,2A1,1,0,0,1,20,36Zm-3-3a1,1,0,0,1,0,2A1,1,0,0,1,17,33Z"/><rect x="1" y="44" width="62" height="6"/><rect x="5" y="52" width="8" height="6"/><rect x="51" y="52" width="8" height="6"/></g></svg>