<svg xmlns="http://www.w3.org/2000/svg" viewBox="0 0 64 64"><title>Pancake</title><g id="Pancake"><rect x="27" y="13" width="10" height="5"/><path d="M33,24H31A1,1,0,0,1,33,24Z"/><path d="M58,24H47V22a2,2,0,0,1,2-2h7C59,20,59.93,24,58,24Z"/><path d="M58,30H47V26h9C59,26,59.93,30,58,30Z"/><path d="M41,27v3H31V26h2v1c0,4,6,4,6,0A1,1,0,0,1,41,27Z"/><path d="M25,29v1H23V29A1,1,0,0,1,25,29Z"/><path d="M45.54,20c-.72,1.25-.54,1-.54,12a1,1,0,0,1-2,0V27a3,3,0,0,0-6,0,1,1,0,0,1-2,0V24c0-3.93-6-4-6,0v7a1,1,0,0,1-2,0V29c0-3.93-6-4-6,0v8a1,1,0,0,1-2,0c0-16.32.19-15.73-.54-17Z"/><path d="M17,22v2H6c-1.39,0-1.22-2-.13-3.12S7.66,20,15,20A2,2,0,0,1,17,22Z"/><path d="M17,26v4H6c-1.39,0-1.22-2-.13-3.12C7.13,25.65,7.62,26,17,26Z"/><path d="M17,32v4H6c-1.39,0-1.22-2-.13-3.12C7.13,31.65,7.62,32,17,32Z"/><path d="M58,36H23V32h2.17a3,3,0,0,0,5.66,0H41c0,4,6,3.93,6,0h9C59,32,59.93,36,58,36Z"/><path d="M58,42H6c-1.89,0-1-4,2-4h9.17a3,3,0,0,0,5.66,0H56C59,38,59.93,42,58,42Z"/><path d="M63,44a10.42,10.42,0,0,1-9.9,7H10.9A10.42,10.42,0,0,1,1,44Z"/></g></svg>