<svg xmlns="http://www.w3.org/2000/svg" viewBox="0 0 64 64"><title>Pie</title><g id="Pie"><path d="M24.71,23.08c0,4.41-2.22,4.14-2.5,3.05S23.64,23.72,24.71,23.08Z"/><path d="M32,24.86c-2.68,4.85,1,5,1,2.84A7.08,7.08,0,0,0,32,24.86Zm0,0c-2.68,4.85,1,5,1,2.84A7.08,7.08,0,0,0,32,24.86ZM58,27S44,17,32,17,6,27,6,27s-5,1-5,3,2,3,5,3c2,2,7,3,12,2,3,3,9,3,14,3s11,0,14-3c5,1,10,0,12-2,3,0,5-1,5-3S58,27,58,27Zm-37.73-.38c-.7-2.74,2.38-5,5-6.07a1,1,0,0,1,1.39.8C27.62,30.27,21.12,30,20.27,26.62Zm14.73,1a3,3,0,1,1-6,0c.08-2.33,2-4.95,2.2-5.24a1,1,0,0,1,1.6,0C33.77,23.68,35,26,35,27.64Zm8.62-1c-.91,3.62-7.55,3.27-6.36-5.27a1,1,0,0,1,1.39-.8C41.23,21.65,44.29,23.88,43.62,26.62Zm-4.44-3.54c0,4.46,2.22,4.11,2.5,3.05S40.24,23.72,39.18,23.08ZM31,27.7c-.05,2.19,3.66,1.93,1-2.84A7.14,7.14,0,0,0,31,27.7Z"/><path d="M56.85,36.1l-2.91,8.23A4,4,0,0,1,50.17,47H13.83a4,4,0,0,1-3.77-2.67L7.15,36.1a19.23,19.23,0,0,0,10.26,1C21.11,40,27.11,40,32,40s10.89,0,14.59-2.87A19.33,19.33,0,0,0,56.85,36.1Z"/></g></svg>