<svg xmlns="http://www.w3.org/2000/svg" viewBox="0 0 64 64"><title>Pizza</title><g id="Pizza"><path d="M63,23.66a1.09,1.09,0,0,1-1.08,1.14H59.87A25.9,25.9,0,0,0,47.83,4c1-1.74,1.11-2.17,1.73-2.31a1,1,0,0,1,.82.16A28.84,28.84,0,0,1,63,23.66Z"/><path d="M46.83,5.68c-1.07,1.85-.58,1.1-11,19.12h22A23.92,23.92,0,0,0,46.83,5.68Zm.17,17a3.59,3.59,0,1,1,3.59-3.59A3.59,3.59,0,0,1,47,22.66Zm4.14-8.8c-.57,0-.51-.08-3.29-2.88a1,1,0,0,1,1.41-1.41l2.59,2.59A1,1,0,0,1,51.14,13.86Z"/><path d="M43.06,8.22l-1.14,2a25.71,25.71,0,0,0-24,0l-1-1.78a1.06,1.06,0,0,1,.44-1.49,29.06,29.06,0,0,1,25.24,0A1,1,0,0,1,43.06,8.22Z"/><path d="M18.9,11.93,29.93,31c3-5.24,3.1-5.44,11-19.13A23.73,23.73,0,0,0,18.9,11.93Zm4.82,3.49a1,1,0,0,1-.44-1.9l4.13-2.07a1,1,0,0,1,.9,1.79C23.86,15.47,24,15.42,23.72,15.42Zm6.73,6.2A3.59,3.59,0,1,1,34,18,3.58,3.58,0,0,1,30.45,21.62Z"/><path d="M31.66,34c8,13.9,5.55,9.61,11,19.11A23.81,23.81,0,0,0,53.74,34Zm10.69,2.14h4.14a1,1,0,0,1,0,2H42.35A1,1,0,0,1,42.35,36.18Zm2.58,11.31a3.59,3.59,0,1,1,3.59-3.59A3.59,3.59,0,0,1,44.93,47.49Z"/><path d="M58.86,35.18A28.85,28.85,0,0,1,46.24,57a1.08,1.08,0,0,1-1.52-.36l-1-1.79A25.84,25.84,0,0,0,55.74,34c2.08,0,2.42-.11,2.84.35A1,1,0,0,1,58.86,35.18Z"/><path d="M43.09,58.53a1,1,0,0,1-.54.63,29,29,0,0,1-25.24,0,1,1,0,0,1-.54-.63c-.19-.6.1-.86,1.13-2.64a25.76,25.76,0,0,0,24.06,0C43,57.65,43.28,57.93,43.09,58.53Z"/><path d="M29.93,35l-11,19.11a23.75,23.75,0,0,0,22.07,0ZM29.41,50.6A3.59,3.59,0,1,1,33,47,3.59,3.59,0,0,1,29.41,50.6Zm7,3.07A43.14,43.14,0,0,1,32,54.73a1,1,0,0,1-.24-2l4.14-1A1,1,0,0,1,36.38,53.67Z"/><path d="M6.12,34A23.83,23.83,0,0,0,17.17,53.15c5.49-9.52,3-5.26,11-19.11ZM16,45.42a3.59,3.59,0,1,1,3.59-3.59A3.59,3.59,0,0,1,16,45.42Zm5.69-6.21c-.42,0-.24,0-3.65-2.23a1,1,0,0,1,1.1-1.67l3.11,2.07A1,1,0,0,1,21.65,39.21Z"/><path d="M17.17,12.93A23.85,23.85,0,0,0,6.12,32H28.2C20.27,18.29,22.8,22.68,17.17,12.93ZM13.89,28.87a3.59,3.59,0,1,1,3.59-3.59A3.59,3.59,0,0,1,13.89,28.87Zm9.83,1c-.33,0-.09.07-4.58-2.17A1,1,0,0,1,20,25.94L24.17,28A1,1,0,0,1,23.72,29.9Z"/><path d="M16.17,54.88c-1,1.79-1.1,2.15-1.73,2.3a1,1,0,0,1-.82-.15A28.86,28.86,0,0,1,1,35.18,1.08,1.08,0,0,1,2.08,34h2A25.84,25.84,0,0,0,16.17,54.88Z"/><path d="M16.17,11.2A25.84,25.84,0,0,0,4.12,32h-2A1.08,1.08,0,0,1,1,30.9,28.86,28.86,0,0,1,13.62,9.05a1.08,1.08,0,0,1,1.52.36Z"/><path d="M48.59,19.07a1.59,1.59,0,0,1-3.17,0A1.59,1.59,0,0,1,48.59,19.07Z"/><path d="M32,18a1.59,1.59,0,0,1-3.17,0A1.59,1.59,0,0,1,32,18Z"/><path d="M46.52,43.9a1.59,1.59,0,0,1-3.17,0A1.59,1.59,0,0,1,46.52,43.9Z"/><path d="M31,47a1.59,1.59,0,0,1-3.17,0A1.59,1.59,0,0,1,31,47Z"/><path d="M17.55,41.83a1.59,1.59,0,0,1-3.17,0A1.59,1.59,0,0,1,17.55,41.83Z"/><path d="M15.48,25.28a1.59,1.59,0,0,1-3.17,0A1.59,1.59,0,0,1,15.48,25.28Z"/></g></svg>