<svg xmlns="http://www.w3.org/2000/svg" viewBox="0 0 64 64"><title>Ramen</title><g id="Ramen"><path d="M17,56.61C21.8,58.25,25.12,58,30.55,58c9.74,0,18.23-5.28,22.14-13H3.31A23.83,23.83,0,0,0,17,56.61Z"/><path d="M2.45,43.08c.35-.14,50.82-.12,51.1,0A18.77,18.77,0,0,0,54.24,41H1.76A18.77,18.77,0,0,0,2.45,43.08Z"/><path d="M1,35.43A20.31,20.31,0,0,0,1.32,39c.16,0,53.14,0,53.36,0A21,21,0,0,0,55,35C-3.15,35,1,34.76,1,35.43Z"/><path d="M25.45,60A28.48,28.48,0,0,1,17,58.72V63H39V58.72C34.13,60.23,30.89,60,25.45,60Z"/><path d="M48.65,32.72c.17.31.08.28.18.28-1-4.31-8.44-7.72-14.7-5.06a9.41,9.41,0,0,1,1.51,1.72C41.46,27.7,47.43,30.27,48.65,32.72Z"/><path d="M36.56,31.47A7.14,7.14,0,0,1,36.93,33h9.45C44.24,31,39.69,30.54,36.56,31.47Z"/><polygon points="34 11.4 63 12 63 8 34 8 34 11.4"/><polygon points="34 2.6 34 6 63 6 63 2 34 2.6"/><path d="M14,21a6,6,0,0,0,6-6V2a1,1,0,0,0-2,0v.94L15,3V6h3V8H15v3l3,.06V15a4,4,0,0,1-4,4A1,1,0,0,0,14,21Z"/><path d="M24,2a1,1,0,0,0-2,0V25.62a11.37,11.37,0,0,1,2-.46Z"/><path d="M28,25.15V2a1,1,0,0,0-2,0V25A13.64,13.64,0,0,1,28,25.15Z"/><path d="M50.9,33c.24,0-.81-6.05-8-8.25a16.22,16.22,0,0,0-12,.86c-.73.34-.48,0,1.32,1C39.51,22.69,49.48,26.3,50.9,33Z"/><path d="M32,2a1,1,0,0,0-2,0V23.84A16.86,16.86,0,0,1,32,23Z"/><path d="M25.64,32.7c.07.42-.64.3,4.74.3a9,9,0,0,0-5.19-1.94A8.77,8.77,0,0,1,25.64,32.7Z"/><path d="M23.24,27.35c1.75,2.39.1,1.37,2.85,1.8,2.44.3,5.75,1.58,6.7,3.85h2.12C34.38,30.09,31,27,26,27A10.62,10.62,0,0,0,23.24,27.35Z"/><path d="M12.06,30.44A4,4,0,0,0,10.12,33h7.76A4,4,0,0,0,12.06,30.44Z"/><path d="M4.91,33H8.07c1-6.81,10.87-6.64,11.85,0h3.74A13.33,13.33,0,0,0,20,26.52C12.13,18.41,3.17,21.54,4.91,33Z"/></g></svg>