<svg xmlns="http://www.w3.org/2000/svg" viewBox="0 0 64 64"><title>Sald</title><g id="Sald"><path d="M59.77,24.24a8.72,8.72,0,0,0-12.35-8.93,10.23,10.23,0,0,0-12.29-1.49,13.28,13.28,0,0,0-.78-1.61c1.65-2.45,2.06-2.92,2.85-3,1.22,0,1.65,2.06,4.09,2.06,2.61,0,3.34-4.32,4.24-5.15,2.09.19,2.11,6.18,5,6.18,2.49,0,2.48-2.06,3.1-2.06,2.15,0,1.35,5.53,4.25,5.15,1.73-.2,1.27-1,3-1S62.72,19.87,59.77,24.24Z"/><path d="M57.62,24.81H55.49a4.45,4.45,0,0,0-3.33-2.31,4.1,4.1,0,0,0-1.76-1.43,10.31,10.31,0,0,0-1.63-4.16A6.71,6.71,0,0,1,57.62,24.81Z"/><path d="M48.24,20.51a5.1,5.1,0,0,0-.94,0,6.77,6.77,0,0,0-5.74-1,7.46,7.46,0,0,0-6.67,0,5.21,5.21,0,0,0-1.55-1.26A8.28,8.28,0,0,1,48.24,20.51Z"/><path d="M18.73,15.45a5.85,5.85,0,0,0-.49.38A5.12,5.12,0,0,0,13,16.92a9.28,9.28,0,0,1-2.69-5.6c5.5,0,5.74-.09,7.34.29A13.43,13.43,0,0,0,18.73,15.45Z"/><path d="M33.44,15a10.39,10.39,0,0,0-2.08,2.57l-.43,0a5.12,5.12,0,0,0-5.81-1.75,5,5,0,0,0-4.57-1.21c-1.15-2.68-1-4.44-1-7.43h2.84A11.74,11.74,0,0,1,33.44,15Z"/><path d="M30.69,19.61a5.45,5.45,0,0,0-1.6.87,7,7,0,0,0-1.13.05,6.15,6.15,0,0,0-6.79.29,6.16,6.16,0,0,0-9.69,4H6.33a3.13,3.13,0,0,1,2.26-2A1,1,0,0,0,9.35,22a3.11,3.11,0,0,1,3.32-2.4,1.05,1.05,0,0,0,1.14-.49A3.1,3.1,0,0,1,18,17.91a1,1,0,0,0,1.26-.25,3.07,3.07,0,0,1,4.84,0,1,1,0,0,0,1.26.25,3.1,3.1,0,0,1,4.19,1.21A1,1,0,0,0,30.69,19.61Z"/><path d="M19.74,22.27a6,6,0,0,0-1,2.54H13.52A4.16,4.16,0,0,1,19.74,22.27Z"/><path d="M28.8,24.81h-8A4.15,4.15,0,0,1,28.8,24.81Z"/><path d="M52.78,24.81H30.85a6.23,6.23,0,0,0-1-2.42.78.78,0,0,0,.3-.21c.8-.85,2.92-1.21,4.5-.69.92.33,1.1-.88,3.51-.88s2.55,1.22,3.52.88c1.57-.52,3.7-.16,4.5.69a1,1,0,0,0,.78.32,5.44,5.44,0,0,1,2.17.23c1.82.59,1.14,1.52,2.21,1.66A4.61,4.61,0,0,1,52.78,24.81Z"/><path d="M63,26.81A27.93,27.93,0,0,1,35.1,53.71H28.9A27.93,27.93,0,0,1,1,26.81Z"/><path d="M42.35,54.81v3H21.65v-3a29.39,29.39,0,0,0,7.25.9C35.14,55.71,38,55.91,42.35,54.81Z"/></g></svg>