<svg xmlns="http://www.w3.org/2000/svg" viewBox="0 0 64 64"><title>Salmon Steak</title><g id="Salmon_Steak" data-name="Salmon Steak"><path d="M19.49,38A10.87,10.87,0,0,0,17.4,42.5a17.73,17.73,0,0,1-3-6.79A8,8,0,0,0,19.49,38Z"/><path d="M16.56,22.79a18,18,0,0,1,4.57-5.11,7,7,0,0,0,.66,4.55A7.66,7.66,0,0,0,16.56,22.79Z"/><path d="M14,30a6,6,0,0,0,11,3.26,32.74,32.74,0,0,1,.55-5.45C23.17,21.66,14,23.4,14,30Zm10,1.13a1,1,0,0,1-.5,1.87c-.37,0-.36,0-2.46-1.27V34a1,1,0,0,1-2,0V31.73C16.88,33,16.91,33,16.54,33a1,1,0,0,1-.5-1.87L18,30l-2-1.13a1,1,0,0,1,1-1.74l2,1.14V26a1,1,0,0,1,2,0v2.27l2-1.14a1,1,0,0,1,1,1.74L22,30Z"/><path d="M19.12,44.11c.75-5.17,3.51-6.8,6.06-7.16a26.31,26.31,0,0,0,.79,4C24.74,43.29,22.45,44.37,19.12,44.11Z"/><path d="M31.69,50a17.72,17.72,0,0,1-10.8-3.85,7.93,7.93,0,0,0,5.89-2.8A13.73,13.73,0,0,0,31.69,50Z"/><path d="M23,19a5,5,0,0,1,8.88-3.13,18.47,18.47,0,0,0-5.23,7.93A5,5,0,0,1,23,19Z"/><path d="M32.91,14c.49,0,1,.07,1.48.14C33.13,14.8,33.79,14.87,32.91,14Z"/><path d="M34.08,45.39c1,2.22,1,3.3.9,3.61-2.86,0-5.61-3.57-7-8.33A24.72,24.72,0,0,1,27,34c0-11.36,5.6-18.13,11-18.91V25.18a3,3,0,0,0-1.27,4.75C33.69,32.41,31.49,39.35,34.08,45.39Z"/><path d="M38,28a1,1,0,0,1,2,0A1,1,0,0,1,38,28Z"/><path d="M42.08,44.6a14.44,14.44,0,0,0-.95,2.9A17.23,17.23,0,0,1,37,49.3c.13-.78,0-2.18-1-4.69C33.13,38.12,37,31,39,31S44.86,38.15,42.08,44.6Z"/><path d="M51,34c0,7.67-3.84,14.92-8,15a8.52,8.52,0,0,1,.9-3.61c2.56-6,.42-13-2.65-15.46A3,3,0,0,0,40,25.18V15.08C44.87,15.8,51,21.75,51,34Z"/><path d="M32,1A31,31,0,1,0,63,32,31,31,0,0,0,32,1ZM43,51a1.83,1.83,0,0,1-1.82-1.24,19.89,19.89,0,0,1-23.49-3.83,1,1,0,0,1-.65-.69A19.79,19.79,0,0,1,12,32c0-2.07-.14-3.44.71-5.3A20,20,0,0,1,22.93,14.2a6.89,6.89,0,0,1,6.54-2,20,20,0,0,1,8.53.76V12a1,1,0,0,1,2,0v1.07c6.55.72,13,8.42,13,20.93C53,42,48.89,51,43,51Z"/></g></svg>