<svg xmlns="http://www.w3.org/2000/svg" viewBox="0 0 64 64"><title>Salt Paper</title><g id="Salt_Paper" data-name="Salt Paper"><polygon points="40.74 39 39.04 53 58.97 53 57.27 39 40.74 39"/><path d="M63,52.72c-3.86-31.79-3.39-30.57-4.68-32.14A4.94,4.94,0,0,0,56,19V17H42v2a5,5,0,0,0-3.38,4.14L35,52.72A4.72,4.72,0,0,0,39.72,58H58.28A4.72,4.72,0,0,0,63,52.72ZM59.28,55H38.72A1.72,1.72,0,0,1,37,53.29c0-.1-.1.79,1.86-15.41a1,1,0,0,1,1-.88H58.16a1,1,0,0,1,1,.88L61,53.08A1.74,1.74,0,0,1,59.28,55Z"/><path d="M41,15H57v-.59A3.41,3.41,0,0,1,58,12V10a4,4,0,0,0-4-4H44a4,4,0,0,0-4,4v2a3.41,3.41,0,0,1,1,2.41ZM54,8a1,1,0,0,1,0,2A1,1,0,0,1,54,8ZM49,8a1,1,0,0,1,0,2A1,1,0,0,1,49,8ZM44,8a1,1,0,0,1,0,2A1,1,0,0,1,44,8Z"/><polygon points="6.74 39 5.04 53 24.97 53 23.27 39 6.74 39"/><path d="M25.38,23.14A5,5,0,0,0,22,19V17H8v2a5,5,0,0,0-3.38,4.14C.8,54.61,1,52.8,1,53.28A4.72,4.72,0,0,0,5.72,58H24.28A4.72,4.72,0,0,0,29,52.72ZM25.28,55H4.72A1.72,1.72,0,0,1,3,53.29c0-.1-.1.79,1.86-15.41a1,1,0,0,1,1-.88H24.16a1,1,0,0,1,1,.88L27,53.08A1.74,1.74,0,0,1,25.28,55Z"/><path d="M7,15H23v-.59A3.41,3.41,0,0,1,24,12V10a4,4,0,0,0-4-4H10a4,4,0,0,0-4,4v2a3.41,3.41,0,0,1,1,2.41ZM20,8a1,1,0,0,1,0,2A1,1,0,0,1,20,8ZM15,8a1,1,0,0,1,0,2A1,1,0,0,1,15,8ZM10,8a1,1,0,0,1,0,2A1,1,0,0,1,10,8Z"/></g></svg>