<svg xmlns="http://www.w3.org/2000/svg" viewBox="0 0 64 64"><title>Sandwitch</title><g id="Sandwitch"><path d="M2.9,30H61.1A1.89,1.89,0,0,0,62,26.46l-28.17-16a3.83,3.83,0,0,0-3.74,0L2,26.46A1.89,1.89,0,0,0,2.9,30Z"/><path d="M2.9,32A3.92,3.92,0,0,1,1,31.51V35a2,2,0,0,0,2,2H61a2,2,0,0,0,2-2V31.51C61.72,32.22,66.35,32,2.9,32Z"/><path d="M5,46s-.24-.37-.28-.41a7.1,7.1,0,0,1-1.69-.88c-.3-.19-.44-.28-.58-.35S2,44.64,2,45.1a.9.9,0,0,0,.9.9Z"/><path d="M62,45.1c0-.46-.4-.82-.48-.74a14.59,14.59,0,0,1-2.27,1.23L59,46H61.1A.9.9,0,0,0,62,45.1Z"/><path d="M56.74,48a16,16,0,0,1-15.31.1C37.5,49.24,30.86,50.66,26.83,50a12.92,12.92,0,0,1-4.46-1.79A15.93,15.93,0,0,1,7.27,48c-4.44,0-5.18.23-6.27-.71V52a2,2,0,0,0,2,2H61a2,2,0,0,0,2-2V47.29C61.94,48.2,61.29,48,56.74,48Z"/><path d="M20.5,46.92c-.38-.29-.76-.6-1.15-.93a6,6,0,0,1-1-.08c-.78,0-.6.05-.84-.19-2.44-.82-3.44-2.81-6.17-1-2.92,1.9-4.12.93-3.27,1.49C11.29,48.29,16.73,48.6,20.5,46.92Z"/><path d="M56.16,46c-3.14-.23-3.51-2-5.57-2S48,46,44.38,46a7.23,7.23,0,0,1-3.47-.86C44,48.76,52.94,48.8,56.16,46Z"/><path d="M61.42,39H2.58a1.59,1.59,0,0,0-.31,3.14c1.47.34,1.91,1.19,3.49,1.68C9.71,45,9.88,42,13.39,42c2.21,0,2.74,1,4.22,1.62a5.43,5.43,0,0,0,3.55.16c1.78-.59,2.17-1.78,4.63-1.78,3.1,0,3.1,2,6.2,2,3.3,0,3.54-2.58,7.13-1.92a5.57,5.57,0,0,1,2.35,1,4.89,4.89,0,0,0,2,.82c4,.57,3.67-1.93,7.13-1.93,3.1,0,3.1,2,6.2,2,2.67,0,3-1.41,4.94-1.86A1.59,1.59,0,0,0,61.42,39Z"/><path d="M27.17,48c2.94.5,8-.32,12.32-1.45C37.93,44.83,38.37,44,38,44c-1.85,0-2.08,1.73-5.54,2-4.3.29-5.13-3.05-8.07-1.68a11.7,11.7,0,0,1-2.32,1.27A12.45,12.45,0,0,0,27.17,48Z"/><path d="M41.6,47h0Z"/></g></svg>