<svg xmlns="http://www.w3.org/2000/svg" viewBox="0 0 64 64"><title>Sausage</title><g id="Sausage"><path d="M57.06,16.75a5,5,0,0,1-7.8,3.1c-10.83-7.79-23.67-7.8-34.52,0a5,5,0,0,1-5.86-8.11A42.08,42.08,0,0,1,19.91,6L17.22,9.38A1,1,0,0,0,18,11c.64,0,.44,0,4.39-4.9a1,1,0,0,0,.18-.88A36.81,36.81,0,0,1,32.72,4l-3.5,4.37A1,1,0,0,0,30,10c.64,0,.38.12,4.78-5.38a1,1,0,0,0,.21-.5,37.56,37.56,0,0,1,7.36,1.35L39.22,9.38a1,1,0,0,0,1.56,1.24c3.43-4.27,3.48-4.28,3.55-4.53a42.41,42.41,0,0,1,10.79,5.65A4.94,4.94,0,0,1,57.06,16.75Z"/><path d="M8.52,19.5a2,2,0,0,1-.72,1.72,29.57,29.57,0,0,0-2.32,2.13l-3-2.7a28,28,0,0,1,2.71-2.53,2,2,0,0,1,2-.33"/><path d="M56.71,17.84a2,2,0,0,1,2,.35c1.21,1.07,2.67,2.35,2.77,2.46l-3,2.7c-2.13-2.13-3.18-2.4-3.06-3.83"/><path d="M26,1V2.46c-.68.1-1.35.22-2,.36V1A1,1,0,0,1,26,1Z"/><path d="M40,1V2.82c-.65-.14-1.32-.26-2-.36V1A1,1,0,0,1,40,1Z"/><path d="M39.37,17.11a8,8,0,0,1-14.75,0c.64-.19,1.29-.37,2-.51a6,6,0,0,0,10.82,0A19.36,19.36,0,0,1,39.37,17.11Z"/><path d="M30,61V43a2,2,0,0,1,4,0V61A2,2,0,0,1,30,61Z"/><path d="M33,21V39.13a4,4,0,0,0-2,0V21A1,1,0,0,1,33,21Z"/></g></svg>