<svg xmlns="http://www.w3.org/2000/svg" viewBox="0 0 64 64"><title>Softdrink</title><g id="Softdrink"><path d="M41.93,21H22.07C22.77,15.55,29,11.77,29,8V7h6V8C35,11.77,41.23,15.55,41.93,21Z"/><path d="M40,45c0,6,2,5,2,10,0,3-3,8-5,8a2.4,2.4,0,0,1-1.54-.63c.34-.74.78-2.14.95-2.46A1,1,0,0,0,36,58c-1.47,0-1.62,2-2.34,3.48H30.34C29.63,60,29.47,58,28,58a1,1,0,0,0-.41,1.91c.21.4.52,1.53.95,2.46A2.4,2.4,0,0,1,27,63c-2,0-5-5-5-8,0-5,2-4,2-10,0-5.31-1.57-7.49-1.92-10H41.92C41.57,37.51,40,39.69,40,45Z"/><rect x="22" y="23" width="20" height="10"/><path d="M33.66,61.48c-.9,2.05-2.42,2.05-3.32,0Z"/><path d="M36,2.15V5H28V2.15A1.16,1.16,0,0,1,29.15,1h5.7A1.16,1.16,0,0,1,36,2.15Z"/></g></svg>