<svg xmlns="http://www.w3.org/2000/svg" viewBox="0 0 64 64"><title>Souce</title><g id="Souce"><rect x="26" y="16" width="12" height="4"/><polygon points="35 14 29 14 31 2 33 2 35 14"/><rect x="48" y="16" width="12" height="4"/><polygon points="57 14 51 14 53 2 55 2 57 14"/><path d="M37,22H27c-2.05,1-4,1.57-4,3.85V60a2,2,0,0,0,2,2H39a2,2,0,0,0,2-2V25.85C41,23.57,39.05,23,37,22Z"/><path d="M59,22H49c-2,1-4,1.57-4,3.85V60a2,2,0,0,0,2,2H61a2,2,0,0,0,2-2V25.85C63,23.57,61.05,23,59,22Z"/><path d="M15,22H5c-2,1-4,1.57-4,3.85V60a2,2,0,0,0,2,2H17a2,2,0,0,0,2-2V25.85C19,23.57,17.05,23,15,22Z"/><rect x="4" y="16" width="12" height="4"/><polygon points="13 14 7 14 9 2 11 2 13 14"/></g></svg>