<svg xmlns="http://www.w3.org/2000/svg" viewBox="0 0 64 64"><title>Sapgetti</title><g id="Sapgetti"><path d="M44.77,53h4.46A3,3,0,0,0,44.77,53Z"/><path d="M51.59,53h2.12a7,7,0,0,0-13.42,0h2.12A5,5,0,0,1,51.59,53Z"/><path d="M1,55a10.57,10.57,0,0,0,10.25,8h41.5A10.57,10.57,0,0,0,63,55Z"/><path d="M28.67,46.12A12.84,12.84,0,0,1,34,48.05,3,3,0,0,0,28.67,46.12Z"/><path d="M16.9,49.08A4.94,4.94,0,0,1,19.63,48,7,7,0,0,0,9.08,53h2A5,5,0,0,1,16.9,49.08Z"/><path d="M15,53a5.15,5.15,0,0,1,.38-1.93A3,3,0,0,0,13.18,53Z"/><path d="M20,50a3,3,0,0,0-3,3h6A3,3,0,0,0,20,50Z"/><path d="M24.94,52.31A3.93,3.93,0,0,1,25,53h5.6A7,7,0,0,0,24.94,52.31Z"/><path d="M33.7,53c.78,0,.19.29.9-1.93.19-.77.19,0-.68-.61a11,11,0,0,0-11.13-1.62,5.23,5.23,0,0,1,1.49,1.58A9,9,0,0,1,33.7,53Z"/><path d="M57.82,53c-1.6-8.71-12.46-11.91-18.34-6a11.09,11.09,0,0,0-3.3,6h2a9,9,0,0,1,17.56,0Z"/><path d="M43,42.64a3,3,0,0,0-5.64-1,9,9,0,0,1,2,2.91A12.81,12.81,0,0,1,43,42.64Z"/><path d="M37.69,45.93a7,7,0,0,0-12.78-1.38c1.26,1.13,1.18,1.47,1.5,1.47a5,5,0,0,1,9.59,2A12.72,12.72,0,0,1,37.69,45.93Z"/><path d="M21.78,47.1a11.71,11.71,0,0,1,2.14-.72c-6.24-6.7-18-2.9-18.87,6.62h2A9,9,0,0,1,21.78,47.1Z"/><path d="M35.75,40.37a4.89,4.89,0,0,1,1.41-1.49,11,11,0,0,0-15.55,3.4,10.65,10.65,0,0,1,1.73,1A9,9,0,0,1,35.75,40.37Z"/><path d="M15,41a15.84,15.84,0,0,1,4.72.54,12.46,12.46,0,0,1,1.08-1.6A3,3,0,0,0,15,41Z"/><path d="M32.64,8.42C33,7.82,31.09,8,61,8c2.56,0,2.75-4,0-4H60c-27.18-.18-26.91.38-27.36-.42C32.11,2.61,31.1,1,30,1c-3.44,0-3-.07-3,.18V11h3C31.1,11,32.11,9.39,32.64,8.42Z"/><path d="M21,1a1,1,0,0,0-2,0V36.11a4.85,4.85,0,0,1,2,.9Z"/><path d="M25,1a1,1,0,0,0-2,0V37.75a11.92,11.92,0,0,1,2-1.28Z"/><path d="M14,9a1,1,0,0,0,0,2h1V37a4.92,4.92,0,0,1,2-.9V1a1,1,0,0,0-2,0H14a1,1,0,0,0,0,2h1V5H14a1,1,0,0,0,0,2h1V9Z"/></g></svg>