<svg xmlns="http://www.w3.org/2000/svg" viewBox="0 0 64 64"><title>Steak</title><g id="Steak"><circle cx="17.5" cy="37.5" r="4.5"/><path d="M12.46,28.61,12,26.67l12.58-3.28.5,1.94Z"/><path d="M25.5,46c1.73,0,1-1,.64,3a18,18,0,0,1-7.61-5.1,6.06,6.06,0,0,0,1.75-.55A6.47,6.47,0,0,0,25.5,46Z"/><path d="M14,23V21H27v2h-.5l-.28-1.08A1,1,0,0,0,25,21.2C16.72,23.36,19.18,23,14,23Z"/><path d="M21.94,42.24a6.47,6.47,0,0,0,1.71-6.83,4.49,4.49,0,1,1-1.71,6.83Z"/><path d="M19.57,19a17.84,17.84,0,0,1,11.75-5,7.63,7.63,0,0,0-3.15,5C27.9,19,29.12,19,19.57,19Z"/><polygon points="30.03 29.73 29.51 31.66 19.29 28.89 23.19 27.88 30.03 29.73"/><path d="M30.88,27.72c.27.31.72.36-4-.91.59-.46.33-1.07.13-1.81,1.1,0,1.44.09,1.81-.47A19.63,19.63,0,0,0,30.88,27.72Z"/><path d="M15.48,29.93c15.59,4.22,14.57,4,14.74,4,1,0,1-.74,1.94-4.34A5,5,0,0,1,33,32.17c0,2.15-.89,4.83-.78,7.29l-.25,0a6.5,6.5,0,0,0-9.29-5.85A6.47,6.47,0,0,0,14,32a15.8,15.8,0,0,1,.1-1.78C15.88,29.79,15.31,29.93,15.48,29.93Z"/><path d="M36.11,44.34c-.22,2.82-4.33,6.69-8.1,6.74A19.93,19.93,0,0,1,29,45a6.46,6.46,0,0,0,2.63-3.34,2.71,2.71,0,0,1,1-.2A4.69,4.69,0,0,0,36.11,44.34Z"/><path d="M41.86,44.48c.23,2.76-1,6.41-3.27,8.05a23,23,0,0,1-2.23-4,7.83,7.83,0,0,0,1.73-3.83A12.24,12.24,0,0,0,41.86,44.48Z"/><path d="M43.8,43.86a12,12,0,0,0,3.29-2.08,17.86,17.86,0,0,1-3.22,3.73A9.89,9.89,0,0,0,43.8,43.86Z"/><rect x="36.77" y="21.77" width="2.96" height="2.96" transform="translate(-5.24 33.86) rotate(-45)"/><rect x="40.27" y="25.27" width="2.96" height="2.96" transform="translate(-6.69 37.36) rotate(-45)"/><path d="M51,26.12C50.32,20.59,47.85,14,40,14c-8.12,0-9.19,3.23-9.65,4.6C28.28,24.83,35,26.94,35,32.17c0,5.49-3.55,10.57,4.4,10.57a9.65,9.65,0,0,0,7.43-3.53A18.5,18.5,0,0,0,51,26.12Zm-2.3-1.41-2.05,2,1.05,1A1,1,0,0,1,47,29.5c-.55,0-.72-.3-1.75-1.34l-2.09,2.09,2.09,2.09,1-1.05a1,1,0,0,1,1.42,1.42l-1.05,1L47,34a1,1,0,0,1-1.42,1.42l-.29-.3-2.09,2.09.55.54a1,1,0,0,1-1.42,1.42l-.54-.55-2,2.05a1,1,0,0,1-1.42-1.42l2.05-2L37,34a1,1,0,0,1,1.42-1.42l3.29,3.3,2.09-2.09-2.09-2.09C40.65,32.77,40.53,33,40,33a1,1,0,0,1-.71-1.71l1.05-1-2.09-2.09C37.15,29.27,37,29.5,36.5,29.5a1,1,0,0,1-.71-1.71l1.05-1-2.09-2.09c-.62.63-.76.84-1.25.84a1,1,0,0,1-.71-1.71l.55-.54L33,23a1,1,0,0,1,1.42-1.42l.29.3,2.09-2.09-2.3-2.29A1,1,0,0,1,36,16l2.29,2.3,1.54-1.55a1,1,0,0,1,1.42,1.42l-1.55,1.54,2.09,2.09,2.09-2.09-1.3-1.29A1,1,0,0,1,44,17l1.29,1.3a1,1,0,1,1,1.41,1.41L48,21a1,1,0,0,1-1.42,1.42l-1.29-1.3-2.09,2.09,2.09,2.09,2-2.05A1,1,0,0,1,48.71,24.71Z"/><path d="M32,1A31,31,0,1,0,63,32,31,31,0,0,0,32,1ZM51.85,34.37v0a19.93,19.93,0,0,1-8.44,14c-1,3.71-4.66,7.76-5.91,6a29.26,29.26,0,0,1-1.81-2.81,20.43,20.43,0,0,1-3.6.35A9.33,9.33,0,0,1,28,53.08c-2.08,0-2-.56-1.95-2a19.89,19.89,0,0,1-10.15-7.28,6.49,6.49,0,0,1-3.77-9.89,18.23,18.23,0,0,1-.06-3.1,1,1,0,0,1-1.26-.71l-1-3.87A1,1,0,0,1,10.49,25c2.38-.62,1.51-.22,1.51-1V20a1,1,0,0,1,1-1h3.82A19.88,19.88,0,0,1,35.7,12.36c10.17-1.93,16,3.25,17.29,13.52A19.55,19.55,0,0,1,51.85,34.37Z"/></g></svg>