<svg xmlns="http://www.w3.org/2000/svg" viewBox="0 0 64 64"><title>Sushi</title><g id="Sushi"><path d="M16,27.27a21.67,21.67,0,0,0-4.34-5.36,9.71,9.71,0,0,0-1,2.77C10,28.25,12.61,28.5,16,27.27Z"/><path d="M17.89,26.63c.66-.23,1.41-.48,2.22-.73a20.77,20.77,0,0,0-5.74-7.33,13.41,13.41,0,0,0-1.63,1.66C13.8,20.76,17.48,25.41,17.89,26.63Z"/><path d="M22,25.33c2.32-.71,2.14-.54,2.09-.73a20,20,0,0,0-4.22-9,1.3,1.3,0,0,1-.19-.31,21.67,21.67,0,0,0-3.73,2C19,19.74,21.73,24.13,22,25.33Z"/><path d="M26.08,24.21c2.93-.69,2.58-.45,2.58-.63a20.07,20.07,0,0,0-3.59-9.42.88.88,0,0,1-.19-.43,30.64,30.64,0,0,0-3.23.87A22.29,22.29,0,0,1,26.08,24.21Z"/><path d="M30.65,23.39a11,11,0,0,1,3,0,17,17,0,0,0-.55-4.27C32,14.51,30.65,13.79,30.65,13a35.12,35.12,0,0,0-3.69.33A22.26,22.26,0,0,1,30.65,23.39Z"/><path d="M35.67,23.61c0,.26-.36,0,2.19.62a20,20,0,0,0-1.38-10.38.88.88,0,0,1-.07-.57A35.51,35.51,0,0,0,32.84,13,21.86,21.86,0,0,1,35.67,23.61Z"/><path d="M39.8,24.7c0,.1-.35-.11,3.07.94a19.94,19.94,0,0,0-.4-10.25.91.91,0,0,1,0-.69,29.17,29.17,0,0,0-3.91-1A21.84,21.84,0,0,1,39.8,24.7Z"/><path d="M44.79,26.18c0,.11-.45-.11,3,1.05A20.8,20.8,0,0,0,47.48,18a1,1,0,0,1,.14-.87,23,23,0,0,0-3-1.62A22.48,22.48,0,0,1,44.79,26.18Z"/><path d="M53.19,24.68a10.54,10.54,0,0,0-3.45-5.88,23.4,23.4,0,0,1,0,9C51.64,28.18,53.78,27.93,53.19,24.68Z"/><path d="M47,29.09c-3.58-1.22-11.37-3.79-15.16-3.79-4.09.07-12.06,2.78-15.76,4a9.24,9.24,0,0,1-4.06.54C12.32,34.33,21.13,35,32,35s19.68-.66,19.92-5.14A10.08,10.08,0,0,1,47,29.09ZM21,31a1,1,0,0,1,0-2A1,1,0,0,1,21,31Zm4,2a1,1,0,0,1,0-2A1,1,0,0,1,25,33Zm0-4a1,1,0,0,1,0-2A1,1,0,0,1,25,29Z"/><rect x="1" y="36.99" width="62" height="6"/><rect x="5" y="44.99" width="8" height="6"/><rect x="51" y="44.99" width="8" height="6"/></g></svg>