<svg xmlns="http://www.w3.org/2000/svg" viewBox="0 0 64 64"><title>Tart</title><g id="Tart"><path d="M59,63H5a4,4,0,0,1-4-4c0-.1-1.6,0,62,0A4,4,0,0,1,59,63Z"/><path d="M12,50a1,1,0,0,0,0,2A1,1,0,0,0,12,50Z"/><path d="M53.75,44c-2.79,0-3.18,2-7.26,2S42,44,39.24,44,36.08,46,32,46s-4.45-2-7.25-2-3.16,2-7.25,2S13,44,10.25,44c-2.5,0-3.1,1.6-5.25,1.6V57H59V45.6C56.83,45.6,56.27,44,53.75,44ZM12,54a3,3,0,1,1,3-3A3,3,0,0,1,12,54Zm10,0a3,3,0,1,1,3-3A3,3,0,0,1,22,54Zm10,0a3,3,0,1,1,3-3A3,3,0,0,1,32,54Zm10,0a3,3,0,1,1,3-3A3,3,0,0,1,42,54Zm10,0a3,3,0,1,1,3-3A3,3,0,0,1,52,54Z"/><path d="M52,50a1,1,0,0,0,0,2A1,1,0,0,0,52,50Z"/><path d="M22,50a1,1,0,0,0,0,2A1,1,0,0,0,22,50Z"/><path d="M32,50a1,1,0,0,0,0,2A1,1,0,0,0,32,50Z"/><path d="M42,50a1,1,0,0,0,0,2A1,1,0,0,0,42,50Z"/><path d="M59,38H5a2,2,0,0,0-2,2v1.59A2,2,0,0,0,5.86,43.4C7.1,42.81,7.94,42,10.25,42c3.62,0,3.62,2,7.24,2s3.63-2,7.25-2,3.63,2,7.25,2,3.63-2,7.25-2,3.63,2,7.25,2,3.63-2,7.26-2c2.31,0,3.15.82,4.39,1.41A2,2,0,0,0,61,41.59V40A2,2,0,0,0,59,38Z"/><path d="M14.05,24.1a6.4,6.4,0,0,0,3.44.9c3.63,0,3.63-2,7.25-2s3.63,2,7.25,2,3.63-2,7.25-2,3.63,2,7.25,2A6.48,6.48,0,0,0,50,24.1c1.23-.68,1-1.83,1-3.1a2,2,0,0,0-2-2H15a2,2,0,0,0-2,2C13,22.26,12.81,23.42,14.05,24.1Z"/><path d="M23,31a1,1,0,0,1-2,0A1,1,0,0,1,23,31Z"/><path d="M32,30a1,1,0,0,0,0,2A1,1,0,0,0,32,30Zm0,0a1,1,0,0,0,0,2A1,1,0,0,0,32,30Zm14.49-3c-4.09,0-4.45-2-7.25-2S36.06,27,32,27s-4.47-2-7.26-2a4.58,4.58,0,0,0-2.65.75,9.2,9.2,0,0,1-7.09.92V36H49V26.67A8.83,8.83,0,0,1,46.49,27ZM22,34a3,3,0,1,1,3-3A3,3,0,0,1,22,34Zm10,0a3,3,0,1,1,3-3A3,3,0,0,1,32,34Zm10,0a3,3,0,1,1,3-3A3,3,0,0,1,42,34Zm0-4a1,1,0,0,0,0,2A1,1,0,0,0,42,30ZM32,30a1,1,0,0,0,0,2A1,1,0,0,0,32,30Z"/><rect x="30" y="8" width="4" height="9"/><path d="M32,7a2,2,0,0,0,2-2c0-1.1-2-4-2-4s-2,2.9-2,4A2,2,0,0,0,32,7Z"/></g></svg>