<svg xmlns="http://www.w3.org/2000/svg" viewBox="0 0 64 64"><title>Tea</title><g id="Tea"><polygon points="19 38.54 19 46 25 46 25 38.54 22.7 37 21.3 37 19 38.54"/><path d="M15.61,56H42.39A31.3,31.3,0,0,0,52,33V26H23v9a1,1,0,0,1,.55.17C26.72,37.29,27,37.3,27,38v9a1,1,0,0,1-1,1H18a1,1,0,0,1-1-1c0-9.45-.19-9.42.45-9.83C20.75,35,20.6,35,21,35V26H6C6,33.53,4.82,45.76,15.61,56Z"/><path d="M58,31c2.71,0,3,3.5,3,5,0,7.39-6.31,11.86-11.86,14.79a32.82,32.82,0,0,1-2.4,3.42C52.79,51.34,63,46.13,63,36c0-4.38-1.87-7-5-7a6.69,6.69,0,0,0-4,1.3v3A4.5,4.5,0,0,1,58,31Z"/><polygon points="1 59 16 61 17 63 45 63 46 61 61 59 61 58 1 58 1 59"/><path d="M28.79,20.56a1,1,0,0,0,1.65-1.12c-2.56-3.78-1.26-5.48.4-7.64,1.78-2.32,4-5.21-.46-10.45a1,1,0,0,0-1.52,1.3c3.4,4,2.14,5.65.39,7.93S25.41,15.59,28.79,20.56Z"/><path d="M39.79,23.56a1,1,0,0,0,1.65-1.12c-2.56-3.78-1.26-5.48.4-7.64,1.78-2.32,4-5.21-.46-10.45a1,1,0,0,0-1.52,1.3c3.4,4,2.14,5.65.39,7.93S36.41,18.59,39.79,23.56Z"/><path d="M17.79,23.56a1,1,0,0,0,1.65-1.12c-2.56-3.78-1.26-5.48.4-7.64,1.78-2.32,4-5.21-.46-10.45a1,1,0,0,0-1.52,1.3c3.4,4,2.14,5.65.39,7.93S14.41,18.59,17.79,23.56Z"/></g></svg>