<svg xmlns="http://www.w3.org/2000/svg" viewBox="0 0 64 64"><title>Wine</title><g id="Wine"><rect x="16" y="7" width="8" height="6"/><path d="M24,20V15H16v5a11.5,11.5,0,0,0-5.09,4.26C8.78,27.49,9,30.2,9,33H31V30.62A11.55,11.55,0,0,0,24,20Z"/><rect x="9" y="35" width="22" height="22"/><rect x="9" y="59" width="22" height="4"/><path d="M16,5h8a1,1,0,0,0,0-2V1H16V3A1,1,0,0,0,16,5Z"/><path d="M52,61H49a2,2,0,0,1-2-2c0-8.7,0-10.85,0-11.15a11.73,11.73,0,0,0,8-11A26.81,26.81,0,0,0,53.71,28H38.29A26.81,26.81,0,0,0,37,36.89a11.73,11.73,0,0,0,8,11c-.05.3,0,2.45,0,11.15a2,2,0,0,1-2,2H40a1,1,0,0,0,0,2H52A1,1,0,0,0,52,61Z"/></g></svg>