<svg xmlns="http://www.w3.org/2000/svg" xmlns:xlink="http://www.w3.org/1999/xlink" viewBox="0 0 128 128"><defs><style>.cls-1{fill:url(#linear-gradient);}.cls-2{fill:#eab39b;}.cls-3{fill:url(#linear-gradient-2);}.cls-4{fill:url(#linear-gradient-3);}.cls-5{fill:#d861b0;}.cls-6{fill:#47566a;}</style><linearGradient id="linear-gradient" x1="57.79" y1="127.1" x2="57.79" y2="90.4" gradientUnits="userSpaceOnUse"><stop offset="0" stop-color="#f2c4b0"/><stop offset="1" stop-color="#ffe3d7"/></linearGradient><linearGradient id="linear-gradient-2" x1="70.22" y1="37.6" x2="70.22" y2="0.9" xlink:href="#linear-gradient"/><linearGradient id="linear-gradient-3" x1="63.9" y1="88.43" x2="63.9" y2="43.66" gradientUnits="userSpaceOnUse"><stop offset="0" stop-color="#db72b8"/><stop offset="1" stop-color="#d88bc2"/></linearGradient></defs><title>affection</title><g id="affection"><path class="cls-1" d="M114.58,95.82a8.72,8.72,0,0,1-2.79,6.41L90.56,122.16A18.37,18.37,0,0,1,78,127.1H1V96l16.49,1.83c8.55-8.55,17.74-7.33,26.77-7.33a14.58,14.58,0,0,1,13.53,9.16H72.45c9.48,0,12,12.83,5.49,12.83a10,10,0,0,0,6.46-2.39c23.25-20,21.7-18.82,23.08-19.31A5.36,5.36,0,0,1,114.58,95.82Z"/><path class="cls-2" d="M77.94,112.45H46.8a2,2,0,0,1,0-4.08H77.94c3.84,0,3.67-2.09,3.67.41A3.68,3.68,0,0,1,77.94,112.45Z"/><path class="cls-2" d="M111.79,102.23,90.56,122.16A18.37,18.37,0,0,1,78,127.1H1V123H78a18.34,18.34,0,0,0,12.54-5c22.74-21.33,22.84-20.8,23.72-24C115.05,96.14,114.42,99.78,111.79,102.23Z"/><path class="cls-3" d="M127,.9V32l-16.49-1.83c-8.55,8.55-17.74,7.33-26.77,7.33a14.58,14.58,0,0,1-13.53-9.16H55.55c-9.36,0-12.15-12.83-5.49-12.83a9.85,9.85,0,0,0-6.46,2.39C20,38.19,21.45,37.54,18.77,37.54c-5.68,0-7.29-7.37-2.56-11.77L37.44,5.84A18.37,18.37,0,0,1,50,.9Z"/><path class="cls-2" d="M127,28V32l-16.49-1.83c-8.55,8.55-17.74,7.33-26.77,7.33a14.58,14.58,0,0,1-13.53-9.16H55.55c-6.88,0-10.44-7.3-8.81-10.71a9.15,9.15,0,0,0,8.81,6.64H70.21a14.58,14.58,0,0,0,13.53,9.16c8.55,0,18.18,1.27,26.77-7.33Z"/><path class="cls-4" d="M63.9,50.58c-7.42-12.36-26.46-7.1-26.46,7.31,0,16.29,26.46,30.54,26.46,30.54S90.36,74.18,90.36,57.89C90.36,43.49,71.32,38.21,63.9,50.58Z"/><path class="cls-5" d="M86.72,68.76C79.49,80,63.9,88.43,63.9,88.43S48.31,80,41.08,68.76A32.07,32.07,0,0,0,86.72,68.76Z"/><path class="cls-2" d="M81.2,11.48c-25.63,0-31.13,0-32,0-4.23.38-3.76.79-26.93,20.66a5.35,5.35,0,0,1-8.53-2.3c-1.78,6.42,4.73,9.63,8.53,6.38,22-18.9,22.44-20.27,27.11-20.67.66-.05-2.12,0,31.84,0A2,2,0,0,0,81.2,11.48Z"/><path class="cls-6" d="M105.08,91c-23.23,19.91-21.65,18.65-22.69,19.24,1.46-4.33-2.71-11.63-9.91-11.63h-14a15.47,15.47,0,0,0-14.17-9.14H35.28a25.83,25.83,0,0,0-18,7.27l-16-1.78a1,1,0,0,0-.22,2c17.88,2,16.8,2,17.28,1.54,8.09-8.09,16.48-7,26-7a13.47,13.47,0,0,1,12.58,8.52c.36.88,0,.62,15.56.62,8,0,10.63,10.81,5.49,10.81H46.88a1,1,0,0,0,0,2H78a10.92,10.92,0,0,0,7.09-2.62C108,91.07,107,91.42,109.21,91.42a4.35,4.35,0,0,1,4.34,4.34,7.8,7.8,0,0,1-2.46,5.68L89.88,121.32A17.23,17.23,0,0,1,78.05,126H1.15a1,1,0,0,0,0,2h76.9a19.22,19.22,0,0,0,13.2-5.22l21.21-19.88a9.86,9.86,0,0,0,3.09-7.14A6.35,6.35,0,0,0,105.08,91Z"/><path class="cls-6" d="M127.06,31.1c-17.88-2-16.8-2-17.28-1.54-8.1,8.09-16.48,7-26,7a13.47,13.47,0,0,1-12.58-8.52c-.36-.88,0-.62-15.56-.62-8,0-10.63-10.81-5.49-10.81H81.22a1,1,0,0,0,0-2H50.13A10.9,10.9,0,0,0,43,17.25C20.09,36.93,21.11,36.58,18.89,36.58a4.35,4.35,0,0,1-4.34-4.34A7.84,7.84,0,0,1,17,26.56L38.22,6.68A17.23,17.23,0,0,1,50.05,2H127a1,1,0,0,0,0-2H50.05a19.22,19.22,0,0,0-13.2,5.22L15.64,25.1a9.84,9.84,0,0,0-3.09,7.14A6.34,6.34,0,0,0,23,37.05C46.25,17.14,44.67,18.4,45.71,17.81c-1.46,4.33,2.71,11.63,9.91,11.63h14a15.47,15.47,0,0,0,14.17,9.14h9.06a25.83,25.83,0,0,0,18-7.27l16,1.78A1,1,0,0,0,127.06,31.1Z"/><path class="cls-6" d="M63.47,89.27a1,1,0,0,0,1,0c1.1-.6,27-14.7,27-31.37C91.37,43.41,72.69,37,64,48.81,55.21,37,36.53,43.4,36.53,57.9,36.53,74.57,62.37,88.67,63.47,89.27Zm-.38-38.15a1,1,0,0,0,1.72,0c6.92-11.54,24.56-6.52,24.56,6.78,0,14.3-21.9,27.34-25.42,29.34-3.53-2-25.42-15-25.42-29.34C38.53,44.6,56.17,39.58,63.09,51.12Z"/><path class="cls-6" d="M76.14,50.77a7.14,7.14,0,0,1,7.13,7.13,1,1,0,0,0,1,1c2.78,0,.1-10.13-8.13-10.13A1,1,0,0,0,76.14,50.77Z"/></g></svg>