<svg xmlns="http://www.w3.org/2000/svg" xmlns:xlink="http://www.w3.org/1999/xlink" viewBox="0 0 128 128"><defs><style>.cls-1{fill:url(#linear-gradient);}.cls-2{fill:#5b8dc9;}.cls-3{fill:url(#linear-gradient-2);}.cls-4{fill:url(#linear-gradient-3);}.cls-5{fill:url(#linear-gradient-4);}.cls-6{fill:url(#linear-gradient-5);}.cls-7{fill:url(#linear-gradient-6);}.cls-8{fill:url(#linear-gradient-7);}.cls-9{fill:url(#linear-gradient-8);}.cls-10{fill:#47566a;}</style><linearGradient id="linear-gradient" x1="78.29" y1="126.98" x2="78.29" y2="0.98" gradientUnits="userSpaceOnUse"><stop offset="0" stop-color="#7aa8d7"/><stop offset="1" stop-color="#96c8ea"/></linearGradient><linearGradient id="linear-gradient-2" x1="59.94" y1="31.48" x2="59.94" y2="19.29" xlink:href="#linear-gradient"/><linearGradient id="linear-gradient-3" x1="17.26" y1="41.65" x2="17.26" y2="33.52" xlink:href="#linear-gradient"/><linearGradient id="linear-gradient-4" x1="39.61" y1="37.58" x2="39.61" y2="29.45" xlink:href="#linear-gradient"/><linearGradient id="linear-gradient-5" x1="5.06" y1="19.29" x2="5.06" y2="11.16" xlink:href="#linear-gradient"/><linearGradient id="linear-gradient-6" x1="25.39" y1="13.19" x2="25.39" y2="1" xlink:href="#linear-gradient"/><linearGradient id="linear-gradient-7" x1="7.1" y1="53.84" x2="7.1" y2="41.65" xlink:href="#linear-gradient"/><linearGradient id="linear-gradient-8" x1="49.77" y1="19.29" x2="49.77" y2="11.16" xlink:href="#linear-gradient"/></defs><title>Alzeimer</title><g id="Alzeimer"><path class="cls-1" d="M127,71.82a5.34,5.34,0,0,1-4.29,5.24l-5.87,1.18c0,7-.14,5.87.37,6.64a3.52,3.52,0,0,1-.5,4.54c-1.25,1.21-2.55,1-4.42,1a3.58,3.58,0,0,1,2.52,6.1c0,6,.65,10.32-3.65,14.62a12.44,12.44,0,0,1-12.25,3.17l-12.53-3.58V127H37.83c1.18-26.57,3.79-38.41-3.37-55.61a62.15,62.15,0,0,1-4.89-21.46l16.14-.14V62H57.9V49.77H74.16V57.9h8.13V49.77H74.16V33.52H90.42V45.71h12.19V33.52H90.42V17.26H74.16V1c22.63.13,44.71,16.58,44.71,43.74,0,6.06.16,6.91-.48,8.08a5.47,5.47,0,0,0,.34,5.75C126.39,69.24,127,69.52,127,71.82Z"/><path class="cls-2" d="M86.38,120.89V127H37.83s.12-2.41.28-6.09Z"/><rect class="cls-3" x="53.84" y="19.29" width="12.19" height="12.19"/><rect class="cls-4" x="13.19" y="33.52" width="8.13" height="8.13"/><rect class="cls-5" x="35.55" y="29.45" width="8.13" height="8.13"/><rect class="cls-6" x="1" y="11.16" width="8.13" height="8.13"/><rect class="cls-7" x="19.29" y="1" width="12.19" height="12.19"/><rect class="cls-8" x="1" y="41.65" width="12.19" height="12.19"/><rect class="cls-9" x="45.71" y="11.16" width="8.13" height="8.13"/><path class="cls-10" d="M126.82,68.11,119.55,58a4.49,4.49,0,0,1-.35-4.58c.88-1.8.67-2.71.67-8.69C119.87,21.23,101.36,0,74.16,0a1,1,0,0,0-1,1V17.26a1,1,0,0,0,1,1H89.42V32.52H74.16a1,1,0,0,0-1,1V48.77H57.9a1,1,0,0,0-1,1V61H46.71V49.77a1,1,0,0,0-1-1c-17.07,0-16.94-.28-17.14.83-.34,1.88.77,12.18,4.78,21.83a61.42,61.42,0,0,1,4.84,27.49c-.65,12.08-1.4,27.87-1.4,28a1,1,0,0,0,2,.1c0-.16.76-16,1.41-28A63.69,63.69,0,0,0,35.33,71,60.83,60.83,0,0,1,30.6,50.77H44.71V62a1,1,0,0,0,1,1H57.9a1,1,0,0,0,1-1V50.77H73.16V57.9a1,1,0,0,0,1,1h8.13a1,1,0,0,0,1-1V49.77a1,1,0,0,0-1-1H75.16V34.52H89.42V45.71a1,1,0,0,0,1,1h12.19a1,1,0,0,0,1-1V33.52a1,1,0,0,0-1-1H91.42V17.26a1,1,0,0,0-1-1H75.16c0-14.58-.08-14.26,0-14.26a42.74,42.74,0,0,1,42.69,42.69c0,6,.16,6.53-.46,7.81a6.46,6.46,0,0,0,.51,6.62c7.9,11,8.08,10.82,8.08,12.68a4.34,4.34,0,0,1-3.48,4.27l-5.88,1.18a1,1,0,0,0-.8,1c0,7.25-.18,6.13.53,7.2a2.56,2.56,0,0,1-2.13,4h-7.56a1,1,0,0,0,0,2h5.61a2.56,2.56,0,0,1,2.57,2.6c0,1.48-1,1.68-1,2.5,0,5.79.66,9.9-3.37,13.92a11.43,11.43,0,0,1-11.27,2.92c-13.48-3.85-12.85-3.85-13.42-3.42s-.4-.55-.4,17.06a1,1,0,0,0,2,0V112.07l11.26,3.21a13.45,13.45,0,0,0,13.25-3.42c4.56-4.57,4-9.19,4-15a4.49,4.49,0,0,0,0-5.76A4.56,4.56,0,0,0,118,84.32c-.29-.43-.2.38-.2-5.28l5.06-1A6.36,6.36,0,0,0,126.82,68.11ZM81.29,56.9H75.16V50.77h6.13Zm20.32-12.19H91.42V34.52h10.19Z"/><path class="cls-10" d="M21.32,32.52H13.19a1,1,0,0,0-1,1v7.13H1a1,1,0,0,0-1,1V53.84a1,1,0,0,0,1,1H13.19a1,1,0,0,0,1-1V42.65h7.13a1,1,0,0,0,1-1V33.52A1,1,0,0,0,21.32,32.52ZM12.19,52.84H2V42.65H12.19Zm8.13-12.19H14.19V34.52h6.13Z"/><path class="cls-10" d="M35.55,38.58h8.13a1,1,0,0,0,1-1V29.45a1,1,0,0,0-1-1H35.55a1,1,0,0,0-1,1v8.13A1,1,0,0,0,35.55,38.58Zm1-8.13h6.13v6.13H36.55Z"/><path class="cls-10" d="M1,20.29H9.13a1,1,0,0,0,1-1V11.16a1,1,0,0,0-1-1H1a1,1,0,0,0-1,1v8.13A1,1,0,0,0,1,20.29Zm1-8.13H8.13v6.13H2Z"/><path class="cls-10" d="M19.29,14.19H31.48a1,1,0,0,0,1-1V1a1,1,0,0,0-1-1H19.29a1,1,0,0,0-1,1V13.19A1,1,0,0,0,19.29,14.19ZM20.29,2H30.48V12.19H20.29Z"/><path class="cls-10" d="M45.71,20.29h7.13V31.48a1,1,0,0,0,1,1H66a1,1,0,0,0,1-1V19.29a1,1,0,0,0-1-1H54.84V11.16a1,1,0,0,0-1-1H45.71a1,1,0,0,0-1,1v8.13A1,1,0,0,0,45.71,20.29ZM65,30.48H54.84V20.29H65ZM46.71,12.16h6.13v6.13H46.71Z"/></g></svg>