<svg xmlns="http://www.w3.org/2000/svg" xmlns:xlink="http://www.w3.org/1999/xlink" viewBox="0 0 128 128"><defs><style>.cls-1{fill:url(#linear-gradient);}.cls-2{fill:#c7cdd8;}.cls-3{fill:url(#linear-gradient-2);}.cls-4{fill:#5b8dc9;}.cls-5{fill:url(#linear-gradient-3);}.cls-6{fill:url(#linear-gradient-4);}.cls-7{fill:#8288a1;}.cls-8{fill:#47566a;}</style><linearGradient id="linear-gradient" x1="93.47" y1="57.9" x2="93.47" y2="1" gradientUnits="userSpaceOnUse"><stop offset="0" stop-color="#d4d8e1"/><stop offset="1" stop-color="#f3f4f5"/></linearGradient><linearGradient id="linear-gradient-2" x1="33.52" y1="92.45" x2="33.52" y2="43.68" gradientUnits="userSpaceOnUse"><stop offset="0" stop-color="#7aa8d7"/><stop offset="1" stop-color="#96c8ea"/></linearGradient><linearGradient id="linear-gradient-3" x1="33.52" y1="127" x2="33.52" y2="92.45" xlink:href="#linear-gradient-2"/><linearGradient id="linear-gradient-4" x1="108.71" y1="27.55" x2="108.71" y2="9" gradientUnits="userSpaceOnUse"><stop offset="0" stop-color="#949aaf"/><stop offset="1" stop-color="#c6ccda"/></linearGradient></defs><title>Anorexia</title><g id="Anorexia"><path class="cls-1" d="M114.81,1H82.29A12.19,12.19,0,0,0,70.1,13.19V47.74L59.94,57.9h54.87A12.19,12.19,0,0,0,127,45.71V13.19A12.19,12.19,0,0,0,114.81,1Z"/><path class="cls-2" d="M127,39.61v6.1A12.2,12.2,0,0,1,114.81,57.9H59.94L70.1,47.74V39.61a12.2,12.2,0,0,0,12.19,12.2h32.52A12.21,12.21,0,0,0,127,39.61Z"/><path class="cls-3" d="M33.52,92.45A18.29,18.29,0,0,1,15.23,74.16V62a18.29,18.29,0,0,1,36.58,0V74.16A18.29,18.29,0,0,1,33.52,92.45Z"/><path class="cls-4" d="M51.81,70.1v4.06a18.29,18.29,0,1,1-36.58,0V70.1a18.29,18.29,0,1,0,36.58,0Z"/><path class="cls-5" d="M66,112.77V127H1V112.77A20.33,20.33,0,0,1,21.32,92.45H45.71A20.33,20.33,0,0,1,66,112.77Z"/><path class="cls-6" d="M115.45,19.79c0,4.28-3,7.76-6.74,7.76S102,24.07,102,19.79C102,14.58,104.68,9,108.71,9S115.45,14.58,115.45,19.79Z"/><path class="cls-7" d="M108.71,27.55c-3.79,0-7.42-3.65-6.63-9.7,1.34,8.4,11.92,8.39,13.26,0C116.12,23.81,112.55,27.55,108.71,27.55Z"/><rect class="cls-4" x="1" y="122.94" width="65.03" height="4.06"/><path class="cls-8" d="M12.19,110.74V127a1,1,0,0,0,2,0V110.74A1,1,0,0,0,12.19,110.74Z"/><path class="cls-8" d="M52.84,110.74V127a1,1,0,0,0,2,0V110.74A1,1,0,0,0,52.84,110.74Z"/><path class="cls-8" d="M45.71,91.45H42A19.3,19.3,0,0,0,52.81,74.16V62a19.29,19.29,0,0,0-38.58,0V74.16A19.3,19.3,0,0,0,25,91.45h-3.7A21.35,21.35,0,0,0,0,112.77V127a1,1,0,0,0,2,0V112.77A19.35,19.35,0,0,1,21.32,93.45H45.71A19.35,19.35,0,0,1,65,112.77V127a1,1,0,0,0,2,0V112.77A21.35,21.35,0,0,0,45.71,91.45Zm-12.19,0A17.3,17.3,0,0,1,16.23,74.16V62a17.29,17.29,0,0,1,34.58,0V74.16A17.31,17.31,0,0,1,33.52,91.45Z"/><path class="cls-8" d="M36.87,85a1,1,0,0,0,1.42-1.41l-3.36-3.36,3.36-3.36a1,1,0,0,0-1.42-1.41l-3.35,3.35-3.36-3.35a1,1,0,0,0-1.42,1.41l3.36,3.36-3.36,3.36A1,1,0,0,0,30.16,85l3.36-3.36Z"/><path class="cls-8" d="M93.48,9.13V21.32a3.07,3.07,0,0,1-3.06,3.07h-1V9.13a1,1,0,0,0-2,0V24.39h-1a3.07,3.07,0,0,1-3.06-3.07V9.13a1,1,0,0,0-2,0V21.32a5.07,5.07,0,0,0,5.06,5.07h1V49.77a1,1,0,0,0,2,0V26.39h1a5.07,5.07,0,0,0,5.06-5.07V9.13A1,1,0,0,0,93.48,9.13Z"/><path class="cls-8" d="M108.71,8.13c-4.25,0-7.1,6.19-7.1,12,0,4.19,2.66,7.65,6.1,8.23V49.77a1,1,0,0,0,2,0V28.33c3.44-.58,6.1-4,6.1-8.23C115.81,14.32,113,8.13,108.71,8.13Zm0,18.29c-2.81,0-5.1-2.83-5.1-6.32,0-5.12,2.48-10,5.1-10s5.1,4.85,5.1,10C113.81,23.59,111.52,26.42,108.71,26.42Z"/><path class="cls-8" d="M114.81,0H82.29A13.21,13.21,0,0,0,69.1,13.19V47.33L59.23,57.2a1,1,0,0,0,.71,1.7h54.87A13.21,13.21,0,0,0,128,45.71V13.19A13.21,13.21,0,0,0,114.81,0ZM126,45.71A11.2,11.2,0,0,1,114.81,56.9H62.35c9-9,8.75-8.56,8.75-9.16V13.19A11.2,11.2,0,0,1,82.29,2h32.52A11.2,11.2,0,0,1,126,13.19Z"/></g></svg>