<svg xmlns="http://www.w3.org/2000/svg" xmlns:xlink="http://www.w3.org/1999/xlink" viewBox="0 0 128 128"><defs><style>.cls-1{fill:url(#linear-gradient);}.cls-2{fill:#eab39b;}.cls-3{fill:url(#linear-gradient-2);}.cls-4{fill:url(#linear-gradient-3);}.cls-5{fill:url(#linear-gradient-4);}.cls-6{fill:url(#linear-gradient-5);}.cls-7{fill:#47566a;}</style><linearGradient id="linear-gradient" x1="64" y1="126.98" x2="64" y2="1.07" gradientUnits="userSpaceOnUse"><stop offset="0" stop-color="#f2c4b0"/><stop offset="1" stop-color="#ffe3d7"/></linearGradient><linearGradient id="linear-gradient-2" x1="72.13" y1="45.71" x2="72.13" y2="13.19" gradientUnits="userSpaceOnUse"><stop offset="0" stop-color="#fbcc88"/><stop offset="1" stop-color="#ffe5c3"/></linearGradient><linearGradient id="linear-gradient-3" x1="72.13" y1="66.03" x2="72.13" y2="41.65" gradientUnits="userSpaceOnUse"><stop offset="0" stop-color="#9dd5df"/><stop offset="1" stop-color="#c3e1f5"/></linearGradient><linearGradient id="linear-gradient-4" x1="47.74" y1="70.1" x2="47.74" y2="37.58" gradientUnits="userSpaceOnUse"><stop offset="0" stop-color="#6ab891"/><stop offset="1" stop-color="#85cba9"/></linearGradient><linearGradient id="linear-gradient-5" x1="33.52" y1="27.42" x2="33.52" y2="3.03" gradientUnits="userSpaceOnUse"><stop offset="0" stop-color="#7aa8d7"/><stop offset="1" stop-color="#96c8ea"/></linearGradient></defs><title>Autism</title><g id="Autism"><path class="cls-1" d="M112.75,71.82a5.34,5.34,0,0,1-4.29,5.24l-5.87,1.18c0,7-.14,5.87.37,6.64a3.52,3.52,0,0,1-.5,4.54c-1.25,1.21-2.55,1-4.42,1a3.58,3.58,0,0,1,2.52,6.1c0,6,.65,10.32-3.65,14.62a12.44,12.44,0,0,1-12.25,3.17l-12.53-3.58V127H23.58C25,98,27,87.7,20.21,71.37c-6.14-14-7.32-33.9.72-48.1,21.49-38,83.69-24.78,83.69,21.45,0,6.06.16,6.91-.48,8.08a5.47,5.47,0,0,0,.34,5.75C112.14,69.24,112.75,69.52,112.75,71.82Z"/><path class="cls-2" d="M84.32,25.32V45.65H76.19a4.07,4.07,0,0,1-8.13,0H59.94V37.52a4.07,4.07,0,0,0,0-8.13V21.26h8.12a4.07,4.07,0,1,1,8.13,0h4.07A4.08,4.08,0,0,1,84.32,25.32Z"/><path class="cls-2" d="M88.39,57.84a4.08,4.08,0,0,1-4.07,4.06V66A4.08,4.08,0,0,1,80.26,70H59.94V61.9a4.07,4.07,0,1,1,0-8.13V45.65h8.12a4.07,4.07,0,0,0,8.13,0h8.13v8.12A4.08,4.08,0,0,1,88.39,57.84Z"/><path class="cls-2" d="M55.87,57.84a4.08,4.08,0,0,0,4.07,4.06V70H51.81a4.07,4.07,0,1,1-8.13,0H39.61A4.08,4.08,0,0,1,35.55,66V45.65h8.13a4.07,4.07,0,1,1,8.13,0h8.13v8.12A4.08,4.08,0,0,0,55.87,57.84Z"/><path class="cls-2" d="M49.77,19.23a4.07,4.07,0,0,1-4.06,4.06v8.13H37.58a4.07,4.07,0,1,0-8.13,0H21.32V23.29l-.39,0A44.37,44.37,0,0,1,37,7h8.72v8.13A4.07,4.07,0,0,1,49.77,19.23Z"/><path class="cls-2" d="M72.13,120.89V127H23.58s.12-2.41.28-6.09Z"/><path class="cls-3" d="M84.32,21.32V41.65H76.19a4.07,4.07,0,0,1-8.13,0H59.94V33.52a4.07,4.07,0,0,0,0-8.13V17.26h8.12a4.07,4.07,0,1,1,8.13,0h4.07A4.08,4.08,0,0,1,84.32,21.32Z"/><path class="cls-4" d="M88.39,53.84a4.08,4.08,0,0,1-4.07,4.06V62A4.08,4.08,0,0,1,80.26,66H59.94V57.9a4.07,4.07,0,1,1,0-8.13V41.65h8.12a4.07,4.07,0,0,0,8.13,0h8.13v8.12A4.08,4.08,0,0,1,88.39,53.84Z"/><path class="cls-5" d="M55.87,53.84a4.08,4.08,0,0,0,4.07,4.06V66H51.81a4.07,4.07,0,1,1-8.13,0H39.61A4.08,4.08,0,0,1,35.55,62V41.65h8.13a4.07,4.07,0,1,1,8.13,0h8.13v8.12A4.08,4.08,0,0,0,55.87,53.84Z"/><path class="cls-6" d="M49.77,15.23a4.07,4.07,0,0,1-4.06,4.06v8.13H37.58a4.07,4.07,0,1,0-8.13,0H21.32V19.29a4.07,4.07,0,0,1,0-8.13V7.1A4.08,4.08,0,0,1,25.39,3H45.71v8.13A4.07,4.07,0,0,1,49.77,15.23Z"/><path class="cls-7" d="M85.32,62V58.8a5.07,5.07,0,0,0,0-9.93V21.32a5.07,5.07,0,0,0-5.06-5.06H77.09a5.07,5.07,0,0,0-9.93,0H59.94a1,1,0,0,0-1,1v8.13a1,1,0,0,0,1,1,3.07,3.07,0,0,1,0,6.13,1,1,0,0,0-1,1v7.13H52.71a5.07,5.07,0,0,0-9.93,0H35.55a1,1,0,0,0-1,1V62A5.07,5.07,0,0,0,39.61,67h3.17a5.07,5.07,0,0,0,9.93,0H80.26A5.07,5.07,0,0,0,85.32,62ZM60.94,34.42a5.07,5.07,0,0,0,0-9.93V18.26h7.12a1,1,0,0,0,1-1,3.07,3.07,0,1,1,6.13,0,1,1,0,0,0,1,1h4.07a3.06,3.06,0,0,1,3.06,3.06V40.65H76.19a1,1,0,0,0-1,1,3.07,3.07,0,0,1-6.13,0,1,1,0,0,0-1-1H60.94ZM51.81,65a1,1,0,0,0-1,1,3.07,3.07,0,1,1-6.13,0,1,1,0,0,0-1-1H39.61A3.06,3.06,0,0,1,36.55,62V42.65h7.13a1,1,0,0,0,1-1,3.07,3.07,0,1,1,6.13,0,1,1,0,0,0,1,1h7.13v6.22a5.07,5.07,0,0,0,0,9.93V65Zm8.13-8.13a3.07,3.07,0,1,1,0-6.13,1,1,0,0,0,1-1V42.65h6.22a5.07,5.07,0,0,0,9.93,0h6.23v7.12a1,1,0,0,0,1,1,3.07,3.07,0,1,1,0,6.13,1,1,0,0,0-1,1V62A3.06,3.06,0,0,1,80.26,65H60.94V57.9A1,1,0,0,0,59.94,56.9Z"/><path class="cls-7" d="M112.59,68.11,105.32,58a4.49,4.49,0,0,1-.34-4.58c.87-1.8.67-2.71.67-8.69C105.65,21.61,87.79,0,59.12,0A45.73,45.73,0,0,0,45.71,2H25.39A5.07,5.07,0,0,0,20.32,7.1v3.16a5.07,5.07,0,0,0,0,9.93v2.16c-4.81,8.25-6.09,15.87-6.09,24.31-.12,23.46,11,28.06,9.73,52.26-.64,12.08-1.39,27.87-1.4,28a1,1,0,0,0,2,.1c0-.16.76-16,1.4-28a63.46,63.46,0,0,0-5-28.38c-5.38-12.93-7.13-30.21-.65-44v.75a1,1,0,0,0,1,1h8.13a1,1,0,0,0,1-1,3.07,3.07,0,1,1,6.13,0,1,1,0,0,0,1,1h8.13a1,1,0,0,0,1-1V20.19a5.07,5.07,0,0,0,0-9.93V3.84c28.7-8.71,56.94,11.88,56.94,40.85,0,6,.15,6.53-.47,7.81a6.51,6.51,0,0,0,.51,6.62c7.9,11,8.08,10.82,8.08,12.68a4.34,4.34,0,0,1-3.48,4.27l-5.87,1.18a1,1,0,0,0-.81,1c0,7.25-.18,6.13.54,7.2a2.57,2.57,0,0,1-2.14,4H92.45a1,1,0,0,0,0,2h5.61a2.57,2.57,0,0,1,2.58,2.6c0,1.48-1.06,1.68-1.06,2.5,0,5.79.66,9.9-3.36,13.92a11.45,11.45,0,0,1-11.28,2.92c-13.49-3.85-12.84-3.84-13.41-3.42s-.4-.55-.4,17.06a1,1,0,0,0,2,0V112.07l11.26,3.21a13.43,13.43,0,0,0,13.24-3.42c4.57-4.57,4-9.19,4-15a4.47,4.47,0,0,0,0-5.76,4.56,4.56,0,0,0,2.22-6.82c-.28-.43-.2.38-.2-5.28l5.07-1A6.36,6.36,0,0,0,112.59,68.11ZM48.77,15.23a3.06,3.06,0,0,1-3.06,3.06,1,1,0,0,0-1,1v7.13H38.48a5.07,5.07,0,0,0-9.93,0H22.32V19.29a1,1,0,0,0-1-1,3.07,3.07,0,0,1,0-6.13,1,1,0,0,0,1-1V7.1A3.08,3.08,0,0,1,25.39,4H44.71v7.13a1,1,0,0,0,1,1A3.07,3.07,0,0,1,48.77,15.23Z"/></g></svg>