<svg xmlns="http://www.w3.org/2000/svg" xmlns:xlink="http://www.w3.org/1999/xlink" viewBox="0 0 128 128"><defs><style>.cls-1{fill:url(#linear-gradient);}.cls-2{fill:#5b8dc9;}.cls-3{fill:url(#linear-gradient-2);}.cls-4{fill:url(#linear-gradient-3);}.cls-5{fill:#f6b756;}.cls-6{fill:url(#linear-gradient-4);}.cls-7{fill:#7ece67;}.cls-8{fill:#47566a;}</style><linearGradient id="linear-gradient" x1="64" y1="92.45" x2="64" y2="43.68" gradientUnits="userSpaceOnUse"><stop offset="0" stop-color="#7aa8d7"/><stop offset="1" stop-color="#96c8ea"/></linearGradient><linearGradient id="linear-gradient-2" x1="64" y1="126.99" x2="64" y2="92.45" xlink:href="#linear-gradient"/><linearGradient id="linear-gradient-3" x1="108.7" y1="37.58" x2="108.7" y2="1.01" gradientUnits="userSpaceOnUse"><stop offset="0" stop-color="#fbcc88"/><stop offset="1" stop-color="#ffe5c3"/></linearGradient><linearGradient id="linear-gradient-4" x1="19.3" y1="37.58" x2="19.3" y2="1.01" gradientUnits="userSpaceOnUse"><stop offset="0" stop-color="#8cdd79"/><stop offset="1" stop-color="#d4e6b6"/></linearGradient></defs><title>Bipolar</title><g id="Bipolar"><path class="cls-1" d="M64,92.45A18.29,18.29,0,0,1,45.71,74.16V62a18.29,18.29,0,0,1,36.58,0V74.16A18.29,18.29,0,0,1,64,92.45Z"/><path class="cls-2" d="M82.29,70.1v4.06a18.29,18.29,0,0,1-36.58,0V70.1a18.29,18.29,0,0,0,36.58,0Z"/><path class="cls-3" d="M96.51,112.77V127h-65V112.77A20.32,20.32,0,0,1,51.81,92.45H76.19A20.32,20.32,0,0,1,96.51,112.77Z"/><rect class="cls-2" x="31.49" y="122.93" width="65.02" height="4.06"/><circle class="cls-4" cx="108.7" cy="19.3" r="18.29"/><path class="cls-5" d="M108.7,37.58A18.27,18.27,0,0,1,90.54,17.26a18.28,18.28,0,0,0,36.33,0A18.28,18.28,0,0,1,108.7,37.58Z"/><circle class="cls-6" cx="19.3" cy="19.3" r="18.29"/><path class="cls-7" d="M19.3,37.58A18.28,18.28,0,0,1,1.13,17.26a18.28,18.28,0,0,0,36.33,0A18.27,18.27,0,0,1,19.3,37.58Z"/><path class="cls-8" d="M38.58,19.29A19.29,19.29,0,1,0,19.29,38.58,19.31,19.31,0,0,0,38.58,19.29ZM19.29,36.58A17.29,17.29,0,1,1,36.58,19.29,17.31,17.31,0,0,1,19.29,36.58Z"/><path class="cls-8" d="M12.83,27.06a1,1,0,0,0,1.42,1.41,7.14,7.14,0,0,1,10.08,0,1,1,0,0,0,1.42-1.41A9.15,9.15,0,0,0,12.83,27.06Z"/><path class="cls-8" d="M108.71,0A19.29,19.29,0,1,0,128,19.29,19.31,19.31,0,0,0,108.71,0Zm0,36.58A17.29,17.29,0,1,1,126,19.29,17.31,17.31,0,0,1,108.71,36.58Z"/><path class="cls-8" d="M113.75,26.71a7.12,7.12,0,0,1-10.08,0,1,1,0,0,0-1.42,1.42,9.15,9.15,0,0,0,12.92,0A1,1,0,0,0,113.75,26.71Z"/><path class="cls-8" d="M99.58,15.23v2a1,1,0,0,0,2,0v-2A1,1,0,0,0,99.58,15.23Z"/><path class="cls-8" d="M115.84,15.23v2a1,1,0,0,0,2,0v-2A1,1,0,0,0,115.84,15.23Z"/><path class="cls-8" d="M12.75,14.33l-4.07,2a1,1,0,0,0,.45,1.9c.34,0,.17,0,4.51-2.14A1,1,0,0,0,12.75,14.33Z"/><path class="cls-8" d="M29.9,16.36l-4.07-2a1,1,0,0,0-.89,1.79l4.06,2A1,1,0,0,0,29.9,16.36Z"/><path class="cls-8" d="M46.82,11.54c.11.27-.33-.22,6.31,6.42a1,1,0,0,0,1.42-1.41l-4.39-4.39h30.1a1,1,0,0,0,0-2H50.16l4.39-4.39a1,1,0,0,0-1.42-1.41C46.57,10.92,46.47,10.7,46.82,11.54Z"/><path class="cls-8" d="M47.74,28.42h30.1l-4.39,4.39a1,1,0,0,0,.71,1.71c.58,0,.24.17,6.8-6.39A1,1,0,0,0,81.18,27c-.11-.27.33.22-6.31-6.42A1,1,0,0,0,73.45,22l4.39,4.39H47.74A1,1,0,0,0,47.74,28.42Z"/><path class="cls-8" d="M68.06,81.29H59.94a1,1,0,0,0,0,2h8.12A1,1,0,0,0,68.06,81.29Z"/><path class="cls-8" d="M42.68,110.74V127a1,1,0,0,0,2,0V110.74A1,1,0,0,0,42.68,110.74Z"/><path class="cls-8" d="M83.32,110.74V127a1,1,0,0,0,2,0V110.74A1,1,0,0,0,83.32,110.74Z"/><path class="cls-8" d="M76.19,91.45H72.5A19.3,19.3,0,0,0,83.29,74.16V62a19.29,19.29,0,0,0-38.58,0V74.16A19.3,19.3,0,0,0,55.5,91.45H51.81a21.35,21.35,0,0,0-21.33,21.32V127a1,1,0,0,0,2,0V112.77A19.35,19.35,0,0,1,51.81,93.45H76.19a19.35,19.35,0,0,1,19.33,19.32V127a1,1,0,0,0,2,0V112.77A21.35,21.35,0,0,0,76.19,91.45ZM46.71,74.16V62a17.29,17.29,0,0,1,34.58,0V74.16a17.29,17.29,0,0,1-34.58,0Z"/></g></svg>