<svg xmlns="http://www.w3.org/2000/svg" xmlns:xlink="http://www.w3.org/1999/xlink" viewBox="0 0 128 128"><defs><style>.cls-1{fill:url(#linear-gradient);}.cls-2{fill:#c7cdd8;}.cls-3{fill:url(#linear-gradient-2);}.cls-4{fill:url(#linear-gradient-3);}.cls-5{fill:url(#linear-gradient-4);}.cls-6{fill:#5b8dc9;}.cls-7{fill:#8288a1;}.cls-8{fill:#47566a;}</style><linearGradient id="linear-gradient" x1="64.01" y1="127" x2="64.01" y2="110.74" gradientUnits="userSpaceOnUse"><stop offset="0" stop-color="#d4d8e1"/><stop offset="1" stop-color="#f3f4f5"/></linearGradient><linearGradient id="linear-gradient-2" x1="64.01" y1="118.87" x2="64.01" y2="1" gradientUnits="userSpaceOnUse"><stop offset="0" stop-color="#7aa8d7"/><stop offset="1" stop-color="#96c8ea"/></linearGradient><linearGradient id="linear-gradient-3" x1="70.11" y1="57.9" x2="70.11" y2="17.26" xlink:href="#linear-gradient"/><linearGradient id="linear-gradient-4" x1="21.33" y1="118.87" x2="21.33" y2="1" gradientUnits="userSpaceOnUse"><stop offset="0" stop-color="#949aaf"/><stop offset="1" stop-color="#c6ccda"/></linearGradient></defs><title>Book</title><g id="Book"><path class="cls-1" d="M112.78,110.74V127H23.37a8.13,8.13,0,1,1,0-16.26Z"/><path class="cls-2" d="M112.78,122.94V127H23.37a8.13,8.13,0,0,1-7.87-10.16,8.13,8.13,0,0,0,7.87,6.1Z"/><path class="cls-3" d="M112.78,1V110.74H23.37a8.12,8.12,0,0,0-8.13,8.13V9.13A8.12,8.12,0,0,1,23.37,1Z"/><rect class="cls-4" x="39.62" y="17.26" width="60.97" height="40.65"/><rect class="cls-2" x="39.62" y="51.81" width="60.97" height="6.1"/><path class="cls-5" d="M27.43,1V110.74H23.37a8.12,8.12,0,0,0-8.13,8.13V9.13A8.12,8.12,0,0,1,23.37,1Z"/><rect class="cls-6" x="27.43" y="106.68" width="85.35" height="4.06"/><path class="cls-7" d="M27.43,106.68v4.06H23.37a8.12,8.12,0,0,0-8.13,8.13v-9.06C19.28,106.15,23.37,106.68,27.43,106.68Z"/><path class="cls-8" d="M112.77,0H23.35a9.13,9.13,0,0,0-9.12,9.13V118.87A9.13,9.13,0,0,0,23.35,128h89.42a1,1,0,0,0,1-1V1A1,1,0,0,0,112.77,0Zm-1,109.74H28.42V2h83.35Zm-95.54,3.43V9.13A7.13,7.13,0,0,1,23.35,2h3.07V109.74C23.42,109.74,19.39,109.23,16.23,113.17ZM23.35,126a7.13,7.13,0,0,1,0-14.26h88.42v6.13H23.35a1,1,0,0,0,0,2h88.42V126Z"/><path class="cls-8" d="M80.26,26.42c-5.78,0,1.25,12.19-8.13,12.19h-1V28.42h1a1,1,0,0,0,0-2H68.06a1,1,0,0,0,0,2h1V38.61c-4.83,0-6.31-.84-6.48-7.15-.06-2.36-.14-5-2.68-5a1,1,0,0,0,0,2c.51,0,.62,1,.68,3.1.2,7.25,2.48,9.09,8.48,9.09v6.13h-1a1,1,0,0,0,0,2h4.07a1,1,0,0,0,0-2h-1V40.61h1c10.51,0,6.08-12.19,8.13-12.19A1,1,0,0,0,80.26,26.42Z"/><path class="cls-8" d="M39.61,58.9h61a1,1,0,0,0,1-1V17.26a1,1,0,0,0-1-1h-61a1,1,0,0,0-1,1V57.9A1,1,0,0,0,39.61,58.9Zm1-40.64h59V56.9h-59Z"/><path class="cls-8" d="M96.52,83.32H43.68a1,1,0,0,0,0,2H96.52A1,1,0,0,0,96.52,83.32Z"/><path class="cls-8" d="M96.52,95.52H43.68a1,1,0,0,0,0,2H96.52A1,1,0,0,0,96.52,95.52Z"/></g></svg>