<svg xmlns="http://www.w3.org/2000/svg" xmlns:xlink="http://www.w3.org/1999/xlink" viewBox="0 0 128 128"><defs><style>.cls-1{fill:url(#linear-gradient);}.cls-2{fill:#d861b0;}.cls-3{fill:url(#linear-gradient-2);}.cls-4{fill:#5b8dc9;}.cls-5{fill:url(#linear-gradient-3);}.cls-6{fill:#47566a;}</style><linearGradient id="linear-gradient" x1="64" y1="126.9" x2="64" y2="1.03" gradientUnits="userSpaceOnUse"><stop offset="0" stop-color="#db72b8"/><stop offset="1" stop-color="#d88bc2"/></linearGradient><linearGradient id="linear-gradient-2" x1="64" y1="84.29" x2="64" y2="39.62" gradientUnits="userSpaceOnUse"><stop offset="0" stop-color="#7aa8d7"/><stop offset="1" stop-color="#96c8ea"/></linearGradient><linearGradient id="linear-gradient-3" x1="64" y1="74.14" x2="64" y2="49.77" gradientUnits="userSpaceOnUse"><stop offset="0" stop-color="#d4d8e1"/><stop offset="1" stop-color="#f3f4f5"/></linearGradient></defs><title>Brain</title><g id="Brain"><path class="cls-1" d="M115.86,49.12a16.25,16.25,0,0,0-14-21.63c3.31-8.67-4.61-17.95-13.62-16.1A12.18,12.18,0,0,0,64,13.22a12.18,12.18,0,0,0-24.23-1.83c-9-1.85-16.93,7.42-13.62,16.1a16.25,16.25,0,0,0-14,21.63,14.2,14.2,0,0,0,1,22.44,16.25,16.25,0,0,0,4.59,25,16.23,16.23,0,0,0,11.29,19.55C37.07,134,64,128.28,64,108.66c0,19.58,26.91,25.41,34.93,7.49A16.23,16.23,0,0,0,110.22,96.6a16.25,16.25,0,0,0,4.59-25A14.2,14.2,0,0,0,115.86,49.12Z"/><path class="cls-2" d="M110.4,97.49a16.2,16.2,0,0,1-11.47,18.66C90.93,134,64,128.28,64,108.66c0,19.58-26.91,25.41-34.93,7.49A16.2,16.2,0,0,1,17.6,97.49a16.21,16.21,0,0,0,11.47,12.57C37.07,128,64,122.19,64,102.57c0,19.58,26.91,25.4,34.93,7.49A16.21,16.21,0,0,0,110.4,97.49Z"/><path class="cls-2" d="M83.15,126.89C74.71,128.1,64,120.23,64,108.66c0,11.74-11,19.4-19.15,18.23A18.26,18.26,0,0,0,62,108.66V13.22A12.18,12.18,0,0,0,50.84,1.09C57.24.29,64,5.7,64,13.22,64,5.74,70.72.29,77.16,1.09A12.18,12.18,0,0,0,66,13.22v95.44A18.26,18.26,0,0,0,83.15,126.89Z"/><path class="cls-2" d="M64,88.35A22.32,22.32,0,0,1,41.76,64a22.33,22.33,0,0,0,44.48,0A22.32,22.32,0,0,1,64,88.35Z"/><circle class="cls-3" cx="64" cy="61.95" r="22.34"/><path class="cls-4" d="M64,84.29A22.32,22.32,0,0,1,41.76,59.92a22.33,22.33,0,0,0,44.48,0A22.32,22.32,0,0,1,64,84.29Z"/><polygon class="cls-5" points="76.18 57.89 68.06 57.89 68.06 49.77 59.94 49.77 59.94 57.89 51.82 57.89 51.82 66.02 59.94 66.02 59.94 74.14 68.06 74.14 68.06 66.02 76.18 66.02 76.18 57.89"/><path class="cls-6" d="M117.06,48.81A17.3,17.3,0,0,0,103.2,26.63a13.21,13.21,0,0,0-14.15-16.4C86.2-2.18,68.93-3.75,64,8.17,59.07-3.75,41.8-2.18,39,10.23A13.22,13.22,0,0,0,24.8,26.63,17.3,17.3,0,0,0,10.94,48.81a15.22,15.22,0,0,0,.78,22.94A17.25,17.25,0,0,0,16.6,97.14,17.3,17.3,0,0,0,28.33,117C35.76,132.63,58.5,131.26,64,114.8c5.49,16.45,28.24,17.84,35.67,2.24a17.3,17.3,0,0,0,11.73-19.9,17.25,17.25,0,0,0,4.88-25.39A15.22,15.22,0,0,0,117.06,48.81ZM64,83.32A21.36,21.36,0,1,1,85.35,62,21.37,21.37,0,0,1,64,83.32ZM45.71,126A17.26,17.26,0,0,1,30,115.8a1,1,0,0,0-.64-.55A15.29,15.29,0,0,1,18.71,96.89a1,1,0,0,0-.5-1.14,15.23,15.23,0,0,1-4.84-22.84A15.23,15.23,0,0,0,33.9,68.53a1,1,0,0,0-1.66-1.13,13.18,13.18,0,0,1-10.92,5.76C9,73.16,3.43,57.78,12.74,49.89a1,1,0,0,0,.3-1.1A15.29,15.29,0,0,1,26.2,28.48a1,1,0,0,0,.85-1.36,11.19,11.19,0,1,1,21.72-3.77,1,1,0,0,0,2,0A13.15,13.15,0,0,0,40.92,10.6,11.19,11.19,0,0,1,63,13.19V38.64A23.4,23.4,0,0,0,41.14,57.16a1,1,0,0,0-.5-.16,8,8,0,0,1-8-7.07,13.64,13.64,0,0,0,8.57-23.22,1,1,0,0,0-1.41,1.42A11.63,11.63,0,0,1,23.39,44.58,1,1,0,0,0,22,46a13.52,13.52,0,0,0,8.68,3.94,10,10,0,0,0,10,9.07.65.65,0,0,0,.2,0,23.27,23.27,0,0,0,4.23,16.67A16.24,16.24,0,0,0,32.52,91.26a16.31,16.31,0,0,0-3.07-.3,1,1,0,0,0,0,2,13.73,13.73,0,0,1,13.72,13.72,1,1,0,0,0,2,0A15.73,15.73,0,0,0,34.45,91.79a1,1,0,0,0,.07-.35,14.26,14.26,0,0,1,12-14A23.26,23.26,0,0,0,63,85.3v14.83A19.16,19.16,0,0,0,46.24,89.44a1,1,0,0,0-.05,2A17.28,17.28,0,0,1,45.71,126Zm64.08-30.25a1,1,0,0,0-.5,1.14,15.29,15.29,0,0,1-10.61,18.36,1,1,0,0,0-.64.55A17.28,17.28,0,1,1,81.81,91.44a1,1,0,0,0,0-2A19.16,19.16,0,0,0,65,100.13V85.3a23.26,23.26,0,0,0,16.51-7.91,14.26,14.26,0,0,1,12,14,1,1,0,0,0,.07.35,15.73,15.73,0,0,0-10.72,14.89,1,1,0,0,0,2,0A13.73,13.73,0,0,1,98.55,93a1,1,0,0,0,0-2,16.31,16.31,0,0,0-3.07.3A16.24,16.24,0,0,0,82.93,75.63,23.24,23.24,0,0,0,87.35,62c0-3.59-.47-3,0-3a10,10,0,0,0,10-9.07A13.52,13.52,0,0,0,106,46a1,1,0,1,0-1.41-1.41,11.65,11.65,0,0,1-19.86-8.23,11.52,11.52,0,0,1,3.41-8.22,1,1,0,0,0-1.41-1.42,13.64,13.64,0,0,0,8.57,23.22,8,8,0,0,1-8,7.07,1,1,0,0,0-.5.16A23.4,23.4,0,0,0,65,38.64V13.19A11.19,11.19,0,0,1,87.08,10.6a13.15,13.15,0,0,0-9.85,12.75,1,1,0,0,0,2,0,11.19,11.19,0,0,1,22.38,0c0,3.27-1.12,3.8-.57,4.67a1,1,0,0,0,.76.46,15.31,15.31,0,0,1,14,15.2c0,4.54-1.63,5.32-.58,6.21a13.21,13.21,0,0,1-1,20.87h0A13.21,13.21,0,0,1,95.76,67.4a1,1,0,0,0-1.66,1.13,15.23,15.23,0,0,0,20.53,4.38A15.23,15.23,0,0,1,109.79,95.75Z"/><path class="cls-6" d="M76.19,56.9H69.06V49.77a1,1,0,0,0-1-1H59.94a1,1,0,0,0-1,1V56.9H51.81a1,1,0,0,0-1,1V66a1,1,0,0,0,1,1h7.13v7.13a1,1,0,0,0,1,1h8.12a1,1,0,0,0,1-1V67h7.13a1,1,0,0,0,1-1V57.9A1,1,0,0,0,76.19,56.9Zm-1,8.13H68.06a1,1,0,0,0-1,1v7.13H60.94V66a1,1,0,0,0-1-1H52.81V58.9h7.13a1,1,0,0,0,1-1V50.77h6.12V57.9a1,1,0,0,0,1,1h7.13Z"/></g></svg>