<svg xmlns="http://www.w3.org/2000/svg" xmlns:xlink="http://www.w3.org/1999/xlink" viewBox="0 0 128 128"><defs><style>.cls-1{fill:url(#linear-gradient);}.cls-2{fill:#eab39b;}.cls-3{fill:url(#linear-gradient-2);}.cls-4{fill:#d861b0;}.cls-5{fill:#47566a;}</style><linearGradient id="linear-gradient" x1="64" y1="126.98" x2="64" y2="0.98" gradientUnits="userSpaceOnUse"><stop offset="0" stop-color="#f2c4b0"/><stop offset="1" stop-color="#ffe3d7"/></linearGradient><linearGradient id="linear-gradient-2" x1="59.94" y1="76.2" x2="59.94" y2="9.17" gradientUnits="userSpaceOnUse"><stop offset="0" stop-color="#db72b8"/><stop offset="1" stop-color="#d88bc2"/></linearGradient></defs><title>Brain Head</title><g id="Brain_Head" data-name="Brain Head"><path class="cls-1" d="M112.75,71.82a5.34,5.34,0,0,1-4.29,5.24l-5.87,1.18c0,7-.14,5.87.37,6.64a3.52,3.52,0,0,1-.5,4.54c-1.25,1.21-2.55,1-4.42,1a3.58,3.58,0,0,1,2.52,6.1c0,6,.65,10.32-3.65,14.62a12.44,12.44,0,0,1-12.25,3.17l-12.53-3.58V127H23.58C25,98,27,87.7,20.21,71.37a62.56,62.56,0,0,1-5-24.68c0-13.52,4.27-24.24,12.92-32.86,26.66-26.53,76.45-9.89,76.45,30.89,0,6.06.16,6.91-.48,8.08a5.47,5.47,0,0,0,.34,5.75C112.14,69.24,112.75,69.52,112.75,71.82Z"/><path class="cls-2" d="M76.05,49.23a8.14,8.14,0,0,1-8,6.6c-14.22,0-18.28,24.37-18.28,24.37H43.69l1.64-16.37A12.18,12.18,0,0,1,31.5,51.77c0-2.1.4-2,0-2a6.09,6.09,0,0,1-4.22-10.46A7.1,7.1,0,0,1,31.6,27.45c-1-4.4,3.64-9.32,8.64-8a7.09,7.09,0,0,1,9.18-3.74,7.07,7.07,0,0,1,10.52-.4A7,7,0,0,1,65,13.17c5.21,0,6.38,4.49,6.6,4.49a8,8,0,0,1,9.6,3.72,8.1,8.1,0,0,1,9.08,9.28C100.57,38.67,90.36,52.75,76.05,49.23Z"/><path class="cls-3" d="M76.05,45.23a8.14,8.14,0,0,1-8,6.6c-14.22,0-18.28,24.37-18.28,24.37H43.69l1.64-16.37A12.18,12.18,0,0,1,31.5,47.77c0-2.1.4-2,0-2a6.09,6.09,0,0,1-4.22-10.46A7.1,7.1,0,0,1,31.6,23.45c-1-4.4,3.64-9.32,8.64-8a7.09,7.09,0,0,1,9.18-3.74,7.07,7.07,0,0,1,10.52-.4A7,7,0,0,1,65,9.17c5.21,0,6.38,4.49,6.6,4.49a8,8,0,0,1,9.6,3.72,8.1,8.1,0,0,1,9.08,9.28C100.57,34.67,90.36,48.75,76.05,45.23Z"/><path class="cls-4" d="M31.68,45.74a12.16,12.16,0,0,0,13.65,10l-.4,4.1C37.46,61,30.21,53.82,31.68,45.74Z"/><path class="cls-4" d="M76.05,45.23a8.14,8.14,0,0,1-8,6.6c-14.22,0-18.28,24.37-18.28,24.37H43.69l.4-4.06A7.19,7.19,0,0,0,51,67c2.07-7.15,7-19.23,17.05-19.23a8.15,8.15,0,0,0,8-6.6c8.32,2,16.7-2.24,18.17-8.64C96.23,40.54,86.44,47.79,76.05,45.23Z"/><path class="cls-2" d="M72.13,120.89V127H23.58s.12-2.41.28-6.09Z"/><path class="cls-5" d="M112.59,68.12,105.32,58A4.41,4.41,0,0,1,105,53.4c.9-1.81.68-2.93.68-8.71C105.65,21.62,87.79,0,59.12,0A45,45,0,0,0,14.23,44.69c0,9,.86,17.05,4.9,26.73A61.71,61.71,0,0,1,24,98.92c-.65,12.08-1.4,27.87-1.41,28a1,1,0,0,0,2,.1C25.86,98.77,28.16,87.9,21.1,71,17,61.18,16.2,53.54,16.23,44.7A43,43,0,0,1,59.12,2c27.25,0,44.53,20.43,44.53,42.69,0,6,.15,6.57-.47,7.81a6.4,6.4,0,0,0,.52,6.61L111,69.28a4.35,4.35,0,0,1-2.68,6.79l-5.86,1.18a1,1,0,0,0-.81,1c0,6.56-.06,6.3.17,6.65.59.89,1.22,1.83.49,3.18A2.53,2.53,0,0,1,100,89.42H92.45a1,1,0,0,0,0,2h5.61a2.57,2.57,0,0,1,1.81,4.39c-.4.41-.29.35-.29,6.52A11.49,11.49,0,0,1,88.1,113.81c-2.14,0-2.19-.17-15.7-4a1,1,0,0,0-1.27,1V127a1,1,0,0,0,2,0V112.07c11.4,3.26,12.36,3.74,15,3.74a13.5,13.5,0,0,0,13.48-13.48V96.9a4.54,4.54,0,0,0,0-5.77,4.58,4.58,0,0,0,2.18-6.82c-.28-.41-.2.44-.2-5.26l5.06-1A6.35,6.35,0,0,0,112.59,68.12Z"/><path class="cls-5" d="M70.16,29.48c2.44,0,5.63-2.42,6.07-6a1,1,0,0,0-2-.25A4.85,4.85,0,0,1,70,27.48,1,1,0,0,0,70.16,29.48Z"/><path class="cls-5" d="M76.78,46.38c14.74,2.79,24.73-11.56,14.59-20.16a9.11,9.11,0,0,0-9.64-9.94,9,9,0,0,0-9.6-3.85,8,8,0,0,0-12.19-2.5,8.06,8.06,0,0,0-10.82.6,8,8,0,0,0-9.43,3.78,8.11,8.11,0,0,0-9.2,8.31,8.09,8.09,0,0,0-4.55,12.59,7.09,7.09,0,0,0,4.59,11.43A13.2,13.2,0,0,0,44.21,60.92c-1.65,16.37-1.7,15.47-1.27,15.94s.39.33,6.83.33a1,1,0,0,0,1-.83c0-.24,4.09-23.55,17.3-23.55A9.13,9.13,0,0,0,76.78,46.38Zm-8.72,4.43c-13.53,0-18.24,19.94-19.12,24.38H44.78c1.68-16.64,1.67-15.51,1.35-15.95-.49-.7-1-.3-2.45-.3-11.15,0-15.38-14.72-6-20.66a1,1,0,0,0-1.07-1.69,13.17,13.17,0,0,0-5.76,8.06A5.07,5.07,0,0,1,27.94,36s.22-.31.23-.32.09-.35.09-.37-.06-.36-.06-.38-.2-.33-.21-.34A6.1,6.1,0,0,1,31.74,24.4a1,1,0,0,0,.82-1.16,6.11,6.11,0,0,1,6-7c1.31,0,1.64.43,2.22,0a1.26,1.26,0,0,0,.32-.38c2.63-6.05,11.7-4.15,11.7,2.44a1,1,0,0,0,2,0,8,8,0,0,0-3.76-6.82,6,6,0,0,1,3.77-1.32c3.47,0,4.16,2.32,5.26,2.12a.57.57,0,0,0,.36-.15,1.29,1.29,0,0,0,.16-.09,6.07,6.07,0,0,1,10,2,1,1,0,0,0,1.28.58,7.07,7.07,0,0,1,8.41,3.27,1,1,0,0,0,1,.49,7.13,7.13,0,1,1,.93,14.2,1,1,0,0,0,0,2,9.18,9.18,0,0,0,8.58-6C98.22,36,89.14,46.69,77.16,44.42c.65-8.73-10.1-11.75-10.1-8.87a1,1,0,0,0,1,1,7.13,7.13,0,0,1,0,14.26Z"/><path class="cls-5" d="M62,28.45a1,1,0,0,0-1,1c0,2.76-4.66,5.1-10.18,5.1s-10.18-2.34-10.18-5.1a1,1,0,0,0-1-1c-2.7,0-.53,8.25,11.48,8.09-2.28,8.47,8.83,12.25,8.83,9.17a1,1,0,0,0-1-1,6.1,6.1,0,0,1-5.69-8.3C63.22,35.27,64.23,28.45,62,28.45Z"/><path class="cls-5" d="M62,20.32a7.11,7.11,0,0,0-7.1,7.1,1,1,0,0,0,2,0,5.11,5.11,0,0,1,5.1-5.1A1,1,0,0,0,62,20.32Z"/><path class="cls-5" d="M45.71,50.81a5.11,5.11,0,0,1-5.1-5.1,1,1,0,0,0-1-1c-2.57,0-.33,8.1,6.1,8.1A1,1,0,0,0,45.71,50.81Z"/></g></svg>