<svg xmlns="http://www.w3.org/2000/svg" xmlns:xlink="http://www.w3.org/1999/xlink" viewBox="0 0 128 128"><defs><style>.cls-1{fill:url(#linear-gradient);}.cls-2{fill:#eab39b;}.cls-3{fill:url(#linear-gradient-2);}.cls-4{fill:#4da67f;}.cls-5{fill:#47566a;}</style><linearGradient id="linear-gradient" x1="64" y1="126.98" x2="64" y2="0.98" gradientUnits="userSpaceOnUse"><stop offset="0" stop-color="#f2c4b0"/><stop offset="1" stop-color="#ffe3d7"/></linearGradient><linearGradient id="linear-gradient-2" x1="59.94" y1="74.17" x2="59.94" y2="9.17" gradientUnits="userSpaceOnUse"><stop offset="0" stop-color="#6ab891"/><stop offset="1" stop-color="#85cba9"/></linearGradient></defs><title>Cannabis</title><g id="Cannabis"><path class="cls-1" d="M112.75,71.82a5.34,5.34,0,0,1-4.29,5.24l-5.87,1.18c0,7-.14,5.87.37,6.64a3.52,3.52,0,0,1-.5,4.54c-1.25,1.21-2.55,1-4.42,1a3.58,3.58,0,0,1,2.52,6.1c0,6,.65,10.32-3.65,14.62a12.44,12.44,0,0,1-12.25,3.17l-12.53-3.58V127H23.58C25,98,27,87.7,20.21,71.37a62.56,62.56,0,0,1-5-24.68c0-13.52,4.27-24.24,12.92-32.86,26.66-26.53,76.45-9.89,76.45,30.89,0,6.06.16,6.91-.48,8.08a5.47,5.47,0,0,0,.34,5.75C112.14,69.24,112.75,69.52,112.75,71.82Z"/><path class="cls-2" d="M90.41,64C85.28,67.27,77.57,69.3,68.06,68a15.48,15.48,0,0,1,4.07,10.15c-10.16,0-12.19-8.12-12.19-8.12s-2,8.12-12.19,8.12A15.49,15.49,0,0,1,51.81,68C42.34,69.3,34.62,67.29,29.47,64c7.5-6,13.82-6.09,22.34-4.06-12.2-7-18.07-12.61-20.31-26.4C42.82,35.1,50.63,43.63,55.86,53.74c-.17-.92-2-6.62-2-18.22,0-12.19,6.1-22.35,6.1-22.35S66,23.33,66,35.52c0,11.6-1.85,17.3-2,18.22,5.23-10.11,13-18.64,24.35-20.25C86.19,47,80.74,52.63,68.06,59.89,76.65,57.85,82.9,58,90.41,64Z"/><path class="cls-3" d="M90.41,60C85.28,63.27,77.57,65.3,68.06,64a15.48,15.48,0,0,1,4.07,10.15c-10.16,0-12.19-8.12-12.19-8.12s-2,8.12-12.19,8.12A15.49,15.49,0,0,1,51.81,64C42.34,65.3,34.62,63.29,29.47,60c7.5-6,13.82-6.09,22.34-4.06-12.2-7-18.07-12.61-20.31-26.4C42.82,31.1,50.63,39.63,55.86,49.74c-.17-.92-2-6.62-2-18.22,0-12.19,6.1-22.35,6.1-22.35S66,19.33,66,31.52c0,11.6-1.85,17.3-2,18.22,5.23-10.11,13-18.64,24.35-20.25C86.19,43,80.74,48.63,68.06,55.89,76.65,53.85,82.9,54,90.41,60Z"/><path class="cls-4" d="M51.81,55.89C39.38,48.76,33.72,43.16,31.5,29.49l.85.12C37.07,49,51.81,46.83,51.81,55.89Z"/><path class="cls-4" d="M51.81,64c-7.47,1-15.89.1-22.34-4.07a31.52,31.52,0,0,1,3.33-2.27c4.67,2.1,11.05,2.45,15.1,2.43A3.91,3.91,0,0,1,51.81,64Z"/><path class="cls-4" d="M71.5,70.09a14.84,14.84,0,0,1,.63,4.08c-10.16,0-12.19-8.12-12.19-8.12s-2,8.12-12.19,8.12a14.47,14.47,0,0,1,.63-4.08C58,69.76,59.94,62,59.94,62S61.89,69.76,71.5,70.09Z"/><path class="cls-4" d="M90.41,60C85.28,63.27,77.57,65.3,68.06,64A3.92,3.92,0,0,1,72,60.11c4,0,10.43-.33,15.09-2.43A37,37,0,0,1,90.41,60Z"/><path class="cls-4" d="M88.37,29.49c-1.25,7.72-3.6,13.76-9.5,18.94-6.87,6-10.81,7-10.81,7.46,0-9,14.77-7,19.46-26.28Z"/><path class="cls-2" d="M72.13,120.89V127H23.58s.12-2.41.28-6.09Z"/><path class="cls-5" d="M112.59,68.12,105.32,58A4.41,4.41,0,0,1,105,53.4c.9-1.8.68-2.91.68-8.71C105.65,21.62,87.79,0,59.12,0A45,45,0,0,0,14.23,44.69c0,9,.86,17.05,4.9,26.73A61.71,61.71,0,0,1,24,98.92c-.65,12.08-1.4,27.87-1.41,28a1,1,0,0,0,2,.1C25.86,98.77,28.16,87.9,21.1,71,17,61.18,16.2,53.54,16.23,44.7A43,43,0,0,1,59.12,2c27.25,0,44.53,20.43,44.53,42.69,0,6,.15,6.57-.47,7.81a6.4,6.4,0,0,0,.52,6.61L111,69.28a4.35,4.35,0,0,1-2.68,6.79l-5.86,1.18a1,1,0,0,0-.81,1c0,6.56-.06,6.3.17,6.65.6.89,1.21,1.83.49,3.18A2.53,2.53,0,0,1,100,89.42H92.45a1,1,0,0,0,0,2h5.61a2.57,2.57,0,0,1,1.81,4.39c-.4.41-.29.35-.29,6.52A11.49,11.49,0,0,1,88.1,113.81c-2.14,0-2.19-.17-15.7-4a1,1,0,0,0-1.27,1V127a1,1,0,0,0,2,0V112.07c11.4,3.26,12.36,3.74,15,3.74a13.5,13.5,0,0,0,13.48-13.48V96.9a4.55,4.55,0,0,0,0-5.77,4.58,4.58,0,0,0,2.18-6.82c-.28-.41-.2.44-.2-5.26l5.06-1A6.35,6.35,0,0,0,112.59,68.12Z"/><path class="cls-5" d="M72.13,75.16a1,1,0,0,0,1-1,16.7,16.7,0,0,0-2.8-8.92c5,.37,13.54.14,20.63-4.47A1,1,0,0,0,91,59.14c-6.34-4.9-11.57-6-17.76-5.26,10.36-6.71,14.19-12.8,16.1-24.26a1,1,0,0,0-1.11-1.16c-10.72,1.34-18,9.29-22.06,15.48A85.65,85.65,0,0,0,67,31.48,49,49,0,0,0,60.79,8.61a1,1,0,0,0-1.71,0,49,49,0,0,0-6.24,22.87,85.65,85.65,0,0,0,.83,12.46c-4.1-6.19-11.34-14.14-22.06-15.48a1,1,0,0,0-1.11,1.16c1.91,11.46,5.74,17.55,16.1,24.26-6.19-.74-11.42.36-17.76,5.26a1,1,0,0,0,.07,1.63c7.09,4.61,15.64,4.84,20.63,4.47a16.7,16.7,0,0,0-2.8,8.92,1,1,0,0,0,1,1c6,0,9.36-2.68,11.2-5.1V82.29a1,1,0,0,0,2,0V70.06C62.77,72.48,66.15,75.16,72.13,75.16Zm-23.34-2a14.67,14.67,0,0,1,3.72-8.42,1,1,0,0,0-.84-1.7c-3.69.5-12.79,1.13-20.43-3.16,12-8.5,20.47-1,21.5-3.61A1,1,0,0,0,52.3,55c-13-7.42-17.42-12.82-19.59-24.35C42.82,32.54,50.26,41,55,50.18a1,1,0,0,0,1.86-.64c-.17-1-2-6.58-2-18.06,0-9,3.45-17,5.1-20.23C61.58,14.53,65,22.48,65,31.48a74.64,74.64,0,0,1-2,18.06,1,1,0,0,0,1.87.64C69.61,41,77.05,32.54,87.16,30.65,85,42.18,80.55,47.58,67.57,55a1,1,0,0,0-.44,1.24c1.05,2.65,9.48-4.94,21.5,3.61C81,64.14,71.89,63.51,68.2,63a1,1,0,0,0-.84,1.7,14.67,14.67,0,0,1,3.72,8.42c-8.59-.53-10-7.26-10.39-7.74a1,1,0,0,0-1.51,0C58.81,65.83,57.34,72.59,48.79,73.13Z"/></g></svg>