<svg xmlns="http://www.w3.org/2000/svg" xmlns:xlink="http://www.w3.org/1999/xlink" viewBox="0 0 128 128"><defs><style>.cls-1{fill:url(#linear-gradient);}.cls-2{fill:#c7cdd8;}.cls-3{fill:url(#linear-gradient-2);}.cls-4{fill:url(#linear-gradient-3);}.cls-5{fill:#8288a1;}.cls-6{fill:url(#linear-gradient-4);}.cls-7{fill:#77cacb;}.cls-8{fill:url(#linear-gradient-5);}.cls-9{fill:url(#linear-gradient-6);}.cls-10{fill:url(#linear-gradient-7);}.cls-11{fill:url(#linear-gradient-8);}.cls-12{fill:url(#linear-gradient-9);}.cls-13{fill:#5b8dc9;}.cls-14{fill:url(#linear-gradient-10);}.cls-15{fill:url(#linear-gradient-11);}.cls-16{fill:url(#linear-gradient-12);}.cls-17{fill:url(#linear-gradient-13);}.cls-18{fill:url(#linear-gradient-14);}.cls-19{fill:url(#linear-gradient-15);}.cls-20{fill:url(#linear-gradient-16);}.cls-21{fill:url(#linear-gradient-17);}.cls-22{fill:url(#linear-gradient-18);}.cls-23{fill:url(#linear-gradient-19);}.cls-24{fill:url(#linear-gradient-20);}.cls-25{fill:#47566a;}</style><linearGradient id="linear-gradient" x1="64" y1="127" x2="64" y2="29.45" gradientUnits="userSpaceOnUse"><stop offset="0" stop-color="#d4d8e1"/><stop offset="1" stop-color="#f3f4f5"/></linearGradient><linearGradient id="linear-gradient-2" x1="114.81" y1="127" x2="114.81" y2="43.68" gradientUnits="userSpaceOnUse"><stop offset="0" stop-color="#949aaf"/><stop offset="1" stop-color="#c6ccda"/></linearGradient><linearGradient id="linear-gradient-3" x1="13.19" x2="13.19" y2="43.68" xlink:href="#linear-gradient-2"/><linearGradient id="linear-gradient-4" x1="64" y1="127" x2="64" y2="98.55" gradientUnits="userSpaceOnUse"><stop offset="0" stop-color="#9dd5df"/><stop offset="1" stop-color="#c3e1f5"/></linearGradient><linearGradient id="linear-gradient-5" x1="33.52" y1="29.45" x2="33.52" y2="17.26" xlink:href="#linear-gradient-2"/><linearGradient id="linear-gradient-6" x1="94.48" y1="29.45" x2="94.48" y2="17.26" xlink:href="#linear-gradient-2"/><linearGradient id="linear-gradient-7" x1="86.35" y1="57.9" x2="86.35" y2="45.71" xlink:href="#linear-gradient-4"/><linearGradient id="linear-gradient-8" y1="57.9" y2="45.71" xlink:href="#linear-gradient-4"/><linearGradient id="linear-gradient-9" x1="64" y1="37.58" x2="64" y2="1" gradientUnits="userSpaceOnUse"><stop offset="0" stop-color="#7aa8d7"/><stop offset="1" stop-color="#96c8ea"/></linearGradient><linearGradient id="linear-gradient-10" x1="41.65" y1="57.9" x2="41.65" y2="45.71" xlink:href="#linear-gradient-4"/><linearGradient id="linear-gradient-11" x1="86.35" y1="80.26" x2="86.35" y2="68.06" xlink:href="#linear-gradient-4"/><linearGradient id="linear-gradient-12" y1="80.26" y2="68.06" xlink:href="#linear-gradient-4"/><linearGradient id="linear-gradient-13" x1="41.65" y1="80.26" x2="41.65" y2="68.06" xlink:href="#linear-gradient-4"/><linearGradient id="linear-gradient-14" x1="64" y1="98.55" x2="64" y2="90.42" xlink:href="#linear-gradient-2"/><linearGradient id="linear-gradient-15" x1="109.73" y1="84.32" x2="109.73" y2="74.16" xlink:href="#linear-gradient-4"/><linearGradient id="linear-gradient-16" x1="109.73" y1="64" x2="109.73" y2="53.84" xlink:href="#linear-gradient-4"/><linearGradient id="linear-gradient-17" x1="109.73" y1="104.65" x2="109.73" y2="94.48" xlink:href="#linear-gradient-4"/><linearGradient id="linear-gradient-18" x1="18.27" y1="84.32" x2="18.27" y2="74.16" xlink:href="#linear-gradient-4"/><linearGradient id="linear-gradient-19" x1="18.27" y1="64" x2="18.27" y2="53.84" xlink:href="#linear-gradient-4"/><linearGradient id="linear-gradient-20" x1="18.27" y1="104.65" x2="18.27" y2="94.48" xlink:href="#linear-gradient-4"/></defs><title>Clinic</title><g id="Clinic"><rect class="cls-1" x="25.39" y="29.45" width="77.23" height="97.55"/><path class="cls-2" d="M25.39,120.9V127h77.22v-6.1"/><rect class="cls-3" x="102.61" y="43.68" width="24.39" height="83.32"/><rect class="cls-4" x="1" y="43.68" width="24.39" height="83.32"/><rect class="cls-5" x="102.61" y="120.9" width="24.39" height="6.1"/><rect class="cls-5" x="1" y="120.9" width="24.39" height="6.1"/><rect class="cls-6" x="41.65" y="98.55" width="44.71" height="28.45"/><rect class="cls-7" x="41.65" y="122.94" width="44.71" height="4.06"/><path class="cls-7" d="M66,98.55V127H62V98.55A2,2,0,0,1,66,98.55Z"/><rect class="cls-8" x="21.32" y="17.26" width="24.39" height="12.19"/><rect class="cls-9" x="82.29" y="17.26" width="24.39" height="12.19"/><rect class="cls-5" x="21.32" y="25.39" width="24.39" height="4.06"/><rect class="cls-5" x="82.29" y="25.39" width="24.39" height="4.06"/><rect class="cls-2" x="25.39" y="29.45" width="20.32" height="4.06"/><rect class="cls-2" x="82.29" y="29.45" width="20.32" height="4.06"/><rect class="cls-10" x="80.26" y="45.71" width="12.19" height="12.19"/><rect class="cls-11" x="57.9" y="45.71" width="12.19" height="12.19"/><rect class="cls-12" x="45.71" y="1" width="36.58" height="36.58"/><rect class="cls-13" x="45.71" y="33.52" width="36.58" height="4.06"/><rect class="cls-14" x="35.55" y="45.71" width="12.19" height="12.19"/><rect class="cls-15" x="80.26" y="68.06" width="12.19" height="12.19"/><rect class="cls-16" x="57.9" y="68.06" width="12.19" height="12.19"/><rect class="cls-17" x="35.55" y="68.06" width="12.19" height="12.19"/><rect class="cls-7" x="80.26" y="76.19" width="12.19" height="4.06"/><rect class="cls-7" x="57.9" y="76.19" width="12.19" height="4.06"/><rect class="cls-7" x="35.55" y="76.19" width="12.19" height="4.06"/><rect class="cls-7" x="80.26" y="53.84" width="12.19" height="4.06"/><rect class="cls-7" x="57.9" y="53.84" width="12.19" height="4.06"/><rect class="cls-7" x="35.55" y="53.84" width="12.19" height="4.06"/><rect class="cls-18" x="37.58" y="90.42" width="52.84" height="8.13"/><rect class="cls-19" x="102.61" y="74.16" width="14.23" height="10.16"/><rect class="cls-20" x="102.61" y="53.84" width="14.23" height="10.16"/><rect class="cls-21" x="102.61" y="94.48" width="14.23" height="10.16"/><rect class="cls-22" x="11.16" y="74.16" width="14.23" height="10.16"/><rect class="cls-23" x="11.16" y="53.84" width="14.23" height="10.16"/><rect class="cls-7" x="21.32" y="53.84" width="4.06" height="10.16"/><rect class="cls-7" x="21.32" y="74.16" width="4.06" height="10.16"/><rect class="cls-24" x="11.16" y="94.48" width="14.23" height="10.16"/><rect class="cls-7" x="21.32" y="94.48" width="4.06" height="10.16"/><rect class="cls-7" x="102.61" y="53.84" width="4.06" height="10.16"/><rect class="cls-7" x="102.61" y="74.16" width="4.06" height="10.16"/><rect class="cls-7" x="102.61" y="94.48" width="4.06" height="10.16"/><path class="cls-25" d="M53.84,10.13c2,0-2.38,12.19,8.13,12.19h1v6.13H62a1,1,0,0,0,0,2H66a1,1,0,0,0,0-2H65V22.32c6,0,8.28-1.85,8.48-9.09,0-2.15.17-3.1.68-3.1a1,1,0,0,0,0-2c-2.55,0-2.62,2.68-2.68,5-.17,6.33-1.66,7.15-6.48,7.15V10.13h1a1,1,0,0,0,0-2H62a1,1,0,0,0,0,2h1V20.32H62c-9.35,0-2.39-12.19-8.13-12.19A1,1,0,0,0,53.84,10.13Z"/><path class="cls-25" d="M80.26,58.9H92.45a1,1,0,0,0,1-1V45.71a1,1,0,0,0-1-1H80.26a1,1,0,0,0-1,1V57.9A1,1,0,0,0,80.26,58.9Zm1-12.19H91.45V56.9H81.26Z"/><path class="cls-25" d="M57.9,58.9H70.1a1,1,0,0,0,1-1V45.71a1,1,0,0,0-1-1H57.9a1,1,0,0,0-1,1V57.9A1,1,0,0,0,57.9,58.9Zm1-12.19H69.1V56.9H58.9Z"/><path class="cls-25" d="M35.55,58.9H47.74a1,1,0,0,0,1-1V45.71a1,1,0,0,0-1-1H35.55a1,1,0,0,0-1,1V57.9A1,1,0,0,0,35.55,58.9Zm1-12.19H46.74V56.9H36.55Z"/><path class="cls-25" d="M80.26,81.26H92.45a1,1,0,0,0,1-1V68.06a1,1,0,0,0-1-1H80.26a1,1,0,0,0-1,1v12.2A1,1,0,0,0,80.26,81.26Zm1-12.2H91.45v10.2H81.26Z"/><path class="cls-25" d="M57.9,81.26H70.1a1,1,0,0,0,1-1V68.06a1,1,0,0,0-1-1H57.9a1,1,0,0,0-1,1v12.2A1,1,0,0,0,57.9,81.26Zm1-12.2H69.1v10.2H58.9Z"/><path class="cls-25" d="M48.74,80.26V68.06a1,1,0,0,0-1-1H35.55a1,1,0,0,0-1,1v12.2a1,1,0,0,0,1,1H47.74A1,1,0,0,0,48.74,80.26Zm-2-1H36.55V69.06H46.74Z"/><path class="cls-25" d="M127,42.68H103.61V30.45h3.07a1,1,0,0,0,1-1V17.26a1,1,0,0,0-1-1H83.29V1a1,1,0,0,0-1-1H45.71a1,1,0,0,0-1,1V16.26H21.32a1,1,0,0,0-1,1V29.45a1,1,0,0,0,1,1h3.07V42.68H1a1,1,0,0,0-1,1V127a1,1,0,0,0,1,1H127a1,1,0,0,0,1-1V43.68A1,1,0,0,0,127,42.68ZM103.61,54.84h12.23V63H103.61Zm0,20.32h12.23v8.16H103.61Zm0,20.32h12.23v8.17H103.61Zm2.07-77.22V28.45H83.29V18.26ZM46.71,2H81.29V36.58H46.71ZM22.32,18.26H44.71V28.45H22.32Zm2.07,85.39H12.16V95.48H24.39Zm0-20.33H12.16V75.16H24.39Zm0-20.32H12.16V54.84H24.39ZM2,44.68H24.39v8.16H11.16a1,1,0,0,0-1,1V64a1,1,0,0,0,1,1H24.39v8.16H11.16a1,1,0,0,0-1,1V84.32a1,1,0,0,0,1,1H24.39v8.16H11.16a1,1,0,0,0-1,1v10.17a1,1,0,0,0,1,1H24.39V126H2ZM26.39,30.45H44.71v7.13a1,1,0,0,0,1,1H82.29a1,1,0,0,0,1-1V30.45h18.32V126H87.35V99.55h3.07a1,1,0,0,0,1-1V90.42a1,1,0,0,0-1-1H37.58a1,1,0,0,0-1,1v8.13a1,1,0,0,0,1,1h3.07V126H26.39Zm12.19,67.1V91.42H89.42v6.13Zm4.07,2H63V126H42.65ZM65,126V99.55H85.35V126Zm61,0H103.61V105.65h13.23a1,1,0,0,0,1-1V94.48a1,1,0,0,0-1-1H103.61V85.32h13.23a1,1,0,0,0,1-1V74.16a1,1,0,0,0-1-1H103.61V65h13.23a1,1,0,0,0,1-1V53.84a1,1,0,0,0-1-1H103.61V44.68H126Z"/></g></svg>