<svg xmlns="http://www.w3.org/2000/svg" xmlns:xlink="http://www.w3.org/1999/xlink" viewBox="0 0 128 128"><defs><style>.cls-1{fill:url(#linear-gradient);}.cls-2{fill:#c7cdd8;}.cls-3{fill:url(#linear-gradient-2);}.cls-4{fill:#8a6762;}.cls-5{fill:url(#linear-gradient-3);}.cls-6{fill:#575f7c;}.cls-7{fill:url(#linear-gradient-4);}.cls-8{fill:#5b8dc9;}.cls-9{fill:url(#linear-gradient-5);}.cls-10{fill:#47566a;}</style><linearGradient id="linear-gradient" x1="57.9" y1="45.71" x2="57.9" y2="13.19" gradientUnits="userSpaceOnUse"><stop offset="0" stop-color="#d4d8e1"/><stop offset="1" stop-color="#f3f4f5"/></linearGradient><linearGradient id="linear-gradient-2" x1="66.09" y1="106.68" x2="66.09" y2="70.1" gradientUnits="userSpaceOnUse"><stop offset="0" stop-color="#9b756d"/><stop offset="1" stop-color="#bc9388"/></linearGradient><linearGradient id="linear-gradient-3" x1="64" y1="92.45" x2="64" y2="57.9" gradientUnits="userSpaceOnUse"><stop offset="0" stop-color="#d1a788"/><stop offset="1" stop-color="#f2d3b8"/></linearGradient><linearGradient id="linear-gradient-4" x1="18.27" y1="60.43" x2="18.27" y2="41.15" gradientUnits="userSpaceOnUse"><stop offset="0" stop-color="#7aa8d7"/><stop offset="1" stop-color="#96c8ea"/></linearGradient><linearGradient id="linear-gradient-5" x1="66.02" y1="84.32" x2="66.02" y2="56.65" xlink:href="#linear-gradient-4"/></defs><title>Consultation Session</title><g id="Consultation_Session" data-name="Consultation Session"><path class="cls-1" d="M57.9,13.19C43.38,13.19,36.26,30.8,46.41,41l-4.76,4.76H57.9a16.26,16.26,0,0,0,0-32.52Z"/><path class="cls-2" d="M57.9,45.71H41.65L46.4,41a16.23,16.23,0,0,1-4.71-12.58c.54,7.42,7.6,13.28,16.21,13.28s15.67-5.86,16.22-13.28A16.25,16.25,0,0,1,57.9,45.71Z"/><path class="cls-3" d="M122.94,92.45v14.23H19.29C9,73.43,10.91,79.48,9.25,74.16l6-4.06L35.55,92.45Z"/><path class="cls-4" d="M122.94,92.45v4.07H33.21L14.45,77a12.09,12.09,0,0,1-4,1.13l-1.24-4,6-4.06L35.55,92.45Z"/><path class="cls-5" d="M127,88.39a4.08,4.08,0,0,1-4.06,4.06H34.72L15.08,71.56A8.13,8.13,0,1,1,9.13,57.9c3.27,0,3.62-.65,28.59,26.42h85.22A4.08,4.08,0,0,1,127,88.39Z"/><rect class="cls-6" x="19.29" y="106.68" width="8.13" height="8.13"/><rect class="cls-6" x="114.81" y="106.68" width="8.13" height="8.13"/><path class="cls-7" d="M25.39,57.9a8.62,8.62,0,0,1-12.2,0l-2-2A8.62,8.62,0,0,1,23.35,43.68l2,2A8.63,8.63,0,0,1,25.39,57.9Z"/><path class="cls-8" d="M13.19,57.9c-2.52-2.52-5.55-5.06-4.3-10.16.69,2.82,2.19,4,4.3,6.1a8.62,8.62,0,0,0,14.47-4.07C29.72,58.16,19.37,64.08,13.19,57.9Z"/><path class="cls-9" d="M110.17,69c0,.89.19.13-5.52,15.36H37.72s-8.19-8.88-15.26-16.19a8.83,8.83,0,0,1,2.11-9.54c2.66-2.65,10.38-3.13,14.92,2.1l8.25,9.41,48.78,4.06,7.68-7.68A3.49,3.49,0,0,1,110.17,69Z"/><path class="cls-8" d="M106.17,80.26l-1.52,4.06H37.72s-8.19-8.88-15.26-16.19a8.8,8.8,0,0,1,1.63-9,8.7,8.7,0,0,0,.4,4.94c7.08,7.32,15.27,16.2,15.27,16.2Z"/><path class="cls-10" d="M128,88.39a5.07,5.07,0,0,0-5.06-5.07H106.09c5.08-13.55,5.08-13.23,5.08-14.36a4.49,4.49,0,0,0-7.68-3.19l-7.35,7.36-47.91-4-8-9.1A12.69,12.69,0,0,0,28,56a9.63,9.63,0,0,0-1.87-11l-2-2a9.64,9.64,0,0,0-13.61,0C7,46.39,6.21,52.33,11,57.1a9,9,0,0,0-9,3.27A9.12,9.12,0,0,0,8.5,75.13l9.79,31.7v8a1,1,0,0,0,1,1h8.13a1,1,0,0,0,1-1v-7.13h85.39v7.13a1,1,0,0,0,1,1h8.13a1,1,0,0,0,1-1V93.35A5.08,5.08,0,0,0,128,88.39Zm-89.26-27c8.94,10.19,8.34,9.69,8.92,9.74,52.07,4.34,49.07,4.27,49.56,3.78l7.69-7.68a2.49,2.49,0,0,1,4.1,2.64L104,83.32H59.88a5.05,5.05,0,0,0-4-8.13H42.11L32.25,63.36a1,1,0,0,0-1.53,1.28C41.73,77.86,41,77.19,41.65,77.19H55.87a3.07,3.07,0,1,1,0,6.13H38.16c-2.4-2.6-8.95-9.66-14.81-15.72a7.81,7.81,0,0,1,1.85-8.21,9.19,9.19,0,0,0,.75-.65A10.74,10.74,0,0,1,38.74,61.35ZM20.89,65.09c-1.46-1.49-2.83-2.84-4-4a9.37,9.37,0,0,0,4.79,0A9.64,9.64,0,0,0,20.89,65.09Zm-9-20.71a7.63,7.63,0,0,1,10.78,0l2,2a7.63,7.63,0,0,1,0,10.75c-.27.22-.56.45-.85.73a7.62,7.62,0,0,1-10-.7l-2-2A7.63,7.63,0,0,1,11.87,44.38Zm110.07,61.3H20L10.57,75A8.84,8.84,0,0,0,15,73c16.25,18.52,12,14.13,19,20.21.44.37-5.52.24,87.88.24Zm-95.52,8.13H20.29v-6.13h6.13Zm95.52,0h-6.13v-6.13h6.13Zm3.14-23.25c-1.27,1.3,5.25.89-90,.89-6.58-5.63-2.61-1.57-19.25-20.55a1,1,0,0,0-1.49,0,7.12,7.12,0,1,1-2.23-11.3c1.82.86,16.22,16,24.87,25.42.45.49-5.68.32,85.95.32A3.06,3.06,0,0,1,125.08,90.56Z"/><path class="cls-10" d="M9.13,64.53a1.5,1.5,0,0,0,0,3A1.5,1.5,0,0,0,9.13,64.53Z"/><path class="cls-10" d="M57.9,31a1.5,1.5,0,0,0,0-3A1.5,1.5,0,0,0,57.9,31Z"/><path class="cls-10" d="M49.77,31a1.5,1.5,0,0,0,0-3A1.5,1.5,0,0,0,49.77,31Z"/><path class="cls-10" d="M66,31a1.5,1.5,0,0,0,0-3A1.5,1.5,0,0,0,66,31Z"/><path class="cls-10" d="M40.94,45a1,1,0,0,0,.71,1.71H57.9a17.26,17.26,0,0,0,0-34.52c-14.85,0-22.74,17.7-12.89,28.74Zm17-30.81a15.26,15.26,0,0,1,0,30.52H44.06c3.32-3.32,3.35-3.21,3.35-3.76a1,1,0,0,0-.3-.71C37.53,30.65,44.4,14.19,57.9,14.19Z"/></g></svg>