<svg xmlns="http://www.w3.org/2000/svg" xmlns:xlink="http://www.w3.org/1999/xlink" viewBox="0 0 128 128"><defs><style>.cls-1{fill:url(#linear-gradient);}.cls-2{fill:#c7cdd8;}.cls-3{fill:url(#linear-gradient-2);}.cls-4{fill:url(#linear-gradient-3);}.cls-5{fill:url(#linear-gradient-4);}.cls-6{fill:url(#linear-gradient-5);}.cls-7{fill:url(#linear-gradient-6);}.cls-8{fill:url(#linear-gradient-7);}.cls-9{fill:#5b8dc9;}.cls-10{fill:url(#linear-gradient-8);}.cls-11{fill:url(#linear-gradient-9);}.cls-12{fill:url(#linear-gradient-10);}.cls-13{fill:#8a6762;}.cls-14{fill:#47566a;}</style><linearGradient id="linear-gradient" x1="75.26" y1="41.65" x2="75.26" y2="9.25" gradientUnits="userSpaceOnUse"><stop offset="0" stop-color="#d4d8e1"/><stop offset="1" stop-color="#f3f4f5"/></linearGradient><linearGradient id="linear-gradient-2" x1="61.97" y1="33.52" x2="61.97" y2="1" xlink:href="#linear-gradient"/><linearGradient id="linear-gradient-3" x1="20.31" y1="127" x2="20.31" y2="62.01" gradientUnits="userSpaceOnUse"><stop offset="0" stop-color="#9b756d"/><stop offset="1" stop-color="#bc9388"/></linearGradient><linearGradient id="linear-gradient-4" x1="33.48" y1="127" x2="33.48" y2="53.83" gradientUnits="userSpaceOnUse"><stop offset="0" stop-color="#7aa8d7"/><stop offset="1" stop-color="#96c8ea"/></linearGradient><linearGradient id="linear-gradient-5" x1="107.69" x2="107.69" y2="62.01" xlink:href="#linear-gradient-3"/><linearGradient id="linear-gradient-6" x1="94.49" x2="94.49" y2="53.84" xlink:href="#linear-gradient-4"/><linearGradient id="linear-gradient-7" x1="27.42" y1="57.63" x2="27.42" y2="33.79" xlink:href="#linear-gradient-4"/><linearGradient id="linear-gradient-8" x1="108.71" y1="53.84" x2="108.71" y2="29.45" xlink:href="#linear-gradient-4"/><linearGradient id="linear-gradient-9" x1="105.68" y1="86.35" x2="105.68" y2="61.97" xlink:href="#linear-gradient-4"/><linearGradient id="linear-gradient-10" x1="25.58" y1="77.89" x2="25.58" y2="59.94" xlink:href="#linear-gradient-4"/></defs><title>Counseling</title><g id="Counseling"><path class="cls-1" d="M85.66,36.89l4.76,4.76H74.16A16.2,16.2,0,0,1,60.1,33.52l16-24.27A16.27,16.27,0,0,1,85.66,36.89Z"/><path class="cls-2" d="M63.37,37.54a15.64,15.64,0,0,1-3.27-4l16-24.27a15.18,15.18,0,0,1,5.1,1.53A20.34,20.34,0,0,1,63.37,37.54Z"/><path class="cls-3" d="M62,1a16.26,16.26,0,1,1,0,32.52H45.71l4.76-4.77C40.32,18.6,47.44,1,62,1Z"/><path class="cls-4" d="M9.13,98.55V66c0-5.4-8.13-5.32-8.13,0v61H9.13V106.68H31.48V127h8.13V98.55Z"/><path class="cls-5" d="M39.61,127V98.55H19.29A10.16,10.16,0,0,1,9.13,88.39c0-27.14-.57-27.54,1.71-30.71a9.06,9.06,0,0,1,7.43-3.84c.32,0-.5-.38,7.4,3.78,2.32,3.17,1.75,3.52,1.75,28.73l15,1.37a8.12,8.12,0,0,1,7.39,8.08v23.07l2.22.55A7.82,7.82,0,0,1,57.9,127Z"/><path class="cls-6" d="M118.87,98.55V66c0-5.4,8.13-5.32,8.13,0v61h-8.13V106.68H96.52V127H88.39V98.55Z"/><path class="cls-7" d="M118.87,63V88.39a10.16,10.16,0,0,1-10.16,10.16H88.39V127H70.1a7.72,7.72,0,0,1,1.13-4.06c2.06-3,3.77-3.26,7-4.07V95.8a8.12,8.12,0,0,1,7.39-8.08l15-1.37V63a9.15,9.15,0,0,1,18.29,0Z"/><path class="cls-8" d="M21.32,56.27A10.16,10.16,0,0,1,17.6,42.39l2-3.52A10.16,10.16,0,1,1,37.24,49l-2,3.52A10.16,10.16,0,0,1,21.32,56.27Z"/><path class="cls-9" d="M38.13,46.93c-.42,1.48-1,2.35-2.93,5.63A10.16,10.16,0,0,1,17.6,42.4c3.71-6.42-3.66,4.37,5.75,9.81a10.17,10.17,0,0,0,13.89-3.72Z"/><path class="cls-10" d="M108.71,53.84a10.16,10.16,0,0,0,10.16-10.16V39.61a10.16,10.16,0,0,0-20.32,0v4.07A10.16,10.16,0,0,0,108.71,53.84Z"/><path class="cls-9" d="M118.87,39.61v4.07a10.16,10.16,0,0,1-20.32,0V39.61a10.16,10.16,0,0,0,20.32,0Z"/><path class="cls-11" d="M118.87,62V78.23a8.12,8.12,0,0,1-8.13,8.12H96.52c-5.41,0-5.33-8.12,0-8.12h14.22V62Z"/><path class="cls-12" d="M40.59,67C33.38,74.26,30.7,77.8,27.42,77.8a8.06,8.06,0,0,1-6.79-2.3c-8.26-8.26-10.81-10-11.38-14,0-.21-.29-.1,11.38,2.46l5.75,5.75c9.2-9.2,9.28-9.81,11.51-9.81A4.08,4.08,0,0,1,40.59,67Z"/><rect class="cls-13" x="1" y="120.9" width="8.13" height="6.1"/><rect class="cls-13" x="31.48" y="120.9" width="8.13" height="6.1"/><rect class="cls-13" x="88.39" y="120.9" width="8.13" height="6.1"/><rect class="cls-13" x="118.87" y="120.9" width="8.13" height="6.1"/><path class="cls-9" d="M57.9,127H39.61v-4.06H56.77A7.72,7.72,0,0,1,57.9,127Z"/><path class="cls-9" d="M88.39,122.94V127H70.1a7.72,7.72,0,0,1,1.13-4.06Z"/><path class="cls-14" d="M52.23,118.45l-1.46-.36V95.8a9.09,9.09,0,0,0-8.3-9.08l-14-1.28v-6.8c3.4-.75,4.17-2.17,12.88-10.9a5.2,5.2,0,0,0,.46-7,5,5,0,0,0-7.47-.33L28.42,66.3c0-3.19.23-5.15-1-7.74a11.13,11.13,0,0,0,8.68-5.51l2-3.52A11.16,11.16,0,1,0,18.77,38.37c-2.18,3.77-5.62,8.31-2.07,14.6a10.18,10.18,0,0,0-8.53,9.09A5,5,0,0,0,0,66v61a1,1,0,0,0,1,1H9.13a1,1,0,0,0,1-1V107.68H30.48V127a1,1,0,0,0,1,1H57.9a1,1,0,0,0,1-1A8.82,8.82,0,0,0,52.23,118.45ZM18.47,42.89c2.11-3.66,3.3-6.64,7.59-7.79A9.18,9.18,0,0,1,36.37,48.53l-2,3.52a9.16,9.16,0,1,1-15.87-9.16Zm-.43,12a11.08,11.08,0,0,0,7,3.69A8.18,8.18,0,0,1,26.42,63c0,5.63.06,5.26,0,5.36l-5-5.05a1,1,0,0,0-1.42,1.42l5.76,5.75a1,1,0,0,0,1.41,0l8.62-8.62a3.13,3.13,0,0,1,4.52.21,3.18,3.18,0,0,1-.35,4.27C31,75.18,30.5,76.43,27.24,76.81a7,7,0,0,1-5.9-2c-8.49-8.5-10.42-9.67-11.07-13.33A8.12,8.12,0,0,1,18,54.85Zm-7.91,39.9a11.29,11.29,0,0,0,2.8,2.8h-2.8Zm21.35,10.93H9.13a1,1,0,0,0-1,1V126H2V66a3.07,3.07,0,0,1,6.13,0V98.55a1,1,0,0,0,1,1H38.61V126H32.48V106.68A1,1,0,0,0,31.48,105.68ZM40.61,126V98.55a1,1,0,0,0-1-1H19.29a9.17,9.17,0,0,1-9.16-9.16V66.19c.74,1,.27.5,9.79,10a9.1,9.1,0,0,0,6.46,2.67c.1,0,0-.42,0,7.47a1,1,0,0,0,.91,1l15,1.36a7.1,7.1,0,0,1,6.48,7.09v23.07c0,1,.84,1,3,1.52A6.83,6.83,0,0,1,56.83,126Z"/><path class="cls-14" d="M119.87,62a1,1,0,0,0-.11-.51,10.13,10.13,0,0,0-6.06-7.87,11.17,11.17,0,0,0,6.17-10V39.61a11.16,11.16,0,0,0-22.32,0v4.07a11.16,11.16,0,0,0,7.25,10.44A10.15,10.15,0,0,0,99.58,63V77.23H96.52A5,5,0,0,0,93.13,86l-7.6.69a9.09,9.09,0,0,0-8.3,9.08v22.29l-1.46.36A8.82,8.82,0,0,0,69.1,127a1,1,0,0,0,1,1H96.52a1,1,0,0,0,1-1V107.68h20.35V127a1,1,0,0,0,1,1H127a1,1,0,0,0,1-1V66A5,5,0,0,0,119.87,62ZM99.55,43.68V39.61a9.16,9.16,0,0,1,18.32,0v4.07a9.16,9.16,0,0,1-18.32,0Zm-3,35.55h14.22a1,1,0,0,0,1-1V62a1,1,0,0,0-2,0V77.23h-8.16V63a8.16,8.16,0,0,1,13.91-5.75c2.75,2.72,2.38,5.63,2.38,8.8v12.2a7.13,7.13,0,0,1-7.13,7.12H96.52a3.06,3.06,0,1,1,0-6.12ZM87.39,98.55V126H71.17a6.85,6.85,0,0,1,5.08-5.61c2.27-.56,3-.57,3-1.52V95.8a7.1,7.1,0,0,1,6.48-7.09c18.16-1.65,12.3-1.36,25-1.36a9.08,9.08,0,0,0,7.13-3.44v4.48a9.17,9.17,0,0,1-9.16,9.16H88.39A1,1,0,0,0,87.39,98.55Zm30.48-3.8v2.8h-2.8A11.29,11.29,0,0,0,117.87,94.75ZM126,126h-6.13V106.68a1,1,0,0,0-1-1H96.52a1,1,0,0,0-1,1V126H89.39V99.55h29.48a1,1,0,0,0,1-1V66A3.07,3.07,0,0,1,126,66Z"/><path class="cls-14" d="M63.47,17.26a1.5,1.5,0,0,0-3,0A1.5,1.5,0,0,0,63.47,17.26Z"/><path class="cls-14" d="M53.84,15.76a1.5,1.5,0,0,0,0,3A1.5,1.5,0,0,0,53.84,15.76Z"/><path class="cls-14" d="M70.1,18.76a1.5,1.5,0,0,0,0-3A1.5,1.5,0,0,0,70.1,18.76Z"/><path class="cls-14" d="M74.16,42.65c17.34,0,16.82.26,17.18-.62s0-.83-4.28-5.16A17.27,17.27,0,0,0,76.71,8.34c-9.11-15-32-8.37-32,8.92a17.09,17.09,0,0,0,4.37,11.47L45,32.81a1,1,0,0,0,.71,1.71H59.54A17.25,17.25,0,0,0,74.16,42.65Zm-23-13.19a1,1,0,0,0,0-1.41C41.6,18.47,48.45,2,62,2a15.26,15.26,0,1,1,0,30.52H48.12ZM62,34.52A17.28,17.28,0,0,0,77.89,10.61,15.26,15.26,0,0,1,85,36.18a1,1,0,0,0,0,1.42l3.05,3H74.16C66.36,40.65,61.76,34.52,62,34.52Z"/></g></svg>