<svg xmlns="http://www.w3.org/2000/svg" xmlns:xlink="http://www.w3.org/1999/xlink" viewBox="0 0 128 128"><defs><style>.cls-1{fill:url(#linear-gradient);}.cls-2{fill:#c7cdd8;}.cls-3{fill:url(#linear-gradient-3);}.cls-4{fill:#42455e;}.cls-5{fill:url(#linear-gradient-4);}.cls-6{fill:#77cacb;}.cls-7{fill:url(#linear-gradient-5);}.cls-8{fill:#5b8dc9;}.cls-9{fill:#47566a;}</style><linearGradient id="linear-gradient" x1="74.16" y1="86.32" x2="74.16" y2="33.54" gradientUnits="userSpaceOnUse"><stop offset="0" stop-color="#d4d8e1"/><stop offset="1" stop-color="#f3f4f5"/></linearGradient><linearGradient id="linear-gradient-3" x1="74.16" y1="78.22" x2="74.16" y2="33.5" gradientUnits="userSpaceOnUse"><stop offset="0" stop-color="#454b60"/><stop offset="1" stop-color="#575f7c"/></linearGradient><linearGradient id="linear-gradient-4" x1="17.26" y1="120.9" x2="17.26" y2="72.13" gradientUnits="userSpaceOnUse"><stop offset="0" stop-color="#9dd5df"/><stop offset="1" stop-color="#c3e1f5"/></linearGradient><linearGradient id="linear-gradient-5" x1="74.16" y1="64" x2="74.16" y2="47.74" gradientUnits="userSpaceOnUse"><stop offset="0" stop-color="#7aa8d7"/><stop offset="1" stop-color="#96c8ea"/></linearGradient></defs><title>Crying</title><g id="Crying"><path class="cls-1" d="M127,59.93c-22.17,35.17-83.48,35.21-105.68,0C43.49,24.76,104.8,24.72,127,59.93Z"/><path class="cls-1" d="M127,59.93c-22.17,35.17-83.48,35.21-105.68,0C43.49,24.76,104.8,24.72,127,59.93Z"/><path class="cls-2" d="M127,59.93c-22.13,35.12-83.47,35.26-105.68,0C43.51,87,104.81,87,127,59.93Z"/><path class="cls-3" d="M96.52,55.87A22.36,22.36,0,1,1,75.34,33.53,22.34,22.34,0,0,1,96.52,55.87Z"/><path class="cls-4" d="M74.16,78.22A22.33,22.33,0,0,1,52,52.8a22.33,22.33,0,0,0,44.26,0A22.33,22.33,0,0,1,74.16,78.22Z"/><path class="cls-5" d="M33.52,104.64a16.26,16.26,0,1,1-32.52,0C1,88.38,17.26,72.13,17.26,72.13S33.52,88.38,33.52,104.64Z"/><path class="cls-6" d="M17.26,120.9c-9.13,0-17.56-7.59-16-19.61a16.27,16.27,0,0,0,32.07,0C34.84,113.43,26.25,120.9,17.26,120.9Z"/><circle class="cls-7" cx="74.16" cy="55.87" r="8.13"/><path class="cls-8" d="M66.3,53.83c2.06,8.1,13.66,8.11,15.73,0a8.13,8.13,0,1,1-15.73,0Z"/><path class="cls-2" d="M73,33.53a22.44,22.44,0,0,0-15.65,7.6c-15.66,2.93-28.63,9.8-36,18.8C31.06,44.49,50.49,33.88,73,33.53Z"/><path class="cls-2" d="M127,59.93c-7.38-9-20.34-15.87-36-18.8a22.42,22.42,0,0,0-15.65-7.6C97.84,33.88,117.27,44.49,127,59.93Z"/><path class="cls-9" d="M127.85,59.4c-22.58-35.81-84.79-35.82-107.37,0a1,1,0,0,0,0,1.07c22.57,35.81,84.78,35.82,107.37,0A1,1,0,0,0,127.85,59.4Zm-105.34.54C30.91,47,45.79,38.13,62.92,35.4a23.36,23.36,0,1,0,22.48,0c17.13,2.73,32,11.6,40.41,24.54C103.82,93.79,44.52,93.81,22.51,59.94ZM74.16,34.52A21.36,21.36,0,1,1,52.81,55.87,21.38,21.38,0,0,1,74.16,34.52Z"/><path class="cls-9" d="M21,48.77A53.93,53.93,0,0,1,36.1,32.3c28.45-20.51,72.18-13.41,89.7,16.47a1,1,0,0,0,1.72-1A55.83,55.83,0,0,0,113,31.5l6-6a1,1,0,0,0-1.42-1.41l-6.23,6.24a63.54,63.54,0,0,0-18-8.76l5.33-9.2a1,1,0,0,0-1.73-1L91.33,21a69.11,69.11,0,0,0-16.94-2.36V7.1a1,1,0,0,0-2,0V18.62A69.11,69.11,0,0,0,55.45,21l-5.58-9.63a1,1,0,0,0-1.73,1l5.33,9.2a63.65,63.65,0,0,0-18,8.75l-6.24-6.23a1,1,0,0,0-1.41,1.41l6,6A56,56,0,0,0,19.25,47.75,1,1,0,0,0,21,48.77Z"/><path class="cls-9" d="M16.55,71.42C15.88,72.1,0,88.16,0,104.65a17.26,17.26,0,0,0,34.52,0C34.52,88.16,18.64,72.1,18,71.42A1,1,0,0,0,16.55,71.42Zm.71,48.48A15.27,15.27,0,0,1,2,104.65C2,90.92,14.17,76.92,17.26,73.58c3.09,3.33,15.26,17.32,15.26,31.07A15.27,15.27,0,0,1,17.26,119.9Z"/><path class="cls-9" d="M74.16,65A9.13,9.13,0,1,0,65,55.87,9.13,9.13,0,0,0,74.16,65Zm0-16.26A7.13,7.13,0,1,1,67,55.87,7.14,7.14,0,0,1,74.16,48.74Z"/></g></svg>