<svg xmlns="http://www.w3.org/2000/svg" xmlns:xlink="http://www.w3.org/1999/xlink" viewBox="0 0 128 128"><defs><style>.cls-1{fill:url(#linear-gradient);}.cls-2{fill:#c7cdd8;}.cls-3{fill:url(#linear-gradient-2);}.cls-4{fill:#8288a1;}.cls-5{fill:url(#linear-gradient-3);}.cls-6{fill:url(#linear-gradient-4);}.cls-7{fill:url(#linear-gradient-5);}.cls-8{fill:#f6b756;}.cls-9{fill:url(#linear-gradient-6);}.cls-10{fill:url(#linear-gradient-7);}.cls-11{fill:url(#linear-gradient-8);}.cls-12{fill:#dd4e6a;}.cls-13{fill:url(#linear-gradient-9);}.cls-14{fill:url(#linear-gradient-10);}.cls-15{fill:url(#linear-gradient-11);}.cls-16{fill:#77cacb;}.cls-17{fill:url(#linear-gradient-12);}.cls-18{fill:url(#linear-gradient-13);}.cls-19{fill:#47566a;}</style><linearGradient id="linear-gradient" x1="21.3" y1="114.8" x2="21.3" y2="53.84" gradientUnits="userSpaceOnUse"><stop offset="0" stop-color="#d4d8e1"/><stop offset="1" stop-color="#f3f4f5"/></linearGradient><linearGradient id="linear-gradient-2" x1="21.31" y1="53.84" x2="21.31" y2="45.71" gradientUnits="userSpaceOnUse"><stop offset="0" stop-color="#949aaf"/><stop offset="1" stop-color="#c6ccda"/></linearGradient><linearGradient id="linear-gradient-3" x1="21.31" y1="45.71" x2="21.31" y2="37.58" xlink:href="#linear-gradient-2"/><linearGradient id="linear-gradient-4" x1="21.31" y1="126.99" x2="21.31" y2="114.8" xlink:href="#linear-gradient-2"/><linearGradient id="linear-gradient-5" x1="116.82" y1="112.77" x2="116.82" y2="92.45" gradientUnits="userSpaceOnUse"><stop offset="0" stop-color="#fbcc88"/><stop offset="1" stop-color="#ffe5c3"/></linearGradient><linearGradient id="linear-gradient-6" x1="76.17" y1="120.9" x2="76.17" y2="100.57" xlink:href="#linear-gradient-5"/><linearGradient id="linear-gradient-7" x1="104.64" y1="33.49" x2="104.64" y2="13.19" xlink:href="#linear-gradient-5"/><linearGradient id="linear-gradient-8" x1="51.79" y1="90.41" x2="51.79" y2="57.9" gradientUnits="userSpaceOnUse"><stop offset="0" stop-color="#da5466"/><stop offset="1" stop-color="#e87092"/></linearGradient><linearGradient id="linear-gradient-9" x1="96.5" y1="77.88" x2="96.5" y2="50.11" xlink:href="#linear-gradient-8"/><linearGradient id="linear-gradient-10" x1="100.56" y1="69.75" x2="100.56" y2="50.11" gradientUnits="userSpaceOnUse"><stop offset="0" stop-color="#9dd5df"/><stop offset="1" stop-color="#c3e1f5"/></linearGradient><linearGradient id="linear-gradient-11" x1="51.79" y1="74.16" x2="51.79" y2="57.9" xlink:href="#linear-gradient-10"/><linearGradient id="linear-gradient-12" x1="57.89" y1="39.26" x2="57.89" y2="11.51" xlink:href="#linear-gradient-8"/><linearGradient id="linear-gradient-13" x1="61.95" y1="39.26" x2="61.95" y2="19.63" xlink:href="#linear-gradient-10"/></defs><title>Drugs Addict</title><g id="Drugs_Addict" data-name="Drugs Addict"><rect class="cls-1" x="9.11" y="53.84" width="24.39" height="60.96"/><rect class="cls-2" x="9.11" y="106.67" width="24.39" height="8.13"/><rect class="cls-3" x="13.18" y="45.71" width="16.26" height="8.13"/><rect class="cls-4" x="13.18" y="49.77" width="16.26" height="4.06"/><polygon class="cls-5" points="27.4 45.71 15.21 45.71 17.65 37.58 24.96 37.58 27.4 45.71"/><polygon class="cls-4" points="27.4 45.71 15.21 45.71 16.11 42.71 26.5 42.71 27.4 45.71"/><rect class="cls-6" x="15.21" y="114.8" width="12.19" height="12.19"/><path class="cls-7" d="M127,102.61a10.16,10.16,0,0,1-10.16,10.16c-9.52,0-13.8-12.07-6.43-18A10.17,10.17,0,0,1,127,102.61Z"/><path class="cls-8" d="M116.82,112.77a10.17,10.17,0,0,1-10-12.17c2.23,10.76,17.68,10.77,19.92,0A10.17,10.17,0,0,1,116.82,112.77Z"/><circle class="cls-9" cx="76.17" cy="110.74" r="10.16"/><path class="cls-10" d="M114.79,23.35c0,10.81-14.69,14-19.33,4.41-.4-.4-1.38-3.47-.79-6.42h0a10.16,10.16,0,0,1,20.12,2Z"/><path class="cls-8" d="M70.31,119a10,10,0,0,1-4.09-10.32c2.06,10.75,17.83,10.78,19.91,0C87.94,118,77.31,124.41,70.31,119Z"/><path class="cls-8" d="M103.08,33.39a10.15,10.15,0,0,1-8.41-12c2.26,10.79,17.69,10.76,19.91,0A10.15,10.15,0,0,1,103.08,33.39Z"/><path class="cls-11" d="M51.79,90.41a8.13,8.13,0,0,1-8.13-8.12V66a8.13,8.13,0,0,1,16.26,0V82.29A8.13,8.13,0,0,1,51.79,90.41Z"/><path class="cls-12" d="M59.92,78.22v4.07a8.13,8.13,0,0,1-16.26,0V78.22a8.13,8.13,0,0,0,16.26,0Z"/><path class="cls-13" d="M110.38,58.24c0,4.33-1.4,4.78-13.88,17.26A8.14,8.14,0,0,1,85,64L96.5,52.49A8.14,8.14,0,0,1,110.38,58.24Z"/><path class="cls-14" d="M110.38,58.24c0,4.43-2.8,6.17-8.13,11.51L90.75,58.24l5.75-5.75A8.14,8.14,0,0,1,110.38,58.24Z"/><path class="cls-15" d="M59.92,74.16H43.66V66a8.13,8.13,0,0,1,16.26,0Z"/><rect class="cls-16" x="43.66" y="70.09" width="16.26" height="4.06"/><path class="cls-12" d="M102.25,69.75,96.5,75.5a8.13,8.13,0,0,1-12.42-1.12,8.11,8.11,0,0,0,10.38-.91l5.76-5.76Z"/><path class="cls-16" d="M110.38,58.24c0,4.43-2.8,6.17-8.13,11.51l-2-2L106,62a8.1,8.1,0,0,0,.91-10.38A8.07,8.07,0,0,1,110.38,58.24Z"/><path class="cls-17" d="M63.64,39.26c-4.32,0-4.77-1.39-17.26-13.88a8.14,8.14,0,0,1,11.51-11.5c7.25,7.26,4.31,4.31,11.5,11.5A8.14,8.14,0,0,1,63.64,39.26Z"/><path class="cls-18" d="M63.64,39.26c-4.42,0-6.17-2.79-11.51-8.12L63.64,19.63l5.75,5.75A8.14,8.14,0,0,1,63.64,39.26Z"/><path class="cls-12" d="M52.13,31.14l-5.75-5.76A8.12,8.12,0,0,1,47.5,13a8.11,8.11,0,0,0,.92,10.38l5.75,5.75Z"/><path class="cls-16" d="M63.64,39.26c-4.42,0-6.17-2.79-11.51-8.12l2-2,5.75,5.75a8.1,8.1,0,0,0,10.38.92A8.06,8.06,0,0,1,63.64,39.26Z"/><path class="cls-19" d="M41.65,113.81H34.52v-60a1,1,0,0,0-1-1H30.45V45.71a1,1,0,0,0-1-1H28.16l-2.22-7.42c-.27-.9-.93-.71-3.62-.71V1a1,1,0,0,0-2,0V36.58c-2.67,0-3.34-.19-3.61.71l-2.23,7.42H13.19a1,1,0,0,0-1,1v7.13H9.13a1,1,0,0,0-1,1v60H1a1,1,0,0,0,0,2H14.23V126H11.16a1,1,0,0,0,0,2H31.48a1,1,0,0,0,0-2H28.42V115.81H41.65A1,1,0,0,0,41.65,113.81ZM18.41,38.58h5.83l1.84,6.13H16.57Zm-4.22,8.13H28.45v6.13H14.19ZM26.42,126H16.23V115.81H26.42ZM10.13,113.81v-59H32.52V61H29.45a1,1,0,0,0,0,2h3.07V69.1h-5.1a1,1,0,0,0,0,2h5.1v6.13H29.45a1,1,0,0,0,0,2h3.07v6.12h-5.1a1,1,0,0,0,0,2h5.1v6.13H29.45a1,1,0,0,0,0,2h3.07v6.13h-5.1a1,1,0,0,0,0,2h5.1v10.2Z"/><path class="cls-19" d="M109.24,94.46a1,1,0,0,0-.55.56,11.11,11.11,0,1,0,.55-.56Zm7.6,17.31a9.16,9.16,0,0,1-7.14-14.88c11.37,11.37,10.61,10.79,11.2,10.79a1,1,0,0,0,.71-1.71l-10.5-10.5a9.16,9.16,0,1,1,5.73,16.3Z"/><path class="cls-19" d="M68.3,102.85a11.16,11.16,0,0,0,7.44,19,.9.9,0,0,0,.9,0,11.16,11.16,0,1,0-8.34-19Zm8.89,17V105a1,1,0,0,0-2,0v14.86a9.16,9.16,0,1,1,2,0Z"/><path class="cls-19" d="M96.75,31.25a11.17,11.17,0,1,0,7.9-19.06A11.19,11.19,0,0,0,96.75,31.25Zm7.9-17.06A9.16,9.16,0,1,1,98.92,30.5L109.42,20A1,1,0,0,0,108,18.58L97.5,29.08A9.17,9.17,0,0,1,104.65,14.19Z"/><path class="cls-19" d="M51.81,56.9A9.14,9.14,0,0,0,42.68,66V82.29a9.13,9.13,0,1,0,18.26,0V66A9.15,9.15,0,0,0,51.81,56.9Zm0,32.52a7.14,7.14,0,0,1-7.13-7.13V75.16H58.94v7.13A7.14,7.14,0,0,1,51.81,89.42Zm7.13-16.26H44.68V66a7.13,7.13,0,1,1,14.26,0Z"/><path class="cls-19" d="M108.72,51.8a9.12,9.12,0,0,0-12.91,0L84.31,63.29A9.13,9.13,0,0,0,97.22,76.2l11.5-11.49A9.14,9.14,0,0,0,108.72,51.8Zm-12.91,23A7.13,7.13,0,0,1,85.73,64.71l5-5,10.08,10.08Zm6.45-6.46L92.18,58.25l5-5a7.13,7.13,0,0,1,10.09,10.08Z"/><path class="cls-19" d="M72.78,31.13a9.08,9.08,0,0,0-2.67-6.45l-11.5-11.5A9.13,9.13,0,0,0,45.7,26.09l11.5,11.5A9.14,9.14,0,0,0,72.78,31.13ZM45,19.64a7.14,7.14,0,0,1,12.17-5l5,5L52.16,29.72C47,24.59,45,23.36,45,19.64ZM63.65,38.26a7.11,7.11,0,0,1-5-2.08l-5-5.05L63.65,21.05l5,5A7.13,7.13,0,0,1,63.65,38.26Z"/></g></svg>