<svg xmlns="http://www.w3.org/2000/svg" xmlns:xlink="http://www.w3.org/1999/xlink" viewBox="0 0 128 128"><defs><style>.cls-1{fill:url(#linear-gradient);}.cls-2{fill:#dd4e6a;}.cls-3{fill:url(#linear-gradient-2);}.cls-4{fill:url(#linear-gradient-3);}.cls-5{fill:url(#linear-gradient-4);}.cls-6{fill:url(#linear-gradient-5);}.cls-7{fill:url(#linear-gradient-6);}.cls-8{fill:#42455e;}.cls-9{fill:url(#linear-gradient-7);}.cls-10{fill:#7ece67;}.cls-11{fill:url(#linear-gradient-8);}.cls-12{fill:#f6b756;}.cls-13{fill:#47566a;}</style><linearGradient id="linear-gradient" x1="108.7" y1="53.88" x2="108.7" y2="17.31" gradientUnits="userSpaceOnUse"><stop offset="0" stop-color="#da5466"/><stop offset="1" stop-color="#e87092"/></linearGradient><linearGradient id="linear-gradient-2" x1="64" y1="127.03" x2="64" y2="55.91" gradientUnits="userSpaceOnUse"><stop offset="0" stop-color="#d4d8e1"/><stop offset="1" stop-color="#f3f4f5"/></linearGradient><linearGradient id="linear-gradient-3" x1="19.8" y1="118.91" x2="19.8" y2="64.35" gradientUnits="userSpaceOnUse"><stop offset="0" stop-color="#8cdd79"/><stop offset="1" stop-color="#d4e6b6"/></linearGradient><linearGradient id="linear-gradient-4" x1="64" y1="74.91" x2="64" y2="55.91" gradientUnits="userSpaceOnUse"><stop offset="0" stop-color="#fbcc88"/><stop offset="1" stop-color="#ffe5c3"/></linearGradient><linearGradient id="linear-gradient-5" x1="108.2" y1="118.91" x2="108.2" y2="64.35" xlink:href="#linear-gradient"/><linearGradient id="linear-gradient-6" x1="64" y1="127.03" x2="64" y2="80.3" gradientUnits="userSpaceOnUse"><stop offset="0" stop-color="#454b60"/><stop offset="1" stop-color="#575f7c"/></linearGradient><linearGradient id="linear-gradient-7" x1="19.3" y1="53.88" x2="19.3" y2="17.31" xlink:href="#linear-gradient-3"/><linearGradient id="linear-gradient-8" x1="63.73" y1="37.46" x2="63.73" y2="0.88" xlink:href="#linear-gradient-4"/></defs><title>Emotional meter</title><g id="Emotional_meter" data-name="Emotional meter"><circle class="cls-1" cx="108.7" cy="35.59" r="18.29"/><path class="cls-2" d="M108.7,53.88A18.27,18.27,0,0,1,90.54,33.56a18.28,18.28,0,0,0,36.33,0A18.29,18.29,0,0,1,108.7,53.88Z"/><path class="cls-3" d="M64,55.91a63,63,0,0,0-63,63V127H127v-8.12A63,63,0,0,0,64,55.91Z"/><path class="cls-4" d="M38.6,74.91a50.74,50.74,0,0,0-25.4,44H1A63,63,0,0,1,32.5,64.35Z"/><path class="cls-5" d="M95.5,64.35,89.4,74.91a50.82,50.82,0,0,0-50.8,0L32.5,64.35A63,63,0,0,1,95.5,64.35Z"/><path class="cls-6" d="M127,118.91H114.8a50.74,50.74,0,0,0-25.4-44l6.1-10.56A63,63,0,0,1,127,118.91Z"/><path class="cls-7" d="M70.1,120.94a6.1,6.1,0,0,1-12.2,0c0-6.1,6.1-40.64,6.1-40.64S70.1,114.84,70.1,120.94Z"/><path class="cls-8" d="M70.1,120.94a6.1,6.1,0,0,1-12.2,0c0-.61.07-1.53.17-2.66,1.45,6.24,10.41,6.23,11.86,0C70,119.41,70.1,120.33,70.1,120.94Z"/><circle class="cls-9" cx="19.3" cy="35.59" r="18.29"/><path class="cls-10" d="M19.3,53.88A18.28,18.28,0,0,1,1.13,33.56a18.28,18.28,0,0,0,36.33,0A18.27,18.27,0,0,1,19.3,53.88Z"/><circle class="cls-11" cx="63.73" cy="19.17" r="18.29"/><path class="cls-12" d="M63.73,37.46A18.28,18.28,0,0,1,45.56,17.14a18.28,18.28,0,0,0,36.34,0A18.28,18.28,0,0,1,63.73,37.46Z"/><path class="cls-13" d="M19.29,54.84A19.29,19.29,0,1,0,0,35.55,19.31,19.31,0,0,0,19.29,54.84Zm0-36.58A17.29,17.29,0,1,1,2,35.55,17.31,17.31,0,0,1,19.29,18.26Z"/><path class="cls-13" d="M14.25,44.73a7.13,7.13,0,0,1,10.08,0,1,1,0,0,0,1.42,0c2-2-7.1-7.23-12.92-1.41A1,1,0,0,0,14.25,44.73Z"/><path class="cls-13" d="M102.25,44.73a1,1,0,0,0,1.42,0,7.13,7.13,0,0,1,10.08,0,1,1,0,0,0,1.42-1.41C109.37,37.53,100.29,42.76,102.25,44.73Z"/><path class="cls-13" d="M64,38.58A19.29,19.29,0,1,0,44.71,19.29,19.31,19.31,0,0,0,64,38.58ZM64,2A17.29,17.29,0,1,1,46.71,19.29,17.31,17.31,0,0,1,64,2Z"/><path class="cls-13" d="M70.46,28.13A1,1,0,0,0,69,26.71a7.12,7.12,0,0,1-10.08,0,1,1,0,0,0-1.42,1.42A9.15,9.15,0,0,0,70.46,28.13Z"/><path class="cls-13" d="M73.13,17.26v-2a1,1,0,0,0-2,0v2A1,1,0,0,0,73.13,17.26Z"/><path class="cls-13" d="M56.87,17.26v-2a1,1,0,0,0-2,0v2A1,1,0,0,0,56.87,17.26Z"/><path class="cls-13" d="M108.71,54.84A19.29,19.29,0,1,0,89.42,35.55,19.31,19.31,0,0,0,108.71,54.84Zm0-36.58A17.29,17.29,0,1,1,91.42,35.55,17.31,17.31,0,0,1,108.71,18.26Z"/><path class="cls-13" d="M9.13,34.52c.34,0,.17,0,4.51-2.14a1,1,0,0,0-.89-1.79l-4.07,2A1,1,0,0,0,9.13,34.52Z"/><path class="cls-13" d="M24.94,32.38c4.38,2.19,4.18,2.14,4.51,2.14a1,1,0,0,0,.45-1.9l-4.07-2A1,1,0,0,0,24.94,32.38Z"/><path class="cls-13" d="M98.1,32.38c4.39,2.19,4.19,2.14,4.51,2.14a1,1,0,0,0,.45-1.9l-4.06-2A1,1,0,0,0,98.1,32.38Z"/><path class="cls-13" d="M114.81,34.52c.34,0,.16,0,4.51-2.14a1,1,0,0,0-.9-1.79l-4.06,2A1,1,0,0,0,114.81,34.52Z"/><path class="cls-13" d="M96.14,63.56c-.19-.16,0-.09-.32-.18a63.75,63.75,0,0,0-63.64,0c-.24.08-.11,0-.32.18A64,64,0,0,0,0,118.87V127a1,1,0,0,0,1,1H127a1,1,0,0,0,1-1v-8.13A64,64,0,0,0,96.14,63.56ZM126,117.87H115.8a51.71,51.71,0,0,0-25-43.37l5.07-8.8A62,62,0,0,1,126,117.87ZM94.12,64.7,89,73.5A51.91,51.91,0,0,0,39,73.5l-5.08-8.8A61.84,61.84,0,0,1,94.12,64.7Zm-62,1,5.07,8.8a51.72,51.72,0,0,0-25,43.37H2A62,62,0,0,1,32.15,65.7ZM58.9,120.9c0-4.44,3.38-24.73,5.1-34.78,1.72,10,5.1,30.34,5.1,34.78a5.1,5.1,0,1,1-10.2,0Zm10,5.1a7.1,7.1,0,0,0,2.17-5.1c0-6.11-5.87-39.4-6.12-40.82a1,1,0,0,0-2,0c-.25,1.42-6.12,34.71-6.12,40.82a7.1,7.1,0,0,0,2.17,5.1H2v-6.13H13.19a1,1,0,0,0,1-1A49.63,49.63,0,0,1,39.1,75.74c32.68-19,74.71,4.44,74.71,43.13a1,1,0,0,0,1,1H126V126Z"/></g></svg>