<svg id="Female_Psycolog" data-name="Female Psycolog" xmlns="http://www.w3.org/2000/svg" xmlns:xlink="http://www.w3.org/1999/xlink" viewBox="0 0 128 128"><defs><style>.cls-1{fill:url(#linear-gradient);}.cls-2{fill:url(#linear-gradient-2);}.cls-3{fill:#5b8dc9;}.cls-4{fill:#9b756d;}.cls-5{fill:url(#linear-gradient-3);}.cls-6{fill:#8a6762;}.cls-7{fill:url(#linear-gradient-4);}.cls-8{fill:#42455e;}.cls-9{fill:url(#linear-gradient-5);}.cls-10{fill:url(#linear-gradient-6);}.cls-11{fill:#eab39b;}.cls-12{fill:url(#linear-gradient-7);}.cls-13{fill:url(#linear-gradient-8);}.cls-14{fill:url(#linear-gradient-9);}.cls-15{fill:url(#linear-gradient-10);}.cls-16{fill:#77cacb;}.cls-17{fill:#47566a;}</style><linearGradient id="linear-gradient" x1="53.84" y1="126.97" x2="53.84" y2="78.19" gradientUnits="userSpaceOnUse"><stop offset="0" stop-color="#9b756d"/><stop offset="1" stop-color="#bc9388"/></linearGradient><linearGradient id="linear-gradient-2" x1="102.6" y1="126.97" x2="102.6" y2="86.33" gradientUnits="userSpaceOnUse"><stop offset="0" stop-color="#7aa8d7"/><stop offset="1" stop-color="#96c8ea"/></linearGradient><linearGradient id="linear-gradient-3" x1="53.84" y1="116.81" x2="53.84" y2="78.21" xlink:href="#linear-gradient"/><linearGradient id="linear-gradient-4" x1="53.84" y1="78.21" x2="53.84" y2="1.01" gradientUnits="userSpaceOnUse"><stop offset="0" stop-color="#454b60"/><stop offset="1" stop-color="#575f7c"/></linearGradient><linearGradient id="linear-gradient-5" x1="53.84" y1="98.53" x2="53.84" y2="70.71" gradientUnits="userSpaceOnUse"><stop offset="0" stop-color="#f2c4b0"/><stop offset="1" stop-color="#ffe3d7"/></linearGradient><linearGradient id="linear-gradient-6" x1="53.84" y1="72.12" x2="53.84" y2="17.26" xlink:href="#linear-gradient-5"/><linearGradient id="linear-gradient-7" x1="82.28" y1="49.77" x2="82.28" y2="37.58" xlink:href="#linear-gradient-5"/><linearGradient id="linear-gradient-8" x1="25.4" y1="49.77" x2="25.4" y2="37.58" xlink:href="#linear-gradient-5"/><linearGradient id="linear-gradient-9" x1="42.67" y1="49.77" x2="42.67" y2="31.48" gradientUnits="userSpaceOnUse"><stop offset="0" stop-color="#9dd5df"/><stop offset="1" stop-color="#c3e1f5"/></linearGradient><linearGradient id="linear-gradient-10" x1="65.01" y1="49.77" x2="65.01" y2="31.48" xlink:href="#linear-gradient-9"/></defs><title>Female Psycolog</title><path class="cls-1" d="M102.6,127H5.08l4.17-25A28.47,28.47,0,0,1,37.3,78.21c35.1,0,34.6-.16,37.75.39A28.35,28.35,0,0,1,92.62,88.94Z"/><circle class="cls-2" cx="102.6" cy="106.65" r="20.32"/><path class="cls-3" d="M112.59,124.35C98,132.56,80.64,120.62,82.4,104.54a20.32,20.32,0,0,0,40.45.51A20.34,20.34,0,0,1,112.59,124.35Z"/><path class="cls-4" d="M69.56,98.53l3.56,7.11L53.84,122.15,34.56,105.64l3.56-7.11L23.31,92.19l9.3-13.57c3.17-.55,1.51-.41,37.77-.41a26.76,26.76,0,0,1,4.67.39l9.32,13.59Z"/><polygon class="cls-5" points="69.86 78.21 78.22 90.4 64 96.49 68.06 104.62 53.84 116.81 39.62 104.62 43.68 96.49 29.46 90.4 37.82 78.21 69.86 78.21"/><path class="cls-6" d="M55.87,86.34V127H51.81V86.34A2,2,0,0,1,55.87,86.34Z"/><path class="cls-7" d="M21.34,78.21V21.47A16.54,16.54,0,0,1,35.56,5.07,13.87,13.87,0,0,1,45.37,1H62A24.37,24.37,0,0,1,86.35,25.39V78.21Z"/><path class="cls-8" d="M78.22,33.52v4.06A14.21,14.21,0,0,0,64,23.36H47a13.71,13.71,0,0,1-11.39-6.1c0,10.51-1.79,13.16-6.1,20.32V35.2c0-9.24,6.1-10.79,6.1-22A13.72,13.72,0,0,0,47,19.29H64A14.23,14.23,0,0,1,78.22,33.52Z"/><path class="cls-9" d="M62,70.71v7.5L53.84,98.53,45.71,78.21v-7.5A24.2,24.2,0,0,0,62,70.71Z"/><path class="cls-10" d="M78.22,37.58V47.74a24.38,24.38,0,1,1-48.76,0V37.58c4.3-7.13,6.1-9.89,6.1-20.32A13.71,13.71,0,0,0,47,23.36H64A14.21,14.21,0,0,1,78.22,37.58Z"/><path class="cls-11" d="M78.22,43.29v4.45a24.38,24.38,0,1,1-48.76,0V43.29a24.31,24.31,0,0,0,7.13,17.25C51.79,75.73,78.22,65.08,78.22,43.29Z"/><path class="cls-12" d="M80.25,49.77h-2V37.58h2a6.1,6.1,0,1,1,0,12.19Z"/><path class="cls-13" d="M27.43,37.58h2V49.77h-2a6.1,6.1,0,0,1,0-12.19Z"/><path class="cls-11" d="M78.22,37.58v4.06A14.21,14.21,0,0,0,64,27.42c-17.53,0-20,.59-24.93-1.83-1.31,7-4.93,11.43-9.61,16.05V37.58c4.3-7.13,6.1-9.89,6.1-20.32A13.71,13.71,0,0,0,47,23.36H64A14.21,14.21,0,0,1,78.22,37.58Z"/><circle class="cls-14" cx="42.67" cy="40.63" r="9.14"/><circle class="cls-15" cx="65.01" cy="40.63" r="9.14"/><circle class="cls-14" cx="42.67" cy="40.63" r="9.14"/><circle class="cls-15" cx="65.01" cy="40.63" r="9.14"/><path class="cls-16" d="M42.67,49.77a9.14,9.14,0,0,1-8.92-11.18c2.11,9.45,15.72,9.46,17.84,0A9.15,9.15,0,0,1,42.67,49.77Z"/><path class="cls-16" d="M65,49.77A9.14,9.14,0,0,1,56.1,38.59c2.11,9.45,15.72,9.46,17.83,0A9.14,9.14,0,0,1,65,49.77Z"/><path class="cls-17" d="M58.86,60.89a1,1,0,0,0-1.42-1.42,5.1,5.1,0,0,1-7.21,0,1,1,0,0,0-1.41,1.42A7.11,7.11,0,0,0,58.86,60.89Z"/><path class="cls-17" d="M121.18,96.19A21.34,21.34,0,0,0,92.9,87.72c-8.46-10.06-18.05-8.5-6.55-8.5a1,1,0,0,0,1-1V25.39A25.42,25.42,0,0,0,62,0H45.36A15,15,0,0,0,35.08,4.12,17.56,17.56,0,0,0,20.32,21.46V78.22a1,1,0,0,0,1,1h5.27A29.34,29.34,0,0,0,8.25,101.83l-4.17,25a1,1,0,0,0,2,.33l4.17-25A27.32,27.32,0,0,1,35.87,79.29C28.1,90.62,28.3,90.05,28.49,90.7S28,90.88,42.31,97l-3.59,7.18a1,1,0,0,0,.24,1.2l13.88,11.9V127a1,1,0,0,0,2,0v-9.7l13.87-11.9a1,1,0,0,0,.25-1.2L65.37,97C79.71,90.87,79,91.34,79.18,90.7s.4-.07-7.39-11.44a27.31,27.31,0,0,1,19.35,9.47,21.31,21.31,0,1,0,30,7.46Zm-35.83-19H63v-5.8A25.44,25.44,0,0,0,79,50.77c2.14,0,4.2,0,6.31-2.17ZM53.84,95.85,46.71,78V72.12a25.69,25.69,0,0,0,14.13,0c.19-.06.13-.62.13,5.89ZM28.45,48.77h-1a5.1,5.1,0,1,1,0-10.19h1ZM79.22,38.58h1a5.1,5.1,0,0,1,0,10.19h-1Zm-7.17-2a8.11,8.11,0,0,0-14.52.9,7.84,7.84,0,0,0-7.38,0,8.11,8.11,0,0,0-14.52-.9c-.24,0,.39,0-4.41,0,3-4.91,5.25-9.36,5.33-16.53a14.65,14.65,0,0,0,10.39,4.31H64A13.22,13.22,0,0,1,77.17,36.58C71,36.58,72.31,36.57,72.05,36.6Zm-7-2.08a6.11,6.11,0,1,1-6.12,6.11A6.12,6.12,0,0,1,65,34.52Zm-22.36,0a6.11,6.11,0,1,1-6.11,6.11A6.12,6.12,0,0,1,42.66,34.52ZM30.45,38.58h4.37a8.11,8.11,0,1,0,15.91,1.24c.35-1.64,5.86-1.64,6.21,0a8.11,8.11,0,1,0,15.92-1.24h4.36v9.16c0,20.84-25.29,31.19-39.93,16.55C29.24,56.24,30.45,47.62,30.45,38.58ZM22.32,21.46A15.54,15.54,0,0,1,35.69,6.06a1,1,0,0,0,.56-.29A13,13,0,0,1,45.36,2H62A23.41,23.41,0,0,1,85.35,25.39V38.75c-2.07-2.14-4.26-2.17-6.18-2.17A15.22,15.22,0,0,0,64,22.36H46.94A12.68,12.68,0,0,1,36.38,16.7a1,1,0,0,0-1.83.56c0,10-1.62,12.58-5.66,19.32-1.93,0-4.3-.18-6.57,2.17Zm0,55.76V48.6c2.09,2.17,4.29,2.17,6.32,2.17A25.3,25.3,0,0,0,44.71,71.44v5.78Zm18.54,27.17c4-8,4-7.65,3.76-8.22S45.26,96.1,31,90l7.37-10.76H45l7.81,19.52v15.92ZM63.61,95.6A1,1,0,0,0,63.1,97l3.72,7.43-12,10.27V98.74l7.8-19.52h6.7L76.71,90Zm48.5,27.9a19.32,19.32,0,1,1,7.33-26.32A19.33,19.33,0,0,1,112.11,123.5Z"/><path class="cls-17" d="M112.77,97.55c-5.77,0,1.25,12.19-8.13,12.19h-1V99.55h1a1,1,0,0,0,0-2h-4.06a1,1,0,0,0,0,2h1v10.19c-4.84,0-6.31-.85-6.48-7.15-.06-2.36-.13-5-2.68-5a1,1,0,0,0,0,2c.51,0,.63,1,.69,3.1.19,7.24,2.47,9.09,8.47,9.09v6.13h-1a1,1,0,0,0,0,2h4.06a1,1,0,0,0,0-2h-1v-6.13h1c10.52,0,6.08-12.19,8.13-12.19A1,1,0,0,0,112.77,97.55Z"/></svg>