<svg xmlns="http://www.w3.org/2000/svg" xmlns:xlink="http://www.w3.org/1999/xlink" viewBox="0 0 128 128"><defs><style>.cls-1{fill:url(#linear-gradient);}.cls-2{fill:#eab39b;}.cls-3{fill:url(#linear-gradient-2);}.cls-4{fill:#4da67f;}.cls-5{fill:#47566a;}</style><linearGradient id="linear-gradient" x1="64" y1="126.98" x2="64" y2="0.98" gradientUnits="userSpaceOnUse"><stop offset="0" stop-color="#f2c4b0"/><stop offset="1" stop-color="#ffe3d7"/></linearGradient><linearGradient id="linear-gradient-2" x1="59.94" y1="70.1" x2="59.94" y2="13.19" gradientUnits="userSpaceOnUse"><stop offset="0" stop-color="#6ab891"/><stop offset="1" stop-color="#85cba9"/></linearGradient></defs><title>Healthy</title><g id="Healthy"><path class="cls-1" d="M112.75,71.82a5.34,5.34,0,0,1-4.29,5.24l-5.87,1.18c0,7-.14,5.87.37,6.64a3.52,3.52,0,0,1-.5,4.54c-1.25,1.21-2.55,1-4.42,1a3.58,3.58,0,0,1,2.52,6.1c0,6,.65,10.32-3.65,14.62a12.44,12.44,0,0,1-12.25,3.17l-12.53-3.58V127H23.58C25,98,27,87.7,20.21,71.37a62.56,62.56,0,0,1-5-24.68c0-13.52,4.27-24.24,12.92-32.86,26.66-26.53,76.45-9.89,76.45,30.89,0,6.06.16,6.91-.48,8.08a5.47,5.47,0,0,0,.34,5.75C112.14,69.24,112.75,69.52,112.75,71.82Z"/><path class="cls-2" d="M80.05,66.76c-19,19-51.2,3.39-48.4-23.12C34.09,67.06,63,77.83,80.05,60.76a28.37,28.37,0,0,0,8.17-17.12A28.39,28.39,0,0,1,80.05,66.76Z"/><path class="cls-2" d="M72.13,120.89V127H23.58s.12-2.41.28-6.09Z"/><circle class="cls-3" cx="59.94" cy="41.65" r="28.45"/><path class="cls-4" d="M80.05,61.76c-19,19-51.2,3.39-48.4-23.12C34.09,62.06,63,72.83,80.05,55.76a28.37,28.37,0,0,0,8.17-17.12A28.39,28.39,0,0,1,80.05,61.76Z"/><path class="cls-5" d="M112.59,68.12,105.32,58A4.41,4.41,0,0,1,105,53.4c.9-1.8.68-2.91.68-8.71C105.65,21.62,87.79,0,59.12,0A45,45,0,0,0,14.23,44.69c0,9,.86,17.05,4.9,26.73A61.71,61.71,0,0,1,24,98.92c-.65,12.08-1.4,27.87-1.41,28a1,1,0,0,0,2,.1C25.86,98.77,28.16,87.9,21.1,71,17,61.18,16.2,53.54,16.23,44.7A43,43,0,0,1,59.12,2c27.25,0,44.53,20.43,44.53,42.69,0,6,.15,6.57-.47,7.81a6.4,6.4,0,0,0,.52,6.61L111,69.28a4.35,4.35,0,0,1-2.68,6.79l-5.86,1.18a1,1,0,0,0-.81,1c0,6.56-.06,6.3.17,6.65.6.89,1.21,1.83.49,3.18A2.53,2.53,0,0,1,100,89.42H92.45a1,1,0,0,0,0,2h5.61a2.57,2.57,0,0,1,1.81,4.39c-.4.41-.29.35-.29,6.52A11.49,11.49,0,0,1,88.1,113.81c-2.14,0-2.19-.17-15.7-4a1,1,0,0,0-1.27,1V127a1,1,0,0,0,2,0V112.07c11.4,3.26,12.36,3.74,15,3.74a13.5,13.5,0,0,0,13.48-13.48V96.9a4.55,4.55,0,0,0,0-5.77,4.58,4.58,0,0,0,2.18-6.82c-.28-.41-.2.44-.2-5.26l5.06-1A6.35,6.35,0,0,0,112.59,68.12Z"/><path class="cls-5" d="M89.39,41.65A29.46,29.46,0,1,0,59.94,71.08,29.45,29.45,0,0,0,89.39,41.65ZM59.94,69.1A27.46,27.46,0,1,1,87.39,41.65,27.44,27.44,0,0,1,59.94,69.1Z"/><path class="cls-5" d="M73.45,30.78,53.84,50.39l-9.46-9.45A1,1,0,0,0,43,42.35C53.75,53.13,53.24,52.81,53.84,52.81s-1.05,1.46,21-20.62A1,1,0,0,0,73.45,30.78Z"/></g></svg>