<svg xmlns="http://www.w3.org/2000/svg" xmlns:xlink="http://www.w3.org/1999/xlink" viewBox="0 0 128 128"><defs><style>.cls-1{fill:url(#linear-gradient);}.cls-2{fill:url(#linear-gradient-2);}.cls-3{fill:#5b8dc9;}.cls-4{fill:url(#linear-gradient-3);}.cls-5{fill:#77cacb;}.cls-6{fill:url(#linear-gradient-4);}.cls-7{fill:url(#linear-gradient-5);}.cls-8{fill:url(#linear-gradient-6);}.cls-9{fill:#47566a;}</style><linearGradient id="linear-gradient" x1="79.24" y1="49.78" x2="79.24" y2="0.99" gradientUnits="userSpaceOnUse"><stop offset="0" stop-color="#7aa8d7"/><stop offset="1" stop-color="#96c8ea"/></linearGradient><linearGradient id="linear-gradient-2" x1="63" y1="126.99" x2="63" y2="49.68" xlink:href="#linear-gradient"/><linearGradient id="linear-gradient-3" x1="51.81" y1="49.78" x2="51.81" y2="1.02" gradientUnits="userSpaceOnUse"><stop offset="0" stop-color="#9dd5df"/><stop offset="1" stop-color="#c3e1f5"/></linearGradient><linearGradient id="linear-gradient-4" x1="39.59" y1="102.61" x2="39.59" y2="62.22" xlink:href="#linear-gradient-3"/><linearGradient id="linear-gradient-5" x1="41.65" y1="126.99" x2="41.65" y2="102.61" xlink:href="#linear-gradient-3"/><linearGradient id="linear-gradient-6" x1="96.12" y1="67.67" x2="96.12" y2="49.11" xlink:href="#linear-gradient-3"/></defs><title>Hug</title><g id="Hug"><path class="cls-1" d="M94.48,19.31V31.5c0,15.94-18.92,24-30.48,13.61V5.69C75.77-4.92,94.48,3.65,94.48,19.31Z"/><path class="cls-2" d="M110.73,96.52a6.1,6.1,0,0,1-12.19,0V127H53.84V68.07c-35.57-5.62-33.69-5.18-35-5.85a6.55,6.55,0,0,1-1.68-10.51c2.72-2.72-.86-1.93,73.24-1.93a20.22,20.22,0,0,1,7.87,1.59c11.9,11.17,10.21,8.85,11.74,13.43C111,68.12,110.73,67.84,110.73,96.52Z"/><path class="cls-3" d="M53.84,106.68V96.52H62v2A8.13,8.13,0,0,1,53.84,106.68Z"/><path class="cls-3" d="M76.19,45.72A4.1,4.1,0,0,1,72.48,40c2-5,1.68-7.2,1.68-20.7a22.28,22.28,0,0,0-6.77-16A17,17,0,0,0,64,5.69V45.11c11.74,10.59,30.48,2.12,30.48-14.2V27.43A18.29,18.29,0,0,1,76.19,45.72Z"/><path class="cls-4" d="M51.81,49.78A18.28,18.28,0,0,1,33.52,31.5V19.31a18.29,18.29,0,1,1,36.57,0V31.5A18.27,18.27,0,0,1,51.81,49.78Z"/><path class="cls-5" d="M70.09,27.43V31.5a18.29,18.29,0,0,1-36.57,0V27.43a18.29,18.29,0,1,0,36.57,0Z"/><path class="cls-6" d="M62,96.52a6.1,6.1,0,0,1-6.1,6.09H25.39a8.12,8.12,0,0,1-8.12-8.13c0-25.06-.51-27.22,1.58-32.26,1.27.66-.77.2,35,5.85V90.42h2A6.09,6.09,0,0,1,62,96.52Z"/><rect class="cls-7" x="29.46" y="102.61" width="24.38" height="24.38"/><rect class="cls-5" x="29.46" y="102.61" width="24.38" height="4.06"/><path class="cls-5" d="M53.84,72.13C20.22,66.82,19.42,67,17.78,65.59a19.76,19.76,0,0,1,1.07-3.37c1.27.66-.77.2,35,5.85Z"/><path class="cls-8" d="M79.75,63.33a6.09,6.09,0,0,1,4.07-7.6l21.08-6.36A6.1,6.1,0,0,1,108.43,61L87.34,67.4A6.08,6.08,0,0,1,79.75,63.33Z"/><path class="cls-5" d="M108.43,61,87.34,67.4a6.09,6.09,0,0,1-7.49-7.88,6.05,6.05,0,0,0,7.49,3.82L108.43,57c3.74-1.11,3.83-4.5,4.07-3.54A6.1,6.1,0,0,1,108.43,61Z"/><rect class="cls-5" x="49.78" y="70.1" width="4.06" height="20.32"/><rect class="cls-5" x="49.78" y="104.64" width="4.06" height="22.35"/><path class="cls-9" d="M113.47,53.15a7.09,7.09,0,0,0-8.84-4.74l-6.31,1.9c-4.7-1.88-7.93-1.54-13.63-1.54A19.29,19.29,0,0,0,95.48,31.48V19.29C95.48,3.22,76.68-6,64,4.37,51.5-5.89,32.52,3,32.52,19.29V31.48A19.29,19.29,0,0,0,43.31,48.77H21.8a7.59,7.59,0,0,0-4.18,13.9c-1.8,4.83-1.36,5.61-1.36,31.81a9.13,9.13,0,0,0,9.13,9.13h3.06V127a1,1,0,0,0,2,0V103.61H52.84V127a1,1,0,0,0,2,0V103.61h1a7.1,7.1,0,1,0,0-14.19h-1c0-22.81,0-21.5-.14-21.84-.37-.65,1.81-.11-33.77-5.72a5.58,5.58,0,0,1,.87-11.09c75.44,0,69.84-.23,73.13.56L83.54,54.77a7.1,7.1,0,0,0,2,13.89c1.46,0,.44.18,22.44-6.46,2.28,5,1.71,6,1.71,34.32a5.1,5.1,0,0,1-8.7,3.6c-2-2-1.49-.87-1.49-28a1,1,0,0,0-2,0V127a1,1,0,0,0,2,0c0-27.62,0-25.6.08-25.47a7.1,7.1,0,0,0,12.11-5c0-27.52.61-29.58-1.82-35A7.12,7.12,0,0,0,113.47,53.15ZM52.84,68.92v20.5H30.45V72.13a1,1,0,0,0-2,0V90.42a1,1,0,0,0,1,1H55.87a5.1,5.1,0,0,1,0,10.19H25.39a7.13,7.13,0,0,1-7.13-7.13c0-26.45-.38-26.67,1.16-30.94C20.3,63.83,17.52,63.34,52.84,68.92ZM93.48,19.29V31.48A17.28,17.28,0,0,1,65.51,45,19.21,19.21,0,0,0,71.1,31.48V19.29A19.24,19.24,0,0,0,65.51,5.73C76.86-3.26,93.48,5,93.48,19.29Zm-59,12.19V19.29a17.29,17.29,0,1,1,34.58,0V31.48a17.29,17.29,0,1,1-34.58,0ZM60.31,48.77c6.42-3.17,1-3.11,7.34,0ZM87.06,66.44a5.1,5.1,0,1,1-2.94-9.76l21.08-6.36a5.1,5.1,0,1,1,3,9.76Z"/><path class="cls-9" d="M55.41,39.15a5.1,5.1,0,0,1-7.21,0,1,1,0,0,0-1.41,1.42,7.11,7.11,0,0,0,10,0A1,1,0,0,0,55.41,39.15Z"/></g></svg>