<svg xmlns="http://www.w3.org/2000/svg" xmlns:xlink="http://www.w3.org/1999/xlink" viewBox="0 0 128 128"><defs><style>.cls-1{fill:url(#linear-gradient);}.cls-2{fill:#eab39b;}.cls-3{fill:url(#linear-gradient-2);}.cls-4{fill:#8288a1;}.cls-5{fill:url(#linear-gradient-3);}.cls-6{fill:#c7cdd8;}.cls-7{fill:#47566a;}</style><linearGradient id="linear-gradient" x1="64" y1="126.98" x2="64" y2="0.98" gradientUnits="userSpaceOnUse"><stop offset="0" stop-color="#f2c4b0"/><stop offset="1" stop-color="#ffe3d7"/></linearGradient><linearGradient id="linear-gradient-2" x1="59.94" y1="74.16" x2="59.94" y2="37.58" gradientUnits="userSpaceOnUse"><stop offset="0" stop-color="#949aaf"/><stop offset="1" stop-color="#c6ccda"/></linearGradient><linearGradient id="linear-gradient-3" x1="59.96" y1="37.58" x2="59.96" y2="13.19" gradientUnits="userSpaceOnUse"><stop offset="0" stop-color="#d4d8e1"/><stop offset="1" stop-color="#f3f4f5"/></linearGradient></defs><title>Insecure</title><g id="Insecure"><path class="cls-1" d="M112.75,71.82a5.34,5.34,0,0,1-4.29,5.24l-5.87,1.18c0,7-.14,5.87.37,6.64a3.52,3.52,0,0,1-.5,4.54c-1.25,1.21-2.55,1-4.42,1a3.58,3.58,0,0,1,2.52,6.1c0,6,.65,10.32-3.65,14.62a12.44,12.44,0,0,1-12.25,3.17l-12.53-3.58V127H23.58C25,98,27,87.7,20.21,71.37a62.56,62.56,0,0,1-5-24.68c0-13.52,4.27-24.24,12.92-32.86,26.66-26.53,76.45-9.89,76.45,30.89,0,6.06.16,6.91-.48,8.08a5.47,5.47,0,0,0,.34,5.75C112.14,69.24,112.75,69.52,112.75,71.82Z"/><rect class="cls-2" x="35.55" y="41.58" width="48.77" height="36.58" rx="4.06"/><path class="cls-2" d="M78.23,41.58H70.1c0-5.88,0-6.3,0-6.58a10.17,10.17,0,0,0-20.32.48v6.1H41.65c0-5.88,0-6.3,0-6.58.41-16.15,20-23.7,31.21-12.45C79,28.71,78.23,35.35,78.23,41.58Z"/><path class="cls-2" d="M72.13,120.89V127H23.58s.12-2.41.28-6.09Z"/><rect class="cls-3" x="35.55" y="37.58" width="48.77" height="36.58" rx="4.06"/><path class="cls-4" d="M84.32,64.1v6a4.06,4.06,0,0,1-4.06,4.06H39.61a4.06,4.06,0,0,1-4.06-4.06v-6a4.06,4.06,0,0,0,4.06,4.06H80.26A4.06,4.06,0,0,0,84.32,64.1Z"/><path class="cls-5" d="M78.23,37.58H70.1c0-5.88,0-6.3,0-6.58a10.17,10.17,0,0,0-20.32.48v6.1H41.65c0-5.88,0-6.3,0-6.58.41-16.15,20-23.7,31.21-12.45C79,24.71,78.23,31.35,78.23,37.58Z"/><path class="cls-6" d="M41.66,31h8.12c0,.28,0,0,0,6.58H41.65C41.65,31.7,41.64,31.28,41.66,31Z"/><path class="cls-6" d="M78.23,37.58H70.1c0-5.88,0-6.3,0-6.58h8.13C78.24,31.28,78.23,31,78.23,37.58Z"/><path class="cls-7" d="M112.59,68.12,105.32,58A4.41,4.41,0,0,1,105,53.4c.9-1.81.68-2.93.68-8.71C105.65,21.62,87.79,0,59.12,0A45,45,0,0,0,14.23,44.69c0,9,.85,17,4.9,26.73A61.67,61.67,0,0,1,24,98.92c-.65,12.08-1.4,27.87-1.41,28a1,1,0,0,0,2,.1c0-.16.76-16,1.41-28A63.58,63.58,0,0,0,21.1,71c-4-9.52-4.9-17.15-4.87-26.27A43,43,0,0,1,59.12,2c27.25,0,44.53,20.44,44.53,42.69,0,6,.15,6.57-.47,7.81a6.4,6.4,0,0,0,.52,6.61L111,69.28a4.35,4.35,0,0,1-2.68,6.79l-5.86,1.18a1,1,0,0,0-.81,1c0,6.56-.06,6.3.17,6.65.59.89,1.22,1.83.49,3.18A2.53,2.53,0,0,1,100,89.42H92.45a1,1,0,0,0,0,2h5.61a2.57,2.57,0,0,1,1.81,4.39c-.4.41-.29.35-.29,6.52A11.49,11.49,0,0,1,88.1,113.81c-2.14,0-2.19-.17-15.7-4a1,1,0,0,0-1.27,1V127a1,1,0,0,0,2,0V112.07c11.4,3.26,12.36,3.74,15,3.74a13.5,13.5,0,0,0,13.48-13.48V96.9a4.54,4.54,0,0,0,0-5.77,4.58,4.58,0,0,0,2.18-6.82c-.28-.41-.2.44-.2-5.26l5.06-1A6.35,6.35,0,0,0,112.59,68.12Z"/><path class="cls-7" d="M85.32,70.1V41.65a5.07,5.07,0,0,0-5.06-5.07h-1v-5.1a19.29,19.29,0,0,0-38.58,0v5.1h-1a5.07,5.07,0,0,0-5.06,5.07V70.1a5.07,5.07,0,0,0,5.06,5.06H80.26A5.07,5.07,0,0,0,85.32,70.1ZM42.65,31.48a17.29,17.29,0,0,1,34.58,0v5.1H71.1v-5.1a11.17,11.17,0,0,0-22.33,0v5.1H42.65Zm8.12,5.1v-5.1a9.17,9.17,0,0,1,18.33,0v5.1ZM36.55,70.1V41.65a3.07,3.07,0,0,1,3.06-3.07H80.26a3.07,3.07,0,0,1,3.06,3.07V70.1a3.06,3.06,0,0,1-3.06,3.06H39.61A3.06,3.06,0,0,1,36.55,70.1Z"/><path class="cls-7" d="M65.33,49.07l-5.39,5.39-5.39-5.39a1,1,0,0,0-1.42,1.41l5.39,5.39-5.39,5.39a1,1,0,0,0,1.42,1.41l5.39-5.38,5.39,5.38a1,1,0,0,0,1.41-1.41l-5.39-5.39,5.39-5.39A1,1,0,0,0,65.33,49.07Z"/></g></svg>