<svg xmlns="http://www.w3.org/2000/svg" xmlns:xlink="http://www.w3.org/1999/xlink" viewBox="0 0 128 128"><defs><style>.cls-1{fill:url(#linear-gradient);}.cls-2{fill:#eab39b;}.cls-3{fill:url(#linear-gradient-2);}.cls-4{fill:#c7cdd8;}.cls-5{fill:#47566a;}</style><linearGradient id="linear-gradient" x1="64" y1="126.98" x2="64" y2="0.98" gradientUnits="userSpaceOnUse"><stop offset="0" stop-color="#f2c4b0"/><stop offset="1" stop-color="#ffe3d7"/></linearGradient><linearGradient id="linear-gradient-2" x1="55.88" y1="82.31" x2="55.88" y2="21.38" gradientUnits="userSpaceOnUse"><stop offset="0" stop-color="#d4d8e1"/><stop offset="1" stop-color="#f3f4f5"/></linearGradient></defs><title>Insomnia</title><g id="Insomnia"><path class="cls-1" d="M112.75,71.82a5.34,5.34,0,0,1-4.29,5.24l-5.87,1.18c0,7-.14,5.87.37,6.64a3.52,3.52,0,0,1-.5,4.54c-1.25,1.21-2.55,1-4.42,1a3.58,3.58,0,0,1,2.52,6.1c0,6,.65,10.32-3.65,14.62a12.44,12.44,0,0,1-12.25,3.17l-12.53-3.58V127H23.58C25,98,27,87.7,20.21,71.37a62.56,62.56,0,0,1-5-24.68c0-13.52,4.27-24.24,12.92-32.86,26.66-26.53,76.45-9.89,76.45,30.89,0,6.06.16,6.91-.48,8.08a5.47,5.47,0,0,0,.34,5.75C112.14,69.24,112.75,69.52,112.75,71.82Z"/><circle class="cls-2" cx="55.88" cy="55.85" r="30.47"/><path class="cls-2" d="M55.88,86.31c-18.72,0-32.4-16.73-30.31-33.45a30.46,30.46,0,0,0,60.61,0C88.27,69.61,74.59,86.31,55.88,86.31Z"/><circle class="cls-3" cx="55.88" cy="51.85" r="30.47"/><path class="cls-4" d="M55.88,82.31c-18.72,0-32.4-16.73-30.31-33.45a30.46,30.46,0,0,0,60.61,0C88.27,65.61,74.59,82.31,55.88,82.31Z"/><path class="cls-2" d="M72.13,120.89V127H23.58s.12-2.41.28-6.09Z"/><path class="cls-5" d="M112.59,68.12,105.32,58A4.41,4.41,0,0,1,105,53.4c.9-1.81.68-2.93.68-8.71C105.65,21.62,87.79,0,59.12,0A45,45,0,0,0,14.23,44.69c0,9,.85,17,4.9,26.73A61.67,61.67,0,0,1,24,98.92c-.65,12.08-1.4,27.87-1.41,28a1,1,0,0,0,2,.1c0-.16.76-16,1.41-28A63.58,63.58,0,0,0,21.1,71c-4-9.52-4.9-17.15-4.87-26.27A43,43,0,0,1,59.12,2c27.25,0,44.53,20.44,44.53,42.69,0,6,.15,6.57-.47,7.81a6.4,6.4,0,0,0,.52,6.61L111,69.28a4.35,4.35,0,0,1-2.68,6.79l-5.86,1.18a1,1,0,0,0-.81,1c0,6.56-.06,6.3.17,6.65.59.89,1.22,1.83.49,3.18A2.53,2.53,0,0,1,100,89.42H92.45a1,1,0,0,0,0,2h5.61a2.57,2.57,0,0,1,1.81,4.39c-.4.41-.29.35-.29,6.52A11.49,11.49,0,0,1,88.1,113.81c-2.14,0-2.19-.17-15.7-4a1,1,0,0,0-1.27,1V127a1,1,0,0,0,2,0V112.07c11.4,3.26,12.36,3.74,15,3.74a13.5,13.5,0,0,0,13.48-13.48V96.9a4.54,4.54,0,0,0,0-5.77,4.58,4.58,0,0,0,2.18-6.82c-.28-.41-.2.44-.2-5.26l5.06-1A6.35,6.35,0,0,0,112.59,68.12Z"/><path class="cls-5" d="M87.35,50.16l4.39,4.39a1,1,0,0,0,1.42-1.42L87.06,47a1,1,0,0,0-1.41,0l-6.1,6.09A1,1,0,0,0,81,54.55l4.39-4.39v1.65A29.48,29.48,0,1,1,55.87,22.32a1,1,0,0,0,0-2,31.49,31.49,0,0,0,0,63C71.94,83.29,87.35,71,87.35,50.16Z"/><path class="cls-5" d="M56.87,27.42a1,1,0,0,0-2,0v4.06a1,1,0,0,0,2,0Z"/><path class="cls-5" d="M54.87,72.13v4.06a1,1,0,0,0,2,0V72.13A1,1,0,0,0,54.87,72.13Z"/><path class="cls-5" d="M35.55,50.81H31.48a1,1,0,0,0,0,2h4.07A1,1,0,0,0,35.55,50.81Z"/><path class="cls-5" d="M55.87,63H49.61L56.7,52.36a1,1,0,0,0-.83-1.55H47.74a1,1,0,0,0,0,2H54c-7.57,11.35-7.54,10.92-7.14,11.66s.12.53,9,.53A1,1,0,0,0,55.87,63Z"/><path class="cls-5" d="M71,35.08c-.38-.72-.12-.53-9-.53a1,1,0,0,0,0,2h6.26L61.14,47.19A1,1,0,0,0,62,48.74H70.1a1,1,0,0,0,0-2H63.84C71.41,35.38,71.37,35.82,71,35.08Z"/><path class="cls-5" d="M85.2,18.82c-.38-.72-.12-.53-9-.53a1,1,0,0,0,0,2h6.26L75.36,30.93a1,1,0,0,0,.83,1.55h8.13a1,1,0,0,0,0-2H78.06C85.63,19.13,85.6,19.56,85.2,18.82Z"/><path class="cls-5" d="M45,29.94a1.5,1.5,0,0,0-2.6,1.5A1.5,1.5,0,0,0,45,29.94Z"/><path class="cls-5" d="M67.31,71.63a1.5,1.5,0,0,0,1.5,2.6A1.5,1.5,0,0,0,67.31,71.63Z"/><path class="cls-5" d="M44.43,71.63a1.5,1.5,0,0,0-1.5,2.6A1.5,1.5,0,0,0,44.43,71.63Z"/><path class="cls-5" d="M34,62.7a1.5,1.5,0,0,0,1.5,2.6A1.5,1.5,0,0,0,34,62.7Z"/><path class="cls-5" d="M75.69,63.25a1.5,1.5,0,0,0,2.6,1.5A1.5,1.5,0,0,0,75.69,63.25Z"/><path class="cls-5" d="M36.05,40.36a1.5,1.5,0,0,0-2.6-1.5A1.5,1.5,0,0,0,36.05,40.36Z"/></g></svg>