<svg xmlns="http://www.w3.org/2000/svg" xmlns:xlink="http://www.w3.org/1999/xlink" viewBox="0 0 128 128"><defs><style>.cls-1{fill:url(#linear-gradient);}.cls-2{fill:#9b756d;}.cls-3{fill:url(#linear-gradient-3);}.cls-4{fill:#adb3c4;}.cls-5{fill:url(#linear-gradient-4);}.cls-6{fill:url(#linear-gradient-5);}.cls-7{fill:url(#linear-gradient-6);}.cls-8{fill:#eab39b;}.cls-9{fill:url(#linear-gradient-7);}.cls-10{fill:url(#linear-gradient-8);}.cls-11{fill:#dd4e6a;}.cls-12{fill:url(#linear-gradient-9);}.cls-13{fill:url(#linear-gradient-10);}.cls-14{fill:url(#linear-gradient-11);}.cls-15{fill:#42455e;}.cls-16{fill:url(#linear-gradient-12);}.cls-17{fill:url(#linear-gradient-13);}.cls-18{fill:url(#linear-gradient-14);}.cls-19{fill:#8a6762;}.cls-20{fill:url(#linear-gradient-15);}.cls-21{fill:#5b8dc9;}.cls-22{fill:#77cacb;}.cls-23{fill:#47566a;}</style><linearGradient id="linear-gradient" x1="53.84" y1="126.96" x2="53.84" y2="78.18" gradientUnits="userSpaceOnUse"><stop offset="0" stop-color="#9b756d"/><stop offset="1" stop-color="#bc9388"/></linearGradient><linearGradient id="linear-gradient-3" x1="53.84" y1="126.96" x2="53.84" y2="78.2" gradientUnits="userSpaceOnUse"><stop offset="0" stop-color="#949aaf"/><stop offset="1" stop-color="#c6ccda"/></linearGradient><linearGradient id="linear-gradient-4" x1="46.92" y1="93.05" x2="46.92" y2="78.2" gradientUnits="userSpaceOnUse"><stop offset="0" stop-color="#d4d8e1"/><stop offset="1" stop-color="#f3f4f5"/></linearGradient><linearGradient id="linear-gradient-5" x1="60.92" y1="93.05" x2="60.92" y2="78.2" xlink:href="#linear-gradient-4"/><linearGradient id="linear-gradient-6" x1="53.84" y1="72.1" x2="53.84" y2="15.61" gradientUnits="userSpaceOnUse"><stop offset="0" stop-color="#f2c4b0"/><stop offset="1" stop-color="#ffe3d7"/></linearGradient><linearGradient id="linear-gradient-7" x1="53.84" y1="86.33" x2="53.84" y2="70.7" xlink:href="#linear-gradient-6"/><linearGradient id="linear-gradient-8" x1="53.84" y1="98.51" x2="53.84" y2="86.33" gradientUnits="userSpaceOnUse"><stop offset="0" stop-color="#da5466"/><stop offset="1" stop-color="#e87092"/></linearGradient><linearGradient id="linear-gradient-9" x1="82.28" y1="49.76" x2="82.28" y2="37.57" xlink:href="#linear-gradient-6"/><linearGradient id="linear-gradient-10" x1="25.4" y1="49.76" x2="25.4" y2="37.57" xlink:href="#linear-gradient-6"/><linearGradient id="linear-gradient-11" x1="53.84" y1="37.57" x2="53.84" y2="1" gradientUnits="userSpaceOnUse"><stop offset="0" stop-color="#454b60"/><stop offset="1" stop-color="#575f7c"/></linearGradient><linearGradient id="linear-gradient-12" x1="42.67" y1="49.76" x2="42.67" y2="31.47" gradientUnits="userSpaceOnUse"><stop offset="0" stop-color="#9dd5df"/><stop offset="1" stop-color="#c3e1f5"/></linearGradient><linearGradient id="linear-gradient-13" x1="65.01" y1="49.76" x2="65.01" y2="31.47" xlink:href="#linear-gradient-12"/><linearGradient id="linear-gradient-14" x1="53.83" y1="126.96" x2="53.83" y2="98.54" xlink:href="#linear-gradient-8"/><linearGradient id="linear-gradient-15" x1="102.6" y1="126.96" x2="102.6" y2="86.32" gradientUnits="userSpaceOnUse"><stop offset="0" stop-color="#7aa8d7"/><stop offset="1" stop-color="#96c8ea"/></linearGradient></defs><title>Male Psycolog</title><g id="Male_Psycolog" data-name="Male Psycolog"><path class="cls-1" d="M102.6,127H5.08c.9-5.44.1-.61,4.17-25A28.45,28.45,0,0,1,37.3,78.2c36.29,0,35.13-.22,39.05.65A28.41,28.41,0,0,1,92.62,88.93C102.75,127.48,101.1,121.19,102.6,127Z"/><path class="cls-2" d="M79.6,108.45c2.85,5.67,3.52,6.29,2.66,7.58L75,127H32.71c-7.6-11.39-8.13-11.52-7.41-13l2.78-5.55-6-3a2,2,0,0,1-1.06-2.31l5.72-22.94a28.06,28.06,0,0,1,10.52-2c33.4,0,36.86-.68,43.58,2l5.74,22.94a2,2,0,0,1-1.06,2.31Z"/><path class="cls-1" d="M74.16,106.64l4.06,8.13L70.09,127H37.59l-8.13-12.19,4.06-8.13-8.12-4.06,5.93-23.75a28.66,28.66,0,0,1,6-.63c36.29,0,35.13-.22,39.05.65l5.93,23.73Z"/><path class="cls-3" d="M68.06,78.2c-5.32,31.87-3.55,21.28-8.12,48.76H47.75C43.09,99,44.87,109.66,39.62,78.2Z"/><path class="cls-4" d="M60.48,87.22c-15.69,9-2.8,1.59-17.67,10.1-.92-5.5-.23-1.4-3.19-19.12H51.46Z"/><path class="cls-4" d="M68.06,78.2c-3,17.73-2.23,13.38-3.19,19.12-12.28-7-3.6-2-17.67-10.1l9-9Z"/><path class="cls-5" d="M40,78.2h5.71l8.13,8.13C45.65,91,48.29,89.49,42.1,93.05Z"/><path class="cls-6" d="M65.58,93.05c-6.19-3.56-3.55-2-11.74-6.72L62,78.2h6Z"/><path class="cls-7" d="M78.22,15.61V47.73a24.38,24.38,0,0,1-48.76,0V15.61Z"/><path class="cls-8" d="M78.22,43.28v4.45a24.38,24.38,0,0,1-48.76,0V43.28a24.27,24.27,0,0,0,7.13,17.24C51.79,75.72,78.22,65.07,78.22,43.28Z"/><path class="cls-9" d="M62,70.7v7.5l-8.13,8.13L45.71,78.2V70.7A24.27,24.27,0,0,0,62,70.7Z"/><path class="cls-10" d="M60.67,90.23c-1.53,4.53-1.26,3.73-1.49,4.43a5.63,5.63,0,0,1-10.68,0L47,90.23c3.43-2,1.9-1.1,6.83-3.9C59,89.24,57.22,88.24,60.67,90.23Z"/><path class="cls-11" d="M57.94,88.66c-5.82,3.35-8.52,4.87-9.61,5.51L47,90.23c3.43-2,1.9-1.1,6.83-3.9Z"/><path class="cls-11" d="M60.67,90.23l-1.32,3.92c-5.77-3.3-1.18-.64-9.61-5.49l4.1-2.33C59,89.24,57.22,88.24,60.67,90.23Z"/><path class="cls-12" d="M80.25,49.76h-2V37.57h2a6.1,6.1,0,1,1,0,12.19Z"/><path class="cls-13" d="M27.43,37.57h2V49.76h-2a6.1,6.1,0,0,1,0-12.19Z"/><path class="cls-8" d="M78.22,15.61c0,27.43-.2,26,0,26A14.22,14.22,0,0,0,64,27.41c-17.53,0-20,.59-24.93-1.83a26.63,26.63,0,0,1-7.84,14.31l-1.77,1.74v-26Z"/><path class="cls-14" d="M29.46,37.57c5-8.28,6.1-10.82,6.1-20.32a13.67,13.67,0,0,0,11.38,6.1H64A14.22,14.22,0,0,1,78.22,37.57h2a24.2,24.2,0,0,0,4.06-13.42V21.32A20.31,20.31,0,0,0,64,1H45.37a13.87,13.87,0,0,0-9.81,4.06A14.59,14.59,0,0,0,23.37,19.45c0,6.37-.3,11.57,4.06,18.12Z"/><path class="cls-15" d="M80.25,37.57h-2A14.21,14.21,0,0,0,64,23.35c-17.8,0-19.53.53-23.51-1.63-5.79-3.1-4.93-7.17-4.93-2,0,8.39-3.35,13.27-6.1,17.84h-2c-4.45-6.7-4.06-12.36-4.06-17.49,0,6.9,3.68,13.43,4.06,13.43C34.16,22.34,35.56,21,35.56,13.19A13.72,13.72,0,0,0,47,19.28H66A14.21,14.21,0,0,1,80.25,33.51c.34,0,4-6,4-13C84.89,28.29,82.91,33.56,80.25,37.57Z"/><circle class="cls-16" cx="42.67" cy="40.62" r="9.14"/><circle class="cls-17" cx="65.01" cy="40.62" r="9.14"/><path class="cls-18" d="M59.94,127H47.75c-1.17-7-1.37-1.39,1.52-24.42.66-5.33,8.48-5.34,9.14,0C61.21,124.83,61.1,119.92,59.94,127Z"/><polygon class="cls-19" points="47.75 126.96 5.08 126.96 5.75 122.89 47.08 122.89 47.75 126.96"/><polygon class="cls-19" points="102.6 126.96 59.94 126.96 60.61 122.89 101.54 122.89 102.6 126.96"/><polygon class="cls-11" points="60.61 122.89 59.94 126.96 47.75 126.96 47.08 122.89 60.61 122.89"/><circle class="cls-20" cx="102.6" cy="106.64" r="20.32"/><path class="cls-21" d="M112.59,124.34C98,132.55,80.64,120.61,82.4,104.53a20.32,20.32,0,0,0,40.45.51A20.34,20.34,0,0,1,112.59,124.34Z"/><circle class="cls-16" cx="42.67" cy="40.62" r="9.14"/><circle class="cls-17" cx="65.01" cy="40.62" r="9.14"/><path class="cls-22" d="M42.67,49.76a9.14,9.14,0,0,1-8.92-11.18c2.11,9.45,15.72,9.46,17.84,0A9.15,9.15,0,0,1,42.67,49.76Z"/><path class="cls-22" d="M65,49.76A9.14,9.14,0,0,1,56.1,38.58c2.11,9.45,15.72,9.46,17.83,0A9.14,9.14,0,0,1,65,49.76Z"/><path class="cls-23" d="M58.86,60.89a1,1,0,0,0-1.42-1.42,5.1,5.1,0,0,1-7.21,0,1,1,0,0,0-1.41,1.42A7.11,7.11,0,0,0,58.86,60.89Z"/><path class="cls-23" d="M121.18,96.19A21.34,21.34,0,0,0,92.9,87.72a29.3,29.3,0,0,0-22.52-10.5H63v-5.8A25.44,25.44,0,0,0,79,50.77h1.22a7.09,7.09,0,0,0,1.66-14c3.49-6,3.4-10.85,3.4-15.46A21.35,21.35,0,0,0,64,0H45.36A14.8,14.8,0,0,0,35.07,4.13,15.54,15.54,0,0,0,22.36,19.46c0,5.71-.39,10.8,3.4,17.32a7.09,7.09,0,0,0,1.66,14h1.22A25.3,25.3,0,0,0,44.71,71.44v5.78H37.58A29.35,29.35,0,0,0,8.25,101.83l-4.17,25a1,1,0,0,0,2,.33l4.17-25A27.36,27.36,0,0,1,30,80.21l-5.53,22.16a1,1,0,0,0,.52,1.14l7.23,3.61-3.61,7.24c-.36.72-.55.08,8.19,13.19a1,1,0,0,0,1.66-1.11l-7.8-11.71,3.8-7.61a1,1,0,0,0-.45-1.34l-7.41-3.7,5.59-22.37a31.57,31.57,0,0,1,6.63-.49l8,47.94a1,1,0,0,0,2-.33l-.85-5.1,2.38-19c.51-4.17,6.64-4.17,7.16,0l2.38,19-.85,5.1a1,1,0,0,0,2,.33l8-47.94a30.15,30.15,0,0,1,6.62.5l5.59,22.36-7.41,3.7a1,1,0,0,0-.44,1.34l3.8,7.61-7.81,11.71a1,1,0,0,0,.83,1.56c.76,0,.2.51,9-12.64.43-.65.41-.3-3.56-8.24l6-3c-2.1,17.29,16.44,29.67,31.62,21.1A21.35,21.35,0,0,0,121.18,96.19ZM72.05,36.6a8.11,8.11,0,0,0-14.52.9,7.84,7.84,0,0,0-7.38,0,8.11,8.11,0,0,0-14.52-.9c-.24,0,.39,0-4.41,0,3-4.91,5.25-9.36,5.33-16.53a14.65,14.65,0,0,0,10.39,4.31H64A13.22,13.22,0,0,1,77.17,36.58C71,36.58,72.31,36.57,72.05,36.6Zm-7-2.08a6.11,6.11,0,1,1-6.12,6.11A6.12,6.12,0,0,1,65,34.52Zm-22.36,0a6.11,6.11,0,1,1-6.11,6.11A6.12,6.12,0,0,1,42.66,34.52Zm42.69,9.16a5.09,5.09,0,0,1-5.09,5.09h-1V38.58h1A5.1,5.1,0,0,1,85.35,43.68Zm-61-24.22A13.55,13.55,0,0,1,35.71,6.05c.78-.13,3.49-4,9.65-4H64A19.35,19.35,0,0,1,83.32,21.32c0,4.87.05,9.51-3.61,15.26h-.52A15.24,15.24,0,0,0,64,22.36H46.94A12.68,12.68,0,0,1,36.38,16.7a1,1,0,0,0-1.12-.4c-.86.26-.71.79-.71,3.44,0,7.86-3,12.45-5.66,16.84H28C23.91,30.2,24.36,24.94,24.36,19.46Zm4.09,29.31h-1a5.1,5.1,0,1,1,0-10.19h1Zm2-1V38.58h4.37a8.11,8.11,0,1,0,15.91,1.24c.35-1.64,5.86-1.64,6.21,0a8.11,8.11,0,1,0,15.92-1.24h4.36v9.16a23.39,23.39,0,0,1-46.77,0ZM61,72.11v5.7l-7.13,7.13-7.13-7.13V72.12A25.69,25.69,0,0,0,61,72.11ZM49.44,94.37l-1.22-3.65,5.62-3.21,5.62,3.21-1.22,3.65A4.64,4.64,0,0,1,49.44,94.37ZM45.29,79.22c7.46,7.46,7,6.89,6.87,6.94-13.39,7.65,3.93-2.25-9.32,5.34L40.79,79.22Zm3,23.23-1.54,12.37L43.19,93.6l3.26-1.86c1,3.08,1.41,5.37,4.08,6.91A5.58,5.58,0,0,0,48.27,102.45Zm11.13,0a5.51,5.51,0,0,0-2.26-3.8c2.67-1.54,3-3.75,4.09-6.91l3.26,1.86L61,114.82Zm5.44-11c-16.06-9.19-5.81-3.32-9.37-5.37l6.91-6.91h4.5ZM77.72,80.22a27.37,27.37,0,0,1,13.42,8.51,21.26,21.26,0,0,0-8.59,10.81Zm34.39,43.28a19.32,19.32,0,1,1,7.33-26.32A19.33,19.33,0,0,1,112.11,123.5Z"/><path class="cls-23" d="M112.77,97.55c-5.77,0,1.25,12.19-8.13,12.19h-1V99.55h1a1,1,0,0,0,0-2h-4.06a1,1,0,0,0,0,2h1v10.19c-4.84,0-6.31-.85-6.48-7.15-.06-2.36-.13-5-2.68-5a1,1,0,0,0,0,2c.51,0,.63,1,.69,3.1.19,7.24,2.47,9.09,8.47,9.09v6.13h-1a1,1,0,0,0,0,2h4.06a1,1,0,0,0,0-2h-1v-6.13h1c10.52,0,6.08-12.19,8.13-12.19A1,1,0,0,0,112.77,97.55Z"/></g></svg>