<svg xmlns="http://www.w3.org/2000/svg" xmlns:xlink="http://www.w3.org/1999/xlink" viewBox="0 0 128 128"><defs><style>.cls-1{fill:url(#linear-gradient);}.cls-2{fill:#5b8dc9;}.cls-3{fill:url(#linear-gradient-2);}.cls-4{fill:url(#linear-gradient-3);}.cls-5{fill:#47566a;}</style><linearGradient id="linear-gradient" x1="64" y1="127" x2="64" y2="37.58" gradientUnits="userSpaceOnUse"><stop offset="0" stop-color="#7aa8d7"/><stop offset="1" stop-color="#96c8ea"/></linearGradient><linearGradient id="linear-gradient-2" x1="39.63" y1="127.02" x2="39.63" y2="107.26" xlink:href="#linear-gradient"/><linearGradient id="linear-gradient-3" y1="37.58" y2="1" xlink:href="#linear-gradient"/></defs><title>Meditation activity</title><g id="Meditation_activity" data-name="Meditation activity"><path class="cls-1" d="M127,61.13a5.21,5.21,0,0,1-2.42,4.41L100.32,81.15a7.3,7.3,0,0,1-3.89,1.14,7.22,7.22,0,0,1-6.09-3.37L82,66.58v19.9l17.06,1.28a8.3,8.3,0,0,1,1.22,16.36l-13.5,3.17,3.64,1.42h12.19l9.13,11a4.45,4.45,0,0,1,1,2.87A4.51,4.51,0,0,1,108.3,127h-.57a4.56,4.56,0,0,1-2-.47l-15.3-7.66-62.7-14.75a8.3,8.3,0,0,1,1.22-16.36L46,86.48V66.58L37.66,78.92a7.22,7.22,0,0,1-6.09,3.37,7.3,7.3,0,0,1-3.89-1.14L3.42,65.54a5.25,5.25,0,0,1,2.84-9.67,10.35,10.35,0,0,1,5.33,1.48L29.45,68.06,42.27,44A12.18,12.18,0,0,1,53,37.58H75A12.18,12.18,0,0,1,85.73,44l12.82,24,17.86-10.71a10.35,10.35,0,0,1,5.33-1.48A5.28,5.28,0,0,1,127,61.13Z"/><path class="cls-2" d="M46,62.53v4.06L37.68,78.9a7.18,7.18,0,0,1-10,2.23L3.45,65.53a5.25,5.25,0,0,1-2-6.46,5.27,5.27,0,0,0,2,2.4C29.55,78.26,28.7,78.21,31.59,78.21a7.2,7.2,0,0,0,6.09-3.37Z"/><path class="cls-2" d="M112.27,120.47c1.38,2.45,0,6.5-4.54,6.5-1.49,0-1,0-17.3-8.13L27.75,104.09A8.28,8.28,0,0,1,21.61,94a8.3,8.3,0,0,0,6.14,6l62.68,14.75c17.27,8.65,15.64,8.13,17.87,8.13A4.5,4.5,0,0,0,112.27,120.47Z"/><path class="cls-2" d="M124.58,65.53l-24.26,15.6a7.2,7.2,0,0,1-10-2.23L82,66.55V62.48l8.34,12.36a7.22,7.22,0,0,0,6.1,3.37c2.89,0,1.54.37,28.14-16.74a5.27,5.27,0,0,0,2-2.4A5.26,5.26,0,0,1,124.58,65.53Z"/><path class="cls-3" d="M41.24,107.26c-4.58,1.79-1.2,1.42-15.83,1.42-9.84,11.83-10.16,11.65-10.16,13.82,0,3.59,3.95,5.5,7.05,4,19.27-9.65,10-6.41,41.71-13.87"/><path class="cls-2" d="M64,112.63c-31.72,7.46-22.45,4.23-41.71,13.87-2.47,1.2-6,.24-6.86-2.76,2.68.84,4-.36,19.12-7.95L56,110.74Z"/><rect class="cls-4" x="50.28" y="1" width="27.44" height="36.58" rx="13.72"/><path class="cls-2" d="M77.72,18.86v5a13.72,13.72,0,0,1-27.44,0v-5a13.72,13.72,0,0,0,27.44,0Z"/><path class="cls-5" d="M126.17,56.71c-2.76-2.75-7.18-2.08-10.27-.22l-17,10.17L86.61,43.57a13.16,13.16,0,0,0-11.64-7h-3.6a14.7,14.7,0,0,0,7.35-12.72V14.72a14.72,14.72,0,1,0-29.44,0v9.14a14.7,14.7,0,0,0,7.35,12.72H53a13.16,13.16,0,0,0-11.64,7L29.06,66.66,12.11,56.49C8.93,54.58,4.55,54,1.83,56.71a6.23,6.23,0,0,0,1,9.67C28.53,82.89,28.27,83.29,31.57,83.29a8.14,8.14,0,0,0,6.92-3.81L45,69.85v15.7L28.86,86.76a9.3,9.3,0,0,0-1.37,18.33l10.36,2.44c-.65.26.87.18-12.46.18-.67,0,0-.53-9.89,11.31-2.78,3.29-1,9,4.77,9,1.77,0,1,.14,17.65-8.18L64,113.68l26.08,6.14C106.7,128.14,106,128,107.73,128a5.55,5.55,0,0,0,4.41-1.6,5.46,5.46,0,0,0,.37-7.38c-9.87-11.84-9.23-11.31-9.9-11.31-13.33,0-11.8.08-12.47-.18l10.37-2.44a9.3,9.3,0,0,0-1.38-18.33L83,85.55V69.85l6.49,9.6a8.16,8.16,0,0,0,6.94,3.84c3.29,0,2.2.13,28.68-16.9A6.23,6.23,0,0,0,126.17,56.71ZM51.28,23.86V14.72a12.72,12.72,0,1,1,25.44,0v9.14a12.72,12.72,0,1,1-25.44,0Zm-13.93,94c-.17,0,.88-.47-15.51,7.73-2.43,1.18-5.61-.24-5.61-3.1,0-1.69,0-1.23,9.63-12.82,12.73,0,11.83,0,12.09-.07l3.33-1.3,18.35,4.31ZM124,64.7C97.14,82,98.88,81.29,96.43,81.29a6.19,6.19,0,0,1-5.26-2.93L82.83,66a1,1,0,0,0-1.83.56v20a1,1,0,0,0,1.42.9L99,88.76c8.14.68,9.19,12.48,1.07,14.39l-13.2,3.1L66.76,98.43l7.76-3a1,1,0,0,0-.72-1.87L64,97.36,54.2,93.55a1,1,0,0,0-.72,1.86l36.58,14.23c.27.11-.48.07,12.08.07,9.41,11.28,9.63,11.1,9.63,12.82,0,2.9-3.23,4.27-5.6,3.11-16.38-8.2-15.34-7.7-15.52-7.74L28,103.15A7.3,7.3,0,0,1,29,88.76c23.2-1.74,14.44-1.15,17-1.15a1,1,0,0,0,1-1.13V66.58A1,1,0,0,0,45.17,66L36.81,78.39a6.17,6.17,0,0,1-5.24,2.9c-2.52,0-1.68.09-27.62-16.6a4.22,4.22,0,0,1-.7-6.56c2-2,5.57-1.28,7.83.08,19.51,11.7,18,11,18.64,10.81s-.56,1.7,13.43-24.51A11.18,11.18,0,0,1,53,38.58H75a11.18,11.18,0,0,1,9.88,5.93C98.65,70.37,97.65,68.85,98.28,69s-.87.89,18.65-10.81c2.2-1.33,5.75-2.16,7.82-.08A4.22,4.22,0,0,1,124,64.7Z"/></g></svg>