<svg xmlns="http://www.w3.org/2000/svg" xmlns:xlink="http://www.w3.org/1999/xlink" viewBox="0 0 128 128"><defs><style>.cls-1{fill:url(#linear-gradient);}.cls-2{fill:#c7cdd8;}.cls-3{fill:url(#linear-gradient-2);}.cls-4{fill:#5b8dc9;}.cls-5{fill:url(#linear-gradient-3);}.cls-6{fill:#8288a1;}.cls-7{fill:url(#linear-gradient-4);}.cls-8{fill:url(#linear-gradient-5);}.cls-9{fill:url(#linear-gradient-6);}.cls-10{fill:url(#linear-gradient-7);}.cls-11{fill:url(#linear-gradient-8);}.cls-12{fill:url(#linear-gradient-9);}.cls-13{fill:url(#linear-gradient-10);}.cls-14{fill:#f6b756;}.cls-15{fill:#47566a;}</style><linearGradient id="linear-gradient" x1="39.61" y1="127" x2="39.61" y2="1" gradientUnits="userSpaceOnUse"><stop offset="0" stop-color="#d4d8e1"/><stop offset="1" stop-color="#f3f4f5"/></linearGradient><linearGradient id="linear-gradient-2" x1="94.48" y1="127" x2="94.48" y2="33.52" gradientUnits="userSpaceOnUse"><stop offset="0" stop-color="#7aa8d7"/><stop offset="1" stop-color="#96c8ea"/></linearGradient><linearGradient id="linear-gradient-3" x1="94.48" y1="33.52" x2="94.48" y2="13.19" gradientUnits="userSpaceOnUse"><stop offset="0" stop-color="#949aaf"/><stop offset="1" stop-color="#c6ccda"/></linearGradient><linearGradient id="linear-gradient-4" x1="100.58" y1="110.74" x2="100.58" y2="66.03" xlink:href="#linear-gradient"/><linearGradient id="linear-gradient-5" x1="23.36" y1="37.58" x2="23.36" y2="17.26" gradientUnits="userSpaceOnUse"><stop offset="0" stop-color="#fbcc88"/><stop offset="1" stop-color="#ffe5c3"/></linearGradient><linearGradient id="linear-gradient-6" x1="55.87" y1="37.61" x2="55.87" y2="17.26" xlink:href="#linear-gradient-5"/><linearGradient id="linear-gradient-7" x1="23.36" y1="74.16" x2="23.36" y2="53.84" xlink:href="#linear-gradient-5"/><linearGradient id="linear-gradient-8" x1="53.84" y1="74.16" x2="53.84" y2="53.78" xlink:href="#linear-gradient-5"/><linearGradient id="linear-gradient-9" x1="23.36" y1="110.75" x2="23.36" y2="90.42" xlink:href="#linear-gradient-5"/><linearGradient id="linear-gradient-10" x1="53.81" y1="110.74" x2="53.81" y2="90.36" xlink:href="#linear-gradient-5"/></defs><title>Medicine</title><g id="Medicine"><path class="cls-1" d="M78.23,127H5.06A4.08,4.08,0,0,1,1,122.94V5.06A4.08,4.08,0,0,1,5.06,1h69.1a4.08,4.08,0,0,1,4.07,4.06Z"/><path class="cls-2" d="M78.23,120.9V127H5.06A4.08,4.08,0,0,1,1,122.94v-6.1a4.08,4.08,0,0,0,4.06,4.06Z"/><path class="cls-3" d="M110.74,41.65V33.52H78.23v8.13L68.71,46.4A12.2,12.2,0,0,0,62,57.31V120.9a6.1,6.1,0,0,0,6.09,6.1H120.9a6.1,6.1,0,0,0,6.1-6.1V57.31a12.2,12.2,0,0,0-6.74-10.91Z"/><path class="cls-4" d="M127,114.81v6.09a6.09,6.09,0,0,1-6.1,6.1H68.06A6.08,6.08,0,0,1,62,120.9v-6.09a6.08,6.08,0,0,0,6.09,6.09H120.9A6.08,6.08,0,0,0,127,114.81Z"/><rect class="cls-5" x="74.16" y="13.19" width="40.65" height="20.32"/><rect class="cls-6" x="74.16" y="27.42" width="40.65" height="6.1"/><rect class="cls-7" x="74.16" y="66.03" width="52.84" height="44.71"/><rect class="cls-2" x="74.16" y="102.61" width="52.84" height="8.13"/><path class="cls-8" d="M33.52,27.42A10.18,10.18,0,0,1,16.9,35.28c-7.26-6-3.14-18,6.45-18A10.17,10.17,0,0,1,33.52,27.42Z"/><path class="cls-9" d="M66,27.42c0,8.63-10.19,13.29-16.61,7.86-7.29-6.05-3.11-18,6.45-18A10.16,10.16,0,0,1,66,27.42Z"/><path class="cls-10" d="M33.52,64A10.18,10.18,0,0,1,16.9,71.86c-7.26-6-3.14-18,6.45-18A10.17,10.17,0,0,1,33.52,64Z"/><path class="cls-11" d="M62.05,55.93,62,72.13a10.19,10.19,0,0,1-14.59-2.52C41.09,59.88,53.21,49.09,62.05,55.93Z"/><path class="cls-12" d="M33.52,100.58a10.18,10.18,0,0,1-16.62,7.86c-7.2-5.84-3.25-18,6.45-18A10.17,10.17,0,0,1,33.52,100.58Z"/><path class="cls-13" d="M62,92.45v16.26a10.19,10.19,0,0,1-14.59-2.52C41.12,96.51,53.11,85.73,62,92.45Z"/><path class="cls-14" d="M23.35,37.58a10.16,10.16,0,0,1-10-12.17c2.23,10.76,17.68,10.77,19.91,0A10.16,10.16,0,0,1,23.35,37.58Z"/><path class="cls-14" d="M55.87,37.58a10.17,10.17,0,0,1-10-12.17c2.23,10.76,17.69,10.77,19.92,0A10.16,10.16,0,0,1,55.87,37.58Z"/><path class="cls-14" d="M23.35,74.16A10.16,10.16,0,0,1,13.4,62c2.23,10.76,17.68,10.77,19.91,0A10.16,10.16,0,0,1,23.35,74.16Z"/><path class="cls-14" d="M62,72.13C54.56,77.75,44,71,45.91,62A10.18,10.18,0,0,0,62,68.06C62.06,49.49,62.06,53.33,62,72.13Z"/><path class="cls-14" d="M23.35,110.74a10.16,10.16,0,0,1-10-12.17c2.23,10.76,17.68,10.77,19.91,0A10.16,10.16,0,0,1,23.35,110.74Z"/><path class="cls-14" d="M62,104.65v4.06c-7.41,5.62-18-1.15-16.06-10.14A10.19,10.19,0,0,0,62,104.65Z"/><path class="cls-2" d="M23.35,41.65a10.17,10.17,0,0,1-10-12.18c2.23,10.76,17.68,10.78,19.91,0A10.16,10.16,0,0,1,23.35,41.65Z"/><path class="cls-2" d="M55.87,41.65a10.17,10.17,0,0,1-10-12.18c2.23,10.76,17.69,10.78,19.92,0A10.17,10.17,0,0,1,55.87,41.65Z"/><path class="cls-2" d="M23.35,78.23a10.17,10.17,0,0,1-10-12.18c2.23,10.76,17.68,10.78,19.91,0A10.16,10.16,0,0,1,23.35,78.23Z"/><path class="cls-2" d="M62,76.19C54.56,81.82,44,75,45.91,66.05A10.18,10.18,0,0,0,62,72.13C62.06,53.55,62.06,57.39,62,76.19Z"/><path class="cls-2" d="M23.35,114.81a10.17,10.17,0,0,1-10-12.18c2.23,10.77,17.68,10.78,19.91,0A10.16,10.16,0,0,1,23.35,114.81Z"/><path class="cls-2" d="M62,108.71v4.06c-7.41,5.63-18-1.15-16.06-10.14A10.18,10.18,0,0,0,62,108.71Z"/><rect class="cls-4" x="78.23" y="33.52" width="32.52" height="8.13"/><path class="cls-15" d="M120.71,45.51l-9-4.48V34.52h3.07a1,1,0,0,0,1-1V13.19a1,1,0,0,0-1-1H79.23V5.06A5.07,5.07,0,0,0,74.16,0H5.06A5.07,5.07,0,0,0,0,5.06V122.94A5.07,5.07,0,0,0,5.06,128H120.9a7.1,7.1,0,0,0,7.1-7.1V57.31A13.12,13.12,0,0,0,120.71,45.51Zm-6.9-13H75.16V14.19h38.65ZM5.06,126A3.07,3.07,0,0,1,2,122.94V5.06A3.07,3.07,0,0,1,5.06,2h69.1a3.07,3.07,0,0,1,3.07,3.06v7.13H74.16a1,1,0,0,0-1,1V33.52a1,1,0,0,0,1,1h3.07V41l-9,4.48a13.15,13.15,0,0,0-6.94,8.76A11.16,11.16,0,1,0,61,73.93V90.65a11.17,11.17,0,1,0,0,19.87V120.9a7.06,7.06,0,0,0,2.17,5.1ZM59.23,95.81l-10.5,10.5a9.17,9.17,0,0,1,7.14-14.89A9.07,9.07,0,0,1,61,93v15.22a9.13,9.13,0,0,1-10.83-.47l10.5-10.5A1,1,0,0,0,59.23,95.81Zm0-36.58-10.5,10.5A9.16,9.16,0,0,1,61,56.41c0,.76,0-.15,0,15.2a9.11,9.11,0,0,1-10.82-.47l10.49-10.5A1,1,0,0,0,59.23,59.23ZM120.9,126H68.06A5.1,5.1,0,0,1,63,120.9V57.31a11.12,11.12,0,0,1,6.19-10l9.51-4.76c.79-.4.56-.6.56-8h30.51v7.13c0,.87,0,.63,10.07,5.65a11.12,11.12,0,0,1,6.19,10V65H74.16a1,1,0,0,0-1,1v44.71a1,1,0,0,0,1,1H126v9.16A5.11,5.11,0,0,1,120.9,126Zm5.1-16.26H75.16V67H126Z"/><path class="cls-15" d="M90.42,79.23c2,0-2.38,12.19,8.13,12.19h1v6.13h-1a1,1,0,0,0,0,2h4.06a1,1,0,0,0,0-2h-1V91.42c6,0,8.28-1.85,8.48-9.09.06-2.15.17-3.1.68-3.1a1,1,0,0,0,0-2c-2.55,0-2.62,2.68-2.68,5-.17,6.32-1.66,7.15-6.48,7.15V79.23h1a1,1,0,0,0,0-2H98.55a1,1,0,0,0,0,2h1V89.42h-1c-9.35,0-2.38-12.19-8.13-12.19A1,1,0,0,0,90.42,79.23Z"/><path class="cls-15" d="M23.35,16.26A11.16,11.16,0,1,0,34.52,27.42,11.17,11.17,0,0,0,23.35,16.26Zm-5.72,18.3,10.5-10.5a1,1,0,0,0-1.42-1.41l-10.5,10.5a9.17,9.17,0,1,1,1.42,1.41Z"/><path class="cls-15" d="M55.87,38.58A11.16,11.16,0,1,0,44.71,27.42,11.17,11.17,0,0,0,55.87,38.58Zm0-20.32a9.16,9.16,0,1,1-5.73,16.3l10.5-10.5a1,1,0,0,0-1.41-1.41l-10.5,10.5A9.17,9.17,0,0,1,55.87,18.26Z"/><path class="cls-15" d="M23.35,52.84A11.16,11.16,0,1,0,34.52,64,11.18,11.18,0,0,0,23.35,52.84Zm-5.72,18.3,10.5-10.5a1,1,0,0,0-1.42-1.41l-10.5,10.5a9.17,9.17,0,1,1,1.42,1.41Z"/><path class="cls-15" d="M23.35,89.42a11.16,11.16,0,1,0,11.17,11.16A11.18,11.18,0,0,0,23.35,89.42Zm-5.72,18.3,10.5-10.5a1,1,0,0,0-1.42-1.41l-10.5,10.5a9.17,9.17,0,1,1,1.42,1.41Z"/></g></svg>