<svg xmlns="http://www.w3.org/2000/svg" xmlns:xlink="http://www.w3.org/1999/xlink" viewBox="0 0 128 128"><defs><style>.cls-1{fill:url(#linear-gradient);}.cls-2{fill:#eab39b;}.cls-3{fill:url(#linear-gradient-2);}.cls-4{fill:#d861b0;}.cls-5{fill:#47566a;}</style><linearGradient id="linear-gradient" x1="64" y1="126.98" x2="64" y2="0.98" gradientUnits="userSpaceOnUse"><stop offset="0" stop-color="#f2c4b0"/><stop offset="1" stop-color="#ffe3d7"/></linearGradient><linearGradient id="linear-gradient-2" x1="59.94" y1="70.11" x2="59.94" y2="17.31" gradientUnits="userSpaceOnUse"><stop offset="0" stop-color="#db72b8"/><stop offset="1" stop-color="#d88bc2"/></linearGradient></defs><title>Mental breakdown</title><g id="Mental_breakdown" data-name="Mental breakdown"><path class="cls-1" d="M112.75,71.82a5.34,5.34,0,0,1-4.29,5.24l-5.87,1.18c0,7-.14,5.87.37,6.64a3.52,3.52,0,0,1-.5,4.54c-1.25,1.21-2.55,1-4.42,1a3.58,3.58,0,0,1,2.52,6.1c0,6,.65,10.32-3.65,14.62a12.44,12.44,0,0,1-12.25,3.17l-12.53-3.58V127H23.58C25,98,27,87.7,20.21,71.37a62.56,62.56,0,0,1-5-24.68c0-13.52,4.27-24.24,12.92-32.86,26.66-26.53,76.45-9.89,76.45,30.89,0,6.06.16,6.91-.48,8.08a5.47,5.47,0,0,0,.34,5.75C112.14,69.24,112.75,69.52,112.75,71.82Z"/><path class="cls-2" d="M59.94,29.48C51.19,14.9,28.73,21.11,28.73,38.1c0,19.21,31.21,36,31.21,36s31.2-16.8,31.2-36C91.14,21.12,68.69,14.89,59.94,29.48Z"/><path class="cls-3" d="M59.94,25.48C51.19,10.9,28.73,17.11,28.73,34.1c0,19.21,31.21,36,31.21,36s31.2-16.8,31.2-36C91.14,17.12,68.69,10.89,59.94,25.48Z"/><path class="cls-4" d="M87.87,45.27c-8,14.12-27.93,24.84-27.93,24.84S40,59.39,32,45.27A36.37,36.37,0,0,0,87.87,45.27Z"/><path class="cls-2" d="M72.13,120.89V127H23.58s.12-2.41.28-6.09Z"/><path class="cls-5" d="M92.16,34.07c0-17.21-22.16-24.4-32.22-10.44-10.07-14-32.23-6.76-32.23,10.44,0,19.59,30.46,36.21,31.75,36.91a1.16,1.16,0,0,0,.72.09C63.06,70.34,92.16,52.43,92.16,34.07Zm-2,0c0,16.37-24.07,31.3-29.57,34.51L59,62.15l3.82-5.72A1,1,0,0,0,62.42,55l-3.06-1.53L62.8,48.3A1,1,0,0,0,62.67,47l-3.48-3.48c3.87-5.81,3.9-5.63,3.74-6.23s-.07-.41-7.57-4.16c7.18-9.58,5.1-6.64,5.43-7.2C69.07,12.17,90.16,18.16,90.16,34.07ZM58.7,25.37c-6,8.05-6,7.73-5.83,8.38s-.08.36,7.64,4.22l-3.44,5.15a1,1,0,0,0,.13,1.26l3.48,3.49-3.61,5.41a1,1,0,0,0,.39,1.45l3,1.53-3.44,5.15c-.34.51-.27.29,1.32,6.64C1.31,33.92,44.69,4.12,58.7,25.37Z"/><path class="cls-5" d="M74.35,26.39A7.69,7.69,0,0,1,82,34.07a1,1,0,0,0,1,1c2.84,0,0-10.68-8.68-10.68A1,1,0,0,0,74.35,26.39Z"/><path class="cls-5" d="M112.59,68.12,105.32,58A4.41,4.41,0,0,1,105,53.4c.9-1.8.68-2.91.68-8.71C105.65,21.62,87.79,0,59.12,0A45,45,0,0,0,14.23,44.69c0,9,.86,17.05,4.9,26.73A61.71,61.71,0,0,1,24,98.92c-.65,12.08-1.4,27.87-1.41,28a1,1,0,0,0,2,.1C25.86,98.77,28.16,87.9,21.1,71,17,61.18,16.2,53.54,16.23,44.7A43,43,0,0,1,59.12,2c27.25,0,44.53,20.43,44.53,42.69,0,6,.15,6.57-.47,7.81a6.4,6.4,0,0,0,.52,6.61L111,69.28a4.35,4.35,0,0,1-2.68,6.79l-5.86,1.18a1,1,0,0,0-.81,1c0,6.56-.06,6.3.17,6.65.6.89,1.21,1.83.49,3.18A2.53,2.53,0,0,1,100,89.42H92.45a1,1,0,0,0,0,2h5.61a2.57,2.57,0,0,1,1.81,4.39c-.4.41-.29.35-.29,6.52A11.49,11.49,0,0,1,88.1,113.81c-2.14,0-2.19-.17-15.7-4a1,1,0,0,0-1.27,1V127a1,1,0,0,0,2,0V112.07c11.4,3.26,12.36,3.74,15,3.74a13.5,13.5,0,0,0,13.48-13.48V96.9a4.55,4.55,0,0,0,0-5.77,4.58,4.58,0,0,0,2.18-6.82c-.28-.41-.2.44-.2-5.26l5.06-1A6.35,6.35,0,0,0,112.59,68.12Z"/></g></svg>