<svg xmlns="http://www.w3.org/2000/svg" xmlns:xlink="http://www.w3.org/1999/xlink" viewBox="0 0 128 128"><defs><style>.cls-1{fill:url(#linear-gradient);}.cls-2{fill:#5b8dc9;}.cls-3{fill:url(#linear-gradient-2);}.cls-4{fill:url(#linear-gradient-3);}.cls-5{fill:#eab39b;}.cls-6{fill:#47566a;}</style><linearGradient id="linear-gradient" x1="64" y1="80.25" x2="64" y2="1.02" gradientUnits="userSpaceOnUse"><stop offset="0" stop-color="#7aa8d7"/><stop offset="1" stop-color="#96c8ea"/></linearGradient><linearGradient id="linear-gradient-2" x1="32.5" y1="126.99" x2="32.5" y2="55.87" gradientUnits="userSpaceOnUse"><stop offset="0" stop-color="#f2c4b0"/><stop offset="1" stop-color="#ffe3d7"/></linearGradient><linearGradient id="linear-gradient-3" x1="95.48" y1="126.99" x2="95.48" y2="55.87" xlink:href="#linear-gradient-2"/></defs><title>Mental health care</title><g id="Mental_health_care" data-name="Mental health care"><path class="cls-1" d="M64,13.27C50.87-8.61,17.17.71,17.17,26.21c0,28.82,46.83,54,46.83,54s46.83-25.22,46.83-54C110.83.72,77.13-8.62,64,13.27Z"/><path class="cls-2" d="M107.67,39.59C97.15,62.41,64,80.25,64,80.25S30.85,62.41,20.33,39.59C41.53,69.67,86.48,69.66,107.67,39.59Z"/><path class="cls-3" d="M64,112.77V127H41.65c1-5.81-.54-14.13-6.1-18.29-8.13-6.09-14.23-12.19-20.32-18.29S1,64,1,59.93a4.06,4.06,0,0,1,7.66-1.87c9,21.26,11.08,22.64,30.91,34.37-.3-.35-2.46-2.81-8.09-12.18-6.09-10.16-.24-11.6,4.07-10.16,6.12,2,10.2,14.29,16.26,18.29C58,92.53,64,104.86,64,112.77Z"/><path class="cls-4" d="M127,59.93c0,4.06-8.13,24.39-14.23,30.48s-12.19,12.2-20.32,18.29c-5.5,4.12-7.14,12.19-6.1,18.29H64c0-14.25-.28-15.57.71-19.53,1.75-7.39,6.61-15.83,11.48-19.08,6-4,10.17-16.25,16.26-18.29,4.31-1.44,10.16,0,4.07,10.16-5.63,9.37-7.79,11.83-8.09,12.18,19.88-11.75,22-13.13,30.91-34.37A4.06,4.06,0,0,1,127,59.93Z"/><path class="cls-5" d="M64,118.87a7.36,7.36,0,0,1-6.58,4.06h-1.9a18.47,18.47,0,0,1-15.3-8.13A24.28,24.28,0,0,1,41.65,127H64C64,117.32,63.9,119.07,64,118.87Z"/><path class="cls-5" d="M87.78,114.8a18.47,18.47,0,0,1-15.3,8.13c-2.6,0-6.37.16-8.48-4.06V127H86.35A24.26,24.26,0,0,1,87.78,114.8Z"/><path class="cls-6" d="M118.42,57.68c-8.73,20.84-11.17,22-26.2,31.28,1.26-1.88,2.94-4.51,5.15-8.19,2.92-4.86,3.54-8.4,1.85-10.5s-4.84-1.87-7.08-1.12c-6.55,2.18-10.62,14.48-16.5,18.4C70.79,90.79,66,98.79,64,106.16c-2-7.37-6.79-15.37-11.64-18.61-5.88-3.92-10-16.22-16.49-18.4-2.25-.76-5.46-.91-7.09,1.12s-1.07,5.64,1.85,10.5c2.21,3.68,3.89,6.31,5.15,8.19C20.51,79.52,18.37,78.55,9.55,57.61A5.06,5.06,0,0,0,0,59.94c0,4.46,8.23,24.9,14.52,31.19,6,6,12.24,12.24,20.43,18.38,7.53,5.65,5.73,17.21,5.71,17.33a1,1,0,0,0,2,.32c.09-.52,2-12.86-6.48-19.25-8.08-6.06-14.25-12.23-20.22-18.2S2,63.5,2,59.94a3.07,3.07,0,0,1,5.74-1.49C10.9,66,14.58,74.93,20.62,81,24,84.3,38.91,93.2,39.06,93.29a1,1,0,0,0,1.26-1.52c-.55-.63-2.77-3.36-8-12-2.34-3.9-3.07-6.89-2-8.22.92-1.15,3.12-1.07,4.89-.48,5.56,1.86,9.83,14,16,18.18C57.07,93.1,63,105,63,112.77V127a1,1,0,0,0,2,0V112.77C65,105,70.93,93.1,76.75,89.22,83,85.08,87.2,72.9,92.77,71c1.77-.59,4-.67,4.89.48,1.07,1.33.34,4.32-2,8.22-5.21,8.67-7.43,11.4-8,12a1,1,0,0,0,1.26,1.52c.15-.09,15.11-9,18.44-12.33,6-6,9.68-14.82,12.85-22.44A3.06,3.06,0,0,1,126,59.94c0,3.56-7.91,23.75-13.93,29.77s-12.14,12.14-20.22,18.2c-8.52,6.39-6.57,18.73-6.48,19.25a1,1,0,0,0,2-.32c0-.12-1.82-11.68,5.71-17.33,8.19-6.14,14.41-12.36,20.43-18.38C119.77,84.84,128,64.4,128,59.94A5.06,5.06,0,0,0,118.42,57.68Z"/><path class="cls-6" d="M63.53,81.14a1,1,0,0,0,.94,0c1.94-1,47.36-25.84,47.36-54.92A26.2,26.2,0,0,0,64,11.42a26.2,26.2,0,0,0-47.83,14.8C16.17,55.3,61.59,80.1,63.53,81.14ZM42.38,2A24,24,0,0,1,63.14,13.79a1,1,0,0,0,1.72,0,24.2,24.2,0,0,1,45,12.43c0,26.35-40.93,50.14-45.83,52.89-4.9-2.74-45.83-26.53-45.83-52.89A24.24,24.24,0,0,1,42.38,2Z"/><path class="cls-6" d="M85.62,10.13a16.11,16.11,0,0,1,16.09,16.09,1,1,0,0,0,2,0A18.11,18.11,0,0,0,85.62,8.13,1,1,0,0,0,85.62,10.13Z"/><path class="cls-6" d="M45.71,24.35c6.61,0,.1,13.08,6.11,19.14,3,3,7.28,2.81,11.18,2.81V58.94H60.34a1,1,0,0,0,0,2h7.32a1,1,0,0,0,0-2H65V46.3c4,0,8.19.21,11.18-2.81,5.95-6-.45-19.14,6.11-19.14a1,1,0,0,0,1-1c0-1.72-3.28-1-4.57.31-3.67,3.69.47,14-4,18.42C72.3,44.56,68.33,44.3,65,44.3V24.35h2.66a1,1,0,0,0,0-2H60.34a1,1,0,0,0,0,2H63V44.3c-9,0-12.12-.76-12-12.35,0-4.94-.09-9.6-5.27-9.6A1,1,0,0,0,45.71,24.35Z"/></g></svg>