<svg xmlns="http://www.w3.org/2000/svg" xmlns:xlink="http://www.w3.org/1999/xlink" viewBox="0 0 128 128"><defs><style>.cls-1{fill:url(#linear-gradient);}.cls-2{fill:#f6b756;}.cls-3{fill:url(#linear-gradient-2);}.cls-4{fill:#5b8dc9;}.cls-5{fill:url(#linear-gradient-3);}.cls-6{fill:url(#linear-gradient-4);}.cls-7{fill:#7ece67;}.cls-8{fill:#47566a;}</style><linearGradient id="linear-gradient" x1="108.7" y1="94.48" x2="108.7" y2="57.9" gradientUnits="userSpaceOnUse"><stop offset="0" stop-color="#fbcc88"/><stop offset="1" stop-color="#ffe5c3"/></linearGradient><linearGradient id="linear-gradient-2" x1="64" y1="33.52" x2="64" y2="1.01" gradientUnits="userSpaceOnUse"><stop offset="0" stop-color="#7aa8d7"/><stop offset="1" stop-color="#96c8ea"/></linearGradient><linearGradient id="linear-gradient-3" x1="64" y1="126.99" x2="64" y2="33.52" xlink:href="#linear-gradient-2"/><linearGradient id="linear-gradient-4" x1="19.3" y1="94.48" x2="19.3" y2="57.9" gradientUnits="userSpaceOnUse"><stop offset="0" stop-color="#8cdd79"/><stop offset="1" stop-color="#d4e6b6"/></linearGradient></defs><title>Mood</title><g id="Mood"><circle class="cls-1" cx="108.7" cy="76.19" r="18.29"/><path class="cls-2" d="M108.7,94.48A18.27,18.27,0,0,1,90.54,74.16a18.28,18.28,0,0,0,36.33,0A18.28,18.28,0,0,1,108.7,94.48Z"/><path class="cls-3" d="M64,33.52A12.19,12.19,0,0,1,51.81,21.33V13.2a12.19,12.19,0,1,1,24.38,0v8.13A12.19,12.19,0,0,1,64,33.52Z"/><path class="cls-4" d="M76.19,17.26v4.07a12.19,12.19,0,1,1-24.38,0V17.26a12.19,12.19,0,1,0,24.38,0Z"/><path class="cls-5" d="M118.84,39.13a5.27,5.27,0,0,1-5.34,4.55H80.26v73.15l5.06,1.26A4,4,0,0,1,88.38,122v5H72.13c-.93-5.61.39,2.3-8.13-48.77L57.9,127H39.62v-5a4,4,0,0,1,3.06-3.94l5.06-1.26V43.68H14.22a5.08,5.08,0,0,1-5.06-5.61,5.27,5.27,0,0,1,5.34-4.55h99.28A5.08,5.08,0,0,1,118.84,39.13Z"/><polygon class="cls-4" points="39.62 122.93 58.41 122.93 57.9 126.99 39.62 126.99 39.62 122.93"/><polygon class="cls-4" points="88.38 122.93 88.38 126.99 72.13 126.99 71.46 122.93 88.38 122.93"/><circle class="cls-6" cx="19.3" cy="76.19" r="18.29"/><path class="cls-7" d="M19.3,94.48A18.28,18.28,0,0,1,1.13,74.16a18.28,18.28,0,0,0,36.33,0A18.27,18.27,0,0,1,19.3,94.48Z"/><path class="cls-8" d="M20.29,57V45.71a1,1,0,0,0-2,0V57a19.29,19.29,0,1,0,2,0Zm-1,36.53A17.29,17.29,0,1,1,36.58,76.19,17.31,17.31,0,0,1,19.29,93.48Z"/><path class="cls-8" d="M12.83,84a1,1,0,0,0,1.42,1.42,7.13,7.13,0,0,1,10.08,0A1,1,0,0,0,25.75,84,9.17,9.17,0,0,0,12.83,84Z"/><path class="cls-8" d="M109.71,57V45.71a1,1,0,0,0-2,0V57a19.29,19.29,0,1,0,2,0Zm-1,36.53A17.29,17.29,0,1,1,126,76.19,17.31,17.31,0,0,1,108.71,93.48Z"/><path class="cls-8" d="M113.75,83.62a7.14,7.14,0,0,1-10.08,0A1,1,0,0,0,102.25,85a9.15,9.15,0,0,0,12.92,0A1,1,0,0,0,113.75,83.62Z"/><path class="cls-8" d="M99.58,72.13v2a1,1,0,0,0,2,0v-2A1,1,0,0,0,99.58,72.13Z"/><path class="cls-8" d="M115.84,72.13v2a1,1,0,0,0,2,0v-2A1,1,0,0,0,115.84,72.13Z"/><path class="cls-8" d="M12.75,71.23l-4.07,2a1,1,0,0,0,.45,1.89c.34,0,.17,0,4.51-2.14A1,1,0,0,0,12.75,71.23Z"/><path class="cls-8" d="M29.9,73.27l-4.07-2A1,1,0,0,0,24.94,73l4.06,2A1,1,0,0,0,29.9,73.27Z"/><path class="cls-8" d="M85.55,117.13l-4.29-1.07V44.68H113.5a6.3,6.3,0,0,0,6.34-5.46,6.08,6.08,0,0,0-6-6.7H71a13.18,13.18,0,0,0,6.24-11.2V13.19a13.19,13.19,0,1,0-26.38,0v8.13a13.18,13.18,0,0,0,6.24,11.2H14.5a6.08,6.08,0,1,0-.29,12.16H46.74v71.38l-4.29,1.07A5.07,5.07,0,0,0,38.61,122v5a1,1,0,0,0,1,1H57.9a1,1,0,0,0,1-.88l5.24-42,7,42a1,1,0,0,0,1,.84H88.39a1,1,0,0,0,1-1v-5A5.07,5.07,0,0,0,85.55,117.13ZM52.81,21.32V13.19a11.19,11.19,0,1,1,22.38,0v8.13a11.19,11.19,0,1,1-22.38,0ZM87.39,126H73L65,78.06a1,1,0,0,0-2,0L57,126H40.61v-4a3.07,3.07,0,0,1,2.32-3l5-1.26a1,1,0,0,0,.76-1V43.68a1,1,0,0,0-1-1H14.21a4.09,4.09,0,1,1,.29-8.16h99.29a4.09,4.09,0,1,1-.29,8.16H80.26a1,1,0,0,0-1,1v73.16a1,1,0,0,0,.76,1l5,1.26a3.07,3.07,0,0,1,2.32,3Z"/><path class="cls-8" d="M66,24.39H62a1,1,0,0,0,0,2H66A1,1,0,0,0,66,24.39Z"/></g></svg>