<svg xmlns="http://www.w3.org/2000/svg" xmlns:xlink="http://www.w3.org/1999/xlink" viewBox="0 0 128 128"><defs><style>.cls-1{fill:url(#linear-gradient);}.cls-2{fill:#5b8dc9;}.cls-3{fill:url(#linear-gradient-2);}.cls-4{fill:url(#linear-gradient-3);}.cls-5{fill:url(#linear-gradient-4);}.cls-6{fill:url(#linear-gradient-5);}.cls-7{fill:#8288a1;}.cls-8{fill:url(#linear-gradient-6);}.cls-9{fill:url(#linear-gradient-7);}.cls-10{fill:url(#linear-gradient-8);}.cls-11{fill:url(#linear-gradient-9);}.cls-12{fill:url(#linear-gradient-10);}.cls-13{fill:url(#linear-gradient-11);}.cls-14{fill:url(#linear-gradient-12);}.cls-15{fill:#47566a;}</style><linearGradient id="linear-gradient" x1="64" y1="92.44" x2="64" y2="43.67" gradientUnits="userSpaceOnUse"><stop offset="0" stop-color="#7aa8d7"/><stop offset="1" stop-color="#96c8ea"/></linearGradient><linearGradient id="linear-gradient-2" x1="63.99" y1="126.99" x2="63.99" y2="92.44" xlink:href="#linear-gradient"/><linearGradient id="linear-gradient-3" x1="64" y1="126.99" x2="64" y2="106.67" gradientUnits="userSpaceOnUse"><stop offset="0" stop-color="#da5466"/><stop offset="1" stop-color="#e87092"/></linearGradient><linearGradient id="linear-gradient-4" x1="87.37" y1="76.18" x2="87.37" y2="59.93" gradientUnits="userSpaceOnUse"><stop offset="0" stop-color="#949aaf"/><stop offset="1" stop-color="#c6ccda"/></linearGradient><linearGradient id="linear-gradient-5" x1="40.63" y1="76.18" x2="40.63" y2="59.93" gradientTransform="translate(81.25 136.11) rotate(-180)" xlink:href="#linear-gradient-4"/><linearGradient id="linear-gradient-6" x1="5.06" y1="104.65" x2="5.06" y2="96.52" gradientUnits="userSpaceOnUse"><stop offset="0" stop-color="#fbcc88"/><stop offset="1" stop-color="#ffe5c3"/></linearGradient><linearGradient id="linear-gradient-7" x1="114.81" y1="88.39" x2="114.81" y2="80.26" xlink:href="#linear-gradient-6"/><linearGradient id="linear-gradient-8" x1="59.94" y1="25.39" x2="59.94" y2="17.26" xlink:href="#linear-gradient-6"/><linearGradient id="linear-gradient-9" x1="98.55" y1="41.65" x2="98.55" y2="33.52" xlink:href="#linear-gradient-6"/><linearGradient id="linear-gradient-10" x1="116.84" y1="35.55" x2="116.84" y2="27.42" xlink:href="#linear-gradient-6"/><linearGradient id="linear-gradient-11" x1="11.16" y1="53.84" x2="11.16" y2="45.71" xlink:href="#linear-gradient-6"/><linearGradient id="linear-gradient-12" x1="29.45" y1="47.74" x2="29.45" y2="39.61" xlink:href="#linear-gradient-6"/></defs><title>Music Healing</title><g id="Music_Healing" data-name="Music Healing"><path class="cls-1" d="M64,92.44A18.29,18.29,0,0,1,45.71,74.15V62a18.29,18.29,0,1,1,36.57,0V74.15A18.28,18.28,0,0,1,64,92.44Z"/><path class="cls-2" d="M82.28,70.09v4.06a18.29,18.29,0,1,1-36.57,0V70.09a18.29,18.29,0,1,0,36.57,0Z"/><path class="cls-3" d="M96.51,112.76V127h-65V112.76A20.33,20.33,0,0,1,51.8,92.44H76.19A20.32,20.32,0,0,1,96.51,112.76Z"/><path class="cls-4" d="M64,109.81a6.47,6.47,0,0,0-12,3.32C52,120.52,64,127,64,127s12-6.47,12-13.86A6.46,6.46,0,0,0,64,109.81Z"/><path class="cls-5" d="M82.28,59.93h6.1A4.06,4.06,0,0,1,92.45,64v8.13a4.06,4.06,0,0,1-4.06,4.06h-6.1a0,0,0,0,1,0,0V59.93A0,0,0,0,1,82.28,59.93Z"/><path class="cls-6" d="M35.55,59.93h6.1A4.06,4.06,0,0,1,45.71,64v8.13a4.06,4.06,0,0,1-4.06,4.06h-6.1a0,0,0,0,1,0,0V59.93A0,0,0,0,1,35.55,59.93Z" transform="translate(81.25 136.11) rotate(180)"/><path class="cls-7" d="M92.45,68.06v4.06a4.07,4.07,0,0,1-4.07,4.06h-6.1V72.12h6.1A4.08,4.08,0,0,0,92.45,68.06Z"/><path class="cls-7" d="M45.71,72.12v4.06h-6.1a4.07,4.07,0,0,1-4.06-4.06V68.06a4.08,4.08,0,0,0,4.06,4.06Z"/><circle class="cls-8" cx="5.06" cy="100.58" r="4.06"/><circle class="cls-9" cx="114.81" cy="84.32" r="4.06"/><circle class="cls-10" cx="59.94" cy="21.32" r="4.06"/><circle class="cls-11" cx="98.55" cy="37.58" r="4.06"/><circle class="cls-12" cx="116.84" cy="31.48" r="4.06"/><circle class="cls-13" cx="11.16" cy="49.77" r="4.06"/><circle class="cls-14" cx="29.45" cy="43.68" r="4.06"/><path class="cls-15" d="M42.68,110.74V127a1,1,0,0,0,2,0V110.74A1,1,0,0,0,42.68,110.74Z"/><path class="cls-15" d="M83.32,110.74V127a1,1,0,0,0,2,0V110.74A1,1,0,0,0,83.32,110.74Z"/><path class="cls-15" d="M76.19,91.45H72.5A19.31,19.31,0,0,0,83,77.19h5.36a5.07,5.07,0,0,0,5.06-5.06V64a5.07,5.07,0,0,0-4.09-5,25.38,25.38,0,0,0-50.72,0,5.07,5.07,0,0,0-4.09,5v8.13a5.07,5.07,0,0,0,5.06,5.06H45A19.31,19.31,0,0,0,55.5,91.45H51.81a21.35,21.35,0,0,0-21.33,21.32V127a1,1,0,0,0,2,0V112.77A19.35,19.35,0,0,1,51.81,93.45H76.19a19.35,19.35,0,0,1,19.33,19.32V127a1,1,0,0,0,2,0V112.77A21.35,21.35,0,0,0,76.19,91.45ZM91.45,64v8.13a3.06,3.06,0,0,1-3.06,3.06h-5.1V60.94h5.1A3.06,3.06,0,0,1,91.45,64ZM64,36.55A23.41,23.41,0,0,1,87.36,58.94H83a19.27,19.27,0,0,0-38.06,0H40.64A23.41,23.41,0,0,1,64,36.55ZM44.71,75.19h-5.1a3.06,3.06,0,0,1-3.06-3.06V64a3.06,3.06,0,0,1,3.06-3.06h5.1Zm2-1V62a17.29,17.29,0,0,1,34.58,0V74.16a17.29,17.29,0,0,1-34.58,0Z"/><path class="cls-15" d="M64,108.15a7.47,7.47,0,0,0-13,5c0,7.9,12,14.46,12.54,14.74a1,1,0,0,0,.94,0C65,127.6,77,121,77,113.14A7.47,7.47,0,0,0,64,108.15Zm0,17.7c-21.55-12.56-5.6-23.41-.86-15.51a1,1,0,0,0,1.72,0C69.58,102.46,85.59,113.24,64,125.85Z"/><path class="cls-15" d="M67.6,81.83a5.09,5.09,0,0,1-7.2,0A1,1,0,0,0,59,83.24a7.1,7.1,0,0,0,10,0A1,1,0,0,0,67.6,81.83Z"/><path class="cls-15" d="M17.71,83.43C8.63,78.89,9.44,79.22,9,79.29c-1.22.18-.86.3-.86,17.29a5,5,0,1,0,2,4V81.88l6.68,3.34A1,1,0,0,0,17.71,83.43ZM5.06,103.65a3.07,3.07,0,1,1,3.07-3.07A3.07,3.07,0,0,1,5.06,103.65Z"/><path class="cls-15" d="M119.9,27.48a5,5,0,1,0,2,4c0-22.06.18-20.7-.41-21.13s.7-.67-19.19,6a1,1,0,0,0-.69,1V33.58a5,5,0,1,0,2,4V18l16.29-5.43ZM98.55,40.65a3.07,3.07,0,1,1,3.06-3.07A3.08,3.08,0,0,1,98.55,40.65Zm18.29-6.1a3.07,3.07,0,1,1,3.06-3.07A3.08,3.08,0,0,1,116.84,34.55Z"/><path class="cls-15" d="M127.45,67.17c-8.34-4.17-8.72-4.69-9.39-3.73-.27.39-.19-1-.19,16.88a5,5,0,1,0,2,4V65.62L126.55,69A1,1,0,0,0,127.45,67.17ZM114.81,87.39a3.07,3.07,0,1,1,3.06-3.07A3.08,3.08,0,0,1,114.81,87.39Z"/><path class="cls-15" d="M59.94,26.39A5.07,5.07,0,0,0,65,21.32V2.62c7.1,3.55,6.78,3.44,7.13,3.44a1,1,0,0,0,.45-1.89C64.14,0,63.86-.52,63.19.44c-.27.39-.19-1-.19,16.88a5.06,5.06,0,1,0-3.06,9.07Zm0-8.13a3.07,3.07,0,1,1-3.07,3.06A3.06,3.06,0,0,1,59.94,18.26Z"/><path class="cls-15" d="M34.52,43.68c0-22.07.18-20.71-.42-21.14s.71-.67-19.19,6a1,1,0,0,0-.68.95V45.77a5,5,0,1,0,2,4V30.17l16.29-5.43V39.67a5,5,0,1,0,2,4ZM11.16,52.84a3.07,3.07,0,1,1,3.07-3.07A3.07,3.07,0,0,1,11.16,52.84Zm18.29-6.1a3.07,3.07,0,1,1,3.07-3.06A3.06,3.06,0,0,1,29.45,46.74Z"/></g></svg>