<svg xmlns="http://www.w3.org/2000/svg" xmlns:xlink="http://www.w3.org/1999/xlink" viewBox="0 0 128 128"><defs><style>.cls-1{fill:url(#linear-gradient);}.cls-2{fill:#eab39b;}.cls-3{fill:url(#linear-gradient-2);}.cls-4{fill:#f6b756;}.cls-5{fill:url(#linear-gradient-3);}.cls-6{fill:#8288a1;}.cls-7{fill:#47566a;}</style><linearGradient id="linear-gradient" x1="64" y1="126.98" x2="64" y2="0.98" gradientUnits="userSpaceOnUse"><stop offset="0" stop-color="#f2c4b0"/><stop offset="1" stop-color="#ffe3d7"/></linearGradient><linearGradient id="linear-gradient-2" x1="59.87" y1="72.28" x2="59.87" y2="22.74" gradientUnits="userSpaceOnUse"><stop offset="0" stop-color="#fbcc88"/><stop offset="1" stop-color="#ffe5c3"/></linearGradient><linearGradient id="linear-gradient-3" x1="59.87" y1="88.78" x2="59.87" y2="72.27" gradientUnits="userSpaceOnUse"><stop offset="0" stop-color="#949aaf"/><stop offset="1" stop-color="#c6ccda"/></linearGradient></defs><title>Negative Thinking</title><g id="Negative_Thinking" data-name="Negative Thinking"><path class="cls-1" d="M112.75,71.82a5.34,5.34,0,0,1-4.29,5.24l-5.87,1.18c0,7-.14,5.87.37,6.64a3.52,3.52,0,0,1-.5,4.54c-1.25,1.21-2.55,1-4.42,1a3.58,3.58,0,0,1,2.52,6.1c0,6,.65,10.32-3.65,14.62a12.44,12.44,0,0,1-12.25,3.17l-12.53-3.58V127H23.58C25,98,27,87.7,20.21,71.37a62.56,62.56,0,0,1-5-24.68c0-13.52,4.27-24.24,12.92-32.86,26.66-26.53,76.45-9.89,76.45,30.89,0,6.06.16,6.91-.48,8.08a5.47,5.47,0,0,0,.34,5.75C112.14,69.24,112.75,69.52,112.75,71.82Z"/><path class="cls-2" d="M57.26,26.89C37.42,29.11,30,54.24,45.45,67a11.79,11.79,0,0,1,4.11,9.13c0,.28-2.25.19,20.63.19a11.87,11.87,0,0,1,4.38-9.55C91.45,52.38,79.71,24.39,57.26,26.89Z"/><path class="cls-2" d="M49.56,76.27H70.19a0,0,0,0,1,0,0V86.59A6.19,6.19,0,0,1,64,92.78H55.75a6.19,6.19,0,0,1-6.19-6.19V76.27A0,0,0,0,1,49.56,76.27Z"/><path class="cls-3" d="M57.26,22.89C37.42,25.11,30,50.24,45.45,63a11.79,11.79,0,0,1,4.11,9.13c0,.28-2.25.19,20.63.19a11.87,11.87,0,0,1,4.38-9.55C91.45,48.38,79.71,20.39,57.26,22.89Z"/><path class="cls-4" d="M82.53,46.52a22.52,22.52,0,0,1-8,16.2,11.87,11.87,0,0,0-4.38,9c0,.78,2.31.54-20.63.54a11.84,11.84,0,0,0-4.11-9.33,22.43,22.43,0,0,1-8.23-16.42C37.9,56.28,47.76,64,59.87,64S81.85,56.28,82.53,46.52Z"/><path class="cls-5" d="M49.56,72.27H70.19a0,0,0,0,1,0,0V82.59A6.19,6.19,0,0,1,64,88.78H55.75a6.19,6.19,0,0,1-6.19-6.19V72.27A0,0,0,0,1,49.56,72.27Z"/><path class="cls-6" d="M70.19,78.46v4.13A6.18,6.18,0,0,1,64,88.78H55.75a6.18,6.18,0,0,1-6.19-6.19V78.46a6.18,6.18,0,0,0,6.19,6.19H64A6.18,6.18,0,0,0,70.19,78.46Z"/><path class="cls-2" d="M72.13,120.89V127H23.58s.12-2.41.28-6.09Z"/><path class="cls-7" d="M60.94,15.23V9.13a1,1,0,0,0-2,0v6.1A1,1,0,0,0,60.94,15.23Z"/><path class="cls-7" d="M96.52,46.71a1,1,0,0,0,0-2h-6.1a1,1,0,0,0,0,2Z"/><path class="cls-7" d="M29.45,44.71h-6.1a1,1,0,0,0,0,2h6.1A1,1,0,0,0,29.45,44.71Z"/><path class="cls-7" d="M82.2,66.56A1,1,0,0,0,80.78,68c4.64,4.64,4.45,4.61,5,4.61a1,1,0,0,0,.71-1.71Z"/><path class="cls-7" d="M37.67,24.86a1,1,0,0,0,1.42-1.41l-4.31-4.31a1,1,0,0,0-1.42,1.41Z"/><path class="cls-7" d="M85.09,19.14l-4.31,4.31a1,1,0,0,0,.71,1.7c.58,0,.45,0,5-4.6A1,1,0,0,0,85.09,19.14Z"/><path class="cls-7" d="M37.67,66.56l-4.31,4.31a1,1,0,0,0,1.42,1.41L39.09,68A1,1,0,0,0,37.67,66.56Z"/><path class="cls-7" d="M75.05,63.49A23.33,23.33,0,0,0,75.5,28.3c-14-12.55-35.9-4-38.63,13.7a23.28,23.28,0,0,0,8.22,21.72,10.53,10.53,0,0,1,3.68,8.22V82.29a7.11,7.11,0,0,0,7.1,7.1H64a7.11,7.11,0,0,0,7.1-7.1V72.13A10.75,10.75,0,0,1,75.05,63.49Zm-6,18.8a5.11,5.11,0,0,1-5.1,5.1H55.87a5.11,5.11,0,0,1-5.1-5.1V73.13H69.1Zm0-11.16H50.75a12.44,12.44,0,0,0-4.39-9C31.71,50.1,39.06,26.55,57.47,24.49,78.5,22.15,89.69,48.43,73.76,62A12.79,12.79,0,0,0,69.11,71.13Z"/><path class="cls-7" d="M70.1,44.71H49.77a1,1,0,0,0,0,2H70.1A1,1,0,0,0,70.1,44.71Z"/><path class="cls-7" d="M112.59,68.12,105.32,58A4.41,4.41,0,0,1,105,53.4c.9-1.8.68-2.91.68-8.71C105.65,21.62,87.79,0,59.12,0A45,45,0,0,0,14.23,44.69c0,9,.86,17.05,4.9,26.73A61.71,61.71,0,0,1,24,98.92c-.65,12.08-1.4,27.87-1.41,28a1,1,0,0,0,2,.1C25.86,98.77,28.16,87.9,21.1,71,17,61.18,16.2,53.54,16.23,44.7A43,43,0,0,1,59.12,2c27.25,0,44.53,20.43,44.53,42.69,0,6,.15,6.57-.47,7.81a6.4,6.4,0,0,0,.52,6.61L111,69.28a4.35,4.35,0,0,1-2.68,6.79l-5.86,1.18a1,1,0,0,0-.81,1c0,6.56-.06,6.3.17,6.65.6.89,1.21,1.83.49,3.18A2.53,2.53,0,0,1,100,89.42H92.45a1,1,0,0,0,0,2h5.61a2.57,2.57,0,0,1,1.81,4.39c-.4.41-.29.35-.29,6.52A11.49,11.49,0,0,1,88.1,113.81c-2.14,0-2.19-.17-15.7-4a1,1,0,0,0-1.27,1V127a1,1,0,0,0,2,0V112.07c11.4,3.26,12.36,3.74,15,3.74a13.5,13.5,0,0,0,13.48-13.48V96.9a4.55,4.55,0,0,0,0-5.77,4.58,4.58,0,0,0,2.18-6.82c-.28-.41-.2.44-.2-5.26l5.06-1A6.35,6.35,0,0,0,112.59,68.12Z"/></g></svg>