<svg xmlns="http://www.w3.org/2000/svg" xmlns:xlink="http://www.w3.org/1999/xlink" viewBox="0 0 128 128"><defs><style>.cls-1{fill:url(#linear-gradient);}.cls-2{fill:#eab39b;}.cls-3{fill:url(#linear-gradient-2);}.cls-4{fill:#8288a1;}.cls-5{fill:url(#linear-gradient-3);}.cls-6{fill:#dfe3ea;}.cls-7{fill:url(#linear-gradient-4);}.cls-8{fill:#42455e;}.cls-9{fill:#47566a;}</style><linearGradient id="linear-gradient" x1="64" y1="126.98" x2="64" y2="0.98" gradientUnits="userSpaceOnUse"><stop offset="0" stop-color="#f2c4b0"/><stop offset="1" stop-color="#ffe3d7"/></linearGradient><linearGradient id="linear-gradient-2" x1="59.94" y1="70.12" x2="59.94" y2="13.23" gradientUnits="userSpaceOnUse"><stop offset="0" stop-color="#949aaf"/><stop offset="1" stop-color="#c6ccda"/></linearGradient><linearGradient id="linear-gradient-3" x1="59.94" y1="61.99" x2="59.94" y2="21.36" gradientUnits="userSpaceOnUse"><stop offset="0" stop-color="#d4d8e1"/><stop offset="1" stop-color="#f3f4f5"/></linearGradient><linearGradient id="linear-gradient-4" x1="46.24" y1="108.34" x2="46.24" y2="75.81" gradientUnits="userSpaceOnUse"><stop offset="0" stop-color="#454b60"/><stop offset="1" stop-color="#575f7c"/></linearGradient></defs><title>Observation</title><g id="Observation"><path class="cls-1" d="M112.75,71.82a5.34,5.34,0,0,1-4.29,5.24l-5.87,1.18c0,7-.14,5.87.37,6.64a3.52,3.52,0,0,1-.5,4.54c-1.25,1.21-2.55,1-4.42,1a3.58,3.58,0,0,1,2.52,6.1c0,6,.65,10.32-3.65,14.62a12.44,12.44,0,0,1-12.25,3.17l-12.53-3.58V127H23.58C25,98,27,87.7,20.21,71.37a62.56,62.56,0,0,1-5-24.68c0-13.52,4.27-24.24,12.92-32.86,26.66-26.53,76.45-9.89,76.45,30.89,0,6.06.16,6.91-.48,8.08a5.47,5.47,0,0,0,.34,5.75C112.14,69.24,112.75,69.52,112.75,71.82Z"/><path class="cls-2" d="M51.34,72.79l-2.18,7.83a1,1,0,0,0,1.93.53l2.18-7.83A1,1,0,0,0,51.34,72.79Z"/><circle class="cls-2" cx="59.94" cy="45.67" r="28.44"/><path class="cls-2" d="M46.22,79.81,54.05,82l-7.63,27.39c-1.44,5.21-9.25,3-7.82-2.18Z"/><circle class="cls-3" cx="59.94" cy="41.67" r="28.44"/><path class="cls-4" d="M73.91,66.43C54,77.65,30,62,31.56,39.78c1.32,20.63,24,33.28,42.35,22.9a28.47,28.47,0,0,0,14.4-22.9A28.4,28.4,0,0,1,73.91,66.43Z"/><circle class="cls-5" cx="59.94" cy="41.67" r="20.31"/><path class="cls-6" d="M80.13,43.87a20.31,20.31,0,0,0-40.38-.08A20.26,20.26,0,0,1,49.94,24C64.44,15.81,81.91,27.6,80.13,43.87Z"/><path class="cls-7" d="M46.22,75.81,54.05,78l-7.63,27.39c-1.44,5.21-9.25,3-7.82-2.18Z"/><path class="cls-8" d="M47.28,102.3l-.85,3.07a4.07,4.07,0,1,1-7.84-2.17c1.26-4.54.71-2.81.71-2A4.07,4.07,0,0,0,47.28,102.3Z"/><path class="cls-2" d="M72.13,120.89V127H23.58s.12-2.41.28-6.09Z"/><path class="cls-9" d="M112.59,68.12,105.32,58A4.41,4.41,0,0,1,105,53.4c.9-1.81.68-2.93.68-8.71C105.65,21.62,87.79,0,59.12,0A45,45,0,0,0,14.23,44.69c0,9,.85,17,4.9,26.73A61.67,61.67,0,0,1,24,98.92c-.65,12.08-1.4,27.87-1.41,28a1,1,0,0,0,2,.1c0-.16.76-16,1.41-28A63.58,63.58,0,0,0,21.1,71c-4-9.52-4.9-17.15-4.87-26.27A43,43,0,0,1,59.12,2c27.25,0,44.53,20.44,44.53,42.69,0,6,.15,6.57-.47,7.81a6.4,6.4,0,0,0,.52,6.61L111,69.28a4.35,4.35,0,0,1-2.68,6.79l-5.86,1.18a1,1,0,0,0-.81,1c0,6.56-.06,6.3.17,6.65.59.89,1.22,1.83.49,3.18A2.53,2.53,0,0,1,100,89.42H92.45a1,1,0,0,0,0,2h5.61a2.57,2.57,0,0,1,1.81,4.39c-.4.41-.29.35-.29,6.52A11.49,11.49,0,0,1,88.1,113.81c-2.14,0-2.19-.17-15.7-4a1,1,0,0,0-1.27,1V127a1,1,0,0,0,2,0V112.07c11.4,3.26,12.36,3.74,15,3.74a13.5,13.5,0,0,0,13.48-13.48V96.9a4.54,4.54,0,0,0,0-5.77,4.58,4.58,0,0,0,2.18-6.82c-.28-.41-.2.44-.2-5.26l5.06-1A6.35,6.35,0,0,0,112.59,68.12Z"/><path class="cls-9" d="M85.58,27.17A29.43,29.43,0,0,0,45.46,16C23,28.69,26.74,62.07,51.08,69.73l-1.65,5.93-3-.83a1,1,0,0,0-1.23.7l-7.63,27.41a5.06,5.06,0,1,0,9.76,2.71L55,78.24a1,1,0,0,0-.7-1.23l-3-.82L53,70.25C78.1,76.34,98.14,49.4,85.58,27.17Zm-40.13,78a3.06,3.06,0,1,1-5.9-1.65L46.91,77l5.9,1.64ZM36,55.14C23.94,33.73,44,8.71,67.3,15.2c23.49,6.54,27.3,38.4,6.13,50.35A27.45,27.45,0,0,1,36,55.14Z"/><path class="cls-9" d="M60,63a21.32,21.32,0,1,0-18.6-10.83A21.35,21.35,0,0,0,60,63ZM50.44,24.82a19.32,19.32,0,1,1-7.33,26.33A19.34,19.34,0,0,1,50.44,24.82Z"/><path class="cls-9" d="M49.77,34.52c2,0-2.37,12.19,8.13,12.19h1v6.13h-1a1,1,0,0,0,0,2H62a1,1,0,0,0,0-2h-1V46.71c6,0,8.28-1.85,8.47-9.09.06-2.15.17-3.1.69-3.1a1,1,0,0,0,0-2c-2.55,0-2.62,2.68-2.69,5-.17,6.32-1.65,7.15-6.47,7.15V34.52h1a1,1,0,0,0,0-2H57.9a1,1,0,0,0,0,2h1V44.71h-1c-9.35,0-2.37-12.19-8.13-12.19A1,1,0,0,0,49.77,34.52Z"/></g></svg>