<svg xmlns="http://www.w3.org/2000/svg" xmlns:xlink="http://www.w3.org/1999/xlink" viewBox="0 0 128 128"><defs><style>.cls-1{fill:url(#linear-gradient);}.cls-2{fill:url(#linear-gradient-2);}.cls-3{fill:#5b8dc9;}.cls-4{fill:url(#linear-gradient-3);}.cls-5{fill:#47566a;}</style><linearGradient id="linear-gradient" x1="99.56" y1="88.39" x2="99.56" y2="1" gradientUnits="userSpaceOnUse"><stop offset="0" stop-color="#7aa8d7"/><stop offset="1" stop-color="#96c8ea"/></linearGradient><linearGradient id="linear-gradient-2" x1="28.44" y1="88.39" x2="28.44" xlink:href="#linear-gradient"/><linearGradient id="linear-gradient-3" x1="64" y1="127" x2="64" xlink:href="#linear-gradient"/></defs><title>Psycology</title><g id="Psycology"><path class="cls-1" d="M127,1V5.06a8.18,8.18,0,0,0-5.75,2.38c-3.15,3.2-2.38,3-2.38,36.24,0,22.86-17.5,44.71-46.74,44.71V84.32a28.47,28.47,0,0,0,28.45-28.45V19.29A18.29,18.29,0,0,1,118.87,1Z"/><path class="cls-2" d="M55.87,84.32v4.07C27.1,88.39,9.13,67,9.13,43.68V13.19A8.14,8.14,0,0,0,1,5.06V1H9.13A18.29,18.29,0,0,1,27.42,19.29V55.87A28.47,28.47,0,0,0,55.87,84.32Z"/><path class="cls-3" d="M51.81,84a30.08,30.08,0,0,0,4.06.28v4.07c-1.89,0-2.76,0-4.06-.06Z"/><path class="cls-3" d="M76.19,84v4.29c-1.31.08-2.17.06-4.06.06V84.32A30.08,30.08,0,0,0,76.19,84Z"/><path class="cls-4" d="M72.13,17.26v93.48A14.23,14.23,0,0,0,86.35,125v2H41.65v-2a14.23,14.23,0,0,0,14.22-14.23V17.26A14.21,14.21,0,0,0,41.65,3V1h44.7V3A14.21,14.21,0,0,0,72.13,17.26Z"/><path class="cls-3" d="M86.35,125v2H41.65v-2a14,14,0,0,0,7.31-2H79A14,14,0,0,0,86.35,125Z"/><path class="cls-5" d="M127,0h-8.13A19.31,19.31,0,0,0,99.58,19.29V55.87A27.49,27.49,0,0,1,73.13,83.3v-66A13.24,13.24,0,0,1,86.35,4a1,1,0,0,0,1-1V1a1,1,0,0,0-1-1H41.65a1,1,0,0,0-1,1V3a1,1,0,0,0,1,1A13.24,13.24,0,0,1,54.87,17.26v66A27.49,27.49,0,0,1,28.42,55.87V19.29A19.31,19.31,0,0,0,9.13,0H1A1,1,0,0,0,0,1V5.06a1,1,0,0,0,1,1,7.14,7.14,0,0,1,7.13,7.13V43.68c0,24.07,19,45.71,46.74,45.71v21.35A13.24,13.24,0,0,1,41.65,124a1,1,0,0,0-1,1v2a1,1,0,0,0,1,1h44.7a1,1,0,0,0,1-1v-2a1,1,0,0,0-1-1,13.24,13.24,0,0,1-13.22-13.23V89.39c27.65,0,46.74-21.55,46.74-45.71V13.19A7.14,7.14,0,0,1,127,6.06a1,1,0,0,0,1-1V1A1,1,0,0,0,127,0ZM10.13,43.68V13.19A9.15,9.15,0,0,0,2,4.12V2H9.13A17.31,17.31,0,0,1,26.42,19.29V55.87A29.49,29.49,0,0,0,54.87,85.31v2.08C28.42,87.39,10.13,66.81,10.13,43.68Zm75.22,82.26c0,.11-42.7.1-42.7,0a15.25,15.25,0,0,0,14.22-15.2V17.26A15.25,15.25,0,0,0,42.65,2.06c0-.11,42.7-.1,42.7,0a15.25,15.25,0,0,0-14.22,15.2v93.48A15.25,15.25,0,0,0,85.35,125.94ZM126,4.12a9.15,9.15,0,0,0-8.13,9.07V43.68c0,23.08-18.22,43.71-44.74,43.71V85.31a29.49,29.49,0,0,0,28.45-29.44V19.29A17.31,17.31,0,0,1,118.87,2H126Z"/></g></svg>