<svg xmlns="http://www.w3.org/2000/svg" xmlns:xlink="http://www.w3.org/1999/xlink" viewBox="0 0 128 128"><defs><style>.cls-1{fill:url(#linear-gradient);}.cls-2{fill:#eab39b;}.cls-3{fill:url(#linear-gradient-2);}.cls-4{fill:#d861b0;}.cls-5{fill:url(#linear-gradient-3);}.cls-6{fill:url(#linear-gradient-4);}.cls-7{fill:#47566a;}</style><linearGradient id="linear-gradient" x1="64" y1="126.98" x2="64" y2="0.98" gradientUnits="userSpaceOnUse"><stop offset="0" stop-color="#f2c4b0"/><stop offset="1" stop-color="#ffe3d7"/></linearGradient><linearGradient id="linear-gradient-2" x1="59.94" y1="58.57" x2="59.94" y2="45.06" gradientUnits="userSpaceOnUse"><stop offset="0" stop-color="#db72b8"/><stop offset="1" stop-color="#d88bc2"/></linearGradient><linearGradient id="linear-gradient-3" x1="59.94" y1="51.85" x2="59.94" y2="28.86" xlink:href="#linear-gradient-2"/><linearGradient id="linear-gradient-4" x1="59.94" y1="51.83" x2="59.94" y2="19.33" xlink:href="#linear-gradient-2"/></defs><title>Relax</title><g id="Relax"><path class="cls-1" d="M112.75,71.82a5.34,5.34,0,0,1-4.29,5.24l-5.87,1.18c0,7-.14,5.87.37,6.64a3.52,3.52,0,0,1-.5,4.54c-1.25,1.21-2.55,1-4.42,1a3.58,3.58,0,0,1,2.52,6.1c0,6,.65,10.32-3.65,14.62a12.44,12.44,0,0,1-12.25,3.17l-12.53-3.58V127H23.58C25,98,27,87.7,20.21,71.37a62.56,62.56,0,0,1-5-24.68c0-13.52,4.27-24.24,12.92-32.86,26.66-26.53,76.45-9.89,76.45,30.89,0,6.06.16,6.91-.48,8.08a5.47,5.47,0,0,0,.34,5.75C112.14,69.24,112.75,69.52,112.75,71.82Z"/><path class="cls-2" d="M92.44,55.83a23,23,0,0,1-32.5,0,23,23,0,0,1-32.5,0,22.94,22.94,0,0,1,16.25-6.74c35.46,0,34.15-.19,37.43.54A22.8,22.8,0,0,1,92.44,55.83Z"/><path class="cls-2" d="M82.91,32.86a23,23,0,0,1-45.94,0,23,23,0,0,1,16.22,6.72c18.15,0,11.11.8,17.35-3.09A22.83,22.83,0,0,1,82.91,32.86Z"/><path class="cls-2" d="M59.94,55.83a23,23,0,0,1,0-32.5A23,23,0,0,1,59.94,55.83Z"/><path class="cls-2" d="M72.13,120.89V127H23.58s.12-2.41.28-6.09Z"/><path class="cls-3" d="M92.44,51.83a23,23,0,0,1-32.5,0,23,23,0,0,1-32.5,0,22.94,22.94,0,0,1,16.25-6.74c35.46,0,34.15-.19,37.43.54A22.8,22.8,0,0,1,92.44,51.83Z"/><path class="cls-4" d="M81.12,45.63a26.89,26.89,0,0,1-16.47,9.84c-8.15-4.83-1.25-4.85-9.42,0a26.89,26.89,0,0,1-16.48-9.84c3.28-.73,1.53-.54,37.44-.54A22.7,22.7,0,0,1,81.12,45.63Z"/><path class="cls-5" d="M82.91,28.86a23,23,0,0,1-45.94,0,23,23,0,0,1,16.22,6.72c18.15,0,11.11.8,17.35-3.09A22.83,22.83,0,0,1,82.91,28.86Z"/><path class="cls-4" d="M65.87,51A22.62,22.62,0,0,1,54,51a27,27,0,0,1-4.67-18.55,21.74,21.74,0,0,1,3.85,3.09c18.15,0,11.11.8,17.35-3.09A27,27,0,0,1,65.87,51Z"/><path class="cls-6" d="M59.94,51.83a23,23,0,0,1,0-32.5A23,23,0,0,1,59.94,51.83Z"/><path class="cls-7" d="M112.59,68.12,105.32,58A4.41,4.41,0,0,1,105,53.4c.9-1.81.68-2.93.68-8.71C105.65,21.62,87.79,0,59.12,0A45,45,0,0,0,14.23,44.69c0,9,.86,17.05,4.9,26.73A61.71,61.71,0,0,1,24,98.92c-.65,12.08-1.4,27.87-1.41,28a1,1,0,0,0,2,.1C25.86,98.77,28.16,87.9,21.1,71,17,61.18,16.2,53.54,16.23,44.7A43,43,0,0,1,59.12,2c27.25,0,44.53,20.43,44.53,42.69,0,6,.15,6.57-.47,7.81a6.4,6.4,0,0,0,.52,6.61L111,69.28a4.35,4.35,0,0,1-2.68,6.79l-5.86,1.18a1,1,0,0,0-.81,1c0,6.56-.06,6.3.17,6.65.59.89,1.22,1.83.49,3.18A2.53,2.53,0,0,1,100,89.42H92.45a1,1,0,0,0,0,2h5.61a2.57,2.57,0,0,1,1.81,4.39c-.4.41-.29.35-.29,6.52A11.49,11.49,0,0,1,88.1,113.81c-2.14,0-2.19-.17-15.7-4a1,1,0,0,0-1.27,1V127a1,1,0,0,0,2,0V112.07c11.4,3.26,12.36,3.74,15,3.74a13.5,13.5,0,0,0,13.48-13.48V96.9a4.54,4.54,0,0,0,0-5.77,4.58,4.58,0,0,0,2.18-6.82c-.28-.41-.2.44-.2-5.26l5.06-1A6.35,6.35,0,0,0,112.59,68.12Z"/><path class="cls-7" d="M93.16,52.51a1,1,0,0,0,0-1.41,23.84,23.84,0,0,0-14.8-6.94,23.76,23.76,0,0,0,5.56-15.34,1,1,0,0,0-1-1,23.78,23.78,0,0,0-15.35,5.57,23.82,23.82,0,0,0-6.93-14.81,1,1,0,0,0-1.41,0A23.87,23.87,0,0,0,52.32,33.4,23.81,23.81,0,0,0,37,27.82a1,1,0,0,0-1,1,23.76,23.76,0,0,0,5.56,15.34,23.84,23.84,0,0,0-14.8,6.94,1,1,0,0,0,0,1.41,24,24,0,0,0,33.23.68A23.93,23.93,0,0,0,93.16,52.51Zm-30.75.17a23.78,23.78,0,0,0,14.16-6.6A21.78,21.78,0,0,1,91,51.81,21.94,21.94,0,0,1,62.41,52.68Zm-.11-2A23.78,23.78,0,0,0,67.66,36,21.76,21.76,0,0,1,81.9,29.85,22,22,0,0,1,62.3,50.67ZM59.94,20.74a22,22,0,0,1,0,29.62A22,22,0,0,1,59.94,20.74ZM52.24,36a23.89,23.89,0,0,0,5.33,14.64A22,22,0,0,1,38,29.85,21.78,21.78,0,0,1,52.24,36ZM28.87,51.81A21.78,21.78,0,0,1,43.3,46.08a23.78,23.78,0,0,0,14.16,6.6A21.94,21.94,0,0,1,28.87,51.81Z"/></g></svg>