<svg xmlns="http://www.w3.org/2000/svg" xmlns:xlink="http://www.w3.org/1999/xlink" viewBox="0 0 128 128"><defs><style>.cls-1{fill:url(#linear-gradient);}.cls-2{fill:#5b8dc9;}.cls-3{fill:url(#linear-gradient-2);}.cls-4{fill:url(#linear-gradient-3);}.cls-5{fill:#d861b0;}.cls-6{fill:url(#linear-gradient-4);}.cls-7{fill:url(#linear-gradient-5);}.cls-8{fill:#47566a;}</style><linearGradient id="linear-gradient" x1="64" y1="70.09" x2="64" y2="21.31" gradientUnits="userSpaceOnUse"><stop offset="0" stop-color="#7aa8d7"/><stop offset="1" stop-color="#96c8ea"/></linearGradient><linearGradient id="linear-gradient-2" y1="127.01" y2="70.03" xlink:href="#linear-gradient"/><linearGradient id="linear-gradient-3" x1="64.01" y1="122.94" x2="64.01" y2="82.28" gradientUnits="userSpaceOnUse"><stop offset="0" stop-color="#db72b8"/><stop offset="1" stop-color="#d88bc2"/></linearGradient><linearGradient id="linear-gradient-4" x1="82.29" y1="116.85" x2="82.29" y2="74.18" xlink:href="#linear-gradient"/><linearGradient id="linear-gradient-5" x1="45.71" y1="116.85" x2="45.71" y2="74.18" xlink:href="#linear-gradient"/></defs><title>Selfcare</title><g id="Selfcare"><path class="cls-1" d="M64,70.09A18.29,18.29,0,0,1,45.71,51.8V39.6a18.29,18.29,0,0,1,36.58,0V51.8A18.29,18.29,0,0,1,64,70.09Z"/><path class="cls-2" d="M82.29,47.73V51.8a18.29,18.29,0,0,1-36.58,0V47.73a18.29,18.29,0,1,0,36.58,0Z"/><path class="cls-3" d="M96.52,90.42v18.29a8.13,8.13,0,0,1-8.13,8.14h-2V127H41.64V116.85h-2a8.13,8.13,0,0,1-8.13-8.14V90.42A20.36,20.36,0,0,1,51.8,70.09c25.94,0,27.43-.55,32.53,1.71A20.32,20.32,0,0,1,96.52,90.42Z"/><path class="cls-2" d="M31.74,110.75a8.12,8.12,0,0,0,7.87,6.1h2v4.06c17.74,0,7.42-1.33,21.34,6.1,2.44,0,1.8.13,3-.49a82,82,0,0,0,8.65-5.61H86.36v-4.06h2a8.12,8.12,0,0,0,7.87-6.1Z"/><path class="cls-4" d="M83.62,106.68C98.28,87,72.79,73.86,64,88.59c-8.81-14.76-34.23-1.51-19.62,18.09,8.82,8.65,11.19,11.71,19.62,16.26C72.45,118.38,74.78,115.34,83.62,106.68Z"/><path class="cls-5" d="M83.56,106.74c-8.75,8.58-11.13,11.65-19.56,16.2-8.43-4.55-10.83-7.65-19.56-16.2,7.7,5.94,7.73,6,8,6.15a22.5,22.5,0,0,0,23.27-.11Z"/><path class="cls-6" d="M96.52,90.42v18.29a8.13,8.13,0,0,1-8.13,8.14H73.15a5.09,5.09,0,0,1,0-10.17H88.39V74.18A20.23,20.23,0,0,1,96.52,90.42Z"/><path class="cls-7" d="M54.85,116.85H39.61a8.13,8.13,0,0,1-8.13-8.14V90.42a20.23,20.23,0,0,1,8.13-16.24v32.5c16,0,16.86-.5,18.84,1.49A5.09,5.09,0,0,1,54.85,116.85Z"/><path class="cls-8" d="M75.08,89.39a5.84,5.84,0,0,1,5.84,5.83,1,1,0,0,0,1,1c2.66,0,.23-8.83-6.84-8.83A1,1,0,0,0,75.08,89.39Z"/><path class="cls-8" d="M68.06,58.94H59.94a1,1,0,0,0,0,2h8.12A1,1,0,0,0,68.06,58.94Z"/><path class="cls-8" d="M76.19,69.1H72.5A19.3,19.3,0,0,0,83.29,51.81V39.61a19.29,19.29,0,0,0-38.58,0v12.2A19.3,19.3,0,0,0,55.5,69.1H51.81A21.35,21.35,0,0,0,30.48,90.42v18.29a9.15,9.15,0,0,0,9.13,9.13h1V127a1,1,0,0,0,2,0v-9.16H54.42a80.72,80.72,0,0,0,9.1,6,1,1,0,0,0,1,0,80.72,80.72,0,0,0,9.1-6H85.35V127a1,1,0,0,0,2,0v-9.16h1a9.15,9.15,0,0,0,9.13-9.13V90.42A21.35,21.35,0,0,0,76.19,69.1ZM46.71,51.81V39.61a17.29,17.29,0,0,1,34.58,0v12.2a17.29,17.29,0,0,1-34.58,0Zm17.29,70a79.44,79.44,0,0,1-6.83-4.41c6.14-2.54,4.3-11.7-2.32-11.7H44.91C31.74,87.39,55.1,75.64,63.14,89.1a1,1,0,0,0,1.72,0c8.07-13.51,31.39-1.69,18.23,16.58H73.15c-6.62,0-8.46,9.16-2.32,11.7A79.44,79.44,0,0,1,64,121.79Zm31.52-13.08a7.14,7.14,0,0,1-7.13,7.13H73.15a4.08,4.08,0,1,1,0-8.16H88.39a1,1,0,0,0,0-2H85.53C97.91,86.68,74.32,73.22,64,86.81c-10.36-13.64-33.91-.13-21.53,18.87H39.61a1,1,0,0,0,0,2H54.85a4.08,4.08,0,1,1,0,8.16H39.61a7.14,7.14,0,0,1-7.13-7.13V90.42A19.34,19.34,0,0,1,51.81,71.1H76.19A19.34,19.34,0,0,1,95.52,90.42Z"/><path class="cls-8" d="M9.13,63H1a1,1,0,0,0,0,2H9.13A1,1,0,0,0,9.13,63Z"/><path class="cls-8" d="M127,63h-8.13a1,1,0,0,0,0,2H127A1,1,0,0,0,127,63Z"/><path class="cls-8" d="M16,90.57l-7,4.06a1,1,0,0,0,1,1.74l7-4.07A1,1,0,0,0,16,90.57Z"/><path class="cls-8" d="M111.52,37.56c.38,0-.1.22,7.54-4.19a1,1,0,0,0-1-1.74l-7,4.07A1,1,0,0,0,111.52,37.56Z"/><path class="cls-8" d="M119.06,94.63l-7-4.06a1,1,0,0,0-1,1.73l7,4.07A1,1,0,0,0,119.06,94.63Z"/><path class="cls-8" d="M17,35.7l-7-4.07a1,1,0,0,0-1,1.74l7,4.06A1,1,0,0,0,17,35.7Z"/><path class="cls-8" d="M35.7,17a1,1,0,0,0,1.73-1l-4.06-7a1,1,0,0,0-1.74,1Z"/><path class="cls-8" d="M92.3,17l4.07-7a1,1,0,0,0-1.74-1l-4.06,7A1,1,0,0,0,92.3,17Z"/><path class="cls-8" d="M65,9.13V1a1,1,0,0,0-2,0V9.13A1,1,0,0,0,65,9.13Z"/></g></svg>