<svg xmlns="http://www.w3.org/2000/svg" xmlns:xlink="http://www.w3.org/1999/xlink" viewBox="0 0 128 128"><defs><style>.cls-1{fill:url(#linear-gradient);}.cls-2{fill:url(#linear-gradient-2);}.cls-3{fill:#c7cdd8;}.cls-4{fill:url(#linear-gradient-3);}.cls-5{fill:#5b8dc9;}.cls-6{fill:url(#linear-gradient-4);}.cls-7{fill:url(#linear-gradient-5);}.cls-8{fill:#dfe3ea;}.cls-9{fill:#47566a;}</style><linearGradient id="linear-gradient" x1="64" y1="102.61" x2="64" y2="74.16" gradientUnits="userSpaceOnUse"><stop offset="0" stop-color="#7aa8d7"/><stop offset="1" stop-color="#96c8ea"/></linearGradient><linearGradient id="linear-gradient-2" x1="64" y1="74.16" x2="64" y2="13.19" gradientUnits="userSpaceOnUse"><stop offset="0" stop-color="#d4d8e1"/><stop offset="1" stop-color="#f3f4f5"/></linearGradient><linearGradient id="linear-gradient-3" x1="64" y1="74.16" x2="64" y2="25.39" xlink:href="#linear-gradient"/><linearGradient id="linear-gradient-4" x1="64" y1="127" x2="64" y2="102.61" xlink:href="#linear-gradient-2"/><linearGradient id="linear-gradient-5" x1="64" y1="127" x2="64" y2="114.81" gradientUnits="userSpaceOnUse"><stop offset="0" stop-color="#949aaf"/><stop offset="1" stop-color="#c6ccda"/></linearGradient></defs><title>Sleep</title><g id="Sleep"><path class="cls-1" d="M27.42,102.61V94.48A20.32,20.32,0,0,1,47.74,74.16H80.26a20.32,20.32,0,0,1,20.32,20.32v8.13Z"/><rect class="cls-2" x="19.29" y="13.19" width="89.42" height="60.97" rx="8.13"/><path class="cls-3" d="M108.71,59.94V66a8.13,8.13,0,0,1-8.13,8.13H27.42A8.13,8.13,0,0,1,19.29,66V59.94a8.12,8.12,0,0,0,8.13,8.12h73.16A8.12,8.12,0,0,0,108.71,59.94Z"/><path class="cls-4" d="M64,74.16A18.29,18.29,0,0,1,45.71,55.87V43.68a18.29,18.29,0,0,1,36.58,0V55.87A18.29,18.29,0,0,1,64,74.16Z"/><path class="cls-5" d="M82.29,51.81v4.06a18.29,18.29,0,0,1-36.58,0V51.81a18.29,18.29,0,0,0,36.58,0Z"/><rect class="cls-5" x="27.42" y="98.55" width="73.16" height="4.06"/><path class="cls-6" d="M127,127V106.68a4.07,4.07,0,0,0-4.07-4.07H5.06A4.07,4.07,0,0,0,1,106.68V127"/><rect class="cls-7" x="1" y="114.81" width="126" height="12.19"/><path class="cls-8" d="M127,106.68v4.06a4.08,4.08,0,0,0-4.07-4.06H5.06A4.08,4.08,0,0,0,1,110.74v-4.06a4.08,4.08,0,0,1,4.06-4.07H122.93A4.08,4.08,0,0,1,127,106.68Z"/><path class="cls-9" d="M122.94,101.61H101.58V94.48A21.32,21.32,0,0,0,89.22,75.16h11.36A9.13,9.13,0,0,0,109.71,66V39.61a1,1,0,0,0-2,0V66a7.14,7.14,0,0,1-7.13,7.13H72.5A19.3,19.3,0,0,0,83.29,55.87V43.68a19.29,19.29,0,0,0-38.58,0V55.87A19.3,19.3,0,0,0,55.5,73.16H27.42A7.14,7.14,0,0,1,20.29,66V21.32a7.14,7.14,0,0,1,7.13-7.13H98.55a1,1,0,0,0,0-2H27.42a9.15,9.15,0,0,0-9.13,9.13V66a9.14,9.14,0,0,0,9.13,9.13H38.78A21.32,21.32,0,0,0,26.42,94.48v7.13H5.06A5.07,5.07,0,0,0,0,106.68V127a1,1,0,0,0,2,0V115.81H126V127a1,1,0,0,0,2,0V106.68A5.07,5.07,0,0,0,122.94,101.61ZM46.71,55.87V43.68a17.29,17.29,0,0,1,34.58,0V55.87a17.29,17.29,0,0,1-34.58,0ZM28.42,94.48A19.35,19.35,0,0,1,47.74,75.16H80.26A19.35,19.35,0,0,1,99.58,94.48v7.13H87.35V92.45a1,1,0,0,0-2,0v9.16H42.65V92.45a1,1,0,0,0-2,0v9.16H28.42ZM2,113.81v-7.13a3.07,3.07,0,0,1,3.06-3.07H122.94a3.07,3.07,0,0,1,3.06,3.07v7.13Z"/><path class="cls-9" d="M89.54,50.25c.38.71.12.52,9,.52a1,1,0,0,0,0-2H92.29l7.09-10.63a1,1,0,0,0-.83-1.56H90.42a1,1,0,0,0,0,2h6.26C89.11,49.94,89.14,49.5,89.54,50.25Z"/><path class="cls-9" d="M104.65,20.29h6.26l-7.1,10.64a1,1,0,0,0,.84,1.55h8.12a1,1,0,0,0,0-2h-6.26c7.58-11.35,7.54-10.92,7.15-11.66s-.13-.53-9-.53A1,1,0,0,0,104.65,20.29Z"/><path class="cls-9" d="M118.87,2h6.26L118,12.64a1,1,0,0,0,.83,1.55H127a1,1,0,0,0,0-2h-6.26C128.31.84,128.28,1.27,127.88.53s-.12-.53-9-.53A1,1,0,0,0,118.87,2Z"/><path class="cls-9" d="M68.06,63H59.94a1,1,0,0,0,0,2h8.12A1,1,0,0,0,68.06,63Z"/></g></svg>