<svg xmlns="http://www.w3.org/2000/svg" xmlns:xlink="http://www.w3.org/1999/xlink" viewBox="0 0 128 128"><defs><style>.cls-1{fill:url(#linear-gradient);}.cls-2{fill:url(#linear-gradient-2);}.cls-3{fill:#5b8dc9;}.cls-4{fill:url(#linear-gradient-3);}.cls-5{fill:url(#linear-gradient-4);}.cls-6{fill:url(#linear-gradient-5);}.cls-7{fill:url(#linear-gradient-6);}.cls-8{fill:#77cacb;}.cls-9{fill:url(#linear-gradient-7);}.cls-10{fill:#d861b0;}.cls-11{fill:#47566a;}</style><linearGradient id="linear-gradient" x1="99.57" y1="126.99" x2="99.57" y2="84.32" gradientUnits="userSpaceOnUse"><stop offset="0" stop-color="#7aa8d7"/><stop offset="1" stop-color="#96c8ea"/></linearGradient><linearGradient id="linear-gradient-2" x1="28.43" y1="126.99" x2="28.43" y2="84.32" xlink:href="#linear-gradient"/><linearGradient id="linear-gradient-3" x1="64" y1="126.99" x2="64" y2="84.32" gradientUnits="userSpaceOnUse"><stop offset="0" stop-color="#9dd5df"/><stop offset="1" stop-color="#c3e1f5"/></linearGradient><linearGradient id="linear-gradient-4" x1="27.42" y1="84.32" x2="27.42" y2="53.83" xlink:href="#linear-gradient"/><linearGradient id="linear-gradient-5" x1="100.58" y1="84.32" x2="100.58" y2="53.83" xlink:href="#linear-gradient"/><linearGradient id="linear-gradient-6" x1="64" y1="84.32" x2="64" y2="53.83" xlink:href="#linear-gradient-3"/><linearGradient id="linear-gradient-7" x1="64" y1="45.7" x2="64" y2="1.01" gradientUnits="userSpaceOnUse"><stop offset="0" stop-color="#db72b8"/><stop offset="1" stop-color="#d88bc2"/></linearGradient></defs><title>Support System</title><g id="Support_System" data-name="Support System"><path class="cls-1" d="M127,100.57V127H72.13V84.32h38.61A16.25,16.25,0,0,1,127,100.57Z"/><path class="cls-2" d="M55.87,84.32V127H1V100.57A16.25,16.25,0,0,1,17.26,84.32Z"/><rect class="cls-3" x="1" y="122.93" width="126" height="4.06"/><path class="cls-3" d="M55.87,84.32V127H35.55V100.57A20.28,20.28,0,0,1,43.7,84.32Z"/><path class="cls-3" d="M92.45,100.57V127H72.13V84.32H84.3A20.28,20.28,0,0,1,92.45,100.57Z"/><path class="cls-4" d="M88.39,100.57V127H39.61V100.57A16.25,16.25,0,0,1,55.87,84.32H72.13A16.25,16.25,0,0,1,88.39,100.57Z"/><path class="cls-5" d="M27.42,84.32a12.19,12.19,0,0,1-12.19-12.2V66a12.19,12.19,0,1,1,24.38,0v6.09A12.2,12.2,0,0,1,27.42,84.32Z"/><path class="cls-6" d="M100.58,84.32a12.2,12.2,0,0,1-12.19-12.2V66a12.19,12.19,0,1,1,24.38,0v6.09A12.2,12.2,0,0,1,100.58,84.32Z"/><path class="cls-7" d="M64,84.32a12.2,12.2,0,0,1-12.19-12.2V66a12.19,12.19,0,1,1,24.38,0v6.09A12.2,12.2,0,0,1,64,84.32Z"/><path class="cls-3" d="M39.61,68.06v4.06a12.19,12.19,0,1,1-24.38,0V68.06a12.19,12.19,0,0,0,24.38,0Z"/><path class="cls-3" d="M112.77,68.06v4.06a12.19,12.19,0,1,1-24.38,0V68.06a12.19,12.19,0,0,0,24.38,0Z"/><path class="cls-8" d="M76.19,68.06v4.06a12.19,12.19,0,1,1-24.38,0V68.06a12.19,12.19,0,0,0,24.38,0Z"/><path class="cls-9" d="M64,7.92C56.59-4.42,37.58.83,37.58,15.22,37.58,31.48,64,45.7,64,45.7S90.42,31.48,90.42,15.22C90.42.84,71.41-4.43,64,7.92Z"/><path class="cls-10" d="M86.78,26.07C79.57,37.33,64,45.7,64,45.7S48.43,37.33,41.22,26.07A32,32,0,0,0,86.78,26.07Z"/><rect class="cls-8" x="39.61" y="122.93" width="48.78" height="4.06"/><path class="cls-11" d="M110.74,83.32h-3.21a13.18,13.18,0,0,0,6.24-11.19V66a13.19,13.19,0,0,0-26.38,0v6.1a13.18,13.18,0,0,0,6.24,11.19H71a13.18,13.18,0,0,0,6.24-11.19V66a13.19,13.19,0,0,0-26.38,0v6.1a13.18,13.18,0,0,0,6.24,11.19H34.37a13.18,13.18,0,0,0,6.24-11.19V66a13.19,13.19,0,0,0-26.38,0v6.1a13.18,13.18,0,0,0,6.24,11.19H17.26A17.28,17.28,0,0,0,0,100.58V127a1,1,0,0,0,2,0V100.58A15.28,15.28,0,0,1,17.26,85.32H47.83a17.29,17.29,0,0,0-9.22,15.26V127a1,1,0,0,0,2,0V100.58A15.28,15.28,0,0,1,55.87,85.32H72.13a15.28,15.28,0,0,1,15.26,15.26V127a1,1,0,0,0,2,0V100.58a17.29,17.29,0,0,0-9.22-15.26h30.57A15.28,15.28,0,0,1,126,100.58V127a1,1,0,0,0,2,0V100.58A17.28,17.28,0,0,0,110.74,83.32ZM16.23,72.13V66a11.19,11.19,0,0,1,22.38,0v6.1a11.19,11.19,0,0,1-22.38,0Zm36.58,0V66a11.19,11.19,0,0,1,22.38,0v6.1a11.19,11.19,0,0,1-22.38,0Zm36.58,0V66a11.19,11.19,0,0,1,22.38,0v6.1a11.19,11.19,0,0,1-22.38,0Z"/><path class="cls-11" d="M48.77,98.55V127a1,1,0,0,0,2,0V98.55A1,1,0,0,0,48.77,98.55Z"/><path class="cls-11" d="M10.16,98.55V127a1,1,0,0,0,2,0V98.55A1,1,0,0,0,10.16,98.55Z"/><path class="cls-11" d="M77.23,98.55V127a1,1,0,0,0,2,0V98.55A1,1,0,0,0,77.23,98.55Z"/><path class="cls-11" d="M115.84,98.55V127a1,1,0,0,0,2,0V98.55A1,1,0,0,0,115.84,98.55Z"/><path class="cls-11" d="M66.17,74.64a3.14,3.14,0,0,1-4.34,0,1,1,0,0,0-1.41,0c-1.29,1.29,1.65,2.9,3.58,2.9s4.87-1.61,3.58-2.9A1,1,0,0,0,66.17,74.64Z"/><path class="cls-11" d="M102.75,74.64a3.14,3.14,0,0,1-4.34,0,1,1,0,0,0-1.41,0c-1.29,1.29,1.65,2.9,3.58,2.9s4.87-1.61,3.58-2.9A1,1,0,0,0,102.75,74.64Z"/><path class="cls-11" d="M29.59,74.64a3.14,3.14,0,0,1-4.34,0,1,1,0,0,0-1.41,0c-1.29,1.29,1.65,2.9,3.58,2.9s4.87-1.61,3.58-2.9A1,1,0,0,0,29.59,74.64Z"/><path class="cls-11" d="M63.53,46.59a1,1,0,0,0,.94,0c1.1-.59,27-14.7,27-31.36C91.42.73,72.74-5.65,64,6.13,55.26-5.65,36.58.72,36.58,15.23,36.58,31.89,62.43,46,63.53,46.59ZM63.14,8.44a1,1,0,0,0,1.72,0C71.78-3.1,89.42,1.92,89.42,15.23c0,14.29-21.9,27.33-25.42,29.33-3.52-2-25.42-15-25.42-29.33C38.58,1.93,56.22-3.1,63.14,8.44Z"/><path class="cls-11" d="M76.19,8.1a7.13,7.13,0,0,1,7.13,7.13,1,1,0,0,0,1,1c2.78,0,.1-10.13-8.13-10.13A1,1,0,0,0,76.19,8.1Z"/></g></svg>