<svg xmlns="http://www.w3.org/2000/svg" xmlns:xlink="http://www.w3.org/1999/xlink" viewBox="0 0 128 128"><defs><style>.cls-1{fill:url(#linear-gradient);}.cls-2{fill:url(#linear-gradient-2);}.cls-3{fill:url(#linear-gradient-3);}.cls-4{fill:#eab39b;}.cls-5{fill:#d861b0;}.cls-6{fill:#47566a;}</style><linearGradient id="linear-gradient" x1="64" y1="72.1" x2="64" y2="1" gradientUnits="userSpaceOnUse"><stop offset="0" stop-color="#db72b8"/><stop offset="1" stop-color="#d88bc2"/></linearGradient><linearGradient id="linear-gradient-2" x1="32.5" y1="127" x2="32.5" y2="55.88" gradientUnits="userSpaceOnUse"><stop offset="0" stop-color="#f2c4b0"/><stop offset="1" stop-color="#ffe3d7"/></linearGradient><linearGradient id="linear-gradient-3" x1="95.48" x2="95.48" y2="55.88" xlink:href="#linear-gradient-2"/></defs><title>Theraphy</title><g id="Theraphy"><path class="cls-1" d="M92.7,40.85A9.18,9.18,0,0,1,90.11,55a9.16,9.16,0,0,1-6.38,11C79.19,76.21,64,72.77,64,61.81,64,72.75,48.81,76.22,44.27,66a9.16,9.16,0,0,1-6.38-11A9.18,9.18,0,0,1,35.3,40.85a8,8,0,0,1-.61-12.68A9.17,9.17,0,0,1,42.62,16a6.88,6.88,0,0,1,7.7-9.11A6.88,6.88,0,0,1,64,7.89a6.88,6.88,0,0,1,13.68-1A6.88,6.88,0,0,1,85.38,16a9.17,9.17,0,0,1,7.93,12.21A8,8,0,0,1,92.7,40.85Z"/><path class="cls-2" d="M64,112.77V127H41.65c1-5.81-.54-14.13-6.1-18.29-8.13-6.1-14.23-12.19-20.32-18.29S1,64,1,59.94a4.06,4.06,0,0,1,7.66-1.87c9,21.25,11.08,22.64,30.91,34.36-.3-.34-2.46-2.8-8.09-12.17-6.09-10.16-.24-11.61,4.07-10.16,6.12,2.05,10.2,14.29,16.26,18.29C58,92.53,64,104.86,64,112.77Z"/><path class="cls-3" d="M127,59.94c0,4.06-8.13,24.38-14.23,30.48s-12.19,12.19-20.32,18.29c-5.5,4.11-7.14,12.18-6.1,18.29H64c0-14.26-.28-15.57.71-19.53,1.75-7.4,6.61-15.83,11.48-19.08,6-4,10.17-16.25,16.26-18.29,4.31-1.45,10.16,0,4.07,10.16-5.63,9.37-7.79,11.83-8.09,12.17,19.88-11.75,22-13.12,30.91-34.36A4.06,4.06,0,0,1,127,59.94Z"/><path class="cls-4" d="M64,118.87a7.36,7.36,0,0,1-6.58,4.07h-1.9a18.47,18.47,0,0,1-15.3-8.13A24.27,24.27,0,0,1,41.65,127H64C64,117.33,63.9,119.08,64,118.87Z"/><path class="cls-4" d="M87.78,114.81a18.47,18.47,0,0,1-15.3,8.13c-2.6,0-6.37.16-8.48-4.07V127H86.35A24.26,24.26,0,0,1,87.78,114.81Z"/><path class="cls-5" d="M83.73,66C79.21,76.17,64,72.85,64,61.81,64,72.87,48.79,76.16,44.27,66a9.18,9.18,0,0,1-6.43-10.85A9.16,9.16,0,0,0,44.27,62C48.79,72.11,64,68.79,64,57.74,64,68.81,79.21,72.09,83.73,62a9.16,9.16,0,0,0,6.43-6.79A9.17,9.17,0,0,1,83.73,66Z"/><path class="cls-5" d="M66,3V67.92a10.12,10.12,0,0,1-2-6.11,10.12,10.12,0,0,1-2,6.11V3a6.9,6.9,0,0,1,2,4.9A6.9,6.9,0,0,1,66,3Z"/><path class="cls-6" d="M81.17,29a4.09,4.09,0,0,1-4,3.18,1,1,0,0,0-1,1c0,2.2,6.24.79,7-4.15A8.08,8.08,0,0,0,88,26.71a1,1,0,0,0-1.41-1.42A6.13,6.13,0,1,1,78,16.62a1,1,0,0,0,0-1.41c-1.89-1.89-6.62,6.29-1.42,11.5A8.06,8.06,0,0,0,81.17,29Z"/><path class="cls-6" d="M74.92,45a7.13,7.13,0,0,1,6.23,6.94,8.85,8.85,0,0,0-5.67,8.24,1,1,0,0,0,2,0,6.85,6.85,0,0,1,6.84-6.84,1,1,0,0,0,0-2,9.39,9.39,0,0,0-1.19.09,9.12,9.12,0,0,0-8-8.41A1,1,0,0,0,74.92,45Z"/><path class="cls-6" d="M33.9,41a10.17,10.17,0,0,0,2.86,14.48,10.19,10.19,0,0,0,6.79,11.37A11.32,11.32,0,0,0,64,66.43a11.32,11.32,0,0,0,20.45.43,10.2,10.2,0,0,0,6.79-11.37A10.17,10.17,0,0,0,94.1,41a9,9,0,0,0,.35-13.15,10.21,10.21,0,0,0-7.79-12.74,7.9,7.9,0,0,0-8.19-9.37A7.89,7.89,0,0,0,64,4.05a7.89,7.89,0,0,0-14.47,1.7,7.9,7.9,0,0,0-8.19,9.37,10.2,10.2,0,0,0-7.79,12.74A9,9,0,0,0,33.9,41Zm37-39a5.9,5.9,0,0,1,5.6,4.13A7.86,7.86,0,0,0,71,13.62a1,1,0,0,0,2,0,5.88,5.88,0,1,1,11.42,2A1,1,0,0,0,85.31,17a8.19,8.19,0,0,1,7,10.88,1,1,0,0,0,.29,1.1,7,7,0,1,1-10.36,9.31,1,1,0,0,0-1.66,1.12,9,9,0,0,0,11.83,2.79,8.17,8.17,0,0,1-2.82,12,1,1,0,0,0-.5,1.13,8.19,8.19,0,0,1-5.68,9.84,1,1,0,0,0-.64.55,9.32,9.32,0,1,1-8.76-13.14,1,1,0,0,0,0-2,11.27,11.27,0,0,0-9,4.86V42.87a5.56,5.56,0,0,1,4.86-5.5,1,1,0,0,0-.25-2A7.44,7.44,0,0,0,65,37.77V7.88A5.89,5.89,0,0,1,70.88,2ZM35.35,28.93c.88-.75-.18-1.29-.18-3.84A8.2,8.2,0,0,1,42.69,17a1,1,0,0,0,.77-.47c.47-.73-.26-1-.26-2.86a5.89,5.89,0,0,1,11.77,0,1,1,0,0,0,2,0,7.86,7.86,0,0,0-5.45-7.49A5.87,5.87,0,0,1,63,7.88V28.59a7.54,7.54,0,0,0-4.61-2.38,1,1,0,0,0-.25,2A5.56,5.56,0,0,1,63,33.7V55.35a11.32,11.32,0,0,0-9-4.86,1,1,0,0,0,0,2,9.32,9.32,0,1,1-8.76,13.14,1,1,0,0,0-.64-.55,8.19,8.19,0,0,1-5.68-9.84,1,1,0,0,0-.5-1.13,8.17,8.17,0,0,1-2.82-12,9,9,0,0,0,11.83-2.79,1,1,0,0,0-1.66-1.12,7,7,0,1,1-10.36-9.31Z"/><path class="cls-6" d="M44.8,29c.76,4.92,7,6.41,7,4.15a1,1,0,0,0-1-1,4.09,4.09,0,0,1-4-3.18,8.13,8.13,0,0,0,4.64-13.79,1,1,0,0,0-1.42,1.41,6.13,6.13,0,0,1-8.67,8.67A1,1,0,0,0,40,26.71,8.08,8.08,0,0,0,44.8,29Z"/><path class="cls-6" d="M52.83,43a9.12,9.12,0,0,0-8,8.41,9.39,9.39,0,0,0-1.19-.09,1,1,0,0,0,0,2,6.85,6.85,0,0,1,6.84,6.84,1,1,0,0,0,2,0,8.85,8.85,0,0,0-5.67-8.24A7.13,7.13,0,0,1,53.08,45,1,1,0,0,0,52.83,43Z"/><path class="cls-6" d="M118.42,57.68c-8.74,20.88-11.24,22-26.2,31.28,1.26-1.87,2.94-4.51,5.15-8.19,2.92-4.86,3.54-8.4,1.85-10.5s-4.84-1.88-7.09-1.12c-6.53,2.17-10.62,14.49-16.49,18.4C70.79,90.79,66,98.79,64,106.16c-2-7.37-6.79-15.37-11.64-18.61-5.92-3.94-9.92-16.21-16.49-18.4-2.25-.76-5.46-.91-7.09,1.12s-1.07,5.64,1.85,10.5c2.21,3.68,3.89,6.32,5.15,8.19-15.2-9.4-17.4-10.37-26.23-31.35A5.06,5.06,0,0,0,0,59.94c0,4.46,8.23,24.9,14.52,31.19,6,6,12.24,12.24,20.43,18.38,7.54,5.65,5.73,17.21,5.71,17.33a1,1,0,0,0,2,.32c.09-.52,2-12.86-6.48-19.25-8.08-6.06-14.25-12.23-20.22-18.2S2,63.5,2,59.94a3.07,3.07,0,0,1,5.74-1.49C10.92,66.06,14.59,74.94,20.62,81c3.29,3.3,18.29,12.24,18.44,12.33a1,1,0,0,0,1.26-1.52c-.55-.63-2.77-3.36-8-12-2.34-3.9-3.07-6.89-2-8.22.92-1.15,3.12-1.07,4.89-.48,5.54,1.85,9.84,14,16,18.18C57.07,93.1,63,105,63,112.77V127a1,1,0,0,0,2,0V112.77C65,105,70.93,93.1,76.75,89.22,83,85.08,87.2,72.9,92.77,71c1.77-.59,4-.67,4.89.48,1.07,1.33.34,4.32-2,8.22-5.21,8.67-7.43,11.4-8,12a1,1,0,0,0,1.26,1.52c.15-.09,15.15-9,18.44-12.33,6-6,9.68-14.81,12.85-22.44A3.06,3.06,0,0,1,126,59.94c0,3.56-7.91,23.75-13.93,29.77s-12.14,12.14-20.22,18.2c-8.52,6.39-6.57,18.73-6.48,19.25a1,1,0,0,0,2-.32c0-.12-1.83-11.68,5.71-17.33,8.19-6.14,14.41-12.37,20.43-18.38C119.77,84.84,128,64.4,128,59.94A5.06,5.06,0,0,0,118.42,57.68Z"/></g></svg>