<svg xmlns="http://www.w3.org/2000/svg" xmlns:xlink="http://www.w3.org/1999/xlink" viewBox="0 0 128 128"><defs><style>.cls-1{fill:url(#linear-gradient);}.cls-2{fill:#eab39b;}.cls-3{fill:url(#linear-gradient-2);}.cls-4{fill:url(#linear-gradient-3);}.cls-5{fill:url(#linear-gradient-4);}.cls-6{fill:#dfe3ea;}.cls-7{fill:#42455e;}.cls-8{fill:#c7cdd8;}.cls-9{fill:#47566a;}</style><linearGradient id="linear-gradient" x1="64" y1="126.98" x2="64" y2="0.98" gradientUnits="userSpaceOnUse"><stop offset="0" stop-color="#f2c4b0"/><stop offset="1" stop-color="#ffe3d7"/></linearGradient><linearGradient id="linear-gradient-2" x1="59.94" y1="74.17" x2="59.94" y2="13.24" gradientUnits="userSpaceOnUse"><stop offset="0" stop-color="#454b60"/><stop offset="1" stop-color="#575f7c"/></linearGradient><linearGradient id="linear-gradient-3" x1="67.54" y1="74.17" x2="67.54" y2="13.24" gradientUnits="userSpaceOnUse"><stop offset="0" stop-color="#d4d8e1"/><stop offset="1" stop-color="#f3f4f5"/></linearGradient><linearGradient id="linear-gradient-4" x1="60.95" y1="64.02" x2="60.95" y2="53.86" xlink:href="#linear-gradient-2"/></defs><title>Yin yang</title><g id="Yin_yang" data-name="Yin yang"><path class="cls-1" d="M112.75,71.82a5.34,5.34,0,0,1-4.29,5.24l-5.87,1.18c0,7-.14,5.87.37,6.64a3.52,3.52,0,0,1-.5,4.54c-1.25,1.21-2.55,1-4.42,1a3.58,3.58,0,0,1,2.52,6.1c0,6,.65,10.32-3.65,14.62a12.44,12.44,0,0,1-12.25,3.17l-12.53-3.58V127H23.58C25,98,27,87.7,20.21,71.37a62.56,62.56,0,0,1-5-24.68c0-13.52,4.27-24.24,12.92-32.86,26.66-26.53,76.45-9.89,76.45,30.89,0,6.06.16,6.91-.48,8.08a5.47,5.47,0,0,0,.34,5.75C112.14,69.24,112.75,69.52,112.75,71.82Z"/><path class="cls-2" d="M72.13,120.89V127H23.58s.12-2.41.28-6.09Z"/><circle class="cls-3" cx="59.94" cy="43.7" r="30.47"/><path class="cls-4" d="M90.41,43.7A30.48,30.48,0,0,1,59.94,74.17a15.24,15.24,0,1,1,0-30.47,15.23,15.23,0,1,0,0-30.46A30.45,30.45,0,0,1,90.41,43.7Z"/><circle class="cls-5" cx="60.95" cy="58.94" r="5.08"/><circle class="cls-6" cx="58.77" cy="28.52" r="5.13"/><path class="cls-7" d="M59.94,74.17c-18.35,0-31.88-16.07-30.39-32.5a30.57,30.57,0,0,0,17.69,25.7A15.28,15.28,0,0,0,59.94,74.17Z"/><path class="cls-8" d="M47.24,67.37a30.5,30.5,0,0,0,43.08-25.7C92.28,69.25,58.1,83.61,47.24,67.37Z"/><path class="cls-2" d="M90.32,45.67a30.45,30.45,0,0,1-60.77,0c-1.49,16.43,12,32.5,30.39,32.5A30.44,30.44,0,0,0,90.32,45.67Z"/><path class="cls-9" d="M91.42,43.68A31.49,31.49,0,1,0,59.94,75.16,31.52,31.52,0,0,0,91.42,43.68Zm-61,0A29.52,29.52,0,0,1,59.94,14.19a14.25,14.25,0,0,1,0,28.49c-15,0-22,18.64-10.64,28.49A29.54,29.54,0,0,1,30.45,43.68ZM59.94,73.16a14.24,14.24,0,1,1,0-28.48c15,0,22-18.64,10.63-28.5a29.48,29.48,0,0,1-10.63,57Z"/><path class="cls-9" d="M56.65,54.62A6.08,6.08,0,1,0,67,58.92,6.09,6.09,0,0,0,56.65,54.62Zm7.19,7.18a4.08,4.08,0,1,1-2.89-7A4.07,4.07,0,0,1,63.84,61.8Z"/><path class="cls-9" d="M58.77,34.62a6.13,6.13,0,1,0-6.14-6.13A6.14,6.14,0,0,0,58.77,34.62Zm-2.93-9.06a4.14,4.14,0,1,1,0,5.85A4.15,4.15,0,0,1,55.84,25.56Z"/><path class="cls-9" d="M112.59,68.12,105.32,58A4.41,4.41,0,0,1,105,53.4c.9-1.8.68-2.91.68-8.71C105.65,21.62,87.79,0,59.12,0A45,45,0,0,0,14.23,44.69c0,9,.86,17.05,4.9,26.73A61.71,61.71,0,0,1,24,98.92c-.65,12.08-1.4,27.87-1.41,28a1,1,0,0,0,2,.1C25.86,98.77,28.16,87.9,21.1,71,17,61.18,16.2,53.54,16.23,44.7A43,43,0,0,1,59.12,2c27.25,0,44.53,20.43,44.53,42.69,0,6,.15,6.57-.47,7.81a6.4,6.4,0,0,0,.52,6.61L111,69.28a4.35,4.35,0,0,1-2.68,6.79l-5.86,1.18a1,1,0,0,0-.81,1c0,6.56-.06,6.3.17,6.65.6.89,1.21,1.83.49,3.18A2.53,2.53,0,0,1,100,89.42H92.45a1,1,0,0,0,0,2h5.61a2.57,2.57,0,0,1,1.81,4.39c-.4.41-.29.35-.29,6.52A11.49,11.49,0,0,1,88.1,113.81c-2.14,0-2.19-.17-15.7-4a1,1,0,0,0-1.27,1V127a1,1,0,0,0,2,0V112.07c11.4,3.26,12.36,3.74,15,3.74a13.5,13.5,0,0,0,13.48-13.48V96.9a4.55,4.55,0,0,0,0-5.77,4.58,4.58,0,0,0,2.18-6.82c-.28-.41-.2.44-.2-5.26l5.06-1A6.35,6.35,0,0,0,112.59,68.12Z"/></g></svg>