<svg xmlns="http://www.w3.org/2000/svg" viewBox="0 0 128 128"><defs><style>.cls-1{fill:#f2c4b0;}.cls-2{fill:#eab39b;}.cls-3{fill:#db72b8;}.cls-4{fill:#d861b0;}.cls-5{fill:#f2b1d9;}</style></defs><title>affection</title><g id="affection"><path class="cls-1" d="M114.58,95.82a8.72,8.72,0,0,1-2.79,6.41L90.56,122.16A18.37,18.37,0,0,1,78,127.1H1V96l16.49,1.83c8.55-8.55,17.74-7.33,26.77-7.33a14.58,14.58,0,0,1,13.53,9.16H72.45c9.48,0,12,12.83,5.49,12.83a10,10,0,0,0,6.46-2.39c23.25-20,21.7-18.82,23.08-19.31A5.36,5.36,0,0,1,114.58,95.82Z"/><path class="cls-2" d="M77.94,112.45H46.8a2,2,0,0,1,0-4.08H77.94c3.84,0,3.67-2.09,3.67.41A3.68,3.68,0,0,1,77.94,112.45Z"/><path class="cls-2" d="M111.79,102.23,90.56,122.16A18.37,18.37,0,0,1,78,127.1H1V123H78a18.34,18.34,0,0,0,12.54-5c22.74-21.33,22.84-20.8,23.72-24C115.05,96.14,114.42,99.78,111.79,102.23Z"/><path class="cls-1" d="M127,.9V32l-16.49-1.83c-8.55,8.55-17.74,7.33-26.77,7.33a14.58,14.58,0,0,1-13.53-9.16H55.55c-9.36,0-12.15-12.83-5.49-12.83a9.85,9.85,0,0,0-6.46,2.39C20,38.19,21.45,37.54,18.77,37.54c-5.68,0-7.29-7.37-2.56-11.77L37.44,5.84A18.37,18.37,0,0,1,50,.9Z"/><path class="cls-2" d="M127,28V32l-16.49-1.83c-8.55,8.55-17.74,7.33-26.77,7.33a14.58,14.58,0,0,1-13.53-9.16H55.55c-6.88,0-10.44-7.3-8.81-10.71a9.15,9.15,0,0,0,8.81,6.64H70.21a14.58,14.58,0,0,0,13.53,9.16c8.55,0,18.18,1.27,26.77-7.33Z"/><path class="cls-3" d="M63.9,50.58c-7.42-12.36-26.46-7.1-26.46,7.31,0,16.29,26.46,30.54,26.46,30.54S90.36,74.18,90.36,57.89C90.36,43.49,71.32,38.21,63.9,50.58Z"/><path class="cls-4" d="M86.72,68.76C79.49,80,63.9,88.43,63.9,88.43S48.31,80,41.08,68.76A32.07,32.07,0,0,0,86.72,68.76Z"/><path class="cls-2" d="M81.2,11.48c-25.63,0-31.13,0-32,0-4.23.38-3.76.79-26.93,20.66a5.35,5.35,0,0,1-8.53-2.3c-1.78,6.42,4.73,9.63,8.53,6.38,22-18.9,22.44-20.27,27.11-20.67.66-.05-2.12,0,31.84,0A2,2,0,0,0,81.2,11.48Z"/><path class="cls-5" d="M84.27,58.9a1,1,0,0,1-1-1,7.14,7.14,0,0,0-7.13-7.13,1,1,0,0,1,0-2C84.32,48.77,87.06,58.9,84.27,58.9Z"/></g></svg>