<svg xmlns="http://www.w3.org/2000/svg" viewBox="0 0 128 128"><defs><style>.cls-1{fill:#7aa8d7;}.cls-2{fill:#5b8dc9;}</style></defs><title>Alzeimer</title><g id="Alzeimer"><path class="cls-1" d="M127,71.82a5.34,5.34,0,0,1-4.29,5.24l-5.87,1.18c0,7-.14,5.87.37,6.64a3.52,3.52,0,0,1-.5,4.54c-1.25,1.21-2.55,1-4.42,1a3.58,3.58,0,0,1,2.52,6.1c0,6,.65,10.32-3.65,14.62a12.44,12.44,0,0,1-12.25,3.17l-12.53-3.58V127H37.83c1.18-26.57,3.79-38.41-3.37-55.61a62.15,62.15,0,0,1-4.89-21.46l16.14-.14V62H57.9V49.77H74.16V57.9h8.13V49.77H74.16V33.52H90.42V45.71h12.19V33.52H90.42V17.26H74.16V1c22.63.13,44.71,16.58,44.71,43.74,0,6.06.16,6.91-.48,8.08a5.47,5.47,0,0,0,.34,5.75C126.39,69.24,127,69.52,127,71.82Z"/><path class="cls-2" d="M86.38,120.89V127H37.83s.12-2.41.28-6.09Z"/><path class="cls-2" d="M112.29,90.42a3.47,3.47,0,0,1,2.47,1H106.7a1,1,0,0,1,0-2h10C115.46,90.63,114.16,90.42,112.29,90.42Z"/><rect class="cls-1" x="53.84" y="19.29" width="12.19" height="12.19"/><rect class="cls-1" x="13.19" y="33.52" width="8.13" height="8.13"/><rect class="cls-1" x="35.55" y="29.45" width="8.13" height="8.13"/><rect class="cls-1" x="1" y="11.16" width="8.13" height="8.13"/><rect class="cls-1" x="19.29" y="1" width="12.19" height="12.19"/><rect class="cls-1" x="1" y="41.65" width="12.19" height="12.19"/><rect class="cls-1" x="45.71" y="11.16" width="8.13" height="8.13"/></g></svg>