<svg xmlns="http://www.w3.org/2000/svg" viewBox="0 0 128 128"><defs><style>.cls-1{fill:#f2c4b0;}.cls-2{fill:#eab39b;}.cls-3{fill:#7aa8d7;}</style></defs><title>Amnesia</title><g id="Amnesia"><path class="cls-1" d="M112.75,71.82a5.34,5.34,0,0,1-4.29,5.24l-5.87,1.18c0,7-.14,5.87.37,6.64a3.52,3.52,0,0,1-.5,4.54c-1.25,1.21-2.55,1-4.42,1a3.58,3.58,0,0,1,2.52,6.1c0,6,.65,10.32-3.65,14.62a12.44,12.44,0,0,1-12.25,3.17l-12.53-3.58V127H23.58C25,98,27,87.7,20.21,71.37a62.56,62.56,0,0,1-5-24.68c0-13.52,4.27-24.24,12.92-32.86,26.66-26.53,76.45-9.89,76.45,30.89,0,6.06.16,6.91-.48,8.08a5.47,5.47,0,0,0,.34,5.75C112.14,69.24,112.75,69.52,112.75,71.82Z"/><path class="cls-2" d="M72.13,120.89V127H23.58s.12-2.41.28-6.09Z"/><path class="cls-2" d="M98,90.42a3.47,3.47,0,0,1,2.47,1H92.45a1,1,0,0,1,0-2h10C101.21,90.63,99.91,90.42,98,90.42Z"/><path class="cls-2" d="M64,68H55.87V63.63A20.33,20.33,0,0,1,66,46.06,12.19,12.19,0,1,0,47.74,35.48H39.61A20.34,20.34,0,0,1,64,15.55c18.29,3.55,22.28,28.22,6.1,37.55A12.2,12.2,0,0,0,64,63.63Z"/><circle class="cls-2" cx="59.94" cy="80.19" r="4.06"/><path class="cls-3" d="M64,64H55.87V59.63A20.33,20.33,0,0,1,66,42.06,12.19,12.19,0,1,0,47.74,31.48H39.61A20.34,20.34,0,0,1,64,11.55c18.29,3.55,22.28,28.22,6.1,37.55A12.2,12.2,0,0,0,64,59.63Z"/><circle class="cls-3" cx="59.94" cy="76.19" r="4.06"/></g></svg>