<svg xmlns="http://www.w3.org/2000/svg" viewBox="0 0 128 128"><defs><style>.cls-1{fill:#d4d8e1;}.cls-2{fill:#c7cdd8;}.cls-3{fill:#7aa8d7;}.cls-4{fill:#5b8dc9;}.cls-5{fill:#949aaf;}.cls-6{fill:#8288a1;}.cls-7{fill:#e2607f;}</style></defs><title>Anorexia</title><g id="Anorexia"><path class="cls-1" d="M114.81,1H82.29A12.19,12.19,0,0,0,70.1,13.19V47.74L59.94,57.9h54.87A12.19,12.19,0,0,0,127,45.71V13.19A12.19,12.19,0,0,0,114.81,1Z"/><path class="cls-2" d="M127,39.61v6.1A12.2,12.2,0,0,1,114.81,57.9H59.94L70.1,47.74V39.61a12.2,12.2,0,0,0,12.19,12.2h32.52A12.21,12.21,0,0,0,127,39.61Z"/><path class="cls-3" d="M33.52,92.45A18.29,18.29,0,0,1,15.23,74.16V62a18.29,18.29,0,0,1,36.58,0V74.16A18.29,18.29,0,0,1,33.52,92.45Z"/><path class="cls-4" d="M51.81,70.1v4.06a18.29,18.29,0,1,1-36.58,0V70.1a18.29,18.29,0,1,0,36.58,0Z"/><path class="cls-3" d="M66,112.77V127H1V112.77A20.33,20.33,0,0,1,21.32,92.45H45.71A20.33,20.33,0,0,1,66,112.77Z"/><path class="cls-5" d="M116.84,20.1c0,5.17-3.64,9.35-8.13,9.35s-8.13-4.18-8.13-9.35c0-6.28,3.27-13,8.13-13S116.84,13.82,116.84,20.1Z"/><path class="cls-6" d="M108.71,29.45c-4.56,0-8.95-4.4-8-11.68,1.62,10.12,14.36,10.11,16,0C117.64,24.94,113.34,29.45,108.71,29.45Z"/><rect class="cls-4" x="1" y="122.94" width="65.03" height="4.06"/><path class="cls-4" d="M14.19,110.74V127h-2V110.74A1,1,0,0,1,14.19,110.74Z"/><path class="cls-4" d="M54.84,110.74V127h-2V110.74A1,1,0,0,1,54.84,110.74Z"/><path class="cls-7" d="M29.45,85.32a1,1,0,0,1-.71-1.7l8.13-8.13a1,1,0,0,1,1.42,1.41C29.53,85.66,30,85.32,29.45,85.32Z"/><path class="cls-7" d="M37.58,85.32c-.59,0-.06.36-8.84-8.42a1,1,0,0,1,1.42-1.41l8.13,8.13A1,1,0,0,1,37.58,85.32Z"/><path class="cls-5" d="M90.42,26.39H86.35a5.07,5.07,0,0,1-5.06-5.07V9.13a1,1,0,0,1,2,0V21.32a3.07,3.07,0,0,0,3.06,3.07h4.07a3.07,3.07,0,0,0,3.06-3.07V9.13a1,1,0,0,1,2,0V21.32A5.07,5.07,0,0,1,90.42,26.39Z"/><path class="cls-5" d="M87.39,49.77V9.13a1,1,0,0,1,2,0V49.77A1,1,0,0,1,87.39,49.77Z"/><path class="cls-5" d="M107.71,49.77V27.42a1,1,0,0,1,2,0V49.77A1,1,0,0,1,107.71,49.77Z"/></g></svg>