<svg xmlns="http://www.w3.org/2000/svg" viewBox="0 0 128 128"><defs><style>.cls-1{fill:#f2c4b0;}.cls-2{fill:#eab39b;}.cls-3{fill:#fbcc88;}.cls-4{fill:#9dd5df;}.cls-5{fill:#6ab891;}.cls-6{fill:#7aa8d7;}</style></defs><title>Autism</title><g id="Autism"><path class="cls-1" d="M112.75,71.82a5.34,5.34,0,0,1-4.29,5.24l-5.87,1.18c0,7-.14,5.87.37,6.64a3.52,3.52,0,0,1-.5,4.54c-1.25,1.21-2.55,1-4.42,1a3.58,3.58,0,0,1,2.52,6.1c0,6,.65,10.32-3.65,14.62a12.44,12.44,0,0,1-12.25,3.17l-12.53-3.58V127H23.58C25,98,27,87.7,20.21,71.37c-6.14-14-7.32-33.9.72-48.1,21.49-38,83.69-24.78,83.69,21.45,0,6.06.16,6.91-.48,8.08a5.47,5.47,0,0,0,.34,5.75C112.14,69.24,112.75,69.52,112.75,71.82Z"/><path class="cls-2" d="M84.32,25.32V45.65H76.19a4.07,4.07,0,0,1-8.13,0H59.94V37.52a4.07,4.07,0,0,0,0-8.13V21.26h8.12a4.07,4.07,0,1,1,8.13,0h4.07A4.08,4.08,0,0,1,84.32,25.32Z"/><path class="cls-2" d="M88.39,57.84a4.08,4.08,0,0,1-4.07,4.06V66A4.08,4.08,0,0,1,80.26,70H59.94V61.9a4.07,4.07,0,1,1,0-8.13V45.65h8.12a4.07,4.07,0,0,0,8.13,0h8.13v8.12A4.08,4.08,0,0,1,88.39,57.84Z"/><path class="cls-2" d="M55.87,57.84a4.08,4.08,0,0,0,4.07,4.06V70H51.81a4.07,4.07,0,1,1-8.13,0H39.61A4.08,4.08,0,0,1,35.55,66V45.65h8.13a4.07,4.07,0,1,1,8.13,0h8.13v8.12A4.08,4.08,0,0,0,55.87,57.84Z"/><path class="cls-2" d="M49.77,19.23a4.07,4.07,0,0,1-4.06,4.06v8.13H37.58a4.07,4.07,0,1,0-8.13,0H21.32V23.29l-.39,0A44.37,44.37,0,0,1,37,7h8.72v8.13A4.07,4.07,0,0,1,49.77,19.23Z"/><path class="cls-2" d="M72.13,120.89V127H23.58s.12-2.41.28-6.09Z"/><path class="cls-2" d="M98,90.42a3.47,3.47,0,0,1,2.47,1H92.45a1,1,0,0,1,0-2h10C101.21,90.63,99.91,90.42,98,90.42Z"/><path class="cls-3" d="M84.32,21.32V41.65H76.19a4.07,4.07,0,0,1-8.13,0H59.94V33.52a4.07,4.07,0,0,0,0-8.13V17.26h8.12a4.07,4.07,0,1,1,8.13,0h4.07A4.08,4.08,0,0,1,84.32,21.32Z"/><path class="cls-4" d="M88.39,53.84a4.08,4.08,0,0,1-4.07,4.06V62A4.08,4.08,0,0,1,80.26,66H59.94V57.9a4.07,4.07,0,1,1,0-8.13V41.65h8.12a4.07,4.07,0,0,0,8.13,0h8.13v8.12A4.08,4.08,0,0,1,88.39,53.84Z"/><path class="cls-5" d="M55.87,53.84a4.08,4.08,0,0,0,4.07,4.06V66H51.81a4.07,4.07,0,1,1-8.13,0H39.61A4.08,4.08,0,0,1,35.55,62V41.65h8.13a4.07,4.07,0,1,1,8.13,0h8.13v8.12A4.08,4.08,0,0,0,55.87,53.84Z"/><path class="cls-6" d="M49.77,15.23a4.07,4.07,0,0,1-4.06,4.06v8.13H37.58a4.07,4.07,0,1,0-8.13,0H21.32V19.29a4.07,4.07,0,0,1,0-8.13V7.1A4.08,4.08,0,0,1,25.39,3H45.71v8.13A4.07,4.07,0,0,1,49.77,15.23Z"/></g></svg>