<svg xmlns="http://www.w3.org/2000/svg" viewBox="0 0 128 128"><defs><style>.cls-1{fill:#f2c4b0;}.cls-2{fill:#eab39b;}.cls-3{fill:#7aa8d7;}.cls-4{fill:#949aaf;}.cls-5{fill:#8288a1;}.cls-6{fill:#fbcc88;}.cls-7{fill:#fff;}</style></defs><title>Axiety</title><g id="Axiety"><path class="cls-1" d="M112.75,79.82a5.34,5.34,0,0,1-4.29,5.24l-5.87,1.18c0,7-.14,5.87.37,6.64a3.52,3.52,0,0,1-.5,4.54c-1.25,1.21-2.55,1-4.42,1a3.58,3.58,0,0,1,2.52,6.1c0,6,.65,10.32-3.65,14.62a12.44,12.44,0,0,1-12.25,3.17l-12.53-3.58V127H24c1.32-21.7,2.43-32.68-3.8-47.63a62.56,62.56,0,0,1-5-24.68c0-13.52,4.27-24.24,12.92-32.86,26.66-26.53,76.45-9.89,76.45,30.89,0,6.06.16,6.91-.48,8.08a5.47,5.47,0,0,0,.34,5.75C112.14,77.24,112.75,77.52,112.75,79.82Z"/><path class="cls-2" d="M83.9,43.78A6.09,6.09,0,0,0,75.79,36a16.25,16.25,0,0,0-32.11,3.56,10.16,10.16,0,0,0,0,20.32h6.09l8.13,4.07V80.19L74.16,59.87h8.13A8.13,8.13,0,0,0,83.9,43.78Z"/><path class="cls-2" d="M72.13,120.91V127H24c.13-2.14.25-4.16.36-6.09Z"/><path class="cls-2" d="M98,98.42a3.47,3.47,0,0,1,2.47,1H92.45a1,1,0,0,1,0-2h10C101.21,98.63,99.91,98.42,98,98.42Z"/><path class="cls-3" d="M15.09,126.29a1,1,0,0,1,1.41,1.42A1,1,0,0,1,15.09,126.29Z"/><path class="cls-3" d="M16,122a1,1,0,0,1-.95-1.05h0a1,1,0,0,1,2,.1C17.19,121.09,17,122,16,122Zm.3-6a1,1,0,0,1-.95-1h0a1,1,0,0,1,2,.1C17.49,115.13,17.28,116.08,16.34,116.08Zm.31-6a1,1,0,0,1-.95-1.05h0a1,1,0,0,1,2,.1C17.8,109.17,17.59,110.12,16.65,110.12Zm-.74-7h0a1,1,0,0,1,2,0h0c0,1-1.11,1-1,1A1,1,0,0,1,15.91,103.17Zm-.38-5.84a1,1,0,0,1,2-.24h0A1,1,0,0,1,15.53,97.33Zm-1-5.77a1,1,0,0,1,.75-1.2h0a1,1,0,1,1,.45,2A1,1,0,0,1,14.52,91.56Zm-1.63-5.62h0a1,1,0,0,1,.61-1.28h0a1,1,0,1,1-.61,1.28Zm-2.17-5.53a1,1,0,0,1,.58-1.29h0A1,1,0,0,1,12,81,1,1,0,0,1,10.72,80.41Zm-1.9-5.74a1,1,0,0,1,.69-1.24h0a1,1,0,1,1,.54,1.92A1,1,0,0,1,8.82,74.67ZM7.41,68.78h0a1,1,0,0,1,.79-1.17h0a1,1,0,1,1-.79,1.17Zm-.9-6h0a1,1,0,0,1,2-.21h0A1,1,0,0,1,6.51,62.8Zm105.26-5.63a1,1,0,0,1,2,0h0A1,1,0,0,1,111.77,57.17ZM6.11,56.76a1,1,0,0,1,2,0h0A1,1,0,0,1,6.11,56.76Zm105.64-5.52a1,1,0,0,1,2-.07h0A1,1,0,0,1,111.75,51.24ZM7.1,51.78a1,1,0,0,1-1-1.05h0a1,1,0,0,1,2,.09C8.24,50.82,8,51.78,7.1,51.78Zm104.14-6.37a1,1,0,0,1,.84-1.13,1,1,0,1,1-.84,1.13ZM7.58,45.83c-.82-.12-.94-1.14-.83-1.14a1,1,0,0,1,2,.31C8.84,45,8.39,46,7.58,45.83Zm102.47-6.14a1,1,0,0,1,.71-1.23h0a1,1,0,0,1,.52,1.94A1,1,0,0,1,110.05,39.69ZM8.74,40A1,1,0,1,1,10,39.29C10.09,39.29,9.54,40.25,8.74,40Zm99.48-5.84h0a1,1,0,0,1,.56-1.3h0a1,1,0,0,1,1.3.56c.19,0,.16,1.37-.93,1.37A1,1,0,0,1,108.22,34.14Zm-97.65.17a1,1,0,1,1,1.31-.55A1,1,0,0,1,10.57,34.31Zm95.18-5.47a1,1,0,0,1,.41-1.35h0a1,1,0,0,1,1,1.76A1,1,0,0,1,105.75,28.84Zm-92.7,0c-.65-.36-.56-1.36-.4-1.36A1,1,0,0,1,14,27.13h0A1,1,0,0,1,13.05,28.88Zm89.64-5a1,1,0,0,1,.25-1.39h0a1,1,0,0,1,1.15,1.64A1,1,0,0,1,102.69,23.86Zm-86.56-.09a1,1,0,0,1-.24-1.39h0a1,1,0,0,1,1.63,1.16A1,1,0,0,1,16.13,23.77Zm83-4.51h0a1,1,0,0,1,.09-1.41,1,1,0,1,1-.09,1.41Zm-79.31-.21a1,1,0,0,1-.08-1.42h0A1,1,0,0,1,21.18,19,1,1,0,0,1,19.77,19.05Zm75.2-4a1,1,0,0,1-.07-1.41h0A1,1,0,1,1,95,15.1Zm-71-.34c-.46-.51-.14-1.41.08-1.41a1,1,0,0,1,1.33,1.5A1,1,0,0,1,23.92,14.76Zm66.5-3.32a1,1,0,0,1-.24-1.4h0a1,1,0,1,1,.24,1.4ZM28.52,11a1,1,0,0,1,.25-1.39h0a1,1,0,0,1,1.15,1.64A1,1,0,0,1,28.52,11Zm57-2.67h0a1,1,0,1,1,1.36-.39A1,1,0,0,1,85.47,8.31ZM33.53,7.75a1,1,0,0,1,.4-1.36h0a1,1,0,0,1,1,1.76A1,1,0,0,1,33.53,7.75Zm46.67-2a1,1,0,1,1,1.3-.54A1,1,0,0,1,80.2,5.78ZM38.87,5.1a1,1,0,0,1,.56-1.3h0a1,1,0,0,1,.74,1.86A1,1,0,0,1,38.87,5.1Zm35.8-1.22h0c-.81-.23-.81-1.23-.7-1.23a1,1,0,0,1,1.93.54c.1,0-.27.73-1,.73h0A.84.84,0,0,1,74.67,3.88ZM44.49,3.09a1,1,0,0,1,.7-1.23h0a1,1,0,0,1,1.23.7c.11,0,.11,1-.7,1.23A1,1,0,0,1,44.49,3.09ZM69,2.63a1,1,0,0,1-.83-1.14h0a1,1,0,0,1,2,.31C70.21,1.8,69.77,2.79,69,2.63ZM50.29,1.74A1,1,0,0,1,51.13.6a1,1,0,1,1-.84,1.14ZM62.18,1a1,1,0,0,1,2,.09h0A1,1,0,0,1,62.18,1ZM57.26,2a1,1,0,1,1,1-1h0C58.26,2,57.16,2,57.26,2Z"/><path class="cls-3" d="M112,64.17a1,1,0,1,1,1-1A1,1,0,0,1,112,64.17Z"/><path class="cls-3" d="M116,90.4a1,1,0,1,1,1.42,0A1,1,0,0,1,116,90.4Zm3.7-4.75a1,1,0,1,1,1.3-.58A1,1,0,0,1,119.66,85.65Zm.2-6.8a1,1,0,0,1,2-.17h0A1,1,0,0,1,119.86,78.85Zm-1.71-5.28a1,1,0,0,1,.34-1.38h0a1,1,0,1,1-.34,1.38Zm-3.44-4.89a1,1,0,0,1,.23-1.4,1,1,0,1,1-.23,1.4Z"/><path class="cls-3" d="M111.49,93.78a1,1,0,0,1-1-1,1,1,0,1,1,1,1Z"/><path class="cls-3" d="M104.16,123.39a1,1,0,0,1-.22-1.4h0a1,1,0,0,1,1.62,1.18A1,1,0,0,1,104.16,123.39ZM107.3,118a1,1,0,0,1,.64-1.9,1,1,0,0,1,.63,1.27A1,1,0,0,1,107.3,118Zm.41-7.1h0a1,1,0,0,1,2,0h0A1,1,0,1,1,107.71,110.92Zm1.5-5.11a1,1,0,0,1,.47-2,1,1,0,0,1,.74,1.21h0A1,1,0,0,1,109.21,105.81Zm1.47-5.94a1,1,0,0,1-.6-1.28h0a1,1,0,0,1,1.88.68A1,1,0,0,1,110.68,99.87Z"/><path class="cls-3" d="M100.36,128a1,1,0,1,1,1-1A1,1,0,0,1,100.36,128Z"/><path class="cls-4" d="M82.29,55.87A8.13,8.13,0,0,0,83.9,39.78,6.09,6.09,0,0,0,75.79,32a16.25,16.25,0,0,0-32.11,3.56,10.16,10.16,0,0,0,0,20.32Z"/><path class="cls-5" d="M82.29,55.87H43.68a10.17,10.17,0,0,1-9.85-12.66,10.16,10.16,0,0,0,9.85,7.66H82.29A8.13,8.13,0,0,0,90,45.25,8.13,8.13,0,0,1,82.29,55.87Z"/><polygon class="cls-6" points="74.16 55.87 66.03 51.81 66.03 35.55 49.77 55.87 57.9 59.94 57.9 76.19 74.16 55.87"/><path class="cls-7" d="M31.48,69.06a1,1,0,0,1-.89-1.44l2-4.07a1,1,0,0,1,1.79.9C32.28,68.7,32.31,69.06,31.48,69.06Z"/><path class="cls-7" d="M43.68,69.06a1,1,0,0,1-.9-1.44l2-4.07a1,1,0,0,1,1.78.9C44.48,68.7,44.5,69.06,43.68,69.06Z"/><path class="cls-7" d="M35.55,79.23a1,1,0,0,1-.9-1.45l2-4.07a1,1,0,0,1,1.79.9C36.35,78.86,36.37,79.23,35.55,79.23Z"/><path class="cls-7" d="M47.74,79.23a1,1,0,0,1-.89-1.45l2-4.07a1,1,0,0,1,1.79.9C48.54,78.86,48.57,79.23,47.74,79.23Z"/><path class="cls-7" d="M68.06,79.23a1,1,0,0,1-.89-1.45l2-4.07a1,1,0,0,1,1.79.9C68.86,78.86,68.89,79.23,68.06,79.23Z"/><path class="cls-7" d="M80.26,79.23a1,1,0,0,1-.9-1.45l2-4.07a1,1,0,0,1,1.78.9C81.06,78.86,81.08,79.23,80.26,79.23Z"/><path class="cls-7" d="M76.19,69.06a1,1,0,0,1-.89-1.44l2-4.07a1,1,0,0,1,1.79.9C77,68.7,77,69.06,76.19,69.06Z"/><path class="cls-7" d="M88.39,69.06a1,1,0,0,1-.9-1.44l2-4.07a1,1,0,0,1,1.78.9C89.19,68.7,89.21,69.06,88.39,69.06Z"/></g></svg>