<svg xmlns="http://www.w3.org/2000/svg" viewBox="0 0 128 128"><defs><style>.cls-1{fill:#7aa8d7;}.cls-2{fill:#5b8dc9;}.cls-3{fill:#fbcc88;}.cls-4{fill:#f6b756;}.cls-5{fill:#8cdd79;}.cls-6{fill:#7ece67;}.cls-7{fill:#454b60;}.cls-8{fill:#e2607f;}</style></defs><title>Bipolar</title><g id="Bipolar"><path class="cls-1" d="M64,92.45A18.29,18.29,0,0,1,45.71,74.16V62a18.29,18.29,0,0,1,36.58,0V74.16A18.29,18.29,0,0,1,64,92.45Z"/><path class="cls-2" d="M82.29,70.1v4.06a18.29,18.29,0,0,1-36.58,0V70.1a18.29,18.29,0,0,0,36.58,0Z"/><path class="cls-1" d="M96.51,112.77V127h-65V112.77A20.32,20.32,0,0,1,51.81,92.45H76.19A20.32,20.32,0,0,1,96.51,112.77Z"/><rect class="cls-2" x="31.49" y="122.93" width="65.02" height="4.06"/><path class="cls-2" d="M44.68,110.74V127h-2V110.74A1,1,0,0,1,44.68,110.74Z"/><path class="cls-2" d="M85.32,110.74V127h-2V110.74A1,1,0,0,1,85.32,110.74Z"/><circle class="cls-3" cx="108.7" cy="19.3" r="18.29"/><path class="cls-4" d="M108.7,37.58A18.27,18.27,0,0,1,90.54,17.26a18.28,18.28,0,0,0,36.33,0A18.28,18.28,0,0,1,108.7,37.58Z"/><circle class="cls-5" cx="19.3" cy="19.3" r="18.29"/><path class="cls-6" d="M19.3,37.58A18.28,18.28,0,0,1,1.13,17.26a18.28,18.28,0,0,0,36.33,0A18.27,18.27,0,0,1,19.3,37.58Z"/><path class="cls-7" d="M24.33,28.47a7.14,7.14,0,0,0-10.08,0,1,1,0,0,1-1.42-1.41c5.82-5.82,14.88-.55,12.92,1.41A1,1,0,0,1,24.33,28.47Z"/><path class="cls-7" d="M102.25,28.13a1,1,0,0,1,1.42-1.42,7.12,7.12,0,0,0,10.08,0,1,1,0,0,1,1.42,1.42A9.14,9.14,0,0,1,102.25,28.13Z"/><path class="cls-7" d="M99.58,17.26v-2a1,1,0,0,1,2,0v2A1,1,0,0,1,99.58,17.26Z"/><path class="cls-7" d="M115.84,17.26v-2a1,1,0,0,1,2,0v2A1,1,0,0,1,115.84,17.26Z"/><path class="cls-7" d="M9.13,18.26a1,1,0,0,1-.45-1.9l4.07-2a1,1,0,0,1,.89,1.79C9.26,18.31,9.46,18.26,9.13,18.26Z"/><path class="cls-7" d="M29.45,18.26c-.34,0-.16,0-4.51-2.14a1,1,0,0,1,.89-1.79l4.07,2A1,1,0,0,1,29.45,18.26Z"/><path class="cls-8" d="M80.26,12.16H47.74a1,1,0,0,1,0-2H80.26A1,1,0,0,1,80.26,12.16Z"/><path class="cls-8" d="M53.84,18.26c-.58,0-.24.17-6.8-6.39a1,1,0,0,1,0-1.42l6.09-6.09a1,1,0,0,1,1.42,1.41l-5.39,5.39,5.39,5.39A1,1,0,0,1,53.84,18.26Z"/><path class="cls-8" d="M80.26,28.42H47.74a1,1,0,0,1,0-2H80.26A1,1,0,0,1,80.26,28.42Z"/><path class="cls-8" d="M74.16,34.52a1,1,0,0,1-.71-1.71l5.39-5.39L73.45,22a1,1,0,0,1,1.42-1.41L81,26.71a1,1,0,0,1,0,1.42C74.44,34.65,74.75,34.52,74.16,34.52Z"/><path class="cls-2" d="M68.06,83.29H59.94a1,1,0,0,1,0-2h8.12A1,1,0,0,1,68.06,83.29Z"/></g></svg>