<svg xmlns="http://www.w3.org/2000/svg" viewBox="0 0 128 128"><defs><style>.cls-1{fill:#d4d8e1;}.cls-2{fill:#c7cdd8;}.cls-3{fill:#7aa8d7;}.cls-4{fill:#949aaf;}.cls-5{fill:#5b8dc9;}.cls-6{fill:#8288a1;}</style></defs><title>Book</title><g id="Book"><path class="cls-1" d="M112.78,110.74V127H23.37a8.13,8.13,0,1,1,0-16.26Z"/><path class="cls-2" d="M112.78,122.94V127H23.37a8.13,8.13,0,0,1-7.87-10.16,8.13,8.13,0,0,0,7.87,6.1Z"/><path class="cls-3" d="M112.78,1V110.74H23.37a8.12,8.12,0,0,0-8.13,8.13V9.13A8.12,8.12,0,0,1,23.37,1Z"/><rect class="cls-1" x="39.62" y="17.26" width="60.97" height="40.65"/><rect class="cls-2" x="39.62" y="51.81" width="60.97" height="6.1"/><path class="cls-4" d="M27.43,1V110.74H23.37a8.12,8.12,0,0,0-8.13,8.13V9.13A8.12,8.12,0,0,1,23.37,1Z"/><rect class="cls-5" x="27.43" y="106.68" width="85.35" height="4.06"/><path class="cls-6" d="M27.43,106.68v4.06H23.37a8.12,8.12,0,0,0-8.13,8.13v-9.06C19.28,106.15,23.37,106.68,27.43,106.68Z"/><path class="cls-2" d="M112.77,117.87H23.35a1,1,0,0,0,0,2h89.42A1,1,0,0,0,112.77,117.87Z"/><path class="cls-5" d="M59.94,28.42c2,0-2.38,12.19,8.12,12.19h1v6.13h-1a1,1,0,0,0,0,2h4.07a1,1,0,0,0,0-2h-1V40.61c6,0,8.28-1.85,8.47-9.09.06-2.14.17-3.1.69-3.1a1,1,0,0,0,0-2c-2.55,0-2.62,2.68-2.69,5-.17,6.3-1.63,7.15-6.47,7.15V28.42h1a1,1,0,0,0,0-2H68.06a1,1,0,0,0,0,2h1V38.61h-1c-9.34,0-2.38-12.19-8.12-12.19A1,1,0,0,0,59.94,28.42Z"/><path class="cls-5" d="M43.68,85.32H96.52a1,1,0,0,0,0-2H43.68A1,1,0,0,0,43.68,85.32Z"/><path class="cls-5" d="M43.68,97.52H96.52a1,1,0,0,0,0-2H43.68A1,1,0,0,0,43.68,97.52Z"/></g></svg>