<svg xmlns="http://www.w3.org/2000/svg" viewBox="0 0 128 128"><defs><style>.cls-1{fill:#f2c4b0;}.cls-2{fill:#eab39b;}.cls-3{fill:#db72b8;}.cls-4{fill:#d861b0;}</style></defs><title>Brain Head</title><g id="Brain_Head" data-name="Brain Head"><path class="cls-1" d="M112.75,71.82a5.34,5.34,0,0,1-4.29,5.24l-5.87,1.18c0,7-.14,5.87.37,6.64a3.52,3.52,0,0,1-.5,4.54c-1.25,1.21-2.55,1-4.42,1a3.58,3.58,0,0,1,2.52,6.1c0,6,.65,10.32-3.65,14.62a12.44,12.44,0,0,1-12.25,3.17l-12.53-3.58V127H23.58C25,98,27,87.7,20.21,71.37a62.56,62.56,0,0,1-5-24.68c0-13.52,4.27-24.24,12.92-32.86,26.66-26.53,76.45-9.89,76.45,30.89,0,6.06.16,6.91-.48,8.08a5.47,5.47,0,0,0,.34,5.75C112.14,69.24,112.75,69.52,112.75,71.82Z"/><path class="cls-2" d="M76.05,49.23a8.14,8.14,0,0,1-8,6.6c-14.22,0-18.28,24.37-18.28,24.37H43.69l1.64-16.37A12.18,12.18,0,0,1,31.5,51.77c0-2.1.4-2,0-2a6.09,6.09,0,0,1-4.22-10.46A7.1,7.1,0,0,1,31.6,27.45c-1-4.4,3.64-9.32,8.64-8a7.09,7.09,0,0,1,9.18-3.74,7.07,7.07,0,0,1,10.52-.4A7,7,0,0,1,65,13.17c5.21,0,6.38,4.49,6.6,4.49a8,8,0,0,1,9.6,3.72,8.1,8.1,0,0,1,9.08,9.28C100.57,38.67,90.36,52.75,76.05,49.23Z"/><path class="cls-3" d="M76.05,45.23a8.14,8.14,0,0,1-8,6.6c-14.22,0-18.28,24.37-18.28,24.37H43.69l1.64-16.37A12.18,12.18,0,0,1,31.5,47.77c0-2.1.4-2,0-2a6.09,6.09,0,0,1-4.22-10.46A7.1,7.1,0,0,1,31.6,23.45c-1-4.4,3.64-9.32,8.64-8a7.09,7.09,0,0,1,9.18-3.74,7.07,7.07,0,0,1,10.52-.4A7,7,0,0,1,65,9.17c5.21,0,6.38,4.49,6.6,4.49a8,8,0,0,1,9.6,3.72,8.1,8.1,0,0,1,9.08,9.28C100.57,34.67,90.36,48.75,76.05,45.23Z"/><path class="cls-4" d="M31.68,45.74a12.16,12.16,0,0,0,13.65,10l-.4,4.1C37.46,61,30.21,53.82,31.68,45.74Z"/><path class="cls-4" d="M76.05,45.23a8.14,8.14,0,0,1-8,6.6c-14.22,0-18.28,24.37-18.28,24.37H43.69l.4-4.06A7.19,7.19,0,0,0,51,67c2.07-7.15,7-19.23,17.05-19.23a8.15,8.15,0,0,0,8-6.6c8.32,2,16.7-2.24,18.17-8.64C96.23,40.54,86.44,47.79,76.05,45.23Z"/><path class="cls-2" d="M72.13,120.89V127H23.58s.12-2.41.28-6.09Z"/><path class="cls-2" d="M98,90.42a3.47,3.47,0,0,1,2.47,1H92.45a1,1,0,0,1,0-2h10C101.21,90.63,99.91,90.42,98,90.42Z"/><path class="cls-4" d="M82.29,34.52a1,1,0,0,1,0-2,7.16,7.16,0,0,0,7-6,1,1,0,0,1,2,.3A9.18,9.18,0,0,1,82.29,34.52Z"/><path class="cls-4" d="M70.16,29.48a1,1,0,0,1-.13-2,4.85,4.85,0,0,0,4.21-4.25,1,1,0,0,1,2,.25C75.8,27,72.68,29.48,70.16,29.48Z"/><path class="cls-4" d="M52.84,18.27A6.07,6.07,0,0,0,49,12.62a1,1,0,0,1,.76-1.86,8.09,8.09,0,0,1,5.05,7.51A1,1,0,0,1,52.84,18.27Z"/><path class="cls-4" d="M30.68,45.52a13.24,13.24,0,0,1,6-8.93,1,1,0,0,1,1.06,1.7,11.13,11.13,0,0,0-5,7.57A1,1,0,0,1,30.68,45.52Z"/><path class="cls-4" d="M75.07,45a7.15,7.15,0,0,0-7-8.45,1,1,0,0,1,0-2A9.15,9.15,0,0,1,77,45.4,1,1,0,0,1,75.07,45Z"/><path class="cls-4" d="M50.79,36.55c-11.9,0-13.76-8.1-11.18-8.1a1,1,0,0,1,1,1c0,2.76,4.66,5.1,10.18,5.1S61,32.21,61,29.45a1,1,0,0,1,1-1C64.58,28.45,62.6,36.55,50.79,36.55Z"/><path class="cls-4" d="M55.87,28.42c-2.57,0-.33-8.1,6.1-8.1a1,1,0,0,1,0,2,5.11,5.11,0,0,0-5.1,5.1A1,1,0,0,1,55.87,28.42Z"/><path class="cls-4" d="M45.71,52.81a7.11,7.11,0,0,1-7.1-7.1,1,1,0,0,1,2,0,5.11,5.11,0,0,0,5.1,5.1A1,1,0,0,1,45.71,52.81Z"/><path class="cls-4" d="M58.92,46.71A8.11,8.11,0,0,1,51.67,35a1,1,0,0,1,1.78.93,6.1,6.1,0,0,0,5.47,8.78A1,1,0,0,1,58.92,46.71Z"/></g></svg>