<svg xmlns="http://www.w3.org/2000/svg" viewBox="0 0 128 128"><defs><style>.cls-1{fill:#db72b8;}.cls-2{fill:#d861b0;}.cls-3{fill:#7aa8d7;}.cls-4{fill:#5b8dc9;}.cls-5{fill:#d4d8e1;}</style></defs><title>Brain</title><g id="Brain"><path class="cls-1" d="M115.86,49.12a16.25,16.25,0,0,0-14-21.63c3.31-8.67-4.61-17.95-13.62-16.1A12.18,12.18,0,0,0,64,13.22a12.18,12.18,0,0,0-24.23-1.83c-9-1.85-16.93,7.42-13.62,16.1a16.25,16.25,0,0,0-14,21.63,14.2,14.2,0,0,0,1,22.44,16.25,16.25,0,0,0,4.59,25,16.23,16.23,0,0,0,11.29,19.55C37.07,134,64,128.28,64,108.66c0,19.58,26.91,25.41,34.93,7.49A16.23,16.23,0,0,0,110.22,96.6a16.25,16.25,0,0,0,4.59-25A14.2,14.2,0,0,0,115.86,49.12Z"/><path class="cls-2" d="M110.4,97.49a16.2,16.2,0,0,1-11.47,18.66C90.93,134,64,128.28,64,108.66c0,19.58-26.91,25.41-34.93,7.49A16.2,16.2,0,0,1,17.6,97.49a16.21,16.21,0,0,0,11.47,12.57C37.07,128,64,122.19,64,102.57c0,19.58,26.91,25.4,34.93,7.49A16.21,16.21,0,0,0,110.4,97.49Z"/><path class="cls-2" d="M83.15,126.89C74.71,128.1,64,120.23,64,108.66c0,11.74-11,19.4-19.15,18.23A18.26,18.26,0,0,0,62,108.66V13.22A12.18,12.18,0,0,0,50.84,1.09C57.24.29,64,5.7,64,13.22,64,5.74,70.72.29,77.16,1.09A12.18,12.18,0,0,0,66,13.22v95.44A18.26,18.26,0,0,0,83.15,126.89Z"/><path class="cls-2" d="M64,88.35A22.32,22.32,0,0,1,41.76,64a22.33,22.33,0,0,0,44.48,0A22.32,22.32,0,0,1,64,88.35Z"/><path class="cls-2" d="M63,108.71A19.17,19.17,0,0,1,81.76,89.44a1,1,0,0,1,0,2A17.18,17.18,0,0,0,65,108.71,1,1,0,0,1,63,108.71Z"/><path class="cls-2" d="M94.1,68.53a1,1,0,0,1,1.66-1.13,13.18,13.18,0,0,0,10.92,5.76c6.38,0,7.79-3.86,9-2.15a1,1,0,0,1-.25,1.39A15.23,15.23,0,0,1,94.1,68.53Z"/><path class="cls-2" d="M77.23,23.35a13.15,13.15,0,0,1,10.84-13,1,1,0,0,1,.35,2,11.15,11.15,0,0,0-9.19,11A1,1,0,0,1,77.23,23.35Z"/><path class="cls-2" d="M96.38,50C84.2,50,78.24,35.22,86.75,26.71a1,1,0,0,1,1.41,1.42,11.52,11.52,0,0,0-3.41,8.22,11.65,11.65,0,0,0,19.86,8.23A1,1,0,1,1,106,46,13.56,13.56,0,0,1,96.38,50Z"/><path class="cls-2" d="M87.36,59a1,1,0,0,1,0-2,8,8,0,0,0,8-8,1,1,0,0,1,2,0A10,10,0,0,1,87.36,59Z"/><path class="cls-2" d="M82.83,106.68A15.74,15.74,0,0,1,98.55,91a1,1,0,0,1,0,2,13.73,13.73,0,0,0-13.72,13.72A1,1,0,0,1,82.83,106.68Z"/><path class="cls-2" d="M93.48,91.44A14.25,14.25,0,0,0,81,77.31a1,1,0,0,1,.25-2A16.26,16.26,0,0,1,95.48,91.44,1,1,0,0,1,93.48,91.44Z"/><path class="cls-2" d="M63,108.71A17.18,17.18,0,0,0,46.19,91.44a1,1,0,0,1,.05-2A19.17,19.17,0,0,1,65,108.71,1,1,0,0,1,63,108.71Z"/><path class="cls-2" d="M12.58,72.4A1,1,0,0,1,12.33,71c1.2-1.71,2.6,2.15,9,2.15A13.18,13.18,0,0,0,32.24,67.4a1,1,0,0,1,1.66,1.13A15.24,15.24,0,0,1,12.58,72.4Z"/><path class="cls-2" d="M48.77,23.35a11.15,11.15,0,0,0-9.19-11,1,1,0,0,1,.35-2,13.15,13.15,0,0,1,10.84,13A1,1,0,0,1,48.77,23.35Z"/><path class="cls-2" d="M31.62,50A13.56,13.56,0,0,1,22,46a1,1,0,0,1,1.41-1.41A11.63,11.63,0,0,0,39.84,28.13a1,1,0,0,1,1.41-1.42C49.87,35.33,43.66,50,31.62,50Z"/><path class="cls-2" d="M40.64,59a10,10,0,0,1-10-10,1,1,0,0,1,2,0,8,8,0,0,0,8,8A1,1,0,0,1,40.64,59Z"/><path class="cls-2" d="M43.17,106.68A13.73,13.73,0,0,0,29.45,93a1,1,0,0,1,0-2,15.74,15.74,0,0,1,15.72,15.72A1,1,0,0,1,43.17,106.68Z"/><path class="cls-2" d="M32.52,91.44A16.26,16.26,0,0,1,46.74,75.32a1,1,0,0,1,.25,2A14.25,14.25,0,0,0,34.52,91.44,1,1,0,0,1,32.52,91.44Z"/><circle class="cls-3" cx="64" cy="61.95" r="22.34"/><path class="cls-4" d="M64,84.29A22.32,22.32,0,0,1,41.76,59.92a22.33,22.33,0,0,0,44.48,0A22.32,22.32,0,0,1,64,84.29Z"/><polygon class="cls-5" points="76.18 57.89 68.06 57.89 68.06 49.77 59.94 49.77 59.94 57.89 51.82 57.89 51.82 66.02 59.94 66.02 59.94 74.14 68.06 74.14 68.06 66.02 76.18 66.02 76.18 57.89"/></g></svg>