<svg xmlns="http://www.w3.org/2000/svg" viewBox="0 0 128 128"><defs><style>.cls-1{fill:#f2c4b0;}.cls-2{fill:#eab39b;}.cls-3{fill:#6ab891;}.cls-4{fill:#4da67f;}</style></defs><title>Cannabis</title><g id="Cannabis"><path class="cls-1" d="M112.75,71.82a5.34,5.34,0,0,1-4.29,5.24l-5.87,1.18c0,7-.14,5.87.37,6.64a3.52,3.52,0,0,1-.5,4.54c-1.25,1.21-2.55,1-4.42,1a3.58,3.58,0,0,1,2.52,6.1c0,6,.65,10.32-3.65,14.62a12.44,12.44,0,0,1-12.25,3.17l-12.53-3.58V127H23.58C25,98,27,87.7,20.21,71.37a62.56,62.56,0,0,1-5-24.68c0-13.52,4.27-24.24,12.92-32.86,26.66-26.53,76.45-9.89,76.45,30.89,0,6.06.16,6.91-.48,8.08a5.47,5.47,0,0,0,.34,5.75C112.14,69.24,112.75,69.52,112.75,71.82Z"/><path class="cls-2" d="M90.41,64C85.28,67.27,77.57,69.3,68.06,68a15.48,15.48,0,0,1,4.07,10.15c-10.16,0-12.19-8.12-12.19-8.12s-2,8.12-12.19,8.12A15.49,15.49,0,0,1,51.81,68C42.34,69.3,34.62,67.29,29.47,64c7.5-6,13.82-6.09,22.34-4.06-12.2-7-18.07-12.61-20.31-26.4C42.82,35.1,50.63,43.63,55.86,53.74c-.17-.92-2-6.62-2-18.22,0-12.19,6.1-22.35,6.1-22.35S66,23.33,66,35.52c0,11.6-1.85,17.3-2,18.22,5.23-10.11,13-18.64,24.35-20.25C86.19,47,80.74,52.63,68.06,59.89,76.65,57.85,82.9,58,90.41,64Z"/><path class="cls-3" d="M90.41,60C85.28,63.27,77.57,65.3,68.06,64a15.48,15.48,0,0,1,4.07,10.15c-10.16,0-12.19-8.12-12.19-8.12s-2,8.12-12.19,8.12A15.49,15.49,0,0,1,51.81,64C42.34,65.3,34.62,63.29,29.47,60c7.5-6,13.82-6.09,22.34-4.06-12.2-7-18.07-12.61-20.31-26.4C42.82,31.1,50.63,39.63,55.86,49.74c-.17-.92-2-6.62-2-18.22,0-12.19,6.1-22.35,6.1-22.35S66,19.33,66,31.52c0,11.6-1.85,17.3-2,18.22,5.23-10.11,13-18.64,24.35-20.25C86.19,43,80.74,48.63,68.06,55.89,76.65,53.85,82.9,54,90.41,60Z"/><path class="cls-4" d="M51.81,55.89C39.38,48.76,33.72,43.16,31.5,29.49l.85.12C37.07,49,51.81,46.83,51.81,55.89Z"/><path class="cls-4" d="M51.81,64c-7.47,1-15.89.1-22.34-4.07a31.52,31.52,0,0,1,3.33-2.27c4.67,2.1,11.05,2.45,15.1,2.43A3.91,3.91,0,0,1,51.81,64Z"/><path class="cls-4" d="M71.5,70.09a14.84,14.84,0,0,1,.63,4.08c-10.16,0-12.19-8.12-12.19-8.12s-2,8.12-12.19,8.12a14.47,14.47,0,0,1,.63-4.08C58,69.76,59.94,62,59.94,62S61.89,69.76,71.5,70.09Z"/><path class="cls-4" d="M90.41,60C85.28,63.27,77.57,65.3,68.06,64A3.92,3.92,0,0,1,72,60.11c4,0,10.43-.33,15.09-2.43A37,37,0,0,1,90.41,60Z"/><path class="cls-4" d="M88.37,29.49c-1.25,7.72-3.6,13.76-9.5,18.94-6.87,6-10.81,7-10.81,7.46,0-9,14.77-7,19.46-26.28Z"/><path class="cls-2" d="M72.13,120.89V127H23.58s.12-2.41.28-6.09Z"/><path class="cls-2" d="M98,90.42a3.47,3.47,0,0,1,2.47,1H92.45a1,1,0,0,1,0-2h10C101.21,90.63,99.91,90.42,98,90.42Z"/><path class="cls-4" d="M58.94,82.29V66a1,1,0,0,1,2,0V82.29A1,1,0,0,1,58.94,82.29Z"/></g></svg>