<svg xmlns="http://www.w3.org/2000/svg" viewBox="0 0 128 128"><defs><style>.cls-1{fill:#f2c4b0;}.cls-2{fill:#eab39b;}.cls-3{fill:#d4d8e1;}.cls-4{fill:#c7cdd8;}.cls-5{fill:#dfe3ea;}.cls-6{fill:#e2607f;}</style></defs><title>Chronic fatigue</title><g id="Chronic_fatigue" data-name="Chronic fatigue"><path class="cls-1" d="M112.75,71.82a5.34,5.34,0,0,1-4.29,5.24l-5.87,1.18c0,7-.14,5.87.37,6.64a3.52,3.52,0,0,1-.5,4.54c-1.25,1.21-2.55,1-4.42,1a3.58,3.58,0,0,1,2.52,6.1c0,6,.65,10.32-3.65,14.62a12.44,12.44,0,0,1-12.25,3.17l-12.53-3.58V127H23.58C25,98,27,87.7,20.21,71.37a62.56,62.56,0,0,1-5-24.68c0-13.52,4.27-24.24,12.92-32.86,26.66-26.53,76.45-9.89,76.45,30.89,0,6.06.16,6.91-.48,8.08a5.47,5.47,0,0,0,.34,5.75C112.14,69.24,112.75,69.52,112.75,71.82Z"/><path class="cls-2" d="M72.13,120.89V127H23.58s.12-2.41.28-6.09Z"/><path class="cls-2" d="M98,90.42a3.47,3.47,0,0,1,2.47,1H92.45a1,1,0,0,1,0-2h10C101.21,90.63,99.91,90.42,98,90.42Z"/><polygon class="cls-3" points="66.03 23.39 66.03 15.27 49.78 15.27 49.78 23.39 39.63 23.39 39.63 84.33 76.19 84.33 76.19 23.39 66.03 23.39"/><rect class="cls-4" x="39.63" y="80.27" width="36.56" height="4.06"/><rect class="cls-2" x="39.63" y="84.27" width="36.56" height="4.06"/><rect class="cls-5" x="49.78" y="15.27" width="16.25" height="8.12"/><rect class="cls-6" x="44.81" y="71.06" width="26.19" height="8.13"/></g></svg>