<svg xmlns="http://www.w3.org/2000/svg" viewBox="0 0 128 128"><defs><style>.cls-1{fill:#d4d8e1;}.cls-2{fill:#c7cdd8;}.cls-3{fill:#949aaf;}.cls-4{fill:#8288a1;}.cls-5{fill:#9dd5df;}.cls-6{fill:#77cacb;}.cls-7{fill:#7aa8d7;}.cls-8{fill:#5b8dc9;}.cls-9{fill:#dfe3ea;}</style></defs><title>Clinic</title><g id="Clinic"><rect class="cls-1" x="25.39" y="29.45" width="77.23" height="97.55"/><path class="cls-2" d="M25.39,120.9V127h77.22v-6.1"/><rect class="cls-3" x="102.61" y="43.68" width="24.39" height="83.32"/><rect class="cls-3" x="1" y="43.68" width="24.39" height="83.32"/><rect class="cls-4" x="102.61" y="120.9" width="24.39" height="6.1"/><rect class="cls-4" x="1" y="120.9" width="24.39" height="6.1"/><rect class="cls-5" x="41.65" y="98.55" width="44.71" height="28.45"/><rect class="cls-6" x="41.65" y="122.94" width="44.71" height="4.06"/><path class="cls-6" d="M66,98.55V127H62V98.55A2,2,0,0,1,66,98.55Z"/><rect class="cls-3" x="21.32" y="17.26" width="24.39" height="12.19"/><rect class="cls-3" x="82.29" y="17.26" width="24.39" height="12.19"/><rect class="cls-4" x="21.32" y="25.39" width="24.39" height="4.06"/><rect class="cls-4" x="82.29" y="25.39" width="24.39" height="4.06"/><rect class="cls-2" x="25.39" y="29.45" width="20.32" height="4.06"/><rect class="cls-2" x="82.29" y="29.45" width="20.32" height="4.06"/><rect class="cls-5" x="80.26" y="45.71" width="12.19" height="12.19"/><rect class="cls-5" x="57.9" y="45.71" width="12.19" height="12.19"/><rect class="cls-7" x="45.71" y="1" width="36.58" height="36.58"/><rect class="cls-8" x="45.71" y="33.52" width="36.58" height="4.06"/><rect class="cls-5" x="35.55" y="45.71" width="12.19" height="12.19"/><rect class="cls-5" x="80.26" y="68.06" width="12.19" height="12.19"/><rect class="cls-5" x="57.9" y="68.06" width="12.19" height="12.19"/><rect class="cls-5" x="35.55" y="68.06" width="12.19" height="12.19"/><rect class="cls-6" x="80.26" y="76.19" width="12.19" height="4.06"/><rect class="cls-6" x="57.9" y="76.19" width="12.19" height="4.06"/><rect class="cls-6" x="35.55" y="76.19" width="12.19" height="4.06"/><rect class="cls-6" x="80.26" y="53.84" width="12.19" height="4.06"/><rect class="cls-6" x="57.9" y="53.84" width="12.19" height="4.06"/><rect class="cls-6" x="35.55" y="53.84" width="12.19" height="4.06"/><rect class="cls-3" x="37.58" y="90.42" width="52.84" height="8.13"/><rect class="cls-5" x="102.61" y="74.16" width="14.23" height="10.16"/><rect class="cls-5" x="102.61" y="53.84" width="14.23" height="10.16"/><rect class="cls-5" x="102.61" y="94.48" width="14.23" height="10.16"/><rect class="cls-5" x="11.16" y="74.16" width="14.23" height="10.16"/><rect class="cls-5" x="11.16" y="53.84" width="14.23" height="10.16"/><rect class="cls-6" x="21.32" y="53.84" width="4.06" height="10.16"/><rect class="cls-6" x="21.32" y="74.16" width="4.06" height="10.16"/><rect class="cls-5" x="11.16" y="94.48" width="14.23" height="10.16"/><rect class="cls-6" x="21.32" y="94.48" width="4.06" height="10.16"/><rect class="cls-6" x="102.61" y="53.84" width="4.06" height="10.16"/><rect class="cls-6" x="102.61" y="74.16" width="4.06" height="10.16"/><rect class="cls-6" x="102.61" y="94.48" width="4.06" height="10.16"/><path class="cls-9" d="M63,29.45V9.13a1,1,0,0,1,2,0V29.45A1,1,0,0,1,63,29.45Z"/><path class="cls-9" d="M66,10.13H62a1,1,0,0,1,0-2H66A1,1,0,0,1,66,10.13Z"/><path class="cls-9" d="M66,30.45H62a1,1,0,0,1,0-2H66A1,1,0,0,1,66,30.45Z"/><path class="cls-9" d="M66,22.32H63.49a1,1,0,0,1,0-2H66c9.35,0,2.39-12.19,8.13-12.19a1,1,0,0,1,0,2C72.12,10.13,76.54,22.32,66,22.32Z"/><path class="cls-9" d="M64.51,22.32H62c-10.51,0-6.09-12.19-8.13-12.19a1,1,0,0,1,0-2c2.55,0,2.62,2.68,2.68,5,.2,7.22,2.2,7.15,8,7.15A1,1,0,0,1,64.51,22.32Z"/></g></svg>