<svg xmlns="http://www.w3.org/2000/svg" viewBox="0 0 128 128"><defs><style>.cls-1{fill:#d4d8e1;}.cls-2{fill:#c7cdd8;}.cls-3{fill:#9b756d;}.cls-4{fill:#8a6762;}.cls-5{fill:#d1a788;}.cls-6{fill:#575f7c;}.cls-7{fill:#7aa8d7;}.cls-8{fill:#5b8dc9;}.cls-9{fill:#949aaf;}</style></defs><title>Consultation Session</title><g id="Consultation_Session" data-name="Consultation Session"><path class="cls-1" d="M57.9,13.19C43.38,13.19,36.26,30.8,46.41,41l-4.76,4.76H57.9a16.26,16.26,0,0,0,0-32.52Z"/><path class="cls-2" d="M57.9,45.71H41.65L46.4,41a16.23,16.23,0,0,1-4.71-12.58c.54,7.42,7.6,13.28,16.21,13.28s15.67-5.86,16.22-13.28A16.25,16.25,0,0,1,57.9,45.71Z"/><path class="cls-3" d="M122.94,92.45v14.23H19.29C9,73.43,10.91,79.48,9.25,74.16l6-4.06L35.55,92.45Z"/><path class="cls-4" d="M122.94,92.45v4.07H33.21L14.45,77a12.09,12.09,0,0,1-4,1.13l-1.24-4,6-4.06L35.55,92.45Z"/><path class="cls-5" d="M127,88.39a4.08,4.08,0,0,1-4.06,4.06H34.72L15.08,71.56A8.13,8.13,0,1,1,9.13,57.9c3.27,0,3.62-.65,28.59,26.42h85.22A4.08,4.08,0,0,1,127,88.39Z"/><rect class="cls-6" x="19.29" y="106.68" width="8.13" height="8.13"/><rect class="cls-6" x="114.81" y="106.68" width="8.13" height="8.13"/><path class="cls-7" d="M25.39,57.9a8.62,8.62,0,0,1-12.2,0l-2-2A8.62,8.62,0,0,1,23.35,43.68l2,2A8.63,8.63,0,0,1,25.39,57.9Z"/><path class="cls-8" d="M13.19,57.9c-2.52-2.52-5.55-5.06-4.3-10.16.69,2.82,2.19,4,4.3,6.1a8.62,8.62,0,0,0,14.47-4.07C29.72,58.16,19.37,64.08,13.19,57.9Z"/><path class="cls-7" d="M110.17,69c0,.89.19.13-5.52,15.36H37.72s-8.19-8.88-15.26-16.19a8.83,8.83,0,0,1,2.11-9.54c2.66-2.65,10.38-3.13,14.92,2.1l8.25,9.41,48.78,4.06,7.68-7.68A3.49,3.49,0,0,1,110.17,69Z"/><path class="cls-8" d="M106.17,80.26l-1.52,4.06H37.72s-8.19-8.88-15.26-16.19a8.8,8.8,0,0,1,1.63-9,8.7,8.7,0,0,0,.4,4.94c7.08,7.32,15.27,16.2,15.27,16.2Z"/><path class="cls-3" d="M10.63,66a1.5,1.5,0,0,1-3,0A1.5,1.5,0,0,1,10.63,66Z"/><path class="cls-8" d="M55.87,84.32H52.19a1,1,0,0,1,0-2h3.68a3.07,3.07,0,1,0,0-6.13c-15.38,0-14.56.16-15-.36L30.72,63.64a1,1,0,0,1,1.53-1.28l9.86,11.83H55.87a5.07,5.07,0,1,1,0,10.13Z"/><path class="cls-9" d="M59.4,29.45a1.5,1.5,0,0,1-3,0A1.5,1.5,0,0,1,59.4,29.45Z"/><path class="cls-9" d="M51.27,29.45a1.5,1.5,0,0,1-3,0A1.5,1.5,0,0,1,51.27,29.45Z"/><path class="cls-9" d="M67.53,29.45a1.5,1.5,0,0,1-3,0A1.5,1.5,0,0,1,67.53,29.45Z"/></g></svg>