<svg xmlns="http://www.w3.org/2000/svg" viewBox="0 0 128 128"><defs><style>.cls-1{fill:#d4d8e1;}.cls-2{fill:#c7cdd8;}.cls-3{fill:#9b756d;}.cls-4{fill:#7aa8d7;}.cls-5{fill:#5b8dc9;}.cls-6{fill:#8a6762;}.cls-7{fill:#949aaf;}</style></defs><title>Counseling</title><g id="Counseling"><path class="cls-1" d="M85.66,36.89l4.76,4.76H74.16A16.2,16.2,0,0,1,60.1,33.52l16-24.27A16.27,16.27,0,0,1,85.66,36.89Z"/><path class="cls-2" d="M63.37,37.54a15.64,15.64,0,0,1-3.27-4l16-24.27a15.18,15.18,0,0,1,5.1,1.53A20.34,20.34,0,0,1,63.37,37.54Z"/><path class="cls-1" d="M62,1a16.26,16.26,0,1,1,0,32.52H45.71l4.76-4.77C40.32,18.6,47.44,1,62,1Z"/><path class="cls-3" d="M9.13,98.55V66c0-5.4-8.13-5.32-8.13,0v61H9.13V106.68H31.48V127h8.13V98.55Z"/><path class="cls-4" d="M39.61,127V98.55H19.29A10.16,10.16,0,0,1,9.13,88.39c0-27.14-.57-27.54,1.71-30.71a9.06,9.06,0,0,1,7.43-3.84c.32,0-.5-.38,7.4,3.78,2.32,3.17,1.75,3.52,1.75,28.73l15,1.37a8.12,8.12,0,0,1,7.39,8.08v23.07l2.22.55A7.82,7.82,0,0,1,57.9,127Z"/><path class="cls-5" d="M27.43,80.82a11.12,11.12,0,0,1-8.92-3.2c-5.85-5.81-7.83-7.6-9.44-9.57,0-1.73,0-4.53.22-6.31.05-.47-1.23-.5,11.34,2.26h4.25l1.5,1.5,1.06-1.07C27.54,68.05,27.43,76,27.43,80.82Z"/><path class="cls-3" d="M118.87,98.55V66c0-5.4,8.13-5.32,8.13,0v61h-8.13V106.68H96.52V127H88.39V98.55Z"/><path class="cls-4" d="M118.87,63V88.39a10.16,10.16,0,0,1-10.16,10.16H88.39V127H70.1a7.72,7.72,0,0,1,1.13-4.06c2.06-3,3.77-3.26,7-4.07V95.8a8.12,8.12,0,0,1,7.39-8.08l15-1.37V63a9.15,9.15,0,0,1,18.29,0Z"/><path class="cls-5" d="M118.87,85.82a11.13,11.13,0,0,1-8.13,3.53H96.52a7,7,0,0,1-5.15-2.16l9.21-.84V75.23h7.16V62h11.08C118.89,62.76,118.87,60.83,118.87,85.82Z"/><path class="cls-4" d="M21.32,56.27A10.16,10.16,0,0,1,17.6,42.39l2-3.52A10.16,10.16,0,1,1,37.24,49l-2,3.52A10.16,10.16,0,0,1,21.32,56.27Z"/><path class="cls-5" d="M38.13,46.93c-.42,1.48-1,2.35-2.93,5.63A10.16,10.16,0,0,1,17.6,42.4c3.71-6.42-3.66,4.37,5.75,9.81a10.17,10.17,0,0,0,13.89-3.72Z"/><path class="cls-4" d="M108.71,53.84a10.16,10.16,0,0,0,10.16-10.16V39.61a10.16,10.16,0,0,0-20.32,0v4.07A10.16,10.16,0,0,0,108.71,53.84Z"/><path class="cls-5" d="M118.87,39.61v4.07a10.16,10.16,0,0,1-20.32,0V39.61a10.16,10.16,0,0,0,20.32,0Z"/><path class="cls-4" d="M118.87,62V78.23a8.12,8.12,0,0,1-8.13,8.12H96.52c-5.41,0-5.33-8.12,0-8.12h14.22V62Z"/><path class="cls-4" d="M40.59,67C33.38,74.26,30.7,77.8,27.42,77.8a8.06,8.06,0,0,1-6.79-2.3c-8.26-8.26-10.81-10-11.38-14,0-.21-.29-.1,11.38,2.46l5.75,5.75c9.2-9.2,9.28-9.81,11.51-9.81A4.08,4.08,0,0,1,40.59,67Z"/><rect class="cls-6" x="1" y="120.9" width="8.13" height="6.1"/><rect class="cls-6" x="31.48" y="120.9" width="8.13" height="6.1"/><rect class="cls-6" x="88.39" y="120.9" width="8.13" height="6.1"/><rect class="cls-6" x="118.87" y="120.9" width="8.13" height="6.1"/><path class="cls-5" d="M57.9,127H39.61v-4.06H56.77A7.72,7.72,0,0,1,57.9,127Z"/><path class="cls-5" d="M88.39,122.94V127H70.1a7.72,7.72,0,0,1,1.13-4.06Z"/><path class="cls-7" d="M63.47,17.26a1.5,1.5,0,0,1-3,0A1.5,1.5,0,0,1,63.47,17.26Z"/><path class="cls-7" d="M55.34,17.26a1.5,1.5,0,0,1-3,0A1.5,1.5,0,0,1,55.34,17.26Z"/><path class="cls-7" d="M71.6,17.26a1.5,1.5,0,0,1-3,0A1.5,1.5,0,0,1,71.6,17.26Z"/></g></svg>