<svg xmlns="http://www.w3.org/2000/svg" viewBox="0 0 128 128"><defs><style>.cls-1{fill:#f2c4b0;}.cls-2{fill:#eab39b;}.cls-3{fill:#fbcc88;}.cls-4{fill:#f6b756;}.cls-5{fill:#949aaf;}.cls-6{fill:#8288a1;}.cls-7{fill:#fff2e3;}</style></defs><title>Creativity</title><g id="Creativity"><path class="cls-1" d="M112.75,71.82a5.34,5.34,0,0,1-4.29,5.24l-5.87,1.18c0,7-.14,5.87.37,6.64a3.52,3.52,0,0,1-.5,4.54c-1.25,1.21-2.55,1-4.42,1a3.58,3.58,0,0,1,2.52,6.1c0,6,.65,10.32-3.65,14.62a12.44,12.44,0,0,1-12.25,3.17l-12.53-3.58V127H23.58C25,98,27,87.7,20.21,71.37a62.56,62.56,0,0,1-5-24.68c0-13.52,4.27-24.24,12.92-32.86,26.66-26.53,76.45-9.89,76.45,30.89,0,6.06.16,6.91-.48,8.08a5.47,5.47,0,0,0,.34,5.75C112.14,69.24,112.75,69.52,112.75,71.82Z"/><path class="cls-2" d="M57.26,26.89C37.42,29.11,30,54.24,45.45,67a11.79,11.79,0,0,1,4.11,9.13c0,.28-2.25.19,20.63.19a11.87,11.87,0,0,1,4.38-9.55C91.45,52.38,79.71,24.39,57.26,26.89Z"/><path class="cls-2" d="M49.56,76.27H70.19a0,0,0,0,1,0,0V86.59A6.19,6.19,0,0,1,64,92.78H55.75a6.19,6.19,0,0,1-6.19-6.19V76.27A0,0,0,0,1,49.56,76.27Z"/><path class="cls-3" d="M57.26,22.89C37.42,25.11,30,50.24,45.45,63a11.79,11.79,0,0,1,4.11,9.13c0,.28-2.25.19,20.63.19a11.87,11.87,0,0,1,4.38-9.55C91.45,48.38,79.71,20.39,57.26,22.89Z"/><path class="cls-4" d="M82.53,46.52a22.52,22.52,0,0,1-8,16.2,11.87,11.87,0,0,0-4.38,9c0,.78,2.31.54-20.63.54a11.84,11.84,0,0,0-4.11-9.33,22.43,22.43,0,0,1-8.23-16.42C37.9,56.28,47.76,64,59.87,64S81.85,56.28,82.53,46.52Z"/><path class="cls-5" d="M49.56,72.27H70.19a0,0,0,0,1,0,0V82.59A6.19,6.19,0,0,1,64,88.78H55.75a6.19,6.19,0,0,1-6.19-6.19V72.27A0,0,0,0,1,49.56,72.27Z"/><path class="cls-6" d="M70.19,78.46v4.13A6.18,6.18,0,0,1,64,88.78H55.75a6.18,6.18,0,0,1-6.19-6.19V78.46a6.18,6.18,0,0,0,6.19,6.19H64A6.18,6.18,0,0,0,70.19,78.46Z"/><path class="cls-2" d="M72.13,120.89V127H23.58s.12-2.41.28-6.09Z"/><path class="cls-2" d="M98,90.42a3.47,3.47,0,0,1,2.47,1H92.45a1,1,0,0,1,0-2h10C101.21,90.63,99.91,90.42,98,90.42Z"/><path class="cls-7" d="M58.94,15.23V9.13a1,1,0,0,1,2,0v6.1A1,1,0,0,1,58.94,15.23Z"/><path class="cls-7" d="M96.52,46.71h-6.1a1,1,0,0,1,0-2h6.1A1,1,0,0,1,96.52,46.71Z"/><path class="cls-7" d="M29.45,46.71h-6.1a1,1,0,0,1,0-2h6.1A1,1,0,0,1,29.45,46.71Z"/><path class="cls-7" d="M85.8,72.58c-.58,0-.45,0-5-4.61a1,1,0,0,1,1.42-1.41l4.31,4.31A1,1,0,0,1,85.8,72.58Z"/><path class="cls-7" d="M38.38,25.15c-.58,0-.45,0-5-4.6a1,1,0,0,1,1.42-1.41l4.31,4.31A1,1,0,0,1,38.38,25.15Z"/><path class="cls-7" d="M81.49,25.15a1,1,0,0,1-.71-1.7l4.31-4.31a1,1,0,0,1,1.42,1.41C81.88,25.18,82.06,25.15,81.49,25.15Z"/><path class="cls-7" d="M34.07,72.58a1,1,0,0,1-.71-1.71l4.31-4.31A1,1,0,0,1,39.09,68C34.45,72.61,34.64,72.58,34.07,72.58Z"/><path class="cls-7" d="M57,59.49l5.37-10.75H53.84a1,1,0,0,1-.9-1.45L59,35.1a1,1,0,0,1,1.79.9L55.46,46.74c9,0,9-.18,9.39.48s.49.08-6,13.16A1,1,0,0,1,57,59.49Z"/></g></svg>