<svg xmlns="http://www.w3.org/2000/svg" viewBox="0 0 128 128"><defs><style>.cls-1{fill:#454b60;}.cls-2{fill:#d4d8e1;}.cls-3{fill:#c7cdd8;}.cls-4{fill:#42455e;}.cls-5{fill:#9dd5df;}.cls-6{fill:#77cacb;}.cls-7{fill:#7aa8d7;}.cls-8{fill:#5b8dc9;}</style></defs><title>Crying</title><g id="Crying"><path class="cls-1" d="M125.8,48.77C103.81,11.26,43,11.25,21,48.77a1,1,0,0,1-1.73-1C42,8.93,104.76,8.92,127.52,47.75A1,1,0,0,1,125.8,48.77Z"/><path class="cls-1" d="M72.39,19.61V7.1a1,1,0,0,1,2,0V19.61A1,1,0,0,1,72.39,19.61Z"/><path class="cls-1" d="M91.8,23.16a1,1,0,0,1-.86-1.51l6-10.3a1,1,0,0,1,1.73,1C92.28,23.33,92.62,23.16,91.8,23.16Z"/><path class="cls-1" d="M55,23.16c-.81,0-.47.18-6.84-10.81a1,1,0,0,1,1.73-1l6,10.3A1,1,0,0,1,55,23.16Z"/><path class="cls-1" d="M35.37,32.63c-.59,0-.2.21-7.56-7.15a1,1,0,0,1,1.41-1.41l6.85,6.85A1,1,0,0,1,35.37,32.63Z"/><path class="cls-1" d="M111.41,32.63a1,1,0,0,1-.7-1.71l6.84-6.85A1,1,0,0,1,119,25.48C111.61,32.84,112,32.63,111.41,32.63Z"/><path class="cls-2" d="M127,59.93c-22.17,35.17-83.48,35.21-105.68,0C43.49,24.76,104.8,24.72,127,59.93Z"/><path class="cls-2" d="M127,59.93c-22.17,35.17-83.48,35.21-105.68,0C43.49,24.76,104.8,24.72,127,59.93Z"/><path class="cls-3" d="M127,59.93c-22.13,35.12-83.47,35.26-105.68,0C43.51,87,104.81,87,127,59.93Z"/><path class="cls-1" d="M96.52,55.87A22.36,22.36,0,1,1,75.34,33.53,22.34,22.34,0,0,1,96.52,55.87Z"/><path class="cls-4" d="M74.16,78.22A22.33,22.33,0,0,1,52,52.8a22.33,22.33,0,0,0,44.26,0A22.33,22.33,0,0,1,74.16,78.22Z"/><path class="cls-5" d="M33.52,104.64a16.26,16.26,0,1,1-32.52,0C1,88.38,17.26,72.13,17.26,72.13S33.52,88.38,33.52,104.64Z"/><path class="cls-6" d="M17.26,120.9c-9.13,0-17.56-7.59-16-19.61a16.27,16.27,0,0,0,32.07,0C34.84,113.43,26.25,120.9,17.26,120.9Z"/><circle class="cls-7" cx="74.16" cy="55.87" r="8.13"/><path class="cls-8" d="M66.3,53.83c2.06,8.1,13.66,8.11,15.73,0a8.13,8.13,0,1,1-15.73,0Z"/><path class="cls-3" d="M73,33.53a22.44,22.44,0,0,0-15.65,7.6c-15.66,2.93-28.63,9.8-36,18.8C31.06,44.49,50.49,33.88,73,33.53Z"/><path class="cls-3" d="M127,59.93c-7.38-9-20.34-15.87-36-18.8a22.42,22.42,0,0,0-15.65-7.6C97.84,33.88,117.27,44.49,127,59.93Z"/></g></svg>