<svg xmlns="http://www.w3.org/2000/svg" viewBox="0 0 128 128"><defs><style>.cls-1{fill:#f2c4b0;}.cls-2{fill:#eab39b;}.cls-3{fill:#949aaf;}.cls-4{fill:#8288a1;}.cls-5{fill:#fff;}</style></defs><title>Depression</title><g id="Depression"><path class="cls-1" d="M112.75,71.82a5.34,5.34,0,0,1-4.29,5.24l-5.87,1.18c0,7-.14,5.87.37,6.64a3.52,3.52,0,0,1-.5,4.54c-1.25,1.21-2.55,1-4.42,1a3.58,3.58,0,0,1,2.52,6.1c0,6,.65,10.32-3.65,14.62a12.44,12.44,0,0,1-12.25,3.17l-12.53-3.58V127H23.58C25,98,27,87.7,20.21,71.37a62.56,62.56,0,0,1-5-24.68c0-13.52,4.27-24.24,12.92-32.86,26.66-26.53,76.45-9.89,76.45,30.89,0,6.06.16,6.91-.48,8.08a5.47,5.47,0,0,0,.34,5.75C112.14,69.24,112.75,69.52,112.75,71.82Z"/><path class="cls-2" d="M82.28,49.74a8.13,8.13,0,0,0,1.61-16.09,6.09,6.09,0,0,0-8.11-7.78,16.24,16.24,0,0,0-32.09,3.55,10.16,10.16,0,1,0,0,20.32Z"/><path class="cls-3" d="M82.28,45.74a8.13,8.13,0,0,0,1.61-16.09,6.09,6.09,0,0,0-8.11-7.78,16.24,16.24,0,0,0-32.09,3.55,10.16,10.16,0,1,0,0,20.32Z"/><path class="cls-4" d="M82.28,45.74H43.69A10.19,10.19,0,0,1,34,32.53a10.18,10.18,0,0,0,9.71,7.11H82.28a8.13,8.13,0,0,0,7.54-5.1A8.15,8.15,0,0,1,82.28,45.74Z"/><path class="cls-2" d="M72.13,120.89V127H23.58s.12-2.41.28-6.09Z"/><path class="cls-2" d="M98,90.42a3.47,3.47,0,0,1,2.47,1H92.45a1,1,0,0,1,0-2h10C101.21,90.63,99.91,90.42,98,90.42Z"/><path class="cls-5" d="M35.55,58.9a1,1,0,0,1-.9-1.44l2-4.07a1,1,0,0,1,1.79.9C36.35,58.54,36.37,58.9,35.55,58.9Z"/><path class="cls-5" d="M47.74,58.9a1,1,0,0,1-.89-1.44l2-4.07a1,1,0,0,1,1.79.9C48.54,58.54,48.57,58.9,47.74,58.9Z"/><path class="cls-5" d="M39.61,69.06a1,1,0,0,1-.89-1.44l2-4.07a1,1,0,0,1,1.79.9C40.41,68.7,40.44,69.06,39.61,69.06Z"/><path class="cls-5" d="M51.81,69.06a1,1,0,0,1-.9-1.44l2-4.07a1,1,0,0,1,1.79.9C52.61,68.7,52.63,69.06,51.81,69.06Z"/><path class="cls-5" d="M59.93,58.9A1,1,0,0,1,59,57.46l2-4.07a1,1,0,0,1,1.79.9C60.74,58.54,60.76,58.9,59.93,58.9Z"/><path class="cls-5" d="M72.13,58.9a1,1,0,0,1-.9-1.44l2-4.07a1,1,0,0,1,1.79.9C72.93,58.54,73,58.9,72.13,58.9Z"/><path class="cls-5" d="M64,69.06a1,1,0,0,1-.89-1.44l2-4.07a1,1,0,0,1,1.79.9C64.8,68.7,64.82,69.06,64,69.06Z"/><path class="cls-5" d="M76.19,69.06a1,1,0,0,1-.89-1.44l2-4.07a1,1,0,0,1,1.79.9C77,68.7,77,69.06,76.19,69.06Z"/><path class="cls-5" d="M84.32,58.9a1,1,0,0,1-.89-1.44l2-4.07a1,1,0,0,1,1.79.9C85.12,58.54,85.15,58.9,84.32,58.9Z"/></g></svg>