<svg xmlns="http://www.w3.org/2000/svg" viewBox="0 0 128 128"><defs><style>.cls-1{fill:#d4d8e1;}.cls-2{fill:#c7cdd8;}.cls-3{fill:#949aaf;}.cls-4{fill:#8288a1;}.cls-5{fill:#fbcc88;}.cls-6{fill:#f6b756;}.cls-7{fill:#e2607f;}.cls-8{fill:#dd4e6a;}.cls-9{fill:#9dd5df;}.cls-10{fill:#77cacb;}</style></defs><title>Drugs Addict</title><g id="Drugs_Addict" data-name="Drugs Addict"><path class="cls-1" d="M20.32,37.58V1a1,1,0,0,1,2,0V37.58A1,1,0,0,1,20.32,37.58Z"/><rect class="cls-1" x="9.11" y="53.84" width="24.39" height="60.96"/><rect class="cls-2" x="9.11" y="106.67" width="24.39" height="8.13"/><rect class="cls-3" x="13.18" y="45.71" width="16.26" height="8.13"/><rect class="cls-4" x="13.18" y="49.77" width="16.26" height="4.06"/><polygon class="cls-3" points="27.4 45.71 15.21 45.71 17.65 37.58 24.96 37.58 27.4 45.71"/><polygon class="cls-4" points="27.4 45.71 15.21 45.71 16.11 42.71 26.5 42.71 27.4 45.71"/><rect class="cls-3" x="15.21" y="114.8" width="12.19" height="12.19"/><path class="cls-5" d="M127,102.61a10.16,10.16,0,0,1-10.16,10.16c-9.52,0-13.8-12.07-6.43-18A10.17,10.17,0,0,1,127,102.61Z"/><path class="cls-6" d="M116.82,112.77a10.17,10.17,0,0,1-10-12.17c2.23,10.76,17.68,10.77,19.92,0A10.17,10.17,0,0,1,116.82,112.77Z"/><path class="cls-6" d="M120.2,107.38,109,96.16a9.4,9.4,0,0,1,1.41-1.41L121.61,106C122.55,106.91,121.1,108.33,120.2,107.38Z"/><circle class="cls-5" cx="76.17" cy="110.74" r="10.16"/><path class="cls-5" d="M114.79,23.35c0,10.81-14.69,14-19.33,4.41-.4-.4-1.38-3.47-.79-6.42h0a10.16,10.16,0,0,1,20.12,2Z"/><path class="cls-6" d="M70.31,119a10,10,0,0,1-4.09-10.32c2.06,10.75,17.83,10.78,19.91,0C87.94,118,77.31,124.41,70.31,119Z"/><path class="cls-6" d="M103.08,33.39a10.15,10.15,0,0,1-8.41-12c2.26,10.79,17.69,10.76,19.91,0A10.15,10.15,0,0,1,103.08,33.39Z"/><path class="cls-7" d="M51.79,90.41a8.13,8.13,0,0,1-8.13-8.12V66a8.13,8.13,0,0,1,16.26,0V82.29A8.13,8.13,0,0,1,51.79,90.41Z"/><path class="cls-8" d="M59.92,78.22v4.07a8.13,8.13,0,0,1-16.26,0V78.22a8.13,8.13,0,0,0,16.26,0Z"/><path class="cls-7" d="M110.38,58.24c0,4.33-1.4,4.78-13.88,17.26A8.14,8.14,0,0,1,85,64L96.5,52.49A8.14,8.14,0,0,1,110.38,58.24Z"/><path class="cls-9" d="M110.38,58.24c0,4.43-2.8,6.17-8.13,11.51L90.75,58.24l5.75-5.75A8.14,8.14,0,0,1,110.38,58.24Z"/><path class="cls-9" d="M59.92,74.16H43.66V66a8.13,8.13,0,0,1,16.26,0Z"/><rect class="cls-10" x="43.66" y="70.09" width="16.26" height="4.06"/><path class="cls-8" d="M102.25,69.75,96.5,75.5a8.13,8.13,0,0,1-12.42-1.12,8.11,8.11,0,0,0,10.38-.91l5.76-5.76Z"/><path class="cls-10" d="M110.38,58.24c0,4.43-2.8,6.17-8.13,11.51l-2-2L106,62a8.1,8.1,0,0,0,.91-10.38A8.07,8.07,0,0,1,110.38,58.24Z"/><path class="cls-7" d="M63.64,39.26c-4.32,0-4.77-1.39-17.26-13.88a8.14,8.14,0,0,1,11.51-11.5c7.25,7.26,4.31,4.31,11.5,11.5A8.14,8.14,0,0,1,63.64,39.26Z"/><path class="cls-9" d="M63.64,39.26c-4.42,0-6.17-2.79-11.51-8.12L63.64,19.63l5.75,5.75A8.14,8.14,0,0,1,63.64,39.26Z"/><path class="cls-8" d="M52.13,31.14l-5.75-5.76A8.12,8.12,0,0,1,47.5,13a8.11,8.11,0,0,0,.92,10.38l5.75,5.75Z"/><path class="cls-10" d="M63.64,39.26c-4.42,0-6.17-2.79-11.51-8.12l2-2,5.75,5.75a8.1,8.1,0,0,0,10.38.92A8.06,8.06,0,0,1,63.64,39.26Z"/><path class="cls-2" d="M41.65,115.81H1a1,1,0,0,1,0-2H41.65A1,1,0,0,1,41.65,115.81Z"/><path class="cls-4" d="M31.48,128H11.16a1,1,0,0,1,0-2H31.48A1,1,0,0,1,31.48,128Z"/><path class="cls-9" d="M33.5,61v2H29.45a1,1,0,0,1,0-2Z"/><path class="cls-9" d="M33.5,69.1v2H27.42a1,1,0,0,1,0-2Z"/><path class="cls-9" d="M33.5,77.23v2H29.45a1,1,0,0,1,0-2Z"/><path class="cls-9" d="M33.5,85.35v2H27.42a1,1,0,0,1,0-2Z"/><path class="cls-9" d="M33.5,93.48v2H29.45a1,1,0,0,1,0-2Z"/><path class="cls-9" d="M33.5,101.61v2H27.42a1,1,0,0,1,0-2Z"/><path class="cls-6" d="M77.19,105v15.9a10.28,10.28,0,0,1-2,0V105A1,1,0,0,1,77.19,105Z"/><path class="cls-6" d="M109.42,20,98.2,31.22a10.51,10.51,0,0,1-1.42-1.41c0-.1-.77.76,11.22-11.23A1,1,0,0,1,109.42,20Z"/></g></svg>