<svg xmlns="http://www.w3.org/2000/svg" viewBox="0 0 128 128"><defs><style>.cls-1{fill:#e2607f;}.cls-2{fill:#dd4e6a;}.cls-3{fill:#d4d8e1;}.cls-4{fill:#8cdd79;}.cls-5{fill:#fbcc88;}.cls-6{fill:#454b60;}.cls-7{fill:#42455e;}.cls-8{fill:#7ece67;}.cls-9{fill:#f6b756;}</style></defs><title>Emotional meter</title><g id="Emotional_meter" data-name="Emotional meter"><circle class="cls-1" cx="108.7" cy="35.59" r="18.29"/><path class="cls-2" d="M108.7,53.88A18.27,18.27,0,0,1,90.54,33.56a18.28,18.28,0,0,0,36.33,0A18.29,18.29,0,0,1,108.7,53.88Z"/><path class="cls-3" d="M64,55.91a63,63,0,0,0-63,63V127H127v-8.12A63,63,0,0,0,64,55.91Z"/><path class="cls-4" d="M38.6,74.91a50.74,50.74,0,0,0-25.4,44H1A63,63,0,0,1,32.5,64.35Z"/><path class="cls-5" d="M95.5,64.35,89.4,74.91a50.82,50.82,0,0,0-50.8,0L32.5,64.35A63,63,0,0,1,95.5,64.35Z"/><path class="cls-1" d="M127,118.91H114.8a50.74,50.74,0,0,0-25.4-44l6.1-10.56A63,63,0,0,1,127,118.91Z"/><path class="cls-6" d="M70.1,120.94a6.1,6.1,0,0,1-12.2,0c0-6.1,6.1-40.64,6.1-40.64S70.1,114.84,70.1,120.94Z"/><path class="cls-7" d="M70.1,120.94a6.1,6.1,0,0,1-12.2,0c0-.61.07-1.53.17-2.66,1.45,6.24,10.41,6.23,11.86,0C70,119.41,70.1,120.33,70.1,120.94Z"/><circle class="cls-4" cx="19.3" cy="35.59" r="18.29"/><path class="cls-8" d="M19.3,53.88A18.28,18.28,0,0,1,1.13,33.56a18.28,18.28,0,0,0,36.33,0A18.27,18.27,0,0,1,19.3,53.88Z"/><circle class="cls-5" cx="63.73" cy="19.17" r="18.29"/><path class="cls-9" d="M63.73,37.46A18.28,18.28,0,0,1,45.56,17.14a18.28,18.28,0,0,0,36.34,0A18.28,18.28,0,0,1,63.73,37.46Z"/><path class="cls-6" d="M24.33,44.73a7.14,7.14,0,0,0-10.08,0,1,1,0,0,1-1.42-1.41c5.82-5.82,14.88-.55,12.92,1.41A1,1,0,0,1,24.33,44.73Z"/><path class="cls-6" d="M113.75,44.73a7.13,7.13,0,0,0-10.08,0,1,1,0,0,1-1.42-1.41,9.13,9.13,0,0,1,12.92,0A1,1,0,0,1,113.75,44.73Z"/><path class="cls-6" d="M57.54,28.13A1,1,0,0,1,59,26.71a7.12,7.12,0,0,0,10.08,0,1,1,0,0,1,1.42,1.42A9.14,9.14,0,0,1,57.54,28.13Z"/><path class="cls-6" d="M71.13,17.26v-2a1,1,0,0,1,2,0v2A1,1,0,0,1,71.13,17.26Z"/><path class="cls-6" d="M54.87,17.26v-2a1,1,0,0,1,2,0v2A1,1,0,0,1,54.87,17.26Z"/><path class="cls-6" d="M9.13,34.52a1,1,0,0,1-.45-1.9l4.07-2a1,1,0,0,1,.89,1.79C9.26,34.57,9.46,34.52,9.13,34.52Z"/><path class="cls-6" d="M29.45,34.52c-.34,0-.16,0-4.51-2.14a1,1,0,0,1,.89-1.79l4.07,2A1,1,0,0,1,29.45,34.52Z"/><path class="cls-6" d="M102.61,34.52c-.34,0-.16,0-4.51-2.14a1,1,0,0,1,.9-1.79l4.06,2A1,1,0,0,1,102.61,34.52Z"/><path class="cls-6" d="M114.81,34.52a1,1,0,0,1-.45-1.9l4.06-2a1,1,0,0,1,.9,1.79C114.93,34.57,115.13,34.52,114.81,34.52Z"/></g></svg>