<svg id="Female_Psycolog" data-name="Female Psycolog" xmlns="http://www.w3.org/2000/svg" viewBox="0 0 128 128"><defs><style>.cls-1{fill:#9b756d;}.cls-2{fill:#7aa8d7;}.cls-3{fill:#5b8dc9;}.cls-4{fill:#8a6762;}.cls-5{fill:#454b60;}.cls-6{fill:#42455e;}.cls-7{fill:#f2c4b0;}.cls-8{fill:#eab39b;}.cls-9{fill:#8288a1;}.cls-10{fill:#9dd5df;}.cls-11{fill:#77cacb;}.cls-12{fill:#dd4e6a;}.cls-13{fill:#fff;}</style></defs><title>Female Psycolog</title><path class="cls-1" d="M102.6,127H5.08l4.17-25A28.47,28.47,0,0,1,37.3,78.21c35.1,0,34.6-.16,37.75.39A28.35,28.35,0,0,1,92.62,88.94Z"/><circle class="cls-2" cx="102.6" cy="106.65" r="20.32"/><path class="cls-3" d="M112.59,124.35C98,132.56,80.64,120.62,82.4,104.54a20.32,20.32,0,0,0,40.45.51A20.34,20.34,0,0,1,112.59,124.35Z"/><path class="cls-4" d="M69.56,98.53l3.56,7.11L53.84,122.15,34.56,105.64l3.56-7.11L23.31,92.19l9.3-13.57c3.17-.55,1.51-.41,37.77-.41a26.76,26.76,0,0,1,4.67.39l9.32,13.59Z"/><polygon class="cls-1" points="69.86 78.21 78.22 90.4 64 96.49 68.06 104.62 53.84 116.81 39.62 104.62 43.68 96.49 29.46 90.4 37.82 78.21 69.86 78.21"/><path class="cls-4" d="M55.87,86.34V127H51.81V86.34A2,2,0,0,1,55.87,86.34Z"/><path class="cls-5" d="M21.34,78.21V21.47A16.54,16.54,0,0,1,35.56,5.07,13.87,13.87,0,0,1,45.37,1H62A24.37,24.37,0,0,1,86.35,25.39V78.21Z"/><path class="cls-6" d="M78.22,33.52v4.06A14.21,14.21,0,0,0,64,23.36H47a13.71,13.71,0,0,1-11.39-6.1c0,10.51-1.79,13.16-6.1,20.32V35.2c0-9.24,6.1-10.79,6.1-22A13.72,13.72,0,0,0,47,19.29H64A14.23,14.23,0,0,1,78.22,33.52Z"/><path class="cls-7" d="M62,70.71v7.5L53.84,98.53,45.71,78.21v-7.5A24.2,24.2,0,0,0,62,70.71Z"/><path class="cls-7" d="M78.22,37.58V47.74a24.38,24.38,0,1,1-48.76,0V37.58c4.3-7.13,6.1-9.89,6.1-20.32A13.71,13.71,0,0,0,47,23.36H64A14.21,14.21,0,0,1,78.22,37.58Z"/><path class="cls-8" d="M78.22,43.29v4.45a24.38,24.38,0,1,1-48.76,0V43.29a24.31,24.31,0,0,0,7.13,17.25C51.79,75.73,78.22,65.08,78.22,43.29Z"/><path class="cls-7" d="M80.25,49.77h-2V37.58h2a6.1,6.1,0,1,1,0,12.19Z"/><path class="cls-7" d="M27.43,37.58h2V49.77h-2a6.1,6.1,0,0,1,0-12.19Z"/><path class="cls-8" d="M78.22,37.58v4.06A14.21,14.21,0,0,0,64,27.42c-17.53,0-20,.59-24.93-1.83-1.31,7-4.93,11.43-9.61,16.05V37.58c4.3-7.13,6.1-9.89,6.1-20.32A13.71,13.71,0,0,0,47,23.36H64A14.21,14.21,0,0,1,78.22,37.58Z"/><path class="cls-9" d="M56.9,39.61c0-.25-1.08-1-3.06-1s-3.07.78-3.07,1a1,1,0,0,1-1.14,1c-17-2.42-12.59-2-20.18-2a1,1,0,0,1,0-2c8.22,0,3.47-.39,19.65,1.93,1.58-2.57,7.9-2.57,9.48,0C74.75,36.19,70,36.58,78.22,36.58a1,1,0,0,1,0,2c-7.58,0-3.2-.4-20.18,2A1,1,0,0,1,56.9,39.61Z"/><circle class="cls-10" cx="42.67" cy="40.63" r="9.14"/><circle class="cls-10" cx="65.01" cy="40.63" r="9.14"/><circle class="cls-10" cx="42.67" cy="40.63" r="9.14"/><circle class="cls-10" cx="65.01" cy="40.63" r="9.14"/><path class="cls-11" d="M42.67,49.77a9.14,9.14,0,0,1-8.92-11.18c2.11,9.45,15.72,9.46,17.84,0A9.15,9.15,0,0,1,42.67,49.77Z"/><path class="cls-11" d="M65,49.77A9.14,9.14,0,0,1,56.1,38.59c2.11,9.45,15.72,9.46,17.83,0A9.14,9.14,0,0,1,65,49.77Z"/><path class="cls-12" d="M48.82,60.89a1,1,0,0,1,1.41-1.42,5.1,5.1,0,0,0,7.21,0,1,1,0,0,1,1.42,1.42A7.11,7.11,0,0,1,48.82,60.89Z"/><path class="cls-13" d="M112.77,97.55c-5.77,0,1.25,12.19-8.13,12.19h-1V99.55h1a1,1,0,0,0,0-2h-4.06a1,1,0,0,0,0,2h1v10.19c-4.84,0-6.31-.85-6.48-7.15-.06-2.36-.13-5-2.68-5a1,1,0,0,0,0,2c.51,0,.63,1,.69,3.1.19,7.24,2.47,9.09,8.47,9.09v6.13h-1a1,1,0,0,0,0,2h4.06a1,1,0,0,0,0-2h-1v-6.13h1c10.52,0,6.08-12.19,8.13-12.19A1,1,0,0,0,112.77,97.55Z"/></svg>