<svg xmlns="http://www.w3.org/2000/svg" viewBox="0 0 128 128"><defs><style>.cls-1{fill:#7aa8d7;}.cls-2{fill:#5b8dc9;}.cls-3{fill:#9dd5df;}.cls-4{fill:#77cacb;}</style></defs><title>Hug</title><g id="Hug"><path class="cls-1" d="M94.48,19.31V31.5c0,15.94-18.92,24-30.48,13.61V5.69C75.77-4.92,94.48,3.65,94.48,19.31Z"/><path class="cls-1" d="M110.73,96.52a6.1,6.1,0,0,1-12.19,0V127H53.84V68.07c-35.57-5.62-33.69-5.18-35-5.85a6.55,6.55,0,0,1-1.68-10.51c2.72-2.72-.86-1.93,73.24-1.93a20.22,20.22,0,0,1,7.87,1.59c11.9,11.17,10.21,8.85,11.74,13.43C111,68.12,110.73,67.84,110.73,96.52Z"/><path class="cls-2" d="M53.84,106.68V96.52H62v2A8.13,8.13,0,0,1,53.84,106.68Z"/><path class="cls-2" d="M76.19,45.72A4.1,4.1,0,0,1,72.48,40c2-5,1.68-7.2,1.68-20.7a22.28,22.28,0,0,0-6.77-16A17,17,0,0,0,64,5.69V45.11c11.74,10.59,30.48,2.12,30.48-14.2V27.43A18.29,18.29,0,0,1,76.19,45.72Z"/><path class="cls-3" d="M51.81,49.78A18.28,18.28,0,0,1,33.52,31.5V19.31a18.29,18.29,0,1,1,36.57,0V31.5A18.27,18.27,0,0,1,51.81,49.78Z"/><path class="cls-4" d="M70.09,27.43V31.5a18.29,18.29,0,0,1-36.57,0V27.43a18.29,18.29,0,1,0,36.57,0Z"/><path class="cls-3" d="M62,96.52a6.1,6.1,0,0,1-6.1,6.09H25.39a8.12,8.12,0,0,1-8.12-8.13c0-25.06-.51-27.22,1.58-32.26,1.27.66-.77.2,35,5.85V90.42h2A6.09,6.09,0,0,1,62,96.52Z"/><rect class="cls-3" x="29.46" y="102.61" width="24.38" height="24.38"/><rect class="cls-4" x="29.46" y="102.61" width="24.38" height="4.06"/><path class="cls-4" d="M53.84,72.13C20.22,66.82,19.42,67,17.78,65.59a19.76,19.76,0,0,1,1.07-3.37c1.27.66-.77.2,35,5.85Z"/><path class="cls-3" d="M79.75,63.33a6.09,6.09,0,0,1,4.07-7.6l21.08-6.36A6.1,6.1,0,0,1,108.43,61L87.34,67.4A6.08,6.08,0,0,1,79.75,63.33Z"/><path class="cls-4" d="M108.43,61,87.34,67.4a6.09,6.09,0,0,1-7.49-7.88,6.05,6.05,0,0,0,7.49,3.82L108.43,57c3.74-1.11,3.83-4.5,4.07-3.54A6.1,6.1,0,0,1,108.43,61Z"/><rect class="cls-4" x="49.78" y="70.1" width="4.06" height="20.32"/><rect class="cls-4" x="49.78" y="104.64" width="4.06" height="22.35"/><path class="cls-4" d="M31.49,86.36V72.13a2,2,0,0,0-4.06,0V88.39a2,2,0,0,0,2,2H53.84V86.36Z"/><path class="cls-2" d="M106.67,102.25c-3.83,1.48-8.13-1.54-8.13-6V72.13c0-2.72,4.06-2.62,4.06,0V96.52A6,6,0,0,0,106.67,102.25Z"/><path class="cls-4" d="M46.79,40.57a1,1,0,0,1,1.41-1.42,5.1,5.1,0,0,0,7.21,0,1,1,0,0,1,1.41,1.42A7.11,7.11,0,0,1,46.79,40.57Z"/></g></svg>