<svg xmlns="http://www.w3.org/2000/svg" viewBox="0 0 128 128"><defs><style>.cls-1{fill:#f2c4b0;}.cls-2{fill:#eab39b;}.cls-3{fill:#7aa8d7;}.cls-4{fill:#db72b8;}</style></defs><title>Hypersex</title><g id="Hypersex"><path class="cls-1" d="M112.75,71.82a5.34,5.34,0,0,1-4.29,5.24l-5.87,1.18c0,7-.14,5.87.37,6.64a3.52,3.52,0,0,1-.5,4.54c-1.25,1.21-2.55,1-4.42,1a3.58,3.58,0,0,1,2.52,6.1c0,6,.65,10.32-3.65,14.62a12.44,12.44,0,0,1-12.25,3.17l-12.53-3.58V127H23.58C25,98,27,87.7,20.21,71.37a62.56,62.56,0,0,1-5-24.68c0-13.52,4.27-24.24,12.92-32.86,26.66-26.53,76.45-9.89,76.45,30.89,0,6.06.16,6.91-.48,8.08a5.47,5.47,0,0,0,.34,5.75C112.14,69.24,112.75,69.52,112.75,71.82Z"/><path class="cls-2" d="M62,60.9A15.23,15.23,0,1,1,77.19,45.68,15.24,15.24,0,0,1,62,60.9Zm0-28.45A13.23,13.23,0,1,0,75.19,45.68,13.24,13.24,0,0,0,62,32.45Z"/><path class="cls-2" d="M52.09,57.25a13.59,13.59,0,0,0,1.75,1.29,14.5,14.5,0,0,0,1.74-1.29C52.8,55.73,54.84,55.78,52.09,57.25Z"/><path class="cls-2" d="M44.71,76.16V59.9a1,1,0,0,1,2,0V76.16A1,1,0,0,1,44.71,76.16Z"/><path class="cls-2" d="M51.81,71.06H39.61a1,1,0,0,1,0-2h12.2A1,1,0,0,1,51.81,71.06Z"/><path class="cls-2" d="M72,36.62a1,1,0,0,1-.71-1.71l12.3-12.29A1,1,0,0,1,85,24C71.65,37.41,72.62,36.62,72,36.62Z"/><path class="cls-2" d="M83.32,33.48V24.32H74.16a1,1,0,0,1,0-2H84.32a1,1,0,0,1,1,1V33.48A1,1,0,0,1,83.32,33.48Z"/><path class="cls-2" d="M55.58,34.1a12.19,12.19,0,0,0-1.74,1.15,13.24,13.24,0,1,1-1.75-1.15,15.77,15.77,0,0,1,1.75-1.29A15.24,15.24,0,0,0,30.48,45.68c0,13.19,15.59,19.87,25.1,11.57A15.18,15.18,0,0,0,55.58,34.1Z"/><path class="cls-2" d="M72.13,120.89V127H23.58s.12-2.41.28-6.09Z"/><path class="cls-2" d="M98,90.42a3.47,3.47,0,0,1,2.47,1H92.45a1,1,0,0,1,0-2h10C101.21,90.63,99.91,90.42,98,90.42Z"/><path class="cls-3" d="M62,58.9A15.23,15.23,0,1,1,77.19,43.68,15.24,15.24,0,0,1,62,58.9Zm0-28.45A13.23,13.23,0,1,0,75.19,43.68,13.24,13.24,0,0,0,62,30.45Z"/><path class="cls-3" d="M52.09,55.25a13.59,13.59,0,0,0,1.75,1.29,14.5,14.5,0,0,0,1.74-1.29C52.8,53.73,54.84,53.78,52.09,55.25Z"/><path class="cls-4" d="M44.71,74.16V57.9a1,1,0,0,1,2,0V74.16A1,1,0,0,1,44.71,74.16Z"/><path class="cls-4" d="M51.81,69.06H39.61a1,1,0,0,1,0-2h12.2A1,1,0,0,1,51.81,69.06Z"/><path class="cls-3" d="M72,34.62a1,1,0,0,1-.71-1.71l12.3-12.29A1,1,0,0,1,85,22C71.65,35.41,72.62,34.62,72,34.62Z"/><path class="cls-3" d="M83.32,31.48V22.32H74.16a1,1,0,0,1,0-2H84.32a1,1,0,0,1,1,1V31.48A1,1,0,0,1,83.32,31.48Z"/><path class="cls-4" d="M55.58,32.1a12.19,12.19,0,0,0-1.74,1.15,13.24,13.24,0,1,1-1.75-1.15,15.77,15.77,0,0,1,1.75-1.29A15.24,15.24,0,0,0,30.48,43.68c0,13.19,15.59,19.87,25.1,11.57A15.18,15.18,0,0,0,55.58,32.1Z"/></g></svg>