<svg xmlns="http://www.w3.org/2000/svg" viewBox="0 0 128 128"><defs><style>.cls-1{fill:#f2c4b0;}.cls-2{fill:#eab39b;}.cls-3{fill:#949aaf;}.cls-4{fill:#8288a1;}.cls-5{fill:#d4d8e1;}.cls-6{fill:#e2607f;}.cls-7{fill:#c7cdd8;}</style></defs><title>Insecure</title><g id="Insecure"><path class="cls-1" d="M112.75,71.82a5.34,5.34,0,0,1-4.29,5.24l-5.87,1.18c0,7-.14,5.87.37,6.64a3.52,3.52,0,0,1-.5,4.54c-1.25,1.21-2.55,1-4.42,1a3.58,3.58,0,0,1,2.52,6.1c0,6,.65,10.32-3.65,14.62a12.44,12.44,0,0,1-12.25,3.17l-12.53-3.58V127H23.58C25,98,27,87.7,20.21,71.37a62.56,62.56,0,0,1-5-24.68c0-13.52,4.27-24.24,12.92-32.86,26.66-26.53,76.45-9.89,76.45,30.89,0,6.06.16,6.91-.48,8.08a5.47,5.47,0,0,0,.34,5.75C112.14,69.24,112.75,69.52,112.75,71.82Z"/><rect class="cls-2" x="35.55" y="41.58" width="48.77" height="36.58" rx="4.06"/><path class="cls-2" d="M78.23,41.58H70.1c0-5.88,0-6.3,0-6.58a10.17,10.17,0,0,0-20.32.48v6.1H41.65c0-5.88,0-6.3,0-6.58.41-16.15,20-23.7,31.21-12.45C79,28.71,78.23,35.35,78.23,41.58Z"/><path class="cls-2" d="M72.13,120.89V127H23.58s.12-2.41.28-6.09Z"/><path class="cls-2" d="M98,90.42a3.47,3.47,0,0,1,2.47,1H92.45a1,1,0,0,1,0-2h10C101.21,90.63,99.91,90.42,98,90.42Z"/><rect class="cls-3" x="35.55" y="37.58" width="48.77" height="36.58" rx="4.06"/><path class="cls-4" d="M84.32,64.1v6a4.06,4.06,0,0,1-4.06,4.06H39.61a4.06,4.06,0,0,1-4.06-4.06v-6a4.06,4.06,0,0,0,4.06,4.06H80.26A4.06,4.06,0,0,0,84.32,64.1Z"/><path class="cls-5" d="M78.23,37.58H70.1c0-5.88,0-6.3,0-6.58a10.17,10.17,0,0,0-20.32.48v6.1H41.65c0-5.88,0-6.3,0-6.58.41-16.15,20-23.7,31.21-12.45C79,24.71,78.23,31.35,78.23,37.58Z"/><path class="cls-6" d="M53.84,63a1,1,0,0,1-.71-1.71l12.2-12.19a1,1,0,0,1,1.41,1.41C53.45,63.77,54.43,63,53.84,63Z"/><path class="cls-6" d="M66,63c-.6,0,.17.58-12.9-12.49a1,1,0,0,1,1.42-1.41L66.74,61.26A1,1,0,0,1,66,63Z"/><path class="cls-7" d="M41.66,31h8.12c0,.28,0,0,0,6.58H41.65C41.65,31.7,41.64,31.28,41.66,31Z"/><path class="cls-7" d="M78.23,37.58H70.1c0-5.88,0-6.3,0-6.58h8.13C78.24,31.28,78.23,31,78.23,37.58Z"/></g></svg>