<svg xmlns="http://www.w3.org/2000/svg" viewBox="0 0 128 128"><defs><style>.cls-1{fill:#f2c4b0;}.cls-2{fill:#eab39b;}.cls-3{fill:#d4d8e1;}.cls-4{fill:#c7cdd8;}.cls-5{fill:#949aaf;}.cls-6{fill:#7aa8d7;}.cls-7{fill:#e2607f;}</style></defs><title>Insomnia</title><g id="Insomnia"><path class="cls-1" d="M112.75,71.82a5.34,5.34,0,0,1-4.29,5.24l-5.87,1.18c0,7-.14,5.87.37,6.64a3.52,3.52,0,0,1-.5,4.54c-1.25,1.21-2.55,1-4.42,1a3.58,3.58,0,0,1,2.52,6.1c0,6,.65,10.32-3.65,14.62a12.44,12.44,0,0,1-12.25,3.17l-12.53-3.58V127H23.58C25,98,27,87.7,20.21,71.37a62.56,62.56,0,0,1-5-24.68c0-13.52,4.27-24.24,12.92-32.86,26.66-26.53,76.45-9.89,76.45,30.89,0,6.06.16,6.91-.48,8.08a5.47,5.47,0,0,0,.34,5.75C112.14,69.24,112.75,69.52,112.75,71.82Z"/><circle class="cls-2" cx="55.88" cy="55.85" r="30.47"/><path class="cls-2" d="M55.88,86.31c-18.72,0-32.4-16.73-30.31-33.45a30.46,30.46,0,0,0,60.61,0C88.27,69.61,74.59,86.31,55.88,86.31Z"/><path class="cls-2" d="M98,90.42a3.47,3.47,0,0,1,2.47,1H92.45a1,1,0,0,1,0-2h10C101.21,90.63,99.91,90.42,98,90.42Z"/><circle class="cls-3" cx="55.88" cy="51.85" r="30.47"/><path class="cls-4" d="M55.88,82.31c-18.72,0-32.4-16.73-30.31-33.45a30.46,30.46,0,0,0,60.61,0C88.27,65.61,74.59,82.31,55.88,82.31Z"/><path class="cls-2" d="M72.13,120.89V127H23.58s.12-2.41.28-6.09Z"/><path class="cls-5" d="M54.87,31.48V27.42a1,1,0,0,1,2,0v4.06A1,1,0,0,1,54.87,31.48Z"/><path class="cls-5" d="M54.87,76.19V72.13a1,1,0,0,1,2,0v4.06A1,1,0,0,1,54.87,76.19Z"/><path class="cls-5" d="M35.55,52.81H31.48a1,1,0,0,1,0-2h4.07A1,1,0,0,1,35.55,52.81Z"/><path class="cls-6" d="M55.87,65c-8.5,0-8.62.21-9-.53s-.43-.3,7.14-11.66H47.74a1,1,0,0,1,0-2h8.13a1,1,0,0,1,.83,1.55L49.61,63h6.26A1,1,0,0,1,55.87,65Z"/><path class="cls-6" d="M70.1,48.74c-8.51,0-8.62.21-9-.53s-.43-.3,7.14-11.66H62a1,1,0,0,1,0-2H70.1a1,1,0,0,1,.83,1.55L63.84,46.74H70.1A1,1,0,0,1,70.1,48.74Z"/><path class="cls-6" d="M84.32,32.48c-8.5,0-8.62.21-9-.52s-.43-.31,7.14-11.67H76.19a1,1,0,0,1,0-2h8.13a1,1,0,0,1,.83,1.56L78.06,30.48h6.26A1,1,0,0,1,84.32,32.48Z"/><path class="cls-7" d="M93.16,53.13c-6.53-6.53-6.22-6.39-6.81-6.39s-.21-.2-6.8,6.39A1,1,0,0,0,81,54.55l4.39-4.39v1.65A29.48,29.48,0,1,1,55.87,22.32a1,1,0,0,0,0-2,31.49,31.49,0,0,0,0,63c16.07,0,31.48-12.26,31.48-33.13l4.39,4.39A1,1,0,0,0,93.16,53.13Z"/><path class="cls-5" d="M45,29.94a1.5,1.5,0,0,1-2.6,1.5A1.5,1.5,0,0,1,45,29.94Z"/><path class="cls-5" d="M69.36,72.18a1.5,1.5,0,0,1-2.59,1.5A1.5,1.5,0,0,1,69.36,72.18Z"/><path class="cls-5" d="M42.38,72.18a1.5,1.5,0,0,0,2.6,1.5A1.5,1.5,0,0,0,42.38,72.18Z"/><path class="cls-5" d="M35.5,65.3A1.5,1.5,0,0,1,34,62.7,1.5,1.5,0,0,1,35.5,65.3Z"/><path class="cls-5" d="M77.74,62.7a1.5,1.5,0,0,0-1.5,2.6A1.5,1.5,0,0,0,77.74,62.7Z"/><path class="cls-5" d="M35.5,38.31a1.5,1.5,0,0,0-1.5,2.6A1.5,1.5,0,0,0,35.5,38.31Z"/></g></svg>