<svg xmlns="http://www.w3.org/2000/svg" viewBox="0 0 128 128"><defs><style>.cls-1{fill:#f2c4b0;}.cls-2{fill:#eab39b;}.cls-3{fill:#7aa8d7;}</style></defs><title>Intrusive thought</title><g id="Intrusive_thought" data-name="Intrusive thought"><path class="cls-1" d="M112.75,71.82a5.34,5.34,0,0,1-4.29,5.24l-5.87,1.18c0,7-.14,5.87.37,6.64a3.52,3.52,0,0,1-.5,4.54c-1.25,1.21-2.55,1-4.42,1a3.58,3.58,0,0,1,2.52,6.1c0,6,.65,10.32-3.65,14.62a12.44,12.44,0,0,1-12.25,3.17l-12.53-3.58V127H23.58C25,98,27,87.7,20.21,71.37a62.56,62.56,0,0,1-5-24.68c0-13.52,4.27-24.24,12.92-32.86,26.66-26.53,76.45-9.89,76.45,30.89,0,6.06.16,6.91-.48,8.08a5.47,5.47,0,0,0,.34,5.75C112.14,69.24,112.75,69.52,112.75,71.82Z"/><path class="cls-2" d="M72.13,120.89V127H23.58s.12-2.41.28-6.09Z"/><path class="cls-2" d="M98,90.42a3.47,3.47,0,0,1,2.47,1H92.45a1,1,0,0,1,0-2h10C101.21,90.63,99.91,90.42,98,90.42Z"/><path class="cls-2" d="M33.62,62.78c-4.85,1.88-8.06-.09-9.2-4.67-1.68-6.69,6.79-10.3,13.73-11.42a18.79,18.79,0,0,0,2.43-5.11c-4.53,1.82-10.41,3.37-12.9-1C25.33,36.39,27.91,28,39,18.5,53.41,6.12,68.26,8,74.72,12.33a13.81,13.81,0,0,1,4.5,5.06C90.44,19.55,94.32,29,91.47,39.73c7.24,6.45,4.08,10-5.1,10.16-5.2,6.52-10.31,7.55-16.58,6.66C58.84,67.44,39.49,67.56,33.62,62.78Zm2.05-1c5.79,3.63,22.36,2.75,31.71-5.73-7.16-1.74-9.93-5.82-17.8-7.39C49.17,48.61,43.29,57.61,35.67,61.81ZM36.48,49c-4.76,1.08-11.31,3.82-10.12,8.59.81,3.26,2.64,4.53,5.85,3.55-1.25-2-1.52-5.27,2.58-10.06C35.41,50.4,36,49.7,36.48,49Zm2.85-.52c-2.68,3.91-7.84,8.32-5.23,11.89,3.8-1.92,8.52-6.25,13.09-12.08A34,34,0,0,0,39.33,48.52Zm32.16,6.21c4.34.37,8-.19,12.29-4.88C71.3,49.22,79.13,45.93,71.49,54.73ZM50.77,46.9c8.07,1.85,10.94,6.14,18.32,7.51a35.74,35.74,0,0,0,4.69-6.24c-6-1.8-8.13-4.06-15.34-10.92C54.93,40.39,52.87,44,50.77,46.9Zm26,0a42.22,42.22,0,0,0,8.62,1,26.32,26.32,0,0,0,3.82-7.47,55.34,55.34,0,0,0-8.27-5.54A45,45,0,0,1,76.76,46.88Zm14.06-5.05a27.59,27.59,0,0,1-3,6c1.52-.1,5.62-.63,5.62-2.14C93.48,44.69,92.39,43.3,90.82,41.83ZM48.59,46.49c2.73-3.69,4.56-7.13,8.39-10.62-1.23-1.14-2.44-2.23-3.62-3.19a31.47,31.47,0,0,1-10.52,7.91,17.33,17.33,0,0,1-2.16,5.78A34.9,34.9,0,0,1,48.59,46.49ZM60,36c7.29,6.93,9.16,8.81,14.79,10.41A42.64,42.64,0,0,0,79,34.14C71.08,31.65,65.21,32.09,60,36ZM62.34,11c-18.8,0-36.9,21.5-32.92,28.52,2,3.47,7.91,1.3,11.56-.31.25-4-1.9-6.64,2-10.53,2.75-2.75,6.29-1.54,10.1,1.23,1.42-1.74,2.67-3.48,4-5.21,4.23-5.29,12-8.29,19.55-7.69C73.62,12.62,67.73,11,62.34,11ZM81.27,32.84a54.45,54.45,0,0,1,8.5,5.47c1.94-8.62-.71-16.22-9.53-18.64A27.8,27.8,0,0,1,81.27,32.84ZM44.38,30.13C41.56,33,42.93,34.61,43,38.27a29.87,29.87,0,0,0,8.77-6.81C49.45,29.79,46.4,28.11,44.38,30.13Zm10.27,1c1.28,1,2.57,2.2,3.87,3.41,5.73-4.41,12.21-5.06,20.82-2.43.53-4.26.32-9-1.46-12.95-7.29-1.06-15.11,1.68-19.2,6.79C58.78,26,54.74,31.06,54.65,31.16Zm3.25-5.81h0Z"/><path class="cls-3" d="M33.62,60.78c-4.85,1.88-8.06-.09-9.2-4.67-1.68-6.69,6.79-10.3,13.73-11.42a18.79,18.79,0,0,0,2.43-5.11c-4.53,1.82-10.41,3.37-12.9-1C25.33,34.39,27.91,26,39,16.5,53.41,4.12,68.26,6,74.72,10.33a13.81,13.81,0,0,1,4.5,5.06C90.44,17.55,94.32,27,91.47,37.73c7.24,6.45,4.08,10-5.1,10.16-5.2,6.52-10.31,7.55-16.58,6.66C58.84,65.44,39.49,65.56,33.62,60.78Zm2.05-1c5.79,3.63,22.36,2.75,31.71-5.73-7.16-1.74-9.93-5.82-17.8-7.39C49.17,46.61,43.29,55.61,35.67,59.81ZM36.48,47c-4.76,1.08-11.31,3.82-10.12,8.59.81,3.26,2.64,4.53,5.85,3.55-1.25-2-1.52-5.27,2.58-10.06C35.41,48.4,36,47.7,36.48,47Zm2.85-.52c-2.68,3.91-7.84,8.32-5.23,11.89,3.8-1.92,8.52-6.25,13.09-12.08A34,34,0,0,0,39.33,46.52Zm32.16,6.21c4.34.37,8-.19,12.29-4.88C71.3,47.22,79.13,43.93,71.49,52.73ZM50.77,44.9c8.07,1.85,10.94,6.14,18.32,7.51a35.74,35.74,0,0,0,4.69-6.24c-6-1.8-8.13-4.06-15.34-10.92C54.93,38.39,52.87,42,50.77,44.9Zm26,0a42.22,42.22,0,0,0,8.62,1,26.32,26.32,0,0,0,3.82-7.47,55.34,55.34,0,0,0-8.27-5.54A45,45,0,0,1,76.76,44.88Zm14.06-5.05a27.59,27.59,0,0,1-3,6c1.52-.1,5.62-.63,5.62-2.14C93.48,42.69,92.39,41.3,90.82,39.83ZM48.59,44.49c2.73-3.69,4.56-7.13,8.39-10.62-1.23-1.14-2.44-2.23-3.62-3.19a31.47,31.47,0,0,1-10.52,7.91,17.33,17.33,0,0,1-2.16,5.78A34.9,34.9,0,0,1,48.59,44.49ZM60,34c7.29,6.93,9.16,8.81,14.79,10.41A42.64,42.64,0,0,0,79,32.14C71.08,29.65,65.21,30.09,60,34ZM62.34,9c-18.8,0-36.9,21.5-32.92,28.52,2,3.47,7.91,1.3,11.56-.31.25-4-1.9-6.64,2-10.53,2.75-2.75,6.29-1.54,10.1,1.23,1.42-1.74,2.67-3.48,4-5.21,4.23-5.29,12-8.29,19.55-7.69C73.62,10.62,67.73,9,62.34,9ZM81.27,30.84a54.45,54.45,0,0,1,8.5,5.47c1.94-8.62-.71-16.22-9.53-18.64A27.8,27.8,0,0,1,81.27,30.84ZM44.38,28.13C41.56,31,42.93,32.61,43,36.27a29.87,29.87,0,0,0,8.77-6.81C49.45,27.79,46.4,26.11,44.38,28.13Zm10.27,1c1.28,1,2.57,2.2,3.87,3.41,5.73-4.41,12.21-5.06,20.82-2.43.53-4.26.32-9-1.46-12.95-7.29-1.06-15.11,1.68-19.2,6.79C58.78,24,54.74,29.06,54.65,29.16Zm3.25-5.81h0Z"/></g></svg>