<svg xmlns="http://www.w3.org/2000/svg" viewBox="0 0 128 128"><defs><style>.cls-1{fill:#9b756d;}.cls-2{fill:#8a6762;}.cls-3{fill:#949aaf;}.cls-4{fill:#adb3c4;}.cls-5{fill:#f2c4b0;}.cls-6{fill:#eab39b;}.cls-7{fill:#d4d8e1;}.cls-8{fill:#e2607f;}.cls-9{fill:#dd4e6a;}.cls-10{fill:#454b60;}.cls-11{fill:#42455e;}.cls-12{fill:#9dd5df;}.cls-13{fill:#7aa8d7;}.cls-14{fill:#5b8dc9;}.cls-15{fill:#fff;}.cls-16{fill:#8288a1;}.cls-17{fill:#77cacb;}</style></defs><title>Male Psycolog</title><g id="Male_Psycolog" data-name="Male Psycolog"><path class="cls-1" d="M102.6,127H5.08c.9-5.44.1-.61,4.17-25A28.45,28.45,0,0,1,37.3,78.2c36.29,0,35.13-.22,39.05.65A28.41,28.41,0,0,1,92.62,88.93C102.75,127.48,101.1,121.19,102.6,127Z"/><path class="cls-2" d="M79.6,108.45c2.85,5.67,3.52,6.29,2.66,7.58L75,127H32.71c-7.6-11.39-8.13-11.52-7.41-13l2.78-5.55-6-3a2,2,0,0,1-1.06-2.31l5.72-22.94a28.06,28.06,0,0,1,10.52-2c33.4,0,36.86-.68,43.58,2l5.74,22.94a2,2,0,0,1-1.06,2.31Z"/><path class="cls-1" d="M74.16,106.64l4.06,8.13L70.09,127H37.59l-8.13-12.19,4.06-8.13-8.12-4.06,5.93-23.75a28.66,28.66,0,0,1,6-.63c36.29,0,35.13-.22,39.05.65l5.93,23.73Z"/><path class="cls-3" d="M68.06,78.2c-5.32,31.87-3.55,21.28-8.12,48.76H47.75C43.09,99,44.87,109.66,39.62,78.2Z"/><path class="cls-4" d="M60.48,87.22c-15.69,9-2.8,1.59-17.67,10.1-.92-5.5-.23-1.4-3.19-19.12H51.46Z"/><path class="cls-4" d="M68.06,78.2c-3,17.73-2.23,13.38-3.19,19.12-12.28-7-3.6-2-17.67-10.1l9-9Z"/><path class="cls-5" d="M78.22,15.61V47.73a24.38,24.38,0,0,1-48.76,0V15.61Z"/><path class="cls-6" d="M78.22,43.28v4.45a24.38,24.38,0,0,1-48.76,0V43.28a24.27,24.27,0,0,0,7.13,17.24C51.79,75.72,78.22,65.07,78.22,43.28Z"/><path class="cls-5" d="M62,70.7v7.5l-8.13,8.13L45.71,78.2V70.7A24.27,24.27,0,0,0,62,70.7Z"/><path class="cls-7" d="M37.59,78.2h8.12l8.13,8.13C45.65,91,48.29,89.49,42.1,93.05Z"/><path class="cls-7" d="M65.58,93.05c-6.19-3.56-3.55-2-11.74-6.72L62,78.2h8.12Z"/><path class="cls-8" d="M60.67,90.23c-1.53,4.53-1.26,3.73-1.49,4.43a5.63,5.63,0,0,1-10.68,0L47,90.23c3.43-2,1.9-1.1,6.83-3.9C59,89.24,57.22,88.24,60.67,90.23Z"/><path class="cls-9" d="M57.94,88.66c-5.82,3.35-8.52,4.87-9.61,5.51L47,90.23c3.43-2,1.9-1.1,6.83-3.9Z"/><path class="cls-9" d="M60.67,90.23l-1.32,3.92c-5.77-3.3-1.18-.64-9.61-5.49l4.1-2.33C59,89.24,57.22,88.24,60.67,90.23Z"/><path class="cls-5" d="M80.25,49.76h-2V37.57h2a6.1,6.1,0,1,1,0,12.19Z"/><path class="cls-5" d="M27.43,37.57h2V49.76h-2a6.1,6.1,0,0,1,0-12.19Z"/><path class="cls-6" d="M78.22,15.61c0,27.43-.2,26,0,26A14.22,14.22,0,0,0,64,27.41c-17.53,0-20,.59-24.93-1.83a26.63,26.63,0,0,1-7.84,14.31l-1.77,1.74v-26Z"/><path class="cls-10" d="M29.46,37.57c5-8.28,6.1-10.82,6.1-20.32a13.67,13.67,0,0,0,11.38,6.1H64A14.22,14.22,0,0,1,78.22,37.57h2a24.2,24.2,0,0,0,4.06-13.42V21.32A20.31,20.31,0,0,0,64,1H45.37a13.87,13.87,0,0,0-9.81,4.06A14.59,14.59,0,0,0,23.37,19.45c0,6.37-.3,11.57,4.06,18.12Z"/><path class="cls-11" d="M80.25,37.57h-2A14.21,14.21,0,0,0,64,23.35c-17.8,0-19.53.53-23.51-1.63-5.79-3.1-4.93-7.17-4.93-2,0,8.39-3.35,13.27-6.1,17.84h-2c-4.45-6.7-4.06-12.36-4.06-17.49,0,6.9,3.68,13.43,4.06,13.43C34.16,22.34,35.56,21,35.56,13.19A13.72,13.72,0,0,0,47,19.28H66A14.21,14.21,0,0,1,80.25,33.51c.34,0,4-6,4-13C84.89,28.29,82.91,33.56,80.25,37.57Z"/><circle class="cls-12" cx="42.67" cy="40.62" r="9.14"/><circle class="cls-12" cx="65.01" cy="40.62" r="9.14"/><path class="cls-8" d="M59.94,127H47.75c-1.17-7-1.37-1.39,1.52-24.42.66-5.33,8.48-5.34,9.14,0C61.21,124.83,61.1,119.92,59.94,127Z"/><polygon class="cls-2" points="47.75 126.96 5.08 126.96 5.75 122.89 47.08 122.89 47.75 126.96"/><polygon class="cls-2" points="102.6 126.96 59.94 126.96 60.61 122.89 101.54 122.89 102.6 126.96"/><polygon class="cls-9" points="60.61 122.89 59.94 126.96 47.75 126.96 47.08 122.89 60.61 122.89"/><circle class="cls-13" cx="102.6" cy="106.64" r="20.32"/><path class="cls-14" d="M112.59,124.34C98,132.55,80.64,120.61,82.4,104.53a20.32,20.32,0,0,0,40.45.51A20.34,20.34,0,0,1,112.59,124.34Z"/><path class="cls-9" d="M48.82,60.89a1,1,0,0,1,1.41-1.42,5.1,5.1,0,0,0,7.21,0,1,1,0,0,1,1.42,1.42A7.11,7.11,0,0,1,48.82,60.89Z"/><path class="cls-15" d="M101.61,118.87V98.55a1,1,0,0,1,2,0v20.32A1,1,0,0,1,101.61,118.87Z"/><path class="cls-15" d="M104.64,99.55h-4.06a1,1,0,0,1,0-2h4.06A1,1,0,0,1,104.64,99.55Z"/><path class="cls-15" d="M104.64,119.87h-4.06a1,1,0,0,1,0-2h4.06A1,1,0,0,1,104.64,119.87Z"/><path class="cls-15" d="M104.64,111.74H102.1a1,1,0,0,1,0-2h2.54c9.35,0,2.39-12.19,8.13-12.19a1,1,0,0,1,0,2C110.73,99.55,115.15,111.74,104.64,111.74Z"/><path class="cls-15" d="M103.12,111.74h-2.54c-10.51,0-6.08-12.19-8.13-12.19a1,1,0,0,1,0-2c2.55,0,2.62,2.68,2.68,5,.2,7.22,2.2,7.15,8,7.15A1,1,0,0,1,103.12,111.74Z"/><path class="cls-16" d="M56.9,39.61c0-.25-1.08-1-3.06-1s-3.07.78-3.07,1a1,1,0,0,1-1.14,1c-17-2.42-12.59-2-20.18-2a1,1,0,0,1,0-2c8.22,0,3.47-.39,19.65,1.93,1.58-2.57,7.9-2.57,9.48,0C74.75,36.19,70,36.58,78.22,36.58a1,1,0,0,1,0,2c-7.58,0-3.2-.4-20.18,2A1,1,0,0,1,56.9,39.61Z"/><circle class="cls-12" cx="42.67" cy="40.62" r="9.14"/><circle class="cls-12" cx="65.01" cy="40.62" r="9.14"/><path class="cls-17" d="M42.67,49.76a9.14,9.14,0,0,1-8.92-11.18c2.11,9.45,15.72,9.46,17.84,0A9.15,9.15,0,0,1,42.67,49.76Z"/><path class="cls-17" d="M65,49.76A9.14,9.14,0,0,1,56.1,38.58c2.11,9.45,15.72,9.46,17.83,0A9.14,9.14,0,0,1,65,49.76Z"/></g></svg>