<svg xmlns="http://www.w3.org/2000/svg" viewBox="0 0 128 128"><defs><style>.cls-1{fill:#7aa8d7;}.cls-2{fill:#5b8dc9;}</style></defs><title>Meditation activity</title><g id="Meditation_activity" data-name="Meditation activity"><path class="cls-1" d="M127,61.13a5.21,5.21,0,0,1-2.42,4.41L100.32,81.15a7.3,7.3,0,0,1-3.89,1.14,7.22,7.22,0,0,1-6.09-3.37L82,66.58v19.9l17.06,1.28a8.3,8.3,0,0,1,1.22,16.36l-13.5,3.17,3.64,1.42h12.19l9.13,11a4.45,4.45,0,0,1,1,2.87A4.51,4.51,0,0,1,108.3,127h-.57a4.56,4.56,0,0,1-2-.47l-15.3-7.66-62.7-14.75a8.3,8.3,0,0,1,1.22-16.36L46,86.48V66.58L37.66,78.92a7.22,7.22,0,0,1-6.09,3.37,7.3,7.3,0,0,1-3.89-1.14L3.42,65.54a5.25,5.25,0,0,1,2.84-9.67,10.35,10.35,0,0,1,5.33,1.48L29.45,68.06,42.27,44A12.18,12.18,0,0,1,53,37.58H75A12.18,12.18,0,0,1,85.73,44l12.82,24,17.86-10.71a10.35,10.35,0,0,1,5.33-1.48A5.28,5.28,0,0,1,127,61.13Z"/><path class="cls-2" d="M46,62.53v4.06L37.68,78.9a7.18,7.18,0,0,1-10,2.23L3.45,65.53a5.25,5.25,0,0,1-2-6.46,5.27,5.27,0,0,0,2,2.4C29.55,78.26,28.7,78.21,31.59,78.21a7.2,7.2,0,0,0,6.09-3.37Z"/><path class="cls-2" d="M112.27,120.47c1.38,2.45,0,6.5-4.54,6.5-1.49,0-1,0-17.3-8.13L27.75,104.09A8.28,8.28,0,0,1,21.61,94a8.3,8.3,0,0,0,6.14,6l62.68,14.75c17.27,8.65,15.64,8.13,17.87,8.13A4.5,4.5,0,0,0,112.27,120.47Z"/><path class="cls-2" d="M124.58,65.53l-24.26,15.6a7.2,7.2,0,0,1-10-2.23L82,66.55V62.48l8.34,12.36a7.22,7.22,0,0,0,6.1,3.37c2.89,0,1.54.37,28.14-16.74a5.27,5.27,0,0,0,2-2.4A5.26,5.26,0,0,1,124.58,65.53Z"/><path class="cls-1" d="M41.24,107.26c-4.58,1.79-1.2,1.42-15.83,1.42-9.84,11.83-10.16,11.65-10.16,13.82,0,3.59,3.95,5.5,7.05,4,19.27-9.65,10-6.41,41.71-13.87"/><path class="cls-2" d="M64,112.63c-31.72,7.46-22.45,4.23-41.71,13.87-2.47,1.2-6,.24-6.86-2.76,2.68.84,4-.36,19.12-7.95L56,110.74Z"/><path class="cls-2" d="M64,98.43a1,1,0,0,1-.27-2L73.8,92.55a1,1,0,0,1,.72,1.87C63.44,98.72,64.27,98.43,64,98.43Z"/><path class="cls-2" d="M90.8,108.63c-.58.24,2.54,1.25-37.32-14.21a1,1,0,0,1,.72-1.87l35.86,14-3.27.76C89,108.13,89.36,108.49,90.8,108.63Z"/><rect class="cls-1" x="50.28" y="1" width="27.44" height="36.58" rx="13.72"/><path class="cls-2" d="M77.72,18.86v5a13.72,13.72,0,0,1-27.44,0v-5a13.72,13.72,0,0,0,27.44,0Z"/></g></svg>