<svg xmlns="http://www.w3.org/2000/svg" viewBox="0 0 128 128"><defs><style>.cls-1{fill:#d4d8e1;}.cls-2{fill:#c7cdd8;}.cls-3{fill:#7aa8d7;}.cls-4{fill:#5b8dc9;}.cls-5{fill:#949aaf;}.cls-6{fill:#8288a1;}.cls-7{fill:#fbcc88;}.cls-8{fill:#f6b756;}</style></defs><title>Medicine</title><g id="Medicine"><path class="cls-1" d="M78.23,127H5.06A4.08,4.08,0,0,1,1,122.94V5.06A4.08,4.08,0,0,1,5.06,1h69.1a4.08,4.08,0,0,1,4.07,4.06Z"/><path class="cls-2" d="M78.23,120.9V127H5.06A4.08,4.08,0,0,1,1,122.94v-6.1a4.08,4.08,0,0,0,4.06,4.06Z"/><path class="cls-3" d="M110.74,41.65V33.52H78.23v8.13L68.71,46.4A12.2,12.2,0,0,0,62,57.31V120.9a6.1,6.1,0,0,0,6.09,6.1H120.9a6.1,6.1,0,0,0,6.1-6.1V57.31a12.2,12.2,0,0,0-6.74-10.91Z"/><path class="cls-4" d="M127,114.81v6.09a6.09,6.09,0,0,1-6.1,6.1H68.06A6.08,6.08,0,0,1,62,120.9v-6.09a6.08,6.08,0,0,0,6.09,6.09H120.9A6.08,6.08,0,0,0,127,114.81Z"/><rect class="cls-5" x="74.16" y="13.19" width="40.65" height="20.32"/><rect class="cls-6" x="74.16" y="27.42" width="40.65" height="6.1"/><rect class="cls-1" x="74.16" y="66.03" width="52.84" height="44.71"/><rect class="cls-2" x="74.16" y="102.61" width="52.84" height="8.13"/><path class="cls-7" d="M33.52,27.42A10.18,10.18,0,0,1,16.9,35.28c-7.26-6-3.14-18,6.45-18A10.17,10.17,0,0,1,33.52,27.42Z"/><path class="cls-7" d="M66,27.42c0,8.63-10.19,13.29-16.61,7.86-7.29-6.05-3.11-18,6.45-18A10.16,10.16,0,0,1,66,27.42Z"/><path class="cls-7" d="M33.52,64A10.18,10.18,0,0,1,16.9,71.86c-7.26-6-3.14-18,6.45-18A10.17,10.17,0,0,1,33.52,64Z"/><path class="cls-7" d="M62.05,55.93,62,72.13a10.19,10.19,0,0,1-14.59-2.52C41.09,59.88,53.21,49.09,62.05,55.93Z"/><path class="cls-7" d="M33.52,100.58a10.18,10.18,0,0,1-16.62,7.86c-7.2-5.84-3.25-18,6.45-18A10.17,10.17,0,0,1,33.52,100.58Z"/><path class="cls-7" d="M62,92.45v16.26a10.19,10.19,0,0,1-14.59-2.52C41.12,96.51,53.11,85.73,62,92.45Z"/><path class="cls-8" d="M23.35,37.58a10.16,10.16,0,0,1-10-12.17c2.23,10.76,17.68,10.77,19.91,0A10.16,10.16,0,0,1,23.35,37.58Z"/><path class="cls-8" d="M55.87,37.58a10.17,10.17,0,0,1-10-12.17c2.23,10.76,17.69,10.77,19.92,0A10.16,10.16,0,0,1,55.87,37.58Z"/><path class="cls-8" d="M23.35,74.16A10.16,10.16,0,0,1,13.4,62c2.23,10.76,17.68,10.77,19.91,0A10.16,10.16,0,0,1,23.35,74.16Z"/><path class="cls-8" d="M62,72.13C54.56,77.75,44,71,45.91,62A10.18,10.18,0,0,0,62,68.06C62.06,49.49,62.06,53.33,62,72.13Z"/><path class="cls-8" d="M23.35,110.74a10.16,10.16,0,0,1-10-12.17c2.23,10.76,17.68,10.77,19.91,0A10.16,10.16,0,0,1,23.35,110.74Z"/><path class="cls-8" d="M62,104.65v4.06c-7.41,5.62-18-1.15-16.06-10.14A10.19,10.19,0,0,0,62,104.65Z"/><path class="cls-2" d="M23.35,41.65a10.17,10.17,0,0,1-10-12.18c2.23,10.76,17.68,10.78,19.91,0A10.16,10.16,0,0,1,23.35,41.65Z"/><path class="cls-2" d="M55.87,41.65a10.17,10.17,0,0,1-10-12.18c2.23,10.76,17.69,10.78,19.92,0A10.17,10.17,0,0,1,55.87,41.65Z"/><path class="cls-2" d="M23.35,78.23a10.17,10.17,0,0,1-10-12.18c2.23,10.76,17.68,10.78,19.91,0A10.16,10.16,0,0,1,23.35,78.23Z"/><path class="cls-2" d="M62,76.19C54.56,81.82,44,75,45.91,66.05A10.18,10.18,0,0,0,62,72.13C62.06,53.55,62.06,57.39,62,76.19Z"/><path class="cls-2" d="M23.35,114.81a10.17,10.17,0,0,1-10-12.18c2.23,10.77,17.68,10.78,19.91,0A10.16,10.16,0,0,1,23.35,114.81Z"/><path class="cls-2" d="M62,108.71v4.06c-7.41,5.63-18-1.15-16.06-10.14A10.18,10.18,0,0,0,62,108.71Z"/><rect class="cls-4" x="78.23" y="33.52" width="32.52" height="8.13"/><path class="cls-3" d="M99.58,98.55V78.23a1,1,0,0,1,2,0V98.55A1,1,0,0,1,99.58,98.55Z"/><path class="cls-3" d="M102.61,79.23H98.55a1,1,0,0,1,0-2h4.06A1,1,0,0,1,102.61,79.23Z"/><path class="cls-3" d="M102.61,99.55H98.55a1,1,0,0,1,0-2h4.06A1,1,0,0,1,102.61,99.55Z"/><path class="cls-3" d="M102.61,91.42h-2.54a1,1,0,0,1,0-2h2.54c9.35,0,2.38-12.19,8.13-12.19a1,1,0,0,1,0,2C108.7,79.23,113.12,91.42,102.61,91.42Z"/><path class="cls-3" d="M101.09,91.42H98.55c-10.51,0-6.09-12.19-8.13-12.19a1,1,0,0,1,0-2c2.55,0,2.62,2.68,2.68,5,.2,7.22,2.2,7.15,8,7.15A1,1,0,0,1,101.09,91.42Z"/><path class="cls-8" d="M28.13,24.06C19.37,32.82,17,35.23,16.9,35.28a11,11,0,0,1-1.41-1.4L26.71,22.65A1,1,0,0,1,28.13,24.06Z"/><path class="cls-8" d="M60.64,24.06c-7.35,7.35-11.17,11.12-11.22,11.22A11,11,0,0,1,48,33.88c.05-.1.81-.82,11.22-11.23A1,1,0,0,1,60.64,24.06Z"/><path class="cls-8" d="M28.13,60.64C17.91,70.86,17,71.81,16.9,71.86a11,11,0,0,1-1.41-1.4L26.71,59.23A1,1,0,0,1,28.13,60.64Z"/><path class="cls-8" d="M60.64,60.64c-7.18,7.18-11.12,11.21-11.22,11.21-.22-.18-1.49-1.32-1.37-1.44L59.23,59.23A1,1,0,0,1,60.64,60.64Z"/><path class="cls-8" d="M28.13,97.22C17.91,107.44,17,108.39,16.9,108.44a9.83,9.83,0,0,1-1.41-1.4L26.71,95.81A1,1,0,0,1,28.13,97.22Z"/><path class="cls-8" d="M60.64,97.22c-7.17,7.17-11.12,11.21-11.22,11.21-.22-.18-1.49-1.32-1.37-1.44L59.23,95.81A1,1,0,0,1,60.64,97.22Z"/></g></svg>