<svg xmlns="http://www.w3.org/2000/svg" viewBox="0 0 128 128"><defs><style>.cls-1{fill:#f2c4b0;}.cls-2{fill:#eab39b;}.cls-3{fill:#7aa8d7;}.cls-4{fill:#5b8dc9;}.cls-5{fill:#d4d8e1;}.cls-6{fill:#c7cdd8;}</style></defs><title>Mental Health</title><g id="Mental_Health" data-name="Mental Health"><path class="cls-1" d="M112.75,71.82a5.34,5.34,0,0,1-4.29,5.24l-5.87,1.18c0,7-.14,5.87.37,6.64a3.52,3.52,0,0,1-.5,4.54c-1.25,1.21-2.55,1-4.42,1a3.58,3.58,0,0,1,2.52,6.1c0,6,.65,10.32-3.65,14.62a12.44,12.44,0,0,1-12.25,3.17l-12.53-3.58V127H23.58C25,98,27,87.7,20.21,71.37a62.56,62.56,0,0,1-5-24.68c0-13.52,4.27-24.24,12.92-32.86,26.66-26.53,76.45-9.89,76.45,30.89,0,6.06.16,6.91-.48,8.08a5.47,5.47,0,0,0,.34,5.75C112.14,69.24,112.75,69.52,112.75,71.82Z"/><path class="cls-2" d="M90.32,45.67a30.45,30.45,0,0,1-60.77,0c-1.49,16.43,12,32.5,30.39,32.5A30.44,30.44,0,0,0,90.32,45.67Z"/><circle class="cls-3" cx="59.94" cy="43.7" r="30.47"/><path class="cls-4" d="M59.94,74.17c-18.72,0-32.4-16.73-30.31-33.45a30.46,30.46,0,0,0,60.61,0C92.34,57.46,78.65,74.17,59.94,74.17Z"/><polygon class="cls-5" points="80.25 37.61 66.03 37.61 66.03 23.39 53.84 23.39 53.84 37.61 39.63 37.61 39.63 49.8 53.84 49.8 53.84 64.02 66.03 64.02 66.03 49.8 80.25 49.8 80.25 37.61"/><path class="cls-2" d="M72.13,120.89V127H23.58s.12-2.41.28-6.09Z"/><rect class="cls-6" x="53.84" y="57.92" width="12.19" height="6.09"/></g><g id="Color"><path class="cls-2" d="M98,90.42a3.47,3.47,0,0,1,2.47,1H92.45a1,1,0,0,1,0-2h10C101.21,90.63,99.91,90.42,98,90.42Z"/></g></svg>