<svg xmlns="http://www.w3.org/2000/svg" viewBox="0 0 128 128"><defs><style>.cls-1{fill:#7aa8d7;}.cls-2{fill:#5b8dc9;}.cls-3{fill:#f2c4b0;}.cls-4{fill:#eab39b;}.cls-5{fill:#d3e0ef;}.cls-6{fill:#fff;}</style></defs><title>Mental health care</title><g id="Mental_health_care" data-name="Mental health care"><path class="cls-1" d="M64,13.27C50.87-8.61,17.17.71,17.17,26.21c0,28.82,46.83,54,46.83,54s46.83-25.22,46.83-54C110.83.72,77.13-8.62,64,13.27Z"/><path class="cls-2" d="M107.67,39.59C97.15,62.41,64,80.25,64,80.25S30.85,62.41,20.33,39.59C41.53,69.67,86.48,69.66,107.67,39.59Z"/><path class="cls-3" d="M64,112.77V127H41.65c1-5.81-.54-14.13-6.1-18.29-8.13-6.09-14.23-12.19-20.32-18.29S1,64,1,59.93a4.06,4.06,0,0,1,7.66-1.87c9,21.26,11.08,22.64,30.91,34.37-.3-.35-2.46-2.81-8.09-12.18-6.09-10.16-.24-11.6,4.07-10.16,6.12,2,10.2,14.29,16.26,18.29C58,92.53,64,104.86,64,112.77Z"/><path class="cls-3" d="M127,59.93c0,4.06-8.13,24.39-14.23,30.48s-12.19,12.2-20.32,18.29c-5.5,4.12-7.14,12.19-6.1,18.29H64c0-14.25-.28-15.57.71-19.53,1.75-7.39,6.61-15.83,11.48-19.08,6-4,10.17-16.25,16.26-18.29,4.31-1.44,10.16,0,4.07,10.16-5.63,9.37-7.79,11.83-8.09,12.18,19.88-11.75,22-13.13,30.91-34.37A4.06,4.06,0,0,1,127,59.93Z"/><path class="cls-4" d="M64,118.87a7.36,7.36,0,0,1-6.58,4.06h-1.9a18.47,18.47,0,0,1-15.3-8.13A24.28,24.28,0,0,1,41.65,127H64C64,117.32,63.9,119.07,64,118.87Z"/><path class="cls-4" d="M87.78,114.8a18.47,18.47,0,0,1-15.3,8.13c-2.6,0-6.37.16-8.48-4.06V127H86.35A24.26,24.26,0,0,1,87.78,114.8Z"/><path class="cls-5" d="M101.71,26.22A16.11,16.11,0,0,0,85.62,10.13a1,1,0,0,1,0-2,18.11,18.11,0,0,1,18.09,18.09A1,1,0,0,1,101.71,26.22Z"/><path class="cls-6" d="M63,59.94V23.35a1,1,0,0,1,2,0V59.94A1,1,0,0,1,63,59.94Z"/><path class="cls-6" d="M67.66,24.35H60.34a1,1,0,0,1,0-2h7.32A1,1,0,0,1,67.66,24.35Z"/><path class="cls-6" d="M67.66,60.94H60.34a1,1,0,0,1,0-2h7.32A1,1,0,0,1,67.66,60.94Z"/><path class="cls-6" d="M63.09,46.3a1,1,0,0,1,0-2c10.25,0,14,.21,13.93-12.35,0-4.94.09-9.6,5.27-9.6a1,1,0,0,1,0,2c-6.61,0-.1,13.08-6.11,19.14C72.88,46.82,67.79,46.3,63.09,46.3Z"/><path class="cls-6" d="M64.91,46.3c-4.7,0-9.79.52-13.09-2.81-6-6,.45-19.14-6.11-19.14a1,1,0,0,1-1-1c0-1.72,3.28-1,4.57.31,3.67,3.69-.47,14,4,18.42,2.7,2.73,7.41,2.22,11.67,2.22A1,1,0,0,1,64.91,46.3Z"/></g></svg>