<svg xmlns="http://www.w3.org/2000/svg" viewBox="0 0 128 128"><defs><style>.cls-1{fill:#f2c4b0;}.cls-2{fill:#eab39b;}.cls-3{fill:#db72b8;}.cls-4{fill:#d861b0;}.cls-5{fill:#f2b1d9;}</style></defs><title>Mental breakdown</title><g id="Mental_breakdown" data-name="Mental breakdown"><path class="cls-1" d="M112.75,71.82a5.34,5.34,0,0,1-4.29,5.24l-5.87,1.18c0,7-.14,5.87.37,6.64a3.52,3.52,0,0,1-.5,4.54c-1.25,1.21-2.55,1-4.42,1a3.58,3.58,0,0,1,2.52,6.1c0,6,.65,10.32-3.65,14.62a12.44,12.44,0,0,1-12.25,3.17l-12.53-3.58V127H23.58C25,98,27,87.7,20.21,71.37a62.56,62.56,0,0,1-5-24.68c0-13.52,4.27-24.24,12.92-32.86,26.66-26.53,76.45-9.89,76.45,30.89,0,6.06.16,6.91-.48,8.08a5.47,5.47,0,0,0,.34,5.75C112.14,69.24,112.75,69.52,112.75,71.82Z"/><path class="cls-2" d="M59.94,29.48C51.19,14.9,28.73,21.11,28.73,38.1c0,19.21,31.21,36,31.21,36s31.2-16.8,31.2-36C91.14,21.12,68.69,14.89,59.94,29.48Z"/><path class="cls-3" d="M59.94,25.48C51.19,10.9,28.73,17.11,28.73,34.1c0,19.21,31.21,36,31.21,36s31.2-16.8,31.2-36C91.14,17.12,68.69,10.89,59.94,25.48Z"/><path class="cls-4" d="M87.87,45.27c-8,14.12-27.93,24.84-27.93,24.84S40,59.39,32,45.27A36.37,36.37,0,0,0,87.87,45.27Z"/><path class="cls-5" d="M83,35.07a1,1,0,0,1-1-1,7.69,7.69,0,0,0-7.68-7.68,1,1,0,0,1,0-2C83.06,24.39,85.86,35.07,83,35.07Z"/><path class="cls-2" d="M72.13,120.89V127H23.58s.12-2.41.28-6.09Z"/><path class="cls-2" d="M98,90.42a3.47,3.47,0,0,1,2.47,1H92.45a1,1,0,0,1,0-2h10C101.21,90.63,99.91,90.42,98,90.42Z"/><path class="cls-2" d="M59,70.34l-2-8.13c-.14-.59-.12-.41,3.58-6-3.24-1.62-3.42-1.58-3.57-2.16s-.18-.35,3.74-6.23L57.2,44.38a1,1,0,0,1-.13-1.26L60.51,38l-7.12-3.56A1,1,0,0,1,53,32.92l6.1-8.13a1,1,0,0,1,1.6,1.2l-5.38,7.17c7.45,3.72,7.41,3.54,7.57,4.16s.18.35-3.74,6.23L62.67,47a1,1,0,0,1,.13,1.27l-3.44,5.15L62.42,55a1,1,0,0,1,.38,1.45L59,62.15l1.93,7.7A1,1,0,0,1,59,70.34Z"/></g></svg>