<svg xmlns="http://www.w3.org/2000/svg" viewBox="0 0 128 128"><defs><style>.cls-1{fill:#949aaf;}.cls-2{fill:#fbcc88;}.cls-3{fill:#f6b756;}.cls-4{fill:#7aa8d7;}.cls-5{fill:#5b8dc9;}.cls-6{fill:#8cdd79;}.cls-7{fill:#7ece67;}.cls-8{fill:#454b60;}</style></defs><title>Mood</title><g id="Mood"><path class="cls-1" d="M107.71,57.9V43a1,1,0,0,1,2,0V57.9A1,1,0,0,1,107.71,57.9Z"/><path class="cls-1" d="M18.29,57.9V43a1,1,0,0,1,2,0V57.9A1,1,0,0,1,18.29,57.9Z"/><circle class="cls-2" cx="108.7" cy="76.19" r="18.29"/><path class="cls-3" d="M108.7,94.48A18.27,18.27,0,0,1,90.54,74.16a18.28,18.28,0,0,0,36.33,0A18.28,18.28,0,0,1,108.7,94.48Z"/><path class="cls-4" d="M64,33.52A12.19,12.19,0,0,1,51.81,21.33V13.2a12.19,12.19,0,1,1,24.38,0v8.13A12.19,12.19,0,0,1,64,33.52Z"/><path class="cls-5" d="M76.19,17.26v4.07a12.19,12.19,0,1,1-24.38,0V17.26a12.19,12.19,0,1,0,24.38,0Z"/><path class="cls-4" d="M118.84,39.13a5.27,5.27,0,0,1-5.34,4.55H80.26v73.15l5.06,1.26A4,4,0,0,1,88.38,122v5H72.13c-.93-5.61.39,2.3-8.13-48.77L57.9,127H39.62v-5a4,4,0,0,1,3.06-3.94l5.06-1.26V43.68H14.22a5.08,5.08,0,0,1-5.06-5.61,5.27,5.27,0,0,1,5.34-4.55h99.28A5.08,5.08,0,0,1,118.84,39.13Z"/><polygon class="cls-5" points="39.62 122.93 58.41 122.93 57.9 126.99 39.62 126.99 39.62 122.93"/><polygon class="cls-5" points="88.38 122.93 88.38 126.99 72.13 126.99 71.46 122.93 88.38 122.93"/><circle class="cls-6" cx="19.3" cy="76.19" r="18.29"/><path class="cls-7" d="M19.3,94.48A18.28,18.28,0,0,1,1.13,74.16a18.28,18.28,0,0,0,36.33,0A18.27,18.27,0,0,1,19.3,94.48Z"/><path class="cls-8" d="M24.33,85.38a7.13,7.13,0,0,0-10.08,0A1,1,0,0,1,12.83,84c5.79-5.78,14.88-.55,12.92,1.42A1,1,0,0,1,24.33,85.38Z"/><path class="cls-8" d="M102.67,85a1,1,0,0,1,1.42-1.41,7.14,7.14,0,0,0,10.08,0A1,1,0,0,1,115.58,85,9.14,9.14,0,0,1,102.67,85Z"/><path class="cls-8" d="M100,74.16v-2a1,1,0,0,1,2,0v2A1,1,0,0,1,100,74.16Z"/><path class="cls-8" d="M115.84,74.16v-2a1,1,0,0,1,2,0v2A1,1,0,0,1,115.84,74.16Z"/><path class="cls-8" d="M9.13,75.16a1,1,0,0,1-.45-1.89l4.07-2A1,1,0,0,1,13.64,73C9.26,75.22,9.46,75.16,9.13,75.16Z"/><path class="cls-8" d="M29.45,75.16c-.34,0-.16,0-4.51-2.14a1,1,0,0,1,.89-1.79l4.07,2A1,1,0,0,1,29.45,75.16Z"/><path class="cls-5" d="M66,26.39H62a1,1,0,0,1,0-2H66A1,1,0,0,1,66,26.39Z"/></g></svg>