<svg xmlns="http://www.w3.org/2000/svg" viewBox="0 0 128 128"><defs><style>.cls-1{fill:#8288a1;}.cls-2{fill:#7aa8d7;}.cls-3{fill:#5b8dc9;}.cls-4{fill:#e2607f;}.cls-5{fill:#949aaf;}.cls-6{fill:#fbcc88;}.cls-7{fill:#f6b756;}</style></defs><title>Music Healing</title><g id="Music_Healing" data-name="Music Healing"><path class="cls-1" d="M87.39,59.94a23.39,23.39,0,0,0-46.78,0,1,1,0,0,1-2,0,25.39,25.39,0,0,1,50.78,0A1,1,0,0,1,87.39,59.94Z"/><path class="cls-2" d="M64,92.44A18.29,18.29,0,0,1,45.71,74.15V62a18.29,18.29,0,1,1,36.57,0V74.15A18.28,18.28,0,0,1,64,92.44Z"/><path class="cls-3" d="M82.28,70.09v4.06a18.29,18.29,0,1,1-36.57,0V70.09a18.29,18.29,0,1,0,36.57,0Z"/><path class="cls-2" d="M96.51,112.76V127h-65V112.76A20.33,20.33,0,0,1,51.8,92.44H76.19A20.32,20.32,0,0,1,96.51,112.76Z"/><path class="cls-4" d="M64,109.81a6.47,6.47,0,0,0-12,3.32C52,120.52,64,127,64,127s12-6.47,12-13.86A6.46,6.46,0,0,0,64,109.81Z"/><path class="cls-5" d="M82.28,59.93h6.1A4.06,4.06,0,0,1,92.45,64v8.13a4.06,4.06,0,0,1-4.06,4.06h-6.1a0,0,0,0,1,0,0V59.93A0,0,0,0,1,82.28,59.93Z"/><path class="cls-5" d="M35.55,59.93h6.1A4.06,4.06,0,0,1,45.71,64v8.13a4.06,4.06,0,0,1-4.06,4.06h-6.1a0,0,0,0,1,0,0V59.93A0,0,0,0,1,35.55,59.93Z" transform="translate(81.25 136.11) rotate(180)"/><path class="cls-1" d="M92.45,68.06v4.06a4.07,4.07,0,0,1-4.07,4.06h-6.1V72.12h6.1A4.08,4.08,0,0,0,92.45,68.06Z"/><path class="cls-1" d="M45.71,72.12v4.06h-6.1a4.07,4.07,0,0,1-4.06-4.06V68.06a4.08,4.08,0,0,0,4.06,4.06Z"/><path class="cls-3" d="M44.68,110.74V127h-2V110.74A1,1,0,0,1,44.68,110.74Z"/><path class="cls-3" d="M85.32,110.74V127h-2V110.74A1,1,0,0,1,85.32,110.74Z"/><path class="cls-3" d="M59,83.24a1,1,0,0,1,1.42-1.41,5.09,5.09,0,0,0,7.2,0A1,1,0,0,1,69,83.24,7.1,7.1,0,0,1,59,83.24Z"/><circle class="cls-6" cx="5.06" cy="100.58" r="4.06"/><path class="cls-7" d="M7.13,100.58V80.26a1,1,0,0,1,2,0v20.32A1,1,0,0,1,7.13,100.58Z"/><path class="cls-7" d="M116.87,84.32V64a1,1,0,0,1,2,0V84.32A1,1,0,0,1,116.87,84.32Z"/><path class="cls-7" d="M16.26,85.32c-.34,0,.24.24-8.58-4.17a1,1,0,0,1,.9-1.79l8.13,4.07A1,1,0,0,1,16.26,85.32Z"/><circle class="cls-6" cx="114.81" cy="84.32" r="4.06"/><path class="cls-7" d="M100.61,37.58V17.26a1,1,0,0,1,.69-1l18.29-6.1a1,1,0,0,1,1.31.95V31.48a1,1,0,0,1-2,0V12.55L102.61,18v19.6A1,1,0,0,1,100.61,37.58Z"/><path class="cls-7" d="M126,69.06c-.34,0,.24.24-8.58-4.17a1,1,0,0,1,.9-1.78l8.13,4.06A1,1,0,0,1,126,69.06Z"/><path class="cls-7" d="M62,21.32V1a1,1,0,0,1,2,0V21.32A1,1,0,0,1,62,21.32Z"/><circle class="cls-6" cx="59.94" cy="21.32" r="4.06"/><path class="cls-7" d="M71.13,6.06c-.34,0,.24.24-8.58-4.17a1,1,0,0,1,.9-1.78l8.13,4.06A1,1,0,0,1,71.13,6.06Z"/><circle class="cls-6" cx="98.55" cy="37.58" r="4.06"/><circle class="cls-6" cx="116.84" cy="31.48" r="4.06"/><path class="cls-7" d="M13.23,49.77V29.45a1,1,0,0,1,.68-.95L32.2,22.41a1,1,0,0,1,1.32.94V43.68a1,1,0,0,1-2,0V24.74L15.23,30.17v19.6A1,1,0,0,1,13.23,49.77Z"/><circle class="cls-6" cx="11.16" cy="49.77" r="4.06"/><circle class="cls-6" cx="29.45" cy="43.68" r="4.06"/></g></svg>