<svg xmlns="http://www.w3.org/2000/svg" viewBox="0 0 128 128"><defs><style>.cls-1{fill:#f2c4b0;}.cls-2{fill:#eab39b;}.cls-3{fill:#8288a1;}.cls-4{fill:#949aaf;}.cls-5{fill:#d4d8e1;}.cls-6{fill:#dfe3ea;}.cls-7{fill:#454b60;}.cls-8{fill:#42455e;}.cls-9{fill:#7aa8d7;}</style></defs><title>Observation</title><g id="Observation"><path class="cls-1" d="M112.75,71.82a5.34,5.34,0,0,1-4.29,5.24l-5.87,1.18c0,7-.14,5.87.37,6.64a3.52,3.52,0,0,1-.5,4.54c-1.25,1.21-2.55,1-4.42,1a3.58,3.58,0,0,1,2.52,6.1c0,6,.65,10.32-3.65,14.62a12.44,12.44,0,0,1-12.25,3.17l-12.53-3.58V127H23.58C25,98,27,87.7,20.21,71.37a62.56,62.56,0,0,1-5-24.68c0-13.52,4.27-24.24,12.92-32.86,26.66-26.53,76.45-9.89,76.45,30.89,0,6.06.16,6.91-.48,8.08a5.47,5.47,0,0,0,.34,5.75C112.14,69.24,112.75,69.52,112.75,71.82Z"/><path class="cls-2" d="M51.34,72.79l-2.18,7.83a1,1,0,0,0,1.93.53l2.18-7.83A1,1,0,0,0,51.34,72.79Z"/><circle class="cls-2" cx="59.94" cy="45.67" r="28.44"/><path class="cls-2" d="M46.22,79.81,54.05,82l-7.63,27.39c-1.44,5.21-9.25,3-7.82-2.18Z"/><path class="cls-3" d="M51.34,68.79l-2.18,7.83a1,1,0,0,0,1.93.53l2.18-7.83A1,1,0,0,0,51.34,68.79Z"/><circle class="cls-4" cx="59.94" cy="41.67" r="28.44"/><path class="cls-3" d="M73.91,66.43C54,77.65,30,62,31.56,39.78c1.32,20.63,24,33.28,42.35,22.9a28.47,28.47,0,0,0,14.4-22.9A28.4,28.4,0,0,1,73.91,66.43Z"/><circle class="cls-5" cx="59.94" cy="41.67" r="20.31"/><path class="cls-6" d="M80.13,43.87a20.31,20.31,0,0,0-40.38-.08A20.26,20.26,0,0,1,49.94,24C64.44,15.81,81.91,27.6,80.13,43.87Z"/><path class="cls-7" d="M46.22,75.81,54.05,78l-7.63,27.39c-1.44,5.21-9.25,3-7.82-2.18Z"/><path class="cls-8" d="M47.28,102.3l-.85,3.07a4.07,4.07,0,1,1-7.84-2.17c1.26-4.54.71-2.81.71-2A4.07,4.07,0,0,0,47.28,102.3Z"/><path class="cls-2" d="M72.13,120.89V127H23.58s.12-2.41.28-6.09Z"/><path class="cls-2" d="M98,90.42a3.47,3.47,0,0,1,2.47,1H92.45a1,1,0,0,1,0-2h10C101.21,90.63,99.91,90.42,98,90.42Z"/><path class="cls-9" d="M70.1,32.52c-5.78,0,1.25,12.19-8.13,12.19h-1V34.52h1a1,1,0,0,0,0-2H57.9a1,1,0,0,0,0,2h1V44.71c-4.84,0-6.31-.85-6.48-7.15-.07-2.36-.14-5-2.69-5a1,1,0,0,0,0,2c.52,0,.63.95.69,3.1.2,7.24,2.48,9.09,8.48,9.09v6.13h-1a1,1,0,0,0,0,2H62a1,1,0,0,0,0-2h-1V46.71h1c10.51,0,6.07-12.19,8.13-12.19A1,1,0,0,0,70.1,32.52Z"/></g></svg>