<svg xmlns="http://www.w3.org/2000/svg" viewBox="0 0 128 128"><defs><style>.cls-1{fill:#f2c4b0;}.cls-2{fill:#eab39b;}.cls-3{fill:#f2a961;}.cls-4{fill:#dd8b37;}.cls-5{fill:#fff;}</style></defs><title>Phobia</title><g id="Phobia"><path class="cls-1" d="M112.75,71.82a5.34,5.34,0,0,1-4.29,5.24l-5.87,1.18c0,7-.14,5.87.37,6.64a3.52,3.52,0,0,1-.5,4.54c-1.25,1.21-2.55,1-4.42,1a3.58,3.58,0,0,1,2.52,6.1c0,6,.65,10.32-3.65,14.62a12.44,12.44,0,0,1-12.25,3.17l-12.53-3.58V127H23.58C25,98,27,87.7,20.21,71.37a62.56,62.56,0,0,1-5-24.68c0-13.52,4.27-24.24,12.92-32.86,26.66-26.53,76.45-9.89,76.45,30.89,0,6.06.16,6.91-.48,8.08a5.47,5.47,0,0,0,.34,5.75C112.14,69.24,112.75,69.52,112.75,71.82Z"/><path class="cls-2" d="M54,18.29c-23.37,39-22.52,36.83-22.52,39.3A6.36,6.36,0,0,0,37.86,64H82a6.36,6.36,0,0,0,5.46-9.63l-21.62-36C63.24,13.94,56.42,14.31,54,18.29Z"/><path class="cls-3" d="M54,14.29c-23.37,39-22.52,36.83-22.52,39.3A6.36,6.36,0,0,0,37.86,60H82a6.36,6.36,0,0,0,5.46-9.63l-21.62-36C63.24,9.94,56.42,10.31,54,14.29Z"/><path class="cls-4" d="M82,60H37.86a6.34,6.34,0,0,1-6-8.38A5.87,5.87,0,0,0,33.37,54C36,56.69,35.23,55.89,82,55.89a6.32,6.32,0,0,0,6-4.32A6.34,6.34,0,0,1,82,60Z"/><path class="cls-2" d="M72.13,120.89V127H23.58s.12-2.41.28-6.09Z"/><path class="cls-2" d="M98,90.42a3.47,3.47,0,0,1,2.47,1H92.45a1,1,0,0,1,0-2h10C101.21,90.63,99.91,90.42,98,90.42Z"/><path class="cls-5" d="M58.94,41.65V21.32a1,1,0,0,1,2,0V41.65A1,1,0,0,1,58.94,41.65Z"/><path class="cls-5" d="M61.44,49.77a1.5,1.5,0,0,1-3,0A1.5,1.5,0,0,1,61.44,49.77Z"/></g></svg>