<svg xmlns="http://www.w3.org/2000/svg" xmlns:xlink="http://www.w3.org/1999/xlink" viewBox="0 0 128 128"><defs><style>.cls-1{fill:#fbcc88;}.cls-2{fill:#8cdd79;}.cls-3{fill:#f6b756;}.cls-4{fill:#7ece67;}.cls-5{fill:#d4d8e1;}.cls-6{fill:#454b60;}.cls-7{fill:#e2607f;}.cls-8{fill:url(#linear-gradient);}.cls-9{fill:url(#linear-gradient-2);}.cls-10{fill:url(#linear-gradient-3);}</style><linearGradient id="linear-gradient" x1="12.53" y1="26.6" x2="26.02" y2="26.6" gradientUnits="userSpaceOnUse"><stop offset="0" stop-color="#454b60"/><stop offset="1" stop-color="#575f7c"/></linearGradient><linearGradient id="linear-gradient-2" x1="8.13" y1="16.24" x2="14.2" y2="16.24" xlink:href="#linear-gradient"/><linearGradient id="linear-gradient-3" x1="24.38" y1="16.24" x2="30.45" y2="16.24" xlink:href="#linear-gradient"/></defs><title>Problem Solving</title><g id="Problem_Solving" data-name="Problem Solving"><circle class="cls-1" cx="108.71" cy="108.71" r="18.29"/><circle class="cls-2" cx="19.29" cy="19.29" r="18.29"/><path class="cls-3" d="M108.71,127a18.29,18.29,0,0,1-18.18-20.29,18.29,18.29,0,0,0,36.36,0A18.29,18.29,0,0,1,108.71,127Z"/><path class="cls-4" d="M19.29,37.58A18.29,18.29,0,0,1,1.11,17.29a18.29,18.29,0,0,0,36.36,0A18.29,18.29,0,0,1,19.29,37.58Z"/><path class="cls-5" d="M72.13,80.26H120.9V7.1h-65V47.74H7.1V120.9h65Z"/><path class="cls-6" d="M102.25,117.55a1,1,0,0,1,1.42-1.42,7.13,7.13,0,0,0,10.08,0,1,1,0,0,1,1.42,1.42A9.15,9.15,0,0,1,102.25,117.55Z"/><path class="cls-6" d="M99.58,106.68v-2a1,1,0,0,1,2,0v2A1,1,0,0,1,99.58,106.68Z"/><path class="cls-6" d="M115.84,106.68v-2a1,1,0,0,1,2,0v2A1,1,0,0,1,115.84,106.68Z"/><path class="cls-6" d="M72.13,119.9H56.87V96.52a1,1,0,0,0-1-1H39.61a1,1,0,0,0,0,2H54.87v6.13H32.48V89.39h7.13a1,1,0,0,0,0-2H31.48a1,1,0,0,0-1,1v15.26H23.35a1,1,0,0,0,0,2H54.87V119.9H8.1V65H39.61a1,1,0,0,0,1-1V55.87a1,1,0,0,0-1-1H17.26a1,1,0,0,0,0,2H38.61V63H8.1V48.74h64a1,1,0,0,0,1-1V39.61a1,1,0,0,0-2,0v7.13H56.87V24.35H80.26a1,1,0,0,0,0-2H55.87a1,1,0,0,0-1,1V46.74H7.1a1,1,0,0,0-1,1V120.9a1,1,0,0,0,1,1h65A1,1,0,0,0,72.13,119.9Z"/><path class="cls-6" d="M120.9,6.1h-65a1,1,0,0,0,0,2h64v63H64a1,1,0,0,0,0,2h55.9v6.13h-63V65h55.9a1,1,0,0,0,0-2H55.87a1,1,0,0,0-1,1V80.26a1,1,0,0,0,1,1H71.13v23.39a1,1,0,0,0,2,0V81.26H120.9a1,1,0,0,0,1-1V7.1A1,1,0,0,0,120.9,6.1Z"/><path class="cls-7" d="M85.24,112.39c-.1-.26.34.23-6.31-6.42a1,1,0,0,0-1.41,1.41l4.39,4.39H65V88.39a1,1,0,0,0-1-1H48.74V56.87h64a1,1,0,0,0,1-1V15.23a1,1,0,0,0-1-1h-65a1,1,0,0,0,0,2h64V54.87h-64a1,1,0,0,0-1,1V88.39a1,1,0,0,0,1,1H63v23.38a1,1,0,0,0,1,1H81.91l-4.39,4.39a1,1,0,0,0,.71,1.71c.57,0,.24.17,6.8-6.39A1,1,0,0,0,85.24,112.39Z"/><path class="cls-6" d="M23.35,79.26a1,1,0,0,0-1,1V96.52a1,1,0,0,0,2,0V81.26H39.61a1,1,0,0,0,1-1V72.13a1,1,0,0,0-1-1H15.23a1,1,0,0,0-1,1v40.64a1,1,0,0,0,1,1H47.74a1,1,0,0,0,0-2H16.23V73.13H38.61v6.13Z"/><path class="cls-6" d="M105.65,47.74V23.35a1,1,0,0,0-1-1H88.39a1,1,0,0,0-1,1V39.61a1,1,0,0,0,2,0V24.35h14.26V47.74A1,1,0,0,0,105.65,47.74Z"/><path class="cls-6" d="M81.26,31.48a1,1,0,0,0-1-1H64a1,1,0,0,0-1,1v8.13a1,1,0,0,0,2,0V32.48H79.26V47.74a1,1,0,0,0,1,1H96.52a1,1,0,0,0,1-1V31.48a1,1,0,0,0-2,0V46.74H81.26Z"/><path class="cls-8" d="M24.33,28.47a7.14,7.14,0,0,0-10.08,0,1,1,0,0,1-1.42-1.41c5.79-5.78,14.88-.55,12.92,1.41A1,1,0,0,1,24.33,28.47Z"/><path class="cls-9" d="M9.13,18.26a1,1,0,0,1-.45-1.9l4.07-2a1,1,0,0,1,.89,1.79C9.26,18.31,9.46,18.26,9.13,18.26Z"/><path class="cls-10" d="M29.45,18.26c-.34,0-.16,0-4.51-2.14a1,1,0,0,1,.89-1.79l4.07,2A1,1,0,0,1,29.45,18.26Z"/></g></svg>