<svg xmlns="http://www.w3.org/2000/svg" viewBox="0 0 128 128"><defs><style>.cls-1{fill:#f2c4b0;}.cls-2{fill:#eab39b;}.cls-3{fill:#7aa8d7;}.cls-4{fill:#5b8dc9;}</style></defs><title>Psycologist</title><g id="Psycologist"><path class="cls-1" d="M112.75,71.82a5.34,5.34,0,0,1-4.29,5.24l-5.87,1.18c0,7-.14,5.87.37,6.64a3.52,3.52,0,0,1-.5,4.54c-1.25,1.21-2.55,1-4.42,1a3.58,3.58,0,0,1,2.52,6.1c0,6,.65,10.32-3.65,14.62a12.44,12.44,0,0,1-12.25,3.17l-12.53-3.58V127H23.58C25,98,27,87.7,20.21,71.37a62.56,62.56,0,0,1-5-24.68c0-13.52,4.27-24.24,12.92-32.86,26.66-26.53,76.45-9.89,76.45,30.89,0,6.06.16,6.91-.48,8.08a5.47,5.47,0,0,0,.34,5.75C112.14,69.24,112.75,69.52,112.75,71.82Z"/><path class="cls-2" d="M72.13,120.89V127H23.58s.12-2.41.28-6.09Z"/><path class="cls-2" d="M98,90.42a3.47,3.47,0,0,1,2.47,1H92.45a1,1,0,0,1,0-2h10C101.21,90.63,99.91,90.42,98,90.42Z"/><path class="cls-3" d="M70.09,78.24H49.78a6.1,6.1,0,0,0,6.1-6.1V27.46a6.09,6.09,0,0,0-6.1-6.1H70.09A6.11,6.11,0,0,0,64,27.46V72.14A6.12,6.12,0,0,0,70.09,78.24Z"/><path class="cls-3" d="M82.28,21.36a8.12,8.12,0,0,0-8.12,8.13V47.77A10.15,10.15,0,0,1,64,57.92h6.09A12.18,12.18,0,0,0,82.28,45.74c0-19.17-.6-20.2,1.79-22.59a6.07,6.07,0,0,1,4.3-1.79Z"/><path class="cls-3" d="M37.59,21.36a8.13,8.13,0,0,1,8.13,8.13V47.77A10.15,10.15,0,0,0,55.88,57.92h-6.1A12.18,12.18,0,0,1,37.59,45.74c0-19.17.61-20.2-1.78-22.59a6.08,6.08,0,0,0-4.31-1.79Z"/><path class="cls-4" d="M70.09,78.24H49.78a6.1,6.1,0,0,0,6.1-6.1H64A6.12,6.12,0,0,0,70.09,78.24Z"/></g></svg>