<svg xmlns="http://www.w3.org/2000/svg" viewBox="0 0 128 128"><defs><style>.cls-1{fill:#7aa8d7;}.cls-2{fill:#5b8dc9;}</style></defs><title>Psycology</title><g id="Psycology"><path class="cls-1" d="M127,1V5.06a8.18,8.18,0,0,0-5.75,2.38c-3.15,3.2-2.38,3-2.38,36.24,0,22.86-17.5,44.71-46.74,44.71V84.32a28.47,28.47,0,0,0,28.45-28.45V19.29A18.29,18.29,0,0,1,118.87,1Z"/><path class="cls-1" d="M55.87,84.32v4.07C27.1,88.39,9.13,67,9.13,43.68V13.19A8.14,8.14,0,0,0,1,5.06V1H9.13A18.29,18.29,0,0,1,27.42,19.29V55.87A28.47,28.47,0,0,0,55.87,84.32Z"/><path class="cls-2" d="M51.81,84a30.08,30.08,0,0,0,4.06.28v4.07c-1.89,0-2.76,0-4.06-.06Z"/><path class="cls-2" d="M76.19,84v4.29c-1.31.08-2.17.06-4.06.06V84.32A30.08,30.08,0,0,0,76.19,84Z"/><path class="cls-1" d="M72.13,17.26v93.48A14.23,14.23,0,0,0,86.35,125v2H41.65v-2a14.23,14.23,0,0,0,14.22-14.23V17.26A14.21,14.21,0,0,0,41.65,3V1h44.7V3A14.21,14.21,0,0,0,72.13,17.26Z"/><path class="cls-2" d="M86.35,125v2H41.65v-2a14,14,0,0,0,7.31-2H79A14,14,0,0,0,86.35,125Z"/></g></svg>