<svg xmlns="http://www.w3.org/2000/svg" viewBox="0 0 128 128"><defs><style>.cls-1{fill:#f2c4b0;}.cls-2{fill:#eab39b;}.cls-3{fill:#db72b8;}.cls-4{fill:#d861b0;}</style></defs><title>Relax</title><g id="Relax"><path class="cls-1" d="M112.75,71.82a5.34,5.34,0,0,1-4.29,5.24l-5.87,1.18c0,7-.14,5.87.37,6.64a3.52,3.52,0,0,1-.5,4.54c-1.25,1.21-2.55,1-4.42,1a3.58,3.58,0,0,1,2.52,6.1c0,6,.65,10.32-3.65,14.62a12.44,12.44,0,0,1-12.25,3.17l-12.53-3.58V127H23.58C25,98,27,87.7,20.21,71.37a62.56,62.56,0,0,1-5-24.68c0-13.52,4.27-24.24,12.92-32.86,26.66-26.53,76.45-9.89,76.45,30.89,0,6.06.16,6.91-.48,8.08a5.47,5.47,0,0,0,.34,5.75C112.14,69.24,112.75,69.52,112.75,71.82Z"/><path class="cls-2" d="M92.44,55.83a23,23,0,0,1-32.5,0,23,23,0,0,1-32.5,0,22.94,22.94,0,0,1,16.25-6.74c35.46,0,34.15-.19,37.43.54A22.8,22.8,0,0,1,92.44,55.83Z"/><path class="cls-2" d="M82.91,32.86a23,23,0,0,1-45.94,0,23,23,0,0,1,16.22,6.72c18.15,0,11.11.8,17.35-3.09A22.83,22.83,0,0,1,82.91,32.86Z"/><path class="cls-2" d="M59.94,55.83a23,23,0,0,1,0-32.5A23,23,0,0,1,59.94,55.83Z"/><path class="cls-2" d="M72.13,120.89V127H23.58s.12-2.41.28-6.09Z"/><path class="cls-2" d="M98,90.42a3.47,3.47,0,0,1,2.47,1H92.45a1,1,0,0,1,0-2h10C101.21,90.63,99.91,90.42,98,90.42Z"/><path class="cls-3" d="M92.44,51.83a23,23,0,0,1-32.5,0,23,23,0,0,1-32.5,0,22.94,22.94,0,0,1,16.25-6.74c35.46,0,34.15-.19,37.43.54A22.8,22.8,0,0,1,92.44,51.83Z"/><path class="cls-4" d="M81.12,45.63a26.89,26.89,0,0,1-16.47,9.84c-8.15-4.83-1.25-4.85-9.42,0a26.89,26.89,0,0,1-16.48-9.84c3.28-.73,1.53-.54,37.44-.54A22.7,22.7,0,0,1,81.12,45.63Z"/><path class="cls-3" d="M82.91,28.86a23,23,0,0,1-45.94,0,23,23,0,0,1,16.22,6.72c18.15,0,11.11.8,17.35-3.09A22.83,22.83,0,0,1,82.91,28.86Z"/><path class="cls-4" d="M65.87,51A22.62,22.62,0,0,1,54,51a27,27,0,0,1-4.67-18.55,21.74,21.74,0,0,1,3.85,3.09c18.15,0,11.11.8,17.35-3.09A27,27,0,0,1,65.87,51Z"/><path class="cls-3" d="M59.94,51.83a23,23,0,0,1,0-32.5A23,23,0,0,1,59.94,51.83Z"/></g></svg>