<svg xmlns="http://www.w3.org/2000/svg" viewBox="0 0 128 128"><defs><style>.cls-1{fill:#7aa8d7;}.cls-2{fill:#5b8dc9;}.cls-3{fill:#db72b8;}.cls-4{fill:#d861b0;}.cls-5{fill:#f2b1d9;}.cls-6{fill:#fbcc88;}</style></defs><title>Selfcare</title><g id="Selfcare"><path class="cls-1" d="M64,70.09A18.29,18.29,0,0,1,45.71,51.8V39.6a18.29,18.29,0,0,1,36.58,0V51.8A18.29,18.29,0,0,1,64,70.09Z"/><path class="cls-2" d="M82.29,47.73V51.8a18.29,18.29,0,0,1-36.58,0V47.73a18.29,18.29,0,1,0,36.58,0Z"/><path class="cls-1" d="M96.52,90.42v18.29a8.13,8.13,0,0,1-8.13,8.14h-2V127H41.64V116.85h-2a8.13,8.13,0,0,1-8.13-8.14V90.42A20.36,20.36,0,0,1,51.8,70.09c25.94,0,27.43-.55,32.53,1.71A20.32,20.32,0,0,1,96.52,90.42Z"/><path class="cls-2" d="M31.74,110.75a8.12,8.12,0,0,0,7.87,6.1h2v4.06c17.74,0,7.42-1.33,21.34,6.1,2.44,0,1.8.13,3-.49a82,82,0,0,0,8.65-5.61H86.36v-4.06h2a8.12,8.12,0,0,0,7.87-6.1Z"/><path class="cls-3" d="M83.62,106.68C98.28,87,72.79,73.86,64,88.59c-8.81-14.76-34.23-1.51-19.62,18.09,8.82,8.65,11.19,11.71,19.62,16.26C72.45,118.38,74.78,115.34,83.62,106.68Z"/><path class="cls-4" d="M83.56,106.74c-8.75,8.58-11.13,11.65-19.56,16.2-8.43-4.55-10.83-7.65-19.56-16.2,7.7,5.94,7.73,6,8,6.15a22.5,22.5,0,0,0,23.27-.11Z"/><path class="cls-1" d="M96.52,90.42v18.29a8.13,8.13,0,0,1-8.13,8.14H73.15a5.09,5.09,0,0,1,0-10.17H88.39V74.18A20.23,20.23,0,0,1,96.52,90.42Z"/><path class="cls-1" d="M54.85,116.85H39.61a8.13,8.13,0,0,1-8.13-8.14V90.42a20.23,20.23,0,0,1,8.13-16.24v32.5c16,0,16.86-.5,18.84,1.49A5.09,5.09,0,0,1,54.85,116.85Z"/><path class="cls-5" d="M81.92,96.22a1,1,0,0,1-1-1,5.84,5.84,0,0,0-5.84-5.83,1,1,0,0,1,0-2C82.18,87.39,84.57,96.22,81.92,96.22Z"/><path class="cls-2" d="M68.06,60.94H59.94a1,1,0,0,1,0-2h8.12A1,1,0,0,1,68.06,60.94Z"/><path class="cls-6" d="M9.13,65H1a1,1,0,0,1,0-2H9.13A1,1,0,0,1,9.13,65Z"/><path class="cls-6" d="M127,65h-8.13a1,1,0,0,1,0-2H127A1,1,0,0,1,127,65Z"/><path class="cls-6" d="M9.44,96.5a1,1,0,0,1-.5-1.87l7-4.06a1,1,0,0,1,1,1.73C9.34,96.71,9.82,96.5,9.44,96.5Z"/><path class="cls-6" d="M111.52,37.56a1,1,0,0,1-.5-1.86l7-4.07a1,1,0,0,1,1,1.74C111.42,37.77,111.9,37.56,111.52,37.56Z"/><path class="cls-6" d="M118.56,96.5c-.38,0,.1.21-7.54-4.2a1,1,0,0,1,1-1.73l7,4.06A1,1,0,0,1,118.56,96.5Z"/><path class="cls-6" d="M16.48,37.56c-.38,0,.1.22-7.54-4.19a1,1,0,0,1,1-1.74l7,4.07A1,1,0,0,1,16.48,37.56Z"/><path class="cls-6" d="M36.57,17.48c-.79,0-.48.18-4.94-7.54a1,1,0,0,1,1.74-1l4.06,7A1,1,0,0,1,36.57,17.48Z"/><path class="cls-6" d="M91.43,17.48a1,1,0,0,1-.86-1.5l4.06-7a1,1,0,0,1,1.74,1C91.9,17.68,92.21,17.48,91.43,17.48Z"/><path class="cls-6" d="M63,9.13V1a1,1,0,0,1,2,0V9.13A1,1,0,0,1,63,9.13Z"/></g></svg>