<svg xmlns="http://www.w3.org/2000/svg" viewBox="0 0 128 128"><defs><style>.cls-1{fill:#7aa8d7;}.cls-2{fill:#d4d8e1;}.cls-3{fill:#c7cdd8;}.cls-4{fill:#5b8dc9;}.cls-5{fill:#fbcc88;}.cls-6{fill:#949aaf;}.cls-7{fill:#dfe3ea;}</style></defs><title>Sleep</title><g id="Sleep"><path class="cls-1" d="M27.42,102.61V94.48A20.32,20.32,0,0,1,47.74,74.16H80.26a20.32,20.32,0,0,1,20.32,20.32v8.13Z"/><rect class="cls-2" x="19.29" y="13.19" width="89.42" height="60.97" rx="8.13"/><path class="cls-3" d="M108.71,59.94V66a8.13,8.13,0,0,1-8.13,8.13H27.42A8.13,8.13,0,0,1,19.29,66V59.94a8.12,8.12,0,0,0,8.13,8.12h73.16A8.12,8.12,0,0,0,108.71,59.94Z"/><path class="cls-1" d="M64,74.16A18.29,18.29,0,0,1,45.71,55.87V43.68a18.29,18.29,0,0,1,36.58,0V55.87A18.29,18.29,0,0,1,64,74.16Z"/><path class="cls-4" d="M82.29,51.81v4.06a18.29,18.29,0,0,1-36.58,0V51.81a18.29,18.29,0,0,0,36.58,0Z"/><rect class="cls-4" x="27.42" y="98.55" width="73.16" height="4.06"/><path class="cls-4" d="M40.65,102.61V92.45a1,1,0,0,1,2,0v10.16A1,1,0,0,1,40.65,102.61Z"/><path class="cls-4" d="M85.35,102.61V92.45a1,1,0,0,1,2,0v10.16A1,1,0,0,1,85.35,102.61Z"/><path class="cls-5" d="M98.55,50.77c-8.52,0-8.62.21-9-.52s-.43-.31,7.14-11.67H90.42a1,1,0,0,1,0-2h8.13a1,1,0,0,1,.83,1.56L92.29,48.77h6.26A1,1,0,0,1,98.55,50.77Z"/><path class="cls-5" d="M112.77,32.48c-8.5,0-8.61.21-9-.52s-.43-.31,7.15-11.67h-6.26a1,1,0,0,1,0-2h8.12a1,1,0,0,1,.84,1.55l-7.1,10.64h6.26A1,1,0,0,1,112.77,32.48Z"/><path class="cls-5" d="M127,14.19c-8.5,0-8.62.21-9-.52s-.43-.31,7.14-11.67h-6.26a1,1,0,0,1,0-2H127a1,1,0,0,1,.83,1.55l-7.09,10.64H127A1,1,0,0,1,127,14.19Z"/><path class="cls-4" d="M68.06,65H59.94a1,1,0,0,1,0-2h8.12A1,1,0,0,1,68.06,65Z"/><path class="cls-2" d="M127,127V106.68a4.07,4.07,0,0,0-4.07-4.07H5.06A4.07,4.07,0,0,0,1,106.68V127"/><rect class="cls-6" x="1" y="114.81" width="126" height="12.19"/><path class="cls-7" d="M127,106.68v4.06a4.08,4.08,0,0,0-4.07-4.06H5.06A4.08,4.08,0,0,0,1,110.74v-4.06a4.08,4.08,0,0,1,4.06-4.07H122.93A4.08,4.08,0,0,1,127,106.68Z"/></g></svg>