<svg xmlns="http://www.w3.org/2000/svg" viewBox="0 0 128 128"><defs><style>.cls-1{fill:#7aa8d7;}.cls-2{fill:#fbcc88;}.cls-3{fill:#5b8dc9;}</style></defs><title>Stress</title><g id="Stress"><path class="cls-1" d="M80.26,68.06c0,7.31.46,10.94-1.61,15.19-7.41,15.5-30.91,10.18-30.91-7.06V68.06a16.26,16.26,0,0,1,32.52,0Z"/><polygon class="cls-2" points="127 57.9 108.71 47.74 104.64 57.9 90.42 57.9 108.71 68.06 112.77 57.9 127 57.9"/><polygon class="cls-2" points="37.58 57.9 19.29 47.74 15.23 57.9 1 57.9 19.29 68.06 23.36 57.9 37.58 57.9"/><polygon class="cls-2" points="45.32 43.29 39.57 23.17 29.51 27.48 19.45 17.42 25.2 37.54 35.26 33.23 45.32 43.29"/><polygon class="cls-2" points="108.55 17.42 88.43 23.17 92.74 33.23 82.68 43.29 102.8 37.54 98.49 27.48 108.55 17.42"/><polygon class="cls-2" points="64 37.58 74.16 19.29 64 15.23 64 1 53.84 19.29 64 23.36 64 37.58"/><path class="cls-3" d="M50.06,82.05c-.22.38-.45.79-.71,1.2C47.3,79,47.74,76,47.74,68.06a16.23,16.23,0,0,1,8.07-14,9.72,9.72,0,0,1,3.86,5.51C60.77,63.67,60.77,63.67,50.06,82.05Z"/><path class="cls-3" d="M80.26,68.06c0,7.31.46,10.94-1.61,15.19-.08-.13-.16-.25-.22-.37-11.2-19.23-11.2-19.23-10.14-23.23A9.79,9.79,0,0,1,72.21,54,16.2,16.2,0,0,1,80.26,68.06Z"/><path class="cls-1" d="M95.24,112.51l-8.89-1.77V127H41.65V110.74l-8.89,1.77A9.57,9.57,0,0,1,22.6,98.35c24.31-42.15,22.95-41,26.1-41.83a5.75,5.75,0,0,1,7,4.07c.81,3.08.69,2.23-18,34.61a0,0,0,0,0,0,0s-1,1.67-1,1.68c2.52,0,13.6-4.45,27.29-4.45,12.7,0,20.21,3.27,22,3.27,6.41,1.54,5.64,1.81,4.27-.5a0,0,0,0,0,0,0c-18.9-32.68-18.82-31.61-18-34.61a5.76,5.76,0,0,1,7-4.07c3.15.83,1.79-.3,26.1,41.83A9.57,9.57,0,0,1,95.24,112.51Z"/><path class="cls-3" d="M89.61,101.6A57.77,57.77,0,0,0,86,95.72c4.08,1,5.47,1.41,5.26,1.2.29.35,1.85,2.64,1.85,2.64A2,2,0,0,1,89.61,101.6Z"/><path class="cls-3" d="M42,95.72a59.81,59.81,0,0,0-3.58,5.88,2,2,0,0,1-3.53-2A26.34,26.34,0,0,1,36.69,97C41.29,95.89,40.05,96.18,42,95.72Z"/><path class="cls-3" d="M67.6,85a5.09,5.09,0,0,0-7.2,0A1,1,0,0,1,59,83.62a7.1,7.1,0,0,1,10,0A1,1,0,0,1,67.6,85Z"/></g></svg>