<svg xmlns="http://www.w3.org/2000/svg" viewBox="0 0 128 128"><defs><style>.cls-1{fill:#7aa8d7;}.cls-2{fill:#5b8dc9;}.cls-3{fill:#9dd5df;}.cls-4{fill:#77cacb;}.cls-5{fill:#db72b8;}.cls-6{fill:#d861b0;}.cls-7{fill:#f2b1d9;}</style></defs><title>Support System</title><g id="Support_System" data-name="Support System"><path class="cls-1" d="M127,100.57V127H72.13V84.32h38.61A16.25,16.25,0,0,1,127,100.57Z"/><path class="cls-1" d="M55.87,84.32V127H1V100.57A16.25,16.25,0,0,1,17.26,84.32Z"/><rect class="cls-2" x="1" y="122.93" width="126" height="4.06"/><path class="cls-2" d="M55.87,84.32V127H35.55V100.57A20.28,20.28,0,0,1,43.7,84.32Z"/><path class="cls-2" d="M92.45,100.57V127H72.13V84.32H84.3A20.28,20.28,0,0,1,92.45,100.57Z"/><path class="cls-3" d="M88.39,100.57V127H39.61V100.57A16.25,16.25,0,0,1,55.87,84.32H72.13A16.25,16.25,0,0,1,88.39,100.57Z"/><path class="cls-1" d="M27.42,84.32a12.19,12.19,0,0,1-12.19-12.2V66a12.19,12.19,0,1,1,24.38,0v6.09A12.2,12.2,0,0,1,27.42,84.32Z"/><path class="cls-1" d="M100.58,84.32a12.2,12.2,0,0,1-12.19-12.2V66a12.19,12.19,0,1,1,24.38,0v6.09A12.2,12.2,0,0,1,100.58,84.32Z"/><path class="cls-3" d="M64,84.32a12.2,12.2,0,0,1-12.19-12.2V66a12.19,12.19,0,1,1,24.38,0v6.09A12.2,12.2,0,0,1,64,84.32Z"/><path class="cls-2" d="M39.61,68.06v4.06a12.19,12.19,0,1,1-24.38,0V68.06a12.19,12.19,0,0,0,24.38,0Z"/><path class="cls-2" d="M112.77,68.06v4.06a12.19,12.19,0,1,1-24.38,0V68.06a12.19,12.19,0,0,0,24.38,0Z"/><path class="cls-4" d="M76.19,68.06v4.06a12.19,12.19,0,1,1-24.38,0V68.06a12.19,12.19,0,0,0,24.38,0Z"/><path class="cls-5" d="M64,7.92C56.59-4.42,37.58.83,37.58,15.22,37.58,31.48,64,45.7,64,45.7S90.42,31.48,90.42,15.22C90.42.84,71.41-4.43,64,7.92Z"/><path class="cls-6" d="M86.78,26.07C79.57,37.33,64,45.7,64,45.7S48.43,37.33,41.22,26.07A32,32,0,0,0,86.78,26.07Z"/><rect class="cls-4" x="39.61" y="122.93" width="48.78" height="4.06"/><path class="cls-4" d="M50.77,98.55V127h-2V98.55A1,1,0,0,1,50.77,98.55Z"/><path class="cls-2" d="M12.16,98.55V127h-2V98.55A1,1,0,0,1,12.16,98.55Z"/><path class="cls-4" d="M79.23,98.55V127h-2V98.55A1,1,0,0,1,79.23,98.55Z"/><path class="cls-2" d="M117.84,98.55V127h-2V98.55A1,1,0,0,1,117.84,98.55Z"/><path class="cls-4" d="M60.42,74.64a1,1,0,0,1,1.41,0,3.14,3.14,0,0,0,4.34,0,1,1,0,0,1,1.41,1.42C64.22,79.43,58.87,76.19,60.42,74.64Z"/><path class="cls-2" d="M97,74.64a1,1,0,0,1,1.41,0,3.14,3.14,0,0,0,4.34,0,1,1,0,0,1,1.41,1.42C100.8,79.43,95.45,76.19,97,74.64Z"/><path class="cls-2" d="M23.84,74.64a1,1,0,0,1,1.41,0,3.14,3.14,0,0,0,4.34,0A1,1,0,0,1,31,76.06C27.64,79.43,22.29,76.19,23.84,74.64Z"/><path class="cls-7" d="M84.32,16.23a1,1,0,0,1-1-1A7.13,7.13,0,0,0,76.19,8.1a1,1,0,0,1,0-2C84.37,6.1,87.11,16.23,84.32,16.23Z"/></g></svg>