<svg xmlns="http://www.w3.org/2000/svg" viewBox="0 0 128 128"><defs><style>.cls-1{fill:#db72b8;}.cls-2{fill:#f2c4b0;}.cls-3{fill:#eab39b;}.cls-4{fill:#d861b0;}.cls-5{fill:#dd4e6a;}</style></defs><title>Theraphy</title><g id="Theraphy"><path class="cls-1" d="M92.7,40.85A9.18,9.18,0,0,1,90.11,55a9.16,9.16,0,0,1-6.38,11C79.19,76.21,64,72.77,64,61.81,64,72.75,48.81,76.22,44.27,66a9.16,9.16,0,0,1-6.38-11A9.18,9.18,0,0,1,35.3,40.85a8,8,0,0,1-.61-12.68A9.17,9.17,0,0,1,42.62,16a6.88,6.88,0,0,1,7.7-9.11A6.88,6.88,0,0,1,64,7.89a6.88,6.88,0,0,1,13.68-1A6.88,6.88,0,0,1,85.38,16a9.17,9.17,0,0,1,7.93,12.21A8,8,0,0,1,92.7,40.85Z"/><path class="cls-2" d="M64,112.77V127H41.65c1-5.81-.54-14.13-6.1-18.29-8.13-6.1-14.23-12.19-20.32-18.29S1,64,1,59.94a4.06,4.06,0,0,1,7.66-1.87c9,21.25,11.08,22.64,30.91,34.36-.3-.34-2.46-2.8-8.09-12.17-6.09-10.16-.24-11.61,4.07-10.16,6.12,2.05,10.2,14.29,16.26,18.29C58,92.53,64,104.86,64,112.77Z"/><path class="cls-2" d="M127,59.94c0,4.06-8.13,24.38-14.23,30.48s-12.19,12.19-20.32,18.29c-5.5,4.11-7.14,12.18-6.1,18.29H64c0-14.26-.28-15.57.71-19.53,1.75-7.4,6.61-15.83,11.48-19.08,6-4,10.17-16.25,16.26-18.29,4.31-1.45,10.16,0,4.07,10.16-5.63,9.37-7.79,11.83-8.09,12.17,19.88-11.75,22-13.12,30.91-34.36A4.06,4.06,0,0,1,127,59.94Z"/><path class="cls-3" d="M64,118.87a7.36,7.36,0,0,1-6.58,4.07h-1.9a18.47,18.47,0,0,1-15.3-8.13A24.27,24.27,0,0,1,41.65,127H64C64,117.33,63.9,119.08,64,118.87Z"/><path class="cls-3" d="M87.78,114.81a18.47,18.47,0,0,1-15.3,8.13c-2.6,0-6.37.16-8.48-4.07V127H86.35A24.26,24.26,0,0,1,87.78,114.81Z"/><path class="cls-4" d="M83.73,66C79.21,76.17,64,72.85,64,61.81,64,72.87,48.79,76.16,44.27,66a9.18,9.18,0,0,1-6.43-10.85A9.16,9.16,0,0,0,44.27,62C48.79,72.11,64,68.79,64,57.74,64,68.81,79.21,72.09,83.73,62a9.16,9.16,0,0,0,6.43-6.79A9.17,9.17,0,0,1,83.73,66Z"/><path class="cls-5" d="M37.89,55a1.21,1.21,0,0,1,0,.18C37.8,55,37.76,54.88,37.89,55Z"/><path class="cls-5" d="M90.2,54.94a1,1,0,0,1,0,.24C90.07,54.91,90.15,55,90.2,54.94Z"/><path class="cls-4" d="M66,3V67.92a10.12,10.12,0,0,1-2-6.11,10.12,10.12,0,0,1-2,6.11V3a6.9,6.9,0,0,1,2,4.9A6.9,6.9,0,0,1,66,3Z"/><path class="cls-4" d="M63,61.8A11.26,11.26,0,0,1,74,50.49a1,1,0,0,1,0,2A9.27,9.27,0,0,0,65,61.8,1,1,0,0,1,63,61.8Z"/><path class="cls-4" d="M80.63,39.36a1,1,0,0,1,1.66-1.12A7,7,0,0,0,92.13,40a1,1,0,0,1,1.15,1.63A9,9,0,0,1,80.63,39.36Z"/><path class="cls-4" d="M71,13.62a7.86,7.86,0,0,1,6.48-7.75,1,1,0,0,1,.35,2A5.88,5.88,0,0,0,73,13.62,1,1,0,0,1,71,13.62Z"/><path class="cls-4" d="M82.28,29.08a8.13,8.13,0,0,1-5.75-13.87A1,1,0,0,1,78,16.62a6.13,6.13,0,1,0,8.67,8.67A1,1,0,0,1,88,26.71,8.12,8.12,0,0,1,82.28,29.08Z"/><path class="cls-4" d="M77.19,34.18a1,1,0,0,1,0-2,4.09,4.09,0,0,0,4.09-4.09,1,1,0,0,1,1-1C84.71,27.09,82.76,34.18,77.19,34.18Z"/><path class="cls-4" d="M76.48,61.17c-2.74,0-.14-9.84,7.84-9.84a1,1,0,0,1,0,2,6.85,6.85,0,0,0-6.84,6.84A1,1,0,0,1,76.48,61.17Z"/><path class="cls-4" d="M81.16,52.05A7.12,7.12,0,0,0,74.92,45a1,1,0,0,1,.25-2,9.12,9.12,0,0,1,8,9A1,1,0,0,1,81.16,52.05Z"/><path class="cls-4" d="M63,61.8a9.27,9.27,0,0,0-9.06-9.31,1,1,0,0,1,0-2A11.25,11.25,0,0,1,65,61.8,1,1,0,0,1,63,61.8Z"/><path class="cls-4" d="M34.72,41.66A1,1,0,0,1,35.87,40a7,7,0,0,0,9.84-1.79,1,1,0,0,1,1.66,1.12A9,9,0,0,1,34.72,41.66Z"/><path class="cls-4" d="M55,13.62a5.88,5.88,0,0,0-4.83-5.79,1,1,0,0,1,.35-2A7.86,7.86,0,0,1,57,13.62,1,1,0,0,1,55,13.62Z"/><path class="cls-4" d="M40,26.71a1,1,0,0,1,1.41-1.42,6.13,6.13,0,0,0,8.67-8.67,1,1,0,0,1,0-1.41c1.89-1.89,6.62,6.29,1.42,11.5A8.14,8.14,0,0,1,40,26.71Z"/><path class="cls-4" d="M50.81,34.18c-5.59,0-7.52-7.09-5.09-7.09a1,1,0,0,1,1,1,4.09,4.09,0,0,0,4.09,4.09A1,1,0,0,1,50.81,34.18Z"/><path class="cls-4" d="M51.52,61.17a1,1,0,0,1-1-1,6.85,6.85,0,0,0-6.84-6.84,1,1,0,0,1,0-2C51.6,51.33,54.28,61.17,51.52,61.17Z"/><path class="cls-4" d="M44.84,52.05a9.12,9.12,0,0,1,8-9,1,1,0,0,1,.25,2,7.12,7.12,0,0,0-6.24,7.06A1,1,0,0,1,44.84,52.05Z"/><path class="cls-4" d="M64,43.87c-2.46,0-.54-7.72,5.61-8.48a1,1,0,0,1,.25,2A5.56,5.56,0,0,0,65,42.87,1,1,0,0,1,64,43.87Z"/><path class="cls-4" d="M63,33.7a5.56,5.56,0,0,0-4.86-5.51,1,1,0,0,1,.25-2A7.56,7.56,0,0,1,65,33.7,1,1,0,0,1,63,33.7Z"/></g></svg>