<svg xmlns="http://www.w3.org/2000/svg" viewBox="0 0 128 128"><defs><style>.cls-1{fill:#47566a;}</style></defs><title>affection</title><g id="affection"><path class="cls-1" d="M105.08,91c-23.23,19.91-21.65,18.65-22.69,19.24,1.46-4.33-2.71-11.63-9.91-11.63h-14a15.47,15.47,0,0,0-14.17-9.14H35.28a25.83,25.83,0,0,0-18,7.27l-16-1.78a1,1,0,0,0-.22,2c17.88,2,16.8,2,17.28,1.54,8.09-8.09,16.48-7,26-7a13.47,13.47,0,0,1,12.58,8.52c.36.88,0,.62,15.56.62,8,0,10.63,10.81,5.49,10.81H46.88a1,1,0,0,0,0,2H78a10.92,10.92,0,0,0,7.09-2.62C108,91.07,107,91.42,109.21,91.42a4.35,4.35,0,0,1,4.34,4.34,7.8,7.8,0,0,1-2.46,5.68L89.88,121.32A17.23,17.23,0,0,1,78.05,126H1.15a1,1,0,0,0,0,2h76.9a19.22,19.22,0,0,0,13.2-5.22l21.21-19.88a9.86,9.86,0,0,0,3.09-7.14A6.35,6.35,0,0,0,105.08,91Z"/><path class="cls-1" d="M127.06,31.1c-17.88-2-16.8-2-17.28-1.54-8.1,8.09-16.48,7-26,7a13.47,13.47,0,0,1-12.58-8.52c-.36-.88,0-.62-15.56-.62-8,0-10.63-10.81-5.49-10.81H81.22a1,1,0,0,0,0-2H50.13A10.9,10.9,0,0,0,43,17.25C20.09,36.93,21.11,36.58,18.89,36.58a4.35,4.35,0,0,1-4.34-4.34A7.84,7.84,0,0,1,17,26.56L38.22,6.68A17.23,17.23,0,0,1,50.05,2H127a1,1,0,0,0,0-2H50.05a19.22,19.22,0,0,0-13.2,5.22L15.64,25.1a9.84,9.84,0,0,0-3.09,7.14A6.34,6.34,0,0,0,23,37.05C46.25,17.14,44.67,18.4,45.71,17.81c-1.46,4.33,2.71,11.63,9.91,11.63h14a15.47,15.47,0,0,0,14.17,9.14h9.06a25.83,25.83,0,0,0,18-7.27l16,1.78A1,1,0,0,0,127.06,31.1Z"/><path class="cls-1" d="M63.47,89.27a1,1,0,0,0,1,0c1.1-.6,27-14.7,27-31.37C91.37,43.41,72.69,37,64,48.81,55.21,37,36.53,43.4,36.53,57.9,36.53,74.57,62.37,88.67,63.47,89.27Zm-.38-38.15a1,1,0,0,0,1.72,0c6.92-11.54,24.56-6.52,24.56,6.78,0,14.3-21.9,27.34-25.42,29.34-3.53-2-25.42-15-25.42-29.34C38.53,44.6,56.17,39.58,63.09,51.12Z"/><path class="cls-1" d="M76.14,50.77a7.14,7.14,0,0,1,7.13,7.13,1,1,0,0,0,1,1c2.78,0,.1-10.13-8.13-10.13A1,1,0,0,0,76.14,50.77Z"/></g></svg>