<svg xmlns="http://www.w3.org/2000/svg" viewBox="0 0 128 128"><defs><style>.cls-1{fill:#47566a;}</style></defs><title>Amnesia</title><g id="Amnesia"><path class="cls-1" d="M112.59,68.12,105.32,58A4.41,4.41,0,0,1,105,53.4c.9-1.8.68-2.91.68-8.71C105.65,21.62,87.79,0,59.12,0A45,45,0,0,0,14.23,44.69c0,9,.86,17.05,4.9,26.73A61.71,61.71,0,0,1,24,98.92c-.65,12.08-1.4,27.87-1.41,28a1,1,0,0,0,2,.1C25.86,98.77,28.16,87.9,21.1,71,17,61.18,16.2,53.54,16.23,44.7A43,43,0,0,1,59.12,2c27.25,0,44.53,20.43,44.53,42.69,0,6,.15,6.57-.47,7.81a6.4,6.4,0,0,0,.52,6.61L111,69.28a4.35,4.35,0,0,1-2.68,6.79l-5.86,1.18a1,1,0,0,0-.81,1c0,6.56-.06,6.3.17,6.65.6.89,1.21,1.83.49,3.18A2.53,2.53,0,0,1,100,89.42H92.45a1,1,0,0,0,0,2h5.61a2.57,2.57,0,0,1,1.81,4.39c-.4.41-.29.35-.29,6.52A11.49,11.49,0,0,1,88.1,113.81c-2.14,0-2.19-.17-15.7-4a1,1,0,0,0-1.27,1V127a1,1,0,0,0,2,0V112.07c11.4,3.26,12.36,3.74,15,3.74a13.5,13.5,0,0,0,13.48-13.48V96.9a4.55,4.55,0,0,0,0-5.77,4.58,4.58,0,0,0,2.18-6.82c-.28-.41-.2.44-.2-5.26l5.06-1A6.35,6.35,0,0,0,112.59,68.12Z"/><path class="cls-1" d="M80.85,27.25C77.79,11.56,58.8,4.79,46.38,15a21.22,21.22,0,0,0-7.77,16.45,1,1,0,0,0,1,1h8.13a1,1,0,0,0,1-1,11.21,11.21,0,0,1,13.49-11c10,1.95,12.21,15.53,3.28,20.68A21.35,21.35,0,0,0,54.87,59.63V64a1,1,0,0,0,1,1H64a1,1,0,0,0,1-1V59.63A11.18,11.18,0,0,1,70.57,50,21.49,21.49,0,0,0,80.85,27.25Zm-11.27,21A13.19,13.19,0,0,0,63,59.63V63H56.87V59.63a19.35,19.35,0,0,1,9.64-16.71,13.15,13.15,0,0,0,6.36-14.11C71,19.09,59.19,15,51.55,21.3a13.13,13.13,0,0,0-4.77,9.18H40.64A19.33,19.33,0,0,1,63.78,12.54C81.23,15.92,84.91,39.39,69.58,48.23Z"/><path class="cls-1" d="M59.94,71.13A5.07,5.07,0,1,0,65,76.19,5.07,5.07,0,0,0,59.94,71.13Zm0,8.13A3.07,3.07,0,1,1,63,76.19,3.08,3.08,0,0,1,59.94,79.26Z"/></g></svg>