<svg xmlns="http://www.w3.org/2000/svg" viewBox="0 0 128 128"><defs><style>.cls-1{fill:#47566a;}</style></defs><title>Anorexia</title><g id="Anorexia"><path class="cls-1" d="M12.19,110.74V127a1,1,0,0,0,2,0V110.74A1,1,0,0,0,12.19,110.74Z"/><path class="cls-1" d="M52.84,110.74V127a1,1,0,0,0,2,0V110.74A1,1,0,0,0,52.84,110.74Z"/><path class="cls-1" d="M45.71,91.45H42A19.3,19.3,0,0,0,52.81,74.16V62a19.29,19.29,0,0,0-38.58,0V74.16A19.3,19.3,0,0,0,25,91.45h-3.7A21.35,21.35,0,0,0,0,112.77V127a1,1,0,0,0,2,0V112.77A19.35,19.35,0,0,1,21.32,93.45H45.71A19.35,19.35,0,0,1,65,112.77V127a1,1,0,0,0,2,0V112.77A21.35,21.35,0,0,0,45.71,91.45Zm-12.19,0A17.3,17.3,0,0,1,16.23,74.16V62a17.29,17.29,0,0,1,34.58,0V74.16A17.31,17.31,0,0,1,33.52,91.45Z"/><path class="cls-1" d="M36.87,85a1,1,0,0,0,1.42-1.41l-3.36-3.36,3.36-3.36a1,1,0,0,0-1.42-1.41l-3.35,3.35-3.36-3.35a1,1,0,0,0-1.42,1.41l3.36,3.36-3.36,3.36A1,1,0,0,0,30.16,85l3.36-3.36Z"/><path class="cls-1" d="M93.48,9.13V21.32a3.07,3.07,0,0,1-3.06,3.07h-1V9.13a1,1,0,0,0-2,0V24.39h-1a3.07,3.07,0,0,1-3.06-3.07V9.13a1,1,0,0,0-2,0V21.32a5.07,5.07,0,0,0,5.06,5.07h1V49.77a1,1,0,0,0,2,0V26.39h1a5.07,5.07,0,0,0,5.06-5.07V9.13A1,1,0,0,0,93.48,9.13Z"/><path class="cls-1" d="M108.71,8.13c-4.25,0-7.1,6.19-7.1,12,0,4.19,2.66,7.65,6.1,8.23V49.77a1,1,0,0,0,2,0V28.33c3.44-.58,6.1-4,6.1-8.23C115.81,14.32,113,8.13,108.71,8.13Zm0,18.29c-2.81,0-5.1-2.83-5.1-6.32,0-5.12,2.48-10,5.1-10s5.1,4.85,5.1,10C113.81,23.59,111.52,26.42,108.71,26.42Z"/><path class="cls-1" d="M114.81,0H82.29A13.21,13.21,0,0,0,69.1,13.19V47.33L59.23,57.2a1,1,0,0,0,.71,1.7h54.87A13.21,13.21,0,0,0,128,45.71V13.19A13.21,13.21,0,0,0,114.81,0ZM126,45.71A11.2,11.2,0,0,1,114.81,56.9H62.35c9-9,8.75-8.56,8.75-9.16V13.19A11.2,11.2,0,0,1,82.29,2h32.52A11.2,11.2,0,0,1,126,13.19Z"/></g></svg>