<svg xmlns="http://www.w3.org/2000/svg" viewBox="0 0 128 128"><defs><style>.cls-1{fill:#47566a;}</style></defs><title>Autism</title><g id="Autism"><path class="cls-1" d="M85.32,62V58.8a5.07,5.07,0,0,0,0-9.93V21.32a5.07,5.07,0,0,0-5.06-5.06H77.09a5.07,5.07,0,0,0-9.93,0H59.94a1,1,0,0,0-1,1v8.13a1,1,0,0,0,1,1,3.07,3.07,0,0,1,0,6.13,1,1,0,0,0-1,1v7.13H52.71a5.07,5.07,0,0,0-9.93,0H35.55a1,1,0,0,0-1,1V62A5.07,5.07,0,0,0,39.61,67h3.17a5.07,5.07,0,0,0,9.93,0H80.26A5.07,5.07,0,0,0,85.32,62ZM60.94,34.42a5.07,5.07,0,0,0,0-9.93V18.26h7.12a1,1,0,0,0,1-1,3.07,3.07,0,1,1,6.13,0,1,1,0,0,0,1,1h4.07a3.06,3.06,0,0,1,3.06,3.06V40.65H76.19a1,1,0,0,0-1,1,3.07,3.07,0,0,1-6.13,0,1,1,0,0,0-1-1H60.94ZM51.81,65a1,1,0,0,0-1,1,3.07,3.07,0,1,1-6.13,0,1,1,0,0,0-1-1H39.61A3.06,3.06,0,0,1,36.55,62V42.65h7.13a1,1,0,0,0,1-1,3.07,3.07,0,1,1,6.13,0,1,1,0,0,0,1,1h7.13v6.22a5.07,5.07,0,0,0,0,9.93V65Zm8.13-8.13a3.07,3.07,0,1,1,0-6.13,1,1,0,0,0,1-1V42.65h6.22a5.07,5.07,0,0,0,9.93,0h6.23v7.12a1,1,0,0,0,1,1,3.07,3.07,0,1,1,0,6.13,1,1,0,0,0-1,1V62A3.06,3.06,0,0,1,80.26,65H60.94V57.9A1,1,0,0,0,59.94,56.9Z"/><path class="cls-1" d="M112.59,68.11,105.32,58a4.49,4.49,0,0,1-.34-4.58c.87-1.8.67-2.71.67-8.69C105.65,21.61,87.79,0,59.12,0A45.73,45.73,0,0,0,45.71,2H25.39A5.07,5.07,0,0,0,20.32,7.1v3.16a5.07,5.07,0,0,0,0,9.93v2.16c-4.81,8.25-6.09,15.87-6.09,24.31-.12,23.46,11,28.06,9.73,52.26-.64,12.08-1.39,27.87-1.4,28a1,1,0,0,0,2,.1c0-.16.76-16,1.4-28a63.46,63.46,0,0,0-5-28.38c-5.38-12.93-7.13-30.21-.65-44v.75a1,1,0,0,0,1,1h8.13a1,1,0,0,0,1-1,3.07,3.07,0,1,1,6.13,0,1,1,0,0,0,1,1h8.13a1,1,0,0,0,1-1V20.19a5.07,5.07,0,0,0,0-9.93V3.84c28.7-8.71,56.94,11.88,56.94,40.85,0,6,.15,6.53-.47,7.81a6.51,6.51,0,0,0,.51,6.62c7.9,11,8.08,10.82,8.08,12.68a4.34,4.34,0,0,1-3.48,4.27l-5.87,1.18a1,1,0,0,0-.81,1c0,7.25-.18,6.13.54,7.2a2.57,2.57,0,0,1-2.14,4H92.45a1,1,0,0,0,0,2h5.61a2.57,2.57,0,0,1,2.58,2.6c0,1.48-1.06,1.68-1.06,2.5,0,5.79.66,9.9-3.36,13.92a11.45,11.45,0,0,1-11.28,2.92c-13.49-3.85-12.84-3.84-13.41-3.42s-.4-.55-.4,17.06a1,1,0,0,0,2,0V112.07l11.26,3.21a13.43,13.43,0,0,0,13.24-3.42c4.57-4.57,4-9.19,4-15a4.47,4.47,0,0,0,0-5.76,4.56,4.56,0,0,0,2.22-6.82c-.28-.43-.2.38-.2-5.28l5.07-1A6.36,6.36,0,0,0,112.59,68.11ZM48.77,15.23a3.06,3.06,0,0,1-3.06,3.06,1,1,0,0,0-1,1v7.13H38.48a5.07,5.07,0,0,0-9.93,0H22.32V19.29a1,1,0,0,0-1-1,3.07,3.07,0,0,1,0-6.13,1,1,0,0,0,1-1V7.1A3.08,3.08,0,0,1,25.39,4H44.71v7.13a1,1,0,0,0,1,1A3.07,3.07,0,0,1,48.77,15.23Z"/></g></svg>