<svg xmlns="http://www.w3.org/2000/svg" viewBox="0 0 128 128"><defs><style>.cls-1{fill:#47566a;}</style></defs><title>Axiety</title><g id="Axiety"><path class="cls-1" d="M15.09,126.29a1,1,0,1,0,1.54,1.27A1,1,0,0,0,15.09,126.29Z"/><path class="cls-1" d="M21.1,17.56a1,1,0,0,0-1.34,1.49A1,1,0,0,0,21.1,17.56Z"/><path class="cls-1" d="M25.41,13.44a1,1,0,0,0-1.49,1.33C24.73,15.71,26.33,14.46,25.41,13.44Z"/><path class="cls-1" d="M113.77,57.17a1,1,0,0,0-2,0A1,1,0,0,0,113.77,57.17Z"/><path class="cls-1" d="M30.16,9.83A1,1,0,0,0,28.52,11,1,1,0,0,0,30.16,9.83Z"/><path class="cls-1" d="M39.8,5.73c1.63,0,1.08-2.5-.37-1.93A1,1,0,0,0,39.8,5.73Z"/><path class="cls-1" d="M35.29,6.79a1,1,0,0,0-1.76,1A1,1,0,0,0,35.29,6.79Z"/><path class="cls-1" d="M17.28,22.14a1,1,0,0,0-1.16,1.63A1,1,0,0,0,17.28,22.14Z"/><path class="cls-1" d="M7.61,63.69a1,1,0,0,0-.21-2A1,1,0,0,0,7.61,63.69Z"/><path class="cls-1" d="M7.09,55.74a1,1,0,0,0,0,2A1,1,0,1,0,7.09,55.74Z"/><path class="cls-1" d="M9.38,68.4a1,1,0,0,0-2,.38A1,1,0,0,0,9.38,68.4Z"/><path class="cls-1" d="M8.14,50.82a1,1,0,0,0-2-.09A1,1,0,0,0,8.14,50.82Z"/><path class="cls-1" d="M10,39.29a1,1,0,0,0-1.93-.54A1,1,0,0,0,10,39.29Z"/><path class="cls-1" d="M11.88,33.76A1,1,0,0,0,10,33,1,1,0,0,0,11.88,33.76Z"/><path class="cls-1" d="M8.73,45a1,1,0,0,0-2-.31A1,1,0,0,0,8.73,45Z"/><path class="cls-1" d="M107.51,27.9a1,1,0,0,0-1.76.94A1,1,0,0,0,107.51,27.9Z"/><path class="cls-1" d="M99.09,19.26a1,1,0,0,0,1.49-1.32h0a1,1,0,0,0-1.51,1.32Z"/><path class="cls-1" d="M112.78,52.2a1,1,0,0,0-.06-2A1,1,0,0,0,112.78,52.2Z"/><path class="cls-1" d="M103.51,24.29a1,1,0,1,0-.57-1.82A1,1,0,0,0,103.51,24.29Z"/><path class="cls-1" d="M95.64,15.36a1,1,0,0,0,.68-1.74h0a1,1,0,1,0-.67,1.74Z"/><path class="cls-1" d="M110.08,33.4a1,1,0,0,0-1.86.74A1,1,0,0,0,110.08,33.4Z"/><path class="cls-1" d="M111.23,45.41a1,1,0,0,0,1.14.85,1,1,0,1,0-1.14-.85Z"/><path class="cls-1" d="M91.58,9.81a1,1,0,0,0-1.17,1.63A1,1,0,0,0,91.58,9.81Z"/><path class="cls-1" d="M111.28,40.4a1,1,0,0,0-.52-1.94A1,1,0,0,0,111.28,40.4Z"/><path class="cls-1" d="M75.9,3.19A1,1,0,0,0,74,2.65,1,1,0,0,0,75.9,3.19Z"/><path class="cls-1" d="M58.22,1a1,1,0,0,0-2,.07A1,1,0,0,0,58.22,1Z"/><path class="cls-1" d="M52.27,1.44a1,1,0,0,0-2,.3A1,1,0,0,0,52.27,1.44Z"/><path class="cls-1" d="M64.18,1.09a1,1,0,0,0-2-.09A1,1,0,0,0,64.18,1.09Z"/><path class="cls-1" d="M86.83,7.92a1,1,0,0,0-1.75-1A1,1,0,0,0,86.83,7.92Z"/><path class="cls-1" d="M80.2,5.78h0A1,1,0,0,0,81,3.93,1,1,0,0,0,80.2,5.79Z"/><path class="cls-1" d="M70.1,1.8a1,1,0,0,0-2-.31A1,1,0,0,0,70.1,1.8Z"/><path class="cls-1" d="M45.45,3.83a1,1,0,0,0,1-1.27,1,1,0,1,0-1,1.27Z"/><path class="cls-1" d="M10.74,74.12a1,1,0,0,0-1.92.54A1,1,0,0,0,10.74,74.12Z"/><path class="cls-1" d="M16.9,102.16a1,1,0,0,0,0,2A1,1,0,0,0,16.9,102.16Z"/><path class="cls-1" d="M16.75,108.12a1,1,0,0,0-.1,2A1,1,0,0,0,16.75,108.12Z"/><path class="cls-1" d="M16.14,120a1,1,0,0,0-.1,2A1,1,0,0,0,16.14,120Z"/><path class="cls-1" d="M11.3,79.12a1,1,0,1,0,1.29.58A1,1,0,0,0,11.3,79.12Z"/><path class="cls-1" d="M16.44,114.08a1,1,0,0,0-.1,2A1,1,0,0,0,16.44,114.08Z"/><path class="cls-1" d="M14.77,85.28a1,1,0,0,0-1.88.66A1,1,0,0,0,14.77,85.28Z"/><path class="cls-1" d="M16.47,91.11a1,1,0,0,0-1.95.45A1,1,0,0,0,16.47,91.11Z"/><path class="cls-1" d="M14,27.13a1,1,0,0,0-1,1.75A1,1,0,0,0,14,27.13Z"/><path class="cls-1" d="M15.54,97.33a1,1,0,1,0,.87-1.11A1,1,0,0,0,15.54,97.33Z"/><path class="cls-1" d="M112.56,62.34a1,1,0,1,0,0,1.66A1,1,0,0,0,112.56,62.34Z"/><path class="cls-1" d="M120.38,83.78a1,1,0,1,0-.71,1.87A1,1,0,0,0,120.38,83.78Z"/><path class="cls-1" d="M116,89a1,1,0,1,0,1.41,0A1,1,0,0,0,116,89Z"/><path class="cls-1" d="M120.77,77.77a1,1,0,0,0,.08,2A1,1,0,1,0,120.77,77.77Z"/><path class="cls-1" d="M116.33,67.52a1,1,0,0,0-1.62,1.16A1,1,0,0,0,116.33,67.52Z"/><path class="cls-1" d="M119.86,72.54a1,1,0,0,0-1.72,1A1,1,0,0,0,119.86,72.54Z"/><path class="cls-1" d="M112.2,92.07a1,1,0,0,0-1.63.32,1,1,0,1,0,1.63-.32Z"/><path class="cls-1" d="M111.36,98a1,1,0,0,0-.68,1.88A1,1,0,0,0,111.36,98Z"/><path class="cls-1" d="M107.94,116.12a1,1,0,0,0-.64,1.89A1,1,0,0,0,107.94,116.12Z"/><path class="cls-1" d="M109.67,103.86a1,1,0,0,0-.46,2A1,1,0,1,0,109.67,103.86Z"/><path class="cls-1" d="M108.73,110a1,1,0,1,0,0,2A1,1,0,0,0,108.73,110Z"/><path class="cls-1" d="M103.94,122a1,1,0,1,0,1.4-.22A1,1,0,0,0,103.94,122Z"/><path class="cls-1" d="M101.06,126.29a1,1,0,0,0-1.41,0,1,1,0,1,0,1.41,0Z"/><path class="cls-1" d="M105.32,66.09a4.49,4.49,0,0,1-.34-4.58c.87-1.8.67-2.69.67-8.69A44.75,44.75,0,0,0,61,8.13c-13.17,0-24.2,3.82-33.5,13.07C17.91,30.71,14.23,42,14.23,54.79a63.06,63.06,0,0,0,5,25.08C26,96,24,107,23,127a1,1,0,0,0,2,.1c1-20.23,3-32.44-4-48.27-3.91-9.4-4.74-17-4.74-25.95a42.87,42.87,0,0,1,42.89-42.7c27.26,0,44.53,20.44,44.53,42.69,0,6,.15,6.53-.47,7.81a6.49,6.49,0,0,0,.51,6.61L111,77.4a4.35,4.35,0,0,1-2.67,6.8l-5.87,1.17a1,1,0,0,0-.81,1c0,6.57-.06,6.31.17,6.66.59.89,1.22,1.83.5,3.18-.94,1.74-1.87,1.36-9.83,1.36a1,1,0,0,0,0,2h5.61a2.56,2.56,0,0,1,1.81,4.39c-.4.4-.29.35-.29,6.52A11.49,11.49,0,0,1,88.1,121.94c-2.23,0-2.47-.26-15.7-4a1,1,0,0,0-1.27,1V127a1,1,0,0,0,2,0v-6.8c12.11,3.45,12.49,3.74,15,3.74a13.49,13.49,0,0,0,13.48-13.48V105a4.49,4.49,0,0,0,0-5.77,4.56,4.56,0,0,0,2-7.11v-5l5.07-1a6.36,6.36,0,0,0,3.91-9.92Z"/><path class="cls-1" d="M82.29,56.87a9.12,9.12,0,0,0,2.86-17.79,7.09,7.09,0,0,0-8.66-8.38A17.26,17.26,0,0,0,42.7,34.59a11.16,11.16,0,0,0,1,22.28h5.86l7.36,3.68V76.19a1,1,0,0,0,1,1c.69,0-.7,1.48,16.74-20.32ZM34.52,45.71a9.17,9.17,0,0,1,9.16-9.16,1,1,0,0,0,1-1,15.25,15.25,0,0,1,30.13-3.34,1,1,0,0,0,1.37.7,5.1,5.1,0,0,1,7.14,4.67c0,1.6-.71,1.94-.3,2.68a1,1,0,0,0,.68.5,7.12,7.12,0,0,1-1.41,14.11H74.4L67,51.19V35.55a1,1,0,0,0-1.78-.63l-16,19.95H43.68A9.17,9.17,0,0,1,34.52,45.71ZM58.9,73.34c0-14.32.23-13.91-.55-14.3l-7-3.51L65,38.4c0,14.32-.22,13.91.55,14.3l7,3.51Z"/><path class="cls-1" d="M32.62,63.55l-2,4.07a1,1,0,0,0,.89,1.44c.82,0,.78-.31,2.93-4.61A1,1,0,0,0,32.62,63.55Z"/><path class="cls-1" d="M44.82,63.55l-2,4.07a1,1,0,0,0,.9,1.44c.81,0,.77-.31,2.92-4.61A1,1,0,0,0,44.82,63.55Z"/><path class="cls-1" d="M36.69,73.71l-2,4.07a1,1,0,0,0,.9,1.45c.81,0,.77-.32,2.93-4.62A1,1,0,0,0,36.69,73.71Z"/><path class="cls-1" d="M48.88,73.71l-2,4.07a1,1,0,0,0,.89,1.45c.82,0,.78-.32,2.93-4.62A1,1,0,0,0,48.88,73.71Z"/><path class="cls-1" d="M69.2,73.71l-2,4.07a1,1,0,0,0,.89,1.45c.82,0,.78-.32,2.93-4.62A1,1,0,0,0,69.2,73.71Z"/><path class="cls-1" d="M81.4,73.71l-2,4.07a1,1,0,0,0,1.79.89l2-4.06A1,1,0,0,0,81.4,73.71Z"/><path class="cls-1" d="M77.33,63.55l-2,4.07a1,1,0,0,0,1.79.89l2-4.06A1,1,0,0,0,77.33,63.55Z"/><path class="cls-1" d="M89.53,63.55l-2,4.07a1,1,0,0,0,1.79.89l2-4.06A1,1,0,0,0,89.53,63.55Z"/></g></svg>