<svg xmlns="http://www.w3.org/2000/svg" viewBox="0 0 128 128"><defs><style>.cls-1{fill:#47566a;}</style></defs><title>Book</title><g id="Book"><path class="cls-1" d="M112.77,0H23.35a9.13,9.13,0,0,0-9.12,9.13V118.87A9.13,9.13,0,0,0,23.35,128h89.42a1,1,0,0,0,1-1V1A1,1,0,0,0,112.77,0Zm-1,109.74H28.42V2h83.35Zm-95.54,3.43V9.13A7.13,7.13,0,0,1,23.35,2h3.07V109.74C23.42,109.74,19.39,109.23,16.23,113.17ZM23.35,126a7.13,7.13,0,0,1,0-14.26h88.42v6.13H23.35a1,1,0,0,0,0,2h88.42V126Z"/><path class="cls-1" d="M80.26,26.42c-5.78,0,1.25,12.19-8.13,12.19h-1V28.42h1a1,1,0,0,0,0-2H68.06a1,1,0,0,0,0,2h1V38.61c-4.83,0-6.31-.84-6.48-7.15-.06-2.36-.14-5-2.68-5a1,1,0,0,0,0,2c.51,0,.62,1,.68,3.1.2,7.25,2.48,9.09,8.48,9.09v6.13h-1a1,1,0,0,0,0,2h4.07a1,1,0,0,0,0-2h-1V40.61h1c10.51,0,6.08-12.19,8.13-12.19A1,1,0,0,0,80.26,26.42Z"/><path class="cls-1" d="M39.61,58.9h61a1,1,0,0,0,1-1V17.26a1,1,0,0,0-1-1h-61a1,1,0,0,0-1,1V57.9A1,1,0,0,0,39.61,58.9Zm1-40.64h59V56.9h-59Z"/><path class="cls-1" d="M96.52,83.32H43.68a1,1,0,0,0,0,2H96.52A1,1,0,0,0,96.52,83.32Z"/><path class="cls-1" d="M96.52,95.52H43.68a1,1,0,0,0,0,2H96.52A1,1,0,0,0,96.52,95.52Z"/></g></svg>