<svg xmlns="http://www.w3.org/2000/svg" viewBox="0 0 128 128"><defs><style>.cls-1{fill:#47566a;}</style></defs><title>Cannabis</title><g id="Cannabis"><path class="cls-1" d="M112.59,68.12,105.32,58A4.41,4.41,0,0,1,105,53.4c.9-1.8.68-2.91.68-8.71C105.65,21.62,87.79,0,59.12,0A45,45,0,0,0,14.23,44.69c0,9,.86,17.05,4.9,26.73A61.71,61.71,0,0,1,24,98.92c-.65,12.08-1.4,27.87-1.41,28a1,1,0,0,0,2,.1C25.86,98.77,28.16,87.9,21.1,71,17,61.18,16.2,53.54,16.23,44.7A43,43,0,0,1,59.12,2c27.25,0,44.53,20.43,44.53,42.69,0,6,.15,6.57-.47,7.81a6.4,6.4,0,0,0,.52,6.61L111,69.28a4.35,4.35,0,0,1-2.68,6.79l-5.86,1.18a1,1,0,0,0-.81,1c0,6.56-.06,6.3.17,6.65.6.89,1.21,1.83.49,3.18A2.53,2.53,0,0,1,100,89.42H92.45a1,1,0,0,0,0,2h5.61a2.57,2.57,0,0,1,1.81,4.39c-.4.41-.29.35-.29,6.52A11.49,11.49,0,0,1,88.1,113.81c-2.14,0-2.19-.17-15.7-4a1,1,0,0,0-1.27,1V127a1,1,0,0,0,2,0V112.07c11.4,3.26,12.36,3.74,15,3.74a13.5,13.5,0,0,0,13.48-13.48V96.9a4.55,4.55,0,0,0,0-5.77,4.58,4.58,0,0,0,2.18-6.82c-.28-.41-.2.44-.2-5.26l5.06-1A6.35,6.35,0,0,0,112.59,68.12Z"/><path class="cls-1" d="M72.13,75.16a1,1,0,0,0,1-1,16.7,16.7,0,0,0-2.8-8.92c5,.37,13.54.14,20.63-4.47A1,1,0,0,0,91,59.14c-6.34-4.9-11.57-6-17.76-5.26,10.36-6.71,14.19-12.8,16.1-24.26a1,1,0,0,0-1.11-1.16c-10.72,1.34-18,9.29-22.06,15.48A85.65,85.65,0,0,0,67,31.48,49,49,0,0,0,60.79,8.61a1,1,0,0,0-1.71,0,49,49,0,0,0-6.24,22.87,85.65,85.65,0,0,0,.83,12.46c-4.1-6.19-11.34-14.14-22.06-15.48a1,1,0,0,0-1.11,1.16c1.91,11.46,5.74,17.55,16.1,24.26-6.19-.74-11.42.36-17.76,5.26a1,1,0,0,0,.07,1.63c7.09,4.61,15.64,4.84,20.63,4.47a16.7,16.7,0,0,0-2.8,8.92,1,1,0,0,0,1,1c6,0,9.36-2.68,11.2-5.1V82.29a1,1,0,0,0,2,0V70.06C62.77,72.48,66.15,75.16,72.13,75.16Zm-23.34-2a14.67,14.67,0,0,1,3.72-8.42,1,1,0,0,0-.84-1.7c-3.69.5-12.79,1.13-20.43-3.16,12-8.5,20.47-1,21.5-3.61A1,1,0,0,0,52.3,55c-13-7.42-17.42-12.82-19.59-24.35C42.82,32.54,50.26,41,55,50.18a1,1,0,0,0,1.86-.64c-.17-1-2-6.58-2-18.06,0-9,3.45-17,5.1-20.23C61.58,14.53,65,22.48,65,31.48a74.64,74.64,0,0,1-2,18.06,1,1,0,0,0,1.87.64C69.61,41,77.05,32.54,87.16,30.65,85,42.18,80.55,47.58,67.57,55a1,1,0,0,0-.44,1.24c1.05,2.65,9.48-4.94,21.5,3.61C81,64.14,71.89,63.51,68.2,63a1,1,0,0,0-.84,1.7,14.67,14.67,0,0,1,3.72,8.42c-8.59-.53-10-7.26-10.39-7.74a1,1,0,0,0-1.51,0C58.81,65.83,57.34,72.59,48.79,73.13Z"/></g></svg>