<svg xmlns="http://www.w3.org/2000/svg" viewBox="0 0 128 128"><defs><style>.cls-1{fill:#47566a;}</style></defs><title>Clinic</title><g id="Clinic"><path class="cls-1" d="M53.84,10.13c2,0-2.38,12.19,8.13,12.19h1v6.13H62a1,1,0,0,0,0,2H66a1,1,0,0,0,0-2H65V22.32c6,0,8.28-1.85,8.48-9.09,0-2.15.17-3.1.68-3.1a1,1,0,0,0,0-2c-2.55,0-2.62,2.68-2.68,5-.17,6.33-1.66,7.15-6.48,7.15V10.13h1a1,1,0,0,0,0-2H62a1,1,0,0,0,0,2h1V20.32H62c-9.35,0-2.39-12.19-8.13-12.19A1,1,0,0,0,53.84,10.13Z"/><path class="cls-1" d="M80.26,58.9H92.45a1,1,0,0,0,1-1V45.71a1,1,0,0,0-1-1H80.26a1,1,0,0,0-1,1V57.9A1,1,0,0,0,80.26,58.9Zm1-12.19H91.45V56.9H81.26Z"/><path class="cls-1" d="M57.9,58.9H70.1a1,1,0,0,0,1-1V45.71a1,1,0,0,0-1-1H57.9a1,1,0,0,0-1,1V57.9A1,1,0,0,0,57.9,58.9Zm1-12.19H69.1V56.9H58.9Z"/><path class="cls-1" d="M35.55,58.9H47.74a1,1,0,0,0,1-1V45.71a1,1,0,0,0-1-1H35.55a1,1,0,0,0-1,1V57.9A1,1,0,0,0,35.55,58.9Zm1-12.19H46.74V56.9H36.55Z"/><path class="cls-1" d="M80.26,81.26H92.45a1,1,0,0,0,1-1V68.06a1,1,0,0,0-1-1H80.26a1,1,0,0,0-1,1v12.2A1,1,0,0,0,80.26,81.26Zm1-12.2H91.45v10.2H81.26Z"/><path class="cls-1" d="M57.9,81.26H70.1a1,1,0,0,0,1-1V68.06a1,1,0,0,0-1-1H57.9a1,1,0,0,0-1,1v12.2A1,1,0,0,0,57.9,81.26Zm1-12.2H69.1v10.2H58.9Z"/><path class="cls-1" d="M48.74,80.26V68.06a1,1,0,0,0-1-1H35.55a1,1,0,0,0-1,1v12.2a1,1,0,0,0,1,1H47.74A1,1,0,0,0,48.74,80.26Zm-2-1H36.55V69.06H46.74Z"/><path class="cls-1" d="M127,42.68H103.61V30.45h3.07a1,1,0,0,0,1-1V17.26a1,1,0,0,0-1-1H83.29V1a1,1,0,0,0-1-1H45.71a1,1,0,0,0-1,1V16.26H21.32a1,1,0,0,0-1,1V29.45a1,1,0,0,0,1,1h3.07V42.68H1a1,1,0,0,0-1,1V127a1,1,0,0,0,1,1H127a1,1,0,0,0,1-1V43.68A1,1,0,0,0,127,42.68ZM103.61,54.84h12.23V63H103.61Zm0,20.32h12.23v8.16H103.61Zm0,20.32h12.23v8.17H103.61Zm2.07-77.22V28.45H83.29V18.26ZM46.71,2H81.29V36.58H46.71ZM22.32,18.26H44.71V28.45H22.32Zm2.07,85.39H12.16V95.48H24.39Zm0-20.33H12.16V75.16H24.39Zm0-20.32H12.16V54.84H24.39ZM2,44.68H24.39v8.16H11.16a1,1,0,0,0-1,1V64a1,1,0,0,0,1,1H24.39v8.16H11.16a1,1,0,0,0-1,1V84.32a1,1,0,0,0,1,1H24.39v8.16H11.16a1,1,0,0,0-1,1v10.17a1,1,0,0,0,1,1H24.39V126H2ZM26.39,30.45H44.71v7.13a1,1,0,0,0,1,1H82.29a1,1,0,0,0,1-1V30.45h18.32V126H87.35V99.55h3.07a1,1,0,0,0,1-1V90.42a1,1,0,0,0-1-1H37.58a1,1,0,0,0-1,1v8.13a1,1,0,0,0,1,1h3.07V126H26.39Zm12.19,67.1V91.42H89.42v6.13Zm4.07,2H63V126H42.65ZM65,126V99.55H85.35V126Zm61,0H103.61V105.65h13.23a1,1,0,0,0,1-1V94.48a1,1,0,0,0-1-1H103.61V85.32h13.23a1,1,0,0,0,1-1V74.16a1,1,0,0,0-1-1H103.61V65h13.23a1,1,0,0,0,1-1V53.84a1,1,0,0,0-1-1H103.61V44.68H126Z"/></g></svg>