<svg xmlns="http://www.w3.org/2000/svg" viewBox="0 0 128 128"><defs><style>.cls-1{fill:#47566a;}</style></defs><title>Consultation Session</title><g id="Consultation_Session" data-name="Consultation Session"><path class="cls-1" d="M128,88.39a5.07,5.07,0,0,0-5.06-5.07H106.09c5.08-13.55,5.08-13.23,5.08-14.36a4.49,4.49,0,0,0-7.68-3.19l-7.35,7.36-47.91-4-8-9.1A12.69,12.69,0,0,0,28,56a9.63,9.63,0,0,0-1.87-11l-2-2a9.64,9.64,0,0,0-13.61,0C7,46.39,6.21,52.33,11,57.1a9,9,0,0,0-9,3.27A9.12,9.12,0,0,0,8.5,75.13l9.79,31.7v8a1,1,0,0,0,1,1h8.13a1,1,0,0,0,1-1v-7.13h85.39v7.13a1,1,0,0,0,1,1h8.13a1,1,0,0,0,1-1V93.35A5.08,5.08,0,0,0,128,88.39Zm-89.26-27c8.94,10.19,8.34,9.69,8.92,9.74,52.07,4.34,49.07,4.27,49.56,3.78l7.69-7.68a2.49,2.49,0,0,1,4.1,2.64L104,83.32H59.88a5.05,5.05,0,0,0-4-8.13H42.11L32.25,63.36a1,1,0,0,0-1.53,1.28C41.73,77.86,41,77.19,41.65,77.19H55.87a3.07,3.07,0,1,1,0,6.13H38.16c-2.4-2.6-8.95-9.66-14.81-15.72a7.81,7.81,0,0,1,1.85-8.21,9.19,9.19,0,0,0,.75-.65A10.74,10.74,0,0,1,38.74,61.35ZM20.89,65.09c-1.46-1.49-2.83-2.84-4-4a9.37,9.37,0,0,0,4.79,0A9.64,9.64,0,0,0,20.89,65.09Zm-9-20.71a7.63,7.63,0,0,1,10.78,0l2,2a7.63,7.63,0,0,1,0,10.75c-.27.22-.56.45-.85.73a7.62,7.62,0,0,1-10-.7l-2-2A7.63,7.63,0,0,1,11.87,44.38Zm110.07,61.3H20L10.57,75A8.84,8.84,0,0,0,15,73c16.25,18.52,12,14.13,19,20.21.44.37-5.52.24,87.88.24Zm-95.52,8.13H20.29v-6.13h6.13Zm95.52,0h-6.13v-6.13h6.13Zm3.14-23.25c-1.27,1.3,5.25.89-90,.89-6.58-5.63-2.61-1.57-19.25-20.55a1,1,0,0,0-1.49,0,7.12,7.12,0,1,1-2.23-11.3c1.82.86,16.22,16,24.87,25.42.45.49-5.68.32,85.95.32A3.06,3.06,0,0,1,125.08,90.56Z"/><path class="cls-1" d="M9.13,64.53a1.5,1.5,0,0,0,0,3A1.5,1.5,0,0,0,9.13,64.53Z"/><path class="cls-1" d="M57.9,31a1.5,1.5,0,0,0,0-3A1.5,1.5,0,0,0,57.9,31Z"/><path class="cls-1" d="M49.77,31a1.5,1.5,0,0,0,0-3A1.5,1.5,0,0,0,49.77,31Z"/><path class="cls-1" d="M66,31a1.5,1.5,0,0,0,0-3A1.5,1.5,0,0,0,66,31Z"/><path class="cls-1" d="M40.94,45a1,1,0,0,0,.71,1.71H57.9a17.26,17.26,0,0,0,0-34.52c-14.85,0-22.74,17.7-12.89,28.74Zm17-30.81a15.26,15.26,0,0,1,0,30.52H44.06c3.32-3.32,3.35-3.21,3.35-3.76a1,1,0,0,0-.3-.71C37.53,30.65,44.4,14.19,57.9,14.19Z"/></g></svg>