<svg xmlns="http://www.w3.org/2000/svg" viewBox="0 0 128 128"><defs><style>.cls-1{fill:#47566a;}</style></defs><title>Creativity</title><g id="Creativity"><path class="cls-1" d="M60.94,15.23V9.13a1,1,0,0,0-2,0v6.1A1,1,0,0,0,60.94,15.23Z"/><path class="cls-1" d="M96.52,46.71a1,1,0,0,0,0-2h-6.1a1,1,0,0,0,0,2Z"/><path class="cls-1" d="M29.45,44.71h-6.1a1,1,0,0,0,0,2h6.1A1,1,0,0,0,29.45,44.71Z"/><path class="cls-1" d="M82.2,66.56A1,1,0,0,0,80.78,68c4.64,4.64,4.45,4.61,5,4.61a1,1,0,0,0,.71-1.71Z"/><path class="cls-1" d="M37.67,24.86a1,1,0,0,0,1.42-1.41l-4.31-4.31a1,1,0,0,0-1.42,1.41Z"/><path class="cls-1" d="M85.09,19.14l-4.31,4.31a1,1,0,0,0,.71,1.7c.58,0,.45,0,5-4.6A1,1,0,0,0,85.09,19.14Z"/><path class="cls-1" d="M37.67,66.56l-4.31,4.31a1,1,0,0,0,1.42,1.41L39.09,68A1,1,0,0,0,37.67,66.56Z"/><path class="cls-1" d="M75.05,63.49A23.33,23.33,0,0,0,75.5,28.3c-14-12.55-35.9-4-38.63,13.7a23.28,23.28,0,0,0,8.22,21.72,10.53,10.53,0,0,1,3.68,8.22V82.29a7.11,7.11,0,0,0,7.1,7.1H64a7.11,7.11,0,0,0,7.1-7.1V72.13A10.75,10.75,0,0,1,75.05,63.49Zm-6,18.8a5.11,5.11,0,0,1-5.1,5.1H55.87a5.11,5.11,0,0,1-5.1-5.1V73.13H69.1Zm0-11.16H50.75a12.44,12.44,0,0,0-4.39-9C31.71,50.1,39.06,26.55,57.47,24.49,78.6,22.13,89.64,48.47,73.76,62A12.79,12.79,0,0,0,69.11,71.13Z"/><path class="cls-1" d="M55.46,46.74,60.83,36A1,1,0,0,0,59,35.1c-6.55,13.1-6.46,12.5-6,13.17s.41.47,9.39.47L57,59.49a1,1,0,0,0,1.79.89c6.54-13.09,6.46-12.5,6-13.16S64.44,46.74,55.46,46.74Z"/><path class="cls-1" d="M112.59,68.12,105.32,58A4.41,4.41,0,0,1,105,53.4c.9-1.81.68-2.93.68-8.71C105.65,21.62,87.79,0,59.12,0A45,45,0,0,0,14.23,44.69c0,9,.85,17,4.9,26.73A61.67,61.67,0,0,1,24,98.92c-.65,12.08-1.4,27.87-1.41,28a1,1,0,0,0,2,.1c0-.16.76-16,1.41-28A63.58,63.58,0,0,0,21.1,71c-4-9.52-4.9-17.15-4.87-26.27A43,43,0,0,1,59.12,2c27.25,0,44.53,20.44,44.53,42.69,0,6,.15,6.57-.47,7.81a6.4,6.4,0,0,0,.52,6.61L111,69.28a4.35,4.35,0,0,1-2.68,6.79l-5.86,1.18a1,1,0,0,0-.81,1c0,6.56-.06,6.3.17,6.65.59.89,1.22,1.83.49,3.18A2.53,2.53,0,0,1,100,89.42H92.45a1,1,0,0,0,0,2h5.61a2.57,2.57,0,0,1,1.81,4.39c-.4.41-.29.35-.29,6.52A11.49,11.49,0,0,1,88.1,113.81c-2.14,0-2.19-.17-15.7-4a1,1,0,0,0-1.27,1V127a1,1,0,0,0,2,0V112.07c11.4,3.26,12.36,3.74,15,3.74a13.5,13.5,0,0,0,13.48-13.48V96.9a4.54,4.54,0,0,0,0-5.77,4.58,4.58,0,0,0,2.18-6.82c-.28-.41-.2.44-.2-5.26l5.06-1A6.35,6.35,0,0,0,112.59,68.12Z"/></g></svg>