<svg xmlns="http://www.w3.org/2000/svg" viewBox="0 0 128 128"><defs><style>.cls-1{fill:#47566a;}</style></defs><title>Emotion</title><g id="Emotion"><path class="cls-1" d="M92.16,34.07c0-17.21-22.16-24.4-32.22-10.44-10.07-14-32.23-6.76-32.23,10.44,0,19.59,30.46,36.21,31.75,36.91a1,1,0,0,0,.48.12C61.18,71.1,92.16,53.39,92.16,34.07ZM59.94,69c-3.89-2.2-30.23-17.76-30.23-34.88,0-15.9,21.09-21.91,29.37-8.11a1,1,0,0,0,1.71,0c8.28-13.8,29.37-7.79,29.37,8.11C90.16,51.19,63.82,66.75,59.94,69Z"/><path class="cls-1" d="M74.35,24.39a1,1,0,0,0,0,2A7.69,7.69,0,0,1,82,34.07a1,1,0,0,0,2,0A9.69,9.69,0,0,0,74.35,24.39Z"/><path class="cls-1" d="M112.59,68.12,105.32,58A4.41,4.41,0,0,1,105,53.4c.9-1.81.68-2.93.68-8.71C105.65,21.62,87.79,0,59.12,0A45,45,0,0,0,14.23,44.69c0,9,.85,17,4.9,26.73A61.67,61.67,0,0,1,24,98.92c-.65,12.08-1.4,27.87-1.41,28a1,1,0,0,0,2,.1c0-.16.76-16,1.41-28A63.58,63.58,0,0,0,21.1,71c-4-9.52-4.9-17.15-4.87-26.27A43,43,0,0,1,59.12,2c27.25,0,44.53,20.44,44.53,42.69,0,6,.15,6.57-.47,7.81a6.4,6.4,0,0,0,.52,6.61L111,69.28a4.35,4.35,0,0,1-2.68,6.79l-5.86,1.18a1,1,0,0,0-.81,1c0,6.56-.06,6.3.17,6.65.59.89,1.22,1.83.49,3.18A2.53,2.53,0,0,1,100,89.42H92.45a1,1,0,0,0,0,2h5.61a2.57,2.57,0,0,1,1.81,4.39c-.4.41-.29.35-.29,6.52A11.49,11.49,0,0,1,88.1,113.81c-2.14,0-2.19-.17-15.7-4a1,1,0,0,0-1.27,1V127a1,1,0,0,0,2,0V112.07c11.4,3.26,12.36,3.74,15,3.74a13.5,13.5,0,0,0,13.48-13.48V96.9a4.54,4.54,0,0,0,0-5.77,4.58,4.58,0,0,0,2.18-6.82c-.28-.41-.2.44-.2-5.26l5.06-1A6.35,6.35,0,0,0,112.59,68.12Z"/></g></svg>