<svg xmlns="http://www.w3.org/2000/svg" viewBox="0 0 128 128"><defs><style>.cls-1{fill:#47566a;}</style></defs><title>Emotional meter</title><g id="Emotional_meter" data-name="Emotional meter"><path class="cls-1" d="M19.29,54.84A19.29,19.29,0,1,0,0,35.55,19.31,19.31,0,0,0,19.29,54.84Zm0-36.58A17.29,17.29,0,1,1,2,35.55,17.31,17.31,0,0,1,19.29,18.26Z"/><path class="cls-1" d="M14.25,44.73a7.13,7.13,0,0,1,10.08,0,1,1,0,0,0,1.42,0c2-2-7.1-7.23-12.92-1.41A1,1,0,0,0,14.25,44.73Z"/><path class="cls-1" d="M102.25,44.73a1,1,0,0,0,1.42,0,7.13,7.13,0,0,1,10.08,0,1,1,0,0,0,1.42-1.41C109.37,37.53,100.29,42.76,102.25,44.73Z"/><path class="cls-1" d="M64,38.58A19.29,19.29,0,1,0,44.71,19.29,19.31,19.31,0,0,0,64,38.58ZM64,2A17.29,17.29,0,1,1,46.71,19.29,17.31,17.31,0,0,1,64,2Z"/><path class="cls-1" d="M70.46,28.13A1,1,0,0,0,69,26.71a7.12,7.12,0,0,1-10.08,0,1,1,0,0,0-1.42,1.42A9.15,9.15,0,0,0,70.46,28.13Z"/><path class="cls-1" d="M73.13,17.26v-2a1,1,0,0,0-2,0v2A1,1,0,0,0,73.13,17.26Z"/><path class="cls-1" d="M56.87,17.26v-2a1,1,0,0,0-2,0v2A1,1,0,0,0,56.87,17.26Z"/><path class="cls-1" d="M108.71,54.84A19.29,19.29,0,1,0,89.42,35.55,19.31,19.31,0,0,0,108.71,54.84Zm0-36.58A17.29,17.29,0,1,1,91.42,35.55,17.31,17.31,0,0,1,108.71,18.26Z"/><path class="cls-1" d="M9.13,34.52c.34,0,.17,0,4.51-2.14a1,1,0,0,0-.89-1.79l-4.07,2A1,1,0,0,0,9.13,34.52Z"/><path class="cls-1" d="M24.94,32.38c4.38,2.19,4.18,2.14,4.51,2.14a1,1,0,0,0,.45-1.9l-4.07-2A1,1,0,0,0,24.94,32.38Z"/><path class="cls-1" d="M98.1,32.38c4.39,2.19,4.19,2.14,4.51,2.14a1,1,0,0,0,.45-1.9l-4.06-2A1,1,0,0,0,98.1,32.38Z"/><path class="cls-1" d="M114.81,34.52c.34,0,.16,0,4.51-2.14a1,1,0,0,0-.9-1.79l-4.06,2A1,1,0,0,0,114.81,34.52Z"/><path class="cls-1" d="M96.14,63.56c-.19-.16,0-.09-.32-.18a63.75,63.75,0,0,0-63.64,0c-.24.08-.11,0-.32.18A64,64,0,0,0,0,118.87V127a1,1,0,0,0,1,1H127a1,1,0,0,0,1-1v-8.13A64,64,0,0,0,96.14,63.56ZM126,117.87H115.8a51.71,51.71,0,0,0-25-43.37l5.07-8.8A62,62,0,0,1,126,117.87ZM94.12,64.7,89,73.5A51.91,51.91,0,0,0,39,73.5l-5.08-8.8A61.84,61.84,0,0,1,94.12,64.7Zm-62,1,5.07,8.8a51.72,51.72,0,0,0-25,43.37H2A62,62,0,0,1,32.15,65.7ZM58.9,120.9c0-4.44,3.38-24.73,5.1-34.78,1.72,10,5.1,30.34,5.1,34.78a5.1,5.1,0,1,1-10.2,0Zm10,5.1a7.1,7.1,0,0,0,2.17-5.1c0-6.11-5.87-39.4-6.12-40.82a1,1,0,0,0-2,0c-.25,1.42-6.12,34.71-6.12,40.82a7.1,7.1,0,0,0,2.17,5.1H2v-6.13H13.19a1,1,0,0,0,1-1A49.63,49.63,0,0,1,39.1,75.74c32.68-19,74.71,4.44,74.71,43.13a1,1,0,0,0,1,1H126V126Z"/></g></svg>