<svg id="Female_Psycolog" data-name="Female Psycolog" xmlns="http://www.w3.org/2000/svg" viewBox="0 0 128 128"><defs><style>.cls-1{fill:#47566a;}</style></defs><title>Female Psycolog</title><path class="cls-1" d="M58.86,60.89a1,1,0,0,0-1.42-1.42,5.1,5.1,0,0,1-7.21,0,1,1,0,0,0-1.41,1.42A7.11,7.11,0,0,0,58.86,60.89Z"/><path class="cls-1" d="M121.18,96.19A21.34,21.34,0,0,0,92.9,87.72c-8.46-10.06-18.05-8.5-6.55-8.5a1,1,0,0,0,1-1V25.39A25.42,25.42,0,0,0,62,0H45.36A15,15,0,0,0,35.08,4.12,17.56,17.56,0,0,0,20.32,21.46V78.22a1,1,0,0,0,1,1h5.27A29.34,29.34,0,0,0,8.25,101.83l-4.17,25a1,1,0,0,0,2,.33l4.17-25A27.32,27.32,0,0,1,35.87,79.29C28.1,90.62,28.3,90.05,28.49,90.7S28,90.88,42.31,97l-3.59,7.18a1,1,0,0,0,.24,1.2l13.88,11.9V127a1,1,0,0,0,2,0v-9.7l13.87-11.9a1,1,0,0,0,.25-1.2L65.37,97C79.71,90.87,79,91.34,79.18,90.7s.4-.07-7.39-11.44a27.31,27.31,0,0,1,19.35,9.47,21.31,21.31,0,1,0,30,7.46Zm-35.83-19H63v-5.8A25.44,25.44,0,0,0,79,50.77c2.14,0,4.2,0,6.31-2.17ZM53.84,95.85,46.71,78V72.12a25.69,25.69,0,0,0,14.13,0c.19-.06.13-.62.13,5.89ZM28.45,48.77h-1a5.1,5.1,0,1,1,0-10.19h1ZM79.22,38.58h1a5.1,5.1,0,0,1,0,10.19h-1Zm-7.17-2a8.11,8.11,0,0,0-14.52.9,7.84,7.84,0,0,0-7.38,0,8.11,8.11,0,0,0-14.52-.9c-.24,0,.39,0-4.41,0,3-4.91,5.25-9.36,5.33-16.53a14.65,14.65,0,0,0,10.39,4.31H64A13.22,13.22,0,0,1,77.17,36.58C71,36.58,72.31,36.57,72.05,36.6Zm-7-2.08a6.11,6.11,0,1,1-6.12,6.11A6.12,6.12,0,0,1,65,34.52Zm-22.36,0a6.11,6.11,0,1,1-6.11,6.11A6.12,6.12,0,0,1,42.66,34.52ZM30.45,38.58h4.37a8.11,8.11,0,1,0,15.91,1.24c.35-1.64,5.86-1.64,6.21,0a8.11,8.11,0,1,0,15.92-1.24h4.36v9.16c0,20.84-25.29,31.19-39.93,16.55C29.24,56.24,30.45,47.62,30.45,38.58ZM22.32,21.46A15.54,15.54,0,0,1,35.69,6.06a1,1,0,0,0,.56-.29A13,13,0,0,1,45.36,2H62A23.41,23.41,0,0,1,85.35,25.39V38.75c-2.07-2.14-4.26-2.17-6.18-2.17A15.22,15.22,0,0,0,64,22.36H46.94A12.68,12.68,0,0,1,36.38,16.7a1,1,0,0,0-1.83.56c0,10-1.62,12.58-5.66,19.32-1.93,0-4.3-.18-6.57,2.17Zm0,55.76V48.6c2.09,2.17,4.29,2.17,6.32,2.17A25.3,25.3,0,0,0,44.71,71.44v5.78Zm18.54,27.17c4-8,4-7.65,3.76-8.22S45.26,96.1,31,90l7.37-10.76H45l7.81,19.52v15.92ZM63.61,95.6A1,1,0,0,0,63.1,97l3.72,7.43-12,10.27V98.74l7.8-19.52h6.7L76.71,90Zm48.5,27.9a19.32,19.32,0,1,1,7.33-26.32A19.33,19.33,0,0,1,112.11,123.5Z"/><path class="cls-1" d="M112.77,97.55c-5.77,0,1.25,12.19-8.13,12.19h-1V99.55h1a1,1,0,0,0,0-2h-4.06a1,1,0,0,0,0,2h1v10.19c-4.84,0-6.31-.85-6.48-7.15-.06-2.36-.13-5-2.68-5a1,1,0,0,0,0,2c.51,0,.63,1,.69,3.1.19,7.24,2.47,9.09,8.47,9.09v6.13h-1a1,1,0,0,0,0,2h4.06a1,1,0,0,0,0-2h-1v-6.13h1c10.52,0,6.08-12.19,8.13-12.19A1,1,0,0,0,112.77,97.55Z"/></svg>