<svg xmlns="http://www.w3.org/2000/svg" viewBox="0 0 128 128"><defs><style>.cls-1{fill:#47566a;}</style></defs><title>Healthy</title><g id="Healthy"><path class="cls-1" d="M112.59,68.12,105.32,58A4.41,4.41,0,0,1,105,53.4c.9-1.8.68-2.91.68-8.71C105.65,21.62,87.79,0,59.12,0A45,45,0,0,0,14.23,44.69c0,9,.86,17.05,4.9,26.73A61.71,61.71,0,0,1,24,98.92c-.65,12.08-1.4,27.87-1.41,28a1,1,0,0,0,2,.1C25.86,98.77,28.16,87.9,21.1,71,17,61.18,16.2,53.54,16.23,44.7A43,43,0,0,1,59.12,2c27.25,0,44.53,20.43,44.53,42.69,0,6,.15,6.57-.47,7.81a6.4,6.4,0,0,0,.52,6.61L111,69.28a4.35,4.35,0,0,1-2.68,6.79l-5.86,1.18a1,1,0,0,0-.81,1c0,6.56-.06,6.3.17,6.65.6.89,1.21,1.83.49,3.18A2.53,2.53,0,0,1,100,89.42H92.45a1,1,0,0,0,0,2h5.61a2.57,2.57,0,0,1,1.81,4.39c-.4.41-.29.35-.29,6.52A11.49,11.49,0,0,1,88.1,113.81c-2.14,0-2.19-.17-15.7-4a1,1,0,0,0-1.27,1V127a1,1,0,0,0,2,0V112.07c11.4,3.26,12.36,3.74,15,3.74a13.5,13.5,0,0,0,13.48-13.48V96.9a4.55,4.55,0,0,0,0-5.77,4.58,4.58,0,0,0,2.18-6.82c-.28-.41-.2.44-.2-5.26l5.06-1A6.35,6.35,0,0,0,112.59,68.12Z"/><path class="cls-1" d="M89.39,41.65A29.46,29.46,0,1,0,59.94,71.08,29.45,29.45,0,0,0,89.39,41.65ZM59.94,69.1A27.46,27.46,0,1,1,87.39,41.65,27.44,27.44,0,0,1,59.94,69.1Z"/><path class="cls-1" d="M73.45,30.78,53.84,50.39l-9.46-9.45A1,1,0,0,0,43,42.35C53.75,53.13,53.24,52.81,53.84,52.81s-1.05,1.46,21-20.62A1,1,0,0,0,73.45,30.78Z"/></g></svg>