<svg xmlns="http://www.w3.org/2000/svg" viewBox="0 0 128 128"><defs><style>.cls-1{fill:#47566a;}</style></defs><title>Hug</title><g id="Hug"><path class="cls-1" d="M113.47,53.15a7.09,7.09,0,0,0-8.84-4.74l-6.31,1.9c-4.7-1.88-7.93-1.54-13.63-1.54A19.29,19.29,0,0,0,95.48,31.48V19.29C95.48,3.22,76.68-6,64,4.37,51.5-5.89,32.52,3,32.52,19.29V31.48A19.29,19.29,0,0,0,43.31,48.77H21.8a7.59,7.59,0,0,0-4.18,13.9c-1.8,4.83-1.36,5.61-1.36,31.81a9.13,9.13,0,0,0,9.13,9.13h3.06V127a1,1,0,0,0,2,0V103.61H52.84V127a1,1,0,0,0,2,0V103.61h1a7.1,7.1,0,1,0,0-14.19h-1c0-22.81,0-21.5-.14-21.84-.37-.65,1.81-.11-33.77-5.72a5.58,5.58,0,0,1,.87-11.09c75.44,0,69.84-.23,73.13.56L83.54,54.77a7.1,7.1,0,0,0,2,13.89c1.46,0,.44.18,22.44-6.46,2.28,5,1.71,6,1.71,34.32a5.1,5.1,0,0,1-8.7,3.6c-2-2-1.49-.87-1.49-28a1,1,0,0,0-2,0V127a1,1,0,0,0,2,0c0-27.62,0-25.6.08-25.47a7.1,7.1,0,0,0,12.11-5c0-27.52.61-29.58-1.82-35A7.12,7.12,0,0,0,113.47,53.15ZM52.84,68.92v20.5H30.45V72.13a1,1,0,0,0-2,0V90.42a1,1,0,0,0,1,1H55.87a5.1,5.1,0,0,1,0,10.19H25.39a7.13,7.13,0,0,1-7.13-7.13c0-26.45-.38-26.67,1.16-30.94C20.3,63.83,17.52,63.34,52.84,68.92ZM93.48,19.29V31.48A17.28,17.28,0,0,1,65.51,45,19.21,19.21,0,0,0,71.1,31.48V19.29A19.24,19.24,0,0,0,65.51,5.73C76.86-3.26,93.48,5,93.48,19.29Zm-59,12.19V19.29a17.29,17.29,0,1,1,34.58,0V31.48a17.29,17.29,0,1,1-34.58,0ZM60.31,48.77c6.42-3.17,1-3.11,7.34,0ZM87.06,66.44a5.1,5.1,0,1,1-2.94-9.76l21.08-6.36a5.1,5.1,0,1,1,3,9.76Z"/><path class="cls-1" d="M55.41,39.15a5.1,5.1,0,0,1-7.21,0,1,1,0,0,0-1.41,1.42,7.11,7.11,0,0,0,10,0A1,1,0,0,0,55.41,39.15Z"/></g></svg>