<svg xmlns="http://www.w3.org/2000/svg" viewBox="0 0 128 128"><defs><style>.cls-1{fill:#47566a;}</style></defs><title>Hypersex</title><g id="Hypersex"><path class="cls-1" d="M112.59,68.12,105.32,58A4.41,4.41,0,0,1,105,53.4c.9-1.81.68-2.93.68-8.71C105.65,21.62,87.79,0,59.12,0A45,45,0,0,0,14.23,44.69c0,9,.86,17.05,4.9,26.73A61.71,61.71,0,0,1,24,98.92c-.65,12.08-1.4,27.87-1.41,28a1,1,0,0,0,2,.1C25.86,98.77,28.16,87.9,21.1,71,17,61.18,16.2,53.54,16.23,44.7A43,43,0,0,1,59.12,2c27.25,0,44.53,20.43,44.53,42.69,0,6,.15,6.57-.47,7.81a6.4,6.4,0,0,0,.52,6.61L111,69.28a4.35,4.35,0,0,1-2.68,6.79l-5.86,1.18a1,1,0,0,0-.81,1c0,6.56-.06,6.3.17,6.65.59.89,1.22,1.83.49,3.18A2.53,2.53,0,0,1,100,89.42H92.45a1,1,0,0,0,0,2h5.61a2.57,2.57,0,0,1,1.81,4.39c-.4.41-.29.35-.29,6.52A11.49,11.49,0,0,1,88.1,113.81c-2.14,0-2.19-.17-15.7-4a1,1,0,0,0-1.27,1V127a1,1,0,0,0,2,0V112.07c11.4,3.26,12.36,3.74,15,3.74a13.5,13.5,0,0,0,13.48-13.48V96.9a4.54,4.54,0,0,0,0-5.77,4.58,4.58,0,0,0,2.18-6.82c-.28-.41-.2.44-.2-5.26l5.06-1A6.35,6.35,0,0,0,112.59,68.12Z"/><path class="cls-1" d="M53.84,56.53A15.2,15.2,0,0,0,73.4,33.66l9.92-9.92v7.74a1,1,0,0,0,2,0c0-10.57.26-10.72-.62-11.08-.26-.11.58-.08-10.54-.08a1,1,0,0,0,0,2h7.75L72,32.24a15.11,15.11,0,0,0-18.15-1.41,15.21,15.21,0,1,0-9.13,28v8.21h-5.1a1,1,0,0,0,0,2h5.1v5.1a1,1,0,0,0,2,0v-5.1h5.1a1,1,0,0,0,0-2h-5.1V58.85A15.06,15.06,0,0,0,53.84,56.53ZM75.19,43.68A13.23,13.23,0,0,1,55.58,55.25a15.18,15.18,0,0,0,0-23.14A13.23,13.23,0,0,1,75.19,43.68ZM53.84,33.27a13.18,13.18,0,0,1,0,20.82A13.18,13.18,0,0,1,53.84,33.27ZM32.48,43.68A13.24,13.24,0,0,1,52.1,32.11a15.17,15.17,0,0,0,0,23.14A13.24,13.24,0,0,1,32.48,43.68Z"/></g></svg>