<svg xmlns="http://www.w3.org/2000/svg" viewBox="0 0 128 128"><defs><style>.cls-1{fill:#47566a;}</style></defs><title>Insecure</title><g id="Insecure"><path class="cls-1" d="M112.59,68.12,105.32,58A4.41,4.41,0,0,1,105,53.4c.9-1.81.68-2.93.68-8.71C105.65,21.62,87.79,0,59.12,0A45,45,0,0,0,14.23,44.69c0,9,.85,17,4.9,26.73A61.67,61.67,0,0,1,24,98.92c-.65,12.08-1.4,27.87-1.41,28a1,1,0,0,0,2,.1c0-.16.76-16,1.41-28A63.58,63.58,0,0,0,21.1,71c-4-9.52-4.9-17.15-4.87-26.27A43,43,0,0,1,59.12,2c27.25,0,44.53,20.44,44.53,42.69,0,6,.15,6.57-.47,7.81a6.4,6.4,0,0,0,.52,6.61L111,69.28a4.35,4.35,0,0,1-2.68,6.79l-5.86,1.18a1,1,0,0,0-.81,1c0,6.56-.06,6.3.17,6.65.59.89,1.22,1.83.49,3.18A2.53,2.53,0,0,1,100,89.42H92.45a1,1,0,0,0,0,2h5.61a2.57,2.57,0,0,1,1.81,4.39c-.4.41-.29.35-.29,6.52A11.49,11.49,0,0,1,88.1,113.81c-2.14,0-2.19-.17-15.7-4a1,1,0,0,0-1.27,1V127a1,1,0,0,0,2,0V112.07c11.4,3.26,12.36,3.74,15,3.74a13.5,13.5,0,0,0,13.48-13.48V96.9a4.54,4.54,0,0,0,0-5.77,4.58,4.58,0,0,0,2.18-6.82c-.28-.41-.2.44-.2-5.26l5.06-1A6.35,6.35,0,0,0,112.59,68.12Z"/><path class="cls-1" d="M85.32,70.1V41.65a5.07,5.07,0,0,0-5.06-5.07h-1v-5.1a19.29,19.29,0,0,0-38.58,0v5.1h-1a5.07,5.07,0,0,0-5.06,5.07V70.1a5.07,5.07,0,0,0,5.06,5.06H80.26A5.07,5.07,0,0,0,85.32,70.1ZM42.65,31.48a17.29,17.29,0,0,1,34.58,0v5.1H71.1v-5.1a11.17,11.17,0,0,0-22.33,0v5.1H42.65Zm8.12,5.1v-5.1a9.17,9.17,0,0,1,18.33,0v5.1ZM36.55,70.1V41.65a3.07,3.07,0,0,1,3.06-3.07H80.26a3.07,3.07,0,0,1,3.06,3.07V70.1a3.06,3.06,0,0,1-3.06,3.06H39.61A3.06,3.06,0,0,1,36.55,70.1Z"/><path class="cls-1" d="M65.33,49.07l-5.39,5.39-5.39-5.39a1,1,0,0,0-1.42,1.41l5.39,5.39-5.39,5.39a1,1,0,0,0,1.42,1.41l5.39-5.38,5.39,5.38a1,1,0,0,0,1.41-1.41l-5.39-5.39,5.39-5.39A1,1,0,0,0,65.33,49.07Z"/></g></svg>