<svg xmlns="http://www.w3.org/2000/svg" viewBox="0 0 128 128"><defs><style>.cls-1{fill:#47566a;}</style></defs><title>Male Psycolog</title><g id="Male_Psycolog" data-name="Male Psycolog"><path class="cls-1" d="M58.86,60.89a1,1,0,0,0-1.42-1.42,5.1,5.1,0,0,1-7.21,0,1,1,0,0,0-1.41,1.42A7.11,7.11,0,0,0,58.86,60.89Z"/><path class="cls-1" d="M121.18,96.19A21.34,21.34,0,0,0,92.9,87.72a29.3,29.3,0,0,0-22.52-10.5H63v-5.8A25.44,25.44,0,0,0,79,50.77h1.22a7.09,7.09,0,0,0,1.66-14c3.49-6,3.4-10.85,3.4-15.46A21.35,21.35,0,0,0,64,0H45.36A14.8,14.8,0,0,0,35.07,4.13,15.54,15.54,0,0,0,22.36,19.46c0,5.71-.39,10.8,3.4,17.32a7.09,7.09,0,0,0,1.66,14h1.22A25.3,25.3,0,0,0,44.71,71.44v5.78H37.58A29.35,29.35,0,0,0,8.25,101.83l-4.17,25a1,1,0,0,0,2,.33l4.17-25A27.36,27.36,0,0,1,30,80.21l-5.53,22.16a1,1,0,0,0,.52,1.14l7.23,3.61-3.61,7.24c-.36.72-.55.08,8.19,13.19a1,1,0,0,0,1.66-1.11l-7.8-11.71,3.8-7.61a1,1,0,0,0-.45-1.34l-7.41-3.7,5.59-22.37a31.57,31.57,0,0,1,6.63-.49l8,47.94a1,1,0,0,0,2-.33l-.85-5.1,2.38-19c.51-4.17,6.64-4.17,7.16,0l2.38,19-.85,5.1a1,1,0,0,0,2,.33l8-47.94a30.15,30.15,0,0,1,6.62.5l5.59,22.36-7.41,3.7a1,1,0,0,0-.44,1.34l3.8,7.61-7.81,11.71a1,1,0,0,0,.83,1.56c.76,0,.2.51,9-12.64.43-.65.41-.3-3.56-8.24l6-3c-2.1,17.29,16.44,29.67,31.62,21.1A21.35,21.35,0,0,0,121.18,96.19ZM72.05,36.6a8.11,8.11,0,0,0-14.52.9,7.84,7.84,0,0,0-7.38,0,8.11,8.11,0,0,0-14.52-.9c-.24,0,.39,0-4.41,0,3-4.91,5.25-9.36,5.33-16.53a14.65,14.65,0,0,0,10.39,4.31H64A13.22,13.22,0,0,1,77.17,36.58C71,36.58,72.31,36.57,72.05,36.6Zm-7-2.08a6.11,6.11,0,1,1-6.12,6.11A6.12,6.12,0,0,1,65,34.52Zm-22.36,0a6.11,6.11,0,1,1-6.11,6.11A6.12,6.12,0,0,1,42.66,34.52Zm42.69,9.16a5.09,5.09,0,0,1-5.09,5.09h-1V38.58h1A5.1,5.1,0,0,1,85.35,43.68Zm-61-24.22A13.55,13.55,0,0,1,35.71,6.05c.78-.13,3.49-4,9.65-4H64A19.35,19.35,0,0,1,83.32,21.32c0,4.87.05,9.51-3.61,15.26h-.52A15.24,15.24,0,0,0,64,22.36H46.94A12.68,12.68,0,0,1,36.38,16.7a1,1,0,0,0-1.12-.4c-.86.26-.71.79-.71,3.44,0,7.86-3,12.45-5.66,16.84H28C23.91,30.2,24.36,24.94,24.36,19.46Zm4.09,29.31h-1a5.1,5.1,0,1,1,0-10.19h1Zm2-1V38.58h4.37a8.11,8.11,0,1,0,15.91,1.24c.35-1.64,5.86-1.64,6.21,0a8.11,8.11,0,1,0,15.92-1.24h4.36v9.16a23.39,23.39,0,0,1-46.77,0ZM61,72.11v5.7l-7.13,7.13-7.13-7.13V72.12A25.69,25.69,0,0,0,61,72.11ZM49.44,94.37l-1.22-3.65,5.62-3.21,5.62,3.21-1.22,3.65A4.64,4.64,0,0,1,49.44,94.37ZM45.29,79.22c7.46,7.46,7,6.89,6.87,6.94-13.39,7.65,3.93-2.25-9.32,5.34L40.79,79.22Zm3,23.23-1.54,12.37L43.19,93.6l3.26-1.86c1,3.08,1.41,5.37,4.08,6.91A5.58,5.58,0,0,0,48.27,102.45Zm11.13,0a5.51,5.51,0,0,0-2.26-3.8c2.67-1.54,3-3.75,4.09-6.91l3.26,1.86L61,114.82Zm5.44-11c-16.06-9.19-5.81-3.32-9.37-5.37l6.91-6.91h4.5ZM77.72,80.22a27.37,27.37,0,0,1,13.42,8.51,21.26,21.26,0,0,0-8.59,10.81Zm34.39,43.28a19.32,19.32,0,1,1,7.33-26.32A19.33,19.33,0,0,1,112.11,123.5Z"/><path class="cls-1" d="M112.77,97.55c-5.77,0,1.25,12.19-8.13,12.19h-1V99.55h1a1,1,0,0,0,0-2h-4.06a1,1,0,0,0,0,2h1v10.19c-4.84,0-6.31-.85-6.48-7.15-.06-2.36-.13-5-2.68-5a1,1,0,0,0,0,2c.51,0,.63,1,.69,3.1.19,7.24,2.47,9.09,8.47,9.09v6.13h-1a1,1,0,0,0,0,2h4.06a1,1,0,0,0,0-2h-1v-6.13h1c10.52,0,6.08-12.19,8.13-12.19A1,1,0,0,0,112.77,97.55Z"/></g></svg>