<svg xmlns="http://www.w3.org/2000/svg" viewBox="0 0 128 128"><defs><style>.cls-1{fill:#47566a;}</style></defs><title>Meditation activity</title><g id="Meditation_activity" data-name="Meditation activity"><path class="cls-1" d="M126.17,56.71c-2.76-2.75-7.18-2.08-10.27-.22l-17,10.17L86.61,43.57a13.16,13.16,0,0,0-11.64-7h-3.6a14.7,14.7,0,0,0,7.35-12.72V14.72a14.72,14.72,0,1,0-29.44,0v9.14a14.7,14.7,0,0,0,7.35,12.72H53a13.16,13.16,0,0,0-11.64,7L29.06,66.66,12.11,56.49C8.93,54.58,4.55,54,1.83,56.71a6.23,6.23,0,0,0,1,9.67C28.53,82.89,28.27,83.29,31.57,83.29a8.14,8.14,0,0,0,6.92-3.81L45,69.85v15.7L28.86,86.76a9.3,9.3,0,0,0-1.37,18.33l10.36,2.44c-.65.26.87.18-12.46.18-.67,0,0-.53-9.89,11.31-2.78,3.29-1,9,4.77,9,1.77,0,1,.14,17.65-8.18L64,113.68l26.08,6.14C106.7,128.14,106,128,107.73,128a5.55,5.55,0,0,0,4.41-1.6,5.46,5.46,0,0,0,.37-7.38c-9.87-11.84-9.23-11.31-9.9-11.31-13.33,0-11.8.08-12.47-.18l10.37-2.44a9.3,9.3,0,0,0-1.38-18.33L83,85.55V69.85l6.49,9.6a8.16,8.16,0,0,0,6.94,3.84c3.29,0,2.2.13,28.68-16.9A6.23,6.23,0,0,0,126.17,56.71ZM51.28,23.86V14.72a12.72,12.72,0,1,1,25.44,0v9.14a12.72,12.72,0,1,1-25.44,0Zm-13.93,94c-.17,0,.88-.47-15.51,7.73-2.43,1.18-5.61-.24-5.61-3.1,0-1.69,0-1.23,9.63-12.82,12.73,0,11.83,0,12.09-.07l3.33-1.3,18.35,4.31ZM124,64.7C97.14,82,98.88,81.29,96.43,81.29a6.19,6.19,0,0,1-5.26-2.93L82.83,66a1,1,0,0,0-1.83.56v20a1,1,0,0,0,1.42.9L99,88.76c8.14.68,9.19,12.48,1.07,14.39l-13.2,3.1L66.76,98.43l7.76-3a1,1,0,0,0-.72-1.87L64,97.36,54.2,93.55a1,1,0,0,0-.72,1.86l36.58,14.23c.27.11-.48.07,12.08.07,9.41,11.28,9.63,11.1,9.63,12.82,0,2.9-3.23,4.27-5.6,3.11-16.38-8.2-15.34-7.7-15.52-7.74L28,103.15A7.3,7.3,0,0,1,29,88.76c23.2-1.74,14.44-1.15,17-1.15a1,1,0,0,0,1-1.13V66.58A1,1,0,0,0,45.17,66L36.81,78.39a6.17,6.17,0,0,1-5.24,2.9c-2.52,0-1.68.09-27.62-16.6a4.22,4.22,0,0,1-.7-6.56c2-2,5.57-1.28,7.83.08,19.51,11.7,18,11,18.64,10.81s-.56,1.7,13.43-24.51A11.18,11.18,0,0,1,53,38.58H75a11.18,11.18,0,0,1,9.88,5.93C98.65,70.37,97.65,68.85,98.28,69s-.87.89,18.65-10.81c2.2-1.33,5.75-2.16,7.82-.08A4.22,4.22,0,0,1,124,64.7Z"/></g></svg>