<svg xmlns="http://www.w3.org/2000/svg" viewBox="0 0 128 128"><defs><style>.cls-1{fill:#47566a;}</style></defs><title>Medicine</title><g id="Medicine"><path class="cls-1" d="M120.71,45.51l-9-4.48V34.52h3.07a1,1,0,0,0,1-1V13.19a1,1,0,0,0-1-1H79.23V5.06A5.07,5.07,0,0,0,74.16,0H5.06A5.07,5.07,0,0,0,0,5.06V122.94A5.07,5.07,0,0,0,5.06,128H120.9a7.1,7.1,0,0,0,7.1-7.1V57.31A13.12,13.12,0,0,0,120.71,45.51Zm-6.9-13H75.16V14.19h38.65ZM5.06,126A3.07,3.07,0,0,1,2,122.94V5.06A3.07,3.07,0,0,1,5.06,2h69.1a3.07,3.07,0,0,1,3.07,3.06v7.13H74.16a1,1,0,0,0-1,1V33.52a1,1,0,0,0,1,1h3.07V41l-9,4.48a13.15,13.15,0,0,0-6.94,8.76A11.16,11.16,0,1,0,61,73.93V90.65a11.17,11.17,0,1,0,0,19.87V120.9a7.06,7.06,0,0,0,2.17,5.1ZM59.23,95.81l-10.5,10.5a9.17,9.17,0,0,1,7.14-14.89A9.07,9.07,0,0,1,61,93v15.22a9.13,9.13,0,0,1-10.83-.47l10.5-10.5A1,1,0,0,0,59.23,95.81Zm0-36.58-10.5,10.5A9.16,9.16,0,0,1,61,56.41c0,.76,0-.15,0,15.2a9.11,9.11,0,0,1-10.82-.47l10.49-10.5A1,1,0,0,0,59.23,59.23ZM120.9,126H68.06A5.1,5.1,0,0,1,63,120.9V57.31a11.12,11.12,0,0,1,6.19-10l9.51-4.76c.79-.4.56-.6.56-8h30.51v7.13c0,.87,0,.63,10.07,5.65a11.12,11.12,0,0,1,6.19,10V65H74.16a1,1,0,0,0-1,1v44.71a1,1,0,0,0,1,1H126v9.16A5.11,5.11,0,0,1,120.9,126Zm5.1-16.26H75.16V67H126Z"/><path class="cls-1" d="M90.42,79.23c2,0-2.38,12.19,8.13,12.19h1v6.13h-1a1,1,0,0,0,0,2h4.06a1,1,0,0,0,0-2h-1V91.42c6,0,8.28-1.85,8.48-9.09.06-2.15.17-3.1.68-3.1a1,1,0,0,0,0-2c-2.55,0-2.62,2.68-2.68,5-.17,6.32-1.66,7.15-6.48,7.15V79.23h1a1,1,0,0,0,0-2H98.55a1,1,0,0,0,0,2h1V89.42h-1c-9.35,0-2.38-12.19-8.13-12.19A1,1,0,0,0,90.42,79.23Z"/><path class="cls-1" d="M23.35,16.26A11.16,11.16,0,1,0,34.52,27.42,11.17,11.17,0,0,0,23.35,16.26Zm-5.72,18.3,10.5-10.5a1,1,0,0,0-1.42-1.41l-10.5,10.5a9.17,9.17,0,1,1,1.42,1.41Z"/><path class="cls-1" d="M55.87,38.58A11.16,11.16,0,1,0,44.71,27.42,11.17,11.17,0,0,0,55.87,38.58Zm0-20.32a9.16,9.16,0,1,1-5.73,16.3l10.5-10.5a1,1,0,0,0-1.41-1.41l-10.5,10.5A9.17,9.17,0,0,1,55.87,18.26Z"/><path class="cls-1" d="M23.35,52.84A11.16,11.16,0,1,0,34.52,64,11.18,11.18,0,0,0,23.35,52.84Zm-5.72,18.3,10.5-10.5a1,1,0,0,0-1.42-1.41l-10.5,10.5a9.17,9.17,0,1,1,1.42,1.41Z"/><path class="cls-1" d="M23.35,89.42a11.16,11.16,0,1,0,11.17,11.16A11.18,11.18,0,0,0,23.35,89.42Zm-5.72,18.3,10.5-10.5a1,1,0,0,0-1.42-1.41l-10.5,10.5a9.17,9.17,0,1,1,1.42,1.41Z"/></g></svg>