<svg xmlns="http://www.w3.org/2000/svg" viewBox="0 0 128 128"><defs><style>.cls-1{fill:#47566a;}</style></defs><title>Mental breakdown</title><g id="Mental_breakdown" data-name="Mental breakdown"><path class="cls-1" d="M92.16,34.07c0-17.21-22.16-24.4-32.22-10.44-10.07-14-32.23-6.76-32.23,10.44,0,19.59,30.46,36.21,31.75,36.91a1.16,1.16,0,0,0,.72.09C63.06,70.34,92.16,52.43,92.16,34.07Zm-2,0c0,16.37-24.07,31.3-29.57,34.51L59,62.15l3.82-5.72A1,1,0,0,0,62.42,55l-3.06-1.53L62.8,48.3A1,1,0,0,0,62.67,47l-3.48-3.48c3.87-5.81,3.9-5.63,3.74-6.23s-.07-.41-7.57-4.16c7.18-9.58,5.1-6.64,5.43-7.2C69.07,12.17,90.16,18.16,90.16,34.07ZM58.7,25.37c-6,8.05-6,7.73-5.83,8.38s-.08.36,7.64,4.22l-3.44,5.15a1,1,0,0,0,.13,1.26l3.48,3.49-3.61,5.41a1,1,0,0,0,.39,1.45l3,1.53-3.44,5.15c-.34.51-.27.29,1.32,6.64C1.31,33.92,44.69,4.12,58.7,25.37Z"/><path class="cls-1" d="M74.35,26.39A7.69,7.69,0,0,1,82,34.07a1,1,0,0,0,1,1c2.84,0,0-10.68-8.68-10.68A1,1,0,0,0,74.35,26.39Z"/><path class="cls-1" d="M112.59,68.12,105.32,58A4.41,4.41,0,0,1,105,53.4c.9-1.8.68-2.91.68-8.71C105.65,21.62,87.79,0,59.12,0A45,45,0,0,0,14.23,44.69c0,9,.86,17.05,4.9,26.73A61.71,61.71,0,0,1,24,98.92c-.65,12.08-1.4,27.87-1.41,28a1,1,0,0,0,2,.1C25.86,98.77,28.16,87.9,21.1,71,17,61.18,16.2,53.54,16.23,44.7A43,43,0,0,1,59.12,2c27.25,0,44.53,20.43,44.53,42.69,0,6,.15,6.57-.47,7.81a6.4,6.4,0,0,0,.52,6.61L111,69.28a4.35,4.35,0,0,1-2.68,6.79l-5.86,1.18a1,1,0,0,0-.81,1c0,6.56-.06,6.3.17,6.65.6.89,1.21,1.83.49,3.18A2.53,2.53,0,0,1,100,89.42H92.45a1,1,0,0,0,0,2h5.61a2.57,2.57,0,0,1,1.81,4.39c-.4.41-.29.35-.29,6.52A11.49,11.49,0,0,1,88.1,113.81c-2.14,0-2.19-.17-15.7-4a1,1,0,0,0-1.27,1V127a1,1,0,0,0,2,0V112.07c11.4,3.26,12.36,3.74,15,3.74a13.5,13.5,0,0,0,13.48-13.48V96.9a4.55,4.55,0,0,0,0-5.77,4.58,4.58,0,0,0,2.18-6.82c-.28-.41-.2.44-.2-5.26l5.06-1A6.35,6.35,0,0,0,112.59,68.12Z"/></g></svg>