<svg xmlns="http://www.w3.org/2000/svg" viewBox="0 0 128 128"><defs><style>.cls-1{fill:#47566a;}</style></defs><title>Mental Health</title><g id="Mental_Health" data-name="Mental Health"><path class="cls-1" d="M112.59,68.12,105.32,58A4.41,4.41,0,0,1,105,53.4c.9-1.8.68-2.91.68-8.71C105.65,21.62,87.79,0,59.12,0A45,45,0,0,0,14.23,44.69c0,9,.86,17.05,4.9,26.73A61.71,61.71,0,0,1,24,98.92c-.65,12.08-1.4,27.87-1.41,28a1,1,0,0,0,2,.1C25.86,98.77,28.16,87.9,21.1,71,17,61.18,16.2,53.54,16.23,44.7A43,43,0,0,1,59.12,2c27.25,0,44.53,20.43,44.53,42.69,0,6,.15,6.57-.47,7.81a6.4,6.4,0,0,0,.52,6.61L111,69.28a4.35,4.35,0,0,1-2.68,6.79l-5.86,1.18a1,1,0,0,0-.81,1c0,6.56-.06,6.3.17,6.65.6.89,1.21,1.83.49,3.18A2.53,2.53,0,0,1,100,89.42H92.45a1,1,0,0,0,0,2h5.61a2.57,2.57,0,0,1,1.81,4.39c-.4.41-.29.35-.29,6.52A11.49,11.49,0,0,1,88.1,113.81c-2.14,0-2.19-.17-15.7-4a1,1,0,0,0-1.27,1V127a1,1,0,0,0,2,0V112.07c11.4,3.26,12.36,3.74,15,3.74a13.5,13.5,0,0,0,13.48-13.48V96.9a4.55,4.55,0,0,0,0-5.77,4.58,4.58,0,0,0,2.18-6.82c-.28-.41-.2.44-.2-5.26l5.06-1A6.35,6.35,0,0,0,112.59,68.12Z"/><path class="cls-1" d="M80.26,36.58H67V23.35a1,1,0,0,0-1-1H53.84a1,1,0,0,0-1,1V36.58H39.61a1,1,0,0,0-1,1V49.77a1,1,0,0,0,1,1H52.84V64a1,1,0,0,0,1,1H66a1,1,0,0,0,1-1V50.77H80.26a1,1,0,0,0,1-1V37.58A1,1,0,0,0,80.26,36.58Zm-1,12.19H66a1,1,0,0,0-1,1V63H54.84V49.77a1,1,0,0,0-1-1H40.61V38.58H53.84a1,1,0,0,0,1-1V24.35H65V37.58a1,1,0,0,0,1,1H79.26Z"/><path class="cls-1" d="M91.42,43.68A31.49,31.49,0,1,0,59.94,75.16,31.52,31.52,0,0,0,91.42,43.68ZM59.94,73.16A29.49,29.49,0,1,1,89.42,43.68,29.52,29.52,0,0,1,59.94,73.16Z"/></g></svg>