<svg xmlns="http://www.w3.org/2000/svg" viewBox="0 0 128 128"><defs><style>.cls-1{fill:#47566a;}</style></defs><title>Mood</title><g id="Mood"><path class="cls-1" d="M20.29,57V45.71a1,1,0,0,0-2,0V57a19.29,19.29,0,1,0,2,0Zm-1,36.53A17.29,17.29,0,1,1,36.58,76.19,17.31,17.31,0,0,1,19.29,93.48Z"/><path class="cls-1" d="M12.83,84a1,1,0,0,0,1.42,1.42,7.13,7.13,0,0,1,10.08,0A1,1,0,0,0,25.75,84,9.17,9.17,0,0,0,12.83,84Z"/><path class="cls-1" d="M109.71,57V45.71a1,1,0,0,0-2,0V57a19.29,19.29,0,1,0,2,0Zm-1,36.53A17.29,17.29,0,1,1,126,76.19,17.31,17.31,0,0,1,108.71,93.48Z"/><path class="cls-1" d="M113.75,83.62a7.14,7.14,0,0,1-10.08,0A1,1,0,0,0,102.25,85a9.15,9.15,0,0,0,12.92,0A1,1,0,0,0,113.75,83.62Z"/><path class="cls-1" d="M99.58,72.13v2a1,1,0,0,0,2,0v-2A1,1,0,0,0,99.58,72.13Z"/><path class="cls-1" d="M115.84,72.13v2a1,1,0,0,0,2,0v-2A1,1,0,0,0,115.84,72.13Z"/><path class="cls-1" d="M12.75,71.23l-4.07,2a1,1,0,0,0,.45,1.89c.34,0,.17,0,4.51-2.14A1,1,0,0,0,12.75,71.23Z"/><path class="cls-1" d="M29.9,73.27l-4.07-2A1,1,0,0,0,24.94,73l4.06,2A1,1,0,0,0,29.9,73.27Z"/><path class="cls-1" d="M85.55,117.13l-4.29-1.07V44.68H113.5a6.3,6.3,0,0,0,6.34-5.46,6.08,6.08,0,0,0-6-6.7H71a13.18,13.18,0,0,0,6.24-11.2V13.19a13.19,13.19,0,1,0-26.38,0v8.13a13.18,13.18,0,0,0,6.24,11.2H14.5a6.08,6.08,0,1,0-.29,12.16H46.74v71.38l-4.29,1.07A5.07,5.07,0,0,0,38.61,122v5a1,1,0,0,0,1,1H57.9a1,1,0,0,0,1-.88l5.24-42,7,42a1,1,0,0,0,1,.84H88.39a1,1,0,0,0,1-1v-5A5.07,5.07,0,0,0,85.55,117.13ZM52.81,21.32V13.19a11.19,11.19,0,1,1,22.38,0v8.13a11.19,11.19,0,1,1-22.38,0ZM87.39,126H73L65,78.06a1,1,0,0,0-2,0L57,126H40.61v-4a3.07,3.07,0,0,1,2.32-3l5-1.26a1,1,0,0,0,.76-1V43.68a1,1,0,0,0-1-1H14.21a4.09,4.09,0,1,1,.29-8.16h99.29a4.09,4.09,0,1,1-.29,8.16H80.26a1,1,0,0,0-1,1v73.16a1,1,0,0,0,.76,1l5,1.26a3.07,3.07,0,0,1,2.32,3Z"/><path class="cls-1" d="M66,24.39H62a1,1,0,0,0,0,2H66A1,1,0,0,0,66,24.39Z"/></g></svg>