<svg xmlns="http://www.w3.org/2000/svg" viewBox="0 0 128 128"><defs><style>.cls-1{fill:#47566a;}</style></defs><title>Music Healing</title><g id="Music_Healing" data-name="Music Healing"><path class="cls-1" d="M42.68,110.74V127a1,1,0,0,0,2,0V110.74A1,1,0,0,0,42.68,110.74Z"/><path class="cls-1" d="M83.32,110.74V127a1,1,0,0,0,2,0V110.74A1,1,0,0,0,83.32,110.74Z"/><path class="cls-1" d="M76.19,91.45H72.5A19.31,19.31,0,0,0,83,77.19h5.36a5.07,5.07,0,0,0,5.06-5.06V64a5.07,5.07,0,0,0-4.09-5,25.38,25.38,0,0,0-50.72,0,5.07,5.07,0,0,0-4.09,5v8.13a5.07,5.07,0,0,0,5.06,5.06H45A19.31,19.31,0,0,0,55.5,91.45H51.81a21.35,21.35,0,0,0-21.33,21.32V127a1,1,0,0,0,2,0V112.77A19.35,19.35,0,0,1,51.81,93.45H76.19a19.35,19.35,0,0,1,19.33,19.32V127a1,1,0,0,0,2,0V112.77A21.35,21.35,0,0,0,76.19,91.45ZM91.45,64v8.13a3.06,3.06,0,0,1-3.06,3.06h-5.1V60.94h5.1A3.06,3.06,0,0,1,91.45,64ZM64,36.55A23.41,23.41,0,0,1,87.36,58.94H83a19.27,19.27,0,0,0-38.06,0H40.64A23.41,23.41,0,0,1,64,36.55ZM44.71,75.19h-5.1a3.06,3.06,0,0,1-3.06-3.06V64a3.06,3.06,0,0,1,3.06-3.06h5.1Zm2-1V62a17.29,17.29,0,0,1,34.58,0V74.16a17.29,17.29,0,0,1-34.58,0Z"/><path class="cls-1" d="M64,108.15a7.47,7.47,0,0,0-13,5c0,7.9,12,14.46,12.54,14.74a1,1,0,0,0,.94,0C65,127.6,77,121,77,113.14A7.47,7.47,0,0,0,64,108.15Zm0,17.7c-21.55-12.56-5.6-23.41-.86-15.51a1,1,0,0,0,1.72,0C69.58,102.46,85.59,113.24,64,125.85Z"/><path class="cls-1" d="M67.6,81.83a5.09,5.09,0,0,1-7.2,0A1,1,0,0,0,59,83.24a7.1,7.1,0,0,0,10,0A1,1,0,0,0,67.6,81.83Z"/><path class="cls-1" d="M17.71,83.43C8.63,78.89,9.44,79.22,9,79.29c-1.22.18-.86.3-.86,17.29a5,5,0,1,0,2,4V81.88l6.68,3.34A1,1,0,0,0,17.71,83.43ZM5.06,103.65a3.07,3.07,0,1,1,3.07-3.07A3.07,3.07,0,0,1,5.06,103.65Z"/><path class="cls-1" d="M119.9,27.48a5,5,0,1,0,2,4c0-22.06.18-20.7-.41-21.13s.7-.67-19.19,6a1,1,0,0,0-.69,1V33.58a5,5,0,1,0,2,4V18l16.29-5.43ZM98.55,40.65a3.07,3.07,0,1,1,3.06-3.07A3.08,3.08,0,0,1,98.55,40.65Zm18.29-6.1a3.07,3.07,0,1,1,3.06-3.07A3.08,3.08,0,0,1,116.84,34.55Z"/><path class="cls-1" d="M127.45,67.17c-8.34-4.17-8.72-4.69-9.39-3.73-.27.39-.19-1-.19,16.88a5,5,0,1,0,2,4V65.62L126.55,69A1,1,0,0,0,127.45,67.17ZM114.81,87.39a3.07,3.07,0,1,1,3.06-3.07A3.08,3.08,0,0,1,114.81,87.39Z"/><path class="cls-1" d="M59.94,26.39A5.07,5.07,0,0,0,65,21.32V2.62c7.1,3.55,6.78,3.44,7.13,3.44a1,1,0,0,0,.45-1.89C64.14,0,63.86-.52,63.19.44c-.27.39-.19-1-.19,16.88a5.06,5.06,0,1,0-3.06,9.07Zm0-8.13a3.07,3.07,0,1,1-3.07,3.06A3.06,3.06,0,0,1,59.94,18.26Z"/><path class="cls-1" d="M34.52,43.68c0-22.07.18-20.71-.42-21.14s.71-.67-19.19,6a1,1,0,0,0-.68.95V45.77a5,5,0,1,0,2,4V30.17l16.29-5.43V39.67a5,5,0,1,0,2,4ZM11.16,52.84a3.07,3.07,0,1,1,3.07-3.07A3.07,3.07,0,0,1,11.16,52.84Zm18.29-6.1a3.07,3.07,0,1,1,3.07-3.06A3.06,3.06,0,0,1,29.45,46.74Z"/></g></svg>