<svg xmlns="http://www.w3.org/2000/svg" viewBox="0 0 128 128"><defs><style>.cls-1{fill:#47566a;}</style></defs><title>Observation</title><g id="Observation"><path class="cls-1" d="M112.59,68.12,105.32,58A4.41,4.41,0,0,1,105,53.4c.9-1.81.68-2.93.68-8.71C105.65,21.62,87.79,0,59.12,0A45,45,0,0,0,14.23,44.69c0,9,.85,17,4.9,26.73A61.67,61.67,0,0,1,24,98.92c-.65,12.08-1.4,27.87-1.41,28a1,1,0,0,0,2,.1c0-.16.76-16,1.41-28A63.58,63.58,0,0,0,21.1,71c-4-9.52-4.9-17.15-4.87-26.27A43,43,0,0,1,59.12,2c27.25,0,44.53,20.44,44.53,42.69,0,6,.15,6.57-.47,7.81a6.4,6.4,0,0,0,.52,6.61L111,69.28a4.35,4.35,0,0,1-2.68,6.79l-5.86,1.18a1,1,0,0,0-.81,1c0,6.56-.06,6.3.17,6.65.59.89,1.22,1.83.49,3.18A2.53,2.53,0,0,1,100,89.42H92.45a1,1,0,0,0,0,2h5.61a2.57,2.57,0,0,1,1.81,4.39c-.4.41-.29.35-.29,6.52A11.49,11.49,0,0,1,88.1,113.81c-2.14,0-2.19-.17-15.7-4a1,1,0,0,0-1.27,1V127a1,1,0,0,0,2,0V112.07c11.4,3.26,12.36,3.74,15,3.74a13.5,13.5,0,0,0,13.48-13.48V96.9a4.54,4.54,0,0,0,0-5.77,4.58,4.58,0,0,0,2.18-6.82c-.28-.41-.2.44-.2-5.26l5.06-1A6.35,6.35,0,0,0,112.59,68.12Z"/><path class="cls-1" d="M85.58,27.17A29.43,29.43,0,0,0,45.46,16C23,28.69,26.74,62.07,51.08,69.73l-1.65,5.93-3-.83a1,1,0,0,0-1.23.7l-7.63,27.41a5.06,5.06,0,1,0,9.76,2.71L55,78.24a1,1,0,0,0-.7-1.23l-3-.82L53,70.25C78.1,76.34,98.14,49.4,85.58,27.17Zm-40.13,78a3.06,3.06,0,1,1-5.9-1.65L46.91,77l5.9,1.64ZM36,55.14C23.94,33.73,44,8.71,67.3,15.2c23.49,6.54,27.3,38.4,6.13,50.35A27.45,27.45,0,0,1,36,55.14Z"/><path class="cls-1" d="M60,63a21.32,21.32,0,1,0-18.6-10.83A21.35,21.35,0,0,0,60,63ZM50.44,24.82a19.32,19.32,0,1,1-7.33,26.33A19.34,19.34,0,0,1,50.44,24.82Z"/><path class="cls-1" d="M49.77,34.52c2,0-2.37,12.19,8.13,12.19h1v6.13h-1a1,1,0,0,0,0,2H62a1,1,0,0,0,0-2h-1V46.71c6,0,8.28-1.85,8.47-9.09.06-2.15.17-3.1.69-3.1a1,1,0,0,0,0-2c-2.55,0-2.62,2.68-2.69,5-.17,6.32-1.65,7.15-6.47,7.15V34.52h1a1,1,0,0,0,0-2H57.9a1,1,0,0,0,0,2h1V44.71h-1c-9.35,0-2.37-12.19-8.13-12.19A1,1,0,0,0,49.77,34.52Z"/></g></svg>