<svg xmlns="http://www.w3.org/2000/svg" viewBox="0 0 128 128"><defs><style>.cls-1{fill:#47566a;}</style></defs><title>Psycology</title><g id="Psycology"><path class="cls-1" d="M127,0h-8.13A19.31,19.31,0,0,0,99.58,19.29V55.87A27.49,27.49,0,0,1,73.13,83.3v-66A13.24,13.24,0,0,1,86.35,4a1,1,0,0,0,1-1V1a1,1,0,0,0-1-1H41.65a1,1,0,0,0-1,1V3a1,1,0,0,0,1,1A13.24,13.24,0,0,1,54.87,17.26v66A27.49,27.49,0,0,1,28.42,55.87V19.29A19.31,19.31,0,0,0,9.13,0H1A1,1,0,0,0,0,1V5.06a1,1,0,0,0,1,1,7.14,7.14,0,0,1,7.13,7.13V43.68c0,24.07,19,45.71,46.74,45.71v21.35A13.24,13.24,0,0,1,41.65,124a1,1,0,0,0-1,1v2a1,1,0,0,0,1,1h44.7a1,1,0,0,0,1-1v-2a1,1,0,0,0-1-1,13.24,13.24,0,0,1-13.22-13.23V89.39c27.65,0,46.74-21.55,46.74-45.71V13.19A7.14,7.14,0,0,1,127,6.06a1,1,0,0,0,1-1V1A1,1,0,0,0,127,0ZM10.13,43.68V13.19A9.15,9.15,0,0,0,2,4.12V2H9.13A17.31,17.31,0,0,1,26.42,19.29V55.87A29.49,29.49,0,0,0,54.87,85.31v2.08C28.42,87.39,10.13,66.81,10.13,43.68Zm75.22,82.26c0,.11-42.7.1-42.7,0a15.25,15.25,0,0,0,14.22-15.2V17.26A15.25,15.25,0,0,0,42.65,2.06c0-.11,42.7-.1,42.7,0a15.25,15.25,0,0,0-14.22,15.2v93.48A15.25,15.25,0,0,0,85.35,125.94ZM126,4.12a9.15,9.15,0,0,0-8.13,9.07V43.68c0,23.08-18.22,43.71-44.74,43.71V85.31a29.49,29.49,0,0,0,28.45-29.44V19.29A17.31,17.31,0,0,1,118.87,2H126Z"/></g></svg>