<svg xmlns="http://www.w3.org/2000/svg" viewBox="0 0 128 128"><defs><style>.cls-1{fill:#47566a;}</style></defs><title>Psycologist</title><g id="Psycologist"><path class="cls-1" d="M112.59,68.12,105.32,58A4.41,4.41,0,0,1,105,53.4c.9-1.81.68-2.93.68-8.71C105.65,21.62,87.79,0,59.12,0A45,45,0,0,0,14.23,44.69c0,9,.85,17,4.9,26.73A61.67,61.67,0,0,1,24,98.92c-.65,12.08-1.4,27.87-1.41,28a1,1,0,0,0,2,.1c0-.16.76-16,1.41-28A63.58,63.58,0,0,0,21.1,71c-4-9.52-4.9-17.15-4.87-26.27A43,43,0,0,1,59.12,2c27.25,0,44.53,20.44,44.53,42.69,0,6,.15,6.57-.47,7.81a6.4,6.4,0,0,0,.52,6.61L111,69.28a4.35,4.35,0,0,1-2.68,6.79l-5.86,1.18a1,1,0,0,0-.81,1c0,6.56-.06,6.3.17,6.65.59.89,1.22,1.83.49,3.18A2.53,2.53,0,0,1,100,89.42H92.45a1,1,0,0,0,0,2h5.61a2.57,2.57,0,0,1,1.81,4.39c-.4.41-.29.35-.29,6.52A11.49,11.49,0,0,1,88.1,113.81c-2.14,0-2.19-.17-15.7-4a1,1,0,0,0-1.27,1V127a1,1,0,0,0,2,0V112.07c11.4,3.26,12.36,3.74,15,3.74a13.5,13.5,0,0,0,13.48-13.48V96.9a4.54,4.54,0,0,0,0-5.77,4.58,4.58,0,0,0,2.18-6.82c-.28-.41-.2.44-.2-5.26l5.06-1A6.35,6.35,0,0,0,112.59,68.12Z"/><path class="cls-1" d="M70.1,77.23a5.11,5.11,0,0,1-5.1-5.1V58.9h5.1A13.21,13.21,0,0,0,83.29,45.71V27.42a5.11,5.11,0,0,1,5.1-5.1,1,1,0,0,0,0-2h-6.1a9.15,9.15,0,0,0-9.13,9.13V47.74A9.17,9.17,0,0,1,65,56.85V27.42a5.11,5.11,0,0,1,5.1-5.1,1,1,0,0,0,0-2H49.77a1,1,0,0,0,0,2,5.11,5.11,0,0,1,5.1,5.1V56.85a9.17,9.17,0,0,1-8.16-9.11V29.45a9.14,9.14,0,0,0-9.13-9.13h-6.1a1,1,0,0,0,0,2,5.11,5.11,0,0,1,5.1,5.1V45.71A13.21,13.21,0,0,0,49.77,58.9h5.1V72.13a5.11,5.11,0,0,1-5.1,5.1,1,1,0,0,0,0,2H70.1A1,1,0,0,0,70.1,77.23Zm5.06-29.49V29.45a7.14,7.14,0,0,1,7.13-7.13c1.36,0,1.19,0,1.08.08a7.08,7.08,0,0,0-2.08,5V45.71A11.21,11.21,0,0,1,70.37,56.9,11.14,11.14,0,0,0,75.16,47.74Zm-36.58-2V27.42a7.08,7.08,0,0,0-2.08-5c-.11-.11-.31-.08,1.08-.08a7.14,7.14,0,0,1,7.13,7.13V47.74A11.17,11.17,0,0,0,49.5,56.9,11.21,11.21,0,0,1,38.58,45.71ZM54.71,77.23a7.11,7.11,0,0,0,2.16-5.1V27.42a7.09,7.09,0,0,0-2.16-5.1H65.16A7.09,7.09,0,0,0,63,27.42V72.13a7.11,7.11,0,0,0,2.16,5.1Z"/></g></svg>