<svg xmlns="http://www.w3.org/2000/svg" viewBox="0 0 128 128"><defs><style>.cls-1{fill:#47566a;}</style></defs><title>Selfcare</title><g id="Selfcare"><path class="cls-1" d="M75.08,89.39a5.84,5.84,0,0,1,5.84,5.83,1,1,0,0,0,1,1c2.66,0,.23-8.83-6.84-8.83A1,1,0,0,0,75.08,89.39Z"/><path class="cls-1" d="M68.06,58.94H59.94a1,1,0,0,0,0,2h8.12A1,1,0,0,0,68.06,58.94Z"/><path class="cls-1" d="M76.19,69.1H72.5A19.3,19.3,0,0,0,83.29,51.81V39.61a19.29,19.29,0,0,0-38.58,0v12.2A19.3,19.3,0,0,0,55.5,69.1H51.81A21.35,21.35,0,0,0,30.48,90.42v18.29a9.15,9.15,0,0,0,9.13,9.13h1V127a1,1,0,0,0,2,0v-9.16H54.42a80.72,80.72,0,0,0,9.1,6,1,1,0,0,0,1,0,80.72,80.72,0,0,0,9.1-6H85.35V127a1,1,0,0,0,2,0v-9.16h1a9.15,9.15,0,0,0,9.13-9.13V90.42A21.35,21.35,0,0,0,76.19,69.1ZM46.71,51.81V39.61a17.29,17.29,0,0,1,34.58,0v12.2a17.29,17.29,0,0,1-34.58,0Zm17.29,70a79.44,79.44,0,0,1-6.83-4.41c6.14-2.54,4.3-11.7-2.32-11.7H44.91C31.74,87.39,55.1,75.64,63.14,89.1a1,1,0,0,0,1.72,0c8.07-13.51,31.39-1.69,18.23,16.58H73.15c-6.62,0-8.46,9.16-2.32,11.7A79.44,79.44,0,0,1,64,121.79Zm31.52-13.08a7.14,7.14,0,0,1-7.13,7.13H73.15a4.08,4.08,0,1,1,0-8.16H88.39a1,1,0,0,0,0-2H85.53C97.91,86.68,74.32,73.22,64,86.81c-10.36-13.64-33.91-.13-21.53,18.87H39.61a1,1,0,0,0,0,2H54.85a4.08,4.08,0,1,1,0,8.16H39.61a7.14,7.14,0,0,1-7.13-7.13V90.42A19.34,19.34,0,0,1,51.81,71.1H76.19A19.34,19.34,0,0,1,95.52,90.42Z"/><path class="cls-1" d="M9.13,63H1a1,1,0,0,0,0,2H9.13A1,1,0,0,0,9.13,63Z"/><path class="cls-1" d="M127,63h-8.13a1,1,0,0,0,0,2H127A1,1,0,0,0,127,63Z"/><path class="cls-1" d="M16,90.57l-7,4.06a1,1,0,0,0,1,1.74l7-4.07A1,1,0,0,0,16,90.57Z"/><path class="cls-1" d="M111.52,37.56c.38,0-.1.22,7.54-4.19a1,1,0,0,0-1-1.74l-7,4.07A1,1,0,0,0,111.52,37.56Z"/><path class="cls-1" d="M119.06,94.63l-7-4.06a1,1,0,0,0-1,1.73l7,4.07A1,1,0,0,0,119.06,94.63Z"/><path class="cls-1" d="M17,35.7l-7-4.07a1,1,0,0,0-1,1.74l7,4.06A1,1,0,0,0,17,35.7Z"/><path class="cls-1" d="M35.7,17a1,1,0,0,0,1.73-1l-4.06-7a1,1,0,0,0-1.74,1Z"/><path class="cls-1" d="M92.3,17l4.07-7a1,1,0,0,0-1.74-1l-4.06,7A1,1,0,0,0,92.3,17Z"/><path class="cls-1" d="M65,9.13V1a1,1,0,0,0-2,0V9.13A1,1,0,0,0,65,9.13Z"/></g></svg>