<svg xmlns="http://www.w3.org/2000/svg" viewBox="0 0 128 128"><defs><style>.cls-1{fill:#47566a;}</style></defs><title>Sleep</title><g id="Sleep"><path class="cls-1" d="M122.94,101.61H101.58V94.48A21.32,21.32,0,0,0,89.22,75.16h11.36A9.13,9.13,0,0,0,109.71,66V39.61a1,1,0,0,0-2,0V66a7.14,7.14,0,0,1-7.13,7.13H72.5A19.3,19.3,0,0,0,83.29,55.87V43.68a19.29,19.29,0,0,0-38.58,0V55.87A19.3,19.3,0,0,0,55.5,73.16H27.42A7.14,7.14,0,0,1,20.29,66V21.32a7.14,7.14,0,0,1,7.13-7.13H98.55a1,1,0,0,0,0-2H27.42a9.15,9.15,0,0,0-9.13,9.13V66a9.14,9.14,0,0,0,9.13,9.13H38.78A21.32,21.32,0,0,0,26.42,94.48v7.13H5.06A5.07,5.07,0,0,0,0,106.68V127a1,1,0,0,0,2,0V115.81H126V127a1,1,0,0,0,2,0V106.68A5.07,5.07,0,0,0,122.94,101.61ZM46.71,55.87V43.68a17.29,17.29,0,0,1,34.58,0V55.87a17.29,17.29,0,0,1-34.58,0ZM28.42,94.48A19.35,19.35,0,0,1,47.74,75.16H80.26A19.35,19.35,0,0,1,99.58,94.48v7.13H87.35V92.45a1,1,0,0,0-2,0v9.16H42.65V92.45a1,1,0,0,0-2,0v9.16H28.42ZM2,113.81v-7.13a3.07,3.07,0,0,1,3.06-3.07H122.94a3.07,3.07,0,0,1,3.06,3.07v7.13Z"/><path class="cls-1" d="M89.54,50.25c.38.71.12.52,9,.52a1,1,0,0,0,0-2H92.29l7.09-10.63a1,1,0,0,0-.83-1.56H90.42a1,1,0,0,0,0,2h6.26C89.11,49.94,89.14,49.5,89.54,50.25Z"/><path class="cls-1" d="M104.65,20.29h6.26l-7.1,10.64a1,1,0,0,0,.84,1.55h8.12a1,1,0,0,0,0-2h-6.26c7.58-11.35,7.54-10.92,7.15-11.66s-.13-.53-9-.53A1,1,0,0,0,104.65,20.29Z"/><path class="cls-1" d="M118.87,2h6.26L118,12.64a1,1,0,0,0,.83,1.55H127a1,1,0,0,0,0-2h-6.26C128.31.84,128.28,1.27,127.88.53s-.12-.53-9-.53A1,1,0,0,0,118.87,2Z"/><path class="cls-1" d="M68.06,63H59.94a1,1,0,0,0,0,2h8.12A1,1,0,0,0,68.06,63Z"/></g></svg>