<svg xmlns="http://www.w3.org/2000/svg" viewBox="0 0 128 128"><defs><style>.cls-1{fill:#47566a;}</style></defs><title>Support System</title><g id="Support_System" data-name="Support System"><path class="cls-1" d="M110.74,83.32h-3.21a13.18,13.18,0,0,0,6.24-11.19V66a13.19,13.19,0,0,0-26.38,0v6.1a13.18,13.18,0,0,0,6.24,11.19H71a13.18,13.18,0,0,0,6.24-11.19V66a13.19,13.19,0,0,0-26.38,0v6.1a13.18,13.18,0,0,0,6.24,11.19H34.37a13.18,13.18,0,0,0,6.24-11.19V66a13.19,13.19,0,0,0-26.38,0v6.1a13.18,13.18,0,0,0,6.24,11.19H17.26A17.28,17.28,0,0,0,0,100.58V127a1,1,0,0,0,2,0V100.58A15.28,15.28,0,0,1,17.26,85.32H47.83a17.29,17.29,0,0,0-9.22,15.26V127a1,1,0,0,0,2,0V100.58A15.28,15.28,0,0,1,55.87,85.32H72.13a15.28,15.28,0,0,1,15.26,15.26V127a1,1,0,0,0,2,0V100.58a17.29,17.29,0,0,0-9.22-15.26h30.57A15.28,15.28,0,0,1,126,100.58V127a1,1,0,0,0,2,0V100.58A17.28,17.28,0,0,0,110.74,83.32ZM16.23,72.13V66a11.19,11.19,0,0,1,22.38,0v6.1a11.19,11.19,0,0,1-22.38,0Zm36.58,0V66a11.19,11.19,0,0,1,22.38,0v6.1a11.19,11.19,0,0,1-22.38,0Zm36.58,0V66a11.19,11.19,0,0,1,22.38,0v6.1a11.19,11.19,0,0,1-22.38,0Z"/><path class="cls-1" d="M48.77,98.55V127a1,1,0,0,0,2,0V98.55A1,1,0,0,0,48.77,98.55Z"/><path class="cls-1" d="M10.16,98.55V127a1,1,0,0,0,2,0V98.55A1,1,0,0,0,10.16,98.55Z"/><path class="cls-1" d="M77.23,98.55V127a1,1,0,0,0,2,0V98.55A1,1,0,0,0,77.23,98.55Z"/><path class="cls-1" d="M115.84,98.55V127a1,1,0,0,0,2,0V98.55A1,1,0,0,0,115.84,98.55Z"/><path class="cls-1" d="M66.17,74.64a3.14,3.14,0,0,1-4.34,0,1,1,0,0,0-1.41,0c-1.29,1.29,1.65,2.9,3.58,2.9s4.87-1.61,3.58-2.9A1,1,0,0,0,66.17,74.64Z"/><path class="cls-1" d="M102.75,74.64a3.14,3.14,0,0,1-4.34,0,1,1,0,0,0-1.41,0c-1.29,1.29,1.65,2.9,3.58,2.9s4.87-1.61,3.58-2.9A1,1,0,0,0,102.75,74.64Z"/><path class="cls-1" d="M29.59,74.64a3.14,3.14,0,0,1-4.34,0,1,1,0,0,0-1.41,0c-1.29,1.29,1.65,2.9,3.58,2.9s4.87-1.61,3.58-2.9A1,1,0,0,0,29.59,74.64Z"/><path class="cls-1" d="M63.53,46.59a1,1,0,0,0,.94,0c1.1-.59,27-14.7,27-31.36C91.42.73,72.74-5.65,64,6.13,55.26-5.65,36.58.72,36.58,15.23,36.58,31.89,62.43,46,63.53,46.59ZM63.14,8.44a1,1,0,0,0,1.72,0C71.78-3.1,89.42,1.92,89.42,15.23c0,14.29-21.9,27.33-25.42,29.33-3.52-2-25.42-15-25.42-29.33C38.58,1.93,56.22-3.1,63.14,8.44Z"/><path class="cls-1" d="M76.19,8.1a7.13,7.13,0,0,1,7.13,7.13,1,1,0,0,0,1,1c2.78,0,.1-10.13-8.13-10.13A1,1,0,0,0,76.19,8.1Z"/></g></svg>