<svg xmlns="http://www.w3.org/2000/svg" viewBox="0 0 128 128"><defs><style>.cls-1{fill:#47566a;}</style></defs><title>Theraphy</title><g id="Theraphy"><path class="cls-1" d="M81.17,29a4.09,4.09,0,0,1-4,3.18,1,1,0,0,0-1,1c0,2.2,6.24.79,7-4.15A8.08,8.08,0,0,0,88,26.71a1,1,0,0,0-1.41-1.42A6.13,6.13,0,1,1,78,16.62a1,1,0,0,0,0-1.41c-1.89-1.89-6.62,6.29-1.42,11.5A8.06,8.06,0,0,0,81.17,29Z"/><path class="cls-1" d="M74.92,45a7.13,7.13,0,0,1,6.23,6.94,8.85,8.85,0,0,0-5.67,8.24,1,1,0,0,0,2,0,6.85,6.85,0,0,1,6.84-6.84,1,1,0,0,0,0-2,9.39,9.39,0,0,0-1.19.09,9.12,9.12,0,0,0-8-8.41A1,1,0,0,0,74.92,45Z"/><path class="cls-1" d="M33.9,41a10.17,10.17,0,0,0,2.86,14.48,10.19,10.19,0,0,0,6.79,11.37A11.32,11.32,0,0,0,64,66.43a11.32,11.32,0,0,0,20.45.43,10.2,10.2,0,0,0,6.79-11.37A10.17,10.17,0,0,0,94.1,41a9,9,0,0,0,.35-13.15,10.21,10.21,0,0,0-7.79-12.74,7.9,7.9,0,0,0-8.19-9.37A7.89,7.89,0,0,0,64,4.05a7.89,7.89,0,0,0-14.47,1.7,7.9,7.9,0,0,0-8.19,9.37,10.2,10.2,0,0,0-7.79,12.74A9,9,0,0,0,33.9,41Zm37-39a5.9,5.9,0,0,1,5.6,4.13A7.86,7.86,0,0,0,71,13.62a1,1,0,0,0,2,0,5.88,5.88,0,1,1,11.42,2A1,1,0,0,0,85.31,17a8.19,8.19,0,0,1,7,10.88,1,1,0,0,0,.29,1.1,7,7,0,1,1-10.36,9.31,1,1,0,0,0-1.66,1.12,9,9,0,0,0,11.83,2.79,8.17,8.17,0,0,1-2.82,12,1,1,0,0,0-.5,1.13,8.19,8.19,0,0,1-5.68,9.84,1,1,0,0,0-.64.55,9.32,9.32,0,1,1-8.76-13.14,1,1,0,0,0,0-2,11.27,11.27,0,0,0-9,4.86V42.87a5.56,5.56,0,0,1,4.86-5.5,1,1,0,0,0-.25-2A7.44,7.44,0,0,0,65,37.77V7.88A5.89,5.89,0,0,1,70.88,2ZM35.35,28.93c.88-.75-.18-1.29-.18-3.84A8.2,8.2,0,0,1,42.69,17a1,1,0,0,0,.77-.47c.47-.73-.26-1-.26-2.86a5.89,5.89,0,0,1,11.77,0,1,1,0,0,0,2,0,7.86,7.86,0,0,0-5.45-7.49A5.87,5.87,0,0,1,63,7.88V28.59a7.54,7.54,0,0,0-4.61-2.38,1,1,0,0,0-.25,2A5.56,5.56,0,0,1,63,33.7V55.35a11.32,11.32,0,0,0-9-4.86,1,1,0,0,0,0,2,9.32,9.32,0,1,1-8.76,13.14,1,1,0,0,0-.64-.55,8.19,8.19,0,0,1-5.68-9.84,1,1,0,0,0-.5-1.13,8.17,8.17,0,0,1-2.82-12,9,9,0,0,0,11.83-2.79,1,1,0,0,0-1.66-1.12,7,7,0,1,1-10.36-9.31Z"/><path class="cls-1" d="M44.8,29c.76,4.92,7,6.41,7,4.15a1,1,0,0,0-1-1,4.09,4.09,0,0,1-4-3.18,8.13,8.13,0,0,0,4.64-13.79,1,1,0,0,0-1.42,1.41,6.13,6.13,0,0,1-8.67,8.67A1,1,0,0,0,40,26.71,8.08,8.08,0,0,0,44.8,29Z"/><path class="cls-1" d="M52.83,43a9.12,9.12,0,0,0-8,8.41,9.39,9.39,0,0,0-1.19-.09,1,1,0,0,0,0,2,6.85,6.85,0,0,1,6.84,6.84,1,1,0,0,0,2,0,8.85,8.85,0,0,0-5.67-8.24A7.13,7.13,0,0,1,53.08,45,1,1,0,0,0,52.83,43Z"/><path class="cls-1" d="M118.42,57.68c-8.74,20.88-11.24,22-26.2,31.28,1.26-1.87,2.94-4.51,5.15-8.19,2.92-4.86,3.54-8.4,1.85-10.5s-4.84-1.88-7.09-1.12c-6.53,2.17-10.62,14.49-16.49,18.4C70.79,90.79,66,98.79,64,106.16c-2-7.37-6.79-15.37-11.64-18.61-5.92-3.94-9.92-16.21-16.49-18.4-2.25-.76-5.46-.91-7.09,1.12s-1.07,5.64,1.85,10.5c2.21,3.68,3.89,6.32,5.15,8.19-15.2-9.4-17.4-10.37-26.23-31.35A5.06,5.06,0,0,0,0,59.94c0,4.46,8.23,24.9,14.52,31.19,6,6,12.24,12.24,20.43,18.38,7.54,5.65,5.73,17.21,5.71,17.33a1,1,0,0,0,2,.32c.09-.52,2-12.86-6.48-19.25-8.08-6.06-14.25-12.23-20.22-18.2S2,63.5,2,59.94a3.07,3.07,0,0,1,5.74-1.49C10.92,66.06,14.59,74.94,20.62,81c3.29,3.3,18.29,12.24,18.44,12.33a1,1,0,0,0,1.26-1.52c-.55-.63-2.77-3.36-8-12-2.34-3.9-3.07-6.89-2-8.22.92-1.15,3.12-1.07,4.89-.48,5.54,1.85,9.84,14,16,18.18C57.07,93.1,63,105,63,112.77V127a1,1,0,0,0,2,0V112.77C65,105,70.93,93.1,76.75,89.22,83,85.08,87.2,72.9,92.77,71c1.77-.59,4-.67,4.89.48,1.07,1.33.34,4.32-2,8.22-5.21,8.67-7.43,11.4-8,12a1,1,0,0,0,1.26,1.52c.15-.09,15.15-9,18.44-12.33,6-6,9.68-14.81,12.85-22.44A3.06,3.06,0,0,1,126,59.94c0,3.56-7.91,23.75-13.93,29.77s-12.14,12.14-20.22,18.2c-8.52,6.39-6.57,18.73-6.48,19.25a1,1,0,0,0,2-.32c0-.12-1.83-11.68,5.71-17.33,8.19-6.14,14.41-12.37,20.43-18.38C119.77,84.84,128,64.4,128,59.94A5.06,5.06,0,0,0,118.42,57.68Z"/></g></svg>